<?xml version="1.0" encoding="UTF-8"?>
<svg width="26px" height="16px" viewBox="0 0 26 16" version="1.1" xmlns="http://www.w3.org/2000/svg" xmlns:xlink="http://www.w3.org/1999/xlink">
    <!-- Generator: Sketch 60.1 (88133) - https://sketch.com -->
    <title>svg/FPL/Attribut/sbb_sa_re</title>
    <desc>Created with Sketch.</desc>
    <g stroke="none" stroke-width="1" fill="none" fill-rule="evenodd">
        <path d="M5.9414,6.999 L6.9614,6.999 C8.4624,6.999 10.2824,6.539 10.2824,4.699 C10.2824,3.238 9.0214,3.238 7.8814,3.238 L6.7214,3.238 L5.9414,6.999 Z M4.3404,1.038 L7.6414,1.038 C10.2214,1.038 13.2024,0.998 13.2024,4.339 C13.2024,6.739 11.4024,8.02 9.1224,8.06 L9.1224,8.1 C9.8814,8.14 10.3624,8.619 10.5424,9.38 L11.8824,15.001 L8.9414,15.001 L8.2614,11.721 C7.9414,10.24 8.0214,9.2 6.5014,9.2 L5.4414,9.2 L4.2204,15.001 L1.4204,15.001 L4.3404,1.038 Z" fill="#000000"></path>
        <polygon fill="#000000" points="16.7803 1.0381 25.0023 1.0381 24.5823 3.2381 19.1213 3.2381 18.4003 6.6791 23.2823 6.6791 22.8423 8.8801 17.9403 8.8801 17.1203 12.8011 22.6413 12.8011 22.1623 15.0011 13.8403 15.0011"></polygon>
    </g>
</svg>