<?xml version="1.0" encoding="UTF-8"?>
<svg width="27px" height="16px" viewBox="0 0 27 16" version="1.1" xmlns="http://www.w3.org/2000/svg" xmlns:xlink="http://www.w3.org/1999/xlink">
    <!-- Generator: Sketch 60.1 (88133) - https://sketch.com -->
    <title>svg/FPL/Attribut/sbb_sa_sd</title>
    <desc>Created with Sketch.</desc>
    <g stroke="none" stroke-width="1" fill="none" fill-rule="evenodd">
        <path d="M11.4023,3.7178 C10.5823,3.2978 9.5213,2.9968 8.5023,2.9968 C7.5013,2.9968 6.1613,3.3978 6.1613,4.5978 C6.1613,6.8378 10.9223,6.6978 10.9223,10.5788 C10.9223,13.9998 8.2413,15.2398 5.1803,15.2398 C3.8403,15.2398 2.4603,14.9198 1.2003,14.4598 L1.9203,12.0788 C3.0003,12.5788 4.1403,13.0398 5.3403,13.0398 C6.6813,13.0398 8.0023,12.3598 8.0023,10.8598 C8.0023,8.3388 3.2403,8.7388 3.2403,5.0178 C3.2403,2.0768 5.7603,0.7968 8.4413,0.7968 C9.6623,0.7968 10.9223,0.9568 12.0623,1.4168 L11.4023,3.7178 Z" fill="#000000"></path>
        <path d="M16.0205,12.7998 L17.3215,12.7998 C21.3625,12.7998 23.2025,10.4398 23.2025,6.5988 C23.2025,4.4178 21.5015,3.2368 18.9815,3.2368 L18.0215,3.2368 L16.0205,12.7998 Z M15.6805,1.0368 L19.8815,1.0368 C22.8025,1.0368 26.1235,2.1568 26.1235,6.9978 C26.1235,10.2388 24.4825,14.9998 17.4415,14.9998 L12.7405,14.9998 L15.6805,1.0368 Z" fill="#000000"></path>
    </g>
</svg>