<?xml version="1.0" encoding="UTF-8"?>
<svg width="25px" height="16px" viewBox="0 0 25 16" version="1.1" xmlns="http://www.w3.org/2000/svg" xmlns:xlink="http://www.w3.org/1999/xlink">
    <!-- Generator: Sketch 60.1 (88133) - https://sketch.com -->
    <title>svg/FPL/Attribut/sbb_sa_sb</title>
    <desc>Created with Sketch.</desc>
    <g stroke="none" stroke-width="1" fill="none" fill-rule="evenodd">
        <path d="M11.4023,3.7178 C10.5823,3.2978 9.5213,2.9968 8.5023,2.9968 C7.5013,2.9968 6.1613,3.3978 6.1613,4.5978 C6.1613,6.8378 10.9223,6.6978 10.9223,10.5788 C10.9223,13.9998 8.2413,15.2398 5.1803,15.2398 C3.8403,15.2398 2.4603,14.9198 1.2003,14.4598 L1.9203,12.0788 C3.0003,12.5788 4.1403,13.0398 5.3403,13.0398 C6.6813,13.0398 8.0023,12.3598 8.0023,10.8598 C8.0023,8.3388 3.2403,8.7388 3.2403,5.0178 C3.2403,2.0768 5.7603,0.7968 8.4413,0.7968 C9.6623,0.7968 10.9223,0.9568 12.0623,1.4168 L11.4023,3.7178 Z" fill="#000000"></path>
        <path d="M16.9609,6.6777 L18.0619,6.6777 C19.4819,6.6777 21.0229,6.2787 21.0229,4.6377 C21.0229,3.2977 19.7419,3.2377 18.6819,3.2377 L17.7009,3.2377 L16.9609,6.6777 Z M15.6809,12.7997 L16.6409,12.7997 C18.3609,12.7997 20.2819,12.5997 20.2819,10.4397 C20.2819,8.9787 18.9219,8.7587 17.4209,8.7587 L16.5219,8.7587 L15.6809,12.7997 Z M15.4609,1.0367 L19.6019,1.0367 C21.7819,1.0367 23.8219,1.8367 23.8219,4.3777 C23.8219,6.0777 22.4619,7.4387 20.8419,7.6987 L20.8419,7.7387 C22.4019,7.9787 23.0819,9.1787 23.0819,10.6787 C23.0819,14.6797 18.6019,14.9997 16.5219,14.9997 L12.5399,14.9997 L15.4609,1.0367 Z" fill="#000000"></path>
    </g>
</svg>