<?xml version="1.0" encoding="UTF-8"?>
<svg width="26px" height="16px" viewBox="0 0 26 16" version="1.1" xmlns="http://www.w3.org/2000/svg" xmlns:xlink="http://www.w3.org/1999/xlink">
    <!-- Generator: Sketch 60.1 (88133) - https://sketch.com -->
    <title>svg/FPL/Attribut/sbb_sa_rb</title>
    <desc>Created with Sketch.</desc>
    <g stroke="none" stroke-width="1" fill="none" fill-rule="evenodd">
        <path d="M5.9414,6.998 L6.9614,6.998 C8.4624,6.998 10.2824,6.538 10.2824,4.698 C10.2824,3.237 9.0214,3.237 7.8814,3.237 L6.7214,3.237 L5.9414,6.998 Z M4.3404,1.037 L7.6414,1.037 C10.2214,1.037 13.2024,0.997 13.2024,4.338 C13.2024,6.738 11.4024,8.019 9.1224,8.059 L9.1224,8.099 C9.8814,8.139 10.3624,8.618 10.5424,9.379 L11.8824,15 L8.9414,15 L8.2614,11.72 C7.9414,10.239 8.0214,9.199 6.5014,9.199 L5.4414,9.199 L4.2204,15 L1.4204,15 L4.3404,1.037 Z" fill="#000000"></path>
        <path d="M18.0605,6.6777 L19.1615,6.6777 C20.5815,6.6777 22.1225,6.2787 22.1225,4.6377 C22.1225,3.2977 20.8415,3.2377 19.7815,3.2377 L18.8005,3.2377 L18.0605,6.6777 Z M16.7805,12.7997 L17.7405,12.7997 C19.4605,12.7997 21.3815,12.5997 21.3815,10.4397 C21.3815,8.9787 20.0215,8.7587 18.5205,8.7587 L17.6215,8.7587 L16.7805,12.7997 Z M16.5605,1.0367 L20.7015,1.0367 C22.8815,1.0367 24.9215,1.8367 24.9215,4.3777 C24.9215,6.0777 23.5615,7.4387 21.9415,7.6987 L21.9415,7.7387 C23.5015,7.9787 24.1815,9.1787 24.1815,10.6787 C24.1815,14.6797 19.7015,14.9997 17.6215,14.9997 L13.6395,14.9997 L16.5605,1.0367 Z" fill="#000000"></path>
    </g>
</svg>