<?xml version="1.0" encoding="UTF-8"?>
<svg width="29px" height="16px" viewBox="0 0 29 16" version="1.1" xmlns="http://www.w3.org/2000/svg" xmlns:xlink="http://www.w3.org/1999/xlink">
    <!-- Generator: Sketch 60.1 (88133) - https://sketch.com -->
    <title>svg/FPL/Attribut/sbb_sa_vc</title>
    <desc>Created with Sketch.</desc>
    <g stroke="none" stroke-width="1" fill="none" fill-rule="evenodd">
        <polygon fill="#000000" points="3.1406 1.0376 5.9406 1.0376 7.2416 11.8996 7.2816 11.8996 13.0826 1.0376 16.1236 1.0376 8.3216 14.9996 4.9806 14.9996"></polygon>
        <path d="M27.123,3.8179 C26.483,3.3779 25.423,2.9979 23.923,2.9979 C20.821,2.9979 18.642,5.3389 18.642,8.6189 C18.642,10.9589 20.161,13.0399 22.622,13.0399 C23.803,13.0399 24.763,12.6599 25.562,12.1799 L25.123,14.8599 C24.102,15.1409 23.022,15.2399 21.962,15.2399 C17.741,15.2399 15.721,12.3999 15.721,8.6189 C15.721,4.1179 18.781,0.7969 23.723,0.7969 C25.123,0.7969 26.602,0.9779 27.823,1.4779 L27.123,3.8179 Z" fill="#000000"></path>
    </g>
</svg>