<?xml version="1.0" encoding="UTF-8"?>
<svg width="29px" height="16px" viewBox="0 0 29 16" version="1.1" xmlns="http://www.w3.org/2000/svg" xmlns:xlink="http://www.w3.org/1999/xlink">
    <!-- Generator: Sketch 60.1 (88133) - https://sketch.com -->
    <title>svg/FPL/Attribut/sbb_sa_gr</title>
    <desc>Created with Sketch.</desc>
    <g stroke="none" stroke-width="1" fill="none" fill-rule="evenodd">
        <path d="M14.8232,3.998 C13.7432,3.298 12.4022,2.997 10.9422,2.997 C7.5412,2.997 5.4012,5.658 5.4012,8.959 C5.4012,11.219 6.9612,13.04 9.3422,13.04 C9.9812,13.04 10.4022,13.04 10.7212,12.899 L11.5022,9.199 L8.5422,9.199 L9.0022,6.998 L14.6632,6.998 L13.0622,14.62 C12.2422,14.96 10.6812,15.24 9.3222,15.24 C5.2202,15.24 2.4802,13.359 2.4802,9.039 C2.4802,3.937 5.8212,0.797 10.8622,0.797 C12.4232,0.797 14.0622,1.017 15.5232,1.577 L14.8232,3.998 Z" fill="#000000"></path>
        <path d="M20.3809,6.998 L21.4009,6.998 C22.9019,6.998 24.7219,6.538 24.7219,4.698 C24.7219,3.237 23.4609,3.237 22.3209,3.237 L21.1609,3.237 L20.3809,6.998 Z M18.7799,1.037 L22.0809,1.037 C24.6609,1.037 27.6419,0.997 27.6419,4.338 C27.6419,6.738 25.8419,8.019 23.5619,8.059 L23.5619,8.099 C24.3209,8.139 24.8019,8.618 24.9819,9.379 L26.3219,15 L23.3809,15 L22.7009,11.72 C22.3809,10.239 22.4609,9.199 20.9409,9.199 L19.8809,9.199 L18.6599,15 L15.8599,15 L18.7799,1.037 Z" fill="#000000"></path>
    </g>
</svg>