<svg xmlns="http://www.w3.org/2000/svg" width="22" height="16" viewBox="0 0 22 16">
  <path fill-rule="evenodd" d="M3.30482773 14.3493368C2.95526848 13.8161961 2.66480737 13.3459257 2.43470182 12.9347535 2.20333887 12.5235813 1.90659072 11.9099665 1.5444574 11.0939091 1.18232407 10.2765943 1 9.26438133 1 8.05475543 1 6.93189064 1.19867037 5.89578696 1.59098147 4.95398883 1.98329257 4.01093329 2.55415552 2.95219627 3.30357033 1.77903519L4.5760666 1.77903519C4.16489438 2.50330184 3.84928513 3.09051109 3.63175365 3.53814811 3.41422217 3.98452773 3.15393885 4.59814254 2.85090367 5.37899252 2.5503833 6.1585851 2.39823701 7.05763138 2.39823701 8.07361654 2.39823701 9.11223504 2.56421478 10.0552906 2.89742774 10.8939813 3.22938329 11.7364442 3.4871518 12.343772 3.66821847 12.7184794 3.84928513 13.0931868 4.15232031 13.6376442 4.5760666 14.3505942L3.30482773 14.3505942 3.30482773 14.3493368 3.30482773 14.3493368zM18.4176071 1.77777778C19.1066663 2.8541185 19.6636978 3.87010366 20.0861867 4.82573327 20.5099329 5.78136288 20.7236922 6.8577036 20.7236922 8.05475543 20.7236922 9.20402578 20.55017 10.1873184 20.2056404 11.0033757 19.8611107 11.8206905 19.5907682 12.4028702 19.3983848 12.7549442 19.2047441 13.1057609 18.8765608 13.6389016 18.4176071 14.3518516L17.148883 14.3518516C17.6065793 13.5068738 17.9284756 12.8995461 18.1095423 12.5386702 18.2918663 12.1752794 18.5358034 11.5893276 18.8451256 10.7782998 19.151933 9.96852947 19.3078515 9.05565171 19.3078515 8.03966654 19.3078515 7.49520915 19.253783 6.95075175 19.1443885 6.40755176 19.0337367 5.86435177 18.8702737 5.32240919 18.6539997 4.78423883 18.4364682 4.24606847 18.2327682 3.78585737 18.0479293 3.40486293 17.8580608 3.0251259 17.5613126 2.48444073 17.148883 1.78155L18.4176071 1.78155 18.4176071 1.77777778 18.4176071 1.77777778zM10.0500002 13.6014L10.0500002 9.1018C9.12180019 8.98 8.25660019 8.637 7.70640019 8.091 7.15760019 7.545 6.81460019 6.9808 6.72080019 6.4152 6.60600019 5.8482 6.55000019 5.424 6.55000019 5.1216L6.55000019 1 14.9500002 1 14.9500002 5.1216C14.9500002 5.3834 14.8926002 5.8076 14.7974002 6.3942 14.6840002 6.9822 14.3452002 7.5464 13.7936002 8.0924 13.2434002 8.637 12.3810002 8.98 11.4500002 9.1018L11.4500002 13.6 14.9486002 13.6014 14.9486002 15 6.55000019 15 6.55000019 13.6014 10.0500002 13.6014z"/>
</svg>
