<?xml version="1.0" encoding="UTF-8"?>
<svg width="30px" height="16px" viewBox="0 0 30 16" version="1.1" xmlns="http://www.w3.org/2000/svg" xmlns:xlink="http://www.w3.org/1999/xlink">
    <!-- Generator: Sketch 60.1 (88133) - https://sketch.com -->
    <title>svg/FPL/Attribut/sbb_sa_ob</title>
    <desc>Created with Sketch.</desc>
    <g stroke="none" stroke-width="1" fill="none" fill-rule="evenodd">
        <g transform="translate(2.000000, 0.000000)" fill="#000000">
            <path d="M3.3008,9.5986 C3.3008,11.4196 4.2208,13.0396 6.2418,13.0396 C9.4428,13.0396 11.2228,9.1996 11.2228,6.4186 C11.2228,4.5576 10.2618,2.9976 8.2418,2.9976 C4.9818,2.9976 3.3008,6.7786 3.3008,9.5986 M14.1438,6.7186 C14.1438,8.9986 13.3038,11.2196 11.8028,12.8996 C10.3428,14.5206 8.2218,15.2406 5.8818,15.2406 C2.4408,15.2406 0.3808,12.7596 0.3808,9.4396 C0.3808,7.2186 1.1608,5.0586 2.5808,3.3976 C4.1008,1.6576 6.0418,0.7976 8.3218,0.7976 C12.1028,0.7976 14.1438,2.9976 14.1438,6.7186"></path>
            <path d="M19.4014,6.6787 L20.5024,6.6787 C21.9224,6.6787 23.4634,6.2787 23.4634,4.6377 C23.4634,3.2977 22.1824,3.2377 21.1224,3.2377 L20.1414,3.2377 L19.4014,6.6787 Z M18.1214,12.7997 L19.0814,12.7997 C20.8014,12.7997 22.7224,12.5997 22.7224,10.4397 C22.7224,8.9787 21.3624,8.7597 19.8614,8.7597 L18.9624,8.7597 L18.1214,12.7997 Z M17.9014,1.0377 L22.0424,1.0377 C24.2224,1.0377 26.2624,1.8377 26.2624,4.3787 C26.2624,6.0787 24.9024,7.4387 23.2824,7.6987 L23.2824,7.7387 C24.8424,7.9787 25.5224,9.1787 25.5224,10.6797 C25.5224,14.6797 21.0424,14.9997 18.9624,14.9997 L14.9804,14.9997 L17.9014,1.0377 Z"></path>
        </g>
    </g>
</svg>