<?xml version="1.0" encoding="UTF-8"?>
<svg width="28px" height="16px" viewBox="0 0 28 16" version="1.1" xmlns="http://www.w3.org/2000/svg" xmlns:xlink="http://www.w3.org/1999/xlink">
    <!-- Generator: Sketch 60.1 (88133) - https://sketch.com -->
    <title>svg/FPL/Attribut/sbb_sa_xp</title>
    <desc>Created with Sketch.</desc>
    <g stroke="none" stroke-width="1" fill="none" fill-rule="evenodd">
        <polygon fill="#000000" points="7.4209 1.0371 9.4419 5.8381 9.4819 5.8381 13.3219 1.0371 16.6229 1.0371 10.8419 7.6981 14.0819 15.0001 11.0219 15.0001 8.8819 9.3981 8.8419 9.3981 4.4809 15.0001 0.9999 15.0001 7.4609 7.4181 4.3999 1.0371"></polygon>
        <path d="M20.041,7.498 L21.041,7.498 C22.581,7.498 24.162,6.698 24.162,4.958 C24.162,3.537 23.021,3.237 21.821,3.237 L20.941,3.237 L20.041,7.498 Z M18.44,15 L15.64,15 L18.601,1.037 L20.961,1.037 C23.542,1.037 27.082,1.177 27.082,4.658 C27.082,8.038 24.302,9.699 21.181,9.699 L19.561,9.699 L18.44,15 Z" fill="#000000"></path>
    </g>
</svg>