<?xml version="1.0" encoding="UTF-8"?>
<svg width="25px" height="16px" viewBox="0 0 25 16" version="1.1" xmlns="http://www.w3.org/2000/svg" xmlns:xlink="http://www.w3.org/1999/xlink">
    <!-- Generator: Sketch 60.1 (88133) - https://sketch.com -->
    <title>svg/FPL/Attribut/sbb_sa_ep</title>
    <desc>Created with Sketch.</desc>
    <g stroke="none" stroke-width="1" fill="none" fill-rule="evenodd">
        <polygon fill="#000000" points="4.5605 1.0371 12.7825 1.0371 12.3625 3.2371 6.9015 3.2371 6.1805 6.6781 11.0625 6.6781 10.6225 8.8791 5.7205 8.8791 4.9005 12.8001 10.4215 12.8001 9.9425 15.0001 1.6205 15.0001"></polygon>
        <path d="M16.9414,7.498 L17.9414,7.498 C19.4814,7.498 21.0624,6.698 21.0624,4.958 C21.0624,3.537 19.9214,3.237 18.7214,3.237 L17.8414,3.237 L16.9414,7.498 Z M15.3404,15 L12.5404,15 L15.5014,1.037 L17.8614,1.037 C20.4414,1.037 23.9824,1.177 23.9824,4.658 C23.9824,8.038 21.2024,9.699 18.0814,9.699 L16.4614,9.699 L15.3404,15 Z" fill="#000000"></path>
    </g>
</svg>