<?xml version="1.0" encoding="UTF-8"?>
<svg width="27px" height="16px" viewBox="0 0 27 16" version="1.1" xmlns="http://www.w3.org/2000/svg" xmlns:xlink="http://www.w3.org/1999/xlink">
    <!-- Generator: Sketch 60.1 (88133) - https://sketch.com -->
    <title>svg/FPL/Attribut/sbb_sa_ds</title>
    <desc>Created with Sketch.</desc>
    <g stroke="none" stroke-width="1" fill="none" fill-rule="evenodd">
        <g transform="translate(1.000000, 0.000000)" fill="#000000">
            <path d="M3.9009,12.7998 L5.2009,12.7998 C9.2419,12.7998 11.0829,10.4398 11.0829,6.5988 C11.0829,4.4188 9.3819,3.2378 6.8609,3.2378 L5.9009,3.2378 L3.9009,12.7998 Z M3.5609,1.0378 L7.7619,1.0378 C10.6819,1.0378 14.0039,2.1578 14.0039,6.9988 C14.0039,10.2388 12.3629,14.9998 5.3209,14.9998 L0.6199,14.9998 L3.5609,1.0378 Z"></path>
            <path d="M24.8428,3.7183 C24.0228,3.2983 22.9618,2.9983 21.9428,2.9983 C20.9418,2.9983 19.6018,3.3983 19.6018,4.5983 C19.6018,6.8393 24.3628,6.6983 24.3628,10.5793 C24.3628,14.0003 21.6818,15.2403 18.6208,15.2403 C17.2808,15.2403 15.9008,14.9203 14.6408,14.4603 L15.3608,12.0803 C16.4408,12.5803 17.5808,13.0403 18.7808,13.0403 C20.1218,13.0403 21.4428,12.3593 21.4428,10.8593 C21.4428,8.3393 16.6808,8.7393 16.6808,5.0183 C16.6808,2.0773 19.2008,0.7973 21.8818,0.7973 C23.1028,0.7973 24.3628,0.9573 25.5028,1.4173 L24.8428,3.7183 Z"></path>
        </g>
    </g>
</svg>