<?xml version="1.0" encoding="UTF-8"?>
<svg width="27px" height="16px" viewBox="0 0 27 16" version="1.1" xmlns="http://www.w3.org/2000/svg" xmlns:xlink="http://www.w3.org/1999/xlink">
    <!-- Generator: Sketch 60.1 (88133) - https://sketch.com -->
    <title>svg/FPL/Attribut/sbb_sa_bz</title>
    <desc>Created with Sketch.</desc>
    <g stroke="none" stroke-width="1" fill="none" fill-rule="evenodd">
        <path d="M5.8408,6.6777 L6.9418,6.6777 C8.3618,6.6777 9.9028,6.2787 9.9028,4.6377 C9.9028,3.2977 8.6218,3.2377 7.5618,3.2377 L6.5808,3.2377 L5.8408,6.6777 Z M4.5608,12.7997 L5.5208,12.7997 C7.2408,12.7997 9.1618,12.5997 9.1618,10.4397 C9.1618,8.9787 7.8018,8.7587 6.3008,8.7587 L5.4018,8.7587 L4.5608,12.7997 Z M4.3408,1.0367 L8.4818,1.0367 C10.6618,1.0367 12.7018,1.8367 12.7018,4.3777 C12.7018,6.0777 11.3418,7.4387 9.7218,7.6987 L9.7218,7.7387 C11.2818,7.9787 11.9618,9.1787 11.9618,10.6787 C11.9618,14.6797 7.4818,14.9997 5.4018,14.9997 L1.4198,14.9997 L4.3408,1.0367 Z" fill="#000000"></path>
        <polygon fill="#000000" points="16.1807 1.0371 25.7627 1.0371 25.2827 3.2371 16.8607 12.8001 23.2217 12.8001 22.7617 15.0001 12.9597 15.0001 13.3997 12.8001 21.8017 3.2371 15.7007 3.2371"></polygon>
    </g>
</svg>