<?xml version="1.0" encoding="UTF-8"?>
<svg width="25px" height="16px" viewBox="0 0 25 16" version="1.1" xmlns="http://www.w3.org/2000/svg" xmlns:xlink="http://www.w3.org/1999/xlink">
    <!-- Generator: Sketch 60.1 (88133) - https://sketch.com -->
    <title>svg/FPL/Attribut/sbb_sa_vn</title>
    <desc>Created with Sketch.</desc>
    <g stroke="none" stroke-width="1" fill="none" fill-rule="evenodd">
        <path d="M14.5721218,2.48022716 L16.896541,2.48022716 L17.3750129,3.4675271 L21.35746,1 L22.3115126,2.52937532 L18.1556014,5.10820857 L18.9679917,6.82694889 C19.2021683,6.76334538 19.4074342,6.71564275 19.5823438,6.68384099 C19.7572535,6.65203924 19.9567372,6.63613836 20.1793495,6.63613836 C21.2721735,6.63613836 22.201652,7.01920496 22.9663397,7.78244708 C23.7397006,8.52689726 24.1285493,9.4505937 24.1285493,10.5564275 C24.1285493,11.6391327 23.7454827,12.5628291 22.980795,13.3275168 C22.2059886,14.0806402 21.2779556,14.4579246 20.1938049,14.4579246 C19.1226639,14.4579246 18.1975219,14.0806402 17.4227155,13.3275168 C16.6580279,12.5628291 16.2749613,11.6391327 16.2749613,10.5564275 C16.2749613,9.88714507 16.4252969,9.26556531 16.7274135,8.69313371 C17.0309757,8.11925658 17.4704182,7.64656686 18.0428498,7.27506453 L17.7103769,6.5580795 L13.631079,11.0811564 L11.2416107,11.0811564 C11.082602,12.0988126 10.641714,12.9242127 9.91894682,13.5501291 C9.20774393,14.1659267 8.34765101,14.475271 7.34011358,14.475271 C6.82839442,14.475271 6.36726897,14.39143 5.95384615,14.2266391 C5.5389778,14.0632938 5.1096541,13.7886422 4.662984,13.4070212 L1.93959732,15 L1,13.4706247 L3.64532783,11.861745 C3.55859577,11.5957666 3.50077439,11.3673722 3.46897264,11.1765617 C3.43717088,10.9843056 3.42127001,10.7732576 3.42127001,10.5405266 C3.42127001,9.46794011 3.80289107,8.55436242 4.56757873,7.7997935 C5.3409396,7.03510583 6.27041817,6.65203924 7.35456892,6.65203924 C7.72607124,6.65203924 8.16695922,6.73298916 8.67723283,6.89199793 L9.98255034,4.96365514 L9.44336603,3.97635519 L7.8966443,3.97635519 L7.8966443,3.02230253 L11.6709344,3.02230253 L11.6709344,3.97635519 L10.6055756,3.97635519 L10.9394941,4.64708312 L15.4784719,4.62973671 L16.4975736,3.9937016 L16.2431595,3.4675271 L14.5721218,3.4675271 L14.5721218,2.48022716 L14.5721218,2.48022716 Z M7.40371709,7.6566856 C6.57542592,7.6566856 5.86855963,7.93856479 5.28456376,8.50087765 C4.71213216,9.06463604 4.42447083,9.75415591 4.42447083,10.5723283 L4.42447083,10.9221477 C4.43458957,10.9452762 4.44759938,10.9886422 4.46494579,11.0580279 C4.48084667,11.1274135 4.50975736,11.2199277 4.55167785,11.337016 L6.57542592,10.095302 L8.1033557,7.76799174 C7.89230769,7.69282395 7.65813113,7.6566856 7.40371709,7.6566856 L7.40371709,7.6566856 Z M8.35921528,13.3101704 C8.67867837,13.1945276 8.96489417,13.0297367 9.22075374,12.8172432 C9.47372225,12.6061951 9.68910687,12.3503356 9.86401652,12.0525555 C10.0389262,11.7547754 10.1603511,11.4309757 10.2239546,11.0811564 L8.40691791,11.0970573 L5.54042334,12.833144 C6.03913268,13.2696954 6.64481156,13.4865256 7.35601446,13.4865256 C7.70583376,13.4865256 8.03975219,13.4272586 8.35921528,13.3101704 L8.35921528,13.3101704 Z M9.0125968,8.19876097 L8.56592669,8.89839959 L9.31471347,8.43727414 C9.19762519,8.32018585 9.09643779,8.24068147 9.0125968,8.19876097 L9.0125968,8.19876097 Z M10.5101704,5.9683015 L9.58502839,7.35456892 C9.77583893,7.49334022 9.90593702,7.59019102 9.97532266,7.64801239 C10.0447083,7.7072793 10.1271038,7.78822922 10.222509,7.89519876 L11.2112545,7.30686629 L10.5101704,5.9683015 L10.5101704,5.9683015 Z M12.0221993,8.86804337 L11.1303046,9.42312855 L11.2416107,10.0765101 L12.6755808,10.0765101 L12.0221993,8.86804337 L12.0221993,8.86804337 Z M11.4656686,5.61848219 L12.0858028,6.79659267 L13.966443,5.63293753 L11.4656686,5.61848219 L11.4656686,5.61848219 Z M13.6007228,9.67898813 L17.2637068,5.61703665 L12.8837377,8.32452246 L13.6007228,9.67898813 L13.6007228,9.67898813 Z M18.1252452,12.6249871 C18.7077956,13.1887455 19.398761,13.4706247 20.1952504,13.4706247 C20.9917398,13.4706247 21.6812597,13.1887455 22.2652555,12.6249871 C22.8376871,12.072793 23.1253485,11.3832731 23.1253485,10.5549819 C23.1253485,9.73825503 22.8391327,9.04728962 22.2652555,8.48353123 C21.6812597,7.91977284 20.9743934,7.63933918 20.1461022,7.63933918 C19.9654104,7.63933918 19.8382034,7.64512132 19.7630356,7.65524006 C19.6893134,7.66680434 19.5722251,7.69716056 19.4132163,7.75064533 L20.8630872,10.8252969 L19.9379453,11.2705214 L18.4880743,8.19731544 C17.6814662,8.77986577 17.2781621,9.56623645 17.2781621,10.5549819 C17.2796076,11.3514713 17.5600413,12.0424368 18.1252452,12.6249871 L18.1252452,12.6249871 Z" fill="#000000"></path>
    </g>
</svg>