<svg xmlns="http://www.w3.org/2000/svg" width="29" height="16" viewBox="0 0 29 16">
  <g fill="none" fill-rule="evenodd">
    <path fill="#000" d="M11.7363,3.7178 C10.9163,3.2978 9.8553,2.9968 8.8363,2.9968 C7.8343,2.9968 6.4943,3.3978 6.4943,4.5978 C6.4943,6.8378 11.2563,6.6978 11.2563,10.5788 C11.2563,13.9998 8.5743,15.2398 5.5133,15.2398 C4.1743,15.2398 2.7933,14.9198 1.5333,14.4598 L2.2543,12.0788 C3.3343,12.5788 4.4743,13.0398 5.6743,13.0398 C7.0153,13.0398 8.3363,12.3598 8.3363,10.8598 C8.3363,8.3388 3.5743,8.7388 3.5743,5.0178 C3.5743,2.0768 6.0933,0.7968 8.7753,0.7968 C9.9963,0.7968 11.2563,0.9568 12.3963,1.4168 L11.7363,3.7178 Z"/>
    <polygon fill="#000" points="15.994 1.037 18.795 1.037 17.615 6.678 23.256 6.678 24.435 1.037 27.236 1.037 24.316 15 21.515 15 22.795 8.879 17.154 8.879 15.875 15 13.074 15"/>
  </g>
</svg>
