<svg xmlns="http://www.w3.org/2000/svg" width="26" height="16" viewBox="0 0 26 16">
  <path fill-rule="evenodd" d="M5.8213 7.498L6.8213 7.498C8.3613 7.498 9.9423 6.698 9.9423 4.958 9.9423 3.537 8.8013 3.237 7.6013 3.237L6.7213 3.237 5.8213 7.498zM4.2203 15L1.4203 15 4.3813 1.037 6.7413 1.037C9.3223 1.037 12.8623 1.177 12.8623 4.658 12.8623 8.038 10.0823 9.699 6.9613 9.699L5.3413 9.699 4.2203 15zM17.0615 6.998L18.0815 6.998C19.5825 6.998 21.4025 6.538 21.4025 4.698 21.4025 3.237 20.1415 3.237 19.0015 3.237L17.8415 3.237 17.0615 6.998zM15.4605 1.037L18.7615 1.037C21.3415 1.037 24.3225.997 24.3225 4.338 24.3225 6.738 22.5225 8.019 20.2425 8.059L20.2425 8.099C21.0015 8.139 21.4825 8.618 21.6625 9.379L23.0015 15 20.0615 15 19.3815 11.72C19.0615 10.239 19.1415 9.199 17.6215 9.199L16.5615 9.199 15.3405 15 12.5405 15 15.4605 1.037z"/>
</svg>
