<?xml version="1.0" encoding="UTF-8"?>
<svg width="29px" height="16px" viewBox="0 0 29 16" version="1.1" xmlns="http://www.w3.org/2000/svg" xmlns:xlink="http://www.w3.org/1999/xlink">
    <!-- Generator: Sketch 60.1 (88133) - https://sketch.com -->
    <title>svg/FPL/Attribut/sbb_sa_gp</title>
    <desc>Created with Sketch.</desc>
    <g stroke="none" stroke-width="1" fill="none" fill-rule="evenodd">
        <path d="M14.8232,3.998 C13.7432,3.298 12.4022,2.997 10.9422,2.997 C7.5412,2.997 5.4012,5.658 5.4012,8.959 C5.4012,11.219 6.9612,13.04 9.3422,13.04 C9.9812,13.04 10.4022,13.04 10.7212,12.899 L11.5022,9.199 L8.5422,9.199 L9.0022,6.998 L14.6632,6.998 L13.0622,14.62 C12.2422,14.96 10.6812,15.24 9.3222,15.24 C5.2202,15.24 2.4802,13.359 2.4802,9.039 C2.4802,3.937 5.8212,0.797 10.8622,0.797 C12.4232,0.797 14.0622,1.017 15.5232,1.577 L14.8232,3.998 Z" fill="#000000"></path>
        <path d="M20.2607,7.498 L21.2607,7.498 C22.8007,7.498 24.3817,6.698 24.3817,4.958 C24.3817,3.537 23.2407,3.237 22.0407,3.237 L21.1607,3.237 L20.2607,7.498 Z M18.6597,15 L15.8597,15 L18.8207,1.037 L21.1807,1.037 C23.7617,1.037 27.3017,1.177 27.3017,4.658 C27.3017,8.038 24.5217,9.699 21.4007,9.699 L19.7807,9.699 L18.6597,15 Z" fill="#000000"></path>
    </g>
</svg>