<?xml version="1.0" encoding="UTF-8"?>
<svg width="29px" height="16px" viewBox="0 0 29 16" version="1.1" xmlns="http://www.w3.org/2000/svg" xmlns:xlink="http://www.w3.org/1999/xlink">
    <!-- Generator: Sketch 60.1 (88133) - https://sketch.com -->
    <title>svg/FPL/Attribut/sbb_sa_sh</title>
    <desc>Created with Sketch.</desc>
    <g stroke="none" stroke-width="1" fill="none" fill-rule="evenodd">
        <path d="M11.7363,3.7178 C10.9163,3.2978 9.8553,2.9968 8.8363,2.9968 C7.8343,2.9968 6.4943,3.3978 6.4943,4.5978 C6.4943,6.8378 11.2563,6.6978 11.2563,10.5788 C11.2563,13.9998 8.5743,15.2398 5.5133,15.2398 C4.1743,15.2398 2.7933,14.9198 1.5333,14.4598 L2.2543,12.0788 C3.3343,12.5788 4.4743,13.0398 5.6743,13.0398 C7.0153,13.0398 8.3363,12.3598 8.3363,10.8598 C8.3363,8.3388 3.5743,8.7388 3.5743,5.0178 C3.5743,2.0768 6.0933,0.7968 8.7753,0.7968 C9.9963,0.7968 11.2563,0.9568 12.3963,1.4168 L11.7363,3.7178 Z" fill="#000000"></path>
        <polygon fill="#000000" points="15.9941 1.0371 18.7951 1.0371 17.6151 6.6781 23.2561 6.6781 24.4351 1.0371 27.2361 1.0371 24.3161 15.0001 21.5151 15.0001 22.7951 8.8791 17.1541 8.8791 15.8751 15.0001 13.0741 15.0001"></polygon>
    </g>
</svg>