<?xml version="1.0" encoding="UTF-8"?>
<svg width="28px" height="16px" viewBox="0 0 28 16" version="1.1" xmlns="http://www.w3.org/2000/svg" xmlns:xlink="http://www.w3.org/1999/xlink">
    <!-- Generator: Sketch 60.1 (88133) - https://sketch.com -->
    <title>svg/FPL/Attribut/sbb_sa_rc</title>
    <desc>Created with Sketch.</desc>
    <g stroke="none" stroke-width="1" fill="none" fill-rule="evenodd">
        <path d="M5.9414,6.998 L6.9614,6.998 C8.4624,6.998 10.2824,6.538 10.2824,4.698 C10.2824,3.237 9.0214,3.237 7.8814,3.237 L6.7214,3.237 L5.9414,6.998 Z M4.3404,1.037 L7.6414,1.037 C10.2214,1.037 13.2024,0.997 13.2024,4.338 C13.2024,6.738 11.4024,8.019 9.1224,8.059 L9.1224,8.099 C9.8814,8.139 10.3624,8.618 10.5424,9.379 L11.8824,15 L8.9414,15 L8.2614,11.72 C7.9414,10.239 8.0214,9.199 6.5014,9.199 L5.4414,9.199 L4.2204,15 L1.4204,15 L4.3404,1.037 Z" fill="#000000"></path>
        <path d="M26.0029,3.8174 C25.3619,3.3784 24.3019,2.9974 22.8019,2.9974 C19.7009,2.9974 17.5209,5.3384 17.5209,8.6184 C17.5209,10.9594 19.0409,13.0404 21.5019,13.0404 C22.6819,13.0404 23.6419,12.6594 24.4419,12.1794 L24.0019,14.8604 C22.9819,15.1394 21.9009,15.2404 20.8419,15.2404 C16.6199,15.2404 14.5999,12.3994 14.5999,8.6184 C14.5999,4.1174 17.6609,0.7964 22.6019,0.7964 C24.0019,0.7964 25.4819,0.9764 26.7019,1.4774 L26.0029,3.8174 Z" fill="#000000"></path>
    </g>
</svg>