<?xml version="1.0" encoding="UTF-8"?>
<svg width="27px" height="16px" viewBox="0 0 27 16" version="1.1" xmlns="http://www.w3.org/2000/svg" xmlns:xlink="http://www.w3.org/1999/xlink">
    <!-- Generator: Sketch 60.1 (88133) - https://sketch.com -->
    <title>svg/FPL/Attribut/sbb_sa_vp</title>
    <desc>Created with Sketch.</desc>
    <g stroke="none" stroke-width="1" fill="none" fill-rule="evenodd">
        <polygon fill="#000000" points="3.1406 1.0371 5.9416 1.0371 7.2416 11.8991 7.2816 11.8991 13.0826 1.0371 16.1226 1.0371 8.3216 15.0001 4.9806 15.0001"></polygon>
        <path d="M19.1611,7.498 L20.1611,7.498 C21.7011,7.498 23.2821,6.698 23.2821,4.958 C23.2821,3.537 22.1411,3.237 20.9411,3.237 L20.0611,3.237 L19.1611,7.498 Z M17.5601,15 L14.7601,15 L17.7211,1.037 L20.0811,1.037 C22.6621,1.037 26.2021,1.177 26.2021,4.658 C26.2021,8.038 23.4221,9.699 20.3011,9.699 L18.6811,9.699 L17.5601,15 Z" fill="#000000"></path>
    </g>
</svg>