<svg xmlns="http://www.w3.org/2000/svg" width="17" height="16" viewBox="0 0 17 16">
  <path fill-rule="evenodd" d="M4.8912013,9.7881443 L2.98288436,7.64060293 L2.12764183,6.61292656 C1.66654133,5.97667398 1.43523018,5.25578923 1.43523018,4.4502723 C1.43523018,3.35609922 1.8385029,2.32388898 2.64504834,1.350619 L2.84440203,1.1345047 L2.94331798,1 L7.7841124,6.46179768 L7.77802526,4.39435462 L11.5200917,1.00151129 L12.4072917,1.95513451 L9.08371581,4.97015565 L9.08523759,6.56003145 L13.1864451,2.80145624 L14.1010372,3.78077137 L9.97395936,7.53330143 L11.5900938,7.63758036 L14.9014955,4.64673985 L15.8100004,5.58373889 L12.0846736,8.97658222 L9.8856959,8.83300979 L14.0295133,13.507426 L12.3220718,14.999068 L8.0382503,10.1644552 L7.94542149,9.82139266 L7.83889662,10.1463197 L2.5263492,14.999068 L1,13.3472294 L4.8912013,9.7881443 L4.8912013,9.7881443 Z M3.0163636,3.47397975 C2.95549225,3.61906347 2.9128823,3.75961333 2.88853376,3.8986519 C2.865707,4.03617918 2.85353273,4.17219517 2.85353273,4.30518858 C2.85353273,4.96864436 3.10006171,5.58222761 3.59464146,6.1489609 L4.10443905,6.72476193 L5.93818859,8.81940819 L7.02474226,7.8476495 L3.16854198,3.46793459 L3.03462501,3.11278173 L3.0163636,3.47397975 L3.0163636,3.47397975 Z"/>
</svg>
