<?xml version="1.0" encoding="UTF-8"?>
<svg width="21px" height="16px" viewBox="0 0 21 16" version="1.1" xmlns="http://www.w3.org/2000/svg" xmlns:xlink="http://www.w3.org/1999/xlink">
    <!-- Generator: Sketch 60.1 (88133) - https://sketch.com -->
    <title>svg/FPL/Attribut/sbb_sa_fl</title>
    <desc>Created with Sketch.</desc>
    <g stroke="none" stroke-width="1" fill="none" fill-rule="evenodd">
        <path d="M16.924338,1 L14.2558638,1 L16.2075662,2.95081967 L16.0945776,2.95081967 C13.7906683,2.95081967 11.752459,4.11160151 10.5334174,5.87881463 C9.31437579,4.11160151 7.27704918,2.95081967 4.97225725,2.95081967 L4.8592686,2.95081967 L6.810971,1 L4.14249685,1 L1,4.14249685 L4.14249685,7.28499369 L6.810971,7.28499369 L4.8592686,5.33417402 L4.97225725,5.33417402 C7.38209332,5.33417402 9.34174023,7.29470366 9.34174023,9.703657 L9.34174023,15 L9.60655738,15 L11.4602774,15 L11.7250946,15 L11.7250946,9.703657 C11.7250946,7.29470366 13.6856242,5.33417402 16.0945776,5.33417402 L16.2075662,5.33417402 L14.2558638,7.28499369 L16.924338,7.28499369 L20.0668348,4.14249685 L16.924338,1 Z" fill="#000000"></path>
    </g>
</svg>