<?xml version="1.0" encoding="UTF-8"?>
<svg width="26px" height="16px" viewBox="0 0 26 16" version="1.1" xmlns="http://www.w3.org/2000/svg" xmlns:xlink="http://www.w3.org/1999/xlink">
    <!-- Generator: Sketch 60.1 (88133) - https://sketch.com -->
    <title>svg/FPL/Attribut/sbb_sa_pr</title>
    <desc>Created with Sketch.</desc>
    <g stroke="none" stroke-width="1" fill="none" fill-rule="evenodd">
        <path d="M5.8213,7.498 L6.8213,7.498 C8.3613,7.498 9.9423,6.698 9.9423,4.958 C9.9423,3.537 8.8013,3.237 7.6013,3.237 L6.7213,3.237 L5.8213,7.498 Z M4.2203,15 L1.4203,15 L4.3813,1.037 L6.7413,1.037 C9.3223,1.037 12.8623,1.177 12.8623,4.658 C12.8623,8.038 10.0823,9.699 6.9613,9.699 L5.3413,9.699 L4.2203,15 Z" fill="#000000"></path>
        <path d="M17.0615,6.998 L18.0815,6.998 C19.5825,6.998 21.4025,6.538 21.4025,4.698 C21.4025,3.237 20.1415,3.237 19.0015,3.237 L17.8415,3.237 L17.0615,6.998 Z M15.4605,1.037 L18.7615,1.037 C21.3415,1.037 24.3225,0.997 24.3225,4.338 C24.3225,6.738 22.5225,8.019 20.2425,8.059 L20.2425,8.099 C21.0015,8.139 21.4825,8.618 21.6625,9.379 L23.0015,15 L20.0615,15 L19.3815,11.72 C19.0615,10.239 19.1415,9.199 17.6215,9.199 L16.5615,9.199 L15.3405,15 L12.5405,15 L15.4605,1.037 Z" fill="#000000"></path>
    </g>
</svg>