<svg xmlns="http://www.w3.org/2000/svg" width="38" height="16" viewBox="0 0 38 16">
  <g fill="none" fill-rule="evenodd">
    <path fill="#000" d="M9.4617,1.0384 L0.9997,15.0014 L4.1007,15.0014 L5.8807,11.7994 L11.8227,11.7994 L12.3017,15.0014 L15.1027,15.0014 L12.5617,1.0384 L9.4617,1.0384 Z M10.4817,3.5184 L10.5617,3.5184 L11.4417,9.5994 L7.1207,9.5994 L10.4817,3.5184 Z"/>
    <polygon fill="#000" points="34.263 1.038 29.322 11.74 29.282 11.74 29.222 1.038 25.461 1.038 20.821 11.74 20.78 11.74 20.361 1.038 17.56 1.038 18.439 15.001 21.901 15.001 26.821 3.839 26.861 3.839 27.001 15.001 30.502 15.001 37.164 1.038"/>
  </g>
</svg>
