<svg xmlns="http://www.w3.org/2000/svg" width="28" height="16" viewBox="0 0 28 16">
  <path fill-rule="evenodd" d="M5.9414 6.998L6.9614 6.998C8.4624 6.998 10.2824 6.538 10.2824 4.698 10.2824 3.237 9.0214 3.237 7.8814 3.237L6.7214 3.237 5.9414 6.998zM4.3404 1.037L7.6414 1.037C10.2214 1.037 13.2024.997 13.2024 4.338 13.2024 6.738 11.4024 8.019 9.1224 8.059L9.1224 8.099C9.8814 8.139 10.3624 8.618 10.5424 9.379L11.8824 15 8.9414 15 8.2614 11.72C7.9414 10.239 8.0214 9.199 6.5014 9.199L5.4414 9.199 4.2204 15 1.4204 15 4.3404 1.037zM26.0029 3.8174C25.3619 3.3784 24.3019 2.9974 22.8019 2.9974 19.7009 2.9974 17.5209 5.3384 17.5209 8.6184 17.5209 10.9594 19.0409 13.0404 21.5019 13.0404 22.6819 13.0404 23.6419 12.6594 24.4419 12.1794L24.0019 14.8604C22.9819 15.1394 21.9009 15.2404 20.8419 15.2404 16.6199 15.2404 14.5999 12.3994 14.5999 8.6184 14.5999 4.1174 17.6609.7964 22.6019.7964 24.0019.7964 25.4819.9764 26.7019 1.4774L26.0029 3.8174z"/>
</svg>
