<?xml version="1.0" encoding="UTF-8"?>
<svg width="20px" height="16px" viewBox="0 0 20 16" version="1.1" xmlns="http://www.w3.org/2000/svg" xmlns:xlink="http://www.w3.org/1999/xlink">
    <!-- Generator: Sketch 60.1 (88133) - https://sketch.com -->
    <title>svg/FPL/Attribut/sbb_sa_bi</title>
    <desc>Created with Sketch.</desc>
    <g stroke="none" stroke-width="1" fill="none" fill-rule="evenodd">
        <g transform="translate(1.000000, 1.000000)" fill="#000000">
            <path d="M4.8408,5.6787 L5.9418,5.6787 C7.3618,5.6787 8.9018,5.2787 8.9018,3.6377 C8.9018,2.2977 7.6218,2.2377 6.5618,2.2377 L5.5808,2.2377 L4.8408,5.6787 Z M3.5608,11.7997 L4.5208,11.7997 C6.2408,11.7997 8.1618,11.5997 8.1618,9.4397 C8.1618,7.9787 6.8008,7.7597 5.3008,7.7597 L4.4008,7.7597 L3.5608,11.7997 Z M3.3408,0.0377 L7.4818,0.0377 C9.6618,0.0377 11.7028,0.8377 11.7028,3.3787 C11.7028,5.0787 10.3418,6.4387 8.7218,6.6987 L8.7218,6.7387 C10.2818,6.9787 10.9628,8.1787 10.9628,9.6797 C10.9628,13.6797 6.4818,13.9997 4.4008,13.9997 L0.4198,13.9997 L3.3408,0.0377 Z"></path>
            <polygon points="15.501 0.0376 18.422 0.0376 15.48 13.9996 12.56 13.9996"></polygon>
        </g>
    </g>
</svg>