<?xml version="1.0" encoding="UTF-8"?>
<svg width="33px" height="16px" viewBox="0 0 33 16" version="1.1" xmlns="http://www.w3.org/2000/svg" xmlns:xlink="http://www.w3.org/1999/xlink">
    <!-- Generator: Sketch 60.1 (88133) - https://sketch.com -->
    <title>svg/FPL/Attribut/sbb_sa_mp</title>
    <desc>Created with Sketch.</desc>
    <g stroke="none" stroke-width="1" fill="none" fill-rule="evenodd">
        <polygon fill="#000000" points="4.5811 1.0371 9.2021 1.0371 10.1421 11.1001 10.1821 11.1001 15.6841 1.0371 20.3441 1.0371 17.3631 15.0001 14.4031 15.0001 17.0431 3.4371 17.0041 3.4371 10.6821 15.0001 8.0021 15.0001 6.8811 3.4371 6.8411 3.4371 4.2801 15.0001 1.6201 15.0001"></polygon>
        <path d="M24.7012,7.498 L25.7012,7.498 C27.2412,7.498 28.8222,6.698 28.8222,4.958 C28.8222,3.537 27.6812,3.237 26.4812,3.237 L25.6012,3.237 L24.7012,7.498 Z M23.1002,15 L20.3002,15 L23.2612,1.037 L25.6212,1.037 C28.2012,1.037 31.7422,1.177 31.7422,4.658 C31.7422,8.038 28.9622,9.699 25.8412,9.699 L24.2212,9.699 L23.1002,15 Z" fill="#000000"></path>
    </g>
</svg>