<svg xmlns="http://www.w3.org/2000/svg" width="14" height="16" viewBox="0 0 14 16">
  <g fill="none" fill-rule="evenodd">
    <path fill="#000" d="M1,1 L12.6666667,1 L12.6666667,15 L1,15 L1,1 Z M2.2962963,13.7272727 L11.3703704,13.7272727 L11.3703704,2.27272727 L2.2962963,2.27272727 L2.2962963,13.7272727 Z"/>
    <path fill="#000" d="M4.24074074,11.1207273 L5.01203704,10.3812727 C6.02962963,9.246 6.73351852,8.37418182 7.11981481,7.76581818 C7.50481481,7.15872727 7.69666667,6.59745455 7.69666667,6.08581818 C7.69666667,5.312 7.30259259,4.92509091 6.50925926,4.92509091 C5.84037037,4.92509091 5.23240741,5.17581818 4.68796296,5.68236364 L4.59462963,5.77654545 L4.40537037,4.13218182 L4.535,4.04436364 C4.7087037,3.95527273 4.86425926,3.884 4.99777778,3.83309091 C5.1287037,3.78218182 5.33222222,3.72109091 5.59796296,3.65109091 C5.865,3.57981818 6.24092593,3.54545455 6.72574074,3.54545455 C7.55925926,3.54545455 8.19962963,3.74272727 8.65462963,4.136 C9.10703704,4.53054545 9.33388889,5.09054545 9.33388889,5.81727273 C9.33388889,6.06036364 9.31185185,6.30090909 9.26518519,6.53890909 C9.21981481,6.77690909 9.11351852,7.08618182 8.94759259,7.46927273 C8.78296296,7.85236364 8.47444444,8.38181818 8.01555556,9.05254545 C7.55537037,9.72454545 7.08481481,10.3176364 6.6012963,10.8343636 L6.50018519,10.9692727 L9.42592593,10.9692727 L9.42592593,12.4545455 L4.2562963,12.4545455 L4.24074074,11.1207273"/>
  </g>
</svg>
