<?xml version="1.0" encoding="UTF-8"?>
<svg width="26px" height="16px" viewBox="0 0 26 16" version="1.1" xmlns="http://www.w3.org/2000/svg" xmlns:xlink="http://www.w3.org/1999/xlink">
    <!-- Generator: Sketch 60.1 (88133) - https://sketch.com -->
    <title>svg/FPL/Attribut/sbb_sa_bb</title>
    <desc>Created with Sketch.</desc>
    <g stroke="none" stroke-width="1" fill="none" fill-rule="evenodd">
        <g transform="translate(1.000000, 1.000000)" fill="#000000">
            <path d="M4.8408,5.6787 L5.9418,5.6787 C7.3618,5.6787 8.9018,5.2787 8.9018,3.6377 C8.9018,2.2977 7.6218,2.2377 6.5618,2.2377 L5.5808,2.2377 L4.8408,5.6787 Z M3.5608,11.7997 L4.5208,11.7997 C6.2408,11.7997 8.1618,11.5997 8.1618,9.4397 C8.1618,7.9787 6.8008,7.7597 5.3008,7.7597 L4.4008,7.7597 L3.5608,11.7997 Z M3.3408,0.0377 L7.4818,0.0377 C9.6618,0.0377 11.7028,0.8377 11.7028,3.3787 C11.7028,5.0787 10.3418,6.4387 8.7218,6.6987 L8.7218,6.7387 C10.2818,6.9787 10.9628,8.1787 10.9628,9.6797 C10.9628,13.6797 6.4818,13.9997 4.4008,13.9997 L0.4198,13.9997 L3.3408,0.0377 Z"></path>
            <path d="M17.0615,5.6787 L18.1615,5.6787 C19.5825,5.6787 21.1225,5.2787 21.1225,3.6377 C21.1225,2.2977 19.8415,2.2377 18.7815,2.2377 L17.8015,2.2377 L17.0615,5.6787 Z M15.7815,11.7997 L16.7415,11.7997 C18.4615,11.7997 20.3815,11.5997 20.3815,9.4397 C20.3815,7.9787 19.0215,7.7597 17.5215,7.7597 L16.6215,7.7597 L15.7815,11.7997 Z M15.5605,0.0377 L19.7025,0.0377 C21.8815,0.0377 23.9225,0.8377 23.9225,3.3787 C23.9225,5.0787 22.5625,6.4387 20.9425,6.6987 L20.9425,6.7387 C22.5015,6.9787 23.1825,8.1787 23.1825,9.6797 C23.1825,13.6797 18.7015,13.9997 16.6215,13.9997 L12.6395,13.9997 L15.5605,0.0377 Z"></path>
        </g>
    </g>
</svg>