<svg xmlns="http://www.w3.org/2000/svg" width="29" height="16" viewBox="0 0 29 16">
  <g fill="none" fill-rule="evenodd">
    <path fill="#000" d="M5.9414,6.998 L6.9614,6.998 C8.4624,6.998 10.2824,6.538 10.2824,4.698 C10.2824,3.237 9.0214,3.237 7.8814,3.237 L6.7214,3.237 L5.9414,6.998 Z M4.3404,1.037 L7.6414,1.037 C10.2214,1.037 13.2024,0.997 13.2024,4.338 C13.2024,6.738 11.4024,8.019 9.1224,8.059 L9.1224,8.099 C9.8814,8.139 10.3624,8.618 10.5424,9.379 L11.8824,15 L8.9414,15 L8.2614,11.72 C7.9414,10.239 8.0214,9.199 6.5014,9.199 L5.4414,9.199 L4.2204,15 L1.4204,15 L4.3404,1.037 Z"/>
    <polygon fill="#000" points="18.281 9.219 15.001 1.037 17.962 1.037 20.042 6.899 24.583 1.037 27.844 1.037 21.082 9.219 19.862 15 17.061 15"/>
  </g>
</svg>
