<?xml version="1.0" encoding="UTF-8"?>
<svg width="22px" height="16px" viewBox="0 0 22 16" version="1.1" xmlns="http://www.w3.org/2000/svg" xmlns:xlink="http://www.w3.org/1999/xlink">
    <!-- Generator: Sketch 60.1 (88133) - https://sketch.com -->
    <title>svg/FPL/Attribut/sbb_sa_je</title>
    <desc>Created with Sketch.</desc>
    <g stroke="none" stroke-width="1" fill="none" fill-rule="evenodd">
        <path d="M9.9014,1.0371 L7.9414,10.5191 C7.4014,13.3191 6.5014,15.2401 3.3394,15.2401 C2.5594,15.2401 1.7594,15.1601 1.0004,14.9601 L1.6394,12.5791 C1.9794,12.6991 2.4204,12.8001 2.9204,12.8001 C4.4004,12.8001 4.8804,11.7201 5.1404,10.4391 L7.1004,1.0371 L9.9014,1.0371 Z" fill="#000000"></path>
        <polygon fill="#000000" points="13.0205 1.0371 21.2425 1.0371 20.8225 3.2371 15.3615 3.2371 14.6405 6.6781 19.5225 6.6781 19.0825 8.8791 14.1805 8.8791 13.3605 12.8001 18.8815 12.8001 18.4025 15.0001 10.0805 15.0001"></polygon>
    </g>
</svg>