<svg xmlns="http://www.w3.org/2000/svg" width="29" height="16" viewBox="0 0 29 16">
  <g fill="none" fill-rule="evenodd">
    <polygon fill="#000" points="7.421 1.037 9.442 5.838 9.482 5.838 13.322 1.037 16.623 1.037 10.842 7.698 14.082 15 11.022 15 8.882 9.398 8.842 9.398 4.481 15 1 15 7.461 7.418 4.4 1.037"/>
    <path fill="#000" d="M20.1611,6.998 L21.1811,6.998 C22.6821,6.998 24.5021,6.538 24.5021,4.698 C24.5021,3.237 23.2411,3.237 22.1011,3.237 L20.9411,3.237 L20.1611,6.998 Z M18.5601,1.037 L21.8611,1.037 C24.4411,1.037 27.4221,0.997 27.4221,4.338 C27.4221,6.738 25.6221,8.019 23.3421,8.059 L23.3421,8.099 C24.1011,8.139 24.5821,8.618 24.7621,9.379 L26.1021,15 L23.1611,15 L22.4811,11.72 C22.1611,10.239 22.2411,9.199 20.7211,9.199 L19.6611,9.199 L18.4401,15 L15.6401,15 L18.5601,1.037 Z"/>
  </g>
</svg>
