<?xml version="1.0" encoding="UTF-8"?>
<svg width="29px" height="16px" viewBox="0 0 29 16" version="1.1" xmlns="http://www.w3.org/2000/svg" xmlns:xlink="http://www.w3.org/1999/xlink">
    <!-- Generator: Sketch 60.1 (88133) - https://sketch.com -->
    <title>svg/FPL/Attribut/sbb_sa_xr</title>
    <desc>Created with Sketch.</desc>
    <g stroke="none" stroke-width="1" fill="none" fill-rule="evenodd">
        <polygon fill="#000000" points="7.4209 1.0371 9.4419 5.8381 9.4819 5.8381 13.3219 1.0371 16.6229 1.0371 10.8419 7.6981 14.0819 15.0001 11.0219 15.0001 8.8819 9.3981 8.8419 9.3981 4.4809 15.0001 0.9999 15.0001 7.4609 7.4181 4.3999 1.0371"></polygon>
        <path d="M20.1611,6.998 L21.1811,6.998 C22.6821,6.998 24.5021,6.538 24.5021,4.698 C24.5021,3.237 23.2411,3.237 22.1011,3.237 L20.9411,3.237 L20.1611,6.998 Z M18.5601,1.037 L21.8611,1.037 C24.4411,1.037 27.4221,0.997 27.4221,4.338 C27.4221,6.738 25.6221,8.019 23.3421,8.059 L23.3421,8.099 C24.1011,8.139 24.5821,8.618 24.7621,9.379 L26.1021,15 L23.1611,15 L22.4811,11.72 C22.1611,10.239 22.2411,9.199 20.7211,9.199 L19.6611,9.199 L18.4401,15 L15.6401,15 L18.5601,1.037 Z" fill="#000000"></path>
    </g>
</svg>