<?xml version="1.0" encoding="UTF-8"?>
<svg width="25px" height="16px" viewBox="0 0 25 16" version="1.1" xmlns="http://www.w3.org/2000/svg" xmlns:xlink="http://www.w3.org/1999/xlink">
    <!-- Generator: Sketch 60.1 (88133) - https://sketch.com -->
    <title>svg/FPL/Attribut/sbb_sa_bs</title>
    <desc>Created with Sketch.</desc>
    <g stroke="none" stroke-width="1" fill="none" fill-rule="evenodd">
        <g transform="translate(1.000000, 0.000000)" fill="#000000">
            <path d="M4.8408,6.6787 L5.9418,6.6787 C7.3618,6.6787 8.9018,6.2787 8.9018,4.6377 C8.9018,3.2977 7.6218,3.2377 6.5618,3.2377 L5.5808,3.2377 L4.8408,6.6787 Z M3.5608,12.7997 L4.5208,12.7997 C6.2408,12.7997 8.1618,12.5997 8.1618,10.4397 C8.1618,8.9787 6.8008,8.7597 5.3008,8.7597 L4.4008,8.7597 L3.5608,12.7997 Z M3.3408,1.0377 L7.4818,1.0377 C9.6618,1.0377 11.7028,1.8377 11.7028,4.3787 C11.7028,6.0787 10.3418,7.4387 8.7218,7.6987 L8.7218,7.7387 C10.2818,7.9787 10.9628,9.1787 10.9628,10.6797 C10.9628,14.6797 6.4818,14.9997 4.4008,14.9997 L0.4198,14.9997 L3.3408,1.0377 Z"></path>
            <path d="M22.6221,3.7183 C21.8031,3.2983 20.7421,2.9983 19.7221,2.9983 C18.7221,2.9983 17.3811,3.3983 17.3811,4.5983 C17.3811,6.8393 22.1431,6.6983 22.1431,10.5793 C22.1431,14.0003 19.4621,15.2403 16.4011,15.2403 C15.0601,15.2403 13.6801,14.9203 12.4201,14.4603 L13.1401,12.0803 C14.2211,12.5803 15.3611,13.0403 16.5611,13.0403 C17.9011,13.0403 19.2221,12.3593 19.2221,10.8593 C19.2221,8.3393 14.4611,8.7393 14.4611,5.0183 C14.4611,2.0773 16.9811,0.7973 19.6621,0.7973 C20.8821,0.7973 22.1431,0.9573 23.2821,1.4173 L22.6221,3.7183 Z"></path>
        </g>
    </g>
</svg>