<?xml version="1.0" encoding="UTF-8"?>
<svg width="30px" height="16px" viewBox="0 0 30 16" version="1.1" xmlns="http://www.w3.org/2000/svg" xmlns:xlink="http://www.w3.org/1999/xlink">
    <!-- Generator: Sketch 60.1 (88133) - https://sketch.com -->
    <title>svg/FPL/Attribut/sbb_sa_rq</title>
    <desc>Created with Sketch.</desc>
    <g stroke="none" stroke-width="1" fill="none" fill-rule="evenodd">
        <path d="M5.9414,6.998 L6.9614,6.998 C8.4624,6.998 10.2824,6.538 10.2824,4.698 C10.2824,3.237 9.0214,3.237 7.8814,3.237 L6.7214,3.237 L5.9414,6.998 Z M4.3404,1.037 L7.6414,1.037 C10.2214,1.037 13.2024,0.997 13.2024,4.338 C13.2024,6.738 11.4024,8.019 9.1224,8.059 L9.1224,8.099 C9.8814,8.139 10.3624,8.618 10.5424,9.379 L11.8824,15 L8.9414,15 L8.2614,11.72 C7.9414,10.239 8.0214,9.199 6.5014,9.199 L5.4414,9.199 L4.2204,15 L1.4204,15 L4.3404,1.037 Z" fill="#000000"></path>
        <path d="M17.5205,9.5986 C17.5205,11.4186 18.4405,13.0396 20.4605,13.0396 C23.6625,13.0396 25.4425,9.1996 25.4425,6.4176 C25.4425,4.5576 24.4825,2.9966 22.4615,2.9966 C19.2015,2.9966 17.5205,6.7786 17.5205,9.5986 M28.3635,6.7176 C28.3635,8.9986 27.5225,11.2186 26.0225,12.8996 C24.5625,14.5196 22.4415,15.2406 20.1015,15.2406 C16.6605,15.2406 14.5995,12.7596 14.5995,9.4386 C14.5995,7.2186 15.3795,5.0576 16.8005,3.3976 C18.3215,1.6576 20.2615,0.7966 22.5415,0.7966 C26.3225,0.7966 28.3635,2.9966 28.3635,6.7176" fill="#000000"></path>
        <polygon fill="#000000" points="22.7408 12.3091 24.9738 14.9991 28.3438 14.9991 24.8288 11.5171"></polygon>
    </g>
</svg>