<?xml version="1.0" encoding="UTF-8"?>
<svg width="28px" height="16px" viewBox="0 0 28 16" version="1.1" xmlns="http://www.w3.org/2000/svg" xmlns:xlink="http://www.w3.org/1999/xlink">
    <!-- Generator: Sketch 60.1 (88133) - https://sketch.com -->
    <title>svg/FPL/Attribut/sbb_sa_sk</title>
    <desc>Created with Sketch.</desc>
    <g stroke="none" stroke-width="1" fill="none" fill-rule="evenodd">
        <g transform="translate(1.000000, 0.000000)" fill="#000000">
            <path d="M10.4023,3.7183 C9.5823,3.2983 8.5223,2.9983 7.5013,2.9983 C6.5013,2.9983 5.1613,3.3983 5.1613,4.5983 C5.1613,6.8393 9.9223,6.6983 9.9223,10.5793 C9.9223,14.0003 7.2413,15.2403 4.1803,15.2403 C2.8403,15.2403 1.4603,14.9203 0.2003,14.4603 L0.9203,12.0803 C2.0003,12.5803 3.1403,13.0403 4.3403,13.0403 C5.6813,13.0403 7.0013,12.3593 7.0013,10.8593 C7.0013,8.3393 2.2403,8.7393 2.2403,5.0183 C2.2403,2.0773 4.7613,0.7973 7.4413,0.7973 C8.6613,0.7973 9.9223,0.9573 11.0623,1.4173 L10.4023,3.7183 Z"></path>
            <polygon points="17.542 1.0376 16.361 6.5186 16.401 6.5186 21.943 1.0376 25.844 1.0376 18.782 7.3986 23.283 14.9996 19.942 14.9996 16.062 7.8986 14.541 14.9996 11.74 14.9996 14.741 1.0376"></polygon>
        </g>
    </g>
</svg>