<?xml version="1.0" encoding="UTF-8"?>
<svg width="28px" height="16px" viewBox="0 0 28 16" version="1.1" xmlns="http://www.w3.org/2000/svg" xmlns:xlink="http://www.w3.org/1999/xlink">
    <!-- Generator: Sketch 60.1 (88133) - https://sketch.com -->
    <title>svg/FPL/Attribut/sbb_sa_tg</title>
    <desc>Created with Sketch.</desc>
    <g stroke="none" stroke-width="1" fill="none" fill-rule="evenodd">
        <polygon fill="#000000" points="3.1602 1.0371 13.9422 1.0371 13.4822 3.2371 9.5422 3.2371 7.0012 15.0001 4.0812 15.0001 6.6212 3.2371 2.6812 3.2371"></polygon>
        <path d="M25.9434,3.998 C24.8634,3.298 23.5224,2.997 22.0624,2.997 C18.6614,2.997 16.5214,5.658 16.5214,8.959 C16.5214,11.219 18.0814,13.04 20.4624,13.04 C21.1014,13.04 21.5224,13.04 21.8414,12.899 L22.6224,9.199 L19.6624,9.199 L20.1224,6.998 L25.7834,6.998 L24.1824,14.62 C23.3624,14.96 21.8014,15.24 20.4414,15.24 C16.3404,15.24 13.6004,13.359 13.6004,9.039 C13.6004,3.937 16.9414,0.797 21.9824,0.797 C23.5434,0.797 25.1824,1.017 26.6434,1.577 L25.9434,3.998 Z" fill="#000000"></path>
    </g>
</svg>