<svg xmlns="http://www.w3.org/2000/svg" width="28" height="16" viewBox="0 0 28 16">
  <g fill="none" fill-rule="evenodd">
    <polygon fill="#000" points="3.16 1.037 13.942 1.037 13.482 3.237 9.542 3.237 7.001 15 4.081 15 6.621 3.237 2.681 3.237"/>
    <path fill="#000" d="M25.9434,3.998 C24.8634,3.298 23.5224,2.997 22.0624,2.997 C18.6614,2.997 16.5214,5.658 16.5214,8.959 C16.5214,11.219 18.0814,13.04 20.4624,13.04 C21.1014,13.04 21.5224,13.04 21.8414,12.899 L22.6224,9.199 L19.6624,9.199 L20.1224,6.998 L25.7834,6.998 L24.1824,14.62 C23.3624,14.96 21.8014,15.24 20.4414,15.24 C16.3404,15.24 13.6004,13.359 13.6004,9.039 C13.6004,3.937 16.9414,0.797 21.9824,0.797 C23.5434,0.797 25.1824,1.017 26.6434,1.577 L25.9434,3.998 Z"/>
  </g>
</svg>
