<?xml version="1.0" encoding="UTF-8"?>
<svg width="27px" height="16px" viewBox="0 0 27 16" version="1.1" xmlns="http://www.w3.org/2000/svg" xmlns:xlink="http://www.w3.org/1999/xlink">
    <!-- Generator: Sketch 60.1 (88133) - https://sketch.com -->
    <title>svg/FPL/Attribut/sbb_sa_br</title>
    <desc>Created with Sketch.</desc>
    <g stroke="none" stroke-width="1" fill="none" fill-rule="evenodd">
        <path d="M5.8408,6.6777 L6.9418,6.6777 C8.3618,6.6777 9.9028,6.2787 9.9028,4.6377 C9.9028,3.2977 8.6218,3.2377 7.5618,3.2377 L6.5808,3.2377 L5.8408,6.6777 Z M4.5608,12.7997 L5.5208,12.7997 C7.2408,12.7997 9.1618,12.5997 9.1618,10.4397 C9.1618,8.9787 7.8018,8.7587 6.3008,8.7587 L5.4018,8.7587 L4.5608,12.7997 Z M4.3408,1.0367 L8.4818,1.0367 C10.6618,1.0367 12.7018,1.8367 12.7018,4.3777 C12.7018,6.0777 11.3418,7.4387 9.7218,7.6987 L9.7218,7.7387 C11.2818,7.9787 11.9618,9.1787 11.9618,10.6787 C11.9618,14.6797 7.4818,14.9997 5.4018,14.9997 L1.4198,14.9997 L4.3408,1.0367 Z" fill="#000000"></path>
        <path d="M18.1611,6.998 L19.1811,6.998 C20.6821,6.998 22.5021,6.538 22.5021,4.698 C22.5021,3.237 21.2411,3.237 20.1011,3.237 L18.9411,3.237 L18.1611,6.998 Z M16.5601,1.037 L19.8611,1.037 C22.4411,1.037 25.4221,0.997 25.4221,4.338 C25.4221,6.738 23.6221,8.019 21.3421,8.059 L21.3421,8.099 C22.1011,8.139 22.5821,8.618 22.7621,9.379 L24.1011,15 L21.1611,15 L20.4811,11.72 C20.1611,10.239 20.2411,9.199 18.7211,9.199 L17.6611,9.199 L16.4401,15 L13.6401,15 L16.5601,1.037 Z" fill="#000000"></path>
    </g>
</svg>