<?xml version="1.0" encoding="UTF-8"?>
<svg width="16px" height="16px" viewBox="0 0 16 16" version="1.1" xmlns="http://www.w3.org/2000/svg" xmlns:xlink="http://www.w3.org/1999/xlink">
    <!-- Generator: Sketch 60.1 (88133) - https://sketch.com -->
    <title>svg/FPL/Attribut/sbb_sa_gn</title>
    <desc>Created with Sketch.</desc>
    <g stroke="none" stroke-width="1" fill="none" fill-rule="evenodd">
        <path d="M1,1 L15,1 L15,15 L1,15 L1,1 Z M2.27272727,13.7272727 L13.7272727,13.7272727 L13.7272727,2.27272727 L2.27272727,2.27272727 L2.27272727,13.7272727 Z" fill="#000000"></path>
        <polyline fill="#000000" points="2.26999998 13.7199998 2.60459442 12.4859443 6.74313324 8.33722766 7.55226656 8.00263322 6.74440546 7.669311 2.60459442 3.52186663 2.26999998 2.26999998 3.50405552 2.60459442 7.66040545 6.75331102 7.99499989 7.56371656 8.32959432 6.75331102 12.4859443 2.60459442 13.7199998 2.26999998 13.3854054 3.52186663 9.24559431 7.669311 8.43518877 8.00390544 9.24559431 8.33722766 13.3854054 12.4859443 13.7199998 13.7199998 12.4859443 13.4032165 8.32959432 9.25449986 7.99499989 8.44536654 7.66040545 9.25449986 3.50405552 13.4032165 2.26999998 13.7199998"></polyline>
    </g>
</svg>