<svg xmlns="http://www.w3.org/2000/svg" width="16" height="16" viewBox="0 0 16 16">
  <g fill="none" fill-rule="evenodd">
    <path fill="#000" d="M1,1 L15,1 L15,15 L1,15 L1,1 Z M2.27272727,13.7272727 L13.7272727,13.7272727 L13.7272727,2.27272727 L2.27272727,2.27272727 L2.27272727,13.7272727 Z"/>
    <polyline fill="#000" points="2.27 13.72 2.605 12.486 6.743 8.337 7.552 8.003 6.744 7.669 2.605 3.522 2.27 2.27 3.504 2.605 7.66 6.753 7.995 7.564 8.33 6.753 12.486 2.605 13.72 2.27 13.385 3.522 9.246 7.669 8.435 8.004 9.246 8.337 13.385 12.486 13.72 13.72 12.486 13.403 8.33 9.254 7.995 8.445 7.66 9.254 3.504 13.403 2.27 13.72"/>
  </g>
</svg>
