<?xml version="1.0" encoding="UTF-8"?>
<svg width="12px" height="16px" viewBox="0 0 12 16" version="1.1" xmlns="http://www.w3.org/2000/svg" xmlns:xlink="http://www.w3.org/1999/xlink">
    <!-- Generator: Sketch 60.1 (88133) - https://sketch.com -->
    <title>svg/FPL/Attribut/sbb_sa_sc</title>
    <desc>Created with Sketch.</desc>
    <g stroke="none" stroke-width="1" fill="none" fill-rule="evenodd">
        <path d="M8.78936692,2.50216594 C8.99829454,2.28757081 8.98921073,1.94701766 8.76665739,1.75574808 C8.63040024,1.63912029 8.50322691,1.61112962 8.11716499,1.61112962 C7.69930974,1.61112962 7.62209736,1.62979007 7.51309164,1.76507831 C7.34958306,1.97500833 7.35412497,2.33422193 7.51763354,2.51149617 C7.62209736,2.62812396 7.73110307,2.65144952 8.14441642,2.65144952 C8.56227167,2.65144952 8.66219358,2.62812396 8.78936692,2.50216594 M1.31339144,3.77574142 C1,3.69176941 1,3.35588137 1,3.20193269 C1,2.99666778 1.24980477,2.73075641 1.4632743,2.71209597 C1.65403431,2.69343552 1.68128574,2.65144952 1.99921908,1.85838054 L2.33077814,1.02799067 L5.97338587,1.01399533 L9.61599361,1 L9.94301076,1.84905032 C10.2564022,2.66544485 10.2791117,2.69810063 10.4834974,2.73075641 C10.7650956,2.77740753 11.0512356,3.05264912 10.9921908,3.30923026 C10.9467717,3.50983006 10.9058946,3.67310896 10.6333803,3.77574142 C10.5380003,3.80373209 8.48051738,3.79440187 5.9960954,3.80373209 C3.48442198,3.81306231 1.45419049,3.80373209 1.31339144,3.77574142 M7.35866687,8.93535488 C7.35866687,8.00233256 6.72734209,7.53582139 5.9960954,7.53582139 C5.08771442,7.53582139 4.63352393,8.00233256 4.63352393,8.93535488 C4.63352393,9.70976341 5.08771442,10.3348884 5.9960954,10.3348884 C6.90447638,10.3348884 7.35866687,9.86837721 7.35866687,8.93535488 M1.90838098,4.73675442 L10.0838098,4.73675442 L9.17542883,15 L2.81676196,15 C2.81676196,15 1.97650956,4.67610796 1.90838098,4.73675442" fill="#000000"></path>
    </g>
</svg>