<svg xmlns="http://www.w3.org/2000/svg" width="30" height="16" viewBox="0 0 30 16">
  <g fill="none" fill-rule="evenodd">
    <path fill="#000" d="M5.9414 6.998L6.9614 6.998C8.4624 6.998 10.2824 6.538 10.2824 4.698 10.2824 3.237 9.0214 3.237 7.8814 3.237L6.7214 3.237 5.9414 6.998zM4.3404 1.037L7.6414 1.037C10.2214 1.037 13.2024.997 13.2024 4.338 13.2024 6.738 11.4024 8.019 9.1224 8.059L9.1224 8.099C9.8814 8.139 10.3624 8.618 10.5424 9.379L11.8824 15 8.9414 15 8.2614 11.72C7.9414 10.239 8.0214 9.199 6.5014 9.199L5.4414 9.199 4.2204 15 1.4204 15 4.3404 1.037zM17.5205 9.5986C17.5205 11.4186 18.4405 13.0396 20.4605 13.0396 23.6625 13.0396 25.4425 9.1996 25.4425 6.4176 25.4425 4.5576 24.4825 2.9966 22.4615 2.9966 19.2015 2.9966 17.5205 6.7786 17.5205 9.5986M28.3635 6.7176C28.3635 8.9986 27.5225 11.2186 26.0225 12.8996 24.5625 14.5196 22.4415 15.2406 20.1015 15.2406 16.6605 15.2406 14.5995 12.7596 14.5995 9.4386 14.5995 7.2186 15.3795 5.0576 16.8005 3.3976 18.3215 1.6576 20.2615.7966 22.5415.7966 26.3225.7966 28.3635 2.9966 28.3635 6.7176"/>
    <polygon fill="#000" points="22.741 12.309 24.974 14.999 28.344 14.999 24.829 11.517"/>
  </g>
</svg>
