<?xml version="1.0" encoding="UTF-8"?>
<svg width="38px" height="16px" viewBox="0 0 38 16" version="1.1" xmlns="http://www.w3.org/2000/svg" xmlns:xlink="http://www.w3.org/1999/xlink">
    <!-- Generator: Sketch 60.1 (88133) - https://sketch.com -->
    <title>svg/FPL/Attribut/sbb_sa_aw</title>
    <desc>Created with Sketch.</desc>
    <g stroke="none" stroke-width="1" fill="none" fill-rule="evenodd">
        <path d="M9.4617,1.0384 L0.9997,15.0014 L4.1007,15.0014 L5.8807,11.7994 L11.8227,11.7994 L12.3017,15.0014 L15.1027,15.0014 L12.5617,1.0384 L9.4617,1.0384 Z M10.4817,3.5184 L10.5617,3.5184 L11.4417,9.5994 L7.1207,9.5994 L10.4817,3.5184 Z" fill="#000000"></path>
        <polygon fill="#000000" points="34.263 1.0384 29.322 11.7404 29.282 11.7404 29.222 1.0384 25.461 1.0384 20.821 11.7404 20.78 11.7404 20.361 1.0384 17.56 1.0384 18.439 15.0014 21.901 15.0014 26.821 3.8394 26.861 3.8394 27.001 15.0014 30.502 15.0014 37.164 1.0384"></polygon>
    </g>
</svg>