<?xml version="1.0" encoding="UTF-8"?>
<svg width="31px" height="16px" viewBox="0 0 31 16" version="1.1" xmlns="http://www.w3.org/2000/svg" xmlns:xlink="http://www.w3.org/1999/xlink">
    <!-- Generator: Sketch 60.1 (88133) - https://sketch.com -->
    <title>svg/FPL/Attribut/sbb_sa_gx</title>
    <desc>Created with Sketch.</desc>
    <g stroke="none" stroke-width="1" fill="none" fill-rule="evenodd">
        <g transform="translate(2.000000, 0.000000)" fill="#000000">
            <path d="M12.8228,3.998 C11.7428,3.298 10.4028,2.998 8.9418,2.998 C5.5418,2.998 3.4008,5.659 3.4008,8.959 C3.4008,11.22 4.9618,13.04 7.3418,13.04 C7.9818,13.04 8.4018,13.04 8.7218,12.899 L9.5028,9.199 L6.5418,9.199 L7.0018,6.998 L12.6628,6.998 L11.0628,14.62 C10.2418,14.96 8.6818,15.24 7.3218,15.24 C3.2208,15.24 0.4808,13.36 0.4808,9.039 C0.4808,3.938 3.8208,0.797 8.8628,0.797 C10.4228,0.797 12.0628,1.018 13.5238,1.578 L12.8228,3.998 Z"></path>
            <polygon points="18.9814 1.0376 21.0024 5.8386 21.0424 5.8386 24.8824 1.0376 28.1834 1.0376 22.4024 7.6986 25.6424 14.9996 22.5824 14.9996 20.4424 9.3996 20.4024 9.3996 16.0414 14.9996 12.5594 14.9996 19.0214 7.4186 15.9604 1.0376"></polygon>
        </g>
    </g>
</svg>