<?xml version="1.0" encoding="UTF-8"?>
<svg width="34px" height="16px" viewBox="0 0 34 16" version="1.1" xmlns="http://www.w3.org/2000/svg" xmlns:xlink="http://www.w3.org/1999/xlink">
    <!-- Generator: Sketch 61 (89581) - https://sketch.com -->
    <title>FPL/Attribut/sbb_sa_wb</title>
    <desc>Created with Sketch.</desc>
    <defs>
        <polygon id="path-1" points="0 16 34 16 34 0 0 0"></polygon>
    </defs>
    <g id="FPL/Attribut/sbb_sa_wb" stroke="none" stroke-width="1" fill="none" fill-rule="evenodd">
        <polygon id="Fill-1" fill="#000000" points="3.1406 1.0376 5.9406 1.0376 6.3616 11.7396 6.4016 11.7396 11.0416 1.0376 14.8026 1.0376 14.8626 11.7396 14.9026 11.7396 19.8446 1.0376 22.7446 1.0376 16.0836 14.9996 12.5826 14.9996 12.4426 3.8376 12.4026 3.8376 7.4816 14.9996 4.0206 14.9996"></polygon>
        <path d="M25.8408,6.6787 L26.9418,6.6787 C28.3618,6.6787 29.9028,6.2787 29.9028,4.6377 C29.9028,3.2977 28.6218,3.2377 27.5618,3.2377 L26.5808,3.2377 L25.8408,6.6787 Z M24.5608,12.7997 L25.5208,12.7997 C27.2408,12.7997 29.1618,12.5997 29.1618,10.4397 C29.1618,8.9787 27.8018,8.7597 26.3008,8.7597 L25.4018,8.7597 L24.5608,12.7997 Z M24.3408,1.0377 L28.4818,1.0377 C30.6618,1.0377 32.7018,1.8377 32.7018,4.3787 C32.7018,6.0787 31.3418,7.4387 29.7218,7.6987 L29.7218,7.7387 C31.2818,7.9787 31.9618,9.1787 31.9618,10.6797 C31.9618,14.6797 27.4818,14.9997 25.4018,14.9997 L21.4198,14.9997 L24.3408,1.0377 Z" id="Fill-2" fill="#000000"></path>
        <mask id="mask-2" fill="white">
            <use xlink:href="#path-1"></use>
        </mask>
        <g id="Clip-5"></g>
    </g>
</svg>