<?xml version="1.0" encoding="UTF-8"?>
<svg width="28px" height="16px" viewBox="0 0 28 16" version="1.1" xmlns="http://www.w3.org/2000/svg" xmlns:xlink="http://www.w3.org/1999/xlink">
    <!-- Generator: Sketch 60.1 (88133) - https://sketch.com -->
    <title>svg/FPL/Attribut/sbb_sa_ph</title>
    <desc>Created with Sketch.</desc>
    <g stroke="none" stroke-width="1" fill="none" fill-rule="evenodd">
        <g transform="translate(1.000000, 1.000000)" fill="#000000">
            <path d="M4.8208,6.499 L5.8208,6.499 C7.3618,6.499 8.9418,5.699 8.9418,3.958 C8.9418,2.538 7.8018,2.238 6.6018,2.238 L5.7208,2.238 L4.8208,6.499 Z M3.2208,14 L0.4198,14 L3.3808,0.038 L5.7408,0.038 C8.3218,0.038 11.8628,0.178 11.8628,3.658 C11.8628,7.039 9.0818,8.699 5.9618,8.699 L4.3408,8.699 L3.2208,14 Z"></path>
            <polygon points="14.6611 0.0376 17.4621 0.0376 16.2811 5.6786 21.9231 5.6786 23.1031 0.0376 25.9031 0.0376 22.9831 13.9996 20.1821 13.9996 21.4631 7.8796 15.8211 7.8796 14.5411 13.9996 11.7401 13.9996"></polygon>
        </g>
    </g>
</svg>