<svg xmlns="http://www.w3.org/2000/svg" width="22" height="16" viewBox="0 0 22 16">
  <g fill="none" fill-rule="evenodd">
    <path fill="#000" d="M9.9014,1.0371 L7.9414,10.5191 C7.4014,13.3191 6.5014,15.2401 3.3394,15.2401 C2.5594,15.2401 1.7594,15.1601 1.0004,14.9601 L1.6394,12.5791 C1.9794,12.6991 2.4204,12.8001 2.9204,12.8001 C4.4004,12.8001 4.8804,11.7201 5.1404,10.4391 L7.1004,1.0371 L9.9014,1.0371 Z"/>
    <polygon fill="#000" points="13.021 1.037 21.242 1.037 20.823 3.237 15.361 3.237 14.64 6.678 19.523 6.678 19.082 8.879 14.181 8.879 13.361 12.8 18.881 12.8 18.402 15 10.081 15"/>
  </g>
</svg>
