<svg xmlns="http://www.w3.org/2000/svg" width="26" height="16" viewBox="0 0 26 16">
  <path fill-rule="evenodd" d="M5.9414 6.998L6.9614 6.998C8.4624 6.998 10.2824 6.538 10.2824 4.698 10.2824 3.237 9.0214 3.237 7.8814 3.237L6.7214 3.237 5.9414 6.998zM4.3404 1.037L7.6414 1.037C10.2214 1.037 13.2024.997 13.2024 4.338 13.2024 6.738 11.4024 8.019 9.1224 8.059L9.1224 8.099C9.8814 8.139 10.3624 8.618 10.5424 9.379L11.8824 15 8.9414 15 8.2614 11.72C7.9414 10.239 8.0214 9.199 6.5014 9.199L5.4414 9.199 4.2204 15 1.4204 15 4.3404 1.037zM18.0605 6.6777L19.1615 6.6777C20.5815 6.6777 22.1225 6.2787 22.1225 4.6377 22.1225 3.2977 20.8415 3.2377 19.7815 3.2377L18.8005 3.2377 18.0605 6.6777zM16.7805 12.7997L17.7405 12.7997C19.4605 12.7997 21.3815 12.5997 21.3815 10.4397 21.3815 8.9787 20.0215 8.7587 18.5205 8.7587L17.6215 8.7587 16.7805 12.7997zM16.5605 1.0367L20.7015 1.0367C22.8815 1.0367 24.9215 1.8367 24.9215 4.3777 24.9215 6.0777 23.5615 7.4387 21.9415 7.6987L21.9415 7.7387C23.5015 7.9787 24.1815 9.1787 24.1815 10.6787 24.1815 14.6797 19.7015 14.9997 17.6215 14.9997L13.6395 14.9997 16.5605 1.0367z"/>
</svg>
