<?xml version="1.0" encoding="UTF-8"?>
<svg width="25px" height="16px" viewBox="0 0 25 16" version="1.1" xmlns="http://www.w3.org/2000/svg" xmlns:xlink="http://www.w3.org/1999/xlink">
    <!-- Generator: Sketch 60.1 (88133) - https://sketch.com -->
    <title>svg/FPL/Attribut/sbb_sa_nj</title>
    <desc>Created with Sketch.</desc>
    <g stroke="none" stroke-width="1" fill="none" fill-rule="evenodd">
        <polygon fill="#000000" points="4.501 1.0371 8.041 1.0371 11.022 11.6401 11.063 11.6401 13.343 1.0371 15.983 1.0371 12.963 15.0001 9.361 15.0001 6.441 4.2981 6.401 4.2981 4.181 15.0001 1.5 15.0001"></polygon>
        <path d="M23.6611,1.0371 L21.7011,10.5191 C21.1611,13.3191 20.2611,15.2401 17.0991,15.2401 C16.3191,15.2401 15.5191,15.1601 14.7601,14.9601 L15.3991,12.5791 C15.7391,12.6991 16.1801,12.8001 16.6801,12.8001 C18.1601,12.8001 18.6401,11.7201 18.9001,10.4391 L20.8601,1.0371 L23.6611,1.0371 Z" fill="#000000"></path>
    </g>
</svg>