<svg xmlns="http://www.w3.org/2000/svg" width="33" height="16" viewBox="0 0 33 16">
  <g fill="none" fill-rule="evenodd">
    <path fill="#000" d="M11.4023,3.7178 C10.5823,3.2978 9.5213,2.9968 8.5023,2.9968 C7.5013,2.9968 6.1613,3.3978 6.1613,4.5978 C6.1613,6.8378 10.9223,6.6978 10.9223,10.5788 C10.9223,13.9998 8.2413,15.2398 5.1803,15.2398 C3.8403,15.2398 2.4603,14.9198 1.2003,14.4598 L1.9203,12.0788 C3.0003,12.5788 4.1403,13.0398 5.3403,13.0398 C6.6813,13.0398 8.0023,12.3598 8.0023,10.8598 C8.0023,8.3388 3.2403,8.7388 3.2403,5.0178 C3.2403,2.0768 5.7603,0.7968 8.4413,0.7968 C9.6623,0.7968 10.9223,0.9568 12.0623,1.4168 L11.4023,3.7178 Z"/>
    <polygon fill="#000" points="15.701 1.037 20.322 1.037 21.262 11.1 21.302 11.1 26.804 1.037 31.464 1.037 28.483 15 25.523 15 28.163 3.437 28.123 3.437 21.802 15 19.122 15 18.001 3.437 17.961 3.437 15.4 15 12.74 15"/>
  </g>
</svg>
