<svg xmlns="http://www.w3.org/2000/svg" width="25" height="16" viewBox="0 0 25 16">
  <g fill="none" fill-rule="evenodd">
    <polygon fill="#000" points="4.561 1.037 12.783 1.037 12.363 3.237 6.902 3.237 6.181 6.678 11.063 6.678 10.623 8.879 5.721 8.879 4.901 12.8 10.421 12.8 9.943 15 1.621 15"/>
    <path fill="#000" d="M16.9414,7.498 L17.9414,7.498 C19.4814,7.498 21.0624,6.698 21.0624,4.958 C21.0624,3.537 19.9214,3.237 18.7214,3.237 L17.8414,3.237 L16.9414,7.498 Z M15.3404,15 L12.5404,15 L15.5014,1.037 L17.8614,1.037 C20.4414,1.037 23.9824,1.177 23.9824,4.658 C23.9824,8.038 21.2024,9.699 18.0814,9.699 L16.4614,9.699 L15.3404,15 Z"/>
  </g>
</svg>
