<svg xmlns="http://www.w3.org/2000/svg" width="24" height="24" viewBox="0 0 24 24">
  <path fill="none" stroke="#000" d="M16,11.508 L17.5,11.508 M5.499,13.508 L8.5,13.508 L8.5,5.5 L5.499,5.5 L5.499,13.508 Z M16,9.508 L17.5,9.508 M16,7.508 L16.5,7.508 M17.5,13.5085 C18.053,13.5085 18.5,13.0605 18.5,12.5085 C18.5,11.9555 18.053,11.5085 17.5,11.5085 C18.053,11.5085 18.5,11.0605 18.5,10.5085 C18.5,9.9555 18.053,9.5085 17.5,9.5085 C18.053,9.5085 18.5,9.0605 18.5,8.5085 C18.5,7.9555 18.053,7.5085 17.5,7.5085 L16.5,7.5085 C17.052,7.5085 17.5,7.0605 17.5,6.5085 C17.5,5.9555 17.052,5.5085 16.5,5.5085 L11.5,5.5085 C9.992,5.5085 8.5,6.0085 8.5,8.5085 L8.5,13.5085 L9.5,13.5085 L13.79,18.2125 C13.972,18.3955 14.223,18.5085 14.5,18.5085 C15.053,18.5085 15.5,18.0605 15.5,17.5085 C15.5,17.3865 15.479,17.2695 15.438,17.1605 L14,13.5085 L17.5,13.5085"/>
</svg>
