<svg xmlns="http://www.w3.org/2000/svg" width="59" height="20" viewBox="0 0 59 20">
  <g fill="none" fill-rule="evenodd">
    <rect width="59" height="20" fill="#EB0000" rx="2"/>
    <path fill="#FFF" fill-rule="nonzero" d="M36.5278249,12.897038 L38.7036492,12.897038 C38.8823408,13.793522 39.4000525,14.2416993 40.2567843,14.24157 C40.7027665,14.2574742 41.1333731,14.0768699 41.435407,13.747234 C41.7375083,13.417742 41.9700533,12.9049167 42.1330421,12.208758 C42.2465522,11.711514 42.3229379,11.2064668 42.3615635,10.69782 C42.081399,11.1249612 41.7114707,11.4854104 41.2777375,11.753874 C40.8614295,11.9732317 40.395677,12.0808808 39.9256807,12.066374 C38.5222213,12.1008083 37.2410927,11.2688635 36.6975615,9.970084 C36.4499888,9.40157123 36.3250166,8.78695781 36.3308446,8.16657 C36.3308446,6.864226 36.7749119,5.80953867 37.6630467,5.002508 C38.4090956,4.31247147 39.3920201,3.93837436 40.4064809,3.958368 C41.0406882,3.95278408 41.6663914,4.1049755 42.2276514,4.401336 C42.7895117,4.70111963 43.2709059,5.13262251 43.6308947,5.659148 C44.2983587,6.62418667 44.6320582,7.97946 44.6319931,9.724968 C44.6319931,11.33864 44.3376781,12.7150073 43.7490481,13.85407 C42.9817279,15.3361007 41.8203003,16.076986 40.2647653,16.076726 C39.229209,16.076726 38.3737754,15.789356 37.6984646,15.214616 C37.0171761,14.6285941 36.5960344,13.7948374 36.5278249,12.897038 Z M40.3593686,5.912272 C39.8701525,5.9098826 39.4073518,6.13471237 39.1058059,6.521256 C38.7531795,6.96475685 38.5713317,7.52074421 38.5934806,8.087656 C38.5847619,8.56738127 38.7133167,9.0395555 38.963905,9.448202 C39.2444387,9.92539134 39.7442064,10.2302109 40.2955392,10.2603958 C40.8468721,10.2905806 41.3767262,10.0421317 41.7073392,9.598402 C42.021875,9.16788456 42.1854017,8.64493864 42.1723628,8.111292 C42.1889915,7.55761569 42.0196602,7.01440079 41.6915706,6.56891 C41.3816301,6.14413986 40.8838639,5.89879255 40.3593686,5.912272 Z"/>
    <polygon fill="#FFF" fill-rule="nonzero" points="9.221 4.2 13.277 4.2 8.259 15.8 4.186 15.8"/>
    <polygon fill="#FFF" fill-rule="nonzero" points="15.948 4.2 30.343 4.2 28.853 7.645 18.572 7.645 16.531 12.355 26.816 12.355 25.326 15.8 10.931 15.8"/>
  </g>
</svg>
