<svg xmlns="http://www.w3.org/2000/svg" width="59" height="20" viewBox="0 0 59 20">
  <g fill="none" fill-rule="evenodd">
    <rect width="59" height="20" fill="#EB0000" rx="2"/>
    <path fill="#FFF" fill-rule="nonzero" d="M44.6321785 13.743098L44.6321785 15.799738 36.3309183 15.799738C36.3282012 15.1881524 36.4309012 14.580701 36.6344793 14.00423 36.8206603 13.4622653 37.111278 12.962344 37.48978 12.53294 37.7951715 12.1964028 38.1287988 11.8867989 38.4869856 11.60754 38.867921 11.3067587 39.6260929 10.755652 40.7615014 9.95422 41.2089599 9.66829538 41.6014737 9.3038917 41.9202694 8.878438 42.1441087 8.53575534 42.2595207 8.13320083 42.251373 7.723556 42.2709712 7.27055377 42.1108212 6.82822586 41.8060087 6.493478 41.500621 6.1761473 41.0746522 6.00486783 40.635377 6.022774 39.447606 6.022774 38.8352936 6.87974 38.7984399 8.593672L36.5831892 8.593672 36.5831892 8.340558C36.5831892 6.93782333 36.9747333 5.85149533 37.7578214 5.081574 38.5198861 4.33294067 39.5052825 3.95852667 40.7140104 3.958332 41.6915765 3.92557512 42.6474663 4.25183637 43.4023574 4.87591 44.1854455 5.54036333 44.5770215 6.43424333 44.5770852 7.55755 44.5950175 8.49005632 44.2597213 9.39466757 43.6388716 10.0888 43.4642349 10.2916526 43.2716507 10.4782216 43.0634781 10.646222 42.8847865 10.786066 42.4143758 11.122266 41.6522459 11.654822 40.9269712 12.1610727 40.4079625 12.5487027 40.09522 12.817712 39.77411 13.0955012 39.4822272 13.4055888 39.2241488 13.743112L44.6321785 13.743098zM51.2384962 4.235284L51.2384962 15.799738 48.9365334 15.799738 48.9365334 8.229816 46.2246323 8.229816 46.2246323 6.552864C46.6885087 6.5501079 47.1503913 6.49168487 47.6004366 6.37884 47.9532656 6.27951695 48.2837571 6.1130147 48.5738947 5.88841 48.9995997 5.56145667 49.2860633 5.01041533 49.4332855 4.235286L51.2384962 4.235284z"/>
    <polygon fill="#FFF" fill-rule="nonzero" points="9.221 4.2 13.277 4.2 8.259 15.8 4.186 15.8"/>
    <polygon fill="#FFF" fill-rule="nonzero" points="15.948 4.2 30.343 4.2 28.853 7.645 18.572 7.645 16.531 12.355 26.816 12.355 25.326 15.8 10.931 15.8"/>
  </g>
</svg>
