<svg xmlns="http://www.w3.org/2000/svg" width="59" height="20" viewBox="0 0 59 20">
  <g fill="none" fill-rule="evenodd">
    <rect width="59" height="20" fill="#EB0000" rx="2"/>
    <path fill="#FFF" fill-rule="nonzero" d="M38.3331192,9.59043 C37.8329437,9.43249399 37.3990713,9.11261499 37.0994113,8.68086 C36.8032266,8.22543326 36.6532925,7.68985215 36.6698135,7.14629 C36.6466981,6.18943656 37.1100199,5.28643578 37.8996287,4.749416 C38.6540489,4.21298593 39.5610306,3.93552947 40.4853934,3.9584 C41.6206118,3.9584 42.5482613,4.2722 43.2683417,4.8998 C43.925462,5.43478932 44.3028631,6.24178811 44.2929943,7.09082 C44.308615,7.64228663 44.1574904,8.18558002 43.8595037,8.64922 C43.561965,9.08831074 43.1303927,9.41860448 42.6296886,9.59043 C42.9924865,9.68745573 43.3363439,9.84527589 43.6467489,10.05723 C44.3770852,10.5898473 44.7423185,11.3676473 44.7424487,12.39063 C44.7784162,13.4916781 44.2748984,14.5406467 43.3944781,15.19883 C42.6376689,15.784182 41.6653136,16.0768253 40.4774124,16.07676 C39.1897853,16.07676 38.1650038,15.75508 37.4030679,15.11172 C36.6203572,14.4666788 36.1805183,13.4935315 36.2125715,12.477736 C36.2125715,11.4599627 36.5646979,10.6715513 37.2689506,10.112502 C37.5843061,9.86720291 37.9465125,9.68950758 38.3331192,9.59043 L38.3331192,9.59043 Z M40.4380937,10.460548 C39.9225746,10.4405724 39.4208572,10.630305 39.0467163,10.98672 C38.6855038,11.3399229 38.4894559,11.8295736 38.5067467,12.335352 C38.4872778,12.8511939 38.6862668,13.3512129 39.0544899,13.71172 C39.4389035,14.0724681 39.9515059,14.2633577 40.4774005,14.241602 C41.139609,14.241602 41.636298,14.0464847 41.9674674,13.65625 C42.2819939,13.298288 42.4533315,12.8361754 42.4484549,12.358984 C42.4655667,11.8427086 42.2651741,11.3430771 41.8964202,10.982616 C41.5006222,10.6179612 40.9745477,10.4296311 40.4380937,10.460548 L40.4380937,10.460548 Z M40.4538603,5.754102 C40.0076474,5.73335862 39.5704497,5.8848034 39.2320261,6.177344 C38.9211198,6.46076019 38.7508517,6.86749777 38.7668031,7.288672 C38.7478611,7.72271199 38.9192876,8.14330871 39.2359169,8.439648 C39.584409,8.7399214 40.0346222,8.89425387 40.4933723,8.870702 C40.9479953,8.89574785 41.394534,8.74259111 41.7387507,8.443554 C42.0513125,8.14030908 42.2180757,7.71636265 42.1961841,7.280664 C42.2190878,6.85560391 42.0495764,6.44287577 41.7348579,6.157422 C41.3716616,5.86979574 40.9157249,5.7262439 40.4538682,5.754102 L40.4538603,5.754102 Z"/>
    <polygon fill="#FFF" fill-rule="nonzero" points="9.221 4.2 13.277 4.2 8.259 15.8 4.186 15.8"/>
    <polygon fill="#FFF" fill-rule="nonzero" points="15.948 4.2 30.343 4.2 28.853 7.645 18.572 7.645 16.531 12.355 26.816 12.355 25.326 15.8 10.931 15.8"/>
  </g>
</svg>
