<svg xmlns="http://www.w3.org/2000/svg" width="59" height="20" viewBox="0 0 59 20">
  <g fill="none" fill-rule="evenodd">
    <rect width="58" height="19" x=".5" y=".5" fill="#FFF" stroke="#EB0000" rx="2"/>
    <path fill="#EB0000" fill-rule="nonzero" d="M4.18581081,4.2 L7.96559797,4.2 C9.05677108,4.2 9.83435919,4.345448 10.2983623,4.636344 C11.131227,5.154808 11.5476919,6.03552067 11.5477571,7.278482 C11.5477571,8.82849 10.9098581,9.754162 9.63406017,10.055498 C10.3931789,10.1772593 10.8966568,10.489362 11.1444941,10.991806 C11.2734679,11.2702835 11.3574974,11.5675646 11.3934362,11.872518 C11.4330353,12.1898407 11.4686731,12.8827567 11.5003498,13.951266 C11.5008363,14.3235549 11.5325538,14.695142 11.5951664,15.062092 C11.6649705,15.3219371 11.7714682,15.5704242 11.9114223,15.8 L9.46004007,15.8 C9.33885103,15.5754823 9.26487891,15.3283952 9.2427028,15.074034 C9.20836587,14.780398 9.1753943,14.1469593 9.14378811,13.173718 C9.14035875,12.7272554 9.10337889,12.281688 9.03316311,11.840806 C8.99084884,11.6133265 8.88689674,11.4019399 8.73271557,11.229846 C8.60574544,11.0974139 8.44391567,11.0038698 8.26604551,10.960092 C7.98769556,10.9035851 7.70376082,10.8796081 7.41991375,10.88864 L6.5027727,10.88864 L6.5027727,15.8 L4.18581081,15.8 L4.18581081,4.2 Z M6.5027727,5.913854 L6.5027727,9.254164 L7.41211618,9.254164 C7.97087143,9.254164 8.37153392,9.164246 8.61410365,8.98441 C9.01463658,8.68822867 9.21493493,8.20157533 9.21499872,7.52445 C9.21499872,6.95323 9.07400998,6.541976 8.7920325,6.290688 C8.50992214,6.03953067 8.04994804,5.91391933 7.4121102,5.913854 L6.5027727,5.913854 Z"/>
    <polygon fill="#EB0000" fill-rule="nonzero" points="13.058 4.2 19.518 4.2 19.518 6.12 15.375 6.12 15.375 8.857 19.265 8.857 19.265 10.746 15.375 10.746 15.375 13.88 19.685 13.88 19.685 15.8 13.058 15.8"/>
  </g>
</svg>
