<svg xmlns="http://www.w3.org/2000/svg" width="59" height="20" viewBox="0 0 59 20">
  <g fill="none" fill-rule="evenodd">
    <rect width="59" height="20" fill="#EB0000" rx="2"/>
    <path fill="#FFF" fill-rule="nonzero" d="M44.0897034 4.235352L44.0897034 6.292 39.4463615 6.292 38.9497051 8.89454C39.5023555 8.30559717 40.2803432 7.9829778 41.086125 8.0086 41.8817653 7.99115093 42.6616669 8.23254026 43.309253 8.696686 44.2446568 9.387506 44.7124045 10.43692 44.7124962 11.844928 44.7124962 13.226568 44.213212 14.3208387 43.2146437 15.12774 42.4251828 15.7646802 41.4366401 16.1009145 40.4239038 16.076958 39.2045984 16.076958 38.224425 15.748638 37.4833837 15.091998 36.742341 14.4355527 36.350797 13.5483133 36.3087515 12.43028L38.5712958 12.43028C38.5969093 12.8073397 38.7341647 13.1681334 38.9654677 13.466412 39.3278024 13.8904401 39.8557218 14.1357911 40.4123761 14.1388642 40.9690305 14.1419373 41.4996085 13.9024299 41.8665714 13.482428 42.2137025 13.0390465 42.3950158 12.4876299 42.3789944 11.924028 42.4081053 11.3437419 42.2164968 10.7740178 41.8429216 10.330082 41.4788078 9.9289336 40.9563043 9.71022639 40.4160205 9.732816 39.7135973 9.71955804 39.0614096 10.0969787 38.7210821 10.713676L36.6635069 10.682036 37.7593044 4.235356 44.0897034 4.235352zM53.0689333 4.235352L53.0689333 6.292 48.4255915 6.292 47.928935 8.89454C48.4815831 8.30559983 49.2595666 7.9829807 50.065345 8.0086 50.8609852 7.99115093 51.6408868 8.23254026 52.2884729 8.696686 53.2238767 9.387506 53.6916245 10.43692 53.6917162 11.844928 53.6917162 13.226568 53.192432 14.3208387 52.1938636 15.12774 51.4044028 15.7646802 50.41586 16.1009145 49.4031238 16.076958 48.1838197 16.076958 47.2036463 15.748638 46.4626036 15.091998 45.721561 14.4355527 45.3300169 13.5483133 45.2879715 12.43028L47.5505158 12.43028C47.5761292 12.8073397 47.7133846 13.1681334 47.9446876 13.466412 48.3070224 13.8904401 48.8349417 14.1357911 49.3915961 14.1388642 49.9482504 14.1419373 50.4788285 13.9024299 50.8457914 13.482428 51.1929225 13.0390465 51.3742357 12.4876299 51.3582144 11.924028 51.3873252 11.3437419 51.1957167 10.7740178 50.8221416 10.330082 50.4580278 9.9289336 49.9355243 9.71022639 49.3952405 9.732816 48.6928173 9.71955804 48.0406296 10.0969787 47.7003021 10.713676L45.6427269 10.682036 46.7385243 4.235356 53.0689333 4.235352z"/>
    <polygon fill="#FFF" fill-rule="nonzero" points="9.22 4.2 13.276 4.2 8.258 15.8 4.185 15.8"/>
    <path fill="#FFF" fill-rule="nonzero" d="M25.9805304,12.366254 C26.3470525,12.3662563 26.6789963,12.1490854 26.8268376,11.812566 L30.1191233,4.2 L15.9841006,4.2 L10.9660669,15.8 L15.0044375,15.8 L18.8032143,7.1096 L24.7969426,7.1096 L23.5955451,9.88506 L18.3696101,9.866038 L22.5865096,15.8 L27.1837955,15.8 L24.0598751,12.36625 L25.9805304,12.366254 Z"/>
  </g>
</svg>
