<svg xmlns="http://www.w3.org/2000/svg" width="59" height="20" viewBox="0 0 59 20">
  <g fill="none" fill-rule="evenodd">
    <rect width="59" height="20" fill="#EB0000" rx="2"/>
    <path fill="#FFF" fill-rule="nonzero" d="M44.6651926 13.74336L44.6651926 15.8 36.3639324 15.8C36.3611989 15.1884131 36.4638993 14.5809589 36.6674934 14.004492 36.8536771 13.4625258 37.1442983 12.9626038 37.5228041 12.5332 37.8282179 12.1966284 38.1618428 11.8869646 38.5200097 11.607614 38.9010421 11.3070287 39.6591814 10.7559873 40.7944278 9.95449 41.2419567 9.66861868 41.6345135 9.30420776 41.9532994 8.878708 42.1771133 8.53601361 42.292523 8.13346718 42.284403 7.723826 42.3040012 7.27082377 42.1438512 6.82849586 41.8390387 6.493748 41.5336098 6.17641227 41.1076067 6.00513474 40.6682994 6.023044 39.4805284 6.023044 38.8682486 6.88001 38.8314599 8.593942L36.6162093 8.593942 36.6162093 8.34082C36.6162093 6.93808533 37.0077533 5.85175733 37.7908415 5.081836 38.5528092 4.333008 39.5382381 3.958594 40.7471281 3.958594 41.7246629 3.92585256 42.6805174 4.25211337 43.4353794 4.876172 44.2184676 5.54062533 44.6100116 6.43444067 44.6100116 7.557618 44.6279757 8.49011417 44.2927096 9.39472695 43.6718837 10.088868 43.4972376 10.2918051 43.3046193 10.4784413 43.0963925 10.646486 42.9177009 10.78633 42.4473228 11.12253 41.685258 11.655086 40.9599833 12.1613367 40.4409746 12.5489667 40.1282321 12.817976 39.8071466 13.0957909 39.5152662 13.4058758 39.2571609 13.743376L44.6651926 13.74336zM53.3606205 4.235352L53.3606205 6.19707C53.297553 6.26562467 53.1109781 6.47923133 52.8008959 6.83789 52.3119706 7.41729173 51.88153 8.04392754 51.5158958 8.708594 51.1188121 9.39737206 50.7862823 10.1216355 50.522583 10.87207 49.9945396 12.4646958 49.6894291 14.1231725 49.6159902 15.8L47.2351927 15.8C47.2677309 14.8199954 47.4199508 13.8476957 47.6884423 12.904882 47.9874581 11.8111534 48.3845822 10.7468454 48.8749482 9.725 49.5949688 8.227344 50.3255004 7.11204467 51.0665431 6.379102L45.6269823 6.379102 45.6269823 4.235352 53.3606205 4.235352z"/>
    <polygon fill="#FFF" fill-rule="nonzero" points="9.22 4.2 13.276 4.2 8.258 15.8 4.185 15.8"/>
    <path fill="#FFF" fill-rule="nonzero" d="M25.9805304,12.366254 C26.3470525,12.3662563 26.6789963,12.1490854 26.8268376,11.812566 L30.1191233,4.2 L15.9841006,4.2 L10.9660669,15.8 L15.0044375,15.8 L18.8032143,7.1096 L24.7969426,7.1096 L23.5955451,9.88506 L18.3696101,9.866038 L22.5865096,15.8 L27.1837955,15.8 L24.0598751,12.36625 L25.9805304,12.366254 Z"/>
  </g>
</svg>
