<svg xmlns="http://www.w3.org/2000/svg" width="59" height="20" viewBox="0 0 59 20">
  <g fill="none" fill-rule="evenodd">
    <rect width="59" height="20" fill="#EB0000" rx="2"/>
    <path fill="#FFF" d="M12.9658203,15.78 L10.7362061,15.78 L7.59411621,7.96444821 L5.95959473,15.78 L3.72998047,15.78 L6.15795898,4.14791989 L8.39550781,4.14791989 L11.5455322,11.9317334 L13.1721191,4.14791989 L15.3937988,4.14791989 L12.9658203,15.78 Z M22.4349366,4.14791989 L24.7835694,4.14791989 L23.3156739,11.1938183 C22.9242331,13.0610965 22.411136,14.3253254 21.7763672,14.9865429 C21.1415984,15.6477604 20.165656,15.9783642 18.8485108,15.9783642 C17.7323756,15.9783642 16.8966093,15.7218157 16.3411866,15.2087109 C15.7857639,14.6956061 15.5080567,13.9973709 15.5080567,13.1139843 C15.5080567,12.9288434 15.5212808,12.7225467 15.5477295,12.4950879 L17.7614746,12.2570508 C17.7297362,12.4897993 17.7138672,12.6828719 17.7138672,12.8362744 C17.7138672,13.2065562 17.8196604,13.489553 18.03125,13.6852734 C18.2428396,13.8809938 18.5681538,13.9788525 19.0072022,13.9788525 C19.620812,13.9788525 20.0519194,13.799004 20.3005371,13.4393017 C20.485678,13.1642352 20.7104886,12.3893 20.9749756,11.1144726 L22.4349366,4.14791989 Z"/>
  </g>
</svg>
