<svg xmlns="http://www.w3.org/2000/svg" width="59" height="20" viewBox="0 0 59 20">
  <g fill="none" fill-rule="evenodd">
    <rect width="59" height="20" fill="#EB0000" rx="2"/>
    <path fill="#FFF" fill-rule="nonzero" d="M8.48750679,15.8 C8.36468619,15.8022315 8.24270434,15.7792823 8.12903196,15.732558 C8.01743937,15.7133828 7.9151557,15.6581225 7.83777128,15.5752 L7.43448834,15.238 L4.88035642,13.192248 L4.43412905,12.810078 C4.27404308,12.6872185 4.18183095,12.4952122 4.18581081,12.293024 C4.18904328,12.0457123 4.30538715,11.8136155 4.50134122,11.663566 L11.3104953,4.806976 L11.5812196,4.582176 L11.8033985,4.40233 C12.0635633,4.25843045 12.3579243,4.18847556 12.6547765,4.2 L25.1565834,4.2 L22.4456172,6.942636 L14.5143648,6.942636 L12.7668007,8.741086 L20.6999228,8.741086 L18.9075466,10.517054 L10.9762942,10.517054 L9.18392007,12.293024 L17.0460926,12.293024 L21.1237441,15.8 L8.48750679,15.8 Z M23.7450882,15.8 L23.4108871,15.75504 C23.3791467,15.740052 23.3193972,15.710078 23.229781,15.665118 C23.1056889,15.5988696 22.9865117,15.523742 22.8731738,15.440318 L22.5595071,15.14807 L20.1398035,13.057364 L19.801875,12.7876 C19.6807202,12.661185 19.6160168,12.4907644 19.6226366,12.315508 C19.6173144,12.2183897 19.6372607,12.1215524 19.6805164,12.034508 C19.7887281,11.8837062 19.9119672,11.7443563 20.0483256,11.618616 L27.3093001,4.2 L45.3655983,4.2 L42.6770381,6.942636 L29.9511766,6.942636 L24.6860844,12.293024 L39.181906,12.293024 L35.6867799,15.8 L23.7450882,15.8 Z"/>
  </g>
</svg>
