<svg xmlns="http://www.w3.org/2000/svg" width="59" height="20" viewBox="0 0 59 20">
  <g fill="none" fill-rule="evenodd">
    <rect width="59" height="20" fill="#EB0000" rx="2"/>
    <path fill="#FFF" fill-rule="nonzero" d="M36.608326 7.897852C36.6041876 7.04982882 36.8481392 6.21922709 37.3099476 5.508984 38.0246143 4.475384 39.099389 3.958584 40.5342717 3.958584 41.6379517 3.958584 42.5287793 4.24068067 43.2067544 4.804874 43.9208037 5.3811786 44.3260315 6.25873507 44.3025519 7.17792 44.3164937 7.71004605 44.1664713 8.23352947 43.8729541 8.676944 43.5968253 9.08857369 43.1851764 9.38961321 42.710096 9.527344 43.3003118 9.6503872 43.8241248 9.9885774 44.1803122 10.476562 44.5490568 10.9947651 44.7387241 11.619782 44.7203755 12.25625 44.7491863 13.3364351 44.2846503 14.3706539 43.4590273 15.06445 42.6811947 15.73945 41.6983928 16.07695 40.5106219 16.07695 39.2228977 16.07695 38.2019771 15.70514 37.4478601 14.96152 36.693678 14.2179653 36.3166035 13.213408 36.3166368 11.947848L36.3166368 11.797448 38.5318834 11.797448C38.5318834 12.5093627 38.7000633 13.059102 39.0364231 13.446666 39.4004286 13.846335 39.9246679 14.0599566 40.4633242 14.028112 41.0782318 14.028112 41.5512377 13.8462107 41.882342 13.482408 42.1844504 13.1468004 42.3479304 12.7083993 42.339582 12.256236 42.3625371 11.7394043 42.147426 11.2406742 41.7562075 10.903696 41.4356143 10.6294773 40.9415856 10.492368 40.2741216 10.492368 40.0870993 10.4922442 39.9002219 10.502808 39.7143969 10.524008L39.7143969 8.823242C39.8510431 8.83398467 39.9824337 8.839258 40.1085687 8.839062 41.4329859 8.839062 42.0951944 8.346028 42.0951944 7.35996 42.1102614 6.96376085 41.9518454 6.58077461 41.6616062 6.311718 41.346094 6.03577301 40.9365974 5.89268921 40.5185091 5.912304 40.0461585 5.88385273 39.5860319 6.06968887 39.2650442 6.418554 38.9706315 6.756054 38.812966 7.24915267 38.7920475 7.89785L36.608326 7.897852zM53.3606205 4.235352L53.3606205 6.19707C53.297553 6.26562467 53.1109781 6.47923133 52.8008959 6.83789 52.3119706 7.41729173 51.88153 8.04392754 51.5158958 8.708594 51.1188121 9.39737206 50.7862823 10.1216355 50.522583 10.87207 49.9945396 12.4646958 49.6894291 14.1231725 49.6159902 15.8L47.2351927 15.8C47.2677309 14.8199954 47.4199508 13.8476957 47.6884423 12.904882 47.9874581 11.8111534 48.3845822 10.7468455 48.8749482 9.725 49.5949688 8.227344 50.3255004 7.11204467 51.0665431 6.379102L45.6269823 6.379102 45.6269823 4.235352 53.3606205 4.235352z"/>
    <polygon fill="#FFF" fill-rule="nonzero" points="9.22 4.2 13.276 4.2 8.258 15.8 4.185 15.8"/>
    <path fill="#FFF" fill-rule="nonzero" d="M25.9805304,12.366254 C26.3470525,12.3662563 26.6789963,12.1490854 26.8268376,11.812566 L30.1191233,4.2 L15.9841006,4.2 L10.9660669,15.8 L15.0044375,15.8 L18.8032143,7.1096 L24.7969426,7.1096 L23.5955451,9.88506 L18.3696101,9.866038 L22.5865096,15.8 L27.1837955,15.8 L24.0598751,12.36625 L25.9805304,12.366254 Z"/>
  </g>
</svg>
