<svg xmlns="http://www.w3.org/2000/svg" width="59" height="20" viewBox="0 0 59 20">
  <g fill="none" fill-rule="evenodd">
    <rect width="59" height="20" fill="#EB0000" rx="2"/>
    <path fill="#FFF" fill-rule="nonzero" d="M42.2922803 4.235352L42.2922803 15.8 39.9903176 15.8 39.9903176 8.230078 37.2784185 8.230078 37.2784185 6.553126C37.7422643 6.55038453 38.2041169 6.49196123 38.6541271 6.379102 39.0069942 6.27980059 39.3375217 6.11329692 39.6276829 5.888672 40.0533878 5.56171867 40.3398169 5.010612 40.48697 4.235352L42.2922803 4.235352zM53.3606205 4.235352L53.3606205 6.19707C53.297553 6.26562467 53.1109781 6.47923133 52.8008959 6.83789 52.3119706 7.41729173 51.88153 8.04392754 51.5158958 8.708594 51.1188121 9.39737206 50.7862823 10.1216355 50.522583 10.87207 49.9945396 12.4646958 49.6894291 14.1231725 49.6159902 15.8L47.2351927 15.8C47.2677309 14.8199954 47.4199508 13.8476957 47.6884423 12.904882 47.9874581 11.8111534 48.3845821 10.7468454 48.8749482 9.725 49.5949688 8.227344 50.3255004 7.11204467 51.0665431 6.379102L45.6269823 6.379102 45.6269823 4.235352 53.3606205 4.235352z"/>
    <polygon fill="#FFF" fill-rule="nonzero" points="9.22 4.2 13.276 4.2 8.258 15.8 4.185 15.8"/>
    <path fill="#FFF" fill-rule="nonzero" d="M25.9805304,12.366254 C26.3470525,12.3662563 26.6789963,12.1490854 26.8268376,11.812566 L30.1191233,4.2 L15.9841006,4.2 L10.9660669,15.8 L15.0044375,15.8 L18.8032143,7.1096 L24.7969426,7.1096 L23.5955451,9.88506 L18.3696101,9.866038 L22.5865096,15.8 L27.1837955,15.8 L24.0598751,12.36625 L25.9805304,12.366254 Z"/>
  </g>
</svg>
