<svg xmlns="http://www.w3.org/2000/svg" width="59" height="20" viewBox="0 0 59 20">
  <g fill="none" fill-rule="evenodd">
    <rect width="59" height="20" fill="#EB0000" rx="2"/>
    <path fill="#FFF" fill-rule="nonzero" d="M8.62265267,15.8 L8.28652807,15.8 C8.25665135,15.786884 8.2230373,15.770022 8.18569189,15.756906 C8.15445198,15.7428167 8.12091308,15.7345623 8.08672139,15.732548 L7.77113716,15.575158 L7.39019649,15.239768 L4.81510959,13.191826 L4.38935284,12.809594 C4.2523954,12.6733751 4.17857338,12.4858167 4.18581081,12.292458 C4.1952808,12.0608051 4.28209566,11.8390735 4.43230324,11.662898 L11.2668314,4.8052 L11.5357298,4.582232 L11.7822223,4.400484 C12.0250748,4.25417296 12.3060898,4.18433439 12.5889257,4.2 L25.1151599,4.2 L22.4056188,6.9412 L14.471217,6.9412 L12.7233699,8.73994 L20.655904,8.73994 L18.8408328,10.518074 L10.9082987,10.518074 L9.13804358,12.292458 L17.0033615,12.292458 L13.5748854,15.8 L8.62265267,15.8 Z M33.1149141,4.2 L33.1149141,12.674688 L41.562841,4.2 L46.9632366,4.2 L35.4005601,15.8 L29.5519957,15.8 L29.5519957,7.300954 L21.0835304,15.8 L15.7260812,15.8 L27.2682194,4.2 L33.1149141,4.2 Z"/>
  </g>
</svg>
