<svg xmlns="http://www.w3.org/2000/svg" width="59" height="20" viewBox="0 0 59 20">
  <g fill="none" fill-rule="evenodd">
    <rect width="59" height="20" fill="#EB0000" rx="2"/>
    <path fill="#FFF" d="M7.00176,9.37834 L7.74656,9.37834 C9.02236,9.37834 9.87376,9.29834 10.30096,9.13814 C10.72796,8.97794 11.06416,8.72174 11.30996,8.36934 C11.55556,8.01694 11.67836,7.62994 11.67836,7.20814 C11.67836,6.92534 11.61536,6.69314 11.48996,6.51154 C11.36456,6.33014 11.18856,6.19794 10.96156,6.11514 C10.73456,6.03234 10.22896,5.99094 9.44416,5.99094 L7.71436,5.99094 L7.00176,9.37834 Z M5.66436,15.80054 L3.24616,15.80054 L5.70456,4.06114 L10.47716,4.06114 C11.32596,4.06114 11.99736,4.16134 12.49116,4.36154 C12.98476,4.56154 13.37596,4.89274 13.66436,5.35434 C13.95256,5.81614 14.09676,6.36734 14.09676,7.00794 C14.09676,7.60054 13.98176,8.17714 13.75236,8.73774 C13.52256,9.29834 13.24096,9.74674 12.90756,10.08294 C12.57376,10.41934 12.21476,10.67434 11.83056,10.84774 C11.44616,11.02134 10.92816,11.15334 10.27696,11.24414 C9.89776,11.29754 9.18796,11.32414 8.14696,11.32414 L6.60136,11.32414 L5.66436,15.80054 Z"/>
    <polygon fill="#FFF" points="13.602 15.801 16.053 4.061 24.757 4.061 24.349 6.023 18.063 6.023 17.502 8.69 23.58 8.69 23.172 10.652 17.094 10.652 16.357 13.839 23.188 13.839 22.771 15.801"/>
  </g>
</svg>
