<svg xmlns="http://www.w3.org/2000/svg" xmlns:xlink="http://www.w3.org/1999/xlink" width="59" height="20" viewBox="0 0 59 20">
  <defs>
    <polygon id="sbb_product_ir_56-a" points="0 0 59 0 59 20 0 20"/>
  </defs>
  <g fill="none" fill-rule="evenodd">
    <mask id="sbb_product_ir_56-b" fill="#fff">
      <use xlink:href="#sbb_product_ir_56-a"/>
    </mask>
    <path fill="#E20613" d="M57.2079348,20 L1.79198547,20 C0.802340203,20 5.97972973e-05,19.1942 5.97972973e-05,18.2 L5.97972973e-05,1.8 C5.97972973e-05,0.8058 0.802340203,0 1.79198547,0 L57.2079348,0 C58.1975801,0 59.0000598,0.8058 59.0000598,1.8 L59.0000598,18.2 C59.0000598,19.1942 58.1975801,20 57.2079348,20" mask="url(#sbb_product_ir_56-b)"/>
    <polygon fill="#FFF" points="9.22 4.2 13.276 4.2 8.258 15.8 4.185 15.8"/>
    <path fill="#FFF" d="M25.9805902 12.36622C26.3469483 12.36622 26.6790226 12.14902 26.8269213 11.81242L30.1191611 4.20002 15.9840767 4.20002 10.9660868 15.80002 15.0043976 15.80002 18.8033199 7.10962 24.7970024 7.10962 23.5954753 9.88502 18.3695902 9.86602 22.5864956 15.80002 27.1839111 15.80002 24.059901 12.36622 25.9805902 12.36622zM44.0995301 4.23556L44.0995301 6.29456 39.4508882 6.29456 38.953574 8.89996C39.5112834 8.30876 40.2242666 8.01316 41.0925233 8.01316 41.9448341 8.01316 42.6867193 8.24276 43.3181787 8.70196 44.2546044 9.39376 44.7230166 10.44436 44.7230166 11.85396 44.7230166 13.23716 44.2231111 14.33256 43.2234997 15.14036 42.4447395 15.77376 41.513297 16.09056 40.4295706 16.09056 39.2087091 16.09056 38.2276348 15.76196 37.4855503 15.10476 36.7436652 14.44756 36.3515943 13.55916 36.3095368 12.43976L38.5748578 12.43976C38.6115334 12.84656 38.7430875 13.19216 38.9695199 13.47736 39.3219253 13.92616 39.8112666 14.15036 40.4373443 14.15036 41.0424929 14.15036 41.5212699 13.93136 41.8738747 13.49316 42.2157159 13.06536 42.3869355 12.54556 42.3869355 11.93296 42.3869355 11.26776 42.2079422 10.73596 41.8501551 10.33736 41.4921686 9.93896 41.0161821 9.73956 40.4215976 9.73956 39.6954591 9.73956 39.1297767 10.06676 38.7247497 10.72156L36.6649321 10.68976 37.7618139 4.23556 44.0995301 4.23556zM49.5610963 9.77912C49.0087686 9.77912 48.5692584 10.01132 48.2431639 10.47592 47.9483632 10.88772 47.8010625 11.37872 47.8010625 11.94892 47.8010625 12.51392 47.9511537 13.00752 48.2509375 13.42992 48.5770321 13.89992 49.0245152 14.13452 49.5927889 14.13452 50.1451166 14.13452 50.5898091 13.91032 50.9266672 13.46152 51.2421976 13.03912 51.4000625 12.54032 51.4000625 11.96472 51.4000625 11.39992 51.2579443 10.91672 50.9739071 10.51552 50.6266841 10.02472 50.1556807 9.77912 49.5610963 9.77912M53.467853 7.12612L51.2738902 7.12612C51.0685861 6.23392 50.5634983 5.78772 49.7584274 5.78772 48.9061166 5.78772 48.3009679 6.31312 47.9431807 7.36372 47.7958801 7.79132 47.6774814 8.43812 47.5879848 9.30392 47.9352078 8.83392 48.3049544 8.49612 48.6970253 8.29032 49.088897 8.08432 49.5610963 7.98152 50.1136233 7.98152 51.1973497 7.98152 52.0681976 8.36672 52.7259679 9.13752 53.3522449 9.86632 53.6651841 10.77952 53.6651841 11.87752 53.6651841 13.18172 53.2442111 14.22972 52.4024645 15.02152 51.6448328 15.73432 50.7343193 16.09072 49.6717213 16.09072 48.3087416 16.09072 47.2485355 15.57472 46.4909037 14.54232 45.733272 13.51032 45.3545557 12.07032 45.3545557 10.22252 45.3545557 8.24812 45.7595828 6.70112 46.5698361 5.58192 47.3537787 4.49972 48.424549 3.95832 49.782147 3.95832 51.0606132 3.95832 52.0394949 4.38872 52.7181943 5.24932 53.1074747 5.74552 53.3574274 6.37112 53.467853 7.12612"/>
  </g>
</svg>
