<svg xmlns="http://www.w3.org/2000/svg" width="59" height="20" viewBox="0 0 59 20">
  <g fill="none" fill-rule="evenodd">
    <rect width="59" height="20" fill="#EB0000" rx="2"/>
    <path fill="#FFF" fill-rule="nonzero" d="M9.20445845,4.2 L4.18581081,15.8 L8.42029463,15.8 L10.324691,11.191474 L12.0050409,7.1 L20.9669117,7.1 L19.7570569,9.8876 L12.3187057,9.8876 C12.8713576,10.4720987 13.3903982,11.00414 13.8758273,11.483724 C14.3612564,11.963308 14.8392229,12.431654 15.3097266,12.888762 C15.7802264,13.34587 16.2619268,13.81047 16.754828,14.282562 C17.2477291,14.754654 17.785443,15.2604667 18.3679697,15.8 L29.1446167,15.8 L31.0714172,14.316278 L33.1998581,12.6752 L34.5889493,15.8 L40.8174478,15.8 L38.8906473,12.630232 L37.1654953,9.752712 L45.6120489,4.2 L39.181908,4.2 L35.5971597,6.8752 L34.2976886,4.2 L28.2260226,4.2 L31.429892,9.7752 L22.9833244,15.3504 C22.5651021,15.0206827 22.0684656,14.6197787 21.493415,14.147688 C20.9183643,13.6755973 20.1752772,13.08735 19.2641538,12.382946 L20.1379358,12.382946 C20.6308396,12.382946 21.0303892,12.3791993 21.3365846,12.371706 C21.64278,12.3642127 21.8630925,12.352972 21.9975221,12.337984 C22.2299955,12.3326645 22.4588505,12.2790842 22.6696637,12.18062 C22.9104316,11.9486765 23.0944661,11.6639951 23.2073769,11.348836 L26.2320079,4.2 L9.20445845,4.2 Z"/>
  </g>
</svg>
