<svg xmlns="http://www.w3.org/2000/svg" width="36" height="36" viewBox="0 0 36 36">
  <path fill="none" stroke="#000" d="M22.5,21.75 C27.4695,21.75 27.3,15.3 23.55,15.45 C25.2,9.9 17.85,7.35 15.6,12.45 C13.62,10.827 10.452,12.387 10.8,15.3 C7.5885,15.3 6.9495,21.75 12,21.75 M26.0625,17.2566 C27.954,17.8506 32.265,16.8126 33.75,13.5006 C27.498,16.1436 23.316,9.9696 25.473,5.7006 C23.8395,6.1896 22.6035,7.1991 21.681,10.2516 M19.5,20.25 L15.75,24 L19.0035,24 L14.0085,28.0725 L16.5,24.75 L12.75,24.75 L17.25,20.25 L19.5,20.25 Z"/>
</svg>
