<svg xmlns="http://www.w3.org/2000/svg" width="36" height="36" viewBox="0 0 36 36">
  <path fill="none" stroke="#000" d="M10.8003,15.3003 C7.5888,15.3003 6.9498,21.7503 12.0003,21.7503 L22.5003,21.7503 C27.3543,21.7503 27.3003,15.3003 23.5503,15.4503 C25.2003,9.9003 17.8503,7.3503 15.6003,12.4503 C13.6188,10.8273 10.4523,12.3873 10.8003,15.3003 Z M26.00835,17.0808 C27.90735,16.5528 29.24985,14.8473 29.24985,12.7503 C29.24985,10.2138 27.28635,8.2503 24.74985,8.2503 C23.26035,8.2503 21.96735,8.9268 21.15585,10.0008 M24.75,3 L24.75,6 M17.74365,5.81685 L19.90515,7.89585 M29.6895,17.7957 L31.8105,19.9167 M34.5,12.75 L31.5,12.75 M31.64355,5.83305 L29.52255,7.95405 M9.75,24 L8.25,27 M15.75,24 L14.25,27 M12.75,24 L9.75,30 M20.25,25.5 C20.25,25.914 19.914,26.25 19.5,26.25 C19.086,26.25 18.75,25.914 18.75,25.5 C18.75,25.086 19.086,24.75 19.5,24.75 C19.914,24.75 20.25,25.086 20.25,25.5 Z M26.25,25.5 C26.25,25.914 25.914,26.25 25.5,26.25 C25.086,26.25 24.75,25.914 24.75,25.5 C24.75,25.086 25.086,24.75 25.5,24.75 C25.914,24.75 26.25,25.086 26.25,25.5 Z M23.25,30 C23.25,30.414 22.914,30.75 22.5,30.75 C22.086,30.75 21.75,30.414 21.75,30 C21.75,29.586 22.086,29.25 22.5,29.25 C22.914,29.25 23.25,29.586 23.25,30 Z"/>
</svg>
