<svg xmlns="http://www.w3.org/2000/svg" width="36" height="36" viewBox="0 0 36 36">
  <path fill="none" stroke="#000" d="M24.02925,21.5757 C27.24675,20.5227 26.84775,15.3177 23.55075,15.4497 C25.19925,9.8997 17.84925,7.3497 15.59925,12.4497 C13.61925,10.8267 10.45125,12.3867 10.80075,15.2997 C7.95075,15.2997 7.12725,20.3772 10.50375,21.5232 M26.00835,17.0808 C27.90735,16.5528 29.24985,14.8473 29.24985,12.7503 C29.24985,10.2138 27.28635,8.2503 24.74985,8.2503 C23.26035,8.2503 21.96735,8.9268 21.15585,10.0008 M17.25,16.5 L17.25,27 M12.0213,21.75 L22.5213,21.75 M13.53735,18.03735 L20.96235,25.46235 M13.55865,25.4619 L20.98365,18.0369"/>
</svg>
