<svg xmlns="http://www.w3.org/2000/svg" width="36" height="36" viewBox="0 0 36 36">
  <path fill="none" stroke="#000" d="M12.75,24 L11.25,27 M21.75,24 L20.25,27 M15.75,24 L12.75,30 M18.8247,24 L15.8247,30 M10.8003,15.3003 C7.5888,15.3003 6.9498,21.7503 12.0003,21.7503 L22.5003,21.7503 C27.3543,21.7503 27.3003,15.3003 23.5503,15.4503 C25.2003,9.9003 17.8503,7.3503 15.6003,12.4503 C13.6188,10.8273 10.4523,12.3873 10.8003,15.3003 Z M26.00835,17.0808 C27.90735,16.5528 29.24985,14.8473 29.24985,12.7503 C29.24985,10.2138 27.28635,8.2503 24.74985,8.2503 C23.26035,8.2503 21.96735,8.9268 21.15585,10.0008 M24.75,3 L24.75,6 M17.74365,5.81685 L19.90515,7.89585 M29.6895,17.7957 L31.8105,19.9167 M34.5,12.75 L31.5,12.75 M31.64355,5.83305 L29.52255,7.95405"/>
</svg>
