<svg xmlns="http://www.w3.org/2000/svg" width="48" height="48" viewBox="0 0 48 48">
  <path fill="none" stroke="#000" d="M17.5,23.5005 C17.499,28.7135 19.896,33.6375 24,36.8525 C31.373,31.0725 32.666,20.4095 26.886,13.0355 C26.044,11.9595 25.074,10.9905 23.9999997,10.1485 C19.896,13.3635 17.499,18.2875 17.5,23.5005 Z M27.7324,35.2939 C36.7784,33.2679 42.5074,24.3389 40.5824,15.2719 C37.4264,15.1719 34.3044,15.9499 31.5644,17.5179 M16.4341,17.5181 C13.6941,15.9501 10.5721,15.1721 7.4161,15.2721 C5.4911,24.3391 11.2211,33.2681 20.2661,35.2941 M24.5332,34.2021 L24.5302,34.2021 L24.5332,34.2021 Z M23.4692,34.2021 L23.4692,34.2021 L23.4662,34.2021 L23.4692,34.2021 Z M7.0024,25.9512 C5.8714,26.5742 4.8134,27.3222 3.8494,28.1822 C7.2054,34.4782 14.1454,37.9982 21.2084,36.9862 M26.791,36.9863 C33.853,37.9983 40.793,34.4783 44.149,28.1823 C43.186,27.3223 42.128,26.5743 40.997,25.9513"/>
</svg>
