<svg xmlns="http://www.w3.org/2000/svg" width="36" height="36" viewBox="0 0 36 36">
  <path fill="none" stroke="#000" d="M24.75,12 C24.75,15.7605 21.7605,18.75 18,18.75 C14.2395,18.75 11.25,15.7605 11.25,12 C11.25,8.2395 14.2395,5.25 18,5.25 C21.7605,5.25 24.75,8.2395 24.75,12 Z M20.25,11.96565 C20.25,13.22715 19.2915,14.25015 18.0075,14.25015 C16.7235,14.25015 15.75,13.22715 15.75,11.96565 C15.75,10.70415 16.7235,9.75015 18.0075,9.75015 C19.2915,9.75015 20.25,10.70415 20.25,11.96565 Z M14.25,17.63085 L14.25,28.19985 L18,31.94985 L21.75,28.19985 L21.75,17.63085 M18,21.75 L21.75,21.75 M17.9898,24.75 L21.7503,24.75"/>
</svg>
