<svg xmlns="http://www.w3.org/2000/svg" width="36" height="36" viewBox="0 0 36 36">
  <path fill="none" stroke="#000" d="M13.60545,19.0191 C9.25545,20.6706 6.75045,25.8006 6.75045,30.7491 L26.25045,30.7491 C26.25045,25.8006 23.71245,20.7006 19.36245,19.0506 M16.5,9.74955 C18.9855,9.74955 21,12.10005 21,14.99955 C21,17.89905 18.9855,20.24955 16.5,20.24955 C14.0145,20.24955 12,17.89905 12,14.99955 C12,12.10005 14.0145,9.74955 16.5,9.74955 Z M16.5,9.74955 C18.9855,9.74955 21,12.10005 21,14.99955 C21,17.89905 18.9855,20.24955 16.5,20.24955 C14.0145,20.24955 12,17.89905 12,14.99955 C12,12.10005 14.0145,9.74955 16.5,9.74955 Z M16.5,9.74955 C16.5,6.89955 18.45,5.24955 21,5.24955 C23.55,5.24955 25.5,7.64955 25.5,10.49955 C25.5,13.34955 23.55,15.74955 21,15.74955 M25.5,26.24955 L30.75,26.24955 C30.75,21.29955 28.1535,16.26705 23.8035,14.61705"/>
</svg>
