<svg xmlns="http://www.w3.org/2000/svg" width="36" height="36" viewBox="0 0 36 36">
  <path fill="none" stroke="#000" d="M9.375,15.75 L13.125,15.75 L11.25,12.375 L9.375,15.75 Z M11.25,12.375 L11.25,7.5 M11.25,7.5 L18,5.25 L24.75,7.5 L18,9.7425 L11.25,7.5 Z M14.25,8.47635 L14.25,11.62485 C16.17,13.39485 19.2885,13.85685 21.75,11.62485 L21.75,8.46885 M14.4456,11.77875 C13.8516,12.67275 13.5006,13.79475 13.5006,14.99925 C13.5006,17.86275 15.4821,20.24925 17.9871,20.24925 C20.4936,20.24925 22.5006,17.86275 22.5006,14.99925 C22.5006,13.80975 22.1526,12.70275 21.5691,11.81475 M15.20295,19.1199 C11.12295,20.6079 8.25045,24.9639 8.25045,30.7419 L27.75045,30.7494 C27.75045,25.4514 25.02495,20.7174 20.79645,19.1034"/>
</svg>
