<svg xmlns="http://www.w3.org/2000/svg" width="36" height="36" viewBox="0 0 36 36">
  <path fill="none" stroke="#000" d="M22.5,15 C22.5,17.9115 20.5125,20.25 18,20.25 C15.4875,20.25 13.5,17.9115 13.5,15 C13.5,12.0885 15.4875,9.75 18,9.75 C20.5125,9.75 22.5,12.0885 22.5,15 Z M15.15375,19.08105 C10.88325,20.95905 8.24925,25.54755 8.24925,30.74955 L27.74925,30.74955 C27.74925,26.17005 25.63125,21.23355 20.84625,19.08105 M12.75,17.25 L10.5,17.25 C10.137,17.25 9.75,16.9125 9.75,16.5 L9.75,13.509 C9.75,13.0995 10.1295,12.75 10.5,12.75 L12.75,12.75 L12.75,17.25 Z M18,17.25 L25.5,17.25 C25.9395,17.25 26.25,16.9815 26.25,16.5 L26.25,13.5 C26.25,13.077 26.0175,12.75 25.5,12.75 L23.25,12.75 L23.25,17.25 M11.2302,12.657 C12.8622,4.659 23.4177,5.001 24.6312,12.6885"/>
</svg>
