<svg xmlns="http://www.w3.org/2000/svg" width="36" height="36" viewBox="0 0 36 36">
  <path fill="none" stroke="#000" d="M30.75,24.75 C30.75,27.2355 24.7065,29.25 17.25,29.25 C9.7935,29.25 3.75,27.2355 3.75,24.75 C3.75,22.2645 9.7935,20.25 17.25,20.25 C24.7065,20.25 30.75,22.2645 30.75,24.75 Z M20.25,12 C20.25,14.0715 18.906,15.75 17.25,15.75 C15.594,15.75 14.25,14.0715 14.25,12 C14.25,9.9285 15.594,8.25 17.25,8.25 C18.906,8.25 20.25,9.9285 20.25,12 Z M20.25,12 C20.25,14.0715 18.906,15.75 17.25,15.75 C15.594,15.75 14.25,14.0715 14.25,12 C14.25,9.9285 15.594,8.25 17.25,8.25 C18.906,8.25 20.25,9.9285 20.25,12 Z M27.75,13.5 C27.75,15.5715 26.406,17.25 24.75,17.25 C23.094,17.25 21.75,15.5715 21.75,13.5 C21.75,11.4285 23.094,9.75 24.75,9.75 C26.406,9.75 27.75,11.4285 27.75,13.5 Z M12.75,13.5 C12.75,15.5715 11.406,17.25 9.75,17.25 C8.094,17.25 6.75,15.5715 6.75,13.5 C6.75,11.4285 8.094,9.75 9.75,9.75 C11.406,9.75 12.75,11.4285 12.75,13.5 Z M21.69435,20.50485 C21.50085,18.01035 20.49435,15.93135 19.11135,14.91885 M15.3882,14.91945 C14.0052,15.93195 13.0002,18.01095 12.8052,20.50545 M15.3882,14.91945 C14.0052,15.93195 13.0002,18.01095 12.8052,20.50545 M13.20195,18.34125 C12.77445,17.52525 12.23295,16.86375 11.61795,16.41225 M7.8831,16.41435 C6.3726,17.51535 5.3091,19.89435 5.2611,22.68585 M29.24115,22.689 C29.19465,19.896 28.13415,17.5125 26.61915,16.4115 M22.88085,16.41135 C22.26285,16.85985 21.72435,17.52285 21.29685,18.33885"/>
</svg>
