<svg xmlns="http://www.w3.org/2000/svg" width="36" height="36" viewBox="0 0 36 36">
  <path fill="none" stroke="#000" d="M18.75,9 C18.75,11.871 16.842,14.25 14.25,14.25 C11.658,14.25 9.75,11.871 9.75,9 C9.75,6.129 11.658,3.75 14.25,3.75 C16.842,3.75 18.75,6.129 18.75,9 Z M11.37525,13.0722 C7.33425,16.0632 5.39475,20.3262 5.25075,26.2497 L15.00075,26.2497 M17.0706,13.10895 C18.9381,14.39895 20.2386,15.91695 21.1161,17.60445 M29.25,23.25 C29.25,25.758 27.258,27.75 24.75,27.75 C22.242,27.75 20.25,25.758 20.25,23.25 C20.25,20.742 22.242,18.75 24.75,18.75 C27.258,18.75 29.25,20.742 29.25,23.25 Z M26.25,23.2485 C26.25,24.0915 25.599,24.75 24.753,24.75 C23.907,24.75 23.25,24.0915 23.25,23.2485 C23.25,22.4055 23.907,21.75 24.753,21.75 C25.599,21.75 26.25,22.4055 26.25,23.2485 Z M20.33205,24.2124 L15.74955,28.8744 L15.74955,32.2494 L19.12455,32.2494 L23.68755,27.7494"/>
</svg>
