<svg xmlns="http://www.w3.org/2000/svg" width="36" height="36" viewBox="0 0 36 36">
  <path fill="none" stroke="#000" d="M10.8003,15.3003 C7.5888,15.3003 6.9498,21.7503 12.0003,21.7503 L22.5003,21.7503 C27.1878,21.7503 27.3003,15.3003 23.5503,15.4503 C25.2003,9.9003 17.8503,7.3503 15.6003,12.4503 C13.6188,10.8273 10.4523,12.3873 10.8003,15.3003 Z M26.0625,17.2566 C27.954,17.8506 32.265,16.8126 33.75,13.5006 C27.498,16.1436 23.316,9.9696 25.473,5.7006 C23.8395,6.1896 22.6035,7.1991 21.681,10.2516 M9.75,24 C9.75,24 9,25.5 9,26.25 C9,26.664 9.336,27 9.75,27 C10.164,27 10.5,26.664 10.5,26.25 C10.5,25.5 9.75,24 9.75,24 Z M15.75,24 C15.75,24 15,25.5 15,26.25 C15,26.664 15.336,27 15.75,27 C16.164,27 16.5,26.664 16.5,26.25 C16.5,25.5 15.75,24 15.75,24 Z M21.75,24 C21.75,24 21,25.5 21,26.25 C21,26.664 21.336,27 21.75,27 C22.164,27 22.5,26.664 22.5,26.25 C22.5,25.5 21.75,24 21.75,24 Z M18.75,27 C18.75,27 18,28.5 18,29.25 C18,29.664 18.336,30 18.75,30 C19.164,30 19.5,29.664 19.5,29.25 C19.5,28.5 18.75,27 18.75,27 Z M12.75,27 C12.75,27 12,28.5 12,29.25 C12,29.664 12.336,30 12.75,30 C13.164,30 13.5,29.664 13.5,29.25 C13.5,28.5 12.75,27 12.75,27 Z"/>
</svg>
