<svg xmlns="http://www.w3.org/2000/svg" width="36" height="36" viewBox="0 0 36 36">
  <path fill="none" stroke="#000" d="M10.8003,15.3003 C7.5888,15.3003 6.9498,21.7503 12.0003,21.7503 L22.5003,21.7503 C27.7158,21.7503 27.3003,15.3003 23.5503,15.4503 C25.2003,9.9003 17.8503,7.3503 15.6003,12.4503 C13.6188,10.8273 10.4523,12.3873 10.8003,15.3003 Z M26.0625,17.2566 C27.954,17.8506 32.265,16.8126 33.75,13.5006 C27.498,16.1436 23.316,9.9696 25.473,5.7006 C23.8395,6.1896 22.6035,7.1991 21.681,10.2516 M24,24.75 C24,25.164 23.664,25.5 23.25,25.5 C22.836,25.5 22.5,25.164 22.5,24.75 C22.5,24.336 22.836,24 23.25,24 C23.664,24 24,24.336 24,24.75 Z M18,24.75 C18,25.164 17.664,25.5 17.25,25.5 C16.836,25.5 16.5,25.164 16.5,24.75 C16.5,24.336 16.836,24 17.25,24 C17.664,24 18,24.336 18,24.75 Z M12,24.75 C12,25.164 11.664,25.5 11.25,25.5 C10.836,25.5 10.5,25.164 10.5,24.75 C10.5,24.336 10.836,24 11.25,24 C11.664,24 12,24.336 12,24.75 Z M21,27.75 C21,28.164 20.664,28.5 20.25,28.5 C19.836,28.5 19.5,28.164 19.5,27.75 C19.5,27.336 19.836,27 20.25,27 C20.664,27 21,27.336 21,27.75 Z M15,27.75 C15,28.164 14.664,28.5 14.25,28.5 C13.836,28.5 13.5,28.164 13.5,27.75 C13.5,27.336 13.836,27 14.25,27 C14.664,27 15,27.336 15,27.75 Z"/>
</svg>
