<svg xmlns="http://www.w3.org/2000/svg" width="36" height="36" viewBox="0 0 36 36">
  <path fill="none" stroke="#000" d="M10.8003,15.3003 C7.5888,15.3003 6.9498,21.7503 12.0003,21.7503 L22.5003,21.7503 C27.3543,21.7503 27.3003,15.3003 23.5503,15.4503 C25.2003,9.9003 17.8503,7.3503 15.6003,12.4503 C13.6188,10.8273 10.4523,12.3873 10.8003,15.3003 Z M26.0625,17.2566 C27.954,17.8506 32.265,16.8126 33.75,13.5006 C27.498,16.1436 23.316,9.9696 25.473,5.7006 C23.8395,6.1896 22.6035,7.1991 21.681,10.2516 M15.75,25.5 C15.75,25.914 15.414,26.25 15,26.25 C14.586,26.25 14.25,25.914 14.25,25.5 C14.25,25.086 14.586,24.75 15,24.75 C15.414,24.75 15.75,25.086 15.75,25.5 Z M21.75,25.5 C21.75,25.914 21.414,26.25 21,26.25 C20.586,26.25 20.25,25.914 20.25,25.5 C20.25,25.086 20.586,24.75 21,24.75 C21.414,24.75 21.75,25.086 21.75,25.5 Z M18.75,30 C18.75,30.414 18.414,30.75 18,30.75 C17.586,30.75 17.25,30.414 17.25,30 C17.25,29.586 17.586,29.25 18,29.25 C18.414,29.25 18.75,29.586 18.75,30 Z"/>
</svg>
