<svg xmlns="http://www.w3.org/2000/svg" width="36" height="36" viewBox="0 0 36 36">
  <path fill="none" stroke="#000" d="M22.5,21.75 C27.267,21.75 27.3,15.3 23.55,15.45 C25.2,9.9 17.85,7.35 15.6,12.45 C13.62,10.827 10.452,12.387 10.8,15.3 C7.5885,15.3 6.9495,21.75 12,21.75 M19.5,20.25 L15.75,24 L19.0035,24 L14.0085,28.0725 L16.5,24.75 L12.75,24.75 L17.25,20.25 L19.5,20.25 Z M25.5,24.75 C25.5,25.164 25.164,25.5 24.75,25.5 C24.336,25.5 24,25.164 24,24.75 C24,24.336 24.336,24 24.75,24 C25.164,24 25.5,24.336 25.5,24.75 Z M22.5,27.75 C22.5,28.164 22.164,28.5 21.75,28.5 C21.336,28.5 21,28.164 21,27.75 C21,27.336 21.336,27 21.75,27 C22.164,27 22.5,27.336 22.5,27.75 Z M9,26.25 C9,26.664 8.664,27 8.25,27 C7.836,27 7.5,26.664 7.5,26.25 C7.5,25.836 7.836,25.5 8.25,25.5 C8.664,25.5 9,25.836 9,26.25 Z"/>
</svg>
