<svg xmlns="http://www.w3.org/2000/svg" width="36" height="36" viewBox="0 0 36 36">
  <g fill="none" fill-rule="evenodd">
    <path stroke="#000" d="M10.8003,15.3003 C7.5888,15.3003 6.9498,21.7503 12.0003,21.7503 L22.5003,21.7503 C27.3048,21.7503 27.3003,15.3003 23.5503,15.4503 C25.2003,9.9003 17.8503,7.3503 15.6003,12.4503 C13.6188,10.8273 10.4523,12.3873 10.8003,15.3003 Z"/>
    <path fill="#000" d="M9,25.5 L9,24 L10.5,24 L10.5,25.5 L9,25.5 Z M12,25.5 L12,24 L13.5,24 L13.5,25.5 L12,25.5 Z M9,28.5 L9,27 L10.5,27 L10.5,28.5 L9,28.5 Z M10.5,27 L10.5,25.5 L12,25.5 L12,27 L10.5,27 Z M12,28.5 L12,27 L13.5,27 L13.5,28.5 L12,28.5 Z M15,31.5 L15,30 L16.5,30 L16.5,31.5 L15,31.5 Z M18,31.5 L18,30 L19.5,30 L19.5,31.5 L18,31.5 Z M15,34.5 L15,33 L16.5,33 L16.5,34.5 L15,34.5 Z M16.5,33 L16.5,31.5 L18,31.5 L18,33 L16.5,33 Z M18,34.5 L18,33 L19.5,33 L19.5,34.5 L18,34.5 Z M21,25.5 L21,24 L22.5,24 L22.5,25.5 L21,25.5 Z M24,25.5 L24,24 L25.5,24 L25.5,25.5 L24,25.5 Z M21,28.5 L21,27 L22.5,27 L22.5,28.5 L21,28.5 Z M22.5,27 L22.5,25.5 L24,25.5 L24,27 L22.5,27 Z M24,28.5 L24,27 L25.5,27 L25.5,28.5 L24,28.5 Z"/>
  </g>
</svg>
