<svg xmlns="http://www.w3.org/2000/svg" width="36" height="36" viewBox="0 0 36 36">
  <path fill="none" stroke="#000" d="M24.75,18.75 C24.75,22.059 22.0935,24.741 18.7845,24.741 C15.474,24.741 12.792,22.0575 12.792,18.7485 C12.792,15.438 15.4395,12.75 18.75,12.75 C22.059,12.75 24.75,15.4395 24.75,18.75 Z M6,18.75 L10.5045,18.75 L6,18.75 Z M9.5889,9.47385 L13.0044,12.88935 L9.5889,9.47385 Z M18.76755,5.9817 L18.76755,10.5042 L18.76755,5.9817 Z M27.9858,9.61155 L24.5898,12.96855 L27.9858,9.61155 Z M31.5,18.75 L26.991,18.75 L31.5,18.75 Z M28.00635,27.8892 L24.60585,24.5037 L28.00635,27.8892 Z M18.75,26.9898 L18.75,31.4943 L18.75,26.9898 Z M12.9858,24.6021 L9.5928,27.9936 L12.9858,24.6021 Z"/>
</svg>
