<svg xmlns="http://www.w3.org/2000/svg" width="48" height="48" viewBox="0 0 48 48">
  <path fill="none" stroke="#000" d="M30.6623786,19.87261 C31.1693913,20.2355217 31.5,20.8293866 31.5,21.5 C31.5,22.604 30.604,23.5 29.5,23.5 C28.396,23.5 27.5,22.604 27.5,21.5 C27.5,20.396 28.396,19.5 29.5,19.5 C29.9333866,19.5 30.3347196,19.6380768 30.6623786,19.87261 L38.3377537,9.12748476 C38.6653884,9.36196034 39.0666717,9.5 39.5,9.5 C40.604,9.5 41.5,8.604 41.5,7.5 C41.5,6.396 40.604,5.5 39.5,5.5 C38.396,5.5 37.5,6.396 37.5,7.5 C37.5,8.17067175 37.8306663,8.76458169 38.3377537,9.12748476 L30.6621,19.873 Z M21.5,43.5 L27.5,43.5 L27.5,31.5 L31.5,31.5 L31.5,43.5 L37.5,43.5 L37.5,19.5 L41.5,19.5 L41.5,43.5 L7.5,43.5 L7.5,35.5 L11.5,35.5 L11.5,43.5 L17.5,43.5 L17.5,27.5 L21.5,27.5 L21.5,43.5 Z M11.5,25.5 C11.5,26.604 10.604,27.5 9.5,27.5 C8.396,27.5 7.5,26.604 7.5,25.5 C7.5,24.396 8.396,23.5 9.5,23.5 C10.604,23.5 11.5,24.396 11.5,25.5 Z M21.3369,18.293 L27.6629,20.708 L21.3369,18.293 Z M11.062,24.251 L17.938,18.749 L11.062,24.251 Z M21.5,17.5 C21.5,18.604 20.604,19.5 19.5,19.5 C18.396,19.5 17.5,18.604 17.5,17.5 C17.5,16.396 18.396,15.5 19.5,15.5 C20.604,15.5 21.5,16.396 21.5,17.5 Z"/>
</svg>
