<svg xmlns="http://www.w3.org/2000/svg" width="36" height="36" viewBox="0 0 36 36">
  <path fill="none" stroke="#000" d="M12,31.5 L18,28.5 L19.5,24 L22.5,22.5 L25.5,18.75 L28.5,18.75 L31.5,24 M6,12 L19.125,25.125 M15,21 L16.5,13.5 L13.5,10.5 L10.5,10.5 L9,15 M9,15 L9.75,21 L6,28.5 M12,18 L13.5,22.5 L10.5,28.5 M21,30 L25.5,27 L27,23.25 M12,18 L16.5,13.5 M13.5,10.5 L9,15 M18.75,9.75 C17.9505,9.75 17.25,9.0495 17.25,8.25 C17.25,7.4505 17.9505,6.75 18.75,6.75 C19.5495,6.75 20.25,7.4505 20.25,8.25 C20.25,9.0495 19.5495,9.75 18.75,9.75 Z"/>
</svg>
