<svg xmlns="http://www.w3.org/2000/svg" width="36" height="36" viewBox="0 0 36 36">
  <path fill="none" stroke="#000" d="M8.25,27.74955 L8.25,23.24955 L8.253,23.24955 L8.25,23.24955 L8.25,27.74955 L6,27.74955 L8.25,27.74955 Z M8.25,27.74955 L8.25,30.6018 L8.25,27.74955 L8.253,27.74955 L8.25,27.74955 Z M15.75,14.2503 L15.75,17.0343 L15.75,14.2503 L17.577,14.2503 L15.75,14.2503 L15.75,9.7503 L18,9.7503 L15.75,9.7503 L15.75,6.0003 L15.75,9.7503 L10.5,9.7503 L15.75,9.7503 L15.75,14.2503 L10.5,14.2503 L15.75,14.2503 Z M8.25,23.24955 L6,23.24955 L8.25,23.24955 L8.25,6.0003 L8.25,23.24955 Z M6,9.7503 L8.25,9.7503 L6,9.7503 Z M6,14.2503 L8.25,14.2503 L6,14.2503 Z M10.5,18.7422 L14.6205,18.7422 L10.5,18.7422 Z M6,18.7503 L8.25,18.7503 L6,18.7503 Z M20.52825,9.7503 L19.49925,9.7503 L20.52825,9.7503 Z M10.5,23.2422 L11.664,23.2422 L10.5,23.2422 Z M15,23.24955 L22.5,23.24955 L15,23.24955 Z M18,18.7503 L25.5,18.7503 L18,18.7503 Z M21,14.2503 L28.5,14.2503 L21,14.2503 Z M24,9.7503 L31.5,9.7503 L24,9.7503 Z M12,27.74955 L19.5,27.74955 L12,27.74955 Z M15.75,27.74955 L15.75,30.60105 L15.75,27.74955 Z M22.5,6.7503 L8.247,28.4433 M31.5,6.7503 L15.7455,29.1723"/>
</svg>
