<svg xmlns="http://www.w3.org/2000/svg" width="36" height="36" viewBox="0 0 36 36">
  <path fill="none" stroke="#000" d="M24.82905,23.24955 C23.68605,20.59605 21.10755,18.74955 17.99955,18.74955 C14.89305,18.74955 12.31305,20.59605 11.17005,23.24955 M30.75,18.0003 C30.75,25.1193 25.119,30.7503 18,30.7503 C10.881,30.7503 5.25,25.1193 5.25,18.0003 C5.25,10.8798 10.881,5.2503 18,5.2503 C25.119,5.2503 30.75,10.8798 30.75,18.0003 Z M13.5,12.75 C13.086,12.75 12.75,13.086 12.75,13.5 C12.75,13.914 13.086,14.25 13.5,14.25 C13.914,14.25 14.25,13.914 14.25,13.5 C14.25,13.086 13.914,12.75 13.5,12.75 M22.5,12.75 C22.086,12.75 21.75,13.086 21.75,13.5 C21.75,13.914 22.086,14.25 22.5,14.25 C22.914,14.25 23.25,13.914 23.25,13.5 C23.25,13.086 22.914,12.75 22.5,12.75"/>
</svg>
