<svg xmlns="http://www.w3.org/2000/svg" width="36" height="36" viewBox="0 0 36 36">
  <path fill="none" stroke="#000" d="M24,17.262 L26.25,17.262 M8.2485,20.262 L12.75,20.262 L12.75,8.25 L8.2485,8.25 L8.2485,20.262 Z M24,14.262 L26.25,14.262 M24,11.262 L24.75,11.262 M26.25,20.26275 C27.0795,20.26275 27.75,19.59075 27.75,18.76275 C27.75,17.93325 27.0795,17.26275 26.25,17.26275 C27.0795,17.26275 27.75,16.59075 27.75,15.76275 C27.75,14.93325 27.0795,14.26275 26.25,14.26275 C27.0795,14.26275 27.75,13.59075 27.75,12.76275 C27.75,11.93325 27.0795,11.26275 26.25,11.26275 L24.75,11.26275 C25.578,11.26275 26.25,10.59075 26.25,9.76275 C26.25,8.93325 25.578,8.26275 24.75,8.26275 L17.25,8.26275 C14.988,8.26275 12.75,9.01275 12.75,12.76275 L12.75,20.26275 L14.25,20.26275 L20.685,27.31875 C20.958,27.59325 21.3345,27.76275 21.75,27.76275 C22.5795,27.76275 23.25,27.09075 23.25,26.26275 C23.25,26.07975 23.2185,25.90425 23.157,25.74075 L21,20.26275 L26.25,20.26275"/>
</svg>
