<?xml version="1.0" encoding="utf-8"?>
<!-- Generator: Adobe Illustrator 16.0.4, SVG Export Plug-In . SVG Version: 6.00 Build 0)  -->
<!DOCTYPE svg PUBLIC "-//W3C//DTD SVG 1.1//EN" "http://www.w3.org/Graphics/SVG/1.1/DTD/svg11.dtd">
<svg version="1.1" id="Layer_1" xmlns="http://www.w3.org/2000/svg" xmlns:xlink="http://www.w3.org/1999/xlink" x="0px" y="0px"
	 width="20px" height="20px" viewBox="0 0 20 20" enable-background="new 0 0 20 20" xml:space="preserve">
<g id="sbb_oev_b_t06">
	<path d="M4.2,9c0,0.2,0.1,0.3,0.3,0.3h3.8c0.2,0,0.3-0.1,0.3-0.3V5.3C8.6,5.1,8.5,5,8.3,5H4.6C4.4,5,4.2,5.1,4.2,5.3V9z M9.3,10.2
		c0,0.3,0.2,0.5,0.5,0.5c0.3,0,0.5-0.2,0.5-0.5V5.4c0-0.3-0.2-0.5-0.5-0.5c-0.3,0-0.5,0.2-0.5,0.5V10.2z M10.9,10.2
		c0,0.3,0.2,0.5,0.5,0.5c0.3,0,0.5-0.2,0.5-0.5V5.4c0-0.3-0.2-0.5-0.5-0.5c-0.3,0-0.5,0.2-0.5,0.5V10.2L10.9,10.2z M12.5,10.3
		c0,0.2,0.1,0.3,0.3,0.3h1.7c0.2,0,0.3-0.1,0.3-0.3v-0.1l-1.3-4.9c0-0.2-0.2-0.4-0.5-0.4l0,0c-0.3,0-0.5,0.2-0.5,0.5V10.3L12.5,10.3
		z M3.3,5H0.5V4.3h12.6c0.5,0,1,0.3,1.1,0.8l1.3,5c0,0.1,0,0.2,0,0.3v3.2c0,0.3-0.2,0.5-0.5,0.5H9.2c-0.3,0-0.5-0.2-0.5-0.5l0,0
		c0,0,0,0,0-0.1c0-1.6-1.3-2.9-2.9-2.9c-1.6,0-2.9,1.3-2.9,2.9c0,0,0,0,0,0.1l0,0c0,0.3-0.2,0.5-0.5,0.5H0.5V9.4h2.8
		c0.2,0,0.3-0.1,0.3-0.3V5.3C3.6,5.1,3.5,5,3.3,5L3.3,5z"/>
	<path d="M5.8,14.7c0.7,0,1.2-0.6,1.2-1.2s-0.5-1.3-1.2-1.3c-0.7,0-1.3,0.6-1.3,1.3C4.5,14.2,5.1,14.7,5.8,14.7 M5.8,11.3
		c1.2,0,2.2,1,2.2,2.2s-1,2.2-2.2,2.2c-1.2,0-2.2-1-2.2-2.2S4.6,11.3,5.8,11.3"/>
</g>
</svg>
