<?xml version="1.0" encoding="UTF-8" standalone="no"?>
<svg width="20px" height="20px" viewBox="0 0 20 20" version="1.1" xmlns="http://www.w3.org/2000/svg" xmlns:xlink="http://www.w3.org/1999/xlink">
	<g id="sbb_oev_b_t29">
		<g transform="translate(2.000000, 2.000000)">
			<path d="M4.87333333,0.781666667 L5.20416667,0.781666667 L5.20416667,0.473333333 L4.87333333,0.473333333 L4.87333333,0.781666667 Z M4.8725,2.3675 L5.20166667,2.3675 L5.20166667,0.930833333 L4.8725,0.930833333 L4.8725,2.3675 Z"></path>
			<path d="M1.02416667,2.3675 L1.375,2.3675 L1.375,0.795 L1.90583333,0.795 L1.90583333,0.49 L0.490833333,0.49 L0.490833333,0.793333333 L1.02416667,0.793333333 L1.02416667,2.3675 Z"></path>
			<path d="M3.0825,1.31916667 C3.0825,1.01833333 2.84583333,0.9025 2.505,0.9025 C2.16,0.9025 1.8625,1.02583333 1.85666667,1.3825 L2.175,1.3825 C2.18,1.23416667 2.32416667,1.155 2.49166667,1.155 C2.6,1.155 2.76916667,1.16583333 2.76916667,1.37416667 C2.76916667,1.45666667 2.75,1.44583333 2.38416667,1.50666667 C2.10083333,1.55333333 1.79833333,1.59416667 1.79833333,1.96416667 C1.79833333,2.28083333 2.05,2.41583333 2.34666667,2.41583333 C2.59333333,2.41583333 2.71916667,2.32416667 2.78583333,2.21833333 C2.78583333,2.34333333 2.78666667,2.36833333 2.79583333,2.36833333 L3.135,2.36833333 C3.1025,2.3275 3.0825,2.25 3.0825,2.0525 L3.0825,1.31916667 Z M2.765,1.85 C2.765,2.0675 2.5925,2.1625 2.40916667,2.1625 C2.29083333,2.1625 2.15083333,2.11583333 2.15083333,1.9625 C2.15083333,1.83416667 2.25,1.795 2.35916667,1.7725 C2.49416667,1.74416667 2.70416667,1.71 2.76583333,1.69 L2.765,1.85 Z"></path>
			<path d="M3.31666667,2.3675 L3.70666667,2.3675 L4.0025,1.8775 L4.295,2.3675 L4.68333333,2.3675 L4.1925,1.61416667 L4.64333333,0.9275 L4.25833333,0.9275 L4.00416667,1.34416667 L3.75583333,0.9275 L3.36666667,0.9275 L3.82083333,1.61 L3.31666667,2.3675 Z"></path>
			<path d="M8.00083333,8.95416667 L8.62666667,8.95416667 L8.62666667,7.7025 L8.00083333,7.7025 L8.00083333,8.95416667 Z"></path>
			<path d="M1.755,11.6758333 L5.49666667,11.6758333 C5.66916667,11.6758333 5.80916667,11.5358333 5.80916667,11.3633333 L5.80916667,10.0808333 C5.80916667,9.90833333 5.66916667,9.7675 5.49666667,9.7675 L3.34,9.7675 C3.25666667,9.7675 3.1775,9.80083333 3.11916667,9.85916667 L1.62333333,11.3558333 C1.58833333,11.3908333 1.56833333,11.4383333 1.56833333,11.4883333 C1.5675,11.5916667 1.65166667,11.6758333 1.755,11.6758333 L1.755,11.6758333 Z M6.40333333,10.0808333 L6.405,11.3633333 C6.405,11.5358333 6.545,11.6758333 6.7175,11.6758333 L10.2708333,11.6758333 C10.3741667,11.6758333 10.4583333,11.5916667 10.4583333,11.4883333 C10.4583333,11.4383333 10.4383333,11.3908333 10.4033333,11.3558333 L8.9075,9.85916667 C8.84916667,9.80083333 8.76916667,9.7675 8.68583333,9.7675 L6.715,9.7675 C6.54333333,9.7675 6.40333333,9.9075 6.40333333,10.0808333 L6.40333333,10.0808333 Z M2.645,9.4475 C2.82083333,9.27166667 3.06,9.1725 3.30833333,9.1725 L8.7175,9.1725 C8.96583333,9.1725 9.205,9.27083333 9.38083333,9.4475 L11.5616667,11.6283333 L15.2216667,11.9316667 C15.3841667,11.945 15.5083333,12.0808333 15.5083333,12.2433333 L15.5083333,14.1933333 C15.5083333,14.3658333 15.3683333,14.5058333 15.1958333,14.5058333 L14.8516667,14.5058333 L14.8516667,14.1458333 C14.8516667,13.11 14.0108333,12.2691667 12.9741667,12.2691667 C11.9383333,12.2691667 11.0975,13.11 11.0975,14.1458333 L11.0975,14.5058333 L4.8725,14.5058333 L4.8725,14.1458333 C4.8725,13.11 4.03166667,12.2691667 2.99583333,12.2691667 C1.96,12.2691667 1.11916667,13.11 1.11916667,14.1458333 L1.11916667,14.5058333 L0.805833333,14.5058333 C0.633333333,14.5058333 0.4925,14.3658333 0.4925,14.1933333 L0.4925,11.9883333 C0.4925,11.7391667 0.591666667,11.5008333 0.7675,11.325 L2.645,9.4475 Z"></path>
			<path d="M3,12.7366667 C3.78583333,12.7366667 4.42333333,13.3741667 4.42333333,14.16 C4.42333333,14.9458333 3.78583333,15.5833333 3,15.5833333 C2.21416667,15.5833333 1.57666667,14.9458333 1.57666667,14.16 C1.57583333,13.375 2.21416667,12.7366667 3,12.7366667 M2.9825,14.9541667 C3.41416667,14.9541667 3.76416667,14.6041667 3.76416667,14.1725 C3.76416667,13.7408333 3.41416667,13.3908333 2.9825,13.3908333 C2.55083333,13.3908333 2.20083333,13.7408333 2.20083333,14.1725 C2.2,14.6041667 2.55083333,14.9541667 2.9825,14.9541667"></path>
			<path d="M12.9741667,12.7483333 C13.76,12.7483333 14.3975,13.3858333 14.3975,14.1716667 C14.3975,14.9575 13.76,15.595 12.9741667,15.595 C12.1883333,15.595 11.5508333,14.9575 11.5508333,14.1716667 C11.5508333,13.3866667 12.1883333,12.7483333 12.9741667,12.7483333 M12.9741667,14.9541667 C13.4058333,14.9541667 13.7558333,14.6041667 13.7558333,14.1725 C13.7558333,13.7408333 13.4058333,13.3908333 12.9741667,13.3908333 C12.5425,13.3908333 12.1916667,13.7408333 12.1916667,14.1725 C12.1916667,14.6041667 12.5425,14.9541667 12.9741667,14.9541667"></path>
		</g>
	</g>
</svg>
