<?xml version="1.0" encoding="utf-8"?>
<!-- Generator: Adobe Illustrator 16.0.4, SVG Export Plug-In . SVG Version: 6.00 Build 0)  -->
<!DOCTYPE svg PUBLIC "-//W3C//DTD SVG 1.1//EN" "http://www.w3.org/Graphics/SVG/1.1/DTD/svg11.dtd">
<svg version="1.1" id="Layer_1" xmlns="http://www.w3.org/2000/svg" xmlns:xlink="http://www.w3.org/1999/xlink" x="0px" y="0px"
	 width="20px" height="20px" viewBox="0 0 20 20" enable-background="new 0 0 20 20" xml:space="preserve">
<g id="sbb_oev_b_t21">
	<path d="M17,6.9v3.8c0,0.2-0.1,0.3-0.3,0.3h-2.3c-0.2,0-0.3-0.1-0.3-0.3V6.9c0-0.2,0.1-0.3,0.3-0.3h2.3C16.8,6.6,17,6.8,17,6.9
		 M13.3,6v3.8c0,0.2-0.1,0.3-0.3,0.3h-2.4c-0.2,0-0.3-0.1-0.3-0.3V6c0-0.2,0.1-0.3,0.3-0.3H13C13.1,5.7,13.3,5.8,13.3,6 M9.8,5.1
		v3.8c0,0.2-0.1,0.3-0.3,0.3H7C7,9.2,6.8,9,6.8,8.9V5.1c0-0.2,0.1-0.3,0.3-0.3h2.3C9.5,4.8,9.8,4.9,9.8,5.1 M6.2,4.2V8
		c0,0.2-0.1,0.3-0.3,0.3H3.5C3.2,8.3,3.2,8.2,3.2,8V4.2c0-0.2,0.1-0.3,0.3-0.3h2.3C6,3.9,6.2,4,6.2,4.2 M17.2,14.3
		c0.2,0,0.3-0.1,0.3-0.3V6.7c0-0.3-0.2-0.6-0.5-0.7L3.3,2.5c-0.1,0-0.1,0-0.2,0c-0.4,0-0.7,0.3-0.7,0.7v7.2c0,0.1,0.1,0.3,0.2,0.3
		L17.2,14.3C17.1,14.3,17.2,14.3,17.2,14.3"/>
	<path d="M2.5,13.1l15,3.8v0.6l-15-3.8V13.1z"/>
	<path d="M14,14.5c0,0.5-0.4,0.9-0.9,0.9s-0.9-0.4-0.9-0.9s0.4-0.9,0.9-0.9S14,14,14,14.5"/>
	<path d="M16.3,15.1c0,0.5-0.4,0.9-0.9,0.9s-0.9-0.4-0.9-0.9s0.4-0.9,0.9-0.9S16.3,14.6,16.3,15.1"/>
	<path d="M7.8,13c0,0.5-0.4,0.9-0.9,0.9S6,13.5,6,13s0.4-1,0.9-1S7.8,12.5,7.8,13"/>
	<path d="M5.5,12.4c0,0.5-0.4,0.9-0.9,0.9s-0.9-0.4-0.9-0.9s0.4-0.9,0.9-0.9S5.5,11.9,5.5,12.4"/>
</g>
</svg>
