<?xml version="1.0" encoding="utf-8"?>
<!-- Generator: Adobe Illustrator 16.0.4, SVG Export Plug-In . SVG Version: 6.00 Build 0)  -->
<!DOCTYPE svg PUBLIC "-//W3C//DTD SVG 1.1//EN" "http://www.w3.org/Graphics/SVG/1.1/DTD/svg11.dtd">
<svg version="1.1" id="Layer_1" xmlns="http://www.w3.org/2000/svg" xmlns:xlink="http://www.w3.org/1999/xlink" x="0px" y="0px"
	 width="20px" height="20px" viewBox="0 0 20 20" enable-background="new 0 0 20 20" xml:space="preserve">
<g id="sbb_oev_b_t12">
	<g transform="translate(2.000000, 6.000000)">
		<path d="M2,2.4V1.2C2,1,2.1,0.9,2.3,0.9H4c0.2,0,0.3,0.1,0.3,0.3l0.2,1.3c0,0,0,0,0,0.1c0,0.2-0.1,0.3-0.3,0.3H2.3
			C2.1,2.8,2,2.6,2,2.4L2,2.4z M2,6.2V4.9c0-0.2,0.1-0.3,0.3-0.3h1.9c0.2,0,0.3,0.1,0.3,0.3v1.3c0,0.2-0.1,0.3-0.3,0.3H2.3
			C2.1,6.5,2,6.4,2,6.2L2,6.2z M5.1,6.2V4.9c0-0.2,0.1-0.3,0.3-0.3H7c0.2,0,0.3,0.1,0.3,0.3l0.2,1.3c0,0,0,0,0,0.1
			c0,0.2-0.1,0.3-0.3,0.3H5.4C5.2,6.5,5.1,6.4,5.1,6.2L5.1,6.2z M1.1,0.9c0.2,0,0.3,0.1,0.3,0.3v1.3c0,0.2-0.1,0.3-0.3,0.3H0.5v1.9
			h0.6c0.2,0,0.3,0.1,0.3,0.3v1.3c0,0.2-0.1,0.3-0.3,0.3H0.5v3.8c0.3,0,0.6,0,0.9-0.1l2.1-0.4c0.2,0,0.5,0,0.7-0.1
			c0.2,0,0.5,0,0.7,0.1l2.1,0.4c0.3,0.1,0.6,0.1,0.9,0.1c0.3,0,0.6,0,0.9-0.1L11,9.8c0.2,0,0.5,0,0.7-0.1c0.2,0,0.5,0,0.7,0.1
			l1.3,0.3l1.9-3.6H8.2L7.9,4.6H9V2.8H5.1L4.8,0.9h0.4c0.2,0,0.3-0.1,0.3-0.3S5.4,0.3,5.2,0.3H0.5v0.6H1.1z"/>
		<path d="M3.6,10.4c0.2,0,0.4,0,0.6,0c0.2,0,0.4,0,0.6,0L7,10.8c0.3,0.1,0.7,0.1,1,0.1c0.4,0,0.7,0,1-0.1l2.1-0.4
			c0.2,0,0.4,0,0.6,0c0.2,0,0.4,0,0.6,0l2.1,0.4c0.3,0.1,0.7,0.1,1,0.1v0.6c-0.4,0-0.8,0-1.2-0.1L12.3,11c-0.2,0-0.4,0-0.5,0
			c-0.2,0-0.4,0-0.5,0l-2.1,0.4c-0.4,0.1-0.8,0.1-1.2,0.1c-0.4,0-0.8,0-1.2-0.1L4.8,11c-0.2,0-0.4,0-0.5,0c-0.2,0-0.4,0-0.5,0
			l-2.1,0.4c-0.4,0.1-0.8,0.1-1.2,0.1v-0.6c0.4,0,0.7,0,1-0.1L3.6,10.4z"/>
	</g>
</g>
</svg>
