<?xml version="1.0" encoding="utf-8"?>
<!-- Generator: Adobe Illustrator 16.0.4, SVG Export Plug-In . SVG Version: 6.00 Build 0)  -->
<!DOCTYPE svg PUBLIC "-//W3C//DTD SVG 1.1//EN" "http://www.w3.org/Graphics/SVG/1.1/DTD/svg11.dtd">
<svg version="1.1" id="Layer_1" xmlns="http://www.w3.org/2000/svg" xmlns:xlink="http://www.w3.org/1999/xlink" x="0px" y="0px"
	 width="20px" height="20px" viewBox="0 0 20 20" enable-background="new 0 0 20 20" xml:space="preserve">
<g>
	<path d="M8.683,3.481C8.629,3.428,8.598,3.353,8.598,3.277c0-0.16,0.129-0.289,0.289-0.289
		c0.076,0,0.15,0.03,0.204,0.085l3.237,3.237h2.574c0.461,0,0.869,0.301,1.004,0.742l1.58,5.176
		c0.014,0.047,0.021,0.096,0.021,0.145v2.258c0,0.172-0.141,0.312-0.312,0.312H2.493v-3.691h3.034
		c0.172,0,0.313-0.141,0.313-0.312V7.186c0-0.173-0.14-0.313-0.313-0.313H2.493V6.31h9.019L8.683,3.481z M14.381,12.191
		c0,0.172,0.141,0.311,0.312,0.311h1.85c0.174,0,0.314-0.139,0.314-0.311c0-0.031-0.006-0.062-0.016-0.094L15.33,7.143
		C15.27,6.944,15.088,6.81,14.881,6.81H14.85c-0.26,0-0.469,0.21-0.469,0.469V12.191z M12.863,12.096
		c0,0.26,0.209,0.471,0.469,0.471s0.469-0.211,0.469-0.471V7.28c0-0.259-0.209-0.469-0.469-0.469s-0.469,0.21-0.469,0.469V12.096z
		 M10.784,7.186c0-0.173-0.14-0.313-0.313-0.313H6.716c-0.173,0-0.313,0.14-0.313,0.313v3.754c0,0.171,0.14,0.312,0.313,0.312
		h3.754c0.172,0,0.313-0.141,0.313-0.312L10.784,7.186L10.784,7.186z M11.346,7.28v4.816c0,0.26,0.211,0.471,0.469,0.471
		c0.26,0,0.469-0.211,0.469-0.471V7.28c0-0.259-0.209-0.469-0.469-0.469C11.557,6.811,11.346,7.021,11.346,7.28z"/>
</g>
</svg>
