<?xml version="1.0" encoding="UTF-8" standalone="no"?>
<svg width="20px" height="20px" viewBox="0 0 20 20" version="1.1" xmlns="http://www.w3.org/2000/svg" xmlns:xlink="http://www.w3.org/1999/xlink">
<g id="sbb_oev_b_t23" fill="#FFFFFF">
	<g transform="translate(2.000000, 2.000000)">
		<path d="M13.6,2.6767 L15.508,2.9947 L15.508,3.5647 L13.6,3.2477 L13.6,2.6767 Z"></path>
		<path d="M12.4117,2.4783 L12.4117,3.0493 L0.4927,1.0633 L0.4927,0.4913 L12.4117,2.4783 Z"></path>
		<path d="M11.1292,11.4417 L11.1292,8.3137 C11.1292,8.1407 11.2682,7.9997 11.4412,7.9997 L14.5702,7.9997 C14.7422,7.9997 14.8822,8.1397 14.8822,8.3137 L14.8822,11.4417 C14.8822,11.6147 14.7422,11.7537 14.5702,11.7537 L11.4412,11.7537 C11.2682,11.7537 11.1292,11.6147 11.1292,11.4417 L11.1292,11.4417 Z M11.1292,7.3737 C10.7832,7.3737 10.5032,7.6547 10.5032,7.9997 L10.5032,11.6297 C10.5032,11.7117 10.5112,11.7937 10.5282,11.8747 L11.1532,15.0047 C11.2122,15.2977 11.4692,15.5077 11.7672,15.5077 L14.2452,15.5077 C14.5432,15.5077 14.8012,15.2977 14.8582,15.0047 L15.4842,11.8747 C15.5002,11.7937 15.5082,11.7127 15.5082,11.6297 L15.5082,7.9997 C15.5082,7.6547 15.2282,7.3737 14.8822,7.3737 L13.2872,7.3737 L13.2872,1.9307 L12.7232,1.9307 L12.7232,7.3737 L11.1292,7.3737 L11.1292,7.3737 Z"></path>
	</g>
</g>
</svg>
