<?xml version="1.0" encoding="utf-8"?>
<!-- Generator: Adobe Illustrator 16.0.4, SVG Export Plug-In . SVG Version: 6.00 Build 0)  -->
<!DOCTYPE svg PUBLIC "-//W3C//DTD SVG 1.1//EN" "http://www.w3.org/Graphics/SVG/1.1/DTD/svg11.dtd">
<svg version="1.1" id="Layer_1" xmlns="http://www.w3.org/2000/svg" xmlns:xlink="http://www.w3.org/1999/xlink" x="0px" y="0px"
	 width="20px" height="20px" viewBox="0 0 20 20" enable-background="new 0 0 20 20" xml:space="preserve">
<g>
	<g id="sbb_oev_b_t25">
		<g transform="translate(2.000000, 2.000000)">
			<path fill="#FFFFFF" d="M4.8,2.3l10.7-1.8v0.6L4.8,2.8V2.3z"/>
			<path fill="#FFFFFF" d="M3.3,2.5v0.6L0.5,3.6V3L3.3,2.5z"/>
			<path fill="#FFFFFF" d="M1.9,12.2V9.1c0-0.5,0.4-0.9,0.9-0.9c0.3,0,0.6,0.1,0.8,0.4l1.6,2.2C5.3,10.9,5.3,11,5.3,11
				c0,0.2-0.2,0.4-0.4,0.4c-0.1,0-0.3-0.1-0.3-0.2L4,10.3v1.3h1.7c0.3,0,0.6,0.3,0.6,0.6v2.6c0,0.3-0.3,0.6-0.6,0.6
				c-0.3,0-0.6-0.3-0.6-0.6v-2.1H2.6C2.2,12.8,1.9,12.5,1.9,12.2"/>
			<path fill="#FFFFFF" d="M3.7,1.7h0.8V5L1.3,5.6v7.9h3.2v0.8h-4V4.9l3.2-0.5V1.7z"/>
			<path fill="#FFFFFF" d="M3,7.8c-0.5,0-0.9-0.4-0.9-0.9S2.5,6,3,6s0.9,0.4,0.9,0.9S3.5,7.8,3,7.8"/>
		</g>
	</g>
</g>
</svg>
