<?xml version="1.0" encoding="UTF-8" standalone="no"?>
<svg width="20px" height="20px" viewBox="0 0 20 20" version="1.1" xmlns="http://www.w3.org/2000/svg" xmlns:xlink="http://www.w3.org/1999/xlink">
<g id="sbb_oev_b_t22" fill="#FFFFFF">
	<g transform="translate(2.000000, 2.000000)">
		<path d="M5.3108,2.5258 L10.7038,1.5818 C10.9798,1.5338 11.1828,1.2928 11.1828,1.0118 C11.1828,0.6928 10.9238,0.4328 10.6028,0.4328 C10.5698,0.4328 10.5368,0.4358 10.5028,0.4408 L5.1108,1.3858 C4.8338,1.4338 4.6318,1.6748 4.6318,1.9558 C4.6318,2.2748 4.8908,2.5348 5.2098,2.5348 C5.2438,2.5348 5.2778,2.5318 5.3108,2.5258"></path>
		<path d="M0.4917,4.2592 L15.5077,1.6292 L15.5077,1.0572 L0.4917,3.6872 L0.4917,4.2592 Z"></path>
		<path d="M14.8817,11.4433 C14.8817,11.6163 14.7417,11.7553 14.5697,11.7553 L11.0237,11.7553 C10.8507,11.7553 10.7107,11.6163 10.7107,11.4433 L10.7107,8.3153 C10.7107,8.1423 10.8507,8.0023 11.0237,8.0023 L14.5697,8.0023 C14.7417,8.0023 14.8817,8.1423 14.8817,8.3153 L14.8817,11.4433 Z M10.0847,11.4433 C10.0847,11.6163 9.9447,11.7553 9.7717,11.7553 L6.2267,11.7553 C6.0547,11.7553 5.9137,11.6163 5.9137,11.4433 L5.9137,8.3153 C5.9137,8.1423 6.0537,8.0023 6.2267,8.0023 L9.7727,8.0023 C9.9447,8.0023 10.0857,8.1423 10.0857,8.3153 L10.0857,11.4433 L10.0847,11.4433 Z M5.2887,11.4433 C5.2887,11.6163 5.1487,11.7553 4.9757,11.7553 L1.4297,11.7553 C1.2577,11.7553 1.1177,11.6163 1.1177,11.4433 L1.1177,8.3153 C1.1177,8.1423 1.2577,8.0023 1.4297,8.0023 L4.9757,8.0023 C5.1487,8.0023 5.2887,8.1423 5.2887,8.3153 L5.2887,11.4433 Z M14.8817,7.3763 L11.7847,7.3763 L9.4677,3.0053 L8.5927,3.1583 L10.8287,7.3763 L5.2017,7.3763 L7.2777,3.3883 L6.1907,3.5783 L4.2147,7.3763 L1.1177,7.3763 C0.7727,7.3763 0.4917,7.6563 0.4917,8.0023 L0.4917,14.8853 C0.4917,15.2313 0.7727,15.5113 1.1177,15.5113 L14.8827,15.5113 C15.2277,15.5113 15.5087,15.2313 15.5087,14.8853 L15.5087,8.0023 C15.5077,7.6563 15.2277,7.3763 14.8817,7.3763 L14.8817,7.3763 Z"></path>
	</g>
</g>
</svg>
