<?xml version="1.0" encoding="utf-8"?>
<!-- Generator: Adobe Illustrator 16.0.4, SVG Export Plug-In . SVG Version: 6.00 Build 0)  -->
<!DOCTYPE svg PUBLIC "-//W3C//DTD SVG 1.1//EN" "http://www.w3.org/Graphics/SVG/1.1/DTD/svg11.dtd">
<svg version="1.1" id="Layer_1" xmlns="http://www.w3.org/2000/svg" xmlns:xlink="http://www.w3.org/1999/xlink" x="0px" y="0px"
	 width="20px" height="20px" viewBox="0 0 20 20" enable-background="new 0 0 20 20" xml:space="preserve">
<g id="sbb_oev_b_t02">
	<g transform="translate(2.000000, 2.000000)">
		<path d="M15.3,13.7c0.2,0,0.3-0.1,0.3-0.3c0,0,0,0,0,0l-0.3-1.9l-3.2,0v2.2L15.3,13.7L15.3,13.7z"/>
		<path d="M8.6,4.2L10.3,3L8,1.7L5.7,3l1.8,1.2H8.6z M11.9,7.5c0,0.2,0.1,0.3,0.3,0.3h1.6c0.2,0,0.3-0.1,0.3-0.3
			c0,0,0,0,0,0l-0.3-2.4c0-0.2-0.2-0.3-0.3-0.3h-1.3c-0.2,0-0.3,0.1-0.3,0.3V7.5z M7.7,4.8H0.5V4.2h5.9L4.5,3L8,1l3.5,2h0L9.6,4.2
			h3.8c0.5,0,0.9,0.3,0.9,0.8l0.8,5.9H0.5V7.8h7.2C7.9,7.8,8,7.7,8,7.5c0-0.2-0.1-0.3-0.3-0.3H0.5V6.6h7.2C7.9,6.6,8,6.5,8,6.3
			S7.9,6,7.7,6H0.5V5.4h7.2C7.9,5.4,8,5.3,8,5.1C8,5,7.9,4.8,7.7,4.8L7.7,4.8z"/>
		<path d="M4.5,13c0-0.9,0.7-1.6,1.6-1.6s1.6,0.7,1.6,1.6S7,14.6,6.1,14.6C5.2,14.6,4.5,13.9,4.5,13"/>
		<path d="M8.2,13c0-0.9,0.7-1.6,1.6-1.6s1.6,0.7,1.6,1.6s-0.7,1.6-1.6,1.6S8.2,13.9,8.2,13"/>
		<path d="M0.5,0.8h15V0.5h-15V0.8z"/>
		<path d="M0.5,15.5h15v-0.6h-15V15.5z"/>
		<path d="M0.5,11.6L0.5,11.6l3.4-0.1v2.2H0.5V11.6z"/>
	</g>
</g>
</svg>
