<svg xmlns="http://www.w3.org/2000/svg" width="24" height="24" viewBox="0 0 24 24">
  <path fill="none" stroke="#000" d="M19.5,12.5002 C19.5,16.3762 16.377,19.5002 12.5,19.5002 C8.623,19.5002 5.5,16.3762 5.5,12.5002 C5.5,8.6232 8.623,5.5002 12.5,5.5002 C16.377,5.5002 19.5,8.6232 19.5,12.5002 Z M16.5,12.5002 C16.5,14.7082 14.709,16.5002 12.5,16.5002 C10.291,16.5002 8.5,14.7082 8.5,12.5002 C8.5,10.2912 10.291,8.5002 12.5,8.5002 C14.709,8.5002 16.5,10.2912 16.5,12.5002 Z M5.5039,12.5002 L2.9999,12.5002 M19.5039,12.4958 L21.9989,12.4958 M12.5039,19.4997 L12.5039,21.9997 M12.5039,5.5002 L12.5039,3.0002"/>
</svg>
