<svg xmlns="http://www.w3.org/2000/svg" width="24" height="24" viewBox="0 0 24 24">
  <path fill="none" stroke="#000" d="M5.5039,12.5002 L2.9999,12.5002 M19.5039,12.4958 L21.9989,12.4958 M12.5039,19.4997 L12.5039,21.9997 M12.5039,5.5002 L12.5039,3.0002 M9.6714,9.6716 C8.9474,10.3956 8.5004,11.3956 8.5004,12.5006 C8.5004,14.7086 10.2914,16.4996 12.5004,16.4996 C13.6044,16.4996 14.6044,16.0526 15.3284,15.3286 M15.3281,15.3288 C14.6041,16.0528 13.6041,16.4998 12.5001,16.4998 C10.2911,16.4998 8.5001,14.7088 8.5001,12.4998 C8.5001,11.3948 8.9481,10.3948 9.6711,9.6718 M7.5464,7.5461 C6.2804,8.8121 5.5004,10.5621 5.5004,12.5001 C5.5004,16.3771 8.6234,19.5001 12.5004,19.5001 C14.4384,19.5001 16.1884,18.7191 17.4544,17.4541 M16.1406,14.1404 C16.3676,13.6384 16.4996,13.0864 16.4996,12.5004 C16.4996,10.2904 14.7086,8.5004 12.4996,8.5004 C11.9136,8.5004 11.3616,8.6334 10.8596,8.8594 M18.3496,16.3493 C19.0756,15.2453 19.4996,13.9243 19.4996,12.5003 C19.4996,8.6233 16.3766,5.5003 12.4996,5.5003 C11.0756,5.5003 9.7546,5.9243 8.6506,6.6503 M10.8594,8.8596 C11.3614,8.6326 11.9144,8.5006 12.5004,8.5006 C14.7094,8.5006 16.5004,10.2906 16.5004,12.5006 C16.5004,13.0866 16.3674,13.6386 16.1404,14.1406 M5.0752,5.0754 L19.9252,19.9244"/>
</svg>
