<svg xmlns="http://www.w3.org/2000/svg" width="24" height="24" viewBox="0 0 24 24">
  <path fill="none" stroke="#000" d="M15.5078,8.0068 C15.5078,9.9398 13.9408,11.5068 12.0078,11.5068 C10.0748,11.5068 8.5078,9.9398 8.5078,8.0068 C8.5078,6.0738 10.0748,4.5068 12.0078,4.5068 C13.9408,4.5068 15.5078,6.0738 15.5078,8.0068 Z M17.5,8.0146 C17.5,4.9766 15.037,2.5146 12,2.5146 C8.962,2.5146 6.5,4.9766 6.5,8.0146 C6.537,8.9576 6.816,9.7516 7.266,10.5006 L12.016,17.9986 L16.766,10.5006 C17.209,9.7236 17.492,8.9156 17.5,8.0146 Z M8.8018,15.6748 C5.1188,16.0918 2.4998,17.2068 2.4998,18.4998 C2.4998,20.1438 6.7318,21.4998 11.9998,21.4998 C17.2688,21.4998 21.4998,20.1438 21.4998,18.4998 C21.4998,17.2168 18.9198,16.1088 15.2818,15.6848"/>
</svg>
