<svg xmlns="http://www.w3.org/2000/svg" width="24" height="24" viewBox="0 0 24 24">
  <path fill="none" stroke="#000" d="M17.5,8.0149 C17.5,4.9769 15.037,2.5149 12,2.5149 C8.962,2.5149 6.5,4.9769 6.5,8.0149 C6.537,8.9579 6.816,9.7509 7.266,10.4999 L12.016,17.9989 L16.766,10.4999 C17.209,9.7239 17.492,8.9149 17.5,8.0149 Z M8.8018,15.6745 C5.1188,16.0915 2.4998,17.2065 2.4998,18.4995 C2.4998,20.1445 6.7318,21.4995 11.9998,21.4995 C17.2688,21.4995 21.4998,20.1445 21.4998,18.4995 C21.4998,17.2165 18.9198,16.1085 15.2818,15.6845 M6.7866,9.5002 L8.9996,9.5002 L10.4996,5.5002 L11.9996,11.5002 L13.4996,7.5002 L14.4996,9.4902 L17.2336,9.4902"/>
</svg>
