<svg xmlns="http://www.w3.org/2000/svg" width="24" height="24" viewBox="0 0 24 24">
  <path fill="none" stroke="#000" d="M11.5,6.5 L11.5,9.5 L11.5,6.5 Z M11.5,2 L11.5,4.5 L11.5,2 Z M7.9648,7.9644 L10.0858,10.0864 L7.9648,7.9644 Z M4.7822,4.7827 L6.5502,6.5507 L4.7822,4.7827 Z M6.5,11.5 L9.5,11.5 L6.5,11.5 Z M2,11.5 L4.5,11.5 L2,11.5 Z M7.9648,15.0352 L10.0858,12.9142 L7.9648,15.0352 Z M4.7822,18.2178 L6.5502,16.4498 L4.7822,18.2178 Z M11.5,16.5 L11.5,13.5 L11.5,16.5 Z M11.5,21 L11.5,18.5 L11.5,21 Z M15.0352,15.0352 L12.9142,12.9142 L15.0352,15.0352 Z M18.2178,18.2178 L16.4498,16.4498 L18.2178,18.2178 Z M16.5,11.5 L13.5,11.5 L16.5,11.5 Z M21,11.5 L18.5,11.5 L21,11.5 Z M15.0352,7.9644 L12.9142,10.0864 L15.0352,7.9644 Z M18.2178,4.7827 L16.4498,6.5507 L18.2178,4.7827 Z M18.5,11.5 C18.5,7.634 15.366,4.5 11.5,4.5 C7.634,4.5 4.5,7.634 4.5,11.5 C4.5,15.366 7.634,18.5 11.5,18.5 C15.366,18.5 18.5,15.366 18.5,11.5 Z M16.5,11.5 C16.5,8.739 14.262,6.5 11.5,6.5 C8.738,6.5 6.5,8.739 6.5,11.5 C6.5,14.262 8.738,16.5 11.5,16.5 C14.262,16.5 16.5,14.262 16.5,11.5 Z M13.5,11.5 C13.5,10.396 12.604,9.5 11.5,9.5 C10.396,9.5 9.5,10.396 9.5,11.5 C9.5,12.604 10.396,13.5 11.5,13.5 C12.604,13.5 13.5,12.604 13.5,11.5 Z"/>
</svg>
