<svg xmlns="http://www.w3.org/2000/svg" width="36" height="36" viewBox="0 0 36 36">
  <path fill="none" stroke="#000" d="M8.25585,18.7503 L4.49985,18.7503 M29.25585,18.7437 L32.99835,18.7437 M18.75585,29.24955 L18.75585,32.99955 M18.75585,8.2503 L18.75585,4.5003 M14.5071,14.5074 C13.4211,15.5934 12.7506,17.0934 12.7506,18.7509 C12.7506,22.0629 15.4371,24.7494 18.7506,24.7494 C20.4066,24.7494 21.9066,24.0789 22.9926,22.9929 M22.99215,22.9932 C21.90615,24.0792 20.40615,24.7497 18.75015,24.7497 C15.43665,24.7497 12.75015,22.0632 12.75015,18.7497 C12.75015,17.0922 13.42215,15.5922 14.50665,14.5077 M11.3196,11.31915 C9.4206,13.21815 8.2506,15.84315 8.2506,18.75015 C8.2506,24.56565 12.9351,29.25015 18.7506,29.25015 C21.6576,29.25015 24.2826,28.07865 26.1816,26.18115 M24.2109,21.2106 C24.5514,20.4576 24.7494,19.6296 24.7494,18.7506 C24.7494,15.4356 22.0629,12.7506 18.7494,12.7506 C17.8704,12.7506 17.0424,12.9501 16.2894,13.2891 M27.5244,24.52395 C28.6134,22.86795 29.2494,20.88645 29.2494,18.75045 C29.2494,12.93495 24.5649,8.25045 18.7494,8.25045 C16.6134,8.25045 14.6319,8.88645 12.9759,9.97545 M16.2891,13.2894 C17.0421,12.9489 17.8716,12.7509 18.7506,12.7509 C22.0641,12.7509 24.7506,15.4359 24.7506,18.7509 C24.7506,19.6299 24.5511,20.4579 24.2106,21.2109 M7.6128,7.6131 L29.8878,29.8866"/>
</svg>
