<svg xmlns="http://www.w3.org/2000/svg" width="36" height="36" viewBox="0 0 36 36">
  <g fill="none" fill-rule="evenodd">
    <path fill="#000" d="M16.248,16.1055 L16.248,19.8045 L18.7455,19.8045 C19.608,19.8045 20.1885,19.7205 20.487,19.5525 C20.9955,19.266 21.2505,18.744 21.2505,17.9865 C21.2505,17.1345 20.907,16.5645 20.2215,16.278 C19.9545,16.1625 19.3935,16.1055 18.5385,16.1055 L16.248,16.1055 Z M16.248,11.7165 L16.248,14.985 L18.4995,14.985 C19.1175,14.985 19.572,14.94 19.866,14.8485 C20.1585,14.7525 20.394,14.568 20.568,14.295 C20.742,14.022 20.8305,13.704 20.8305,13.3395 C20.8305,12.9765 20.754,12.6645 20.6025,12.4065 C20.4525,12.147 20.241,11.9625 19.968,11.853 C19.74,11.7615 19.2915,11.7165 18.6225,11.7165 L16.248,11.7165 Z M14.9985,10.5105 L18.804,10.5105 C19.7265,10.5105 20.4015,10.6275 20.823,10.8615 C21.2115,11.0775 21.519,11.3895 21.7455,11.799 C21.972,12.2085 22.086,12.6555 22.086,13.1385 C22.086,13.6515 21.9615,14.106 21.714,14.5035 C21.465,14.901 21.123,15.1935 20.688,15.3795 C21.0405,15.4845 21.315,15.612 21.51,15.7605 C22.173,16.2585 22.506,16.9845 22.506,17.937 C22.506,19.1865 22.041,20.0835 21.114,20.631 C20.679,20.8845 20.1045,21.012 19.3935,21.012 L14.9985,21.012 L14.9985,10.5105 Z"/>
    <path stroke="#000" d="M26.25,15.012 C26.25,10.455 22.5555,6.762 18,6.762 C13.443,6.762 9.75,10.455 9.75,15.012 C9.8055,16.4265 10.224,17.616 10.899,18.7395 L18.024,29.988 L25.149,18.7395 C25.8135,17.574 26.238,16.362 26.25,15.012 Z"/>
  </g>
</svg>
