<svg xmlns="http://www.w3.org/2000/svg" width="36" height="36" viewBox="0 0 36 36">
  <path fill="none" stroke="#000" d="M12.75,20.99955 C12.75,20.58705 12.414,20.24955 12,20.24955 C11.586,20.24955 11.25,20.58705 11.25,20.99955 C11.25,21.41355 11.586,21.74955 12,21.74955 C12.414,21.74955 12.75,21.41355 12.75,20.99955 Z M24.75,20.99955 C24.75,20.58705 24.414,20.24955 24,20.24955 C23.586,20.24955 23.25,20.58705 23.25,20.99955 C23.25,21.41355 23.586,21.74955 24,21.74955 C24.414,21.74955 24.75,21.41355 24.75,20.99955 Z M8.25,24.74955 L8.25,27.74955 L12.75,27.74955 L12.75,24.74955 M23.2515,24.74955 L23.2515,27.74955 L27.75,27.74955 L27.75,24.74955 M8.25,15.75105 L6,15.75105 M30,15.75105 L27.75,15.75105 M27.75,17.25105 L8.25,17.25105 M24,9.7503 C26.559,9.7503 27.75,10.9413 27.75,13.5003 L27.75,24.7503 L8.25,24.7503 L8.25,13.5003 C8.25,10.9413 9.441,9.7503 12,9.7503 L24,9.7503 M24.75,17.2503 C24.75,15.5928 23.406,14.2503 21.75,14.2503 C20.094,14.2503 18.75,15.5928 18.75,17.2503"/>
</svg>
