<svg xmlns="http://www.w3.org/2000/svg" width="36" height="36" viewBox="0 0 36 36">
  <path fill="none" stroke="#000" d="M5.25,30.75 L32.25,30.75 L32.25,17.25 L5.25,17.25 L5.25,30.75 Z M9.75,17.25 L9.75,30.75 M14.25,17.25 L14.25,30.75 M18.75,17.25 L18.75,30.75 M23.25,17.25 L23.25,30.75 M27.75,17.25 L27.75,30.75 M7.5,17.25 L18.75,11.25 L30,17.25 M20.25885,4.5 L20.24985,7.5945 C21.54285,7.9275 22.49985,9.102 22.49985,10.5 C22.49985,12.156 21.15735,13.5 19.49985,13.5 C17.84385,13.5 16.49985,12.156 16.49985,10.5"/>
</svg>
