<svg xmlns="http://www.w3.org/2000/svg" width="36" height="36" viewBox="0 0 36 36">
  <g fill="none" fill-rule="evenodd">
    <path stroke="#000" d="M4.50225,27.75105 L31.50375,27.75105 L4.50225,27.75105 Z M4.50225,8.2503 L31.50375,8.2503 L4.50225,8.2503 Z"/>
    <path fill="#000" d="M4.4841,11.99595 L9.3276,11.99595 C10.1436,11.99595 10.7856,12.04695 11.2536,12.14895 C11.7216,12.24945 12.1431,12.42945 12.5211,12.68595 C13.5666,13.38645 14.0901,14.44245 14.0901,15.85545 C14.0901,17.10795 13.6581,18.09345 12.7926,18.81045 C12.4251,19.11795 12.0081,19.33845 11.5371,19.47195 C11.0661,19.60545 10.4856,19.67295 9.7956,19.67295 L7.1031,19.67295 L7.1031,23.99745 L4.4841,23.99745 L4.4841,11.99595 Z M7.1031,14.21295 L7.1031,17.61195 L9.4431,17.61195 C10.1376,17.61195 10.6386,17.48895 10.9461,17.24295 C11.3226,16.93545 11.5116,16.48545 11.5116,15.88845 C11.5116,15.28545 11.2926,14.83695 10.8546,14.54145 C10.5381,14.32245 10.0206,14.21295 9.3036,14.21295 L7.1031,14.21295 Z M14.1189,18.15705 L16.4319,18.15705 L16.4319,15.84405 L17.7579,15.84405 L17.7579,18.15705 L20.0799,18.15705 L20.0799,19.48155 L17.7579,19.48155 L17.7579,21.79455 L16.4319,21.79455 L16.4319,19.48155 L14.1189,19.48155 L14.1189,18.15705 Z M21.0309,11.9967 L26.8434,11.9967 C27.9924,11.9967 28.8729,12.1782 29.4864,12.5382 C29.9949,12.8337 30.3834,13.2282 30.6519,13.7202 C30.9204,14.2137 31.0554,14.7687 31.0554,15.3867 C31.0554,16.0887 30.8859,16.6977 30.5499,17.2182 C30.2124,17.7387 29.7429,18.1107 29.1414,18.3342 C29.6724,18.4647 30.0879,18.7617 30.3894,19.2207 C30.5814,19.5117 30.7089,19.8147 30.7749,20.1327 C30.8409,20.4492 30.9264,21.1737 31.0299,22.3077 C31.1064,23.1387 31.2249,23.6562 31.3824,23.8587 L31.4964,23.9982 L28.7634,23.9982 C28.6719,23.8287 28.6044,23.6127 28.5624,23.3487 C28.5219,23.0877 28.4679,22.4787 28.4034,21.5262 C28.3374,20.6787 28.1304,20.0907 27.7824,19.7667 C27.4344,19.4412 26.8434,19.2777 26.0049,19.2777 L23.6499,19.2777 L23.6499,23.9982 L21.0309,23.9982 L21.0309,11.9967 Z M23.6499,14.0577 L23.6499,17.3577 L26.1534,17.3577 C26.9574,17.3577 27.5244,17.2422 27.8529,17.0127 C28.2684,16.7232 28.4769,16.2852 28.4769,15.6987 C28.4769,15.1302 28.2999,14.7132 27.9429,14.4522 C27.5874,14.1882 27.0264,14.0577 26.2599,14.0577 L23.6499,14.0577 Z"/>
  </g>
</svg>
