<svg xmlns="http://www.w3.org/2000/svg" width="36" height="36" viewBox="0 0 36 36">
  <path fill="none" stroke="#000" d="M21,11.2503 L15,11.2503 M15.75,8.2503 L15.75,6.7503 L20.25,6.7503 L20.25,8.2503 M24,27.74955 L27,32.24955 M9,32.24955 L12,27.74955 M27.75,20.24955 L8.25,20.24955 M27.75,27.74955 L8.25,27.74955 L8.25,11.99955 C8.25,9.92955 9.9285,8.24955 12,8.24955 L24,8.24955 C26.0715,8.24955 27.75,9.92955 27.75,11.99955 L27.75,27.74955 Z M23.25,23.99955 C23.25,23.58705 22.914,23.24955 22.5,23.24955 C22.086,23.24955 21.75,23.58705 21.75,23.99955 C21.75,24.41355 22.086,24.74955 22.5,24.74955 C22.914,24.74955 23.25,24.41355 23.25,23.99955 Z M14.25,23.99955 C14.25,23.58705 13.914,23.24955 13.5,23.24955 C13.086,23.24955 12.75,23.58705 12.75,23.99955 C12.75,24.41355 13.086,24.74955 13.5,24.74955 C13.914,24.74955 14.25,24.41355 14.25,23.99955 Z"/>
</svg>
