<svg xmlns="http://www.w3.org/2000/svg" width="48" height="48" viewBox="0 0 48 48">
  <path fill="none" stroke="#000" d="M20,29.4997 C20,28.6717 19.328,27.9997 18.5,27.9997 C17.672,27.9997 17,28.6717 17,29.4997 C17,30.3287 17.672,30.9997 18.5,30.9997 C19.328,30.9997 20,30.3287 20,29.4997 Z M30,19.0095 C30,18.1815 29.328,17.5095 28.5,17.5095 C27.672,17.5095 27,18.1815 27,19.0095 C27,19.8375 27.672,20.5095 28.5,20.5095 C29.328,20.5095 30,19.8375 30,19.0095 Z M19.5586,28.4421 L27.4426,20.0681 M26.7383,11.175 L24.6943,13.813 L17.0993,15.883 L15.6073,15.076 L10.6823,18.733 L12.9103,19.497 L7.0513,25.994 L4.8723,33.972 L9.1893,32.875 L11.0953,31.762 L15.6103,36.085 L21.9793,35.368 L25.6503,31.397 L29.9963,37.405 L33.1693,30.669 L40.5613,32.601 L40.0953,28.559 L43.2083,28.638 L42.8893,22.042 L40.1803,19.973 L39.3003,21.641 L35.7173,20.56 L37.0553,16.573 L29.5563,13.662 L26.7383,11.175 Z"/>
</svg>
