<svg xmlns="http://www.w3.org/2000/svg" width="48" height="48" viewBox="0 0 48 48">
  <path fill="none" stroke="#000" d="M42.5,14.5 C42.5,17.264 35.183,19.5 26,19.5 C16.817,19.5 9.5,17.264 9.5,14.5 C9.5,11.736 16.817,9.5 26,9.5 C35.183,9.5 42.5,11.736 42.5,14.5 Z M42.5,18.5 C42.5,25.195 9.5,25.195 9.5,18.5 M42.5,16.46 L42.5,18.5 L42.5,16.46 L42.5,14.5 L42.5,16.46 Z M9.5,16.46 L9.5,18.5 L9.5,16.46 L9.5,14.5 L9.5,16.46 Z M36.5,20.3984 L36.5,22.5004 L36.5,20.3984 L36.5,18.3804 L36.5,20.3984 Z M25.5,21.4697 L25.5,23.5217 L25.5,21.4697 L25.5,19.4997 L25.5,21.4697 Z M15.5,20.3799 L15.5,22.4789 L15.5,20.3799 L15.5,18.3649 L15.5,20.3799 Z M25.5,23.5215 C25.229,23.5255 23.274,23.4715 23,23.4715 C13.818,23.4715 6.5,21.2355 6.5,18.4715 C6.5,17.3965 7.607,16.4015 9.5,15.5865 M39.5,22.5 C39.5,29.195 6.5,29.195 6.5,22.5 M39.5,21.9131 L39.5,22.5001 L39.5,21.9131 L39.5,21.5411 L39.5,21.9131 Z M6.5,20.46 L6.5,22.5 L6.5,20.46 L6.5,18.5 L6.5,20.46 Z M39.502,21.6143 C41.401,22.4293 42.512,23.4263 42.512,24.5033 C42.512,27.2663 35.194,29.5033 26.012,29.5033 C18.256,29.5033 11.83,27.9073 10.021,25.7463 M42.5,28.5 C42.5,35.343 9.5,35.343 9.5,28.5 M42.5,26.46 L42.5,28.5 L42.5,26.46 L42.5,24.5 L42.5,26.46 Z M9.5,26.9902 L9.5,28.5002 L9.5,26.9902 L9.5,25.5412 L9.5,26.9902 Z M36.5,30.4307 L36.5,32.5657 L36.5,30.4307 L36.5,28.3807 L36.5,30.4307 Z M25.5,31.5254 L25.5,33.6314 L25.5,31.5254 L25.5,29.5014 L25.5,31.5254 Z M15.5,30.4209 L15.5,32.5609 L15.5,30.4209 L15.5,28.3649 L15.5,30.4209 Z M26,11.5 C33.739,11.5 38.359,13.033 39.938,14.079 M12.054,14.083 C13.211,13.314 16.018,12.279 20.504,11.785 C22.118,11.607 23.949,11.5 26,11.5 M42.5,32.5 C42.5,39.343 9.5,39.343 9.5,32.5 M42.5,30.46 L42.5,32.5 L42.5,30.46 L42.5,28.5 L42.5,30.46 Z M9.5,30.0273 L9.5,32.5003 L9.5,30.0273 L9.5,27.6513 L9.5,30.0273 Z M32.5,23.1025 L32.5,24.8915 L32.5,26.7545 M21.5,25.4453 L21.5,27.5213 L21.5,25.4453 L21.5,23.4513 L21.5,25.4453 Z M11.5,24.0967 L11.5,26.2117 L11.5,24.0967 L11.5,22.0657 L11.5,24.0967 Z M35.5,34.7549 L35.5,36.7959 L35.5,34.7549 L35.5,32.7939 L35.5,34.7549 Z M24.5,35.5732 L24.5,37.6132 L24.5,35.5732 L24.5,33.6132 L24.5,35.5732 Z M14.5,34.2578 L14.5,36.3058 L14.5,34.2578 L14.5,32.2898 L14.5,34.2578 Z"/>
</svg>
