<svg xmlns="http://www.w3.org/2000/svg" width="48" height="48" viewBox="0 0 48 48">
  <path fill="none" stroke="#000" d="M24.5107,8.8437 C11.6777,23.3437 18.5107,39.2147 18.5107,39.2147 C18.5107,39.2147 24.5107,33.6947 30.5107,39.2147 C30.5107,39.2147 37.3437,23.3437 24.5107,8.8437 Z M24.5,32 L24.5,40 M31.3105,36.7637 C32.6155,37.0677 33.9915,37.7527 35.3675,39.0197 C35.3675,39.0197 36.4285,34.0887 32.1775,31.9547 M27.5,22.5 C27.5,24.157 26.157,25.5 24.5,25.5 C22.843,25.5 21.5,24.157 21.5,22.5 C21.5,20.843 22.843,19.5 24.5,19.5 C26.157,19.5 27.5,20.843 27.5,22.5 Z M17.7061,36.75 C16.3851,37.047 14.9881,37.734 13.5911,39.02 C13.5911,39.02 12.5191,34.043 16.8411,31.926 M20.9736,13.624 C21.9316,14.097 24.9706,15.32 28.0536,13.634"/>
</svg>
