<svg xmlns="http://www.w3.org/2000/svg" width="48" height="48" viewBox="0 0 48 48">
  <path fill="none" stroke="#000" d="M9,11.5002 L13.5,11.5002 L13.5,15.4752 L13.5,27.6442 L13.5,31.5002 L35,31.5002 M13.5,15.4997 L38.98,15.4997 L35.5,27.4997 L13.5,27.4997 M20.5,36.4997 C20.5,37.6037 19.604,38.4997 18.5,38.4997 C17.396,38.4997 16.5,37.6037 16.5,36.4997 C16.5,35.3957 17.396,34.4997 18.5,34.4997 C19.604,34.4997 20.5,35.3957 20.5,36.4997 Z M31.5,36.4997 C31.5,37.6037 30.604,38.4997 29.5,38.4997 C28.396,38.4997 27.5,37.6037 27.5,36.4997 C27.5,35.3957 28.396,34.4997 29.5,34.4997 C30.604,34.4997 31.5,35.3957 31.5,36.4997 Z M19,19.4997 L33,19.4997 M19,23.4997 L31,23.4997"/>
</svg>
