<svg xmlns="http://www.w3.org/2000/svg" width="24" height="24" viewBox="0 0 24 24">
  <path fill="none" stroke="#000" d="M7.2002,10.2002 C6.9682,8.2582 9.0792,7.2182 10.4002,8.3002 C11.9002,4.9002 16.8002,6.6002 15.7002,10.3002 C18.2002,10.2002 18.2362,14.5002 15.0002,14.5002 L8.0002,14.5002 C4.6332,14.5002 5.0592,10.2002 7.2002,10.2002 Z M17.5,17 C17.5,17.276 17.276,17.5 17,17.5 C16.724,17.5 16.5,17.276 16.5,17 C16.5,16.724 16.724,16.5 17,16.5 C17.276,16.5 17.5,16.724 17.5,17 Z M13.5,17 C13.5,17.276 13.276,17.5 13,17.5 C12.724,17.5 12.5,17.276 12.5,17 C12.5,16.724 12.724,16.5 13,16.5 C13.276,16.5 13.5,16.724 13.5,17 Z M15.5,20 C15.5,20.276 15.276,20.5 15,20.5 C14.724,20.5 14.5,20.276 14.5,20 C14.5,19.724 14.724,19.5 15,19.5 C15.276,19.5 15.5,19.724 15.5,20 Z M6.5,16 L5.5,18 L6.5,16 Z M10.5,16 L9.5,18 L10.5,16 Z M8.5,16 L6.5,20 L8.5,16 Z"/>
</svg>
