<svg xmlns="http://www.w3.org/2000/svg" width="24" height="24" viewBox="0 0 24 24">
  <path fill="none" stroke="#000" d="M7.2002,10.2002 C5.0592,10.2002 4.6332,14.5002 8.0002,14.5002 L15.0002,14.5002 C18.4772,14.5002 18.2002,10.2002 15.7002,10.3002 C16.8002,6.6002 11.9002,4.9002 10.4002,8.3002 C9.0792,7.2182 6.9682,8.2582 7.2002,10.2002 Z M17.375,11.5044 C18.636,11.9004 21.51,11.2084 22.5,9.0004 C18.332,10.7624 15.544,6.6464 16.982,3.8004 C15.893,4.1264 15.069,4.7994 14.454,6.8344 M8.5,16 L7.5,18 M14.5,16 L13.5,18 M10.5,16 L8.5,20 M12.5498,16 L10.5498,20"/>
</svg>
