<svg xmlns="http://www.w3.org/2000/svg" width="24" height="24" viewBox="0 0 24 24">
  <path fill="none" stroke="#000" d="M7.2002,10.2002 C5.0592,10.2002 4.6332,14.5002 8.0002,14.5002 L15.0002,14.5002 C18.2342,14.5002 18.2002,10.2002 15.7002,10.3002 C16.8002,6.6002 11.9002,4.9002 10.4002,8.3002 C9.0792,7.2182 6.9682,8.2582 7.2002,10.2002 Z M14,18.5 C14,18.776 13.776,19 13.5,19 C13.224,19 13,18.776 13,18.5 C13,18.224 13.224,18 13.5,18 C13.776,18 14,18.224 14,18.5 Z M16,16.5 C16,16.776 15.776,17 15.5,17 C15.224,17 15,16.776 15,16.5 C15,16.224 15.224,16 15.5,16 C15.776,16 16,16.224 16,16.5 Z M12,16.5 C12,16.776 11.776,17 11.5,17 C11.224,17 11,16.776 11,16.5 C11,16.224 11.224,16 11.5,16 C11.776,16 12,16.224 12,16.5 Z M8,16.5 C8,16.776 7.776,17 7.5,17 C7.224,17 7,16.776 7,16.5 C7,16.224 7.224,16 7.5,16 C7.776,16 8,16.224 8,16.5 Z M10,18.5 C10,18.776 9.776,19 9.5,19 C9.224,19 9,18.776 9,18.5 C9,18.224 9.224,18 9.5,18 C9.776,18 10,18.224 10,18.5 Z"/>
</svg>
