<svg xmlns="http://www.w3.org/2000/svg" width="24" height="24" viewBox="0 0 24 24">
  <path fill="none" stroke="#000" d="M7.2002,10.2002 C5.0592,10.2002 4.6332,14.5002 8.0002,14.5002 L15.0002,14.5002 C18.1252,14.5002 18.2002,10.2002 15.7002,10.3002 C16.8002,6.6002 11.9002,4.9002 10.4002,8.3002 C9.0792,7.2182 6.9682,8.2582 7.2002,10.2002 Z M17.375,11.5044 C18.636,11.9004 21.51,11.2084 22.5,9.0004 C18.332,10.7624 15.544,6.6464 16.982,3.8004 C15.893,4.1264 15.069,4.7994 14.454,6.8344 M6.5,16 C6.5,16 6,17 6,17.5 C6,17.776 6.224,18 6.5,18 C6.776,18 7,17.776 7,17.5 C7,17 6.5,16 6.5,16 Z M10.5,16 C10.5,16 10,17 10,17.5 C10,17.776 10.224,18 10.5,18 C10.776,18 11,17.776 11,17.5 C11,17 10.5,16 10.5,16 Z M14.5,16 C14.5,16 14,17 14,17.5 C14,17.776 14.224,18 14.5,18 C14.776,18 15,17.776 15,17.5 C15,17 14.5,16 14.5,16 Z M12.5,18 C12.5,18 12,19 12,19.5 C12,19.776 12.224,20 12.5,20 C12.776,20 13,19.776 13,19.5 C13,19 12.5,18 12.5,18 Z M8.5,18 C8.5,18 8,19 8,19.5 C8,19.776 8.224,20 8.5,20 C8.776,20 9,19.776 9,19.5 C9,19 8.5,18 8.5,18 Z"/>
</svg>
