<svg xmlns="http://www.w3.org/2000/svg" width="24" height="24" viewBox="0 0 24 24">
  <g fill="none" fill-rule="evenodd">
    <path stroke="#000" d="M7.2002,10.2002 C5.0592,10.2002 4.6332,14.5002 8.0002,14.5002 L15.0002,14.5002 C18.2032,14.5002 18.2002,10.2002 15.7002,10.3002 C16.8002,6.6002 11.9002,4.9002 10.4002,8.3002 C9.0792,7.2182 6.9682,8.2582 7.2002,10.2002 Z"/>
    <path fill="#000" d="M6,17 L6,16 L7,16 L7,17 L6,17 Z M8,17 L8,16 L9,16 L9,17 L8,17 Z M6,19 L6,18 L7,18 L7,19 L6,19 Z M7,18 L7,17 L8,17 L8,18 L7,18 Z M8,19 L8,18 L9,18 L9,19 L8,19 Z M10,21 L10,20 L11,20 L11,21 L10,21 Z M12,21 L12,20 L13,20 L13,21 L12,21 Z M10,23 L10,22 L11,22 L11,23 L10,23 Z M11,22 L11,21 L12,21 L12,22 L11,22 Z M12,23 L12,22 L13,22 L13,23 L12,23 Z M14,17 L14,16 L15,16 L15,17 L14,17 Z M16,17 L16,16 L17,16 L17,17 L16,17 Z M14,19 L14,18 L15,18 L15,19 L14,19 Z M15,18 L15,17 L16,17 L16,18 L15,18 Z M16,19 L16,18 L17,18 L17,19 L16,19 Z"/>
  </g>
</svg>
