<svg xmlns="http://www.w3.org/2000/svg" width="24" height="24" viewBox="0 0 24 24">
  <g fill="none" fill-rule="evenodd">
    <path stroke="#000" d="M16.0195,14.5 C18.1695,13.791 17.9045,10.287 15.6995,10.375 C16.8025,6.638 11.8875,4.921 10.3825,8.355 C9.0585,7.263 6.9395,8.313 7.1725,10.274 C5.2675,10.274 4.7165,13.693 6.9745,14.464"/>
    <path fill="#000" d="M11.026,16.999 L11.026,16.161 L11.906,16.161 L11.906,16.999 L11.026,16.999 Z M9.636,12.922 C9.655,12.422 9.754,12.035 9.933,11.761 C10.099,11.509 10.319,11.314 10.593,11.177 C10.868,11.04 11.176,10.972 11.519,10.972 C12.07,10.972 12.509,11.126 12.835,11.435 C13.139,11.72 13.291,12.095 13.291,12.559 C13.291,12.943 13.188,13.273 12.981,13.551 C12.889,13.677 12.668,13.908 12.317,14.247 C12.163,14.395 12.055,14.518 11.993,14.615 C11.932,14.714 11.89,14.836 11.865,14.98 C11.838,15.126 11.824,15.313 11.824,15.545 L11.131,15.545 C11.137,15.134 11.173,14.828 11.242,14.63 C11.291,14.484 11.36,14.354 11.451,14.239 C11.542,14.123 11.744,13.908 12.057,13.59 C12.257,13.387 12.389,13.203 12.452,13.039 C12.503,12.899 12.529,12.756 12.529,12.611 C12.529,12.343 12.455,12.117 12.305,11.935 C12.126,11.712 11.861,11.6 11.51,11.6 C10.785,11.6 10.394,12.041 10.337,12.922 L9.636,12.922 Z"/>
  </g>
</svg>
