<svg xmlns="http://www.w3.org/2000/svg" width="36" height="36" viewBox="0 0 36 36">
  <g fill="none" fill-rule="evenodd">
    <path stroke="#000" d="M26.25,5.2503 C26.25,6.0783 22.2195,6.7503 17.25,6.7503 C12.2805,6.7503 8.25,6.0783 8.25,5.2503 C8.25,4.4208 12.2805,3.7503 17.25,3.7503 C22.2195,3.7503 26.25,4.4208 26.25,5.2503 Z M10.593,16.26375 C11.0475,18.08925 13.839,19.50075 17.25,19.50075 C20.661,19.50075 23.4525,18.08925 23.9055,16.26375 M8.25,5.2503 L8.25,14.2503 C8.25,15.9063 12.2805,17.2503 17.25,17.2503 C22.2195,17.2503 26.25,15.9063 26.25,14.2503 L26.25,5.2503 M26.25,17.17485 L25.5075,23.99985 C25.5075,23.99985 25.0815,27.39885 23.2365,29.07135 C21.156,30.95685 19.542,32.20035 17.25,32.20035 C14.958,32.20035 13.3455,30.95685 11.2635,29.07135 C9.4185,27.39885 8.9925,23.99985 8.9925,23.99985 L8.25,17.17485 M21,26.24955 C21,26.24955 19.395,27.74955 17.25,27.74955 C15.105,27.74955 13.5,26.24955 13.5,26.24955"/>
    <path fill="#000" d="M18.4497,8.99955 L20.2497,8.99955 L23.2497,11.99955 L20.2497,14.99955 L18.4497,14.99955 L20.8512,12.74955 L17.9997,12.74955 L17.9997,14.99955 L16.4997,14.99955 L16.4997,12.74955 L13.6497,12.74955 L16.0497,14.99955 L14.2497,14.99955 L11.2497,11.99955 L14.2497,8.99955 L16.0497,8.99955 L13.6497,11.24955 L16.4997,11.24955 L16.4997,8.99955 L17.9997,8.99955 L17.9997,11.24955 L20.8512,11.24955 L18.4497,8.99955 Z M14.9003,22.79985 C14.9003,23.29985 14.6003,23.59985 14.1003,23.59985 C13.6003,23.59985 13.3003,23.19985 13.3003,22.79985 C13.3003,22.29985 13.6003,21.99985 14.1003,21.99985 C14.6003,21.99985 14.9003,22.39985 14.9003,22.79985 Z M20.9003,22.79985 C20.9003,23.29985 20.6003,23.59985 20.1003,23.59985 C19.6003,23.59985 19.3003,23.19985 19.3003,22.79985 C19.3003,22.29985 19.6003,21.99985 20.1003,21.99985 C20.6003,21.99985 20.9003,22.39985 20.9003,22.79985 Z"/>
  </g>
</svg>
