<svg xmlns="http://www.w3.org/2000/svg" width="36" height="36" viewBox="0 0 36 36">
  <path fill="none" stroke="#000" d="M13.5,11.24955 C14.76,11.24955 15.75,12.23955 15.75,13.49955 C15.75,14.75955 14.76,15.74955 13.5,15.74955 C12.24,15.74955 11.25,14.75955 11.25,13.49955 C11.25,12.23955 12.24,11.24955 13.5,11.24955 M19.5,20.25105 C20.76,20.25105 21.75,21.23955 21.75,22.50105 C21.75,23.76105 20.76,24.75105 19.5,24.75105 C18.24,24.75105 17.25,23.76105 17.25,22.50105 C17.25,21.23955 18.24,20.25105 19.5,20.25105 M22.5,12.0003 L10.5,24.0003 M5.25,8.2503 L25.5,8.2503 L30.75,18.0003 L25.5,27.7503 L5.25,27.7503 L5.25,8.2503 Z"/>
</svg>
