<svg xmlns="http://www.w3.org/2000/svg" width="36" height="36" viewBox="0 0 36 36">
  <path fill="none" stroke="#000" d="M9,6.75 C10.242,6.75 11.25,7.7565 11.25,9 C11.25,10.2435 10.242,11.25 9,11.25 C7.7565,11.25 6.75,10.2435 6.75,9 C6.75,7.7565 7.7565,6.75 9,6.75 Z M21,27.75 L9.75,27.75 L3.75,11.25 M25.9365,32.313 L22.062,24.75 L12.312,24.75 L8.562,14.25 L11.562,14.25 L13.812,20.265 L19.4685,20.265 M17.247,15.75 L30.747,15.75 L30.747,6.75 L17.247,6.75 L17.247,15.75 Z M17.247,14.25 L20.25,11.25 L23.25,14.25 L27.75,9.75 L30.75,12.75"/>
</svg>
