<svg xmlns="http://www.w3.org/2000/svg" width="36" height="36" viewBox="0 0 36 36">
  <path fill="none" stroke="#000" d="M21.75,29.99955 L21.75,23.24955 L18.75,20.24955 L15.75,20.24955 L15.75,24.74955 L12.75,29.24955 M18.75,12.74955 L18.75,20.24955 L15.75,20.24955 L15.75,12.74955 M17.25,9.74955 C16.4505,9.74955 15.75,9.05055 15.75,8.24955 C15.75,7.45005 16.4505,6.74955 17.25,6.74955 C18.0495,6.74955 18.75,7.45005 18.75,8.24955 C18.75,9.05055 18.0495,9.74955 17.25,9.74955 Z M11.25,20.99955 L11.25,15.74955 L15.75,12.74955 L18.75,12.74955 L21.75,15.74955 L25.5,15.74955"/>
</svg>
