<svg xmlns="http://www.w3.org/2000/svg" width="36" height="36" viewBox="0 0 36 36">
  <path fill="none" stroke="#000" d="M20.2515,20.3892 L20.2515,24.7497 L15.7515,29.2497 M24.7515,12.75 L23.25,20.25 L26.2515,23.25 L24.75,30 M20.2515,24.75 L20.2515,20.25 L21.7515,12.75 M15.75075,21 L17.25075,15.75 L21.75075,12.75 L24.75075,12.75 L27.75075,15.75 L31.50075,17.25 M21.7515,12.75 L20.2515,20.25 L23.25,20.25 L24.7515,12.75 M13.5,14.25 L7.5,14.25 M12,20.25 L4.5,20.25 M15,24.75 L7.5,24.75 M18,9.75 L10.5,9.75 M23.2368,9.75 C22.4373,9.75 21.7368,9.0495 21.7368,8.25 C21.7368,7.4505 22.4373,6.75 23.2368,6.75 C24.0363,6.75 24.7368,7.4505 24.7368,8.25 C24.7368,9.0495 24.0363,9.75 23.2368,9.75 Z"/>
</svg>
