<svg xmlns="http://www.w3.org/2000/svg" width="36" height="36" viewBox="0 0 36 36">
  <path fill="none" stroke="#000" d="M13.0503,16.3956 C11.0988,17.3886 9.7533,19.4196 9.7533,21.7461 C9.7533,25.0461 12.4563,27.7461 15.7533,27.7461 C18.1428,27.7461 20.2203,26.3286 21.1833,24.2916 M7.0503,6.74955 C5.1003,9.44955 3.6003,13.04955 3.6003,17.99955 C3.6003,22.94955 5.1003,26.40105 7.0503,29.24955 M28.6494,29.24955 C30.6009,26.54955 32.1009,22.94955 32.1009,17.99955 C32.1009,13.04955 30.6009,9.59955 28.6494,6.74955 M15.75,11.99955 L15.75,20.24955 L23.25,20.24955 L23.25,28.49955 M16.5,9.0003 C16.5,9.4143 16.164,9.7503 15.75,9.7503 C15.336,9.7503 15,9.4143 15,9.0003 C15,8.5863 15.336,8.2503 15.75,8.2503 C16.164,8.2503 16.5,8.5863 16.5,9.0003 Z"/>
</svg>
