<svg xmlns="http://www.w3.org/2000/svg" width="36" height="36" viewBox="0 0 36 36">
  <path fill="none" stroke="#000" d="M7.5,12.0003 L26.25,30.7503 M23.25,23.24955 L23.25,20.24955 L20.25,20.24955 M15.75,15.7503 L15.75,12.0003 M12.3303,16.8306 C10.7733,17.9181 9.7488,19.7211 9.7488,21.7506 C9.7488,25.0491 12.4518,27.7506 15.7488,27.7506 C17.7798,27.7506 19.5768,26.7216 20.6643,25.1646 M16.5,9.0003 C16.5,9.4143 16.164,9.7503 15.75,9.7503 C15.336,9.7503 15,9.4143 15,9.0003 C15,8.5863 15.336,8.2503 15.75,8.2503 C16.164,8.2503 16.5,8.5863 16.5,9.0003 Z M23.25,27.74955 L23.25,28.49955"/>
</svg>
