<svg xmlns="http://www.w3.org/2000/svg" width="36" height="36" viewBox="0 0 36 36">
  <path fill="none" stroke="#000" d="M9.75,11.99955 L9.75,20.24955 L17.25,20.24955 L17.25,28.49955 M7.0467,16.3992 C5.0952,17.3922 3.7497,19.4232 3.7497,21.7512 C3.7497,25.0482 6.4512,27.7512 9.7497,27.7512 C12.1392,27.7512 14.2167,26.3322 15.1782,24.2952 M26.31735,25.4967 L26.31735,28.4967 M26.25,22.49955 C26.25,20.25405 26.3355,19.30455 27.75,17.69955 L30,15.44955 C32.604,12.53955 31.2105,9.85905 29.2875,8.83305 C26.193,7.32405 21.75,8.53755 21.75,13.49955 M10.5,9.0003 C10.5,9.4143 10.164,9.7503 9.75,9.7503 C9.336,9.7503 9,9.4143 9,9.0003 C9,8.5863 9.336,8.2503 9.75,8.2503 C10.164,8.2503 10.5,8.5863 10.5,9.0003 Z"/>
</svg>
