<svg xmlns="http://www.w3.org/2000/svg" width="36" height="36" viewBox="0 0 36 36">
  <path fill="none" stroke="#000" d="M7.9212,17.81325 L13.0782,13.68675 L7.9212792,17.8131866 C8.12694915,18.0699379 8.25,18.3956862 8.25,18.75 C8.25,19.5795 7.578,20.25 6.75,20.25 C5.922,20.25 5.25,19.5795 5.25,18.75 C5.25,17.922 5.922,17.25 6.75,17.25 C7.22368624,17.25 7.64631664,17.4699329 7.9212792,17.8131866 Z M28.3781445,6.47095774 L22.62165,14.52975 L28.37865,6.47025 C27.9976548,6.19881186 27.75,5.75321589 27.75,5.25 C27.75,4.422 28.4205,3.75 29.25,3.75 C30.0795,3.75 30.75,4.422 30.75,5.25 C30.75,6.078 30.0795,6.75 29.25,6.75 C28.9246275,6.75 28.6237189,6.64660533 28.3781445,6.47095774 Z M12.75,32.25 L12.75,20.256 L15.75,20.256 L15.75,32.25 L12.75,32.25 Z M20.25,32.25 L20.25,23.256 L23.25,23.256 L23.25,32.25 L20.25,32.25 Z M15.64305,13.3074 L20.35755,15.1929 L15.64305,13.3074 Z M27.75,32.25 L27.75,14.256 L30.75,14.256 L30.75,32.25 L5.25,32.25 L5.25,26.256 L8.25,26.256 L8.25,32.25 L27.75,32.25 Z M15.75,12.75 C15.75,13.578 15.078,14.25 14.25,14.25 C13.422,14.25 12.75,13.578 12.75,12.75 C12.75,11.922 13.422,11.25 14.25,11.25 C15.078,11.25 15.75,11.922 15.75,12.75 Z M23.25,15.75 C23.25,16.578 22.5795,17.25 21.75,17.25 C20.9205,17.25 20.25,16.578 20.25,15.75 C20.25,14.922 20.9205,14.25 21.75,14.25 C22.5795,14.25 23.25,14.922 23.25,15.75 Z"/>
</svg>
