<svg xmlns="http://www.w3.org/2000/svg" width="36" height="36" viewBox="0 0 36 36">
  <path fill="none" stroke="#000" d="M15.75,9.7503 C15.75,11.4978 14.4975,12.7503 12.75,12.7503 C11.0025,12.7503 9.75,11.4978 9.75,9.7503 C9.75,8.0028 11.0025,6.7503 12.75,6.7503 C14.4975,6.7503 15.75,8.0028 15.75,9.7503 Z M26.25,18.7503 C26.25,20.4453 24.9465,21.7503 23.25,21.7503 C21.5535,21.7503 20.25,20.4453 20.25,18.7503 C20.25,17.0538 21.5535,15.7503 23.25,15.7503 C24.9465,15.7503 26.25,17.0538 26.25,18.7503 Z M15.75,27.74955 C15.75,29.47155 14.472,30.74955 12.75,30.74955 C11.028,30.74955 9.75,29.47155 9.75,27.74955 C9.75,26.02905 11.028,24.74955 12.75,24.74955 C14.472,24.74955 15.75,26.02905 15.75,27.74955 Z M9.75,9.7503 L3,9.7503 L9.75,9.7503 Z M15.75,9.7503 L33,9.7503 L15.75,9.7503 Z M26.25,18.7503 L33,18.7503 L26.25,18.7503 Z M20.25,18.7503 L3,18.7503 L20.25,18.7503 Z M9.75,27.74955 L3,27.74955 L9.75,27.74955 Z M15.75,27.74955 L33,27.74955 L15.75,27.74955 Z"/>
</svg>
