<svg xmlns="http://www.w3.org/2000/svg" width="36" height="36" viewBox="0 0 36 36">
  <path fill="none" stroke="#000" d="M26.25,31.5 L26.25,14.25 L26.25,31.5 Z M26.25,5.25 C27.906,5.25 29.25,7.2645 29.25,9.75 C29.25,12.2355 27.906,14.25 26.25,14.25 C24.594,14.25 23.25,12.2355 23.25,9.75 C23.25,7.2645 24.594,5.25 26.25,5.25 Z M8.25,31.5 L8.25,14.25 L8.25,31.5 Z M11.25,4.5 L11.25,11.25 C11.25,11.25 11.25,14.25 8.25,14.25 C5.25,14.25 5.25,11.25 5.25,11.25 L5.25,4.5 M8.25,12 L8.25,4.5 L8.25,12 Z M15.75,18.75 L15.75,31.5 L15.75,5.25 L16.5,5.25 C18.6,5.25 18.75,7.2 18.75,9.75 L18.75,18.75 L15.75,18.75 Z"/>
</svg>
