<svg xmlns="http://www.w3.org/2000/svg" width="36" height="36" viewBox="0 0 36 36">
  <path fill="none" stroke="#000" d="M26.25,21 C26.25,25.5555 22.5555,29.25 18,29.25 C13.443,29.25 9.75,25.5555 9.75,21 C9.75,16.443 13.443,12.75 18,12.75 C22.5555,12.75 26.25,16.443 26.25,21 Z M15.75,19.5 C15.75,19.914 15.414,20.25 15,20.25 C14.586,20.25 14.25,19.914 14.25,19.5 C14.25,19.086 14.586,18.75 15,18.75 C15.414,18.75 15.75,19.086 15.75,19.5 Z M21.75,19.5 C21.75,19.914 21.414,20.25 21,20.25 C20.586,20.25 20.25,19.914 20.25,19.5 C20.25,19.086 20.586,18.75 21,18.75 C21.414,18.75 21.75,19.086 21.75,19.5 Z M13.69995,24 C14.64945,25.3575 16.21845,26.25 18.00045,26.25 C19.78095,26.25 21.35145,25.3575 22.29945,24 M23.25,11.05365 L23.25,7.50015 L21,9.00015 L19.5,7.50015 L18,9.00015 L16.5,7.50015 L15,9.00015 L12.75,7.50015 L12.75,11.05365 C14.3175,10.22415 16.1025,9.75015 18,9.75015 C19.8975,9.75015 21.6825,10.22415 23.25,11.05365 Z"/>
</svg>
