<svg xmlns="http://www.w3.org/2000/svg" width="36" height="36" viewBox="0 0 36 36">
  <path fill="none" stroke="#000" d="M15.75,19.5 C15.75,19.914 15.414,20.25 15,20.25 C14.586,20.25 14.25,19.914 14.25,19.5 C14.25,19.086 14.586,18.75 15,18.75 C15.414,18.75 15.75,19.086 15.75,19.5 Z M21.75,19.5 C21.75,19.914 21.414,20.25 21,20.25 C20.586,20.25 20.25,19.914 20.25,19.5 C20.25,19.086 20.586,18.75 21,18.75 C21.414,18.75 21.75,19.086 21.75,19.5 Z M13.69995,24 C14.64945,25.3575 16.21845,26.25 18.00045,26.25 C19.78095,26.25 21.35145,25.3575 22.29945,24 M9.75,13.5 C9.75,8.943 13.443,5.25 18,5.25 C22.5555,5.25 26.25,8.943 26.25,13.5 C26.25,14.7435 27.258,15.75 28.5,15.75 L7.5,15.75 C8.7435,15.75 9.75,14.7435 9.75,13.5 Z M9.75,12.75 L16.5,12.75 M19.5,12.75 L26.25,12.75 M11.63595,15.75 C10.45695,17.1765 9.75045,19.005 9.75045,21 C9.75045,25.5555 13.44345,29.25 18.00045,29.25 C22.55595,29.25 26.25045,25.5555 26.25045,21 C26.25045,19.005 25.54245,17.1765 24.36345,15.75"/>
</svg>
