<svg xmlns="http://www.w3.org/2000/svg" width="36" height="36" viewBox="0 0 36 36">
  <path fill="none" stroke="#000" d="M29.25,18.7503 C29.25,24.5793 24.5805,29.2503 18.75,29.2503 C12.9195,29.2503 8.25,24.5793 8.25,18.7503 C8.25,12.9198 12.9195,8.2503 18.75,8.2503 C24.5805,8.2503 29.25,12.9198 29.25,18.7503 Z M23.25,18.7503 C23.25,21.2748 21.2745,23.2503 18.75,23.2503 C16.2255,23.2503 14.25,21.2748 14.25,18.7503 C14.25,16.2258 16.2255,14.2503 18.75,14.2503 C21.2745,14.2503 23.25,16.2258 23.25,18.7503 Z M23.25,18.7503 L33,18.7503 M8.25,18.7503 L4.5,18.7503 M18.75,8.2503 L18.75,4.5003 M18.75,29.24955 L18.75,32.99955 M23.8389,27.95025 L25.4994,31.04925 M11.63235,6.5526 L16.36635,14.9151 M27.99465,23.7594 L30.98415,25.6674 M27.32955,12.669 L30.48855,10.8795 M6.0447,25.08945 L9.2592,23.26995 M11.7414,31.12305 L16.5279,22.67205 M23.97945,9.62805 L25.93695,6.32205 M6.249,11.6985 L9.555,13.656"/>
</svg>
