<svg xmlns="http://www.w3.org/2000/svg" width="36" height="36" viewBox="0 0 36 36">
  <path fill="none" stroke="#000" d="M29.25,17.2503 C29.25,10.6233 23.877,5.2503 17.25,5.2503 C10.623,5.2503 5.25,10.6233 5.25,17.2503 C5.25,23.8773 10.623,29.2503 17.25,29.2503 C23.877,29.2503 29.25,23.8773 29.25,17.2503 Z M27.75,23.2935 L6.75,23.2935 M29.25,17.2935 L5.25,17.2935 M27.75,11.2935 L6.75,11.2935 M13.3044,28.5729 C11.0244,25.8534 9.5739,21.7929 9.5739,17.2509 C9.5739,12.7074 11.0244,8.6469 13.3044,5.9274 M13.3044,5.92785 C11.0244,8.64585 9.5739,12.70785 9.5739,17.24985 C9.5739,21.79335 11.0244,25.85235 13.3044,28.57335 M21.19635,5.92785 C23.47635,8.64585 24.92535,12.70785 24.92535,17.24985 C24.92535,21.79335 23.47635,25.85235 21.19635,28.57335 M21.19635,28.5729 C23.47635,25.8534 24.92535,21.7929 24.92535,17.2509 C24.92535,12.7074 23.47635,8.6469 21.19635,5.9274 M17.25,5.2503 L17.25,29.2503"/>
</svg>
