<svg xmlns="http://www.w3.org/2000/svg" width="36" height="36" viewBox="0 0 36 36">
  <path fill="none" stroke="#000" d="M3,17.2503 L31.5,17.2503 M13.2921,25.542 L6.1896,20.58 C5.5431,20.0625 4.5981,20.1645 4.0791,20.811 C3.5616,21.456 3.6651,22.401 4.3116,22.92 L13.1991,30.75 L19.1136,30.75 L20.6256,32.25 L31.8006,32.25 L24.2586,24.654 C22.5531,23.013 20.3826,21.792 18.1641,21.75 L15.0006,21.75 C12.0231,21.75 11.9526,26.25 15.0006,26.25 L18.0006,26.25 M29.25,17.2503 C29.25,11.0958 23.487,8.2503 17.25,8.2503 C11.013,8.2503 5.25,11.0958 5.25,17.2503 M18.75,6.7503 C18.75,7.5783 18.0795,8.2503 17.25,8.2503 C16.4205,8.2503 15.75,7.5783 15.75,6.7503 C15.75,5.9208 16.4205,5.2503 17.25,5.2503 C18.0795,5.2503 18.75,5.9208 18.75,6.7503 Z"/>
</svg>
