<svg xmlns="http://www.w3.org/2000/svg" width="36" height="36" viewBox="0 0 36 36">
  <path fill="none" stroke="#000" d="M20.01555,7.69155 C19.49355,6.26205 18.11955,5.25105 16.49205,5.25105 C15.25455,5.25105 14.17455,5.84355 13.49505,6.75405 C12.81405,5.84355 11.73255,5.25105 10.49355,5.25105 C8.41305,5.25105 6.74055,6.90555 6.74055,8.97405 C6.74055,9.62355 6.90555,10.23105 7.19505,10.76055 C7.35855,11.06205 7.55355,11.33655 7.78905,11.57805 L13.49355,17.25105 L19.19055,11.58555 C19.32555,11.42355 19.64505,11.01255 19.75005,10.82955 C20.06205,10.28355 20.24055,9.65205 20.24055,8.97405 C20.24055,8.52255 20.16255,8.09205 20.01555,7.69155 Z M13.29195,25.542 L6.18945,20.58 C5.54295,20.0625 4.59945,20.1645 4.08045,20.811 C3.56145,21.456 3.66495,22.401 4.31145,22.92 L13.19895,30.75 L19.11345,30.75 L20.62545,32.25 L31.80045,32.25 L24.25845,24.654 C22.55295,23.013 20.38245,21.792 18.16395,21.75 L15.00045,21.75 C12.02295,21.75 11.95245,26.25 15.00045,26.25 L18.00045,26.25"/>
</svg>
