<svg xmlns="http://www.w3.org/2000/svg" width="36" height="36" viewBox="0 0 36 36">
  <path fill="none" stroke="#000" d="M30.2988,11.66415 C29.2548,8.78565 26.5053,6.75015 23.2503,6.75015 C20.7723,6.75015 18.6138,7.94565 17.2548,9.77715 C15.8913,7.94565 13.7268,6.75015 11.2503,6.75015 C7.0848,6.75015 3.7413,10.08165 3.7413,14.24565 C3.7413,15.55065 4.0698,16.77615 4.6488,17.84115 C4.9773,18.44565 5.3688,18.99765 5.8368,19.48515 L17.2503,30.90015 L28.6488,19.50015 C28.9188,19.17315 29.5578,18.34815 29.7678,17.97765 C30.3933,16.88115 30.7503,15.60765 30.7503,14.24565 C30.7503,13.33665 30.5913,12.46815 30.2988,11.66415 Z"/>
</svg>
