<svg xmlns="http://www.w3.org/2000/svg" width="36" height="36" viewBox="0 0 36 36">
  <path fill="none" stroke="#000" d="M27.75,25.5 L27.75,6.75 L5.25,6.75 L5.25,26.253 C5.25,27.9075 6.5925,29.25 8.2485,29.25 L27.753,29.25 C29.4075,29.25 30.75,27.9075 30.75,26.253 L30.75,11.25 L27.75,11.25 M8.25,17.25 L14.25,17.25 L14.25,12.75 L8.25,12.75 L8.25,17.25 Z M16.5,15.75 L25.5,15.75 M16.5,12.74925 L25.5,12.74925 M7.5,9.74925 L25.5,9.74925 M16.5,20.25 L25.5,20.25 M16.5,23.25 L25.5,23.25 M7.5,20.25 L15,20.25 M7.5,23.25 L15,23.25 M7.5,26.25 L25.5,26.25"/>
</svg>
