<svg xmlns="http://www.w3.org/2000/svg" width="36" height="36" viewBox="0 0 36 36">
  <path fill="none" stroke="#000" d="M6,8.2503 L9.75,8.2503 L9.75,11.2308 L9.75,20.3583 L9.75,23.2503 L27,23.2503 M9.75,11.2503 L29.25,11.2503 L26.25,20.2638 L9.75,20.2503 M15.7368,27.74955 C15.7368,28.57905 15.0663,29.24955 14.2368,29.24955 C13.4088,29.24955 12.7368,28.57905 12.7368,27.74955 C12.7368,26.92155 13.4088,26.24955 14.2368,26.24955 C15.0663,26.24955 15.7368,26.92155 15.7368,27.74955 Z M24.75,27.74955 C24.75,28.57905 24.0795,29.24955 23.25,29.24955 C22.4205,29.24955 21.75,28.57905 21.75,27.74955 C21.75,26.92155 22.4205,26.24955 23.25,26.24955 C24.0795,26.24955 24.75,26.92155 24.75,27.74955 Z"/>
</svg>
