<svg xmlns="http://www.w3.org/2000/svg" width="36" height="36" viewBox="0 0 36 36">
  <path fill="none" stroke="#000" d="M20.25,26.99955 C20.25,28.24155 19.2435,29.24955 18,29.24955 C16.7565,29.24955 15.75,28.24155 15.75,26.99955 C15.75,25.75755 16.7565,24.74955 18,24.74955 C19.2435,24.74955 20.25,25.75755 20.25,26.99955 Z M3.32955,13.06815 C7.01805,9.18465 12.22005,6.75015 17.99955,6.75015 C23.78055,6.75015 28.98105,9.18465 32.67105,13.06815 M32.67045,13.06815 C28.98045,9.18465 23.77995,6.75015 18.00045,6.75015 C12.21945,6.75015 7.01895,9.18465 3.32895,13.06815 M6.58965,16.16415 C9.45915,13.14315 13.50465,11.25015 18.00015,11.25015 C22.49565,11.25015 26.54115,13.14315 29.41065,16.16415 M29.4111,16.16415 C26.5416,13.14315 22.4961,11.25015 18.0006,11.25015 C13.5051,11.25015 9.4596,13.14315 6.5901,16.16415 M9.85695,19.26675 C11.90745,17.10825 14.79645,15.75525 18.00945,15.75525 C21.21645,15.75525 24.10245,17.10525 26.15145,19.25775 M26.1519,19.2579 C24.1029,17.1039 21.2169,15.7554 18.0084,15.7554 C14.7969,15.7554 11.9064,17.1084 9.8574,19.2669 M13.11615,22.36185 C14.34615,21.06735 16.07265,20.24985 18.00015,20.24985 C19.92615,20.24985 21.65415,21.06735 22.88415,22.36185 M22.88385,22.36185 C21.65535,21.06735 19.92585,20.24985 17.99985,20.24985 C16.07235,20.24985 14.34585,21.06735 13.11585,22.36185"/>
</svg>
