<svg xmlns="http://www.w3.org/2000/svg" width="36" height="36" viewBox="0 0 36 36">
  <g fill="none" fill-rule="evenodd">
    <polygon fill="#000" points="20.212 13.5 24.328 17.556 19.21 17.556 19.21 13.5 16.79 13.5 16.79 17.556 11.701 17.556 15.817 13.5 12.757 13.5 7.499 18.75 12.757 24 15.817 24 11.701 19.971 16.79 19.971 16.79 24 19.21 24 19.21 19.971 24.328 19.971 20.212 24 23.27 24 28.499 18.75 23.27 13.5"/>
    <path stroke="#000" d="M3.75,9.5391 C3.75,6.3426 6.342,3.7506 9.5385,3.7506 L26.4615,3.7506 C29.658,3.7506 32.25,6.3426 32.25,9.5391 L32.25,26.4606 C32.25,29.6586 29.6565,32.2506 26.4615,32.2506 L9.5385,32.2506 C6.342,32.2506 3.75,29.6571 3.75,26.4606 L3.75,9.5391 Z"/>
  </g>
</svg>
