<svg xmlns="http://www.w3.org/2000/svg" width="36" height="36" viewBox="0 0 36 36">
  <path fill="none" stroke="#000" d="M15.75,9.7503 L15.7215,9.9033 L14.25,15.7503 M29.25,5.2503 L27.75,26.2503 L29.25,5.2503 Z M10.5,29.99955 C9.588,30.03705 9.1815,30.71805 7.5,30.74955 C5.2035,30.74955 3.75,27.74955 3.75,23.39355 C3.75,18.74955 6.1455,18.71955 7.5,18.74955 C9.2625,18.74955 8.907,19.49955 10.5,19.49955 C12.093,19.49955 11.7375,18.74955 13.5,18.74955 C14.8545,18.71955 17.25,18.74955 17.25,23.39355 C17.25,27.74955 15.7965,30.74955 13.5,30.74955 C11.8185,30.71805 11.412,30.03705 10.5,29.99955 Z M19.5,26.24955 L27.75,26.24955 L32.25,23.24955 L29.25,5.24955 L17.25,5.24955 L14.25,9.74955 L26.25,9.74955 L29.25,5.24955 M7.5,15.7503 C7.5,15.7503 10.5,16.5003 10.5,19.5003"/>
</svg>
