<svg xmlns="http://www.w3.org/2000/svg" width="36" height="36" viewBox="0 0 36 36">
  <path fill="none" stroke="#000" d="M3.75,30.75 L32.25,30.75 L32.25,8.25 L3.75,8.25 L3.75,30.75 Z M3.75,15.75 L32.25,15.75 M17.25,12 C17.25,12.414 16.914,12.75 16.5,12.75 C16.086,12.75 15.75,12.414 15.75,12 C15.75,11.586 16.086,11.25 16.5,11.25 C16.914,11.25 17.25,11.586 17.25,12 Z M12.75,12 C12.75,12.414 12.414,12.75 12,12.75 C11.586,12.75 11.25,12.414 11.25,12 C11.25,11.586 11.586,11.25 12,11.25 C12.414,11.25 12.75,11.586 12.75,12 Z M8.25,12 C8.25,12.414 7.914,12.75 7.5,12.75 C7.086,12.75 6.75,12.414 6.75,12 C6.75,11.586 7.086,11.25 7.5,11.25 C7.914,11.25 8.25,11.586 8.25,12 Z"/>
</svg>
