<svg xmlns="http://www.w3.org/2000/svg" width="36" height="36" viewBox="0 0 36 36">
  <path fill="none" stroke="#000" d="M8.25,29.25 L27.75,29.25 L27.75,6.75 L8.25,6.75 L8.25,29.25 Z M6,12.75 L10.5,12.75 M6,18.75 L10.5,18.75 M6,24.75 L10.5,24.75 M20.25,14.26545 C20.25,15.94545 19.2765,17.25045 18,17.25045 C16.7235,17.25045 15.75,15.92895 15.75,14.25045 C15.75,12.57045 16.7235,11.25045 18,11.25045 C19.2765,11.25045 20.25,12.58545 20.25,14.26545 Z M16.28325,16.1946 C14.23125,17.2146 12.75075,19.9716 12.75075,23.2506 L23.25075,23.2506 C23.25075,19.9746 21.77025,17.2176 19.72125,16.1961"/>
</svg>
