<svg xmlns="http://www.w3.org/2000/svg" width="36" height="36" viewBox="0 0 36 36">
  <path fill="none" stroke="#000" d="M21.75,29.99955 L21.75,21.74955 L15.75,21.74955 C12.4995,21.79455 12.75,29.99955 12.75,29.99955 M9.75,29.99955 L9.75,15.74955 L20.25,14.24955 L26.25,8.24955 L26.25,11.24955 L30.75,15.74955 L27.75,18.74955 L26.25,17.24955 L24.75,18.74955 L24.75,29.99955 M9.75,15.7503 C9.75,15.7503 3.75,15.8268 3.75,12.0138 M25.5,14.2503 C25.5,13.8363 25.164,13.5003 24.75,13.5003 C24.336,13.5003 24,13.8363 24,14.2503 C24,14.6643 24.336,15.0003 24.75,15.0003 C25.164,15.0003 25.5,14.6643 25.5,14.2503"/>
</svg>
