<svg xmlns="http://www.w3.org/2000/svg" width="36" height="36" viewBox="0 0 36 36">
  <path fill="none" stroke="#000" d="M3.75,11.2503 L8.25,11.2503 L8.25,20.2503 L15.75,14.2503 L15.75,20.2503 L23.25,14.2503 L23.25,20.2503 L30.75,14.2503 L30.75,30.7503 L3.75,30.7503 L3.75,11.2503 Z M8.25,26.25 L11.25,26.25 L11.25,24.75 L8.25,24.75 L8.25,26.25 Z M15.75,26.25 L18.75,26.25 L18.75,24.75 L15.75,24.75 L15.75,26.25 Z M23.25,26.25 L26.25,26.25 L26.25,24.75 L23.25,24.75 L23.25,26.25 Z M10.51545,4.33695 C10.11495,3.97245 9.58395,3.75045 9.00045,3.75045 C7.96095,3.75045 7.09545,4.45845 6.83595,5.41395 C6.57795,5.31045 6.29595,5.25045 6.00045,5.25045 C4.75695,5.25045 3.75045,6.25695 3.75045,7.50045 M15.75,7.5003 C15.75,6.2568 14.7435,5.2503 13.5,5.2503 C12.462,5.2503 11.595,5.9583 11.337,6.9138 C11.0775,6.8103 10.7955,6.7503 10.5,6.7503 C9.2565,6.7503 8.25,7.7568 8.25,9.0003"/>
</svg>
