<svg xmlns="http://www.w3.org/2000/svg" width="36" height="36" viewBox="0 0 36 36">
  <path fill="none" stroke="#000" d="M5.25,11.2503 L14.25,11.2503 L21.75,11.2503 L30.75,11.2503 L30.75,15.7503 L29.25,15.7503 L21.75,15.7503 L14.25,15.7503 L6.75,15.7503 L5.25,15.7503 L5.25,11.2503 Z M29.25,15.7503 L29.25,32.2503 L21.75,32.2503 L14.25,32.2503 L6.75,32.2503 L6.75,15.7503 M14.25,11.2503 L14.25,15.7503 L14.25,32.2503 M21.75,32.24955 L21.75,15.70155 L21.75,11.24955 M17.99415,11.2503 L18.00015,6.0003 C19.12365,1.7553 24.86415,4.2378 22.80015,7.8003 L20.25015,11.2503 M18,6.0003 C16.8645,1.7313 11.1705,4.1673 13.2,7.8003 L15.75,11.2503"/>
</svg>
