<svg xmlns="http://www.w3.org/2000/svg" width="36" height="36" viewBox="0 0 36 36">
  <path fill="none" stroke="#000" d="M26.25,21 C26.25,25.9695 22.2195,30 17.25,30 C12.2805,30 8.25,25.9695 8.25,21 L8.25,15.75 L26.25,15.75 L26.25,21 Z M6,30.75 L28.5,30.75 L6,30.75 Z M26.25,18.75 L28.5,18.75 C29.742,18.75 30.75,19.758 30.75,21 C30.75,22.242 29.742,23.25 28.5,23.25 L25.965,23.25 L26.25,18.75 Z M17.25,4.5 L17.25,10.5 L17.25,4.5 Z M21.75,6 L21.75,12 L21.75,6 Z M12.74925,6 L12.74925,12 L12.74925,6 Z"/>
</svg>
