<svg xmlns="http://www.w3.org/2000/svg" width="36" height="36" viewBox="0 0 36 36">
  <path fill="none" stroke="#000" d="M31.7109,7.2891 L27.7494,11.2506 L24.7494,11.2506 L24.7494,8.2506 L28.7109,4.2891 C27.9579,3.9501 27.1284,3.7506 26.2494,3.7506 C22.9359,3.7506 20.2494,6.4371 20.2494,9.7506 C20.2494,10.6296 20.4489,11.4576 20.7894,12.2106 L12.2109,20.7891 C11.4579,20.4486 10.6284,20.2506 9.7494,20.2506 C6.4359,20.2506 3.7494,22.9371 3.7494,26.2506 C3.7494,27.1296 3.9489,27.9576 4.2894,28.7106 L8.2494,24.7506 L11.2494,24.7506 L11.2494,27.7506 L7.2894,31.7106 C8.0424,32.0511 8.8704,32.2506 9.7494,32.2506 C13.0629,32.2506 15.7494,29.5641 15.7494,26.2506 C15.7494,25.3716 15.5514,24.5421 15.2109,23.7891 L23.7894,15.2106 C24.5424,15.5496 25.3704,15.7506 26.2494,15.7506 C29.5629,15.7506 32.2494,13.0641 32.2494,9.7506 C32.2494,8.8716 32.0514,8.0421 31.7109,7.2891 Z"/>
</svg>
