<svg xmlns="http://www.w3.org/2000/svg" width="36" height="36" viewBox="0 0 36 36">
  <path fill="none" stroke="#000" d="M15,20.25 C15.414,20.25 15.75,20.586 15.75,21 C15.75,21.414 15.414,21.75 15,21.75 C14.586,21.75 14.25,21.414 14.25,21 C14.25,20.586 14.586,20.25 15,20.25 Z M15,17.25 C17.0715,17.25 18.75,18.9285 18.75,21 C18.75,23.0715 17.0715,24.75 15,24.75 C12.9285,24.75 11.25,23.0715 11.25,21 C11.25,18.9285 12.9285,17.25 15,17.25 Z M15,12.75 C19.5555,12.75 23.25,16.443 23.25,21 C23.25,25.5555 19.5555,29.25 15,29.25 C10.443,29.25 6.75,25.5555 6.75,21 C6.75,16.443 10.443,12.75 15,12.75 Z M15,21 L25.5,10.5 L15,21 Z M21.75,14.25 L21.75,9 L21.75,14.25 Z M27,14.25 L21.75,14.25 L27,14.25 Z M30,11.25 L24.75,11.25 L24.75,6"/>
</svg>
