<?xml version="1.0" ?>
<svg height="16" viewBox="0 0 21 17" width="21" xmlns="http://www.w3.org/2000/svg">
  <path d="M7.9976,2C7.9976,2.552 7.5496,3 6.9976,3C6.4456,3 5.9976,2.552 5.9976,2C5.9976,1.447 6.4456,1 6.9976,1C7.5496,1 7.9976,1.447 7.9976,2ZM17.5,2L14.5,2C13.779,2 13.094,2.311 12.619,2.854L6.365,10L3.5,10C2.122,10 1,11.121 1,12.5C1,13.878 2.122,15 3.5,15L7.5,15C8.221,15 8.907,14.689 9.381,14.146L15.634,7L17.5,7C18.879,7 20,5.878 20,4.5C20,3.122 18.879,2 17.5,2ZM5.9981,9.9995L5.9981,4.9995L7.9981,4.9995L7.9981,8.1335" fill="none" stroke="#000000" stroke-width="1"/>
</svg>
