<svg xmlns="http://www.w3.org/2000/svg" width="48" height="48" viewBox="0 0 48 48">
  <path fill="none" stroke="#000" d="M12.5,39.5 L36.5,39.5 L36.5,9.5 L12.5,9.5 L12.5,39.5 Z M30.4697,9.5 L28.6447,5.757 L20.9707,9.5 L30.4697,9.5 Z M18.3994,39.5 L20.2244,43.242 L27.8974,39.5 L18.3994,39.5 Z M36.5,35.3037 L41.796,32.7217 L36.5,21.8647 L36.5,35.3037 Z M21.3170681,16.9816985 C23.0738074,17.9049682 24.4995,20.540719 24.4995,23.5004 L15.4995,23.5004 C15.4995,20.5384 16.9285,17.9034 18.6875,16.9814 C18.3055767,16.617969 18.0717,16.0924455 18.0717,15.4997 C18.0717,14.3797 18.9067,13.4997 19.9997,13.4997 C21.0937,13.4997 21.9287,14.3907 21.9287,15.5107 C21.9287,16.10053 21.6967042,16.6211781 21.3170681,16.9816985 Z M12.5,13.6318 L12.5,27.4038 L7.073,16.2778 L12.5,13.6318 Z M27,23.5 L34,23.5 L27,23.5 Z M27,19.5 L34,19.5 L27,19.5 Z M27,15.5 L34,15.5 L27,15.5 Z M15,27.5 L34,27.5 L15,27.5 Z M15,31.5 L34,31.5 L15,31.5 Z M17,35.5 L19,35.5 L17,35.5 Z M20,35.5 L22,35.5 L20,35.5 Z M23,35.5 L25,35.5 L23,35.5 Z"/>
</svg>
