<svg xmlns="http://www.w3.org/2000/svg" width="36" height="36" viewBox="0 0 36 36">
  <path fill="none" stroke="#000" d="M26.25,12.02235 C26.25,7.46535 22.5555,3.77235 18,3.77235 C13.443,3.77235 9.75,7.46535 9.75,12.02235 C9.8055,13.43685 10.224,14.62635 10.899,15.74985 L18.024,26.99835 L25.149,15.74985 C25.8135,14.58585 26.238,13.37235 26.25,12.02235 Z M13.2027,23.51175 C7.6782,24.13725 3.7497,25.80975 3.7497,27.74925 C3.7497,30.21675 10.0977,32.24925 17.9997,32.24925 C25.9032,32.24925 32.2497,30.21675 32.2497,27.74925 C32.2497,25.82475 28.3797,24.16275 22.9227,23.52675 M10.1799,14.2503 L13.4994,14.2503 L15.7494,8.2503 L17.9994,17.2503 L20.2494,11.2503 L21.7494,14.2353 L25.8504,14.2353"/>
</svg>
