<svg xmlns="http://www.w3.org/2000/svg" width="36" height="36" viewBox="0 0 36 36">
  <path fill="none" stroke="#000" d="M27.75,13.5 L27.75,10.95 L20.25,6.9 L12.75,12.9 L5.25,7.5 L5.25,20.625 L12.75,26.1 L20.25,20.1 L21.45,21.45 M12.75,12.90015 L12.75,26.10015 M20.25,6.90015 L20.25,20.10015 M30.74565,19.78275 C30.74565,17.55525 29.06865,15.75075 27.00015,15.75075 C24.93315,15.75075 23.25615,17.55525 23.25615,19.78275 C23.28015,20.47425 23.47065,21.05625 23.77665,21.60525 L27.01215,27.10275 L30.24465,21.60525 C30.54615,21.03525 30.73965,20.44275 30.74565,19.78275 Z M27.75,19.5 C27.75,19.9095 27.417,20.25 27.0075,20.25 C26.598,20.25 26.25,19.9095 26.25,19.5 C26.25,19.0905 26.5905,18.75 27,18.75 C27.4095,18.75 27.75,19.0905 27.75,19.5 Z"/>
</svg>
