<svg xmlns="http://www.w3.org/2000/svg" width="36" height="36" viewBox="0 0 36 36">
  <path fill="none" stroke="#000" d="M14.2464,8.2503 C14.2464,9.0783 13.5744,9.7503 12.7464,9.7503 C11.9184,9.7503 11.2464,9.0783 11.2464,8.2503 C11.2464,7.4208 11.9184,6.7503 12.7464,6.7503 C13.5744,6.7503 14.2464,7.4208 14.2464,8.2503 Z M28.5,8.2503 L24,8.2503 C22.9185,8.2503 21.891,8.7168 21.1785,9.5313 L11.7975,20.2503 L7.5,20.2503 C5.433,20.2503 3.75,21.9318 3.75,24.0003 C3.75,26.0673 5.433,27.7503 7.5,27.7503 L13.5,27.7503 C14.5815,27.7503 15.6105,27.2838 16.3215,26.4693 L25.701,15.7503 L28.5,15.7503 C30.5685,15.7503 32.25,14.0673 32.25,12.0003 C32.25,9.9333 30.5685,8.2503 28.5,8.2503 Z M11.24715,20.24955 L11.24715,12.74955 L14.24715,12.74955 L14.24715,17.45055"/>
</svg>
