<svg xmlns="http://www.w3.org/2000/svg" width="36" height="36" viewBox="0 0 36 36">
  <path fill="none" stroke="#000" d="M26.25,11.24955 L26.25,14.99955 M29.2515,8.2503 L29.2515,6.0003 M6.74925,8.2503 L6.74925,6.0003 M29.25,14.24955 C29.25,15.92355 27.924,17.24955 26.25,17.24955 C24.5775,17.24955 23.25,15.92355 23.25,14.24955 C23.25,12.57555 24.5775,11.24955 26.25,11.24955 C27.924,11.24955 29.25,12.57555 29.25,14.24955 Z M3.75,29.25 L32.25,29.25 L32.25,8.25 L3.75,8.25 L3.75,29.25 Z M6,11.2503 L21,11.2503 M6,14.2503 L21,14.2503 M6,17.2503 L21,17.2503 M6,20.25105 L21,20.25105 M6,23.25105 L21,23.25105 M6,26.25105 L21,26.25105"/>
</svg>
