<svg xmlns="http://www.w3.org/2000/svg" width="36" height="36" viewBox="0 0 36 36">
  <path fill="none" stroke="#000" d="M14.25,3.74955 C18.3915,3.74955 21.75,7.10805 21.75,11.24955 C21.75,15.39255 18.3915,18.74955 14.25,18.74955 C10.1085,18.74955 6.75,15.39255 6.75,11.24955 C6.75,7.10805 10.1085,3.74955 14.25,3.74955 Z M14.25,16.49955 L14.25,5.99955 M9,11.24955 L19.5,11.24955 M13.29195,25.542 L6.18945,20.58 C5.54295,20.0625 4.59945,20.1645 4.08045,20.811 C3.56145,21.456 3.66495,22.401 4.31145,22.92 L13.19895,30.75 L19.11345,30.75 L20.62545,32.25 L31.80045,32.25 L24.25845,24.654 C22.55295,23.013 20.38245,21.792 18.16395,21.75 L15.00045,21.75 C12.02295,21.75 11.95245,26.25 15.00045,26.25 L18.00045,26.25"/>
</svg>
