<svg xmlns="http://www.w3.org/2000/svg" width="36" height="36" viewBox="0 0 36 36">
  <g fill="none" fill-rule="evenodd">
    <path stroke="#000" d="M3,30.74955 L14.25,30.74955 L21.741,30.74955 L33,30.74955 M3,6.74955 L33,6.74955 M5.25,30.74955 L5.25,6.74955 M30.75,30.74955 L30.75,6.74955 M6.75,6.75 L29.25,6.75 L29.25,3.75 L6.75,3.75 L6.75,6.75 Z M20.25,8.99955 L20.25,16.49955 M15.75,8.99955 L15.75,16.49955 M15.75,12.74955 L20.25,12.74955 M14.25,30.74955 L14.25,26.24955 L21.75,26.24955 L21.741,30.74955"/>
    <path fill="#000" d="M10.5,17.99955 L11.25,20.40105 L13.5,20.40105 L11.7,21.59955 L12.45,23.99955 L10.5,22.65105 L8.55,23.99955 L9.3,21.74955 L7.5,20.40105 L9.75,20.40105 L10.5,17.99955 Z M18,17.99955 L18.75,20.24955 L21,20.24955 L19.2,21.59955 L19.95,23.99955 L18,22.65105 L16.05,23.99955 L16.8,21.74955 L15,20.40105 L17.25,20.40105 L18,17.99955 Z M25.5,17.99955 L26.25,20.24955 L28.5,20.24955 L26.7,21.59955 L27.45,23.99955 L25.5,22.65105 L23.55,23.99955 L24.3,21.74955 L22.5,20.40105 L24.75,20.40105 L25.5,17.99955 Z"/>
  </g>
</svg>
