<svg xmlns="http://www.w3.org/2000/svg" width="36" height="36" viewBox="0 0 36 36">
  <path fill="none" stroke="#000" d="M4.125,30.375 L21.375,30.375 L21.375,5.625 L4.125,5.625 L4.125,30.375 Z M25.31835,9.0003 L28.49985,5.8173 L31.68135,9.0003 M31.68165,27.00105 L28.50015,30.18255 L25.31865,27.00105 M14.24925,9.7503 C14.24925,10.5783 13.57725,11.2503 12.74925,11.2503 C11.92125,11.2503 11.24925,10.5783 11.24925,9.7503 C11.24925,8.9208 11.92125,8.2503 12.74925,8.2503 C13.57725,8.2503 14.24925,8.9208 14.24925,9.7503 Z M15.74925,21.74955 L15.74925,14.24955 L9.74925,14.24955 L9.74925,21.74955 L11.24925,21.74955 L11.24925,27.74955 L14.24925,27.74955 L14.24925,21.74955 L15.74925,21.74955 Z"/>
</svg>
