<svg xmlns="http://www.w3.org/2000/svg" width="36" height="36" viewBox="0 0 36 36">
  <g fill="none" fill-rule="evenodd">
    <path stroke="#000" d="M3.75,18.0003 C3.765,10.1073 10.3275,3.7353 18.4935,3.7503 C24.234,3.7608 29.4345,6.8838 31.8555,11.9148 C32.0145,12.2478 32.1465,12.5928 32.25,12.9438 M32.25,6.0003 L32.25,12.7503 L25.5,12.7503 M32.25,18.0003 C32.2185,25.9023 25.7085,32.2803 17.562,32.2503 C11.877,32.2293 6.5715,28.9623 4.143,23.9763 C3.9855,23.6433 3.8535,23.2998 3.75,22.9473 M3.75,29.99955 L3.75,23.24955 L10.5,23.24955"/>
    <path fill="#000" d="M13.7088,18.6471 L13.7088,18.5766 L13.7088,18.1626 C13.7088,18.0606 13.7148,17.8221 13.7298,17.4456 L13.7403,17.3736 L12.0678,17.3736 L12.6123,16.1211 L13.8828,16.1211 C13.9998,15.4416 14.1663,14.8041 14.3853,14.2116 C15.2943,11.7261 16.9563,10.4841 19.3683,10.4841 C21.0708,10.4841 22.6173,11.0196 24.0033,12.0906 L23.2758,13.7271 C22.6608,13.3236 22.1868,13.0236 21.8493,12.8286 C21.0288,12.3636 20.1918,12.1311 19.3383,12.1311 C17.7723,12.1311 16.6893,13.0431 16.0878,14.8686 C15.9378,15.3201 15.8313,15.7371 15.7698,16.1211 L22.2093,16.1211 L21.6453,17.3736 L15.5958,17.3736 C15.5823,17.7441 15.5748,18.0246 15.5748,18.2121 C15.5748,18.3066 15.5793,18.4521 15.5853,18.6471 L21.0903,18.6471 L20.5278,19.8996 L15.7293,19.8996 C15.8523,20.5941 16.0563,21.2406 16.3443,21.8406 C16.6923,22.5486 17.1093,23.0556 17.5953,23.3661 C18.1008,23.6886 18.7068,23.8506 19.4103,23.8506 C19.9923,23.8506 20.5083,23.7696 20.9583,23.6091 C21.4098,23.4456 22.1808,23.0691 23.2758,22.4766 L23.2758,24.4881 C22.9683,24.6621 22.7808,24.7671 22.7103,24.8016 C21.7068,25.2996 20.5578,25.5486 19.2663,25.5486 C16.2243,25.5486 14.4093,23.6661 13.8213,19.8996 L12.0678,19.8996 L12.6123,18.6471 L13.7088,18.6471 Z"/>
  </g>
</svg>
