<svg xmlns="http://www.w3.org/2000/svg" width="36" height="36" viewBox="0 0 36 36">
  <path fill="none" stroke="#000" d="M5.25,26.25 L21.75,26.25 L21.75,3.75 L5.25,3.75 L5.25,26.25 Z M6.75,32.25 L20.25,32.25 L20.25,26.25 L6.75,26.25 L6.75,32.25 Z M7.49925,6.7503 L19.49925,6.7503 M18.75,10.5003 L18.75,15.0003 M8.25,17.25 L15.75,17.25 L15.75,11.25 L8.25,11.25 L8.25,17.25 Z M24.75,26.25 L32.25,26.25 L32.25,14.25 L24.75,14.25 L24.75,26.25 Z M27,23.24955 L30,23.24955 M27,20.24955 L30,20.24955 M8.25,21.75 L15.75,21.75 L15.75,20.25 L8.25,20.25 L8.25,21.75 Z"/>
</svg>
