<svg xmlns="http://www.w3.org/2000/svg" width="36" height="36" viewBox="0 0 36 36">
  <path fill="none" stroke="#000" d="M9.74925,8.2503 C9.74925,9.0783 9.07725,9.7503 8.24925,9.7503 C7.42125,9.7503 6.74925,9.0783 6.74925,8.2503 C6.74925,7.4208 7.42125,6.7503 8.24925,6.7503 C9.07725,6.7503 9.74925,7.4208 9.74925,8.2503 Z M11.24925,20.24955 L11.24925,12.74955 L5.24925,12.74955 L5.24925,20.24955 L6.74925,20.24955 L6.74925,29.24955 L9.74925,29.24955 L9.74925,20.24955 L11.24925,20.24955 Z M27.75,23.24955 L27.75,29.24955 L24.75,29.24955 L24.75,23.24955 M27.75,8.2503 C27.75,9.0783 27.0795,9.7503 26.25,9.7503 C25.422,9.7503 24.75,9.0783 24.75,8.2503 C24.75,7.4208 25.422,6.7503 26.25,6.7503 C27.0795,6.7503 27.75,7.4208 27.75,8.2503 Z M30.75,23.24955 L27.75,12.74955 L24.75,12.74955 L21.75,23.24955 L30.75,23.24955 Z M17.25,6.0003 L17.25,30.0003"/>
</svg>
