<svg xmlns="http://www.w3.org/2000/svg" viewBox="0 0 48 48"><path d="M23.5 16a3.5 3.5 0 1 0-3.5-3.5 3.504 3.504 0 0 0 3.5 3.5zm0-6a2.5 2.5 0 1 1-2.5 2.5 2.502 2.502 0 0 1 2.5-2.5z"/><path d="M23.499 22.427l4.768-7.42A5.075 5.075 0 0 0 29 12.506V12.5a5.5 5.5 0 1 0-11 .02 5.165 5.165 0 0 0 .774 2.51zM23.5 8a4.506 4.506 0 0 1 4.5 4.497 4.022 4.022 0 0 1-.589 1.992l-3.91 6.084-3.876-6.07A4.1 4.1 0 0 1 19 12.5 4.505 4.505 0 0 1 23.5 8zM0 24h20.728L10.044 47.795l.912.41L22.272 23H0v1zM48 23H24.728l11.316 25.205.912-.41L26.272 24H48v-1zM23 26h1v3h-1zM23 31h1v6h-1zM23 40h1v8h-1z"/></svg>
