<svg xmlns="http://www.w3.org/2000/svg" viewBox="0 0 48 48"><path d="M36 16h-1v2h-2v1h2v2h1v-2h2v-1h-2v-2z"/><path d="M39 13H9a2 2 0 0 0-2 2v18a2 2 0 0 0 2 2h30a2 2 0 0 0 2-2V15a2 2 0 0 0-2-2zm1 20a1.001 1.001 0 0 1-1 1H9a1.001 1.001 0 0 1-1-1V15a1.001 1.001 0 0 1 1-1h30a1.001 1.001 0 0 1 1 1z"/><path d="M19.31 24.486a4.5 4.5 0 1 0-5.62 0C11.06 26.651 10 28.663 10 31.5v.5h13v-.5c0-2.807-1.092-4.878-3.69-7.014zM13 21a3.5 3.5 0 1 1 3.5 3.5A3.504 3.504 0 0 1 13 21zm-1.987 10c.125-2.325 1.171-4.048 3.562-5.95a4.349 4.349 0 0 0 3.85 0c2.392 1.893 3.437 3.616 3.562 5.95zM25 25h7v1h-7zM25 28h9v1h-9zM25 31h6v1h-6z"/></svg>
