<svg xmlns="http://www.w3.org/2000/svg" width="24" height="24" viewBox="0 0 24 24">
  <path fill="none" stroke="#000" d="M16.5,8 C16.5,10.507 14.507,12.5 12,12.5 C9.493,12.5 7.5,10.507 7.5,8 C7.5,5.493 9.493,3.5 12,3.5 C14.507,3.5 16.5,5.493 16.5,8 Z M13.5,7.9771 C13.5,8.8181 12.861,9.5001 12.005,9.5001 C11.149,9.5001 10.5,8.8181 10.5,7.9771 C10.5,7.1361 11.149,6.5001 12.005,6.5001 C12.861,6.5001 13.5,7.1361 13.5,7.9771 Z M9.5,11.7539 L9.5,18.7999 L12,21.2999 L14.5,18.7999 L14.5,11.7539 M12,14.5 L14.5,14.5 M11.9932,16.5 L14.5002,16.5"/>
</svg>
