<svg xmlns="http://www.w3.org/2000/svg" width="24" height="24" viewBox="0 0 24 24">
  <path fill="none" stroke="#000" d="M9.0703,12.6794 C6.1703,13.7804 4.5003,17.2004 4.5003,20.4994 L17.5003,20.4994 C17.5003,17.2004 15.8083,13.8004 12.9083,12.7004 M11,6.4997 C12.657,6.4997 14,8.0667 14,9.9997 C14,11.9327 12.657,13.4997 11,13.4997 C9.343,13.4997 8,11.9327 8,9.9997 C8,8.0667 9.343,6.4997 11,6.4997 Z M11,6.4997 C12.657,6.4997 14,8.0667 14,9.9997 C14,11.9327 12.657,13.4997 11,13.4997 C9.343,13.4997 8,11.9327 8,9.9997 C8,8.0667 9.343,6.4997 11,6.4997 Z M11,6.4997 C11,4.5997 12.3,3.4997 14,3.4997 C15.7,3.4997 17,5.0997 17,6.9997 C17,8.8997 15.7,10.4997 14,10.4997 M17,17.4997 L20.5,17.4997 C20.5,14.1997 18.769,10.8447 15.869,9.7447"/>
</svg>
