<svg xmlns="http://www.w3.org/2000/svg" width="24" height="24" viewBox="0 0 24 24">
  <path fill="none" stroke="#000" d="M5.5,9 C5.5,6.515 7.515,4.5 10,4.5 L14,4.5 C16.485,4.5 18.5,6.515 18.5,9 L18.5,21.5 L5.5,21.5 L5.5,9 Z M14.5059,4.5 L14.4999,4 C14.4999,3.171 13.8279,2.5 12.9999,2.5 L11.0039,2.5 C10.1759,2.5 9.5039,3.171 9.5039,4 L9.4999,4.5 M7.5039,15 C7.5039,14.171 8.1759,13.5 9.0039,13.5 L14.9999,13.5 C15.8279,13.5 16.4999,14.171 16.4999,15 M16.5,15 L16.5,19.5 L7.5,19.5 L7.5,15 M9,15.5 L15,15.5 M13.5,17 L13.5,15.5"/>
</svg>
