<svg xmlns="http://www.w3.org/2000/svg" width="24" height="24" viewBox="0 0 24 24">
  <path fill="none" stroke="#000" d="M5.2808,11.8755 L8.7188,9.1245 L5.2808528,11.8754577 C5.4179661,12.0466252 5.5,12.2637908 5.5,12.5 C5.5,13.053 5.052,13.5 4.5,13.5 C3.948,13.5 3.5,13.053 3.5,12.5 C3.5,11.948 3.948,11.5 4.5,11.5 C4.81579083,11.5 5.09754442,11.6466219 5.2808528,11.8754577 Z M18.918763,4.31397183 L15.0811,9.6865 L18.9191,4.3135 C18.6651032,4.13254124 18.5,3.83547726 18.5,3.5 C18.5,2.948 18.947,2.5 19.5,2.5 C20.053,2.5 20.5,2.948 20.5,3.5 C20.5,4.052 20.053,4.5 19.5,4.5 C19.283085,4.5 19.0824793,4.43107022 18.918763,4.31397183 Z M8.5,21.5 L8.5,13.504 L10.5,13.504 L10.5,21.5 L8.5,21.5 Z M13.5,21.5 L13.5,15.504 L15.5,15.504 L15.5,21.5 L13.5,21.5 Z M10.4287,8.8716 L13.5717,10.1286 L10.4287,8.8716 Z M18.5,21.5 L18.5,9.504 L20.5,9.504 L20.5,21.5 L3.5,21.5 L3.5,17.504 L5.5,17.504 L5.5,21.5 L18.5,21.5 Z M10.5,8.5 C10.5,9.052 10.052,9.5 9.5,9.5 C8.948,9.5 8.5,9.052 8.5,8.5 C8.5,7.948 8.948,7.5 9.5,7.5 C10.052,7.5 10.5,7.948 10.5,8.5 Z M15.5,10.5 C15.5,11.052 15.053,11.5 14.5,11.5 C13.947,11.5 13.5,11.052 13.5,10.5 C13.5,9.948 13.947,9.5 14.5,9.5 C15.053,9.5 15.5,9.948 15.5,10.5 Z"/>
</svg>
