<svg xmlns="http://www.w3.org/2000/svg" width="24" height="24" viewBox="0 0 24 24">
  <path fill="none" stroke="#000" d="M5.5,19.5 L18.5,19.5 L18.5,4.5 L5.5,4.5 L5.5,19.5 Z M4,8.5 L7,8.5 M4,12.5 L7,12.5 M4,16.5 L7,16.5 M13.5,9.5103 C13.5,10.6303 12.851,11.5003 12,11.5003 C11.149,11.5003 10.5,10.6193 10.5,9.5003 C10.5,8.3803 11.149,7.5003 12,7.5003 C12.851,7.5003 13.5,8.3903 13.5,9.5103 Z M10.8555,10.7964 C9.4875,11.4764 8.5005,13.3144 8.5005,15.5004 L15.5005,15.5004 C15.5005,13.3164 14.5135,11.4784 13.1475,10.7974"/>
</svg>
