<svg xmlns="http://www.w3.org/2000/svg" width="24" height="24" viewBox="0 0 24 24">
  <path fill="none" stroke="#000" d="M13.3437,5.1277 C12.9957,4.1747 12.0797,3.5007 10.9947,3.5007 C10.1697,3.5007 9.4497,3.8957 8.9967,4.5027 C8.5427,3.8957 7.8217,3.5007 6.9957,3.5007 C5.6087,3.5007 4.4937,4.6037 4.4937,5.9827 C4.4937,6.4157 4.6037,6.8207 4.7967,7.1737 C4.9057,7.3747 5.0357,7.5577 5.1927,7.7187 L8.9957,11.5007 L12.7937,7.7237 C12.8837,7.6157 13.0967,7.3417 13.1667,7.2197 C13.3747,6.8557 13.4937,6.4347 13.4937,5.9827 C13.4937,5.6817 13.4417,5.3947 13.3437,5.1277 Z M8.8613,17.028 L4.1263,13.72 C3.6953,13.375 3.0663,13.443 2.7203,13.874 C2.3743,14.304 2.4433,14.934 2.8743,15.28 L8.7993,20.5 L12.7423,20.5 L13.7503,21.5 L21.2003,21.5 L16.1723,16.436 C15.0353,15.342 13.5883,14.528 12.1093,14.5 L10.0003,14.5 C8.0153,14.5 7.9683,17.5 10.0003,17.5 L12.0003,17.5"/>
</svg>
