<svg xmlns="http://www.w3.org/2000/svg" width="24" height="24" viewBox="0 0 24 24">
  <path fill="none" stroke="#000" d="M20.1992,7.7761 C19.5032,5.8571 17.6702,4.5001 15.5002,4.5001 C13.8482,4.5001 12.4092,5.2971 11.5032,6.5181 C10.5942,5.2971 9.1512,4.5001 7.5002,4.5001 C4.7232,4.5001 2.4942,6.7211 2.4942,9.4971 C2.4942,10.3671 2.7132,11.1841 3.0992,11.8941 C3.3182,12.2971 3.5792,12.6651 3.8912,12.9901 L11.5002,20.6001 L19.0992,13.0001 C19.2792,12.7821 19.7052,12.2321 19.8452,11.9851 C20.2622,11.2541 20.5002,10.4051 20.5002,9.4971 C20.5002,8.8911 20.3942,8.3121 20.1992,7.7761 Z"/>
</svg>
