<svg xmlns="http://www.w3.org/2000/svg" width="24" height="24" viewBox="0 0 24 24">
  <path fill="none" stroke="#000" d="M4,5.5002 L6.5,5.5002 L6.5,7.4872 L6.5,13.5722 L6.5,15.5002 L18,15.5002 M6.5,7.5002 L19.5,7.5002 L17.5,13.5092 L6.5,13.5002 M10.4912,18.4997 C10.4912,19.0527 10.0442,19.4997 9.4912,19.4997 C8.9392,19.4997 8.4912,19.0527 8.4912,18.4997 C8.4912,17.9477 8.9392,17.4997 9.4912,17.4997 C10.0442,17.4997 10.4912,17.9477 10.4912,18.4997 Z M16.5,18.4997 C16.5,19.0527 16.053,19.4997 15.5,19.4997 C14.947,19.4997 14.5,19.0527 14.5,18.4997 C14.5,17.9477 14.947,17.4997 15.5,17.4997 C16.053,17.4997 16.5,17.9477 16.5,18.4997 Z"/>
</svg>
