<?xml version="1.0" ?>
<svg xmlns="http://www.w3.org/2000/svg" width="24" height="24" viewBox="0 0 24 24" fill="#767676">
    <path d="M14 13h-1V6.5c0-.3-.2-.5-.5-.5s-.5.2-.5.5v6h-1v-6c0-.8.7-1.5 1.5-1.5s1.5.7 1.5 1.5V13z"></path>
    <path d="M16.9 21H9.2l-.1-.2S5.7 15 5.4 14.5c-.6-1-.3-1.7.1-2 .5-.6 1.5-.6 2.1-.1L9 13.9V7.5c0-.8.7-1.5 1.5-1.5s1.5.7 1.5 1.5V13h-1V7.5c0-.3-.2-.5-.5-.5s-.5.2-.5.5v8.8l-3.1-3.1c-.2-.2-.5-.2-.7 0-.1.1-.3.2.1.8.3.5 2.9 4.9 3.6 6h6.5c.2-.5.7-1.9.7-4v-3.5c-.1-.3-.3-.5-.6-.5s-.5.2-.5.5h-1c0-.8.7-1.5 1.5-1.5s1.5.7 1.5 1.5V16c0 3-.9 4.7-1 4.8l-.1.2z"></path>
    <path d="M16 13h-1v-1.5c0-.3-.2-.5-.5-.5s-.5.2-.5.5h-1c0-.8.7-1.5 1.5-1.5s1.5.7 1.5 1.5V13zM7.6 9.4C7.2 8.8 7 8.2 7 7.5 7 5.7 8.3 4.3 10 4c.7-.7 1.6-1 2.5-1C14.4 3 16 4.6 16 6.5c0 .7-.2 1.4-.6 1.9l-.8-.5c.3-.4.4-.9.4-1.4C15 5.1 13.9 4 12.5 4c-.7 0-1.4.3-1.9.9l-.1.1h-.2C9 5.1 8 6.2 8 7.5c0 .5.1 1 .4 1.4l-.8.5z"></path>
</svg>
