<?xml version="1.0" ?>
<svg height="17" viewBox="0 0 17 18" width="17" xmlns="http://www.w3.org/2000/svg">
  <path d="M0.5833,16.0208L4.1458,16.0208L4.1458,13.6458L7.3125,13.6458L7.3125,11.2708L10.4792,11.2708L10.4792,8.8958L13.6458,8.8958L13.6458,6.5208L16.4167,6.5208M5.7292,8.1042L5.7292,10.4792L4.9375,13.6458M8.1042,11.2708L8.1042,9.2917L7.3125,8.1042M7.3125,4.1458L7.3125,8.1042L5.7292,8.1042L5.7292,4.1292M4.1458,7.7083L4.1458,5.7292L5.7292,4.1458L7.3125,4.1458L8.1042,5.7292L9.2917,7.3125M6.5208,2.5625C6.0989,2.5625 5.7292,2.1928 5.7292,1.7708C5.7292,1.3489 6.0989,0.9792 6.5208,0.9792C6.9428,0.9792 7.3125,1.3489 7.3125,1.7708C7.3125,2.1928 6.9428,2.5625 6.5208,2.5625Z" fill="none" stroke="#000000" stroke-width="1"/>
</svg>
