<?xml version="1.0" ?>
<svg height="14" viewBox="0 0 17 15" width="17" xmlns="http://www.w3.org/2000/svg">
    <path d="M1.1771,14.0313L10.2813,14.0313L10.2813,0.9688L1.1771,0.9688L1.1771,14.0313ZM12.3625,2.7502L14.0416,1.0702L15.7207,2.7502M15.7209,12.2506L14.0417,13.9297L12.3626,12.2506M6.5204,3.146C6.5204,3.583 6.1658,3.9377 5.7288,3.9377C5.2918,3.9377 4.9371,3.583 4.9371,3.146C4.9371,2.7082 5.2918,2.3543 5.7288,2.3543C6.1658,2.3543 6.5204,2.7082 6.5204,3.146ZM7.3121,9.4789L7.3121,5.5206L4.1454,5.5206L4.1454,9.4789L4.9371,9.4789L4.9371,12.6456L6.5204,12.6456L6.5204,9.4789L7.3121,9.4789Z"
          fill="none" stroke="#000000" stroke-width="1"/>
</svg>
