<?xml version="1.0" ?>
<svg height="14" viewBox="0 0 17 15" width="17" xmlns="http://www.w3.org/2000/svg">
  <path d="M3.3542,13.0208L16.0208,9.0625L16.0208,13.0208L3.3542,13.0208ZM2.5625,8.2708L2.5625,13.4167M4.9375,12.526L4.9375,9.8542L4.1458,8.2708M4.1458,4.3125L4.1458,8.2708L2.5625,8.2708L2.5625,4.3125M0.9792,7.875L0.9792,5.8958L2.5625,4.3125L4.1458,4.3125L4.9375,5.8958L6.125,7.4792M3.3542,2.7292C2.9322,2.7292 2.5625,2.3595 2.5625,1.9375C2.5625,1.5155 2.9322,1.1458 3.3542,1.1458C3.7761,1.1458 4.1458,1.5155 4.1458,1.9375C4.1458,2.3595 3.7761,2.7292 3.3542,2.7292Z" fill="none" stroke="#000000" stroke-width="1"/>
</svg>
