<svg xmlns="http://www.w3.org/2000/svg" width="48" height="48" viewBox="0 0 48 48">
  <g fill="none" fill-rule="evenodd">
    <polyline stroke="#000" points="4 41.5 19 41.5 28.988 41.5 44 41.5"/>
    <polygon stroke="#000" points="9.5 7.5 44.5 7.5 44.5 5.5 9.5 5.5"/>
    <polygon stroke="#000" points="32.5 37.5 32.5 31.5 38.5 31.5 38.482 37.5"/>
    <polygon stroke="#000" points="32.5 27.5 32.5 21.5 38.5 21.5 38.482 27.5"/>
    <polyline stroke="#000" points="17 21.5 28.5 21.5 28.464 27.5 22.991 27.5"/>
    <polyline stroke="#000" points="21.95 31.5 28.5 31.5 28.464 37.5 15 37.5"/>
    <path stroke="#000" d="M11.5 41.5L11.5 27.429M11.498 31.9873L15.474 29.0123M11.5 34.4307L9.639 32.5697"/>
    <polygon stroke="#000" points="32.5 17.5 32.5 11.5 38.5 11.5 38.482 17.5"/>
    <polygon stroke="#000" points="15.5 17.5 15.5 11.5 28.5 11.5 28.464 17.5"/>
    <path stroke="#000" d="M11.5 7.5L11.5 17.619M42.5 41.5L42.5 7.5M21.3145 28.0869C21.3145 25.7409 19.4125 23.8389 17.0665 23.8389 16.4945 23.8389 15.9505 23.9529 15.4525 24.1569 15.4595 24.0519 15.4635 23.9459 15.4635 23.8389 15.4635 21.2069 13.3305 19.0729 10.6975 19.0729 8.0655 19.0729 5.9315 21.2069 5.9315 23.8389 5.9315 25.2539 6.5485 26.5249 7.5285 27.3979 5.7375 28.2499 4.5005 30.0759 4.5005 32.1909 4.5005 35.1229 6.8765 37.4999 9.8085 37.4999 11.9925 37.4999 13.8675 36.1809 14.6825 34.2959 15.1515 34.8499 15.8515 35.2019 16.6335 35.2019 18.0445 35.2019 19.1885 34.0589 19.1885 32.6479 19.1885 32.3649 19.1425 32.0939 19.0575 31.8399 20.3995 31.1259 21.3145 29.7139 21.3145 28.0869z"/>
  </g>
</svg>
