<svg xmlns="http://www.w3.org/2000/svg" width="48" height="48" viewBox="0 0 48 48">
  <path fill="none" stroke="#000" d="M36.5,38.5 L42.5,38.5 L36.5,38.5 Z M23.5,37.5 L36.5,37.5 L23.5,37.5 Z M5.5,38.5 L21.5,38.5 L5.5,38.5 Z M9.5,13 L9.5,15 L9.5,13 Z M12.5,13 L12.5,15 L12.5,13 Z M15.5005,13 L15.5005,15 L15.5005,13 Z M9.5,17.0005 L9.5,19.0005 L9.5,17.0005 Z M12.5,17.0005 L12.5,19.0005 L12.5,17.0005 Z M15.5005,17.0005 L15.5005,19.0005 L15.5005,17.0005 Z M9.5,21.0005 L9.5,23.0005 L9.5,21.0005 Z M12.5,21.0005 L12.5,23.0005 L12.5,21.0005 Z M15.5005,21.0005 L15.5005,23.0005 L15.5005,21.0005 Z M9.5,25.001 L9.5,27.001 L9.5,25.001 Z M12.5,25.001 L12.5,27.001 L12.5,25.001 Z M15.5005,25.001 L15.5005,27.001 L15.5005,25.001 Z M9.5,29.001 L9.5,31.001 L9.5,29.001 Z M12.5,29.001 L12.5,31.001 L12.5,29.001 Z M15.5005,29.001 L15.5005,31.001 L15.5005,29.001 Z M25.501,14 L25.501,16 L25.501,14 Z M28.501,14 L28.501,16 L28.501,14 Z M31.501,14 L31.501,16 L31.501,14 Z M25.501,18.0005 L25.501,20.0005 L25.501,18.0005 Z M28.501,18.0005 L28.501,20.0005 L28.501,18.0005 Z M31.501,18.0005 L31.501,20.0005 L31.501,18.0005 Z M25.501,22.0005 L25.501,24.0005 L25.501,22.0005 Z M28.501,22.0005 L28.501,24.0005 L28.501,22.0005 Z M31.501,22.0005 L31.501,24.0005 L31.501,22.0005 Z M25.501,26.001 L25.501,28.001 L25.501,26.001 Z M28.501,26.001 L28.501,28.001 L28.501,26.001 Z M31.501,26.001 L31.501,28.001 L31.501,26.001 Z M25.501,30.001 L25.501,32.001 L25.501,30.001 Z M28.501,30.001 L28.501,32.001 L28.501,30.001 Z M31.501,30.001 L31.501,32.001 L31.501,30.001 Z M34.502,14 L34.502,16 L34.502,14 Z M34.502,18.0005 L34.502,20.0005 L34.502,18.0005 Z M34.502,22.0005 L34.502,24.0005 L34.502,22.0005 Z M34.502,26.001 L34.502,28.001 L34.502,26.001 Z M34.502,30.001 L34.502,32.001 L34.502,30.001 Z M25.501,34.001 L25.501,36.001 L25.501,34.001 Z M28.501,34.001 L28.501,36.001 L28.501,34.001 Z M31.501,34.001 L31.501,36.001 L31.501,34.001 Z M34.502,34.001 L34.502,36.001 L34.502,34.001 Z M9.5,33.001 L9.5,34.501 L9.5,33.001 Z M12.5,33.001 L12.5,34.501 L12.5,33.001 Z M15.5005,33.001 L15.5005,34.501 L15.5005,33.001 Z M38.502,22.0005 L38.502,24.0005 L38.502,22.0005 Z M38.502,26.001 L38.502,28.001 L38.502,26.001 Z M38.502,30.001 L38.502,32.001 L38.502,30.001 Z M40.502,22.0005 L40.502,24.0005 L40.502,22.0005 Z M40.502,26.001 L40.502,28.001 L40.502,26.001 Z M40.502,30.001 L40.502,32.001 L40.502,30.001 Z M38.502,34.001 L38.502,36.001 L38.502,34.001 Z M40.502,34.001 L40.502,36.001 L40.502,34.001 Z M17.5,34.5 L17.5,8.5 L7.5,10.482 L7.5,34.5 M23.5,41 L23.5,12.5 L36.5,12.5 L36.5,41 M25,12.5 L26,9.5 L34,9.5 L35,12.5 M36.5,20.5 L42.5,20.5 L42.5,41 M36.5,17.5 L40.5,17.5 L40.5,20.5 M23.5,17.5 L19.5,17.5 L19.5,34.5 M21.5,41 L21.5,34.5 L5.5,34.5 L5.5,41"/>
</svg>
