<?xml version="1.0" encoding="utf-8"?>
<!-- Generator: Adobe Illustrator 20.0.0, SVG Export Plug-In . SVG Version: 6.00 Build 0)  -->
<svg version="1.1" xmlns="http://www.w3.org/2000/svg" xmlns:xlink="http://www.w3.org/1999/xlink" x="0px" y="0px"
	 viewBox="0 0 24 24" enable-background="new 0 0 24 24" xml:space="preserve">
<path d="M19,9.5C19,7.5375977,17.4628906,6,15.5,6c-0.9923706,0-1.8903809,0.4088135-2.5418091,1.1017456
	c-1.2564087-0.3540649-2.8283081-0.0284424-3.7521362,1.489563c-0.6943359-0.3237305-1.5161133-0.3041992-2.222168,0.0825195
	c-0.7788086,0.4277344-1.25,1.203125-1.296875,2.0922852c-0.8232422,0.2177734-1.4458008,0.9580078-1.6137695,1.9775391
	c-0.1928711,1.168457,0.2792969,2.5727539,1.7685547,3.0786133L6.1630859,14.875
	c-0.934082-0.3164062-1.2275391-1.2167969-1.1035156-1.96875c0.0991211-0.6000977,0.4902344-1.2060547,1.140625-1.2060547h0.5634766
	L6.6967773,11.140625c-0.0825195-0.6865234,0.2050781-1.2807617,0.7680664-1.5898438
	c0.4199219-0.230957,1.065918-0.3168945,1.6181641,0.1357422l0.5087891,0.4169922l0.265625-0.6020508
	c0.6547852-1.4829102,1.9814453-1.7675781,3.0063477-1.390625c1.0151367,0.3730469,1.8286133,1.4599609,1.3569336,3.0463867
	l-0.1992188,0.6699219l0.6982422-0.027832c0.9667969-0.0517578,1.1982422,0.8271484,1.2460938,1.0942383
	c0.1396484,0.7763672-0.1943359,1.7177734-1.1015625,2.0146484l0.3105469,0.9511719
	c1.4511719-0.4755859,1.9912109-1.9414062,1.7744141-3.1430664c-0.0013428-0.0074463-0.0050659-0.0131836-0.0064697-0.0206299
	C18.1895142,12.1474609,19,10.9219971,19,9.5z M16.5631104,11.7730713
	c-0.2979736-0.4584961-0.7212524-0.7896729-1.2506104-0.9146729c0.2397461-1.5241699-0.4506226-2.6749878-1.3967285-3.3123779
	C14.3522949,7.1955566,14.9048462,7,15.5,7C16.9248047,7,18,8.074707,18,9.5
	C18,10.5076904,17.4350586,11.3781128,16.5631104,11.7730713z"/>
<polygon points="13.3427734,13.3789062 12.6352539,12.671875 11,14.3069458 11,12 10,12 10,14.2932739 8.378418,12.671875
	7.6713867,13.3789062 9.2926636,15 7.0141602,15 7.0141602,16 9.3068237,16 7.6855469,17.6210938 8.3925781,18.328125
	10,16.7210083 10,19 11,19 11,16.7072144 12.6210938,18.328125 13.328125,17.6210938 11.7068481,16 14.0136719,16 14.0136719,15
	11.7213745,15 "/>
</svg>
