<?xml version="1.0" encoding="utf-8"?>
<!-- Generator: Adobe Illustrator 20.0.0, SVG Export Plug-In . SVG Version: 6.00 Build 0)  -->
<svg version="1.1" xmlns="http://www.w3.org/2000/svg" xmlns:xlink="http://www.w3.org/1999/xlink" x="0px" y="0px"
	 viewBox="0 0 24 24" enable-background="new 0 0 24 24" xml:space="preserve">
<path d="M8.9038086,15.3056641l0.7919922-0.6113281C9.253418,14.1210938,9,13.3212891,9,12.5C9,10.5703125,10.5703125,9,12.5,9
	s3.5,1.5703125,3.5,3.5c0,0.7695312-0.28125,1.5449219-0.7910156,2.1855469l0.78125,0.6230469
	C16.6416016,14.4921875,17,13.4951172,17,12.5c0-2.4814453-2.0185547-4.5-4.5-4.5S8,10.0185547,8,12.5
	C8,13.5527344,8.3208008,14.5488281,8.9038086,15.3056641z"/>
<rect x="4" y="12" width="3" height="1"/>
<rect x="7.0717287" y="5.8784437" transform="matrix(0.7055796 -0.7086307 0.7086307 0.7055796 -3.0703208 7.5676665)" width="1.0005859" height="3.2006323"/>
<rect x="12" y="4" width="1" height="3"/>
<rect x="15.9234676" y="7.0681667" transform="matrix(0.7090574 -0.7051508 0.7051508 0.7090574 -0.2392002 14.5564861)" width="3.1940806" height="0.999897"/>
<rect x="18" y="12" width="3" height="1"/>
<rect x="5" y="16" width="13.9931641" height="1"/>
</svg>
