<?xml version="1.0" encoding="utf-8"?>
<!-- Generator: Adobe Illustrator 20.0.0, SVG Export Plug-In . SVG Version: 6.00 Build 0)  -->
<svg version="1.1" xmlns="http://www.w3.org/2000/svg" xmlns:xlink="http://www.w3.org/1999/xlink" x="0px" y="0px"
	 viewBox="0 0 24 24" enable-background="new 0 0 24 24" xml:space="preserve">
<path d="M18.6650391,8.8330078c-0.3115234-0.5087891-0.7871094-0.847168-1.3525391-0.9760742
	c0.2958984-1.8867188-0.8251953-3.2148438-2.1035156-3.6845703c-1.2910156-0.4750977-3.0185547-0.199707-4.0029297,1.4189453
	c-0.6948242-0.3237305-1.515625-0.3041992-2.222168,0.0825195c-0.7788086,0.4272461-1.25,1.203125-1.296875,2.0922852
	c-1.0458984,0.277832-1.6547852,1.3920898-1.6547852,2.4736328c0,0.7250977,0.2543945,1.3955078,0.7163086,1.8886719
	C7.1210938,12.5258789,7.8139648,13,9,13h7c1.1982422,0,2.1767578-0.5205078,2.6845703-1.4272461
	C19.1660156,10.7124023,19.1582031,9.637207,18.6650391,8.8330078z M17.8125,11.0839844C17.4814453,11.6748047,16.8378906,12,16,12
	H9c-0.6645508,0-1.1762695-0.1870117-1.5219727-0.5556641c-0.2875977-0.3066406-0.4458008-0.734375-0.4458008-1.2045898
	c0-0.7568359,0.4370117-1.5395508,1.1679688-1.5395508h0.5634766L8.6967773,8.140625
	C8.6142578,7.4541016,8.9018555,6.8598633,9.4648438,6.5507812c0.4213867-0.2314453,1.0668945-0.3154297,1.6181641,0.1357422
	l0.5087891,0.4169922l0.265625-0.6020508c0.6557617-1.4833984,1.9814453-1.7661133,3.0068359-1.390625
	c1.0146484,0.3730469,1.828125,1.4599609,1.3564453,3.0463867l-0.1992188,0.6699219l0.6982422-0.027832
	C17.3349609,8.7851562,17.6494141,9.0888672,17.8125,9.355957C18.1152344,9.8486328,18.1152344,10.543457,17.8125,11.0839844z"/>
</svg>
