<?xml version="1.0" encoding="utf-8"?>
<!-- Generator: Adobe Illustrator 20.0.0, SVG Export Plug-In . SVG Version: 6.00 Build 0)  -->
<svg version="1.1" xmlns="http://www.w3.org/2000/svg" xmlns:xlink="http://www.w3.org/1999/xlink" x="0px" y="0px"
	 viewBox="0 0 24 24" enable-background="new 0 0 24 24" xml:space="preserve">
<path d="M21.3056641,9.5395508c-1.6396484,0.6923828-3.1835938,0.4458008-4.2382812-0.6831055
	c-0.9833984-1.0527344-1.2460938-2.6279297-0.6386719-3.8305664L16.953125,3.987793l-1.1142578,0.3334961
	c-1.3015137,0.3895874-2.1026611,1.2319946-2.6826782,2.8362427c-1.2842407-0.4473877-2.9777222-0.1640625-3.9501343,1.4337769
	c-0.6943359-0.3237305-1.5161133-0.3041992-2.222168,0.0825195c-0.7788086,0.4272461-1.25,1.203125-1.296875,2.0922852
	c-1.0458984,0.277832-1.6547852,1.3920898-1.6547852,2.4741211c0,0.7246094,0.2543945,1.3955078,0.7163086,1.8876953
	C5.1210938,15.5263672,5.8139648,16,7,16h7c1.7011719,0,2.4550781-0.8925781,2.7529297-1.4248047
	c0.2518311-0.4502563,0.3532715-0.9632568,0.3275757-1.4675903c0.039978,0.0011597,0.0760498,0.0076294,0.1167603,0.0076294
	c1.6386719,0,3.8720703-0.9326172,4.7587891-2.9106445l0.5205078-1.1606445L21.3056641,9.5395508z M15.8798828,14.0869141
	C15.5507812,14.6757812,14.8828125,15,14,15H7c-0.6645508,0-1.1762695-0.1865234-1.5219727-0.5556641
	c-0.2875977-0.3066406-0.4458008-0.734375-0.4458008-1.2041016c0-0.7573242,0.4370117-1.5400391,1.1679688-1.5400391h0.5634766
	L6.6967773,11.140625c-0.0825195-0.6865234,0.2050781-1.2807617,0.7680664-1.5898438
	c0.4213867-0.230957,1.0668945-0.3164062,1.6181641,0.1357422l0.5087891,0.4169922l0.265625-0.6020508
	c0.6547852-1.4829102,1.9814453-1.7675781,3.0063477-1.390625c1.0151367,0.3730469,1.8286133,1.4599609,1.3569336,3.0463867
	l-0.1992188,0.6699219l0.6982422-0.027832c0.6357422-0.0249023,0.96875,0.3076172,1.1425781,0.5913086
	C16.1650391,12.8837891,16.171875,13.5654297,15.8798828,14.0869141z M16.8088989,12.0840454
	c-0.034668-0.0709229-0.0526733-0.1488037-0.0940552-0.2163696c-0.3251953-0.5297852-0.8183594-0.8808594-1.4023438-1.0117188
	c0.227478-1.4501343-0.3849487-2.5653076-1.2600708-3.2191162c0.3196411-0.9278564,0.6763916-1.5033569,1.0950317-1.8551025
	c-0.2060547,1.3120117,0.2138672,2.7133789,1.1894531,3.7573242c1.0234375,1.0947266,2.4375,1.5527344,3.9462891,1.3261719
	C19.2510376,11.8565674,17.7129517,12.2125244,16.8088989,12.0840454z"/>
<circle cx="14.5" cy="17.5" r="0.5"/>
<circle cx="10.5" cy="17.5" r="0.5"/>
<circle cx="6.5" cy="17.5" r="0.5"/>
<circle cx="8.5" cy="19.5" r="0.5"/>
<circle cx="12.5" cy="19.5" r="0.5"/>
</svg>
