<?xml version="1.0" encoding="utf-8"?>
<!-- Generator: Adobe Illustrator 20.0.0, SVG Export Plug-In . SVG Version: 6.00 Build 0)  -->
<svg version="1.1" xmlns="http://www.w3.org/2000/svg" xmlns:xlink="http://www.w3.org/1999/xlink" x="0px" y="0px"
	 viewBox="0 0 24 24" enable-background="new 0 0 24 24" xml:space="preserve">
<path d="M17.7607422,14.5771484c-2.3720703,0.8046875-4.7490234,0.2236328-6.5253906-1.5922852
	C9.449707,11.159668,8.7485352,8.5625,9.4907227,6.5214844l0.5864258-1.612793L8.7163086,5.9541016
	c-2.0888672,1.6044922-3.0429688,3.8911133-2.6162109,6.2724609c0.4506836,2.5185547,2.3833008,4.7148438,4.8085938,5.4667969
	c0.4858398,0.1503906,1.1308594,0.2851562,1.8857422,0.2851562c1.5161133,0,3.4750977-0.5410156,5.4829102-2.5771484
	l1.4804688-1.5009766L17.7607422,14.5771484z M11.2050781,16.7382812c-2.078125-0.6445312-3.7338867-2.5283203-4.1206055-4.6879883
	c-0.277832-1.5507812,0.1206055-3.015625,1.1303711-4.2402344c-0.1318359,2.0292969,0.7011719,4.234375,2.3056641,5.8745117
	c1.5566406,1.5908203,3.5146484,2.3671875,5.5673828,2.2373047C14.5175781,16.9501953,12.8295898,17.2402344,11.2050781,16.7382812z
	"/>
</svg>
