<?xml version="1.0" encoding="utf-8"?>
<!-- Generator: Adobe Illustrator 20.0.0, SVG Export Plug-In . SVG Version: 6.00 Build 0)  -->
<svg version="1.1" xmlns="http://www.w3.org/2000/svg" xmlns:xlink="http://www.w3.org/1999/xlink" x="0px" y="0px"
	 viewBox="0 0 24 24" enable-background="new 0 0 24 24" xml:space="preserve">
<path d="M19,9.5C19,7.5375977,17.4628906,6,15.5,6c-0.9923706,0-1.8903809,0.4088135-2.5418091,1.1017456
	c-1.2564087-0.3540649-2.8283081-0.0284424-3.7521362,1.489563c-0.6943359-0.3237305-1.5161133-0.3041992-2.222168,0.0825195
	c-0.7788086,0.4272461-1.25,1.203125-1.296875,2.0922852c-1.0458984,0.277832-1.6547852,1.3920898-1.6547852,2.4741211
	c0,0.7246094,0.2543945,1.3955078,0.7163086,1.8876953C5.1210938,15.5263672,5.8139648,16,7,16h7
	c1.1787109,0,2.1455078-0.5205078,2.6533203-1.4287109c0.3261719-0.5817261,0.4121704-1.2542725,0.2988281-1.8790894
	C18.1937256,12.1419678,19,10.9185791,19,9.5z M15.78125,14.0830078C15.4501953,14.6748047,14.8173828,15,14,15H7
	c-0.6645508,0-1.1762695-0.1865234-1.5219727-0.5556641c-0.2875977-0.3066406-0.4458008-0.734375-0.4458008-1.2041016
	c0-0.7573242,0.4370117-1.5400391,1.1679688-1.5400391h0.5634766L6.6967773,11.140625
	c-0.0825195-0.6865234,0.2050781-1.2807617,0.7680664-1.5898438c0.4199219-0.230957,1.065918-0.3168945,1.6181641,0.1357422
	l0.5087891,0.4169922l0.265625-0.6020508c0.6547852-1.4829102,1.9814453-1.7675781,3.0063477-1.390625
	c1.0151367,0.3730469,1.8286133,1.4599609,1.3569336,3.0463867l-0.1992188,0.6699219l0.6982422-0.027832
	c0.5976562-0.03125,0.9121094,0.28125,1.0712891,0.5415039C16.0927734,12.8330078,16.0888672,13.5332031,15.78125,14.0830078z
	 M16.5985718,11.7583008c-0.3066406-0.4642944-0.7536011-0.7785034-1.2860718-0.9013672
	c0.2389526-1.5237427-0.4508057-2.6737671-1.3966675-3.3109131C14.352356,7.1955566,14.9048462,7,15.5,7
	C16.9248047,7,18,8.074707,18,9.5C18,10.4942627,17.4506836,11.3560181,16.5985718,11.7583008z"/>
<rect x="6.8819661" y="17.4999428" transform="matrix(0.4472136 -0.8944272 0.8944272 0.4472136 -11.6773977 17.1055737)" width="2.236068" height="1.0001163"/>
<rect x="12.8819656" y="17.4999428" transform="matrix(0.4472136 -0.8944272 0.8944272 0.4472136 -8.3606796 22.4721355)" width="2.236068" height="1.0001163"/>
<rect x="7.2639322" y="18.4999428" transform="matrix(0.4472136 -0.8944272 0.8944272 0.4472136 -11.7426462 19)" width="4.472136" height="1.0001163"/>
<rect x="9.3137369" y="18.4999428" transform="matrix(0.4472136 -0.8944272 0.8944272 0.4472136 -10.6095419 20.8334007)" width="4.472136" height="1.0001163"/>
</svg>
