<?xml version="1.0" encoding="utf-8"?>
<!-- Generator: Adobe Illustrator 20.0.0, SVG Export Plug-In . SVG Version: 6.00 Build 0)  -->
<svg version="1.1" xmlns="http://www.w3.org/2000/svg" xmlns:xlink="http://www.w3.org/1999/xlink" x="0px" y="0px"
	 viewBox="0 0 24 24" enable-background="new 0 0 24 24" xml:space="preserve">
<path d="M19,9.5C19,7.5375977,17.4628906,6,15.5,6c-0.9923706,0-1.8903809,0.4088135-2.5418091,1.1017456
	c-1.2564087-0.3540649-2.8283081-0.0284424-3.7521362,1.489563c-0.6943359-0.3237305-1.5161133-0.3041992-2.222168,0.0825195
	c-0.7788086,0.4272461-1.25,1.203125-1.296875,2.0922852c-1.0458984,0.277832-1.6547852,1.3920898-1.6547852,2.4741211
	c0,0.7246094,0.2543945,1.3955078,0.7163086,1.8876953C5.1210938,15.5263672,5.8139648,16,7,16h7
	c1.6689453,0,2.4189453-0.8935547,2.7167969-1.4257812c0.326416-0.5826416,0.406311-1.2647705,0.2767334-1.8972778
	C18.2125244,12.1183472,19,10.9033813,19,9.5z M15.8447266,14.0849609C15.5146484,14.6748047,14.859375,15,14,15H7
	c-0.6645508,0-1.1762695-0.1865234-1.5219727-0.5556641c-0.2875977-0.3066406-0.4458008-0.734375-0.4458008-1.2041016
	c0-0.7573242,0.4370117-1.5400391,1.1679688-1.5400391h0.5634766L6.6967773,11.140625
	c-0.0825195-0.6865234,0.2050781-1.2807617,0.7680664-1.5898438c0.4199219-0.230957,1.065918-0.3168945,1.6181641,0.1357422
	l0.5087891,0.4169922l0.265625-0.6020508c0.6547852-1.4829102,1.9814453-1.7675781,3.0063477-1.390625
	c1.0151367,0.3730469,1.8286133,1.4599609,1.3569336,3.0463867l-0.1992188,0.6699219l0.6982422-0.027832
	c0.6259766-0.027832,0.9482422,0.2983398,1.1162109,0.5732422C16.1386719,12.8652344,16.1416016,13.5537109,15.8447266,14.0849609z
	 M16.6132202,11.7498779c-0.3172607-0.4597168-0.7667236-0.772644-1.3007202-0.8934326
	c0.2389526-1.5233154-0.4508057-2.6732788-1.3966675-3.3104248C14.352356,7.1955566,14.9048462,7,15.5,7
	C16.9248047,7,18,8.074707,18,9.5C18,10.4882202,17.456543,11.3445435,16.6132202,11.7498779z"/>
<circle cx="14.5" cy="17.5" r="0.5"/>
<circle cx="10.5" cy="17.5" r="0.5"/>
<circle cx="6.5" cy="17.5" r="0.5"/>
<circle cx="8.5" cy="19.5" r="0.5"/>
<circle cx="12.5" cy="19.5" r="0.5"/>
</svg>
