<?xml version="1.0" encoding="utf-8"?>
<!-- Generator: Adobe Illustrator 20.0.0, SVG Export Plug-In . SVG Version: 6.00 Build 0)  -->
<svg version="1.1" xmlns="http://www.w3.org/2000/svg" xmlns:xlink="http://www.w3.org/1999/xlink" x="0px" y="0px"
	 viewBox="0 0 24 24" enable-background="new 0 0 24 24" xml:space="preserve">
<path d="M18.6220703,8.8027344C18.3212891,8.3120117,17.8603516,7.9848633,17.3125,7.8574219
	c0.2958984-1.8867188-0.8251953-3.215332-2.1035156-3.6850586c-1.2910156-0.4750977-3.0185547-0.199707-4.0029297,1.4189453
	c-0.6948242-0.3237305-1.515625-0.3041992-2.222168,0.0825195c-0.7788086,0.4272461-1.25,1.203125-1.296875,2.0922852
	c-1.0458984,0.277832-1.6547852,1.3920898-1.6547852,2.4736328c0,0.7250977,0.2543945,1.3955078,0.7163086,1.8886719
	C7.1210938,12.5258789,7.8139648,13,9,13v-1c-0.6645508,0-1.1762695-0.1870117-1.5219727-0.5556641
	c-0.2875977-0.3066406-0.4458008-0.734375-0.4458008-1.2045898c0-0.7568359,0.4370117-1.5395508,1.1679688-1.5395508h0.5634766
	L8.6967773,8.140625C8.6142578,7.4541016,8.9018555,6.8598633,9.4648438,6.5507812
	c0.4213867-0.2314453,1.0668945-0.3154297,1.6181641,0.1357422l0.5087891,0.4169922l0.265625-0.6020508
	c0.6557617-1.4833984,1.9814453-1.7661133,3.0068359-1.390625c1.0146484,0.3730469,1.828125,1.4599609,1.3564453,3.0463867
	l-0.1992188,0.6699219l0.6982422-0.027832c0.6152344-0.0263672,0.8945312,0.2734375,1.0498047,0.5258789
	C18.0654297,9.809082,18.0576172,10.53125,17.75,11.0820312C17.4179688,11.6738281,16.796875,12,16,12v1
	c1.1582031,0,2.1132812-0.5209961,2.6220703-1.4296875C19.1064453,10.7050781,19.1064453,9.5927734,18.6220703,8.8027344z"/>
<circle cx="15.5" cy="16.5" r="0.5"/>
<circle cx="6.5" cy="15.5" r="0.5"/>
<circle cx="17.5" cy="14.5" r="0.5"/>
<polygon points="15,14 12,14 15,11 12,11 8,15 11,15 8,19 "/>
</svg>
