<?xml version="1.0" encoding="utf-8"?>
<!-- Generator: Adobe Illustrator 20.0.0, SVG Export Plug-In . SVG Version: 6.00 Build 0)  -->
<svg version="1.1" xmlns="http://www.w3.org/2000/svg" xmlns:xlink="http://www.w3.org/1999/xlink" x="0px" y="0px"
	 viewBox="0 0 24 24" enable-background="new 0 0 24 24" xml:space="preserve">
<path d="M12.5,8c-2.4658203,0-4.472168,2.0180664-4.472168,4.4985352c0,2.4790039,2.0166016,4.4956055,4.4951172,4.4956055
	C14.9912109,16.9941406,17,14.9785156,17,12.5C17,10.0185547,14.9814453,8,12.5,8z M12.5229492,15.9941406
	c-1.9272461,0-3.4951172-1.5683594-3.4951172-3.4956055C9.027832,10.5693359,10.5854492,9,12.5,9c1.9296875,0,3.5,1.5703125,3.5,3.5
	C16,14.4267578,14.4404297,15.9941406,12.5229492,15.9941406z"/>
<rect x="4" y="12" width="3.003418" height="1"/>
<rect x="7.0313034" y="5.844193" transform="matrix(0.707031 -0.7071826 0.7071826 0.707031 -3.0651605 7.5098615)" width="0.9998932" height="3.2203052"/>
<rect x="12.0117188" y="3.987793" width="1" height="3.0146484"/>
<rect x="15.9336843" y="7.0269012" transform="matrix(0.7110026 -0.7031894 0.7031894 0.7110026 -0.2280125 14.49891)" width="3.1834123" height="0.9999084"/>
<rect x="17.9941406" y="12" width="3.0058594" height="1"/>
<rect x="17.0376492" y="15.8650751" transform="matrix(0.7055786 -0.7086317 0.7086317 0.7055786 -7.2123513 17.5695782)" width="0.999897" height="3.1985607"/>
<rect x="12" y="17.9931641" width="1" height="3.0029297"/>
<rect x="5.9274359" y="17.0317917" transform="matrix(0.7071068 -0.7071068 0.7071068 0.7071068 -10.1923895 10.4568729)" width="3.1978629" height="0.9998932"/>
</svg>
