<?xml version="1.0" encoding="utf-8"?>
<!-- Generator: Adobe Illustrator 20.0.0, SVG Export Plug-In . SVG Version: 6.00 Build 0)  -->
<svg version="1.1" xmlns="http://www.w3.org/2000/svg" xmlns:xlink="http://www.w3.org/1999/xlink" x="0px" y="0px"
	 viewBox="0 0 24 24" enable-background="new 0 0 24 24" xml:space="preserve">
<path d="M21.3056641,9.5395508c-1.6396484,0.6923828-3.1835938,0.4458008-4.2382812-0.6831055
	c-0.9833984-1.0527344-1.2460938-2.6279297-0.6386719-3.8305664L16.953125,3.987793l-1.1142578,0.3334961
	c-1.3015137,0.3895874-2.1026611,1.2319946-2.6826782,2.8362427c-1.2842407-0.4473877-2.9777222-0.1640625-3.9501343,1.4337769
	c-0.6943359-0.3237305-1.5161133-0.3041992-2.222168,0.0825195c-0.7788086,0.4272461-1.25,1.203125-1.296875,2.0922852
	c-1.0458984,0.277832-1.6547852,1.3920898-1.6547852,2.4741211c0,0.7246094,0.2543945,1.3955078,0.7163086,1.8876953
	C5.1210938,15.5263672,5.8139648,16,7,16h7c1.1425781,0,2.0908203-0.5214844,2.5996094-1.4306641
	c0.2526245-0.4511719,0.3691406-0.9666138,0.3615723-1.4694824c0.0791016,0.0046997,0.1537476,0.0153809,0.236084,0.0153809
	c1.6386719,0,3.8720703-0.9326172,4.7587891-2.9106445l0.5205078-1.1606445L21.3056641,9.5395508z M15.7265625,14.0810547
	C15.3945312,14.6738281,14.78125,15,14,15H7c-0.6645508,0-1.1762695-0.1865234-1.5219727-0.5556641
	c-0.2875977-0.3066406-0.4458008-0.734375-0.4458008-1.2041016c0-0.7573242,0.4370117-1.5400391,1.1679688-1.5400391h0.5634766
	L6.6967773,11.140625c-0.0825195-0.6865234,0.2050781-1.2807617,0.7680664-1.5898438
	c0.4213867-0.230957,1.0668945-0.3164062,1.6181641,0.1357422l0.5087891,0.4169922l0.265625-0.6020508
	c0.6547852-1.4829102,1.9814453-1.7675781,3.0063477-1.390625c1.0151367,0.3730469,1.8286133,1.4599609,1.3569336,3.0463867
	l-0.1992188,0.6699219l0.6982422-0.027832c0.46875-0.0224609,0.8164062,0.1601562,1.0341797,0.5151367
	C16.0498047,12.7973633,16.0390625,13.5234375,15.7265625,14.0810547z M16.7224121,12.0667725
	c-0.0405273-0.0910645-0.0643311-0.190979-0.1159668-0.2752686c-0.296875-0.4838867-0.7519531-0.8071289-1.2939453-0.9335938
	c0.227478-1.4505615-0.3850098-2.5667114-1.2601318-3.2208862c0.3196411-0.9279175,0.6764526-1.50354,1.0950928-1.8552856
	c-0.2060547,1.3120117,0.2138672,2.7133789,1.1894531,3.7573242c1.0234375,1.0947266,2.4375,1.5527344,3.9462891,1.3261719
	C19.2158813,11.8903198,17.6107178,12.2338867,16.7224121,12.0667725z"/>
<path d="M5,18.5C5,18.776123,5.223877,19,5.5,19S6,18.776123,6,18.5C6,18,5.5,17,5.5,17S5,18,5,18.5z"/>
<path d="M9,18.5C9,18.776123,9.223877,19,9.5,19s0.5-0.223877,0.5-0.5C10,18,9.5,17,9.5,17S9,18,9,18.5z"/>
<path d="M13,18.5c0,0.276123,0.223877,0.5,0.5,0.5s0.5-0.223877,0.5-0.5c0-0.5-0.5-1.5-0.5-1.5S13,18,13,18.5z"/>
<path d="M11,20.5c0,0.276123,0.223877,0.5,0.5,0.5s0.5-0.223877,0.5-0.5c0-0.5-0.5-1.5-0.5-1.5S11,20,11,20.5z"/>
<path d="M7,20.5C7,20.776123,7.223877,21,7.5,21S8,20.776123,8,20.5C8,20,7.5,19,7.5,19S7,20,7,20.5z"/>
</svg>
