<?xml version="1.0" encoding="utf-8"?>
<!-- Generator: Adobe Illustrator 20.0.0, SVG Export Plug-In . SVG Version: 6.00 Build 0)  -->
<svg version="1.1" xmlns="http://www.w3.org/2000/svg" xmlns:xlink="http://www.w3.org/1999/xlink" x="0px" y="0px"
	 viewBox="0 0 24 24" enable-background="new 0 0 24 24" xml:space="preserve">
<path d="M18.6367188,8.8129883c-0.3046875-0.496582-0.7705078-0.828125-1.3242188-0.9555664
	c0.2958984-1.8867188-0.8251953-3.215332-2.1035156-3.6850586c-1.2910156-0.4750977-3.0185547-0.199707-4.0029297,1.4189453
	c-0.6948242-0.3237305-1.515625-0.3041992-2.222168,0.0825195c-0.7788086,0.4272461-1.25,1.203125-1.296875,2.0922852
	c-1.0458984,0.277832-1.6547852,1.3920898-1.6547852,2.4736328c0,0.7250977,0.2543945,1.3955078,0.7163086,1.8886719
	C7.1210938,12.5258789,7.8139648,13,9,13v-1c-0.6645508,0-1.1762695-0.1870117-1.5219727-0.5556641
	c-0.2875977-0.3066406-0.4458008-0.734375-0.4458008-1.2045898c0-0.7568359,0.4370117-1.5395508,1.1679688-1.5395508h0.5634766
	L8.6967773,8.140625C8.6142578,7.4541016,8.9018555,6.8598633,9.4648438,6.5507812
	c0.4213867-0.2314453,1.0668945-0.3154297,1.6181641,0.1357422l0.5087891,0.4169922l0.265625-0.6020508
	c0.6557617-1.4833984,1.9814453-1.7661133,3.0068359-1.390625c1.0146484,0.3730469,1.828125,1.4599609,1.3564453,3.0463867
	l-0.1992188,0.6699219l0.6982422-0.027832c0.59375-0.0302734,0.90625,0.277832,1.0644531,0.5366211
	c0.3017578,0.4916992,0.296875,1.1938477-0.0126953,1.746582C17.4404297,11.6743164,16.8115234,12,16,12v1
	c1.171875,0,2.1357422-0.5209961,2.6435547-1.4287109C19.1318359,10.6987305,19.1289062,9.6162109,18.6367188,8.8129883z"/>
<polygon points="12,11 8,15 11,15 8,19 15,14 12,14 15,11 "/>
</svg>
