<?xml version="1.0" encoding="utf-8"?>
<!-- Generator: Adobe Illustrator 20.0.0, SVG Export Plug-In . SVG Version: 6.00 Build 0)  -->
<svg version="1.1" xmlns="http://www.w3.org/2000/svg" xmlns:xlink="http://www.w3.org/1999/xlink" x="0px" y="0px"
	 viewBox="0 0 24 24" enable-background="new 0 0 24 24" xml:space="preserve">
<path d="M21.3056641,9.5395508c-1.6396484,0.6923828-3.1835938,0.4458008-4.2382812-0.6831055
	c-0.9833984-1.0527344-1.2460938-2.6279297-0.6386719-3.8305664L16.953125,3.987793l-1.1142578,0.3334961
	c-1.3015137,0.3895874-2.1026611,1.2319946-2.6826782,2.8362427c-1.2842407-0.4473877-2.9777222-0.1640625-3.9501343,1.4337769
	c-0.6943359-0.3237305-1.5161133-0.3041992-2.222168,0.0825195c-0.7788086,0.4272461-1.25,1.203125-1.296875,2.0922852
	c-1.0458984,0.277832-1.6547852,1.3920898-1.6547852,2.4741211c0,0.7246094,0.2543945,1.3955078,0.7163086,1.8876953
	C5.1210938,15.5263672,5.8139648,16,7,16v-1c-0.6645508,0-1.1762695-0.1865234-1.5219727-0.5556641
	c-0.2875977-0.3066406-0.4458008-0.734375-0.4458008-1.2041016c0-0.7573242,0.4370117-1.5400391,1.1679688-1.5400391h0.5634766
	L6.6967773,11.140625c-0.0825195-0.6865234,0.2050781-1.2807617,0.7680664-1.5898438
	c0.4199219-0.230957,1.065918-0.3168945,1.6181641,0.1357422l0.5087891,0.4169922l0.265625-0.6020508
	c0.6547852-1.4829102,1.9814453-1.7675781,3.0063477-1.390625c1.0151367,0.3730469,1.8286133,1.4599609,1.3569336,3.0463867
	l-0.1992188,0.6699219l0.6982422-0.027832c0.6113281-0.0180664,0.9277344,0.2885742,1.0908203,0.5546875
	c0.3017578,0.4926758,0.3007812,1.1879883-0.0019531,1.7299805C15.4775391,14.6748047,14.8349609,15,14,15v1
	c1.1962891,0,2.1728516-0.5205078,2.6806641-1.4277344c0.2542725-0.4539795,0.3638306-0.9661865,0.3466797-1.4680786
	c0.0576172,0.0024414,0.1106567,0.0110474,0.1699219,0.0110474c1.6386719,0,3.8720703-0.9326172,4.7587891-2.9106445
	l0.5205078-1.1606445L21.3056641,9.5395508z M16.7684937,12.0759888c-0.0379639-0.0804443-0.0587769-0.168457-0.1054077-0.2444458
	c-0.3115234-0.5083008-0.7861328-0.8457031-1.3505859-0.9746094c0.227478-1.4505005-0.3850098-2.5661011-1.2601318-3.2200928
	c0.3196411-0.9277954,0.6764526-1.5033569,1.0950928-1.8551025c-0.2060547,1.3120117,0.2138672,2.7133789,1.1894531,3.7573242
	c1.0234375,1.0947266,2.4375,1.5527344,3.9462891,1.3261719C19.2346191,11.8723755,17.6659546,12.222229,16.7684937,12.0759888z"/>
<polygon points="10,14 6,18 9,18 6,22 13,17 10,17 13,14 "/>
</svg>
