<?xml version="1.0" encoding="utf-8"?>
<!-- Generator: Adobe Illustrator 20.0.0, SVG Export Plug-In . SVG Version: 6.00 Build 0)  -->
<svg version="1.1" xmlns="http://www.w3.org/2000/svg" xmlns:xlink="http://www.w3.org/1999/xlink" x="0px" y="0px"
	 viewBox="0 0 24 24" enable-background="new 0 0 24 24" xml:space="preserve">
<path d="M19,9.5C19,7.5375977,17.4628906,6,15.5,6c-0.9923706,0-1.8903809,0.4088135-2.5418091,1.1017456
	c-1.2564087-0.3540649-2.8283081-0.0284424-3.7521362,1.489563c-0.6943359-0.3237305-1.5161133-0.3041992-2.222168,0.0825195
	c-0.7788086,0.4272461-1.25,1.203125-1.296875,2.0922852c-1.0458984,0.277832-1.6547852,1.3920898-1.6547852,2.4741211
	c0,0.7246094,0.2543945,1.3955078,0.7163086,1.8876953C5.1210938,15.5263672,5.8139648,16,7,16h7
	c1.1621094,0,2.1210938-0.5214844,2.6298828-1.4296875c0.319458-0.5716553,0.406311-1.2467651,0.3018188-1.8705444
	C18.1846313,12.1539307,19,10.9260864,19,9.5z M15.7568359,14.0820312C15.4257812,14.6738281,14.8017578,15,14,15H7
	c-0.6645508,0-1.1762695-0.1865234-1.5219727-0.5556641c-0.2875977-0.3066406-0.4458008-0.734375-0.4458008-1.2041016
	c0-0.7573242,0.4370117-1.5400391,1.1679688-1.5400391h0.5634766L6.6967773,11.140625
	c-0.0825195-0.6865234,0.2050781-1.2807617,0.7680664-1.5898438c0.4213867-0.230957,1.0668945-0.3164062,1.6181641,0.1357422
	l0.5087891,0.4169922l0.265625-0.6020508c0.6547852-1.4829102,1.9814453-1.7675781,3.0063477-1.390625
	c1.0151367,0.3730469,1.8286133,1.4599609,1.3569336,3.0463867l-0.1992188,0.6699219l0.6982422-0.027832
	c0.6220703-0.0234375,0.8984375,0.2758789,1.0546875,0.5292969C16.0712891,12.8125,16.0634766,13.5332031,15.7568359,14.0820312z
	 M16.5931396,11.7614136c-0.3027954-0.4658203-0.7490234-0.7807617-1.2806396-0.9039917
	c0.2389526-1.5237427-0.4508667-2.6741333-1.3967285-3.3114014C14.3522949,7.1955566,14.9048462,7,15.5,7
	C16.9248047,7,18,8.074707,18,9.5C18,10.49646,17.4485474,11.3602905,16.5931396,11.7614136z"/>
</svg>
