<?xml version="1.0" encoding="utf-8"?>
<!-- Generator: Adobe Illustrator 20.0.0, SVG Export Plug-In . SVG Version: 6.00 Build 0)  -->
<svg version="1.1" xmlns="http://www.w3.org/2000/svg" xmlns:xlink="http://www.w3.org/1999/xlink" x="0px" y="0px"
	 viewBox="0 0 24 24" enable-background="new 0 0 24 24" xml:space="preserve">
<path d="M18.6435547,8.8178711c-0.3066406-0.5-0.7744141-0.8325195-1.3310547-0.9609375
	c0.2958984-1.8867188-0.8251953-3.2148438-2.1035156-3.6845703c-1.2910156-0.4750977-3.0185547-0.199707-4.0029297,1.4189453
	c-0.6948242-0.3237305-1.515625-0.3041992-2.222168,0.0825195c-0.7788086,0.4272461-1.25,1.203125-1.296875,2.0922852
	c-1.0458984,0.277832-1.6547852,1.3920898-1.6547852,2.4736328c0,0.7250977,0.2543945,1.3955078,0.7163086,1.8886719
	C7.1210938,12.5258789,7.8139648,13,9,13h7c1.1787109,0,2.1455078-0.5205078,2.6533203-1.4287109
	C19.140625,10.7021484,19.1367188,9.6210938,18.6435547,8.8178711z M17.78125,11.0830078C17.4501953,11.6743164,16.8173828,12,16,12
	H9c-0.6645508,0-1.1762695-0.1870117-1.5219727-0.5556641c-0.2875977-0.3066406-0.4458008-0.734375-0.4458008-1.2045898
	c0-0.7568359,0.4370117-1.5395508,1.1679688-1.5395508h0.5634766L8.6967773,8.140625
	C8.6142578,7.4541016,8.9018555,6.8598633,9.4648438,6.5507812c0.4204102-0.2319336,1.0654297-0.3173828,1.6181641,0.1357422
	l0.5087891,0.4169922l0.265625-0.6020508c0.6557617-1.4833984,1.9814453-1.7661133,3.0068359-1.390625
	c1.0146484,0.3730469,1.828125,1.4599609,1.3564453,3.0463867l-0.1992188,0.6699219l0.6982422-0.027832
	c0.6005859-0.0297852,0.9121094,0.28125,1.0712891,0.5415039C18.0927734,9.8330078,18.0888672,10.5332031,17.78125,11.0830078z"/>
<rect x="7.8819661" y="14.4999418" transform="matrix(0.4472136 -0.8944272 0.8944272 0.4472136 -8.44133 16.3416405)" width="2.236068" height="1.0001163"/>
<rect x="13.8819656" y="14.4999418" transform="matrix(0.4472136 -0.8944272 0.8944272 0.4472136 -5.1246119 21.7082043)" width="2.236068" height="1.0001163"/>
<rect x="8.2639322" y="15.4999418" transform="matrix(0.4472136 -0.8944272 0.8944272 0.4472136 -8.5065775 18.2360687)" width="4.472136" height="1.0001163"/>
<rect x="10.3137369" y="15.4999418" transform="matrix(0.4472136 -0.8944272 0.8944272 0.4472136 -7.3734736 20.0694695)" width="4.472136" height="1.0001163"/>
</svg>
