<?xml version="1.0" encoding="utf-8"?>
<!-- Generator: Adobe Illustrator 20.0.0, SVG Export Plug-In . SVG Version: 6.00 Build 0)  -->
<svg version="1.1" xmlns="http://www.w3.org/2000/svg" xmlns:xlink="http://www.w3.org/1999/xlink" x="0px" y="0px"
	 viewBox="0 0 24 24" enable-background="new 0 0 24 24" xml:space="preserve">
<path d="M18.9492188,9.7163086C18.7734375,8.7368164,18.15625,8.0576172,17.3125,7.8583984
	c0.296875-1.887207-0.8251953-3.2163086-2.1035156-3.6860352c-1.2910156-0.4750977-3.0185547-0.199707-4.0029297,1.4189453
	c-0.6948242-0.3237305-1.515625-0.3041992-2.222168,0.0825195c-0.7788086,0.4277344-1.25,1.203125-1.296875,2.0922852
	C6.8637695,7.9838867,6.2412109,8.7241211,6.0732422,9.7431641c-0.1928711,1.168457,0.2792969,2.5732422,1.7685547,3.0786133
	l0.3212891-0.9472656c-0.934082-0.3168945-1.2275391-1.2167969-1.1035156-1.9682617
	c0.0991211-0.6005859,0.4902344-1.2060547,1.140625-1.2060547h0.5634766L8.6967773,8.140625
	C8.6142578,7.4541016,8.9018555,6.8598633,9.4648438,6.5507812c0.4204102-0.2319336,1.0654297-0.3173828,1.6181641,0.1357422
	l0.5087891,0.4169922l0.265625-0.6020508c0.6557617-1.4833984,1.9814453-1.7661133,3.0068359-1.390625
	c1.0146484,0.3730469,1.828125,1.4599609,1.3564453,3.0463867l-0.1992188,0.6699219l0.6982422-0.027832
	c0.96875-0.0556641,1.1982422,0.8271484,1.2460938,1.0942383c0.1396484,0.7763672-0.1943359,1.7177734-1.1015625,2.0151367
	l0.3105469,0.9501953C18.6259766,12.3837891,19.1660156,10.918457,18.9492188,9.7163086z"/>
<polygon points="15.3427734,10.378418 14.6357422,9.6713867 13,11.3069458 13,9 12,9 12,11.2929688 10.378418,9.6713867
	9.6713867,10.378418 11.2929688,12 9.0141602,12 9.0141602,13 11.3068237,13 9.6855469,14.6210938 10.3925781,15.328125
	12,13.7208862 12,16 13,16 13,13.7070312 14.6210938,15.328125 15.328125,14.6210938 13.7070312,13 16.0136719,13 16.0136719,12
	13.7210083,12 "/>
</svg>
