<?xml version="1.0" encoding="utf-8"?>
<!-- Generator: Adobe Illustrator 20.0.0, SVG Export Plug-In . SVG Version: 6.00 Build 0)  -->
<svg version="1.1" xmlns="http://www.w3.org/2000/svg" xmlns:xlink="http://www.w3.org/1999/xlink" x="0px" y="0px"
	 viewBox="0 0 24 24" enable-background="new 0 0 24 24" xml:space="preserve">
<path d="M21.3056641,9.5395508c-1.6396484,0.6923828-3.1835938,0.4458008-4.2382812-0.6831055
	c-0.9833984-1.0527344-1.2460938-2.6279297-0.6386719-3.8305664l0.6513672-1.2890625L15.7714844,4.347168
	c-0.9591064,0.4470825-1.9395752,1.0505981-2.607666,2.8125c-1.2850952-0.4511719-2.9835205-0.1692505-3.9577637,1.4316406
	c-0.6943359-0.3237305-1.5161133-0.3041992-2.222168,0.0825195c-0.7788086,0.4272461-1.25,1.203125-1.296875,2.0922852
	c-1.0458984,0.277832-1.6547852,1.3920898-1.6547852,2.4741211c0,0.7246094,0.2543945,1.3955078,0.7163086,1.8876953
	C5.1210938,15.5263672,5.8139648,16,7,16h7c1.1816406,0,2.1503906-0.5205078,2.6591797-1.4287109
	c0.2545166-0.4547729,0.3661499-0.9668579,0.3514404-1.4682007c0.0631104,0.0029297,0.121582,0.012146,0.1866455,0.012146
	c1.6386719,0,3.8720703-0.9326172,4.7587891-2.9106445l0.5205078-1.1606445L21.3056641,9.5395508z M15.7861328,14.0830078
	C15.4550781,14.6748047,14.8212891,15,14,15H7c-0.6645508,0-1.1762695-0.1865234-1.5219727-0.5556641
	c-0.2875977-0.3066406-0.4458008-0.734375-0.4458008-1.2041016c0-0.7573242,0.4370117-1.5400391,1.1679688-1.5400391h0.5634766
	L6.6967773,11.140625c-0.0825195-0.6865234,0.2050781-1.2807617,0.7680664-1.5898438
	c0.4199219-0.230957,1.065918-0.3168945,1.6181641,0.1357422l0.5087891,0.4169922l0.265625-0.6020508
	c0.6547852-1.4829102,1.9814453-1.7675781,3.0063477-1.390625c1.0151367,0.3730469,1.8286133,1.4599609,1.3569336,3.0463867
	l-0.1992188,0.6699219l0.6982422-0.027832c0.6064453-0.0273438,0.9150391,0.2827148,1.0751953,0.5439453
	C16.0966797,12.8354492,16.0927734,13.5351562,15.7861328,14.0830078z M16.7561646,12.0734863
	c-0.0388184-0.0834351-0.0605469-0.1745605-0.1087036-0.2531738c-0.3076172-0.5014648-0.7773438-0.8349609-1.3349609-0.9633789
	c0.2272949-1.4489746-0.3839722-2.56427-1.2579346-3.2185669c0.302124-0.8501587,0.6605225-1.3828125,1.0772705-1.7418823
	c-0.1660156,1.2788086,0.2578125,2.6293945,1.2050781,3.6425781c1.0234375,1.0947266,2.4375,1.5527344,3.9462891,1.3261719
	C19.2295532,11.8771362,17.6513672,12.2252808,16.7561646,12.0734863z"/>
</svg>
