<svg xmlns="http://www.w3.org/2000/svg" width="59" height="20" viewBox="0 0 59 20">
  <g fill="none" fill-rule="evenodd">
    <rect width="59" height="20" fill="#EB0000" rx="2"/>
    <path fill="#FFF" fill-rule="nonzero" d="M36.608326 7.897852C36.6041876 7.04982882 36.8481392 6.21922709 37.3099476 5.508984 38.0246143 4.475384 39.099389 3.958584 40.5342717 3.958584 41.6379517 3.958584 42.5287793 4.24068067 43.2067544 4.804874 43.9208037 5.3811786 44.3260315 6.25873507 44.3025519 7.17792 44.3164937 7.71004605 44.1664713 8.23352947 43.8729541 8.676944 43.5968253 9.08857369 43.1851764 9.38961321 42.710096 9.527344 43.3003118 9.6503872 43.8241248 9.9885774 44.1803122 10.476562 44.5490568 10.9947651 44.7387241 11.619782 44.7203755 12.25625 44.7491863 13.3364351 44.2846503 14.3706539 43.4590273 15.06445 42.6811947 15.73945 41.6983928 16.07695 40.5106219 16.07695 39.2228977 16.07695 38.2019771 15.70514 37.4478601 14.96152 36.693678 14.2179653 36.3166035 13.213408 36.3166368 11.947848L36.3166368 11.797448 38.5318834 11.797448C38.5318834 12.5093627 38.7000633 13.059102 39.0364231 13.446666 39.4004286 13.846335 39.9246679 14.0599566 40.4633242 14.028112 41.0782318 14.028112 41.5512377 13.8462107 41.882342 13.482408 42.1844504 13.1468004 42.3479304 12.7083993 42.339582 12.256236 42.3625371 11.7394043 42.147426 11.2406742 41.7562075 10.903696 41.4356143 10.6294773 40.9415856 10.492368 40.2741216 10.492368 40.0870993 10.4922442 39.9002219 10.502808 39.7143969 10.524008L39.7143969 8.823242C39.8510431 8.83398467 39.9824337 8.839258 40.1085687 8.839062 41.4329859 8.839062 42.0951944 8.346028 42.0951944 7.35996 42.1102614 6.96376085 41.9518454 6.58077461 41.6616062 6.311718 41.346094 6.03577301 40.9365974 5.89268921 40.5185091 5.912304 40.0461585 5.88385273 39.5860319 6.06968887 39.2650442 6.418554 38.9706315 6.756054 38.812966 7.24915267 38.7920475 7.89785L36.608326 7.897852zM53.4473386 7.122656L51.2557437 7.122656C51.0507745 6.23144533 50.5462348 5.78580733 49.7421246 5.785742 48.8907134 5.785742 48.2863169 6.31048133 47.928935 7.35996 47.7425548 7.9914789 47.6236343 8.64109491 47.5741796 9.29785 47.8627354 8.881024 48.2413338 8.53492431 48.6817531 8.28535 49.1215155 8.06880477 49.6072129 7.96295613 50.0968781 7.97695 51.0971139 7.94029221 52.0588562 8.36594252 52.7062946 9.131832 53.3449496 9.89668469 53.6790959 10.8715302 53.6444225 11.868746 53.6444225 13.1712793 53.2239731 14.218024 52.3830743 15.00898 51.6496613 15.7117644 50.6693712 16.0955789 49.6554066 16.076948 48.2942008 16.076948 47.2351907 15.5614533 46.4783762 14.530464 45.721567 13.499604 45.3431624 12.0612573 45.3431624 10.215424 45.3431624 8.24315733 45.7478452 6.69804 46.5572109 5.580072 47.2830316 4.5280724 48.491265 3.91748247 49.7657745 3.9586 51.0428906 3.9586 52.0204362 4.38835267 52.6984113 5.247858 53.1085542 5.79553262 53.3669437 6.44236208 53.4473386 7.122656zM49.5450387 9.772456C49.0157889 9.7605906 48.517958 10.0238092 48.2285016 10.46855 47.9282409 10.8989497 47.7735023 11.4146463 47.7870301 11.93984 47.7760426 12.4683645 47.9334667 12.9866118 48.2363848 13.419136 48.5305764 13.8718128 49.0381929 14.1384288 49.5765678 14.123042 50.1044448 14.1351706 50.6037959 13.8832027 50.9088676 13.450776 51.2274707 13.0188543 51.393868 12.492881 51.3818642 11.955658 51.3964092 11.4400983 51.2473375 10.9332324 50.9561593 10.508198 50.6434066 10.0355272 50.1102861 9.75756577 49.5450387 9.77246L49.5450387 9.772456z"/>
    <polygon fill="#FFF" fill-rule="nonzero" points="9.22 4.2 13.276 4.2 8.258 15.8 4.185 15.8"/>
    <path fill="#FFF" fill-rule="nonzero" d="M25.9805304,12.366254 C26.3470525,12.3662563 26.6789963,12.1490854 26.8268376,11.812566 L30.1191233,4.2 L15.9841006,4.2 L10.9660669,15.8 L15.0044375,15.8 L18.8032143,7.1096 L24.7969426,7.1096 L23.5955451,9.88506 L18.3696101,9.866038 L22.5865096,15.8 L27.1837955,15.8 L24.0598751,12.36625 L25.9805304,12.366254 Z"/>
  </g>
</svg>
