<svg xmlns="http://www.w3.org/2000/svg" width="59" height="20" viewBox="0 0 59 20">
  <g fill="none" fill-rule="evenodd">
    <rect width="59" height="20" fill="#EB0000" rx="2"/>
    <path fill="#FFF" fill-rule="nonzero" d="M44.3483606,4.235414 L44.3483606,6.197132 C44.285293,6.26568667 44.0986863,6.479228 43.7885403,6.837756 C43.2996508,7.41723297 42.8692436,8.04393276 42.5036379,8.708654 C42.1065572,9.39736604 41.7740273,10.1215648 41.510325,10.871936 C40.9822006,12.4646121 40.6770556,14.1231603 40.6036326,15.800062 L38.2228311,15.800062 C38.2553573,14.8200493 38.4076101,13.8477443 38.6761763,12.904944 C38.9751147,11.8112038 39.3722076,10.7468918 39.8625846,9.725062 C40.5826025,8.227406 41.3131355,7.11204133 42.0541834,6.378968 L36.6146226,6.378968 L36.6146226,4.235414 L44.3483606,4.235414 Z"/>
    <polygon fill="#FFF" fill-rule="nonzero" points="9.221 4.2 13.277 4.2 8.259 15.8 4.186 15.8"/>
    <polygon fill="#FFF" fill-rule="nonzero" points="15.948 4.2 30.343 4.2 28.853 7.645 18.572 7.645 16.531 12.355 26.816 12.355 25.326 15.8 10.931 15.8"/>
  </g>
</svg>
