<svg xmlns="http://www.w3.org/2000/svg" width="59" height="20" viewBox="0 0 59 20">
  <g fill="none" fill-rule="evenodd">
    <rect width="59" height="20" fill="#000" rx="2"/>
    <path fill="#EFC800" fill-rule="nonzero" d="M4.18613571,11.948754 C4.15374949,14.808462 6.55037932,16.075832 9.10894223,16.075832 C12.250471,16.075832 13.918397,14.483494 13.918397,12.354962 C13.918397,9.72273 11.3274439,9.186536 10.4853863,8.975308 C7.58675818,8.227884 7.03618253,8.114146 7.03618253,7.220488 C7.03618253,6.245588 7.97539875,5.904372 8.78507608,5.904372 C9.9995851,5.904372 10.9873846,6.261836 11.0683522,7.659192 L13.5297544,7.659192 C13.5297544,4.978216 11.3112528,3.922074 8.89842784,3.922074 C6.80947304,3.922074 4.57477828,5.059458 4.57477828,7.431716 C4.57477828,9.608994 6.30747672,10.275176 8.02398206,10.73013 C9.72429429,11.185084 11.4569927,11.396312 11.4569927,12.647434 C11.4569927,13.833562 10.0967418,14.093536 9.20610287,14.093536 C7.84585389,14.093536 6.64753797,13.492346 6.64753797,11.948756 L4.18613571,11.948754 Z M15.30872,15.7996 L17.6891568,15.7996 L17.6891568,8.032904 L17.721543,8.032904 L22.5309977,15.7996 L25.0733695,15.7996 L25.0733695,4.198294 L22.6929308,4.198294 L22.6929308,11.98125 L22.6605446,11.98125 L17.8349027,4.198296 L15.30872,4.198294 L15.30872,15.7996 Z"/>
  </g>
</svg>
