<svg xmlns="http://www.w3.org/2000/svg" width="59" height="20" viewBox="0 0 59 20">
  <g fill="none" fill-rule="evenodd">
    <rect width="59" height="20" fill="#EB0000" rx="2"/>
    <path fill="#FFF" fill-rule="nonzero" d="M42.2592882,4.235352 L42.2592882,15.8 L39.9573254,15.8 L39.9573254,8.22998 L37.2454243,8.22998 L37.2454243,6.553028 C37.7092389,6.550301 38.1710609,6.49187742 38.6210352,6.379004 C38.9739563,6.27976509 39.3045273,6.11325624 39.5946887,5.888574 C40.0203936,5.56162067 40.3067928,5.01054667 40.4538862,4.235352 L42.2592882,4.235352 Z"/>
    <polygon fill="#FFF" fill-rule="nonzero" points="9.221 4.2 13.277 4.2 8.259 15.8 4.186 15.8"/>
    <polygon fill="#FFF" fill-rule="nonzero" points="15.948 4.2 30.343 4.2 28.853 7.645 18.572 7.645 16.531 12.355 26.816 12.355 25.326 15.8 10.931 15.8"/>
  </g>
</svg>
