<svg xmlns="http://www.w3.org/2000/svg" width="59" height="20" viewBox="0 0 59 20">
  <g fill="none" fill-rule="evenodd">
    <rect width="59" height="20" fill="#EB0000" rx="2"/>
    <path fill="#FFF" fill-rule="nonzero" d="M44.6323041,13.74336 L44.6323041,15.8 L36.3309463,15.8 C36.3281801,15.1883548 36.4308471,14.5808361 36.6344096,14.004296 C36.8206685,13.462426 37.1112792,12.9625835 37.4897102,12.533202 C37.7951705,12.1966063 38.1288624,11.886941 38.4871112,11.607616 C38.8680466,11.3070307 39.6261541,10.755924 40.7614336,9.954296 C41.209073,9.66853594 41.601677,9.30410871 41.920393,8.878514 C42.1441722,8.53588514 42.2595194,8.13339139 42.2513052,7.723826 C42.2710303,7.27080421 42.1108631,6.82842917 41.8059409,6.493748 C41.5005532,6.1764173 41.0745844,6.00513783 40.6353092,6.023044 C39.4475382,6.023044 38.8352909,6.87994533 38.7985674,8.593748 L36.5832151,8.593748 L36.5832151,8.340626 C36.5832151,6.93789133 36.9747911,5.85156333 37.757943,5.081642 C38.5198137,4.33300867 39.50521,3.95866 40.714132,3.958596 C41.6916933,3.92587168 42.6475719,4.25212912 43.402479,4.876174 C44.1853717,5.54062733 44.5768833,6.43444267 44.5770135,7.55762 C44.5950355,8.49014273 44.2597251,9.39478662 43.6387939,10.08887 C43.464253,10.2918731 43.2716608,10.4785156 43.0634004,10.646488 C42.8847088,10.786332 42.4142981,11.122532 41.6521682,11.655088 C40.9268934,12.1613387 40.4079492,12.5489687 40.0953356,12.817978 C39.7741661,13.0957656 39.482219,13.4058526 39.224071,13.743378 L44.6323041,13.74336 Z"/>
    <polygon fill="#FFF" fill-rule="nonzero" points="9.221 4.2 13.277 4.2 8.259 15.8 4.186 15.8"/>
    <polygon fill="#FFF" fill-rule="nonzero" points="15.948 4.2 30.343 4.2 28.853 7.645 18.572 7.645 16.531 12.355 26.816 12.355 25.326 15.8 10.931 15.8"/>
  </g>
</svg>
