<svg xmlns="http://www.w3.org/2000/svg" width="59" height="20" viewBox="0 0 59 20">
  <g fill="none" fill-rule="evenodd">
    <rect width="59" height="20" fill="#EB0000" rx="2"/>
    <path fill="#FFF" fill-rule="nonzero" d="M4.58316983,4.20149 L13.5071869,4.20149 L13.1263838,6.02889 L9.86473024,6.02889 L7.76204,15.797184 L5.34477412,15.797184 L7.44746436,6.028892 L4.18581081,6.028892 L4.58316983,4.20149 Z M23.1928083,6.660176 C22.9809546,6.53265028 22.7626686,6.41620538 22.5388252,6.311308 C22.2455294,6.18794377 21.9440178,6.08524941 21.636484,6.003972 C21.1223837,5.87519996 20.5933339,5.81652736 20.0636157,5.829538 C18.694922,5.829538 17.5745905,6.28361933 16.7026209,7.191782 C15.8306514,8.09994467 15.3946627,9.25729933 15.3946547,10.663846 C15.3946547,11.7602913 15.7037117,12.6186167 16.3218258,13.238822 C16.9399398,13.8590273 17.800884,14.169132 18.9046584,14.169136 C19.207146,14.1827492 19.5096855,14.1433979 19.7987157,14.052846 L20.4444249,10.97949 L17.9940313,10.97949 L18.3748344,9.15209 L23.0603513,9.15209 L21.7358213,15.481544 C21.5150656,15.5590707 21.3163857,15.6227527 21.1397817,15.67259 C20.9631777,15.7224273 20.6651586,15.7888787 20.2457244,15.871944 C19.6934058,15.9656701 19.1335645,16.0073849 18.573507,15.996544 C16.75227,15.996544 15.3642737,15.5507687 14.4095182,14.659218 C13.4547626,13.7676673 12.9773809,12.48018 12.9773729,10.796756 C12.9773729,8.71461467 13.6092842,7.06164667 14.8731067,5.837852 C16.1369292,4.61405733 17.8395018,4.00215467 19.9808244,4.002144 C20.6356972,3.99864612 21.2895569,4.05424603 21.9345038,4.168272 C22.5580645,4.28333497 23.1723242,4.44436125 23.77229,4.650042 L23.1928083,6.660176 Z M25.3948398,4.201482 L27.7127664,4.20149 L28.7889464,13.2222 L33.6234781,4.201482 L36.1400912,4.201482 L29.6830017,15.797184 L26.9180484,15.797184 L25.3948398,4.201482 Z"/>
  </g>
</svg>
