<svg xmlns="http://www.w3.org/2000/svg" width="59" height="20" viewBox="0 0 59 20">
  <g fill="none" fill-rule="evenodd">
    <rect width="59" height="20" fill="#EB0000" rx="2"/>
    <path fill="#FFF" fill-rule="nonzero" d="M14.6455919,4.2 L12.0225516,4.2 L9.41570037,12.355742 L9.38331615,12.355742 L6.80885115,4.2 L4.18581081,4.2 L7.94226507,15.8 L10.8081801,15.8 L14.6455919,4.2 Z M13.5422481,15.8 L16.116721,15.8 L17.0234474,13.2168 L21.3466066,13.2168 L22.2209547,15.8 L24.8601882,15.8 L20.537025,4.2 L17.9301757,4.2 L13.5422481,15.8 Z M19.1931206,7.059384 L19.2255048,7.059384 L20.682751,11.315966 L17.687303,11.315966 L19.1931206,7.059384 Z M25.7484112,15.8 L34.5242626,15.8 L34.5242626,13.655462 L28.2905,13.655462 L28.2905,10.812326 L33.8927972,10.812326 L33.8927972,8.830252 L28.2905,8.830252 L28.2905,6.344538 L34.3947397,6.344538 L34.3947397,4.2 L25.7484112,4.2 L25.7484112,15.8 Z"/>
  </g>
</svg>
