<svg xmlns="http://www.w3.org/2000/svg" width="59" height="20" viewBox="0 0 59 20">
  <g fill="none" fill-rule="evenodd">
    <rect width="59" height="20" fill="#EB0000" rx="2"/>
    <path fill="#FFF" fill-rule="nonzero" d="M44.0565219 4.235388L44.0565219 6.292028 39.4132777 6.292028 38.9165236 8.894372C39.4692753 8.30552005 40.2472483 7.98292164 41.0530372 8.008434 41.8486981 7.9910519 42.6285986 8.23250967 43.2761651 8.696716 44.2114706 9.387536 44.6792184 10.43695 44.6794084 11.844958 44.6794084 13.226598 44.1801242 14.320804 43.1815558 15.127576 42.392095 15.7645162 41.4035522 16.1007505 40.390816 16.076794 39.1715119 16.076794 38.1913059 15.7485387 37.4501982 15.092028 36.7091555 14.4355827 36.317644 13.5483433 36.2756636 12.43031L38.5381123 12.43031C38.5637706 12.8073599 38.7010211 13.1681408 38.9322842 13.466442 39.2946132 13.8905028 39.822561 14.1358603 40.3792367 14.1388959 40.9359123 14.1419315 41.4664867 13.9023463 41.8333879 13.482262 42.1805451 13.0389661 42.3618951 12.4876137 42.3459085 11.924062 42.3750194 11.3437759 42.1834109 10.7740518 41.8098357 10.330116 41.4456713 9.92898123 40.9231457 9.71027976 40.382837 9.73285 39.6804399 9.71959502 39.0282826 10.0970199 38.6879963 10.71371L36.6303234 10.68207 37.7262085 4.23539 44.0565219 4.235388zM51.2384264 4.235388L51.2384264 15.800036 48.9364637 15.800036 48.9364637 8.22992 46.2245626 8.22992 46.2245626 6.552966C46.6883763 6.55022545 47.1501967 6.49180208 47.6001735 6.378942 47.9530945 6.27970295 48.2836655 6.11319411 48.573827 5.888512 48.9995319 5.56155867 49.285931 5.01051733 49.4330244 4.235388L51.2384264 4.235388z"/>
    <polygon fill="#FFF" fill-rule="nonzero" points="9.221 4.2 13.277 4.2 8.259 15.8 4.186 15.8"/>
    <polygon fill="#FFF" fill-rule="nonzero" points="15.948 4.2 30.343 4.2 28.853 7.645 18.572 7.645 16.531 12.355 26.816 12.355 25.326 15.8 10.931 15.8"/>
  </g>
</svg>
