<svg xmlns="http://www.w3.org/2000/svg" width="59" height="20" viewBox="0 0 59 20">
  <g fill="none" fill-rule="evenodd">
    <rect width="59" height="20" fill="#EB0000" rx="2"/>
    <path fill="#FFF" fill-rule="nonzero" d="M44.3813906 4.235352L44.3813906 6.19707C44.3183231 6.26562467 44.1317482 6.47923133 43.821666 6.83789 43.3327411 7.41729371 42.9023011 8.04393155 42.5366679 8.7086 42.1396232 9.39733074 41.8070949 10.1215261 41.5433551 10.871882 41.0153302 12.4645773 40.7102198 14.1231133 40.6367603 15.8L38.2559628 15.8C38.288501 14.8199954 38.4407208 13.8476957 38.7092123 12.904882 39.0082286 11.8111535 39.4053527 10.7468456 39.8957183 9.725 40.6157389 8.227344 41.3462705 7.11197933 42.0873131 6.378906L36.6477523 6.378906 36.6477523 4.235352 44.3813906 4.235352zM53.0689333 4.235352L53.0689333 6.292 48.4255915 6.292 47.928935 8.89454C48.4815831 8.30559983 49.2595666 7.9829807 50.065345 8.0086 50.8609852 7.99115093 51.6408868 8.23254026 52.2884729 8.696686 53.2238767 9.387506 53.6916245 10.43692 53.6917162 11.844928 53.6917162 13.226568 53.192432 14.3208387 52.1938636 15.12774 51.4044028 15.7646802 50.41586 16.1009145 49.4031238 16.076958 48.1838197 16.076958 47.2036463 15.748638 46.4626036 15.091998 45.721561 14.4355527 45.3300169 13.5483133 45.2879715 12.43028L47.5505158 12.43028C47.5761292 12.8073397 47.7133846 13.1681334 47.9446876 13.466412 48.3070224 13.8904401 48.8349417 14.1357911 49.3915961 14.1388642 49.9482504 14.1419373 50.4788285 13.9024299 50.8457914 13.482428 51.1929225 13.0390465 51.3742357 12.4876299 51.3582144 11.924028 51.3873252 11.3437419 51.1957167 10.7740178 50.8221416 10.330082 50.4580278 9.9289336 49.9355243 9.71022639 49.3952405 9.732816 48.6928173 9.71955804 48.0406296 10.0969787 47.7003021 10.713676L45.6427269 10.682036 46.7385243 4.235356 53.0689333 4.235352z"/>
    <polygon fill="#FFF" fill-rule="nonzero" points="9.22 4.2 13.276 4.2 8.258 15.8 4.185 15.8"/>
    <path fill="#FFF" fill-rule="nonzero" d="M25.9805304,12.366254 C26.3470525,12.3662563 26.6789963,12.1490854 26.8268376,11.812566 L30.1191233,4.2 L15.9841006,4.2 L10.9660669,15.8 L15.0044375,15.8 L18.8032143,7.1096 L24.7969426,7.1096 L23.5955451,9.88506 L18.3696101,9.866038 L22.5865096,15.8 L27.1837955,15.8 L24.0598751,12.36625 L25.9805304,12.366254 Z"/>
  </g>
</svg>
