<svg xmlns="http://www.w3.org/2000/svg" width="59" height="20" viewBox="0 0 59 20">
  <g fill="none" fill-rule="evenodd">
    <rect width="59" height="20" fill="#EB0000" rx="2"/>
    <path fill="#FFF" fill-rule="nonzero" d="M44.7676792 11.204296L44.7676792 13.158 43.3171283 13.158 43.3171283 15.8 41.0703445 15.8 41.0703445 13.158 36.2614458 13.158 36.2614458 10.990626 41.1885917 4.235352 43.3171183 4.235352 43.3171183 11.204296 44.7676792 11.204296zM41.1176521 11.22793L41.1176521 6.9248 38.1534782 11.22793 41.1176521 11.22793zM53.4473386 7.122656L51.2557437 7.122656C51.0507745 6.23144533 50.5462348 5.78580733 49.7421246 5.785742 48.8907134 5.785742 48.2863169 6.31048133 47.928935 7.35996 47.7425548 7.9914789 47.6236343 8.64109491 47.5741796 9.29785 47.8627354 8.881024 48.2413338 8.53492431 48.6817531 8.28535 49.1215155 8.06880477 49.6072129 7.96295613 50.0968781 7.97695 51.0971139 7.94029221 52.0588562 8.36594252 52.7062946 9.131832 53.3449496 9.89668469 53.6790959 10.8715302 53.6444225 11.868746 53.6444225 13.1712793 53.2239731 14.218024 52.3830743 15.00898 51.6496613 15.7117644 50.6693712 16.0955789 49.6554066 16.076948 48.2942008 16.076948 47.2351907 15.5614533 46.4783762 14.530464 45.721567 13.499604 45.3431624 12.0612573 45.3431624 10.215424 45.3431624 8.24315733 45.7478452 6.69804 46.5572109 5.580072 47.2830316 4.5280724 48.491265 3.91748247 49.7657745 3.9586 51.0428906 3.9586 52.0204362 4.38835267 52.6984113 5.247858 53.1085542 5.79553262 53.3669437 6.44236208 53.4473386 7.122656zM49.5450387 9.772456C49.0157889 9.7605906 48.517958 10.0238092 48.2285016 10.46855 47.9282409 10.8989497 47.7735023 11.4146463 47.7870301 11.93984 47.7760426 12.4683645 47.9334667 12.9866118 48.2363848 13.419136 48.5305764 13.8718128 49.0381929 14.1384288 49.5765678 14.123042 50.1044448 14.1351706 50.6037959 13.8832027 50.9088676 13.450776 51.2274707 13.0188543 51.393868 12.492881 51.3818642 11.955658 51.3964092 11.4400983 51.2473375 10.9332324 50.9561593 10.508198 50.6434066 10.0355272 50.1102861 9.75756577 49.5450387 9.77246L49.5450387 9.772456z"/>
    <polygon fill="#FFF" fill-rule="nonzero" points="9.22 4.2 13.276 4.2 8.258 15.8 4.185 15.8"/>
    <path fill="#FFF" fill-rule="nonzero" d="M25.9805304,12.366254 C26.3470525,12.3662563 26.6789963,12.1490854 26.8268376,11.812566 L30.1191233,4.2 L15.9841006,4.2 L10.9660669,15.8 L15.0044375,15.8 L18.8032143,7.1096 L24.7969426,7.1096 L23.5955451,9.88506 L18.3696101,9.866038 L22.5865096,15.8 L27.1837955,15.8 L24.0598751,12.36625 L25.9805304,12.366254 Z"/>
  </g>
</svg>
