<svg xmlns="http://www.w3.org/2000/svg" width="59" height="20" viewBox="0 0 59 20">
  <g fill="none" fill-rule="evenodd">
    <rect width="59" height="20" fill="#EB0000" rx="2"/>
    <path fill="#FFF" fill-rule="nonzero" d="M44.0567092,4.235352 L44.0567092,6.292 L39.4132697,6.292 L38.9167109,8.89454 C39.4693317,8.30561815 40.2472782,7.98299991 41.0530252,8.0086 C41.8487259,7.9911509 42.6286896,8.23253822 43.2763485,8.696686 C44.211654,9.387506 44.6793393,10.43692 44.6794044,11.844928 C44.6794044,13.226568 44.1801853,14.3208387 43.1817472,15.12774 C42.3922115,15.7646847 41.4036053,16.1009166 40.390808,16.076958 C39.1715039,16.076958 38.1913598,15.748638 37.4503756,15.091998 C36.7093329,14.4355527 36.3178214,13.5483133 36.275841,12.43028 L38.5382897,12.43028 C38.563948,12.8073299 38.7011985,13.1681108 38.9324616,13.466412 C39.2947963,13.8904401 39.8227156,14.1357911 40.37937,14.1388642 C40.9360244,14.1419373 41.4666024,13.9024299 41.8335653,13.482428 C42.180666,13.0390356 42.3619448,12.4876186 42.3458906,11.924028 C42.3750015,11.3437419 42.183393,10.7740178 41.8098178,10.330082 C41.4457546,9.9289202 40.9232733,9.71020729 40.3830144,9.732816 C39.6805775,9.71960347 39.0283825,10.0970066 38.6879783,10.713676 L36.6304988,10.682036 L37.726384,4.235356 L44.0567092,4.235352 Z"/>
    <polygon fill="#FFF" fill-rule="nonzero" points="9.221 4.2 13.277 4.2 8.259 15.8 4.186 15.8"/>
    <polygon fill="#FFF" fill-rule="nonzero" points="15.948 4.2 30.343 4.2 28.853 7.645 18.572 7.645 16.531 12.355 26.816 12.355 25.326 15.8 10.931 15.8"/>
  </g>
</svg>
