<svg xmlns="http://www.w3.org/2000/svg" width="59" height="20" viewBox="0 0 59 20">
  <g fill="none" fill-rule="evenodd">
    <rect width="59" height="20" fill="#EB0000" rx="2"/>
    <path fill="#FFF" fill-rule="nonzero" d="M44.4681086 7.122656L42.2765138 7.122656C42.0715446 6.23144533 41.5670049 5.78580733 40.7628947 5.785742 39.9114835 5.785742 39.307087 6.31041667 38.9497051 7.359766 38.7633478 7.99135721 38.6444279 8.6410357 38.5949497 9.297852 38.8835054 8.881026 39.2621038 8.53492631 39.7025232 8.285352 40.1422856 8.06880669 40.6279829 7.96295805 41.1176481 7.976952 42.1178562 7.94022301 43.0796027 8.36580365 43.7270647 9.13164 44.3657228 9.89656767 44.6998663 10.8714746 44.6651926 11.86875 44.6651926 13.171094 44.2447432 14.2178387 43.4038443 15.008984 42.6704313 15.7117684 41.6901413 16.0955829 40.6761767 16.076952 39.3149709 16.076952 38.2559608 15.5614573 37.4991462 14.530468 36.742337 13.4996093 36.3639324 12.0612633 36.3639324 10.21543 36.3639324 8.24316333 36.7686153 6.698046 37.577981 5.580078 38.3037995 4.52807734 39.5120313 3.91748519 40.7865405 3.9586 42.0636567 3.9586 43.0412023 4.38835267 43.7191774 5.247858 44.1293543 5.79551379 44.3877489 6.44235243 44.4681086 7.122656zM40.5658088 9.77246C40.0365589 9.7605946 39.5387281 10.0238132 39.2492716 10.468554 38.9490109 10.8989537 38.7942723 11.4146503 38.8078001 11.939844 38.7968127 12.4683685 38.9542368 12.9866158 39.2571549 13.41914 39.5513465 13.8718168 40.058963 14.1384328 40.5973379 14.123046 41.1251952 14.1350868 41.6245075 13.8831384 41.9296376 13.45078 42.2482407 13.0188583 42.414638 12.492885 42.4026343 11.955662 42.4171793 11.4401023 42.2681075 10.9332364 41.9769293 10.508202 41.6642374 10.0354628 41.131077 9.75747916 40.5658088 9.77246zM53.0689333 4.235352L53.0689333 6.292 48.4255915 6.292 47.928935 8.89454C48.4815831 8.30559983 49.2595666 7.9829807 50.065345 8.0086 50.8609852 7.99115093 51.6408868 8.23254026 52.2884729 8.696686 53.2238767 9.387506 53.6916245 10.43692 53.6917162 11.844928 53.6917162 13.226568 53.192432 14.3208387 52.1938636 15.12774 51.4044028 15.7646802 50.41586 16.1009145 49.4031238 16.076958 48.1838197 16.076958 47.2036463 15.748638 46.4626036 15.091998 45.721561 14.4355527 45.3300169 13.5483133 45.2879715 12.43028L47.5505158 12.43028C47.5761292 12.8073397 47.7133846 13.1681334 47.9446876 13.466412 48.3070224 13.8904401 48.8349417 14.1357911 49.3915961 14.1388642 49.9482504 14.1419373 50.4788285 13.9024299 50.8457914 13.482428 51.1929225 13.0390465 51.3742357 12.4876299 51.3582144 11.924028 51.3873252 11.3437419 51.1957167 10.7740178 50.8221416 10.330082 50.4580278 9.9289336 49.9355243 9.71022639 49.3952405 9.732816 48.6928173 9.71955804 48.0406296 10.0969787 47.7003021 10.713676L45.6427269 10.682036 46.7385243 4.235356 53.0689333 4.235352z"/>
    <polygon fill="#FFF" fill-rule="nonzero" points="9.22 4.2 13.276 4.2 8.258 15.8 4.185 15.8"/>
    <path fill="#FFF" fill-rule="nonzero" d="M25.9805304,12.366254 C26.3470525,12.3662563 26.6789963,12.1490854 26.8268376,11.812566 L30.1191233,4.2 L15.9841006,4.2 L10.9660669,15.8 L15.0044375,15.8 L18.8032143,7.1096 L24.7969426,7.1096 L23.5955451,9.88506 L18.3696101,9.866038 L22.5865096,15.8 L27.1837955,15.8 L24.0598751,12.36625 L25.9805304,12.366254 Z"/>
  </g>
</svg>
