<svg xmlns="http://www.w3.org/2000/svg" width="59" height="20" viewBox="0 0 59 20">
  <g fill="none" fill-rule="evenodd">
    <rect width="59" height="20" fill="#EB0000" rx="2"/>
    <path fill="#FFF" fill-rule="nonzero" d="M4.18581081,15.8 L6.60680405,4.2 L10.5576633,4.2 C11.1580758,4.18691081 11.7586976,4.21334352 12.3556624,4.279128 C12.8636647,4.33823656 13.3545283,4.49972124 13.7987924,4.75389 C14.1816039,4.97912363 14.4932317,5.30826479 14.697791,5.703412 C14.9053412,6.10959937 15.0109173,6.5604899 15.0053484,7.016918 C15.0186464,7.61931 14.829788,8.20870742 14.4691042,8.690452 C14.0401395,9.21025661 13.4618368,9.58466231 12.8130459,9.76262 C13.358945,9.89557375 13.8472592,10.2023251 14.2049177,10.636972 C14.5320172,11.0372126 14.70918,11.5397086 14.7056762,12.0573 C14.7033943,12.7614498 14.4979748,13.4498761 14.1142292,14.039428 C13.7309528,14.6554268 13.1578124,15.1291069 12.4818367,15.388542 C11.7878691,15.6628473 10.8389252,15.8 9.63500497,15.8 L4.18581081,15.8 Z M8.0026125,8.884312 L9.81638213,8.884312 C10.4078089,8.90938488 10.9998085,8.85078308 11.5749509,8.710232 C12.2083509,8.5325611 12.6466141,7.95377397 12.6474413,7.29386 C12.6578522,7.02795333 12.5677148,6.76792403 12.3950967,6.565894 C12.2040367,6.36353659 11.9518047,6.23004362 11.6774733,6.186094 C11.2609923,6.1429187 10.8421472,6.12705967 10.4236077,6.138618 L8.57828706,6.138618 L8.0026125,8.884312 Z M6.95378186,13.9326 L9.2486028,13.9326 C10.2106948,13.9326 10.8560292,13.8706173 11.1846061,13.746652 C11.5045702,13.6293898 11.7801968,13.4150546 11.9732009,13.133418 C12.163056,12.8710064 12.2664482,12.5556283 12.2689244,12.23137 C12.2774596,11.8653877 12.1210016,11.5150705 11.843084,11.277892 C11.5591876,11.0273227 11.0860302,10.9020387 10.4236117,10.90204 L7.5846573,10.90204 L6.95378186,13.9326 Z M15.3400219,15.8 L17.7531239,4.2 L26.3251622,4.2 L25.9229795,6.1386 L19.7324982,6.1386 L19.1804814,8.773534 L25.1659238,8.773534 L24.7637391,10.712134 L18.7782988,10.712134 L18.0527901,13.8614 L24.7795097,13.8614 L24.3694417,15.8 L15.3400219,15.8 Z M27.5115206,15.8 L24.4360001,15.8 L29.5382105,9.928786 L26.6677229,4.2 L29.1518003,4.2 L30.2794917,6.375988 C30.3163002,6.455116 30.5739083,6.99054133 31.0523159,7.982264 C31.0915678,8.05090961 31.125829,8.12230922 31.1548324,8.195906 C31.7962288,7.409906 32.3351028,6.76634067 32.7714543,6.26521 L34.5931092,4.2 L37.5818878,4.2 L32.290411,10.3086 L35.1372387,15.8 L32.4560156,15.8 L31.5885561,14.051296 C31.1364261,13.128144 30.8367599,12.466116 30.6895576,12.065212 C30.1941207,12.7352931 29.6650794,13.3796888 29.1044788,13.995908 L27.5115206,15.8 Z"/>
  </g>
</svg>
