<svg xmlns="http://www.w3.org/2000/svg" width="59" height="20" viewBox="0 0 59 20">
  <g fill="none" fill-rule="evenodd">
    <rect width="59" height="20" fill="#EB0000" rx="2"/>
    <path fill="#FFF" fill-rule="nonzero" d="M44.734685,11.204296 L44.734685,13.158 L43.2841341,13.158 L43.2841341,15.8 L41.037452,15.8 L41.037452,13.158 L36.228354,13.158 L36.228354,10.990626 L41.1555975,4.235352 L43.2841341,4.235352 L43.2841341,11.204296 L44.734685,11.204296 Z M41.0845583,11.22793 L41.0845583,6.9248 L38.1203784,11.22793 L41.0845583,11.22793 Z"/>
    <polygon fill="#FFF" fill-rule="nonzero" points="9.221 4.2 13.277 4.2 8.259 15.8 4.186 15.8"/>
    <polygon fill="#FFF" fill-rule="nonzero" points="15.948 4.2 30.343 4.2 28.853 7.645 18.572 7.645 16.531 12.355 26.816 12.355 25.326 15.8 10.931 15.8"/>
  </g>
</svg>
