<svg xmlns="http://www.w3.org/2000/svg" width="36" height="36" viewBox="0 0 36 36">
  <g fill="none" fill-rule="evenodd">
    <path stroke="#000" d="M4.65,4.5 L31.5,31.35"/>
    <path fill="#000" d="M8.9985,18.0015 L8.9985,16.506 L11.9985,16.506 L11.9985,18.006 L9,18.006 L9,19.5015 L7.4985,19.5015 L7.4985,18.0015 L8.9985,18.0015 Z M5.9985,21.00255 L7.4985,21.00255 L7.4985,24.00555 L4.4985,24.00555 L4.4985,22.50555 L5.9985,22.50255 L5.9985,21.003 L4.4985,21.003 L4.4985,18.0015 L5.9985,18.0015 L5.9985,21.00255 Z M10.4985,12.0015 L11.9985,12.0015 L11.9985,13.5015 L10.4985,13.5015 L10.4985,15.0003 L7.4985,15.0003 L7.4985,13.5003 L6,13.5003 L6,12.0003 L4.5,12.0003 L4.5,9.0003 L6,9.0003 L6,10.5003 L7.5,10.5003 L7.5,13.5003 L10.4985,13.5003 L10.4985,12.00405 L8.9985,12.00405 L8.9985,9.00405 L7.4985,8.99955 L7.4985,7.49955 L8.3775,7.49955 L11.3835,10.50405 L10.4985,10.50405 L10.4985,12.0015 Z M30,15.0048 L28.5,15.0048 L28.5,12.0018 L31.5,12.0018 L31.5,13.5018 L30,13.5048 L30,15.0045 L31.5,15.0045 L31.5,18.006 L30,18.006 L30,15.0048 Z M28.5,22.5054 L29.99985,22.5054 L29.99985,24.8784 L28.49985,23.3784 L28.49985,22.5054 L27.627,22.5054 L27,21.8784 L27,19.5054 L31.5,19.5054 L31.5,22.5054 L30,22.5054 L30,21.0054 L28.5,21.0054 L28.5,22.5054 Z M16.49925,7.50165 L16.49925,6.00165 L17.99925,6.00165 L17.99925,4.50465 L19.49925,4.50465 L19.49925,6.00165 L19.49925,7.50165 L19.49925,7.50465 L17.99925,7.50465 L17.99925,7.50165 L16.50015,7.50165 L16.50015,9.0015 L14.12265,9.0015 L12.62565,7.5045 L13.49865,7.5045 L13.49865,7.5015 L16.50015,7.5015 Z M21,15.0003 L20.121,15.0003 L18.621,13.5003 L22.5,13.5003 L22.5,17.3793 L21,15.8793 L21,15.0003 Z M21,20.99955 L21,20.12055 L22.5,21.62055 L22.5,22.49955 L13.5,22.49955 L13.5,13.49955 L14.379,13.49955 L15.879,14.99955 L15,14.99955 L15,20.99955 L21,20.99955 Z M16.5,19.5003 L16.5,16.5003 L17.3775,16.5003 L19.5,18.6213 L19.5,19.5003 L16.5,19.5003 Z M10.49895,4.49235 L15.00045,4.49235 L15.00045,5.99385 L11.11395,5.99385 L10.49895,5.37885 L10.49895,4.49235 Z M30,10.5045 L30,9.003 L31.5,9.003 L31.5,10.5045 L30,10.5045 Z M27,19.5018 L24.6225,19.5018 L24,18.8793 L24,18.0018 L27,18.0018 L27,16.5048 L28.5,16.5048 L28.5,18.0048 L27,18.0048 L27,19.5018 Z M4.4985,4.49295 L5.3715,4.49295 L6.879,6.00195 L5.9985,6.00495 L5.9985,7.50495 L4.4985,7.50495 L4.4985,6.00495 L4.4985,5.99295 L4.4985,4.49295 Z M19.49925,10.50465 L19.49925,7.50465 L20.99925,7.50465 L20.99925,6.00465 L22.49925,6.00465 L22.49925,7.50165 L23.99925,7.50165 L23.99925,4.50465 L25.49925,4.50465 L25.49925,6.00165 L26.99925,6.00165 L26.99925,7.50165 L25.49925,7.50165 L25.49925,9.00165 L20.99925,9.00465 L20.99925,10.50465 L19.49925,10.50465 Z M27,12.0018 L27,13.5018 L25.5,13.5018 L25.5,13.5048 L24,13.5048 L24,10.5048 L25.5,10.5048 L25.5,12.0018 L27,12.0018 Z M25.5,31.5075 L25.5,28.5075 L27,28.5075 L27,31.5075 L25.5,31.5075 Z M30,30.00255 L30,29.12055 L31.5,30.62055 L31.5,31.50705 L30,31.50705 L30,31.50255 L28.5,31.50255 L28.5,30.00255 L30,30.00255 Z M30,7.50465 L30,6.00165 L27,6.00165 L27,4.50165 L30,4.50165 L30,4.50465 L31.5,4.50465 L31.5,7.50465 L30,7.50465 Z M27,27.00225 L27.882,27.00225 L29.382,28.50225 L27,28.50225 L27,27.00225 Z M30.6234,25.5024 L31.4994,25.5024 L31.4994,26.3784 L30.6234,25.5024 Z M25.5,10.5015 L25.5,9.0015 L28.5,9.0015 L28.5,10.5015 L25.5,10.5015 Z M16.5,31.503 L16.5,30.0015 L19.5,30.0015 L19.5,31.503 L16.5,31.503 Z M17.99925,12.00465 L17.12475,12.00465 L15.62175,10.50165 L16.49925,10.50165 L16.49925,9.00465 L17.99925,9.00465 L17.99925,10.50165 L17.99925,12.00165 L17.99925,12.00465 Z M14.99925,28.50255 L14.99925,27.00705 L16.49925,27.00705 L16.49925,28.50255 L16.49925,30.00255 L16.49925,30.00705 L14.99925,30.00705 L14.99925,30.00255 L13.49925,30.00255 L13.49925,28.50255 L14.99925,28.50255 Z M22.5,28.5069 L22.5,30.0024 L24,30.0024 L24,31.5024 L22.5,31.5024 L22.5,31.5069 L21,31.5069 L21,28.5069 L22.5,28.5069 Z M11.9985,22.50255 L11.9985,24.00255 L13.4985,24.00255 L13.4985,25.50255 L10.4985,25.50255 L10.4985,24.00555 L8.9985,24.00555 L8.9985,22.50555 L11.9985,22.50255 Z M15,25.503 L15,24.003 L18,24.003 L18,25.503 L15,25.503 Z M24,16.5015 L24,15.0015 L27,15.0015 L27,16.5015 L24,16.5015 Z M4.4985,27.0015 L4.4985,25.5015 L5.9985,25.5015 L5.9985,27.0015 L4.4985,27.0015 Z M21,12.003 L21,10.5015 L22.5,10.5015 L22.5,12.003 L21,12.003 Z M5.9985,18.0015 L5.9985,16.5015 L7.4985,16.5015 L7.4985,18.0015 L5.9985,18.0015 Z M4.4985,16.5015 L4.4985,13.5015 L5.9985,13.5015 L5.9985,16.5015 L4.4985,16.5015 Z M7.4985,27.0045 L7.4985,25.5045 L10.5,25.5045 L10.5,27.0045 L7.4985,27.0045 Z M10.4985,28.50255 L10.4985,27.00555 L13.4985,27.00555 L13.4985,28.50555 L11.9985,28.50555 L11.9985,31.50255 L10.4985,31.50255 L10.4985,30.00705 L8.9985,30.00705 L8.9985,28.50705 L10.4985,28.50705 L10.4985,28.50555 L10.4985,28.50255 Z M5.9985,28.50255 L5.9985,30.00705 L8.9985,30.00705 L8.9985,31.50705 L5.9985,31.50705 L5.9985,31.50255 L4.4985,31.50255 L4.4985,28.50255 L5.9985,28.50255 Z M8.9985,21.006 L8.9985,19.506 L11.9985,19.506 L11.9985,21.006 L8.9985,21.006 Z M25.50015,25.5024 L25.50015,24.6204 L26.38215,25.5024 L25.50015,25.5024 Z M24,24.00255 L24,23.12055 L24.885,24.00555 L24,24.00555 L24,27.00255 L25.5,27.00255 L25.5,28.50255 L22.5,28.50255 L22.5,25.50255 L21,25.50255 L21,27.00555 L19.5,27.00555 L19.5,28.50555 L18,28.50555 L18,25.50555 L19.5,25.50555 L19.5,24.00555 L24,24.00255 Z"/>
  </g>
</svg>
