<svg xmlns="http://www.w3.org/2000/svg" width="36" height="36" viewBox="0 0 36 36">
  <path fill="none" stroke="#000" d="M27,15.75105 L22.5,15.75105 M24.75,18.00105 L24.75,13.50105 M27.75,26.24955 L8.25,26.24955 C6.594,26.24955 5.25,24.90555 5.25,23.24955 L5.25,12.74955 C5.25,11.09355 6.594,9.74955 8.25,9.74955 L27.75,9.74955 C29.406,9.74955 30.75,11.09355 30.75,12.74955 L30.75,23.24955 C30.75,24.90555 29.406,26.24955 27.75,26.24955 Z M11.25,18.7503 C9.2145,19.5453 8.25,21.0003 8.25,23.2503 L17.25,23.2503 C17.25,21.0003 16.2855,19.5378 14.25,18.7503 L11.25,18.7503 Z M12.75,12.7503 C14.406,12.7503 15.75,14.0928 15.75,15.7503 C15.75,17.4063 14.406,18.7503 12.75,18.7503 C11.094,18.7503 9.75,17.4063 9.75,15.7503 C9.75,14.0928 11.094,12.7503 12.75,12.7503 Z"/>
</svg>
