<svg xmlns="http://www.w3.org/2000/svg" width="36" height="36" viewBox="0 0 36 36">
  <g fill="none" fill-rule="evenodd" stroke="#000">
    <path d="M27.75,17.24955 C27.75,14.69955 29.7,12.74955 32.25,12.74955 L32.25,6.74955 L25.5,6.74955 L3.75,6.74955 L3.75,27.74955 L32.25,27.74955 L32.25,21.74955 C29.7,21.74955 27.75,19.79955 27.75,17.24955 Z M12.74565,11.99595 C12.74565,13.23945 11.73915,14.24595 10.49565,14.24595 C9.25365,14.24595 8.24565,13.23945 8.24565,11.99595 C8.24565,10.75245 9.25365,9.74595 10.49565,9.74595 C11.73915,9.74595 12.74565,10.75245 12.74565,11.99595 Z M18.75,22.49955 C18.75,23.74305 17.742,24.74955 16.5,24.74955 C15.2565,24.74955 14.25,23.74305 14.25,22.49955 C14.25,21.25755 15.2565,20.24955 16.5,20.24955 C17.742,20.24955 18.75,21.25755 18.75,22.49955 Z M6.75,23.99955 L20.25,10.49955"/>
    <path stroke-dasharray="1 1" d="M24.75,26.99955 L24.75,7.49955"/>
  </g>
</svg>
