<svg xmlns="http://www.w3.org/2000/svg" width="36" height="36" viewBox="0 0 36 36">
  <g fill="none" fill-rule="evenodd" stroke="#000">
    <path d="M27.75,17.24955 C27.75,14.69955 29.7,12.74955 32.25,12.74955 L32.25,6.74955 L25.5,6.74955 L3.75,6.74955 L3.75,27.74955 L32.25,27.74955 L32.25,21.74955 C29.7,21.74955 27.75,19.79955 27.75,17.24955 Z M15.10035,15.24855 L11.89935,19.25055 M16.5,11.2503 C17.742,11.2503 18.75,12.2568 18.75,13.5003 C18.75,14.7423 17.742,15.7503 16.5,15.7503 C15.2565,15.7503 14.25,14.7423 14.25,13.5003 C14.25,12.2568 15.2565,11.2503 16.5,11.2503 Z M10.5,18.74955 C11.742,18.74955 12.75,19.75755 12.75,20.99955 C12.75,22.24155 11.742,23.24955 10.5,23.24955 C9.2565,23.24955 8.25,22.24155 8.25,20.99955 C8.25,19.75755 9.2565,18.74955 10.5,18.74955 Z"/>
    <path stroke-dasharray="1 1" d="M24.75,26.99955 L24.75,7.49955"/>
  </g>
</svg>
