<svg xmlns="http://www.w3.org/2000/svg" width="36" height="36" viewBox="0 0 36 36">
  <g fill="none" fill-rule="evenodd">
    <path fill="#000" d="M16.488,24.0015 L16.488,26.988 L8.988,26.988 L8.988,24.0015 L7.488,24.0015 L7.488,25.4895 L7.5,25.4895 L7.5,26.9895 L10.488,26.9895 L10.488,28.4895 L7.488,28.4895 L7.488,27.0015 L5.988,27.0015 L5.988,25.4895 L4.488,25.4895 L4.488,23.9895 L7.488,23.9895 L7.488,22.4895 L8.988,22.4895 L8.988,20.9895 L6,20.9895 L6,22.5015 L4.488,22.5015 L4.488,20.9895 L5.988,20.9895 L5.988,19.4895 L7.488,19.4895 L7.488,17.988 L8.988,17.988 L8.988,16.4895 L11.988,16.4895 L11.988,17.988 L13.5,17.988 L13.5,19.488 L14.9895,19.488 L14.9895,17.9895 L16.488,17.9895 L16.488,16.488 L17.988,16.488 L17.988,14.988 L19.5,14.988 L19.5,14.9895 L21.0015,14.9895 L21.0015,17.9895 L19.4895,17.9895 L19.4895,16.5 L18,16.5 L18,18 L17.9895,18 L17.9895,19.4895 L19.5,19.4895 L19.5,20.991 L20.9895,20.991 L20.9895,22.491 L18,22.491 L18,23.9895 L20.9895,23.9895 L20.9895,25.4895 L19.491,25.4895 L19.491,26.9895 L16.4895,26.9895 L16.4895,25.4895 L17.988,25.4895 L17.988,24.0015 L16.488,24.0015 Z M16.488,22.4895 L17.988,22.4895 L17.988,20.991 L17.988,19.4895 L16.488,19.4895 L16.488,22.4895 Z M9,19.488 L11.988,19.488 L11.988,17.9895 L9,17.9895 L9,19.488 Z M5.988,14.9895 L5.988,14.988 L7.5,14.988 L7.5,16.5 L6,16.5 L6,17.9895 L4.488,17.9895 L4.488,14.9895 L5.988,14.9895 Z M6,29.9895 L7.5,29.9895 L7.5,31.5015 L5.988,31.5015 L5.988,31.491 L4.488,31.491 L4.488,28.491 L6,28.491 L6,29.9895 Z M17.988,30.0015 L16.488,30.0015 L16.488,28.4895 L13.4895,28.4895 L13.4895,26.9895 L16.4895,26.9895 L16.4895,28.4895 L18,28.4895 L18,29.9895 L19.4895,29.9895 L19.4895,28.491 L21.0015,28.491 L21.0015,31.491 L19.5,31.491 L19.5,31.5015 L17.988,31.5015 L17.988,30.0015 Z M10.488,29.9895 L10.488,28.4895 L12,28.4895 L12,29.9895 L14.9895,29.9895 L14.9895,31.4895 L11.9895,31.4895 L11.9895,30.0015 L10.5,30.0015 L10.5,31.5015 L8.988,31.5015 L8.988,29.9895 L10.488,29.9895 Z M11.9895,16.4895 L11.9895,14.9895 L14.9895,14.9895 L14.9895,16.4895 L11.9895,16.4895 Z M11.988,24.0015 L11.988,22.4895 L13.5,22.4895 L13.5,24.0015 L11.988,24.0015 Z M10.488,25.488 L14.988,25.488 L14.988,20.988 L10.488,20.988 L10.488,25.488 Z"/>
    <path stroke="#000" d="M26.24865,12.0012 C26.24865,13.2447 25.24065,14.2512 23.99865,14.2512 C22.75515,14.2512 21.74865,13.2447 21.74865,12.0012 C21.74865,10.7577 22.75515,9.7512 23.99865,9.7512 C25.24065,9.7512 26.24865,10.7577 26.24865,12.0012 Z M22.4694,21.837 L24.0069,24.264 L29.8374,15.0615 C30.3804,14.1075 30.7284,13.116 30.7389,12.0105 C30.7389,8.283 27.7164,5.2605 23.9889,5.2605 C20.2599,5.2605 17.2389,8.283 17.2389,12.0105 C17.2584,12.531 17.3394,13.014 17.4714,13.4715"/>
  </g>
</svg>
