<svg xmlns="http://www.w3.org/2000/svg" width="36" height="36" viewBox="0 0 36 36">
  <g fill="none" fill-rule="evenodd" stroke="#000">
    <path d="M27.75,17.24955 C27.75,14.69955 29.7,12.74955 32.25,12.74955 L32.25,6.74955 L25.5,6.74955 L3.75,6.74955 L3.75,27.74955 L32.25,27.74955 L32.25,21.74955 C29.7,21.74955 27.75,19.79955 27.75,17.24955 Z M20.0508,13.6329 C19.5843,12.2379 18.3603,11.2509 16.9098,11.2509 C15.8058,11.2509 14.8428,11.8299 14.2368,12.7179 C13.6293,11.8299 12.6648,11.2509 11.5608,11.2509 C9.7053,11.2509 8.2143,12.8664 8.2143,14.8854 C8.2143,15.5184 8.3613,16.1124 8.6193,16.6299 C8.7648,16.9209 8.9388,17.1894 9.1473,17.4264 L14.2353,22.9629 L19.3158,17.4339 C19.4358,17.2749 19.7208,16.8744 19.8153,16.6959 C20.0928,16.1634 20.2518,15.5454 20.2518,14.8854 C20.2518,14.4444 20.1813,14.0229 20.0508,13.6329 Z"/>
    <path stroke-dasharray="1 1" d="M24.75,26.99955 L24.75,7.49955"/>
  </g>
</svg>
