<svg xmlns="http://www.w3.org/2000/svg" width="36" height="36" viewBox="0 0 36 36">
  <g fill="none" fill-rule="evenodd" stroke="#000">
    <path d="M3.75,11.2503 L12.0135,11.2503 L15,15.7623 L18,15.7623 C19.2435,15.7623 20.25,16.7688 20.25,18.0123 L20.25,18.0003 L20.25,21.7503 L17.25,21.7503 M12.75,21.74955 L6.75,21.74955 M17.25,20.99955 C17.25,22.24305 16.2435,23.24955 15,23.24955 C13.7565,23.24955 12.75,22.24305 12.75,20.99955 C12.75,19.75755 13.7565,18.74955 15,18.74955 C16.2435,18.74955 17.25,19.75755 17.25,20.99955 Z M9,14.24295 L10.506,14.24295 L12,16.50045 M3.75,18.888 C3.9855,18.804 4.236,18.75 4.5,18.75 C5.7435,18.75 6.75,19.758 6.75,21 C6.75,22.2435 5.7435,23.25 4.5,23.25 C4.236,23.25 3.9855,23.196 3.75,23.112 M27.75,17.24955 C27.75,14.69955 29.7,12.74955 32.25,12.74955 L32.25,6.74955 L25.5,6.74955 L3.75,6.74955 L3.75,27.74955 L32.25,27.74955 L32.25,21.74955 C29.7,21.74955 27.75,19.79955 27.75,17.24955 Z"/>
    <path stroke-dasharray="1 1" d="M24.75,26.99955 L24.75,7.49955"/>
  </g>
</svg>
