<svg xmlns="http://www.w3.org/2000/svg" width="24" height="24" viewBox="0 0 24 24">
  <path fill="none" stroke="#000" d="M9.5,2.4997 C12.261,2.4997 14.5,4.7387 14.5,7.4997 C14.5,10.2617 12.261,12.4997 9.5,12.4997 C6.739,12.4997 4.5,10.2617 4.5,7.4997 C4.5,4.7387 6.739,2.4997 9.5,2.4997 Z M9.5,10.9997 L9.5,3.9997 M6,7.4997 L13,7.4997 M8.8613,17.028 L4.1263,13.72 C3.6953,13.375 3.0663,13.443 2.7203,13.874 C2.3743,14.304 2.4433,14.934 2.8743,15.28 L8.7993,20.5 L12.7423,20.5 L13.7503,21.5 L21.2003,21.5 L16.1723,16.436 C15.0353,15.342 13.5883,14.528 12.1093,14.5 L10.0003,14.5 C8.0153,14.5 7.9683,17.5 10.0003,17.5 L12.0003,17.5"/>
</svg>
