<svg xmlns="http://www.w3.org/2000/svg" width="24" height="24" viewBox="0 0 24 24">
  <g fill="none" fill-rule="evenodd">
    <path stroke="#000" d="M2,20.4997 L9.5,20.4997 L14.494,20.4997 L22,20.4997 M2,4.4997 L22,4.4997 M3.5,20.4997 L3.5,4.4997 M20.5,20.4997 L20.5,4.4997 M4.5,4.5 L19.5,4.5 L19.5,2.5 L4.5,2.5 L4.5,4.5 Z M13.5,5.9997 L13.5,10.9997 M10.5,5.9997 L10.5,10.9997 M10.5,8.4997 L13.5,8.4997 M9.5,20.4997 L9.5,17.4997 L14.5,17.4997 L14.494,20.4997"/>
    <path fill="#000" d="M7,11.9997 L7.5,13.6007 L9,13.6007 L7.8,14.3997 L8.3,15.9997 L7,15.1007 L5.7,15.9997 L6.2,14.4997 L5,13.6007 L6.5,13.6007 L7,11.9997 Z M12,11.9997 L12.5,13.4997 L14,13.4997 L12.8,14.3997 L13.3,15.9997 L12,15.1007 L10.7,15.9997 L11.2,14.4997 L10,13.6007 L11.5,13.6007 L12,11.9997 Z M17,11.9997 L17.5,13.4997 L19,13.4997 L17.8,14.3997 L18.3,15.9997 L17,15.1007 L15.7,15.9997 L16.2,14.4997 L15,13.6007 L16.5,13.6007 L17,11.9997 Z"/>
  </g>
</svg>
