<svg xmlns="http://www.w3.org/2000/svg" width="24" height="24" viewBox="0 0 24 24">
  <path fill="none" stroke="#000" d="M2.75,20.25 L14.25,20.25 L14.25,3.75 L2.75,3.75 L2.75,20.25 Z M16.8789,6.0002 L18.9999,3.8782 L21.1209,6.0002 M21.1211,18.0007 L19.0001,20.1217 L16.8791,18.0007 M9.4995,6.5002 C9.4995,7.0522 9.0515,7.5002 8.4995,7.5002 C7.9475,7.5002 7.4995,7.0522 7.4995,6.5002 C7.4995,5.9472 7.9475,5.5002 8.4995,5.5002 C9.0515,5.5002 9.4995,5.9472 9.4995,6.5002 Z M10.4995,14.4997 L10.4995,9.4997 L6.4995,9.4997 L6.4995,14.4997 L7.4995,14.4997 L7.4995,18.4997 L9.4995,18.4997 L9.4995,14.4997 L10.4995,14.4997 Z"/>
</svg>
