<svg xmlns="http://www.w3.org/2000/svg" width="24" height="24" viewBox="0 0 24 24">
  <path fill="none" stroke="#000" d="M6.5001,4.5002 C6.5001,3.3952 5.6041,2.5002 4.5001,2.5002 C3.3961,2.5002 2.5001,3.3952 2.5001,4.5002 C2.5001,5.6042 3.3961,6.5002 4.5001,6.5002 C5.6041,6.5002 6.5001,5.6042 6.5001,4.5002 Z M6.232,3.5002 L11.5,3.5002 L12.484,4.4842 L11.469,5.5002 L6.232,5.5002 M2.5,21.5005 L21.5,21.5005 L21.5,8.5005 L2.5,8.5005 L2.5,21.5005 Z M17.5001,12.5007 L6.5001,12.5007 C5.9481,12.5007 5.5001,12.9477 5.5001,13.5007 L5.5001,17.5007 C5.5001,18.0527 5.9481,18.5007 6.5001,18.5007 L17.5001,18.5007 C18.0521,18.5007 18.5001,18.0527 18.5001,17.5007 L18.5001,13.5007 C18.5001,12.9477 18.0521,12.5007 17.5001,12.5007 Z M10.0001,11.5007 L14.0001,11.5007"/>
</svg>
