<svg xmlns="http://www.w3.org/2000/svg" width="24" height="24" viewBox="0 0 24 24">
  <path fill="none" stroke="#000" d="M8.5,9.75 C8.5,12.356 9.79,14.818 12,16.426 C15.971,13.536 16.667,8.204 13.554,4.517 C13.101,3.98 12.579,3.495 12,3.074 C9.79,4.681 8.5,7.144 8.5,9.75 Z M2.897,12.9756 C2.332,13.2876 1.803,13.6616 1.321,14.0916 C2.999,17.2396 6.469,18.9986 10,18.4936 M14,18.4932 C17.531,18.9992 21.001,17.2392 22.679,14.0912 C22.197,13.6612 21.669,13.2872 21.103,12.9752 M6.9971,7.2061 C5.9451,6.8001 4.8221,6.6001 3.6861,6.6361 C2.7241,11.1691 5.5881,15.6341 10.1111,16.6471 M17.0029,7.2061 C18.0549,6.8001 19.1779,6.6001 20.3139,6.6361 C21.2759,11.1691 18.4119,15.6341 13.8889,16.6471"/>
</svg>
