<svg xmlns="http://www.w3.org/2000/svg" width="24" height="24" viewBox="0 0 24 24">
  <path fill="none" stroke="#000" d="M3.5,17.5 L14.5,17.5 L14.5,2.5 L3.5,2.5 L3.5,17.5 Z M4.5,21.5 L13.5,21.5 L13.5,17.5 L4.5,17.5 L4.5,21.5 Z M4.9995,4.5002 L12.9995,4.5002 M12.5,7.0002 L12.5,10.0002 M5.5,11.5 L10.5,11.5 L10.5,7.5 L5.5,7.5 L5.5,11.5 Z M16.5,17.5 L21.5,17.5 L21.5,9.5 L16.5,9.5 L16.5,17.5 Z M18,15.4997 L20,15.4997 M18,13.4997 L20,13.4997 M5.5,14.5 L10.5,14.5 L10.5,13.5 L5.5,13.5 L5.5,14.5 Z"/>
</svg>
