<svg xmlns="http://www.w3.org/2000/svg" width="24" height="24" viewBox="0 0 24 24">
  <path fill="none" stroke="#000" d="M14.6006,6.2995 L16.4996,7.9995 L18.4006,5.5995 M20.5,7.4997 C20.5,9.7317 18.732,11.4997 16.5,11.4997 C14.269,11.4997 12.5,9.7317 12.5,7.4997 C12.5,5.2677 14.269,3.4997 16.5,3.4997 C18.732,3.4997 20.5,5.2677 20.5,7.4997 Z M12.5,20.5 L20.5,20.5 L20.5,15.51 L12.5,15.51 L12.5,20.5 Z M15.001,14.5095 L18.001,14.5095 M6.4995,6.5002 C6.4995,7.0522 6.0515,7.5002 5.4995,7.5002 C4.9475,7.5002 4.4995,7.0522 4.4995,6.5002 C4.4995,5.9472 4.9475,5.5002 5.4995,5.5002 C6.0515,5.5002 6.4995,5.9472 6.4995,6.5002 Z M7.4995,14.4997 L7.4995,9.4997 L3.4995,9.4997 L3.4995,14.4997 L4.4995,14.4997 L4.4995,20.4997 L6.4995,20.4997 L6.4995,14.4997 L7.4995,14.4997 Z"/>
</svg>
