<svg xmlns="http://www.w3.org/2000/svg" width="24" height="24" viewBox="0 0 24 24">
  <path fill="none" stroke="#000" d="M3.5,11.5 L9.5,11.5 M3.5,16.5 L8,16.5 M8,21.5 L3.5,21.5 L3.5,9 C3.5,8.172 4.171,7.5 5,7.5 L5.5,7.5 L5.5,2.5 L7.5,2.5 L7.5,7.5 L8,7.5 C8.829,7.5 9.5,8.172 9.5,9 L9.5,12 M14.5,17 C14.5,17.828 13.829,18.5 13,18.5 C12.171,18.5 11.5,17.828 11.5,17 C11.5,16.172 12.171,15.5 13,15.5 C13.829,15.5 14.5,16.172 14.5,17 Z M18.5,18.5 C18.5,19.053 18.052,19.5 17.5,19.5 C16.948,19.5 16.5,19.053 16.5,18.5 C16.5,17.947 16.948,17.5 17.5,17.5 C18.052,17.5 18.5,17.947 18.5,18.5 Z M20.5,17.5 C20.5,16.762 20.905,16.124 21.5,15.777 L21.5,13.5 L18.5,13.5 L18.5,14 C18.5,14.828 17.829,15.5 17,15.5 C16.171,15.5 15.5,14.828 15.5,14 L15.5,13.5 L9.5,13.5 L9.5,21.5 L21.5,21.5 L21.5,19.223 C20.905,18.876 20.5,18.238 20.5,17.5 Z"/>
</svg>
