<svg xmlns="http://www.w3.org/2000/svg" width="48" height="48" viewBox="0 0 48 48">
  <path fill="none" stroke="#000" d="M22.5,17.4997 C22.5,19.1567 21.157,20.4997 19.5,20.4997 C17.843,20.4997 16.5,19.1567 16.5,17.4997 C16.5,15.8437 17.843,14.4997 19.5,14.4997 C21.157,14.4997 22.5,15.8437 22.5,17.4997 Z M31.5,30.4997 C31.5,32.1567 30.157,33.4997 28.5,33.4997 C26.843,33.4997 25.5,32.1567 25.5,30.4997 C25.5,28.8437 26.843,27.4997 28.5,27.4997 C30.157,27.4997 31.5,28.8437 31.5,30.4997 Z M15,32.9997 L33,14.9997 L15,32.9997 Z"/>
</svg>
