<?xml version="1.0" encoding="UTF-8"?>
<svg width="16px" height="16px" viewBox="0 0 16 16" version="1.1" xmlns="http://www.w3.org/2000/svg" xmlns:xlink="http://www.w3.org/1999/xlink">
    <!-- Generator: Sketch 61.2 (89653) - https://sketch.com -->
    <title>svg/FPL/HIM_CUS/sbb_delay</title>
    <desc>Created with Sketch.</desc>
    <g stroke="none" stroke-width="1" fill="none" fill-rule="evenodd">
        <rect fill="#EB0000" x="0" y="0" width="16" height="16" rx="2"></rect>
        <path d="M7.994,2 C4.682,2 2,4.688 2,8 C2,11.312 4.682,14 7.994,14 C11.312,14 14,11.312 14,8 C14,4.688 11.312,2 7.994,2 L7.994,2 Z M8,3.2 C10.652,3.2 12.8,5.348 12.8,8 C12.8,10.652 10.652,12.8 8,12.8 C5.348,12.8 3.2,10.652 3.2,8 C3.2,5.348 5.348,3.2 8,3.2 Z M8.3,5 L7.4,5 L7.4,8.54098361 L10.55,10.4 L11,9.67409836 L8.3,8.09836066 L8.3,5 Z" fill="#FFFFFF"></path>
    </g>
</svg>