<?xml version="1.0" encoding="UTF-8"?>
<svg width="16px" height="16px" viewBox="0 0 16 16" version="1.1" xmlns="http://www.w3.org/2000/svg" xmlns:xlink="http://www.w3.org/1999/xlink">
    <!-- Generator: Sketch 61.2 (89653) - https://sketch.com -->
    <title>svg/FPL/HIM_CUS/sbb_construction</title>
    <desc>Created with Sketch.</desc>
    <g stroke="none" stroke-width="1" fill="none" fill-rule="evenodd">
        <rect fill="#EB0000" x="0" y="0" width="16" height="16" rx="2"></rect>
        <path d="M6.45526742,3.56536942 L7.99340754,5.8536375 L6.47114397,8.89947532 L9.62350912,11.551091 C9.68710951,11.5172991 9.75466726,11.483021 9.82019922,11.452973 C10.0544842,11.3443042 10.2885808,11.2369482 10.3950525,11.1014891 C10.4968603,10.9672454 10.7592237,10.9403578 10.7592237,10.9403578 L10.7592237,10.9403578 L11.1757355,11.0220903 L11.5144665,11.5069914 L11.8549877,11.9366585 L12.4797791,11.9097223 C12.4797791,11.9097223 12.7421896,12.071048 12.820159,12.1260874 C12.8986937,12.1782096 12.8464,12.4752862 12.8464,12.5557546 C12.8464,12.6374871 13.0807321,13.0404611 13.0807321,13.0404611 L13.0807321,13.0404611 L13.3930336,13.3896599 L13.8614152,13.3627236 L14.1502552,13.6595572 L14.5146618,14.0369077 L6.45526742,14.0369077 L7.26440573,13.4164989 L7.6031367,13.4164989 L7.78512804,13.2017869 L7.91520262,12.8792813 C7.91520262,12.8792813 8.17803712,12.6912624 8.3341643,12.5836633 C8.49024437,12.4752862 8.93266754,12.2858087 8.93266754,12.2858087 L8.93266754,12.2858087 L9.14349106,11.9813416 L6.00436421,9.34032538 L6.76530755,10.268702 L4.86737767,13.8867163 C4.75393341,14.1028383 4.53863431,14.2249266 4.31636272,14.2249266 C4.21455499,14.2249266 4.11274725,14.2005187 4.017912,14.1467434 C3.71286568,13.977152 3.60163566,13.5851178 3.76497089,13.2700513 L3.76497089,13.2700513 L5.2580254,10.4274022 L3.65793379,8.47821967 L3.5352557,10.8047041 L2.73087565,13.8817569 C2.65512051,14.1698872 2.40199096,14.3591702 2.12497592,14.3591702 C2.07287071,14.3591702 2.01614859,14.3519743 1.96182914,14.3370475 C1.62832754,14.2443752 1.43168455,13.8890015 1.52190288,13.5447621 L1.52190288,13.5447621 L2.28157422,10.647025 L2.22423964,7.66181805 L2.99201414,6.80593587 L1.77286531,5.78021921 C1.63774982,5.66790382 1.61631413,5.46515266 1.72514146,5.32594965 C1.83655993,5.18674663 2.03282602,5.16729808 2.16770596,5.27961347 L2.16770596,5.27961347 L2.79584227,5.80798202 L3.2207871,3.56536942 L6.45526742,3.56536942 Z M8.5945019,3 C9.18358286,3 9.66364803,3.49462531 9.66360092,4.10360812 C9.66360092,4.71302851 9.18358286,5.20619518 8.5945019,5.20619518 C8.00282982,5.20619518 7.52479044,4.71302851 7.52474333,4.10360812 C7.52474333,3.49462531 8.00278271,3 8.5945019,3 Z M5.58295273,8.15240779 L4.93540653,7.60770245 L6.14315439,7.06465025 L5.58295273,8.15240779 L5.58295273,8.15240779 Z M3.97763175,4.74964041 L4.75892722,4.85699642 L3.7435352,5.9339114 L3.97763175,4.74964041 L3.97763175,4.74964041 Z" fill="#FFFFFF"></path>
    </g>
</svg>