<?xml version="1.0" encoding="UTF-8"?>
<svg width="16px" height="16px" viewBox="0 0 16 16" version="1.1" xmlns="http://www.w3.org/2000/svg" xmlns:xlink="http://www.w3.org/1999/xlink">
    <!-- Generator: Sketch 61.2 (89653) - https://sketch.com -->
    <title>svg/FPL/HIM_CUS/sbb_add_stop</title>
    <desc>Created with Sketch.</desc>
    <g stroke="none" stroke-width="1" fill="none" fill-rule="evenodd">
        <rect fill="#EB0000" x="0" y="0" width="16" height="16" rx="2"></rect>
        <path d="M8.559,10.646 C8.331,10.707 8.097,10.75 7.85,10.75 C7.573,10.75 7.311,10.697 7.059,10.62 C5.93,10.278 5.1,9.24 5.1,8 C5.1,6.761 5.93,5.722 7.059,5.38 C7.311,5.304 7.573,5.25 7.85,5.25 C8.097,5.25 8.331,5.293 8.559,5.355 C9.731,5.67 10.6,6.73 10.6,8 C10.6,9.27 9.731,10.331 8.559,10.646 M8.559,3.822 L8.559,0 L7.059,0 L7.059,3.83 C5.093,4.203 3.6,5.928 3.6,8 C3.6,10.073 5.093,11.798 7.059,12.17 L7.059,16 L8.559,16 L8.559,12.179 C10.565,11.839 12.1,10.101 12.1,8 C12.1,5.9 10.565,4.162 8.559,3.822" fill="#FFFFFF"></path>
    </g>
</svg>