<?xml version="1.0" encoding="UTF-8"?>
<svg width="16px" height="16px" viewBox="0 0 16 16" version="1.1" xmlns="http://www.w3.org/2000/svg" xmlns:xlink="http://www.w3.org/1999/xlink">
    <!-- Generator: Sketch 61.2 (89653) - https://sketch.com -->
    <title>svg/FPL/HIM_CUS/sbb_platform_change</title>
    <desc>Created with Sketch.</desc>
    <g stroke="none" stroke-width="1" fill="none" fill-rule="evenodd">
        <rect fill="#EB0000" x="0" y="0" width="16" height="16" rx="2"></rect>
        <path d="M11.2884,5.2783 L10.7464,6.1713 L12.0274,6.9493 L13.9694,3.7523 L10.7704,1.7993 L9.9894,3.0793 L11.1424,3.7833 C10.1794,3.8683 9.2404,4.1673 8.4474,5.0903 C8.7664,5.4493 9.0634,5.8803 9.3324,6.4013 C9.8644,5.5903 10.4924,5.3433 11.2884,5.2783" fill="#FFFFFF"></path>
        <path d="M4,9.7494 L2,9.7494 L2,11.2494 L4,11.2494 C4.96,11.2494 5.932,11.1664 6.798,10.5894 C6.568,10.1804 6.355,9.7144 6.166,9.1804 C5.58,9.6794 4.883,9.7494 4,9.7494" fill="#FFFFFF"></path>
        <path d="M12.0273,8.9286 L10.7463,9.7066 L11.2883,10.6006 C10.1593,10.5086 9.3633,10.0756 8.7113,8.1386 C7.6173,4.8996 5.7843,4.6286 4.0003,4.6286 L2.0003,4.6286 L2.0003,6.1286 L4.0003,6.1286 C5.5243,6.1286 6.5063,6.2966 7.2893,8.6186 C8.2063,11.3396 9.6473,11.9636 11.1433,12.0946 L9.9893,12.7996 L10.7703,14.0786 L13.9693,12.1256 L12.0273,8.9286 Z" fill="#FFFFFF"></path>
    </g>
</svg>