<?xml version="1.0" encoding="UTF-8"?>
<svg width="16px" height="16px" viewBox="0 0 16 16" version="1.1" xmlns="http://www.w3.org/2000/svg" xmlns:xlink="http://www.w3.org/1999/xlink">
    <!-- Generator: Sketch 61.2 (89653) - https://sketch.com -->
    <title>svg/FPL/HIM_CUS/sbb_info</title>
    <desc>Created with Sketch.</desc>
    <g stroke="none" stroke-width="1" fill="none" fill-rule="evenodd">
        <rect fill="#EB0000" x="0" y="0" width="16" height="16" rx="2"></rect>
        <path d="M9.39030973,5.68883542 L9.39030973,12.6648832 L10.2949559,12.6648832 C10.4573282,12.6648832 10.5885516,12.7967693 10.5885516,12.9584789 C10.5885516,13.1208513 10.4573282,13.2520747 10.2949559,13.2520747 L9.39030973,13.2520747 L6.72342619,13.2534002 L5.79425852,13.2520747 C5.63188614,13.2520747 5.5,13.1208513 5.5,12.9584789 C5.5,12.7967693 5.63188614,12.6648832 5.79425852,12.6648832 L6.72342619,12.6648832 L6.72342619,6.27602698 L5.79425852,6.27602698 C5.63188614,6.27602698 5.5,6.14480358 5.5,5.9824312 C5.5,5.82005882 5.63188614,5.68883542 5.79425852,5.68883542 L9.39030973,5.68883542 Z M8.0813895,2 C8.89855337,2 9.56129779,2.66274442 9.56129779,3.47990828 C9.56129779,4.29773489 8.89855337,4.95981657 8.0813895,4.95981657 C7.26356289,4.95981657 6.60081848,4.29773489 6.60081848,3.47990828 C6.60081848,2.66274442 7.26356289,2 8.0813895,2 Z" fill="#FFFFFF"></path>
    </g>
</svg>