<svg xmlns="http://www.w3.org/2000/svg" width="19" height="16" viewBox="0 0 19 16">
  <g fill="#BCBCBC" fill-rule="evenodd">
    <path d="M2.5 3.0002C3.327 3.0002 4 2.3272 4 1.5002 4 .6732 3.327.0002 2.5.0002 1.673.0002 1 .6732 1 1.5002 1 2.3272 1.673 3.0002 2.5 3.0002M9.5039 3.0002C10.3309 3.0002 11.0039 2.3272 11.0039 1.5002 11.0039.6732 10.3309.0002 9.5039.0002 8.6769.0002 8.0039.6732 8.0039 1.5002 8.0039 2.3272 8.6769 3.0002 9.5039 3.0002M16.5078 3.0002C17.3348 3.0002 18.0078 2.3272 18.0078 1.5002 18.0078.6732 17.3348.0002 16.5078.0002 15.6808.0002 15.0078.6732 15.0078 1.5002 15.0078 2.3272 15.6808 3.0002 16.5078 3.0002"/>
    <polygon points="0 10 1 10 1 16 4 16 4 10 5 10 5 4 0 4"/>
    <polygon points="7.004 10 8.004 10 8.004 16 11.004 16 11.004 10 12.004 10 12.004 4 7.004 4"/>
    <polygon points="14 4 14 10 15 10 15 16 18 16 18 10 19 10 19 4"/>
  </g>
</svg>
