<?xml version="1.0" encoding="UTF-8"?>
<svg width="19px" height="16px" viewBox="0 0 19 16" version="1.1" xmlns="http://www.w3.org/2000/svg" xmlns:xlink="http://www.w3.org/1999/xlink">
    <!-- Generator: Sketch 61.2 (89653) - https://sketch.com -->
    <title>svg/FPL/HIM_CUS/utilization_none</title>
    <desc>Created with Sketch.</desc>
    <g stroke="none" stroke-width="1" fill="none" fill-rule="evenodd">
        <g fill="#BCBCBC">
            <path d="M2.5,3.0002 C3.327,3.0002 4,2.3272 4,1.5002 C4,0.6732 3.327,0.0002 2.5,0.0002 C1.673,0.0002 1,0.6732 1,1.5002 C1,2.3272 1.673,3.0002 2.5,3.0002"></path>
            <path d="M9.5039,3.0002 C10.3309,3.0002 11.0039,2.3272 11.0039,1.5002 C11.0039,0.6732 10.3309,0.0002 9.5039,0.0002 C8.6769,0.0002 8.0039,0.6732 8.0039,1.5002 C8.0039,2.3272 8.6769,3.0002 9.5039,3.0002"></path>
            <path d="M16.5078,3.0002 C17.3348,3.0002 18.0078,2.3272 18.0078,1.5002 C18.0078,0.6732 17.3348,0.0002 16.5078,0.0002 C15.6808,0.0002 15.0078,0.6732 15.0078,1.5002 C15.0078,2.3272 15.6808,3.0002 16.5078,3.0002"></path>
            <polygon points="0 9.9997 1 9.9997 1 15.9997 4 15.9997 4 9.9997 5 9.9997 5 3.9997 0 3.9997"></polygon>
            <polygon points="7.0039 9.9997 8.0039 9.9997 8.0039 15.9997 11.0039 15.9997 11.0039 9.9997 12.0039 9.9997 12.0039 3.9997 7.0039 3.9997"></polygon>
            <polygon points="14 4.0002 14 10.0002 15 10.0002 15 16.0002 18 16.0002 18 10.0002 19 10.0002 19 4.0002"></polygon>
        </g>
    </g>
</svg>