<svg xmlns="http://www.w3.org/2000/svg" width="36" height="36" viewBox="0 0 36 36">
  <g fill="none" fill-rule="evenodd">
    <path stroke="#000" d="M21,26.24955 C21,26.24955 19.395,27.74955 17.25,27.74955 C15.105,27.74955 13.5,26.24955 13.5,26.24955 M28.5,28.49955 L4.5,4.49955 M11.529,6.4083 C13.0845,6.6213 15.0765,6.7503 17.25,6.7503 C22.2195,6.7503 26.25,6.0783 26.25,5.2503 C26.25,4.4208 22.2195,3.7503 17.25,3.7503 C14.0055,3.7503 11.1705,4.0368 9.5865,4.4658 M8.25,8.2503 L8.25,14.2503 C8.25,15.9063 12.2805,17.2503 17.25,17.2503 M10.593,16.26375 C11.0475,18.08925 13.839,19.50075 17.25,19.50075 C17.9715,19.50075 18.645,19.41225 19.2915,19.29225 M8.25,17.17485 L8.9925,23.99985 C8.9925,23.99985 9.4185,27.39885 11.2635,29.07135 C13.3455,30.95685 14.958,32.20035 17.25,32.20035 C19.542,32.20035 21.156,30.95685 23.2365,29.07135 C24.366,28.04835 24.957,26.39235 25.251,25.25085 M25.8618,20.74035 L26.2503,17.17485 M22.8867,17.76525 C23.4012,17.31825 23.7702,16.81425 23.9067,16.26375 M21.93015,16.8087 C24.51765,16.2822 26.25015,15.3342 26.25015,14.2497 L26.25015,5.2497"/>
    <path fill="#000" d="M19.3125,14.1918 L20.85,12.7503 L18,12.7503 L16.5,11.2503 L16.5,9.0003 L18,9.0003 L18,11.2503 L20.85,11.2503 L18.45,9.0003 L20.25,9.0003 L23.25,12.0003 L20.16,15.0903 L19.3125,14.1918 Z M15.05415,9.93345 L14.25015,9.00045 L16.05015,9.00045 L15.05415,9.93345 Z M14.25,21.74955 C14.871,21.74955 15.375,22.25355 15.375,22.87455 C15.375,23.49555 14.871,23.99955 14.25,23.99955 C13.629,23.99955 13.125,23.49555 13.125,22.87455 C13.125,22.25355 13.629,21.74955 14.25,21.74955 Z M20.25,21.74955 C20.871,21.74955 21.375,22.25355 21.375,22.87455 C21.375,23.49555 20.871,23.99955 20.25,23.99955 C19.629,23.99955 19.125,23.49555 19.125,22.87455 C19.125,22.25355 19.629,21.74955 20.25,21.74955 Z"/>
  </g>
</svg>
