<svg xmlns="http://www.w3.org/2000/svg" width="36" height="36" viewBox="0 0 36 36">
  <path fill="none" stroke="#000" d="M27.7743,30.74955 C27.7743,26.52105 24.8853,22.85055 21.8058,20.99355 C20.8698,20.41755 20.2263,19.29105 20.2263,17.99955 C20.2263,16.70805 20.8698,15.58155 21.8058,15.00705 C24.8853,13.15005 27.7743,9.47805 27.7743,5.24955 L8.2263,5.24955 C8.2263,9.47805 11.1138,13.15005 14.1933,15.00705 C15.1293,15.58155 15.7743,16.70805 15.7743,17.99955 C15.7743,19.29105 15.1293,20.41755 14.1933,20.99355 C11.1138,22.85055 8.2263,26.52105 8.2263,30.74955 L27.7743,30.74955 Z M14.19585,11.2503 C14.69085,11.7108 15.22035,12.1158 15.75585,12.4398 L15.76035,12.4428 C16.74435,13.0488 17.49285,14.0793 17.99835,15.1968 C18.50235,14.0823 19.24635,13.0533 20.22585,12.4518 C20.76735,12.1233 21.30435,11.7138 21.80385,11.2503 L14.19585,11.2503 Z"/>
</svg>
