<svg xmlns="http://www.w3.org/2000/svg" width="36" height="36" viewBox="0 0 36 36">
  <g fill="none" fill-rule="evenodd">
    <path stroke="#000" d="M20.31795,8.5917 L18.79845,10.5522 L13.15245,12.0912 L12.04245,11.4912 L8.38245,14.2107 L10.03695,14.7792 L5.68245,19.6077 L4.06245,25.5387 L7.27245,24.7227 L8.68995,23.8977 L12.04545,27.1092 L16.78095,26.5782 L19.50945,23.6247 L22.73895,28.0917 L25.09995,23.0847 L30.59595,24.5202 L30.24795,21.5157 L32.56245,21.5742 L32.32545,16.6707 L30.31095,15.1317 L29.65695,16.3722 L26.99295,15.5682 L27.98745,12.6042 L22.41195,10.4397 L20.31795,8.5917 Z M13.8126,22.12755 L21.3126,14.62755"/>
    <path fill="#000" d="M13.815,23.625 C12.9865729,23.625 12.315,22.9534271 12.315,22.125 C12.315,21.2965729 12.9865729,20.625 13.815,20.625 C14.6434271,20.625 15.315,21.2965729 15.315,22.125 C15.315,22.9534271 14.6434271,23.625 13.815,23.625 Z M21.315,16.11 C20.4865729,16.11 19.815,15.4384271 19.815,14.61 C19.815,13.7815729 20.4865729,13.11 21.315,13.11 C22.1434271,13.11 22.815,13.7815729 22.815,14.61 C22.815,15.4384271 22.1434271,16.11 21.315,16.11 Z"/>
  </g>
</svg>
