<svg xmlns="http://www.w3.org/2000/svg" width="36" height="36" viewBox="0 0 36 36">
  <g fill="none" fill-rule="evenodd">
    <path stroke="#000" d="M23.25,30 L23.25,23.25 L21.75,20.3895 L18.75,20.3895 L18.75,24.75 L18,30 M21.75,12.75 L21.75,20.3895 L18.75,20.3895 L18.75,12.75 M15.8034,20.3028 L12.7134,27.9528 L9.9354,26.8188 L11.6214,22.6458 L14.3889,23.7738 M15.75075,19.5 L15.75075,15.75 L18.75075,12.75 L21.75075,12.75 L23.25075,15.75 L25.50075,18.75 M20.25,9.75 C19.4505,9.75 18.75,9.0495 18.75,8.25 C18.75,7.4505 19.4505,6.75 20.25,6.75 C21.0495,6.75 21.75,7.4505 21.75,8.25 C21.75,9.0495 21.0495,9.75 20.25,9.75 Z"/>
    <path fill="#000" d="M9.3603,27.4629 C9.4533,27.4629 9.5493,27.4809 9.6408,27.5169 C10.0248,27.6729 10.2108,28.1094 10.0548,28.4934 C9.9378,28.7859 9.6573,28.9629 9.3603,28.9629 C9.2673,28.9629 9.1713,28.9449 9.0798,28.9074 C8.6958,28.7529 8.5098,28.3149 8.6643,27.9309 C8.7828,27.6399 9.0633,27.4629 9.3603,27.4629 Z M12.14205,28.5864 C12.23505,28.5864 12.33105,28.6044 12.42255,28.6404 C12.80655,28.7964 12.99255,29.2344 12.83655,29.6169 C12.71955,29.9094 12.43755,30.0864 12.14205,30.0864 C12.04905,30.0864 11.95305,30.0684 11.86155,30.0324 C11.47755,29.8764 11.29155,29.4384 11.44605,29.0544 C11.56455,28.7634 11.84505,28.5864 12.14205,28.5864 Z"/>
  </g>
</svg>
