<svg xmlns="http://www.w3.org/2000/svg" width="36" height="36" viewBox="0 0 36 36">
  <g fill="none" fill-rule="evenodd">
    <path fill="#000" d="M20.25,7.5003 C20.25,8.7423 19.2435,9.7503 18,9.7503 C16.7565,9.7503 15.75,8.7423 15.75,7.5003 C15.75,6.2568 16.7565,5.2503 18,5.2503 C19.2435,5.2503 20.25,6.2568 20.25,7.5003 Z M20.25,18.0003 C20.25,19.2423 19.2435,20.2503 18,20.2503 C16.7565,20.2503 15.75,19.2423 15.75,18.0003 C15.75,16.7568 16.7565,15.7503 18,15.7503 C19.2435,15.7503 20.25,16.7568 20.25,18.0003 Z M20.25,28.49955 C20.25,29.74305 19.2435,30.74955 18,30.74955 C16.7565,30.74955 15.75,29.74305 15.75,28.49955 C15.75,27.25755 16.7565,26.24955 18,26.24955 C19.2435,26.24955 20.25,27.25755 20.25,28.49955 Z"/>
    <path stroke="#000" d="M20.25,7.5003 C20.25,8.7423 19.2435,9.7503 18,9.7503 C16.7565,9.7503 15.75,8.7423 15.75,7.5003 C15.75,6.2568 16.7565,5.2503 18,5.2503 C19.2435,5.2503 20.25,6.2568 20.25,7.5003 Z M20.25,18.0003 C20.25,19.2423 19.2435,20.2503 18,20.2503 C16.7565,20.2503 15.75,19.2423 15.75,18.0003 C15.75,16.7568 16.7565,15.7503 18,15.7503 C19.2435,15.7503 20.25,16.7568 20.25,18.0003 Z M20.25,28.49955 C20.25,29.74305 19.2435,30.74955 18,30.74955 C16.7565,30.74955 15.75,29.74305 15.75,28.49955 C15.75,27.25755 16.7565,26.24955 18,26.24955 C19.2435,26.24955 20.25,27.25755 20.25,28.49955 Z"/>
  </g>
</svg>
