<svg xmlns="http://www.w3.org/2000/svg" width="36" height="36" viewBox="0 0 36 36">
  <path fill="none" stroke="#000" d="M17.24925,18.75 L17.24775,9.7515 C17.24775,8.922 17.91975,8.25 18.74925,8.25 C19.57875,8.25 20.25075,8.922 20.25075,9.7515 L20.24925,19.5015 M23.25,18.75225 C23.25,17.92275 23.922,17.25075 24.7515,17.25075 C25.5825,17.25075 26.2545,17.92275 26.2545,18.75225 C26.2545,18.75225 26.25,19.59375 26.25,24.00075 C26.25,28.40625 24.9,30.75075 24.9,30.75075 L14.25,30.75075 C14.25,30.75075 9.1575,22.11225 8.6895,21.31425 C8.2215,20.51625 8.103,19.77675 8.6895,19.19025 C9.2775,18.60375 10.227,18.60375 10.8135,19.19025 L14.2485,22.62675 L14.25,22.62675 L14.25,18.75075 L14.247,11.25225 C14.247,10.42275 14.9205,9.75075 15.75,9.75075 C16.5795,9.75075 17.2515,10.42275 17.2515,11.25225 L17.25,19.51125 M20.24565,17.24775 C20.24565,16.41825 20.91765,15.74625 21.74715,15.74625 C22.57815,15.74625 23.25015,16.41825 23.25015,17.24775 L23.25015,19.50075 M22.5,12.22845 C22.974,11.52045 23.25,10.66845 23.25,9.75045 C23.25,7.26345 21.2355,5.25045 18.75,5.25045 C17.406,5.25045 16.212,5.85195 15.3885,6.78645 C13.074,6.97395 11.25,8.88795 11.25,11.25045 C11.25,12.16245 11.526,13.00695 11.991,13.71495"/>
</svg>
