<svg xmlns="http://www.w3.org/2000/svg" width="24" height="24" viewBox="0 0 24 24">
  <g fill="none" fill-rule="evenodd">
    <path fill="#000" d="M10.832,10.737 L10.832,13.203 L12.497,13.203 C13.072,13.203 13.459,13.147 13.658,13.035 C13.997,12.844 14.167,12.496 14.167,11.991 C14.167,11.423 13.938,11.043 13.481,10.852 C13.303,10.775 12.929,10.737 12.359,10.737 L10.832,10.737 Z M10.832,7.811 L10.832,9.99 L12.333,9.99 C12.745,9.99 13.048,9.96 13.244,9.899 C13.439,9.835 13.596,9.712 13.712,9.53 C13.828,9.348 13.887,9.136 13.887,8.893 C13.887,8.651 13.836,8.443 13.735,8.271 C13.635,8.098 13.494,7.975 13.312,7.902 C13.16,7.841 12.861,7.811 12.415,7.811 L10.832,7.811 Z M9.999,7.007 L12.536,7.007 C13.151,7.007 13.601,7.085 13.882,7.241 C14.141,7.385 14.346,7.593 14.497,7.866 C14.648,8.139 14.724,8.437 14.724,8.759 C14.724,9.101 14.641,9.404 14.476,9.669 C14.31,9.934 14.082,10.129 13.792,10.253 C14.027,10.323 14.21,10.408 14.34,10.507 C14.782,10.839 15.004,11.323 15.004,11.958 C15.004,12.791 14.694,13.389 14.076,13.754 C13.786,13.923 13.403,14.008 12.929,14.008 L9.999,14.008 L9.999,7.007 Z"/>
    <path stroke="#000" d="M17.5,10.008 C17.5,6.97 15.037,4.508 12,4.508 C8.962,4.508 6.5,6.97 6.5,10.008 C6.537,10.951 6.816,11.744 7.266,12.493 L12.016,19.992 L16.766,12.493 C17.209,11.716 17.492,10.908 17.5,10.008 Z"/>
  </g>
</svg>
