<svg xmlns="http://www.w3.org/2000/svg" width="24" height="24" viewBox="0 0 24 24">
  <path fill="none" stroke="#000" d="M18.5,9 L18.5,7.3 L13.5,4.6 L8.5,8.6 L3.5,5 L3.5,13.75 L8.5,17.4 L13.5,13.4 L14.3,14.3 M8.5,8.6001 L8.5,17.4001 M13.5,4.6001 L13.5,13.4001 M20.4971,13.1885 C20.4971,11.7035 19.3791,10.5005 18.0001,10.5005 C16.6221,10.5005 15.5041,11.7035 15.5041,13.1885 C15.5201,13.6495 15.6471,14.0375 15.8511,14.4035 L18.0081,18.0685 L20.1631,14.4035 C20.3641,14.0235 20.4931,13.6285 20.4971,13.1885 Z M18.5,13 C18.5,13.273 18.278,13.5 18.005,13.5 C17.732,13.5 17.5,13.273 17.5,13 C17.5,12.727 17.727,12.5 18,12.5 C18.273,12.5 18.5,12.727 18.5,13 Z"/>
</svg>
