<svg xmlns="http://www.w3.org/2000/svg" width="36" height="36" viewBox="0 0 36 36">
  <g fill="none" fill-rule="evenodd">
    <path stroke="#000" d="M13.29195,25.542 L6.18945,20.58 C5.54295,20.0625 4.59945,20.1645 4.08045,20.811 C3.56145,21.456 3.66495,22.401 4.31145,22.92 L13.19895,30.75 L19.11345,30.75 L20.62545,32.25 L31.80045,32.25 L24.25845,24.654 C22.55295,23.013 20.38245,21.792 18.16395,21.75 L15.00045,21.75 C12.02295,21.75 11.95245,26.25 15.00045,26.25 L18.00045,26.25"/>
    <polygon fill="#000" points="15.711 6 19.829 10.056 14.711 10.056 14.711 6 12.29 6 12.29 10.056 7.2 10.056 11.316 6 8.256 6 3 11.25 8.256 16.5 11.316 16.5 7.2 12.471 12.29 12.471 12.29 16.5 14.711 16.5 14.711 12.471 19.829 12.471 15.711 16.5 18.771 16.5 24 11.25 18.771 6"/>
  </g>
</svg>
