<svg xmlns="http://www.w3.org/2000/svg" width="36" height="36" viewBox="0 0 36 36">
  <path fill="none" stroke="#000" d="M12.75,14.625 C12.75,18.534 14.685,22.227 18,24.639 C23.9565,20.304 25.0005,12.306 20.331,6.7755 C19.6515,5.97 18.8685,5.2425 18,4.611 C14.685,7.0215 12.75,10.716 12.75,14.625 Z M4.3455,19.4634 C3.498,19.9314 2.7045,20.4924 1.9815,21.1374 C4.4985,25.8594 9.7035,28.4979 15,27.7404 M21,27.7398 C26.2965,28.4988 31.5015,25.8588 34.0185,21.1368 C33.2955,20.4918 32.5035,19.9308 31.6545,19.4628 M10.49565,10.80915 C8.91765,10.20015 7.23315,9.90015 5.52915,9.95415 C4.08615,16.75365 8.38215,23.45115 15.16665,24.97065 M25.50435,10.80915 C27.08235,10.20015 28.76685,9.90015 30.47085,9.95415 C31.91385,16.75365 27.61785,23.45115 20.83335,24.97065"/>
</svg>
