<svg xmlns="http://www.w3.org/2000/svg" width="36" height="36" viewBox="0 0 36 36">
  <path fill="none" stroke="#000" d="M21.75,18.7503 C21.75,21.2613 19.761,23.2503 17.25,23.2503 C14.739,23.2503 12.75,21.2613 12.75,18.7503 C12.75,16.2393 14.739,14.2503 17.25,14.2503 C19.761,14.2503 21.75,16.2393 21.75,18.7503 Z M4.5,12.7503 L11.25,12.7503 L11.25,6.0003 M4.875,6.3753 L11.25,12.7503 M23.25,6.0003 L23.25,12.7503 L30,12.7503 M29.625,6.3753 L23.25,12.7503 M30,24.74955 L23.25,24.74955 L23.25,31.49955 M29.625,31.12455 L23.25,24.74955 M11.25,31.49955 L11.25,24.74955 L4.5,24.74955 M4.875,31.12455 L11.25,24.74955"/>
</svg>
