<svg xmlns="http://www.w3.org/2000/svg" width="36" height="36" viewBox="0 0 36 36">
  <path fill="none" stroke="#000" d="M18.96675,25.62525 L18.96675,32.37525 L16.71675,32.37525 C16.71675,32.37525 14.98725,25.62525 16.71675,18.87525 L23.46675,18.87525 C23.46675,18.87525 24.35625,22.46775 26.56875,25.70925 C28.78275,28.95075 32.24625,28.26375 32.46675,32.3752741 L26.46675,32.37525 C25.57575,32.37525 24.08625,32.42025 21.96675,28.62525 C19.74075,24.54675 15.96675,24.87075 15.96675,24.87075 M25.71675,16.62525 L25.71675,14.37525 L29.46675,15.87525 L32.46675,9.87525 L23.46675,3.87525 C23.46675,3.87525 20.71275,5.37525 18.21675,5.37525 C15.72225,5.37525 12.96675,3.87525 12.96675,3.87525 L3.96675,9.87525 L6.96675,15.87525 L10.71675,14.37525 L11.46675,29.37525 L13.71675,29.37525"/>
</svg>
