<svg xmlns="http://www.w3.org/2000/svg" width="36" height="36" viewBox="0 0 36 36">
  <g fill="none" fill-rule="evenodd" stroke="#000">
    <path d="M28.497,13.5009 C28.497,13.9149 28.161,14.2509 27.747,14.2509 C27.3345,14.2509 26.997,13.9149 26.997,13.5009 C26.997,13.0869 27.3345,12.7509 27.747,12.7509 C28.161,12.7509 28.497,13.0869 28.497,13.5009"/>
    <path d="M28.497,13.5009 C28.497,13.9149 28.161,14.2509 27.747,14.2509 C27.3345,14.2509 26.997,13.9149 26.997,13.5009 C26.997,13.0869 27.3345,12.7509 27.747,12.7509 C28.161,12.7509 28.497,13.0869 28.497,13.5009 Z M4.5,29.25015 L23.2515,29.25015 L23.2515,24.75015 L31.5,24.75015 M17.4639,9.75015 C19.3899,9.75015 20.2494,10.57215 20.2494,12.41715 L20.2494,26.25015 L5.2494,26.25015 L5.2494,12.41715 C5.2494,10.57215 6.1104,9.75015 8.0364,9.75015 L17.4639,9.75015 M20.25,18.75015 L5.25,18.75015 M17.25,5.25015 L8.25,5.25015 M15,12.7509 L10.5,12.7509 M6.75,26.25015 L6.75,29.25015 M18.75,26.25015 L18.75,29.25015 M15,5.25015 L12.75,8.68515 L10.5,5.25015 M17.25,22.50015 C17.25,22.91415 16.9125,23.25015 16.5,23.25015 C16.086,23.25015 15.75,22.91415 15.75,22.50015 C15.75,22.08615 16.086,21.75015 16.5,21.75015 C16.9125,21.75015 17.25,22.08615 17.25,22.50015 Z M9.75,22.50015 C9.75,22.91415 9.4125,23.25015 9,23.25015 C8.586,23.25015 8.25,22.91415 8.25,22.50015 C8.25,22.08615 8.586,21.75015 9,21.75015 C9.4125,21.75015 9.75,22.08615 9.75,22.50015 Z M29.25,19.50015 L29.25,15.75015 L26.25,15.75015 L26.25,19.50015 L27,19.50015 L27,24.00015 L28.5,24.00015 L28.5,19.50015 L29.25,19.50015 Z"/>
  </g>
</svg>
