<svg xmlns="http://www.w3.org/2000/svg" width="36" height="36" viewBox="0 0 36 36">
  <g fill="none" fill-rule="evenodd">
    <polygon fill="#000" points="19.896 13.5 23.424 16.977 19.038 16.977 19.038 13.5 16.964 13.5 16.964 16.977 12.601 16.977 16.129 13.5 13.506 13.5 9 18 13.506 22.5 16.129 22.5 12.601 19.047 16.964 19.047 16.964 22.5 19.038 22.5 19.038 19.047 23.424 19.047 19.896 22.5 22.518 22.5 27 18 22.518 13.5"/>
    <path stroke="#000" d="M3.75,9.5391 C3.75,6.3426 6.342,3.7506 9.5385,3.7506 L26.4615,3.7506 C29.658,3.7506 32.25,6.3426 32.25,9.5391 L32.25,26.4606 C32.25,29.6586 29.6565,32.2506 26.4615,32.2506 L9.5385,32.2506 C6.342,32.2506 3.75,29.6571 3.75,26.4606 L3.75,9.5391 Z"/>
  </g>
</svg>
