<svg xmlns="http://www.w3.org/2000/svg" width="36" height="36" viewBox="0 0 36 36">
  <path fill="none" stroke="#000" d="M8.25,13.5 C8.25,9.7725 11.2725,6.75 15,6.75 L21,6.75 C24.7275,6.75 27.75,9.7725 27.75,13.5 L27.75,32.25 L8.25,32.25 L8.25,13.5 Z M21.75885,6.75 L21.74985,6 C21.74985,4.7565 20.74185,3.75 19.49985,3.75 L16.50585,3.75 C15.26385,3.75 14.25585,4.7565 14.25585,6 L14.24985,6.75 M11.25585,22.5 C11.25585,21.2565 12.26385,20.25 13.50585,20.25 L22.49985,20.25 C23.74185,20.25 24.74985,21.2565 24.74985,22.5 M24.75,22.5 L24.75,29.25 L11.25,29.25 L11.25,22.5 M13.5,23.25 L22.5,23.25 M20.25,25.5 L20.25,23.25"/>
</svg>
