<svg xmlns="http://www.w3.org/2000/svg" width="36" height="36" viewBox="0 0 36 36">
  <path fill="none" stroke="#000" d="M15.7515,27 C15.7515,29.931 13.431,32.25 10.5,32.25 C7.569,32.25 5.25,29.931 5.25,27 C5.25,24.069 7.569,21.7575 10.5,21.7575 C13.431,21.7575 15.7515,24.069 15.7515,27 Z M30.7515,27 C30.7515,29.931 28.431,32.25 25.5,32.25 C22.569,32.25 20.25,29.931 20.25,27 C20.25,24.069 22.569,21.7575 25.5,21.7575 C28.431,21.7575 30.7515,24.069 30.7515,27 Z M23.25,27.0015 C23.25,25.7445 24.2445,24.753 25.5,24.753 M10.4985,24.753 C9.2415,24.753 8.25,25.746 8.25,27.003 M5.25,27 L6.75,14.25 L9.75,12.75 L11.25,6.75 L15.75,6.75 L15.75,12.0555 M30.7515,27 L29.2515,14.25 L26.2515,12.75 L24.7515,6.75 L20.2515,6.75 L20.25,12 M12.75,19.5 C12.75,16.569 15.069,14.256 18,14.256 C20.931,14.256 23.2515,16.569 23.2515,19.5 M15.75075,27 L15.75075,14.7675 M20.2515,27 L20.25,14.7675"/>
</svg>
