<svg xmlns="http://www.w3.org/2000/svg" width="36" height="36" viewBox="0 0 36 36">
  <g fill="none" fill-rule="evenodd">
    <path stroke="#000" d="M30.75,18.0003 C30.75,25.0683 25.0695,30.7503 18,30.7503 C10.9305,30.7503 5.25,25.0683 5.25,18.0003 C5.25,10.9308 10.9305,5.2503 18,5.2503 C25.0695,5.2503 30.75,10.9308 30.75,18.0003 Z"/>
    <path fill="#000" d="M16.686,26.9865 L16.686,24.4875 L19.281,24.4875 L19.281,26.9865 L16.686,26.9865 Z M12.5895,14.829 C12.645,13.341 12.9375,12.1875 13.467,11.37 C13.9545,10.617 14.604,10.038 15.4125,9.6285 C16.221,9.2205 17.13,9.0165 18.1395,9.0165 C19.764,9.0165 21.057,9.477 22.0185,10.398 C22.914,11.247 23.364,12.363 23.364,13.749 C23.364,14.8935 23.0595,15.879 22.4505,16.704 C22.179,17.0805 21.5265,17.772 20.493,18.7815 C20.0355,19.2225 19.719,19.5885 19.5375,19.881 C19.3575,20.1735 19.2315,20.535 19.1595,20.9685 C19.08,21.4005 19.0395,21.96 19.0395,22.65 L16.998,22.65 C17.0145,21.4245 17.1225,20.5155 17.322,19.923 C17.466,19.4895 17.673,19.1025 17.94,18.7575 C18.2085,18.414 18.804,17.769 19.7235,16.824 C20.3175,16.215 20.706,15.6675 20.889,15.1785 C21.0405,14.7615 21.117,14.337 21.117,13.905 C21.117,13.104 20.898,12.432 20.457,11.8875 C19.9275,11.223 19.1475,10.89 18.1155,10.89 C15.9765,10.89 14.823,12.2025 14.6565,14.829 L12.5895,14.829 Z"/>
  </g>
</svg>
