<svg xmlns="http://www.w3.org/2000/svg" width="36" height="36" viewBox="0 0 36 36">
  <path fill="none" stroke="#000" d="M21.75,14.24955 L21.75,7.49955 C21.75,5.42805 20.0715,3.74955 18,3.74955 C15.9285,3.74955 14.25,5.42805 14.25,7.49955 L14.25,14.24955 L11.25,32.24955 L24.75,32.24955 L21.75,14.24955 Z M7.5,32.24955 L28.5,32.24955 M12,14.24955 L24,14.24955 M27,11.24955 L30,11.24955 M31.5,11.24955 L33,11.24955 M27,8.24955 L32.25,5.24955 M27,14.24955 L32.25,17.24955 M9,11.24955 L6,11.24955 M4.5,11.24955 L3,11.24955 M9,8.24955 L3.75,5.24955 M9,14.24955 L3.75,17.24955 M12,8.24955 L24,8.24955"/>
</svg>
