<svg xmlns="http://www.w3.org/2000/svg" width="36" height="36" viewBox="0 0 36 36">
  <path fill="none" stroke="#000" d="M3,32.25 L33,32.25 L3,32.25 Z M17.25,32.25 L17.25,13.5 L17.25,32.25 Z M17.25,24 L22.5,18 L17.25,24 Z M17.25,19.5 L13.5,16.5 L17.25,19.5 Z M30.0117,16.72185 C30.4767,16.01385 30.7497,15.17085 30.7497,14.26185 C30.7497,11.77635 28.7352,9.76185 26.2497,9.76185 C25.6767,9.76185 25.1337,9.87885 24.6297,10.07535 C24.0582,6.50085 20.9847,3.76185 17.2497,3.76185 C13.1082,3.76185 9.7497,7.12035 9.7497,11.26185 C9.7497,11.79735 9.8097,12.31635 9.9177,12.82035 C6.4662,13.12035 3.7497,15.98385 3.7497,19.51185 C3.7497,23.23935 6.7722,26.26185 10.4997,26.26185 L26.9997,26.26185 C29.8992,26.26185 32.2497,23.91135 32.2497,21.01185 C32.2497,19.23585 31.3617,17.67135 30.0117,16.72185 Z"/>
</svg>
