<?xml version="1.0" encoding="utf-8"?>
<!-- Generator: Adobe Illustrator 19.2.1, SVG Export Plug-In . SVG Version: 6.00 Build 0)  -->
<!DOCTYPE svg PUBLIC "-//W3C//DTD SVG 1.1//EN" "http://www.w3.org/Graphics/SVG/1.1/DTD/svg11.dtd">
<svg version="1.1" id="_x30__1_" xmlns="http://www.w3.org/2000/svg" xmlns:xlink="http://www.w3.org/1999/xlink" x="0px" y="0px"
	 viewBox="0 0 24 24" style="enable-background:new 0 0 24 24;" xml:space="preserve">
<path d="M15.5,10c-1.2,0-2.2,0.9-2.4,2H2v1h11.1c0.2,1.1,1.2,2,2.4,2s2.2-0.9,2.4-2H22v-1h-4.1C17.7,10.9,16.7,10,15.5,10L15.5,10z
	 M15.5,14c-0.8,0-1.5-0.7-1.5-1.5s0.7-1.5,1.5-1.5s1.5,0.7,1.5,1.5S16.3,14,15.5,14L15.5,14z M8.5,16c-1.2,0-2.2,0.9-2.4,2H2v1h4.1
	c0.2,1.1,1.2,2,2.4,2s2.2-0.9,2.4-2H22v-1H10.9C10.7,16.9,9.7,16,8.5,16L8.5,16z M8.5,20C7.7,20,7,19.3,7,18.5S7.7,17,8.5,17
	s1.5,0.7,1.5,1.5S9.3,20,8.5,20L8.5,20z M8.5,4C7.3,4,6.3,4.9,6.1,6H2v1h4.1c0.2,1.1,1.2,2,2.4,2s2.2-0.9,2.4-2H22V6H10.9
	C10.7,4.9,9.7,4,8.5,4L8.5,4z M8.5,8C7.7,8,7,7.3,7,6.5S7.7,5,8.5,5S10,5.7,10,6.5S9.3,8,8.5,8L8.5,8z"/>
</svg>
