<svg xmlns="http://www.w3.org/2000/svg" width="36" height="36" viewBox="0 0 36 36">
  <path fill="none" stroke="#000" d="M10.8003,15.3003 C7.5888,15.3003 6.9498,21.7503 12.0003,21.7503 L22.5003,21.7503 C27.3048,21.7503 27.3003,15.3003 23.5503,15.4503 C25.2003,9.9003 17.8503,7.3503 15.6003,12.4503 C13.6188,10.8273 10.4523,12.3873 10.8003,15.3003 Z M11.25,24 C11.25,24 10.5,25.5 10.5,26.25 C10.5,26.664 10.836,27 11.25,27 C11.664,27 12,26.664 12,26.25 C12,25.5 11.25,24 11.25,24 Z M17.25,24 C17.25,24 16.5,25.5 16.5,26.25 C16.5,26.664 16.836,27 17.25,27 C17.664,27 18,26.664 18,26.25 C18,25.5 17.25,24 17.25,24 Z M23.25,24 C23.25,24 22.5,25.5 22.5,26.25 C22.5,26.664 22.836,27 23.25,27 C23.664,27 24,26.664 24,26.25 C24,25.5 23.25,24 23.25,24 Z M20.25,27 C20.25,27 19.5,28.5 19.5,29.25 C19.5,29.664 19.836,30 20.25,30 C20.664,30 21,29.664 21,29.25 C21,28.5 20.25,27 20.25,27 Z M14.25,27 C14.25,27 13.5,28.5 13.5,29.25 C13.5,29.664 13.836,30 14.25,30 C14.664,30 15,29.664 15,29.25 C15,28.5 14.25,27 14.25,27 Z"/>
</svg>
