<svg xmlns="http://www.w3.org/2000/svg" width="36" height="36" viewBox="0 0 36 36">
  <g fill="none" fill-rule="evenodd">
    <path stroke="#000" d="M24.02925,21.75 C27.25425,20.6865 26.85675,15.4305 23.54925,15.5625 C25.20375,9.957 17.83125,7.3815 15.57375,12.5325 C13.58775,10.8945 10.40925,12.4695 10.75875,15.411 C7.90125,15.411 7.07475,20.5395 10.46175,21.696"/>
    <path fill="#000" d="M16.539,25.4985 L16.539,24.2415 L17.859,24.2415 L17.859,25.4985 L16.539,25.4985 Z M14.454,19.383 C14.4825,18.633 14.631,18.0525 14.8995,17.6415 C15.1485,17.2635 15.4785,16.971 15.8895,16.7655 C16.302,16.56 16.764,16.458 17.2785,16.458 C18.105,16.458 18.7635,16.689 19.2525,17.1525 C19.7085,17.58 19.9365,18.1425 19.9365,18.8385 C19.9365,19.4145 19.782,19.9095 19.4715,20.3265 C19.3335,20.5155 19.002,20.862 18.4755,21.3705 C18.2445,21.5925 18.0825,21.777 17.9895,21.9225 C17.898,22.071 17.835,22.254 17.7975,22.47 C17.757,22.689 17.736,22.9695 17.736,23.3175 L16.6965,23.3175 C16.7055,22.701 16.7595,22.242 16.863,21.945 C16.9365,21.726 17.04,21.531 17.1765,21.3585 C17.313,21.1845 17.616,20.862 18.0855,20.385 C18.3855,20.0805 18.5835,19.8045 18.678,19.5585 C18.7545,19.3485 18.7935,19.134 18.7935,18.9165 C18.7935,18.5145 18.6825,18.1755 18.4575,17.9025 C18.189,17.568 17.7915,17.4 17.265,17.4 C16.1775,17.4 15.591,18.0615 15.5055,19.383 L14.454,19.383 Z"/>
  </g>
</svg>
