<svg xmlns="http://www.w3.org/2000/svg" width="36" height="36" viewBox="0 0 36 36">
  <path fill="none" stroke="#000" d="M26.25,14.2503 L8.25,14.2503 L6.75,9.7503 L17.25,6.7503 L27.75,9.7503 L26.25,14.2503 Z M17.25,18.0003 C20.088,18.0003 22.6125,16.5363 24.375,14.2503 L10.125,14.2503 C11.8875,16.5363 14.412,18.0003 17.25,18.0003 Z M14.6997,20.99955 C14.6997,21.24855 14.4987,21.44955 14.2497,21.44955 C14.0007,21.44955 13.7997,21.24855 13.7997,20.99955 C13.7997,20.75205 14.0007,20.54955 14.2497,20.54955 C14.4987,20.54955 14.6997,20.75205 14.6997,20.99955 Z M20.6997,20.99955 C20.6997,21.24855 20.4987,21.44955 20.2497,21.44955 C20.0007,21.44955 19.7997,21.24855 19.7997,20.99955 C19.7997,20.75205 20.0007,20.54955 20.2497,20.54955 C20.4987,20.54955 20.6997,20.75205 20.6997,20.99955 Z M18,10.5003 C18,10.9143 17.664,11.2503 17.25,11.2503 C16.836,11.2503 16.5,10.9143 16.5,10.5003 C16.5,10.0863 16.836,9.7503 17.25,9.7503 C17.664,9.7503 18,10.0863 18,10.5003 Z M21.0777,24.82725 C20.2857,25.68075 18.8667,26.24925 17.2497,26.24925 C15.7302,26.24925 14.3862,25.74675 13.5717,24.97875 M8.2221,16.5003 C8.2221,16.5003 8.6691,23.8623 9.7221,25.5003 C12.5316,29.8668 15.6636,30.7503 17.2356,30.7503 C18.8091,30.7503 21.9411,29.8668 24.7506,25.5003 C25.8036,23.8623 26.2506,16.5003 26.2506,16.5003"/>
</svg>
