<svg xmlns="http://www.w3.org/2000/svg" width="24" height="24" viewBox="0 0 24 24">
  <g fill="none" fill-rule="evenodd">
    <path stroke="#000" d="M17.5,3.5002 C17.5,4.0522 14.813,4.5002 11.5,4.5002 C8.187,4.5002 5.5,4.0522 5.5,3.5002 C5.5,2.9472 8.187,2.5002 11.5,2.5002 C14.813,2.5002 17.5,2.9472 17.5,3.5002 Z M7.062,10.8425 C7.365,12.0595 9.226,13.0005 11.5,13.0005 C13.774,13.0005 15.635,12.0595 15.937,10.8425 M5.5,3.5002 L5.5,9.5002 C5.5,10.6042 8.187,11.5002 11.5,11.5002 C14.813,11.5002 17.5,10.6042 17.5,9.5002 L17.5,3.5002 M17.5,11.4499 L17.005,15.9999 C17.005,15.9999 16.721,18.2659 15.491,19.3809 C14.104,20.6379 13.028,21.4669 11.5,21.4669 C9.972,21.4669 8.897,20.6379 7.509,19.3809 C6.279,18.2659 5.995,15.9999 5.995,15.9999 L5.5,11.4499 M14,17.4997 C14,17.4997 12.93,18.4997 11.5,18.4997 C10.07,18.4997 9,17.4997 9,17.4997"/>
    <path fill="#000" d="M12.2998,5.9997 L13.4998,5.9997 L15.4998,7.9997 L13.4998,9.9997 L12.2998,9.9997 L13.9008,8.4997 L11.9998,8.4997 L11.9998,9.9997 L10.9998,9.9997 L10.9998,8.4997 L9.0998,8.4997 L10.6998,9.9997 L9.4998,9.9997 L7.4998,7.9997 L9.4998,5.9997 L10.6998,5.9997 L9.0998,7.4997 L10.9998,7.4997 L10.9998,5.9997 L11.9998,5.9997 L11.9998,7.4997 L13.9008,7.4997 L12.2998,5.9997 Z M10.2002,15.1999 C10.2002,15.6999 9.9002,15.9999 9.4002,15.9999 C8.9002,15.9999 8.6002,15.5999 8.6002,15.1999 C8.6002,14.6999 8.9002,14.3999 9.4002,14.3999 C9.9002,14.3999 10.2002,14.7999 10.2002,15.1999 Z M14.2002,15.1999 C14.2002,15.6999 13.9002,15.9999 13.4002,15.9999 C12.9002,15.9999 12.6002,15.5999 12.6002,15.1999 C12.6002,14.6999 12.9002,14.3999 13.4002,14.3999 C13.9002,14.3999 14.2002,14.7999 14.2002,15.1999 Z"/>
  </g>
</svg>
