<svg xmlns="http://www.w3.org/2000/svg" width="24" height="24" viewBox="0 0 24 24">
  <path fill="none" stroke="#000" d="M11.4976,9.9973 C11.4976,10.8263 10.8256,11.4973 9.9976,11.4973 C9.1686,11.4973 8.4976,10.8263 8.4976,9.9973 C8.4976,9.1683 9.1686,8.4973 9.9976,8.4973 C10.8256,8.4973 11.4976,9.1683 11.4976,9.9973 Z M15.5,15.9997 C15.5,16.8287 14.828,17.4997 14,17.4997 C13.172,17.4997 12.5,16.8287 12.5,15.9997 C12.5,15.1717 13.172,14.4997 14,14.4997 C14.828,14.4997 15.5,15.1717 15.5,15.9997 Z M7.5,17.4997 L16.5,8.4997 L7.5,17.4997 Z"/>
</svg>
