<svg xmlns="http://www.w3.org/2000/svg" width="24" height="24" viewBox="0 0 24 24">
  <g fill="none" fill-rule="evenodd">
    <path stroke="#000" d="M3.5,13.4997 C3.5,13.3317 3.505,13.1657 3.515,12.9997 M11,5.5154 C11.166,5.5054 11.332,5.5004 11.5,5.5004 M11.5,5.5002 C15.918,5.5002 19.5,9.0822 19.5,13.5002 C19.5,17.9182 15.918,21.5002 11.5,21.5002 C7.082,21.5002 3.5,17.9182 3.5,13.5002 M11.5,5.4997 L11.5,2.9997 M10,3.4997 L13,3.4997 M8,13.4997 L10.5,16.4997 L16,10.4997"/>
    <path stroke="#000" stroke-dasharray="1 1" d="M3.6484,11.9577 C4.3034,8.6037 7.0534,6.0007 10.4794,5.5647"/>
  </g>
</svg>
