<svg xmlns="http://www.w3.org/2000/svg" width="24" height="24" viewBox="0 0 24 24">
  <path fill="none" stroke="#000" d="M5,8.0002 L17.5,20.5002 M15.5,15.4997 L15.5,13.4997 L13.5,13.4997 M10.5,10.5002 L10.5,8.0002 M8.2202,11.2204 C7.1822,11.9454 6.4992,13.1474 6.4992,14.5004 C6.4992,16.6994 8.3012,18.5004 10.4992,18.5004 C11.8532,18.5004 13.0512,17.8144 13.7762,16.7764 M11,6.0002 C11,6.2762 10.776,6.5002 10.5,6.5002 C10.224,6.5002 10,6.2762 10,6.0002 C10,5.7242 10.224,5.5002 10.5,5.5002 C10.776,5.5002 11,5.7242 11,6.0002 Z M15.5,18.4997 L15.5,18.9997"/>
</svg>
