<svg xmlns="http://www.w3.org/2000/svg" width="24" height="24" viewBox="0 0 24 24">
  <path fill="none" stroke="#000" d="M6.5,7.9997 L6.5,13.4997 L11.5,13.4997 L11.5,18.9997 M4.6978,10.9328 C3.3968,11.5948 2.4998,12.9488 2.4998,14.5008 C2.4998,16.6988 4.3008,18.5008 6.4998,18.5008 C8.0928,18.5008 9.4778,17.5548 10.1188,16.1968 M17.5449,16.9978 L17.5449,18.9978 M17.5,14.9997 C17.5,13.5027 17.557,12.8697 18.5,11.7997 L20,10.2997 C21.736,8.3597 20.807,6.5727 19.525,5.8887 C17.462,4.8827 14.5,5.6917 14.5,8.9997 M7,6.0002 C7,6.2762 6.776,6.5002 6.5,6.5002 C6.224,6.5002 6,6.2762 6,6.0002 C6,5.7242 6.224,5.5002 6.5,5.5002 C6.776,5.5002 7,5.7242 7,6.0002 Z"/>
</svg>
