<svg xmlns="http://www.w3.org/2000/svg" width="48" height="48" viewBox="0 0 48 48">
  <path fill="none" stroke="#000" d="M19.0605,19.7568 C19.3595,22.6408 21.3725,24.9998 23.9995,24.9998 C26.6275,24.9998 28.6245,22.6248 28.9395,19.7568 M27.0605,14.2441 C26.2245,13.4731 25.1785,12.9981 23.9995,12.9981 C22.8215,12.9981 21.7755,13.4731 20.9395,14.2441 M32,8.998 C29.373,8.998 27.361,11.276 27.061,14.244 C28.247,15.338 29,17.046 29,19.002 C29,19.261 28.965,19.507 28.939,19.757 C29.775,20.527 30.821,21.002 32,21.002 C34.849,21.002 37,18.337 37,15.002 C37,11.666 34.849,8.998 32,8.998 Z M20.9395,14.2441 C20.7695,12.5751 20.4125,10.5201 19.2925,9.6461 C18.4325,8.9751 17.1495,8.5001 16.0005,8.5001 C14.8825,8.5001 13.5555,8.9511 12.6875,9.6661 C11.3515,10.7681 11.0005,12.9731 11.0005,15.0021 C11.0005,18.3371 13.1515,21.0021 16.0005,21.0021 C17.1785,21.0021 18.2245,20.5271 19.0605,19.7571 C19.0355,19.5071 19.0005,19.2611 19.0005,19.0021 C19.0005,17.0461 19.7525,15.3381 20.9395,14.2441 Z M27.0605,14.2441 C27.0605,14.2441 28.8625,14.0731 30.3445,12.7201 C30.8805,12.2301 31.7065,12.2651 32.1955,12.8021 C33.3245,14.0401 35.1605,15.7461 36.9635,15.7461 M20.9111,14.0508 C20.0721,14.0508 18.4301,11.6958 18.4301,11.6958 C18.1821,11.4508 17.8181,11.3518 17.4881,11.4598 C16.2621,11.8618 15.0931,11.6378 14.4511,11.4448 C14.1181,11.3438 13.7611,11.4398 13.5151,11.6838 C13.5151,11.6838 12.1591,14.0428 11.0281,14.0428 M38.9287,22.6416 L41.1167,22.1626 C41.5837,22.0616 41.7207,21.4656 41.3457,21.1686 C39.8987,20.0206 37.3607,17.5796 36.9707,14.3286 M19.207,17.2725 L21.657,15.9855 C21.883,15.8675 22.152,15.8855 22.359,16.0355 C23.26,16.6825 25.96,18.2025 28.525,16.4225 M13.3301,35.5 L4.5001,35.5 C4.6001,29.446 7.6511,22.103 12.4871,19.318 M35.333,19.5195 C40.372,22.4125 43.5,29.6235 43.5,35.4995 L34.677,35.4995 M9,28.5 L13,28.5 M10.5,28.5 L10.5,27 M27.5996,23.2002 L24.9996,27.0402 L25.9996,29.0402 L23.9996,33.0402 L21.9996,29.0402 L22.9996,27.0402 L20.4006,23.2002 C15.5646,26.0872 12.9996,33.2502 12.9996,39.5002 L34.9996,39.5002 C34.9996,33.3752 32.6386,26.2002 27.5996,23.2002 Z"/>
</svg>
