<svg xmlns="http://www.w3.org/2000/svg" width="36" height="36" viewBox="0 0 36 36">
  <path fill="none" stroke="#000" d="M28.45605,30.37455 L6.04455,30.37455 C4.77705,30.37455 3.74955,29.34705 3.74955,28.08105 L3.74955,12.04455 C3.74955,10.77705 4.77705,9.74955 6.04455,9.74955 L28.45605,9.74955 C29.72355,9.74955 30.74955,10.77705 30.74955,12.04455 L30.74955,28.08105 C30.74955,29.34705 29.72355,30.37455 28.45605,30.37455 Z M12.75,9.7503 L12.75,9.0438 C12.75,7.7778 13.782,6.7503 15.0555,6.7503 L19.4445,6.7503 C20.718,6.7503 21.75,7.7778 21.75,9.0438 L21.75,9.7503 M3.75,17.2503 L30.75,17.2503 M19.10085,20.24955 L15.39885,20.24955 C14.76435,20.24955 14.24985,19.73505 14.24985,19.10055 L14.24985,15.40005 C14.24985,14.76405 14.76435,14.24955 15.39885,14.24955 L19.10085,14.24955 C19.73535,14.24955 20.24985,14.76405 20.24985,15.40005 L20.24985,19.10055 C20.24985,19.73505 19.73535,20.24955 19.10085,20.24955 Z"/>
</svg>
