<svg xmlns="http://www.w3.org/2000/svg" width="36" height="36" viewBox="0 0 36 36">
  <path fill="none" stroke="#000" d="M29.25,16.5 L29.25,6.75 L9.75,6.75 L9.75,20.25 L3.75,24.75 L3.75,27.75 L21,27.75 M20.9883,20.25 L9.7503,20.25 M21,24.75 L3.75,24.75 M24.75,18.75 L30.75,18.75 C31.5795,18.75 32.25,19.422 32.25,20.25 L32.25,30.75 C32.25,31.5795 31.5795,32.25 30.75,32.25 L24.75,32.25 C23.9205,32.25 23.25,31.5795 23.25,30.75 L23.25,20.25 C23.25,19.422 23.9205,18.75 24.75,18.75 Z M25.5,20.25 L30,20.25"/>
</svg>
