<svg xmlns="http://www.w3.org/2000/svg" width="36" height="36" viewBox="0 0 36 36">
  <path fill="none" stroke="#000" d="M10.96365,22.48395 C14.82315,29.16795 20.46615,33.23595 23.99265,32.04345 C24.11865,32.01945 24.24165,31.98345 24.35565,31.91595 L26.90865,30.44295 C27.69015,29.99295 27.90465,28.89045 27.38715,27.99345 L24.75315,23.43045 C24.23565,22.53345 23.17365,22.17045 22.39365,22.62045 L19.43265,24.32895 C19.13565,24.50145 18.73815,24.41595 18.48465,24.11745 C17.42565,22.86795 16.41465,21.43995 15.50265,19.86195 C14.59215,18.28395 13.86165,16.69545 13.30815,15.15195 C13.17615,14.78445 13.30215,14.39595 13.59765,14.22645 L16.55865,12.51495 C17.34015,12.06495 17.55615,10.96245 17.03865,10.06695 L14.40315,5.50395 C13.88565,4.60845 12.82365,4.24245 12.04365,4.69395 L9.48915,6.16845 C9.37515,6.23445 9.28065,6.32295 9.19815,6.41895 C6.40215,8.87745 7.10415,15.79695 10.96365,22.48395 Z"/>
</svg>
