<svg xmlns="http://www.w3.org/2000/svg" width="36" height="36" viewBox="0 0 36 36">
  <path fill="none" stroke="#000" d="M11.25,30.75 L24.75,30.75 L24.75,9.75 L11.25,9.75 L11.25,30.75 Z M11.25,11.25 L9.75,11.25 L9.75,17.25 L11.25,17.25 M21.75,4.5 L21.75,9.75 M13.5,21.75 L22.5,21.75 M13.5,24.75 L22.5,24.75 M13.5,27.75 L22.5,27.75 M20.25,15 C20.25,16.1565 19.1595,17.25 18.003,17.25 C16.8465,17.25 15.75,16.1565 15.75,15 C15.75,13.8435 16.8435,12.75 18,12.75 C19.1565,12.75 20.25,13.8435 20.25,15 Z"/>
</svg>
