<svg xmlns="http://www.w3.org/2000/svg" width="24" height="24" viewBox="0 0 24 24">
  <g fill="none" fill-rule="evenodd">
    <path stroke="#000" d="M3.0015,18.5007 L21.0025,18.5007 L3.0015,18.5007 Z M3.0015,5.5002 L21.0025,5.5002 L3.0015,5.5002 Z"/>
    <path fill="#000" d="M2.9894,7.9973 L6.2184,7.9973 C6.7624,7.9973 7.1904,8.0313 7.5024,8.0993 C7.8144,8.1663 8.0954,8.2863 8.3474,8.4573 C9.0444,8.9243 9.3934,9.6283 9.3934,10.5703 C9.3934,11.4053 9.1054,12.0623 8.5284,12.5403 C8.2834,12.7453 8.0054,12.8923 7.6914,12.9813 C7.3774,13.0703 6.9904,13.1153 6.5304,13.1153 L4.7354,13.1153 L4.7354,15.9983 L2.9894,15.9983 L2.9894,7.9973 Z M4.7354,9.4753 L4.7354,11.7413 L6.2954,11.7413 C6.7584,11.7413 7.0924,11.6593 7.2974,11.4953 C7.5484,11.2903 7.6744,10.9903 7.6744,10.5923 C7.6744,10.1903 7.5284,9.8913 7.2364,9.6943 C7.0254,9.5483 6.6804,9.4753 6.2024,9.4753 L4.7354,9.4753 Z M9.4126,12.1047 L10.9546,12.1047 L10.9546,10.5627 L11.8386,10.5627 L11.8386,12.1047 L13.3866,12.1047 L13.3866,12.9877 L11.8386,12.9877 L11.8386,14.5297 L10.9546,14.5297 L10.9546,12.9877 L9.4126,12.9877 L9.4126,12.1047 Z M14.0206,7.9978 L17.8956,7.9978 C18.6616,7.9978 19.2486,8.1188 19.6576,8.3588 C19.9966,8.5558 20.2556,8.8188 20.4346,9.1468 C20.6136,9.4758 20.7036,9.8458 20.7036,10.2578 C20.7036,10.7258 20.5906,11.1318 20.3666,11.4788 C20.1416,11.8258 19.8286,12.0738 19.4276,12.2228 C19.7816,12.3098 20.0586,12.5078 20.2596,12.8138 C20.3876,13.0078 20.4726,13.2098 20.5166,13.4218 C20.5606,13.6328 20.6176,14.1158 20.6866,14.8718 C20.7376,15.4258 20.8166,15.7708 20.9216,15.9058 L20.9976,15.9988 L19.1756,15.9988 C19.1146,15.8858 19.0696,15.7418 19.0416,15.5658 C19.0146,15.3918 18.9786,14.9858 18.9356,14.3508 C18.8916,13.7858 18.7536,13.3938 18.5216,13.1778 C18.2896,12.9608 17.8956,12.8518 17.3366,12.8518 L15.7666,12.8518 L15.7666,15.9988 L14.0206,15.9988 L14.0206,7.9978 Z M15.7666,9.3718 L15.7666,11.5718 L17.4356,11.5718 C17.9716,11.5718 18.3496,11.4948 18.5686,11.3418 C18.8456,11.1488 18.9846,10.8568 18.9846,10.4658 C18.9846,10.0868 18.8666,9.8088 18.6286,9.6348 C18.3916,9.4588 18.0176,9.3718 17.5066,9.3718 L15.7666,9.3718 Z"/>
  </g>
</svg>
