<svg xmlns="http://www.w3.org/2000/svg" width="24" height="24" viewBox="0 0 24 24">
  <path fill="none" stroke="#000" d="M4.4999,14.4997 L4.4999,16.4997 L7.4999,16.4997 L7.4999,14.4997 M16.5009,14.4997 L16.5009,16.4997 L19.4999,16.4997 L19.4999,14.4997 M16.9999,4.5002 L6.9999,4.5002 M19.4999,9.5007 L4.4999,9.5007 M4.4999,7.5002 L3.4999,7.5002 L3.4999,8.5002 L4.4999,8.5002 M16.9999,2.5002 C18.7059,2.5002 19.4999,3.2942 19.4999,5.0002 L19.4999,14.5002 L4.4999,14.5002 L4.4999,5.0002 C4.4999,3.2942 5.2939,2.5002 6.9999,2.5002 L16.9999,2.5002 Z M7.4999,12.0002 C7.4999,11.7242 7.2759,11.5002 6.9999,11.5002 C6.7239,11.5002 6.4999,11.7242 6.4999,12.0002 C6.4999,12.2762 6.7239,12.5002 6.9999,12.5002 C7.2759,12.5002 7.4999,12.2762 7.4999,12.0002 Z M17.4999,12.0002 C17.4999,11.7242 17.2759,11.5002 16.9999,11.5002 C16.7239,11.5002 16.4999,11.7242 16.4999,12.0002 C16.4999,12.2762 16.7239,12.5002 16.9999,12.5002 C17.2759,12.5002 17.4999,12.2762 17.4999,12.0002 Z M19.4999,8.5002 L20.4999,8.5002 L20.4999,7.5002 L19.4999,7.5002 M4.7499,20.4997 L9.9999,20.4997 M6.644,18.6482 L4.75,20.5002 L6.646,22.3422 M19.2499,20.4909 L13.9999,20.4909 M17.3564,22.3425 L19.2504,20.4905 L17.3534,18.6485"/>
</svg>
