<?xml version="1.0" encoding="utf-8"?>
<!-- Generator: Adobe Illustrator 23.0.0, SVG Export Plug-In . SVG Version: 6.00 Build 0)  -->
<svg version="1.1" id="Ebene_1" xmlns="http://www.w3.org/2000/svg" xmlns:xlink="http://www.w3.org/1999/xlink" x="0px" y="0px"
	 viewBox="0 0 20 20" enable-background="new 0 0 20 20" xml:space="preserve">
<polygon fill-rule="evenodd" clip-rule="evenodd" points="0,20 0,0 20,0 "/>
<path fill="#FFFFFF" d="M1.9816298,9.9731903l0.8125,0.8119993l0.6201191-0.6201191
	c0.1308203-0.1223392,0.2459602-0.260438,0.3427706-0.4111309C3.8134789,9.6535854,3.833159,9.5366802,3.8126798,9.4233704
	C3.7921395,9.305212,3.7343192,9.1967306,3.6476798,9.1138C3.5687795,9.0292835,3.4664197,8.9702816,3.3537393,8.9443703
	c-0.1053696-0.0233164-0.2155199-0.0102386-0.3125,0.0370998c-0.1504202,0.0926695-0.28687,0.2062798-0.4052696,0.33741
	L1.9816298,9.9731903z M3.0724893,11.06353l0.9189405,0.9189405l0.6884794-0.6884804
	c0.1742744-0.1505594,0.316143-0.3349552,0.4169998-0.5419998c0.0679626-0.2175665-0.0022488-0.4546347-0.1777296-0.6001005
	c-0.1757603-0.204545-0.4684801-0.2626028-0.7089996-0.1406202c-0.1887007,0.1140385-0.3592205,0.2557573-0.5058508,0.4204206
	L3.0724893,11.06353z M1.3371396,10.0181198l1.0497999-1.0498095C2.5655293,8.767354,2.7853694,8.6072989,3.0314698,8.4990702
	c0.1568794-0.0527592,0.32549-0.0600395,0.48633-0.0209999C3.6795592,8.516242,3.8273997,8.5989561,3.9445596,8.7168398
	c0.1230402,0.1189642,0.2056894,0.2735071,0.23633,0.4418898C4.211019,9.3284874,4.1881795,9.5034037,4.115459,9.65973
	C4.2145095,9.5981712,4.3230796,9.5534554,4.436749,9.5274c0.29986-0.0620499,0.6102152,0.0387421,0.8164005,0.2651396
	c0.2969017,0.2625942,0.4090223,0.6767044,0.2851601,1.0532207c-0.0789766,0.2175789-0.2092915,0.4128866-0.37988,0.5693398
	l-1.2119198,1.2118998L1.3371396,10.0181198z"/>
<polygon fill-rule="evenodd" clip-rule="evenodd" fill="#FFFFFF" points="5.9152598,5.43999 6.2150693,5.7398005 
	4.7521796,7.2026901 5.5783496,8.0288601 6.9445596,6.6626501 7.2228794,6.9409704 5.8566298,8.3071899 6.7618995,9.2119703 
	8.2443199,7.7295504 8.5441294,8.0293598 6.7170196,9.8564901 4.1076293,7.2476101 "/>
<polygon fill-rule="evenodd" clip-rule="evenodd" fill="#FFFFFF" points="8.4904594,2.8652802 8.7902594,3.1646004 
	7.9123292,4.0425301 10.2219,6.3516102 9.8771791,6.6963401 7.5676293,4.3872604 6.6926293,5.2627401 6.3928189,4.9629402 "/>
<path fill="#FFFFFF" d="M11.6261997,2.7871904L9.9777594,2.0313301l0.7548704,1.6503601L11.6261997,2.7871904z M9.84202,1.4921904
	l3.6406097,1.5986795l-0.3828201,0.3833008l-1.09375-0.5092802l-1.0947199,1.0947294l0.5029497,1.0995703l-0.3642597,0.3637705
	L9.4543295,1.8789606L9.84202,1.4921904z"/>
</svg>
