<?xml version="1.0" encoding="utf-8"?>
<!-- Generator: Adobe Illustrator 16.0.4, SVG Export Plug-In . SVG Version: 6.00 Build 0)  -->
<!DOCTYPE svg PUBLIC "-//W3C//DTD SVG 1.1//EN" "http://www.w3.org/Graphics/SVG/1.1/DTD/svg11.dtd">
<svg version="1.1" id="Layer_1" xmlns="http://www.w3.org/2000/svg" xmlns:xlink="http://www.w3.org/1999/xlink" x="0px" y="0px"
	 width="20px" height="20px" viewBox="0 0 20 20" enable-background="new 0 0 20 20" xml:space="preserve">
<g>
	<path d="M11,11.5c0,0.6-0.4,1-0.9,1c-0.5,0-0.9-0.5-0.9-1v-4c0-0.6,0.4-1,0.9-1c0.5,0,0.9,0.4,0.9,1
		V11.5z M10,15.5c-0.5,0-0.9-0.5-0.9-1s0.4-1,0.9-1s0.9,0.5,0.9,1S10.5,15.5,10,15.5L10,15.5z M17.4,16L10.9,3
		c-0.2-0.3-0.5-0.5-0.9-0.5C9.7,2.5,9.3,2.7,9.2,3L2.6,16c-0.2,0.3-0.2,0.7,0,1c0.2,0.3,0.5,0.5,0.8,0.5h13.1
		c0.3,0,0.6-0.2,0.8-0.5C17.5,16.7,17.5,16.3,17.4,16L17.4,16z"/>
</g>
</svg>
