<?xml version="1.0" encoding="UTF-8" standalone="no"?>
<svg width="20px" height="20px" viewBox="0 0 20 20" version="1.1" xmlns="http://www.w3.org/2000/svg" xmlns:xlink="http://www.w3.org/1999/xlink">
<g>
	<path d="M10.84975,13.3185 C10.576,13.3885 10.29475,13.43725 9.99975,13.43725 C9.6535,13.43725 9.326,13.371 9.011,13.27475 C7.59975,12.84725 6.56225,11.54975 6.56225,9.99975 C6.56225,9.70475 6.611,9.4235 6.681,9.14975 L9.011,11.47975 L10.84975,13.3185 C10.86225,13.31475 10.8735,13.311 10.886,13.30725 L10.886,13.35475 L10.84975,13.3185 Z M13.83725,13.65475 L12.51225,12.32975 L10.886,10.7035 L9.011,8.8285 L7.671,7.48725 L6.346,6.16225 L3.33225,3.14975 L2.00725,4.476 L5.23225,7.701 C4.8935,8.39975 4.68725,9.1735 4.68725,9.99975 C4.68725,12.591 6.5535,14.74725 9.011,15.21225 L9.011,19.99975 L10.886,19.99975 L10.886,15.2235 C11.386,15.1385 11.85725,14.98225 12.2985,14.76725 L16.14975,18.6185 L17.47475,17.29225 L13.83725,13.65475 Z"></path>
	<path d="M10.84975,13.3185 L10.886,13.35475 L10.886,13.30725 C10.8735,13.311 10.86225,13.31475 10.84975,13.3185"></path>
	<path d="M10,6.5625 C10.30875,6.5625 10.60125,6.61625 10.88625,6.6925 C12.35125,7.08625 13.4375,8.4125 13.4375,10 C13.4375,10.19 13.41375,10.375 13.3825,10.55625 L14.885,12.05875 C15.15625,11.425 15.3125,10.7325 15.3125,10 C15.3125,7.37375 13.39375,5.2025 10.88625,4.7775 L10.88625,0 L9.01125,0 L9.01125,4.7875 C8.64,4.8575 8.28875,4.97875 7.95,5.1225 L9.44625,6.62 C9.62625,6.585 9.81,6.5625 10,6.5625"></path>
</g>
</svg>
