<?xml version="1.0" encoding="UTF-8" standalone="no"?>
<svg width="20px" height="20px" viewBox="0 0 20 20" version="1.1" xmlns="http://www.w3.org/2000/svg" xmlns:xlink="http://www.w3.org/1999/xlink">
	<g>
		<path d="M14.1105,6.597875 L13.433,7.714125 L15.03425,8.686625 L17.46175,4.690375 L13.463,2.249125 L12.48675,3.849125 L13.928,4.729125 C12.72425,4.835375 11.5505,5.209125 10.55925,6.362875 C10.958,6.811625 11.32925,7.350375 11.6655,8.001625 C12.3305,6.987875 13.1155,6.679125 14.1105,6.597875"></path>
		<path d="M5,12.18675 L2.5,12.18675 L2.5,14.06175 L5,14.06175 C6.2,14.06175 7.415,13.958 8.4975,13.23675 C8.21,12.7255 7.94375,12.143 7.7075,11.4755 C6.975,12.09925 6.10375,12.18675 5,12.18675"></path>
		<path d="M15.034125,11.16075 L13.432875,12.13325 L14.110375,13.25075 C12.699125,13.13575 11.704125,12.5945 10.889125,10.17325 C9.521625,6.1245 7.230375,5.78575 5.000375,5.78575 L2.500375,5.78575 L2.500375,7.66075 L5.000375,7.66075 C6.905375,7.66075 8.132875,7.87075 9.111625,10.77325 C10.257875,14.1745 12.059125,14.9545 13.929125,15.11825 L12.486625,15.9995 L13.462875,17.59825 L17.461625,15.157 L15.034125,11.16075 Z"></path>
	</g>
</svg>
