<?xml version="1.0" encoding="UTF-8" standalone="no"?>
<svg width="20px" height="20px" viewBox="0 0 20 20" version="1.1" xmlns="http://www.w3.org/2000/svg" xmlns:xlink="http://www.w3.org/1999/xlink">
<g>
	<path d="M12.999875,14.08175 L9.999875,11.08175 L6.999875,14.08175 L5.918625,12.99925 L8.918625,10.0005 L5.918625,7.0005 L6.999875,5.91925 L9.999875,8.918 L12.999875,5.91925 L14.081125,7.0005 L11.082375,10.0005 L14.081125,12.99925 L12.999875,14.08175 Z"></path>
	<path d="M9.9925,2.5 C5.8525,2.5 2.5,5.86 2.5,10 C2.5,14.14 5.8525,17.5 9.9925,17.5 C14.14,17.5 17.5,14.14 17.5,10 C17.5,5.86 14.14,2.5 9.9925,2.5 L9.9925,2.5 Z M10,16 C6.685,16 4,13.315 4,10 C4,6.685 6.685,4 10,4 C13.315,4 16,6.685 16,10 C16,13.315 13.315,16 10,16 L10,16 Z"></path>
</g>
</svg>
