<?xml version="1.0" encoding="UTF-8" standalone="no"?>
<svg width="20px" height="20px" viewBox="0 0 20 20" version="1.1" xmlns="http://www.w3.org/2000/svg" xmlns:xlink="http://www.w3.org/1999/xlink">
<g>
	<path d="M10.69875,13.3075 C10.41375,13.38375 10.12125,13.4375 9.8125,13.4375 C9.46625,13.4375 9.13875,13.37125 8.82375,13.275 C7.4125,12.8475 6.375,11.55 6.375,10 C6.375,8.45125 7.4125,7.1525 8.82375,6.725 C9.13875,6.63 9.46625,6.5625 9.8125,6.5625 C10.12125,6.5625 10.41375,6.61625 10.69875,6.69375 C12.16375,7.0875 13.25,8.4125 13.25,10 C13.25,11.5875 12.16375,12.91375 10.69875,13.3075 M10.69875,4.7775 L10.69875,0 L8.82375,0 L8.82375,4.7875 C6.36625,5.25375 4.5,7.41 4.5,10 C4.5,12.59125 6.36625,14.7475 8.82375,15.2125 L8.82375,20 L10.69875,20 L10.69875,15.22375 C13.20625,14.79875 15.125,12.62625 15.125,10 C15.125,7.375 13.20625,5.2025 10.69875,4.7775"></path>
</g>
</svg>
