<svg xmlns="http://www.w3.org/2000/svg" width="36" height="36" viewBox="0 0 36 36">
  <path fill-rule="evenodd" d="M16.521,28.47 L16.521,25.5615 L19.5435,25.5615 L19.5435,28.47 L16.521,28.47 Z M11.751,14.3145 C11.8155,12.579 12.156,11.2365 12.7725,10.2855 C13.341,9.408 14.0955,8.733 15.039,8.256 C15.9795,7.7805 17.0385,7.5435 18.2145,7.5435 C20.1075,7.5435 21.6135,8.079 22.7325,9.1515 C23.778,10.14 24.3,11.442 24.3,13.0545 C24.3,14.388 23.946,15.5355 23.2365,16.4955 C22.9185,16.935 22.158,17.7405 20.9565,18.9165 C20.424,19.4295 20.0535,19.857 19.8435,20.196 C19.635,20.5365 19.4865,20.958 19.404,21.462 C19.3095,21.9645 19.263,22.6185 19.263,23.421 L16.8855,23.421 C16.9035,21.9945 17.0295,20.9355 17.262,20.2455 C17.4315,19.7415 17.67,19.29 17.9835,18.888 C18.2955,18.4875 18.9885,17.736 20.061,16.6365 C20.751,15.927 21.204,15.2895 21.417,14.7195 C21.594,14.235 21.684,13.74 21.684,13.236 C21.684,12.3045 21.4275,11.52 20.9145,10.887 C20.298,10.113 19.389,9.726 18.186,9.726 C15.696,9.726 14.3535,11.2545 14.157,14.3145 L11.751,14.3145 Z"/>
</svg>
