<svg xmlns="http://www.w3.org/2000/svg" width="48" height="48" viewBox="0 0 48 48">
  <path fill="none" stroke="#000" d="M13.9510176,10.3083064 L19.8173,18.3662 L13.9510176,10.3083064 C13.432447,10.7430777 12.75575,11 12,11 C10.3,11 9,9.7 9,8 C9,6.3 10.3,5 12,5 C13.7,5 15,6.3 15,8 C15,8.94425 14.5989306,9.76509405 13.9510176,10.3083064 Z M31.002,24 C31.002,27.908 27.908,31 24,31 C20.092,31 17,27.908 17,24 C17,20.092 20.092,17.009 24,17.009 C27.908,17.009 31.002,20.092 31.002,24 Z M41.0186,14 C41.0186,15.687 39.6876,17 37.9996,17 C36.3126,17 34.9996,15.687 34.9996,14 C34.9996,12.313 36.3126,10.99 37.9996,10.99 C39.6876,10.99 41.0186,12.313 41.0186,14 Z M43,31 C43,33.271 41.271,35 39,35 C36.729,35 35,33.271 35,31 C35,28.729 36.729,27 39,27 C41.271,27 43,28.729 43,31 Z M15.0117,36.9961 C15.0117,39.2551 13.2587,41.0001 10.9997,41.0001 C8.7417,41.0001 6.9997,39.2551 6.9997,36.9961 C6.9997,34.7381 8.7417,33.0001 10.9997,33.0001 C13.2587,33.0001 15.0117,34.7381 15.0117,36.9961 Z M35.5293,15.7275 L29.6443,19.8265 L35.5293,15.7275 Z M35.3633,29.2842 L30.3583,26.9672 L35.3633,29.2842 Z M13.8262,34.126 L19.0752,29.006 L13.8262,34.126 Z"/>
</svg>
