<svg xmlns="http://www.w3.org/2000/svg" width="24" height="24" viewBox="0 0 24 24">
  <path fill="none" stroke="#000" d="M7,11.5002 C8.93,11.5002 10.5,13.0702 10.5,15.0002 C10.5,16.9302 8.93,18.5002 7,18.5002 C5.07,18.5002 3.5,16.9302 3.5,15.0002 C3.5,13.0702 5.07,11.5002 7,11.5002 M17.001,11.5002 C18.931,11.5002 20.501,13.0702 20.501,15.0002 C20.501,16.9302 18.931,18.5002 17.001,18.5002 C15.07,18.5002 13.501,16.9302 13.501,15.0002 C13.501,13.0702 15.07,11.5002 17.001,11.5002 M7,14.9997 L9,9.4997 L14.5,9.4997 L16.5,6.4997 L13,6.4997 M17.001,14.9997 L14.5,9.4997 M7.2085,7.5002 L10.0005,7.5002"/>
</svg>
