<svg xmlns="http://www.w3.org/2000/svg" width="24" height="24" viewBox="0 0 24 24">
  <g fill="none" fill-rule="evenodd">
    <path stroke="#000" d="M4.5,18.4997 L4.5,20.4997 L7.5,20.4997 L7.5,18.4997 M16.501,18.4997 L16.501,20.4997 L19.5,20.4997 L19.5,18.4997 M17,5.5002 L7,5.5002 M19.5,11.5007 L4.5,11.5007 M7.5,15.9997 C7.5,15.7247 7.276,15.4997 7,15.4997 C6.724,15.4997 6.5,15.7247 6.5,15.9997 C6.5,16.2757 6.724,16.4997 7,16.4997 C7.276,16.4997 7.5,16.2757 7.5,15.9997 Z M17.5,15.9997 C17.5,15.7247 17.276,15.4997 17,15.4997 C16.724,15.4997 16.5,15.7247 16.5,15.9997 C16.5,16.2757 16.724,16.4997 17,16.4997 C17.276,16.4997 17.5,16.2757 17.5,15.9997 Z M17,3.5002 C18.706,3.5002 19.5,4.2942 19.5,6.0002 L19.5,18.5002 L4.5,18.5002 L4.5,6.0002 C4.5,4.2942 5.294,3.5002 7,3.5002 L17,3.5002 Z M4.5,9.5002 L3.5,9.5002 L3.5,10.5002 L4.5,10.5002 M19.5,10.5002 L20.5,10.5002 L20.5,9.5002 L19.5,9.5002"/>
    <polygon fill="#000" points="12.8 13 14.401 14.5 12.5 14.5 12.5 13 11.5 13 11.5 14.5 9.6 14.5 11.2 13 10 13 8 15 10 17 11.2 17 9.6 15.5 11.5 15.5 11.5 17 12.5 17 12.5 15.5 14.401 15.5 12.8 17 14 17 16 15 14 13"/>
  </g>
</svg>
