<svg xmlns="http://www.w3.org/2000/svg" width="24" height="24" viewBox="0 0 24 24">
  <path fill="none" stroke="#000" d="M7.499,4.5 L21.499,4.5 L21.499,2.5 L7.499,2.5 L7.499,4.5 Z M8.5,4.5012 L8.5,22.0012 M20.501,4.5012 L20.501,22.0012 M2.5,12.5 L6.5,12.5 L6.5,7.5 L2.5,7.5 L2.5,12.5 Z M4.5,12.5002 L4.5,22.0002 M16.5,8.5002 C16.5,9.0522 16.052,9.5002 15.5,9.5002 C14.947,9.5002 14.5,9.0522 14.5,8.5002 C14.5,7.9472 14.947,7.5002 15.5,7.5002 C16.052,7.5002 16.5,7.9472 16.5,8.5002 Z M17.5,16.4997 L17.5,11.4997 L13.5,11.4997 L13.5,16.4997 L14.5,16.4997 L14.5,21.4997 L16.5,21.4997 L16.5,16.4997 L17.5,16.4997 Z"/>
</svg>
