<svg xmlns="http://www.w3.org/2000/svg" width="24" height="24" viewBox="0 0 24 24">
  <path fill="none" stroke="#000" d="M5.5,16.4997 L5.5,18.4997 L8.5,18.4997 L8.5,16.4997 M15.501,16.4997 L15.501,18.4997 L18.5,18.4997 L18.5,16.4997 M5.5,8.5002 L4.5,8.5002 L4.5,9.5002 L5.5,9.5002 M16,5.5002 L8,5.5002 M18.5,10.5007 L5.5,10.5007 M4,16.8874 C3.053,17.3554 2.5,17.9084 2.5,18.4994 C2.5,20.1444 6.732,21.4994 12,21.4994 C17.269,21.4994 21.5,20.1444 21.5,18.4994 C21.5,17.9084 20.947,17.3554 20,16.8884 M16,3.5002 C17.706,3.5002 18.5,4.2942 18.5,6.0002 L18.5,16.5002 L5.5,16.5002 L5.5,6.0002 C5.5,4.2942 6.294,3.5002 8,3.5002 L16,3.5002 M8.5,13.9997 C8.5,13.7247 8.276,13.4997 8,13.4997 C7.724,13.4997 7.5,13.7247 7.5,13.9997 C7.5,14.2757 7.724,14.4997 8,14.4997 C8.276,14.4997 8.5,14.2757 8.5,13.9997 Z M16.5,13.9997 C16.5,13.7247 16.276,13.4997 16,13.4997 C15.724,13.4997 15.5,13.7247 15.5,13.9997 C15.5,14.2757 15.724,14.4997 16,14.4997 C16.276,14.4997 16.5,14.2757 16.5,13.9997 Z M18.5,9.5002 L19.5,9.5002 L19.5,8.5002 L18.5,8.5002"/>
</svg>
