<svg xmlns="http://www.w3.org/2000/svg" width="24" height="24" viewBox="0 0 24 24">
  <path fill="none" stroke="#000" d="M20.5,18.4997 L8.5,18.4997 L8.5,10.9997 C8.5,9.6187 9.619,8.4997 11,8.4997 L18,8.4997 C19.381,8.4997 20.5,9.6187 20.5,10.9997 L20.5,18.4997 Z M2.5,9.5 L6.5,9.5 L6.5,4.5 L2.5,4.5 L2.5,9.5 Z M4.5,9.4997 L4.5,20.9997 M8.5,18.4997 L8.5,20.4997 L11.5,20.4997 L11.5,18.4997 M17.501,18.4997 L17.501,20.4997 L20.5,20.4997 L20.5,18.4997 M8.5,12.5007 L7,12.5007 M22,12.5007 L20.5,12.5007 M20.5,13.5007 L8.5,13.5007 M18.5,13.4997 C18.5,12.3957 17.604,11.4997 16.5,11.4997 C15.396,11.4997 14.5,12.3957 14.5,13.4997 M11.5,15.9997 C11.5,15.7247 11.276,15.4997 11,15.4997 C10.724,15.4997 10.5,15.7247 10.5,15.9997 C10.5,16.2757 10.724,16.4997 11,16.4997 C11.276,16.4997 11.5,16.2757 11.5,15.9997 Z M18.5,15.9997 C18.5,15.7247 18.276,15.4997 18,15.4997 C17.724,15.4997 17.5,15.7247 17.5,15.9997 C17.5,16.2757 17.724,16.4997 18,16.4997 C18.276,16.4997 18.5,16.2757 18.5,15.9997 Z"/>
</svg>
