<svg xmlns="http://www.w3.org/2000/svg" width="24" height="24" viewBox="0 0 24 24">
  <path fill="none" stroke="#000" d="M18.5,16.9997 C18.5,16.7247 18.276,16.4997 18,16.4997 C17.724,16.4997 17.5,16.7247 17.5,16.9997 C17.5,17.2757 17.724,17.4997 18,17.4997 C18.276,17.4997 18.5,17.2757 18.5,16.9997 Z M7.5,19.4997 L7.5,21.4997 L10.5,21.4997 L10.5,19.4997 M17.501,19.4997 L17.501,21.4997 L20.5,21.4997 L20.5,19.4997 M22,13.5007 L20.5,13.5007 M20.5,14.5007 L12,14.5007 M18.5,14.4997 C18.5,13.3957 17.604,12.4997 16.5,12.4997 C15.396,12.4997 14.5,13.3957 14.5,14.4997 M10,16.4997 C9.724,16.4997 9.5,16.7237 9.5,16.9997 C9.5,17.2757 9.724,17.4997 10,17.4997 C10.276,17.4997 10.5,17.2757 10.5,16.9997 C10.5,16.7237 10.276,16.4997 10,16.4997 Z M7.5,18.9997 L7.5,19.4997 L20.5,19.4997 L20.5,11.9997 C20.5,10.2947 19.706,9.4997 18,9.4997 L17,9.4997 M13.5,5.4997 L14.437,7.5627 M19,4.9997 L4,19.9997 M6,6.4997 C7.93,6.4997 9.5,8.0697 9.5,9.9997 C9.5,11.9307 7.93,13.4997 6,13.4997 C4.07,13.4997 2.5,11.9307 2.5,9.9997 C2.5,8.0697 4.07,6.4997 6,6.4997 M6,9.9997 L8,5.4997 L13.5,5.4997 L15.5,2.4997 L12,2.4997 M6.2085,3.4997 L9.0005,3.4997"/>
</svg>
