<svg xmlns="http://www.w3.org/2000/svg" width="24" height="24" viewBox="0 0 24 24">
  <path fill="none" stroke="#000" d="M6.5,16.4997 L6.5,18.4997 L9.5,18.4997 L9.5,16.4997 M6.5,9.4997 L5.5,9.4997 L5.5,10.4997 L6.5,10.4997 M17.5,9.4997 L18.5,9.4997 L18.5,10.4997 L17.5,10.4997 M17.5,11.5007 L6.5,11.4997 M9.5,13.9997 C9.5,13.7247 9.276,13.4997 9,13.4997 C8.724,13.4997 8.5,13.7247 8.5,13.9997 C8.5,14.2757 8.724,14.4997 9,14.4997 C9.276,14.4997 9.5,14.2757 9.5,13.9997 Z M15.5,13.9997 C15.5,13.7247 15.276,13.4997 15,13.4997 C14.724,13.4997 14.5,13.7247 14.5,13.9997 C14.5,14.2757 14.724,14.4997 15,14.4997 C15.276,14.4997 15.5,14.2757 15.5,13.9997 Z M19.5,14.9997 L19.5,12.9997 M21.5,15.9997 L21.5,11.9997 M4.5,12.9997 L4.5,14.9997 M2.5,11.9997 L2.5,15.9997 M17.5,16.4997 L6.5,16.4997 L6.5,6.9997 C6.5,5.6187 7.619,4.4997 9,4.4997 L15,4.4997 C16.381,4.4997 17.5,5.6187 17.5,6.9997 L17.5,16.4997 Z M14.501,16.4997 L14.501,18.4997 L17.5,18.4997 L17.5,16.4997 M15,6.5007 L9,6.4997"/>
</svg>
