<svg xmlns="http://www.w3.org/2000/svg" width="24" height="24" viewBox="0 0 24 24">
  <path fill="none" stroke="#000" d="M3.5,15.5 L20.5,15.5 L20.5,8.5 L3.5,8.5 L3.5,15.5 Z M15.5,8.5 L15.5,15.5 M8.5,8.5 L8.5,15.5 M6.5,16.0029 C6.5,16.2789 6.276,16.5029 6,16.5029 C5.724,16.5029 5.5,16.2789 5.5,16.0029 C5.5,15.7279 5.724,15.5029 6,15.5029 C6.276,15.5029 6.5,15.7279 6.5,16.0029 Z M1.998,14.5059 L3.5,14.5059 M20.499,14.5059 L22.001,14.5059 M18.5,16.0029 C18.5,16.2789 18.276,16.5029 18,16.5029 C17.724,16.5029 17.5,16.2789 17.5,16.0029 C17.5,15.7279 17.724,15.5029 18,15.5029 C18.276,15.5029 18.5,15.7279 18.5,16.0029 Z"/>
</svg>
