<svg xmlns="http://www.w3.org/2000/svg" width="24" height="24" viewBox="0 0 24 24">
  <g fill="none" fill-rule="evenodd">
    <path stroke="#000" d="M3.0015,18.5007 L21.0025,18.5007 L3.0015,18.5007 Z M3.0015,5.5002 L21.0025,5.5002 L3.0015,5.5002 Z"/>
    <path fill="#000" d="M10.0937,7.9978 L6.9577,11.1618 L10.3887,15.9988 L8.1837,15.9988 L5.7537,12.4088 L4.7467,13.4158 L4.7467,15.9988 L3.0007,15.9988 L3.0007,7.9978 L4.7467,7.9978 L4.7467,11.3088 L7.8827,7.9978 L10.0937,7.9978 Z M9.3472,12.1047 L10.8892,12.1047 L10.8892,10.5627 L11.7732,10.5627 L11.7732,12.1047 L13.3202,12.1047 L13.3202,12.9877 L11.7732,12.9877 L11.7732,14.5297 L10.8892,14.5297 L10.8892,12.9877 L9.3472,12.9877 L9.3472,12.1047 Z M13.9464,7.9978 L17.8214,7.9978 C18.5874,7.9978 19.1744,8.1188 19.5834,8.3588 C19.9224,8.5558 20.1814,8.8188 20.3604,9.1468 C20.5394,9.4758 20.6294,9.8458 20.6294,10.2578 C20.6294,10.7258 20.5164,11.1318 20.2924,11.4788 C20.0674,11.8258 19.7544,12.0738 19.3534,12.2228 C19.7074,12.3098 19.9844,12.5078 20.1854,12.8138 C20.3134,13.0078 20.3984,13.2098 20.4424,13.4218 C20.4864,13.6328 20.5434,14.1158 20.6124,14.8718 C20.6634,15.4258 20.7424,15.7708 20.8474,15.9058 L20.9234,15.9988 L19.1014,15.9988 C19.0404,15.8858 18.9954,15.7418 18.9674,15.5658 C18.9404,15.3918 18.9044,14.9858 18.8614,14.3508 C18.8174,13.7858 18.6794,13.3938 18.4474,13.1778 C18.2154,12.9608 17.8214,12.8518 17.2624,12.8518 L15.6924,12.8518 L15.6924,15.9988 L13.9464,15.9988 L13.9464,7.9978 Z M15.6924,9.3718 L15.6924,11.5718 L17.3614,11.5718 C17.8974,11.5718 18.2754,11.4948 18.4944,11.3418 C18.7714,11.1488 18.9104,10.8568 18.9104,10.4658 C18.9104,10.0868 18.7924,9.8088 18.5544,9.6348 C18.3174,9.4588 17.9434,9.3718 17.4324,9.3718 L15.6924,9.3718 Z"/>
  </g>
</svg>
