<svg xmlns="http://www.w3.org/2000/svg" width="24" height="24" viewBox="0 0 24 24">
  <path fill="none" stroke="#000" d="M5.5,16.4997 L5.5,18.4997 L8.5,18.4997 L8.5,16.4997 M15.5,16.4997 L15.501,18.4997 L18.5,18.4997 L18.5,16.4997 M5.5,10.5007 L4,10.5007 M20,10.5007 L18.5,10.5007 M18.5,11.5007 L5.5,11.5007 M16.5,11.5002 C16.5,10.3952 15.604,9.5002 14.5,9.5002 C13.396,9.5002 12.5,10.3952 12.5,11.5002 M16,6.5002 C17.706,6.5002 18.5,7.2942 18.5,9.0002 L18.5,16.5002 L5.5,16.5002 L5.5,9.0002 C5.5,7.2942 6.294,6.5002 8,6.5002 L16,6.5002 M13.5,6.5002 L13.5,5.0002 L10.5,5.0002 L10.5,6.5002 M8.5,13.9997 C8.5,13.7247 8.276,13.4997 8,13.4997 C7.724,13.4997 7.5,13.7247 7.5,13.9997 C7.5,14.2757 7.724,14.4997 8,14.4997 C8.276,14.4997 8.5,14.2757 8.5,13.9997 Z M16.5,13.9997 C16.5,13.7247 16.276,13.4997 16,13.4997 C15.724,13.4997 15.5,13.7247 15.5,13.9997 C15.5,14.2757 15.724,14.4997 16,14.4997 C16.276,14.4997 16.5,14.2757 16.5,13.9997 Z"/>
</svg>
