<svg xmlns="http://www.w3.org/2000/svg" width="24" height="24" viewBox="0 0 24 24">
  <path fill="none" stroke="#000" d="M5,14.4997 L7,14.4997 M5,12.4997 L6,12.4997 M7,12.4997 L8,12.4997 M8,14.4997 L9,14.4997 M7,16.4997 L8,16.4997 M5,16.4997 L6,16.4997 M16,16.4997 L17,16.4997 M18,16.4997 L19,16.4997 M10,14.4997 L11,14.4997 M12,14.4997 L13,14.4997 M14,14.4997 L15,14.4997 M16,14.4997 L17,14.4997 M9,12.4997 L10,12.4997 M11,12.4997 L12,12.4997 M13,12.4997 L14,12.4997 M15,12.4997 L16,12.4997 M9,16.4997 L15,16.4997 M17,12.4997 L18.5,12.4997 L18.5,14.9997 M3.5,18.5 L20.5,18.5 L20.5,10.5 L3.5,10.5 L3.5,18.5 Z M10.5,10.4997 L10.5,6.4997 L15,6.4997"/>
</svg>
