<svg width="48" height="48" viewBox="0 0 48 48" xmlns="http://www.w3.org/2000/svg"><path d="M28.603 12c-3.3315 0-6.18 1.914-7.509 4.7265-.984-.723-2.1915-1.1385-3.477-1.1385-3.2565 0-5.904 2.6475-5.904 5.9025 0 .429.0465.852.1395 1.2645C9.0745 23.4 7 25.8945 7 28.8645c0 3.2865 2.8245 6.108 6.213 6.2595v.012h22.1295c3.459 0 6.2715-2.8125 6.2715-6.2715 0-3.0375-2.169-5.577-5.04-6.15.234-.771.354-1.5735.354-2.3895 0-4.59-3.735-8.325-8.325-8.325m0 1.5c3.7695 0 6.825 3.0555 6.825 6.825 0 1.467-.474 2.8185-1.263 3.9315.3795-.096.7695-.1635 1.1775-.1635 2.6355 0 4.7715 2.136 4.7715 4.7715 0 2.6355-2.136 4.7715-4.7715 4.7715H13.213l.2265-.006C10.8325 33.5985 8.5 31.4805 8.5 28.8645c0-2.6355 2.136-4.7715 4.7715-4.7715.303 0 .5955.0345.882.0885-.5805-.7455-.9405-1.6725-.9405-2.691 0-2.4315 1.971-4.4025 4.404-4.4025 1.9665 0 3.612 1.2975 4.1775 3.078.0855-3.6945 3.093-6.666 6.8085-6.666"/></svg>