<svg xmlns="http://www.w3.org/2000/svg" width="36" height="36" viewBox="0 0 36 36">
  <path fill="none" stroke="#000" d="M14.3064427,21.7544398 C13.3422523,20.8061355 12.75,19.4812175 12.75,18 C12.75,16.2518638 13.5749348,14.723568 14.862635,13.7747359 L10.463352,7.73115535 C10.0744125,8.05727893 9.56685565,8.25 9,8.25 C7.725,8.25 6.75,7.275 6.75,6 C6.75,4.725 7.725,3.75 9,3.75 C10.275,3.75 11.25,4.725 11.25,6 C11.25,6.70814435 10.9492346,7.32374551 10.463352,7.73115535 L14.8629,13.7751 C15.7339481,13.1327155 16.8171362,12.756 18,12.756 C20.931,12.756 23.2515,15.069 23.2515,18 C23.2515,20.931 20.931,23.25 18,23.25 C16.5502175,23.25 15.2501707,22.6826189 14.3064427,21.7544398 L10.36965,25.59375 C9.8309718,25.0678615 9.08686476,24.75 8.24985,24.75 C6.55635,24.75 5.24985,26.0535 5.24985,27.747 C5.24985,29.442 6.55635,30.75 8.24985,30.75 C9.94485,30.75 11.25885,29.442 11.25885,27.747 C11.25885,26.889774 10.9221713,26.1324755 10.3698214,25.5935828 Z M26.5224,21.9624 L22.7694,20.2254 L26.5223154,21.9623609 C26.988922,20.9343725 28.0117357,20.25 29.25,20.25 C30.954,20.25 32.25,21.546 32.25,23.25 C32.25,24.954 30.954,26.25 29.25,26.25 C27.546,26.25 26.25,24.954 26.25,23.25 C26.25,22.7842643 26.3468155,22.3490076 26.5223154,21.9623609 Z M26.6469,11.7957 L22.2339,14.8692 L26.6466023,11.7959073 C26.3953227,11.4323154 26.2497,10.9870244 26.2497,10.5 C26.2497,9.234 27.2337,8.2425 28.4997,8.2425 C29.7657,8.2425 30.7647,9.234 30.7647,10.5 C30.7647,11.766 29.7657,12.75 28.4997,12.75 C27.7207244,12.75 27.0485139,12.3774578 26.6466023,11.7959073 Z"/>
</svg>
