<svg xmlns="http://www.w3.org/2000/svg" width="36" height="36" viewBox="0 0 36 36">
  <g fill="none" fill-rule="evenodd">
    <path stroke="#000" d="M5.25,8.25 L23.25,8.25 L23.25,12.75 L23.25,17.25 L23.25,20.25 L23.25,21.75 L14.25,21.75 L13.125,21.75 L9.75,25.125 L9.75,21.75 L5.25,21.75 L5.25,8.25 Z M23.25,12.75 L30.75,12.75 L30.75,26.25 L26.25,26.25 L26.25,29.625 L22.875,26.25 L14.25,26.25 L14.25,21.75 M28.5,17.25 L23.25,17.25 M27,20.25 L23.25,20.25"/>
    <path fill="#000" d="M13.242,18.942 L13.242,17.724 L14.508,17.724 L14.508,18.942 L13.242,18.942 Z M11.2455,13.0125 C11.2725,12.2865 11.415,11.724 11.673,11.325 C11.91,10.959 12.2265,10.6755 12.6225,10.476 C13.017,10.2765 13.4595,10.1775 13.9515,10.1775 C14.745,10.1775 15.375,10.4025 15.8445,10.851 C16.281,11.265 16.5,11.8095 16.5,12.486 C16.5,13.044 16.3515,13.5255 16.056,13.9275 C15.9225,14.1105 15.6045,14.448 15.1005,14.94 C14.877,15.156 14.7225,15.3345 14.634,15.477 C14.547,15.6195 14.4855,15.7965 14.4495,16.0065 C14.4105,16.218 14.391,16.491 14.391,16.827 L13.395,16.827 C13.404,16.23 13.4565,15.786 13.554,15.498 C13.6245,15.2865 13.7235,15.096 13.8555,14.9295 C13.986,14.7615 14.277,14.4465 14.7255,13.986 C15.015,13.689 15.204,13.4205 15.294,13.1835 C15.3675,12.9795 15.405,12.7725 15.405,12.5625 C15.405,12.171 15.297,11.844 15.0825,11.577 C14.8245,11.253 14.4435,11.091 13.9395,11.091 C12.897,11.091 12.3345,11.7315 12.252,13.0125 L11.2455,13.0125 Z"/>
  </g>
</svg>
