<svg xmlns="http://www.w3.org/2000/svg" width="36" height="36" viewBox="0 0 36 36">
  <path fill="none" stroke="#000" d="M24,18.7503 L26.25,18.7503 M8.2485,27.7635 L12.75,27.7635 L12.75,15.7515 L8.2485,15.7515 L8.2485,27.7635 Z M24,21.74955 L26.25,21.74955 M24,24.75105 L24.75,24.75105 M26.25,15.7503 C27.0795,15.7503 27.75,16.4223 27.75,17.2503 C27.75,18.0783 27.0795,18.7503 26.25,18.7503 C27.0795,18.7503 27.75,19.4223 27.75,20.2503 C27.75,21.0783 27.0795,21.7503 26.25,21.7503 C27.0795,21.7503 27.75,22.4223 27.75,23.2503 C27.75,24.0783 27.0795,24.7503 26.25,24.7503 L24.75,24.7503 C25.578,24.7503 26.25,25.4223 26.25,26.2503 C26.25,27.0783 25.578,27.7503 24.75,27.7503 C24.75,27.7503 19.512,27.7503 17.25,27.7503 C14.988,27.7503 12.75,27.0003 12.75,23.2503 L12.75,15.7503 L14.25,15.7503 L20.685,8.6928 C20.958,8.4198 21.3345,8.2503 21.75,8.2503 C22.5795,8.2503 23.25,8.9223 23.25,9.7503 C23.25,9.9333 23.2185,10.1088 23.157,10.2708 L21,15.7503 L26.25,15.7503"/>
</svg>
