<svg xmlns="http://www.w3.org/2000/svg" width="36" height="36" viewBox="0 0 36 36">
  <path fill="none" stroke="#000" d="M12.75,17.7312 L8.25,22.2312 L8.25,18.7497 L3.75,18.7497 L3.75,5.2497 L23.25,5.2497 L23.25,15.7497 M32.25,15.75 L12.75,15.75 L12.75,29.25 L24.3135,29.25 L27.75,32.6865 L27.75,29.25 L32.25,29.25 L32.25,15.75 Z M21,9.75 L6,9.75 M18,12.75 L6,12.75 M30,20.25 L15,20.25 M30,23.25 L15,23.25 M3.75,22.5 L3.75,29.25 L9.4395,29.25 M6.78735,26.5986 L9.43935,29.2506 L6.78735,31.9011 M32.25,13.5 L32.25,8.25 L26.5605,8.25 M29.2119,10.9014 L26.5599,8.2494 L29.2119,5.5989"/>
</svg>
