<svg xmlns="http://www.w3.org/2000/svg" width="24" height="24" viewBox="0 0 24 24">
  <path fill="none" stroke="#000" d="M17.5,16.9997 L17.5,14.9997 L17.5,16.9997 Z M17.5,13.0002 L17.5,11.0002 L17.5,13.0002 Z M19.5,16.9997 L19.5,14.9997 L19.5,16.9997 Z M19.5,13.0002 L19.5,11.0002 L19.5,13.0002 Z M13.5,16.9997 L13.5,14.9997 L13.5,16.9997 Z M13.5,13.0002 L13.5,11.0002 L13.5,13.0002 Z M13.5,9.0002 L13.5,7.0002 L13.5,9.0002 Z M11.5,16.9997 L11.5,14.9997 L11.5,16.9997 Z M11.5,13.0002 L11.5,11.0002 L11.5,13.0002 Z M11.5,9.0002 L11.5,7.0002 L11.5,9.0002 Z M9.5,16.9997 L9.5,14.9997 L9.5,16.9997 Z M9.5,13.0002 L9.5,11.0002 L9.5,13.0002 Z M9.5,9.0002 L9.5,7.0002 L9.5,9.0002 Z M6,8.5002 L4,8.5002 L6,8.5002 Z M6,5.5002 L4,5.5002 L6,5.5002 Z M6,11.5002 L4,11.5002 L6,11.5002 Z M6,14.4997 L4,14.4997 L6,14.4997 Z M15.5,19.4997 L7.5,19.4997 L15.5,19.4997 Z M7.5,17.4997 L2.5,17.4997 L7.5,17.4997 Z M21.5,19.4997 L15.5,19.4997 L21.5,19.4997 Z M2.5,21.9997 L2.5,3.4997 L7.5,2.4997 L7.5,21.4997 M7.5,21.9997 L7.5,4.4997 L15.5,4.4997 L15.5,21.9997 M15.5,8.5002 L21.5,8.5002 L21.5,22.0002"/>
</svg>
