<svg xmlns="http://www.w3.org/2000/svg" width="59" height="20" viewBox="0 0 59 20">
  <g fill="none" fill-rule="evenodd">
    <rect width="59" height="20" fill="#EB0000" rx="2"/>
    <path fill="#FFF" fill-rule="nonzero" d="M36.608326 7.897852C36.6041876 7.04982882 36.8481392 6.21922709 37.3099476 5.508984 38.0246143 4.475384 39.099389 3.958584 40.5342717 3.958584 41.6379517 3.958584 42.5287793 4.24068067 43.2067544 4.804874 43.9208037 5.3811786 44.3260315 6.25873507 44.3025519 7.17792 44.3164937 7.71004605 44.1664713 8.23352947 43.8729541 8.676944 43.5968253 9.08857369 43.1851764 9.38961321 42.710096 9.527344 43.3003118 9.6503872 43.8241248 9.9885774 44.1803122 10.476562 44.5490568 10.9947651 44.7387241 11.619782 44.7203755 12.25625 44.7491863 13.3364351 44.2846503 14.3706539 43.4590273 15.06445 42.6811947 15.73945 41.6983928 16.07695 40.5106219 16.07695 39.2228977 16.07695 38.2019771 15.70514 37.4478601 14.96152 36.693678 14.2179653 36.3166035 13.213408 36.3166368 11.947848L36.3166368 11.797448 38.5318834 11.797448C38.5318834 12.5093627 38.7000633 13.059102 39.0364231 13.446666 39.4004286 13.846335 39.9246679 14.0599566 40.4633242 14.028112 41.0782318 14.028112 41.5512377 13.8462107 41.882342 13.482408 42.1844504 13.1468004 42.3479304 12.7083993 42.339582 12.256236 42.3625371 11.7394043 42.147426 11.2406742 41.7562075 10.903696 41.4356143 10.6294773 40.9415856 10.492368 40.2741216 10.492368 40.0870993 10.4922442 39.9002219 10.502808 39.7143969 10.524008L39.7143969 8.823242C39.8510431 8.83398467 39.9824337 8.839258 40.1085687 8.839062 41.4329859 8.839062 42.0951944 8.346028 42.0951944 7.35996 42.1102614 6.96376085 41.9518454 6.58077461 41.6616062 6.311718 41.346094 6.03577301 40.9365974 5.89268921 40.5185091 5.912304 40.0461585 5.88385273 39.5860319 6.06968887 39.2650442 6.418554 38.9706315 6.756054 38.812966 7.24915267 38.7920475 7.89785L36.608326 7.897852zM53.0689333 4.235352L53.0689333 6.292 48.4255915 6.292 47.928935 8.89454C48.4815831 8.30559983 49.2595666 7.9829807 50.065345 8.0086 50.8609852 7.99115093 51.6408868 8.23254026 52.2884729 8.696686 53.2238767 9.387702 53.6916245 10.437116 53.6917162 11.844928 53.6917162 13.226568 53.192432 14.3208387 52.1938636 15.12774 51.4044028 15.7646802 50.41586 16.1009145 49.4031238 16.076958 48.1838197 16.076958 47.2036463 15.748638 46.4626036 15.091998 45.721561 14.4355527 45.3300169 13.5483133 45.2879715 12.43028L47.5505158 12.43028C47.5760934 12.8074072 47.7133506 13.1682738 47.9446876 13.466608 48.3070836 13.890556 48.8350073 14.1358307 49.3916412 14.138866 49.948275 14.1419014 50.4788245 13.9023987 50.8457914 13.482428 51.1929501 13.0390613 51.3742667 12.4876344 51.3582144 11.924028 51.3873252 11.3437419 51.1957167 10.7740178 50.8221416 10.330082 50.4580033 9.92898937 49.9354968 9.71035263 49.3952405 9.733012 48.6927953 9.7196684 48.0405667 10.0971127 47.7003021 10.713872L45.6427269 10.682232 46.7385243 4.235358 53.0689333 4.235352z"/>
    <polygon fill="#FFF" fill-rule="nonzero" points="9.22 4.2 13.276 4.2 8.258 15.8 4.185 15.8"/>
    <path fill="#FFF" fill-rule="nonzero" d="M25.9805304,12.366254 C26.3470525,12.3662563 26.6789963,12.1490854 26.8268376,11.812566 L30.1191233,4.2 L15.9841006,4.2 L10.9660669,15.8 L15.0044375,15.8 L18.8032143,7.1096 L24.7969426,7.1096 L23.5955451,9.88506 L18.3696101,9.866038 L22.5865096,15.8 L27.1837955,15.8 L24.0598751,12.36625 L25.9805304,12.366254 Z"/>
  </g>
</svg>
