<svg xmlns="http://www.w3.org/2000/svg" width="59" height="20" viewBox="0 0 59 20">
  <g fill="none" fill-rule="evenodd">
    <rect width="59" height="20" fill="#EB0000" rx="2"/>
    <path fill="#FFF" fill-rule="nonzero" d="M36.5610004 12.896884L38.7368247 12.896884C38.9154193 13.793368 39.4330978 14.2415453 40.2898602 14.241416 40.7358174 14.257339 41.1664015 14.0767291 41.4683852 13.74708 41.7705835 13.417588 42.0031611 12.9047627 42.166118 12.208604 42.2795708 11.7113451 42.3559901 11.2063048 42.394743 10.697666 42.1144604 11.1247769 41.7444763 11.4852155 41.3107217 11.75372 40.8944571 11.9731 40.42873 12.080751 39.9587626 12.06622 39.1594006 12.0820771 38.3792949 11.819297 37.7514011 11.322666 37.3058131 10.9624746 36.9552518 10.4979464 36.7305457 9.969932 36.4830013 9.40141252 36.358059 8.78679832 36.3639165 8.166416 36.3639165 6.864072 36.8080164 5.80938467 37.6962162 5.002354 38.4422465 4.31228711 39.4251836 3.93818519 40.4396504 3.958214 41.0738239 3.95265346 41.69949 4.10484399 42.2607233 4.401182 42.8225652 4.70099211 43.3039537 5.13248984 43.6639666 5.658994 44.3313336 6.62403267 44.6650657 7.979306 44.6651627 9.724814 44.6651627 11.338486 44.3708477 12.7148533 43.7822177 13.853916 43.0147991 15.3359467 41.8533064 16.076832 40.2977395 16.076572 39.2622842 16.076572 38.4069171 15.789202 37.7316381 15.214462 37.0503157 14.628467 36.629167 13.794695 36.5610004 12.896884zM40.3923488 5.912118C39.9031606 5.90973073 39.4403905 6.13456313 39.1388838 6.521102 38.7862679 6.96461387 38.6043907 7.52058509 38.6264608 8.087502 38.6177279 8.56724241 38.7463202 9.03942938 38.9969828 9.448048 39.2775166 9.92523734 39.7772842 10.2300569 40.3286171 10.2602418 40.8799499 10.2904266 41.4098041 10.0419777 41.7404171 9.598248 42.0549837 9.16774086 42.2185453 8.64479547 42.2055404 8.111138 42.2221829 7.55744443 42.0528127 7.01421496 41.7246505 6.568756 41.4146978 6.14394661 40.9168816 5.89859302 40.3923488 5.912118L40.3923488 5.912118zM53.0689054 4.235166L53.0689054 6.2918 48.4255675 6.2918 47.9289111 8.894144C48.4816115 8.3052803 49.2595594 7.98267669 50.065321 8.008206 50.8609819 7.9908239 51.6408825 8.23228167 52.288449 8.696488 53.2238528 9.387504 53.6916006 10.436918 53.6916923 11.84473 53.6916923 13.22637 53.1924081 14.320576 52.1938397 15.127348 51.4043788 15.7642882 50.4158361 16.1005225 49.4030999 16.076566 48.1837958 16.076566 47.2036224 15.7483107 46.4625797 15.0918 45.7215371 14.4353547 45.329993 13.5481153 45.2879475 12.430082L47.5504919 12.430082C47.5760695 12.8072092 47.7133266 13.1680758 47.9446637 13.46641 48.307054 13.8903904 48.835006 14.1356714 49.3916609 14.1386696 49.9483158 14.1416679 50.4788617 13.9020883 50.8457675 13.482036 51.1929229 13.0387447 51.374242 12.4873811 51.3581904 11.923836 51.3873013 11.3435499 51.1956928 10.7738258 50.8221176 10.32989 50.4579794 9.92879737 49.9354728 9.71016063 49.3952166 9.73282 48.6927714 9.7194764 48.0405428 10.0969207 47.7002781 10.71368L45.642703 10.68204 46.7385004 4.235166 53.0689054 4.235166z"/>
    <polygon fill="#FFF" fill-rule="nonzero" points="9.22 4.2 13.276 4.2 8.258 15.8 4.185 15.8"/>
    <path fill="#FFF" fill-rule="nonzero" d="M25.9805304,12.366254 C26.3470525,12.3662563 26.6789963,12.1490854 26.8268376,11.812566 L30.1191233,4.2 L15.9841006,4.2 L10.9660669,15.8 L15.0044375,15.8 L18.8032143,7.1096 L24.7969426,7.1096 L23.5955451,9.88506 L18.3696101,9.866038 L22.5865096,15.8 L27.1837955,15.8 L24.0598751,12.36625 L25.9805304,12.366254 Z"/>
  </g>
</svg>
