<svg xmlns="http://www.w3.org/2000/svg" width="59" height="20" viewBox="0 0 59 20">
  <g fill="none" fill-rule="evenodd">
    <rect width="59" height="20" fill="#EB0000" rx="2"/>
    <path fill="#FFF" fill-rule="nonzero" d="M44.3813906 4.235352L44.3813906 6.19707C44.3183231 6.26562467 44.1317482 6.47923133 43.821666 6.83789 43.3327411 7.41729371 42.9023011 8.04393155 42.5366679 8.7086 42.1396232 9.39733074 41.8070949 10.1215261 41.5433551 10.871882 41.0153302 12.4645773 40.7102198 14.1231133 40.6367603 15.8L38.2559628 15.8C38.288501 14.8199954 38.4407208 13.8476957 38.7092123 12.904882 39.0082286 11.8111535 39.4053527 10.7468456 39.8957183 9.725 40.6157389 8.227344 41.3462705 7.11197933 42.0873131 6.378906L36.6477523 6.378906 36.6477523 4.235352 44.3813906 4.235352zM49.5450387 3.9586C50.3879863 3.94642918 51.2083768 4.23194995 51.862768 4.76524 52.5249766 5.30313067 53.0058658 6.13112533 53.3054356 7.249224 53.5382185 8.15868579 53.6521699 9.0946558 53.6444245 10.0336 53.6444245 11.6945333 53.3501095 13.0602887 52.7614795 14.130866 52.4431405 14.7230803 51.9738923 15.2199344 51.4016352 15.57071 50.0394359 16.3564356 48.3354393 16.2180199 47.1169416 15.222664 45.9291706 14.210164 45.3352851 12.4804767 45.3352851 10.033602 45.3352851 8.29336733 45.6453673 6.89584133 46.2655317 5.841024 46.9342156 4.65985042 48.1913447 3.93826328 49.5450387 3.9586zM49.4583207 5.91231C48.7015115 5.91231 48.1864574 6.35000533 47.9131585 7.225396 47.6975813 7.92148933 47.5898412 8.89707533 47.5899382 10.152154 47.5624372 11.0525855 47.6741297 11.9518569 47.9210418 12.817974 48.2048451 13.6878953 48.7304075 14.1229213 49.4977291 14.123052 50.1335617 14.123052 50.6065676 13.785552 50.9167469 13.110552 51.2268291 12.435552 51.3818702 11.4045627 51.3818702 10.017584 51.3818702 8.83633467 51.2715023 7.90560533 51.0507666 7.225396 50.7669686 6.35000133 50.2361533 5.912304 49.4583207 5.912304L49.4583207 5.91231z"/>
    <polygon fill="#FFF" fill-rule="nonzero" points="9.22 4.2 13.276 4.2 8.258 15.8 4.185 15.8"/>
    <path fill="#FFF" fill-rule="nonzero" d="M25.9805304,12.366254 C26.3470525,12.3662563 26.6789963,12.1490854 26.8268376,11.812566 L30.1191233,4.2 L15.9841006,4.2 L10.9660669,15.8 L15.0044375,15.8 L18.8032143,7.1096 L24.7969426,7.1096 L23.5955451,9.88506 L18.3696101,9.866038 L22.5865096,15.8 L27.1837955,15.8 L24.0598751,12.36625 L25.9805304,12.366254 Z"/>
  </g>
</svg>
