<svg xmlns="http://www.w3.org/2000/svg" width="59" height="20" viewBox="0 0 59 20">
  <g fill="none" fill-rule="evenodd">
    <rect width="59" height="20" fill="#EB0000" rx="2"/>
    <path fill="#FFF" fill-rule="nonzero" d="M6.61964054,4.20215 L9.03691439,4.20215 L6.60308466,15.797878 L4.18581081,15.797878 L6.61964054,4.20215 Z M18.8550167,6.511328 C18.5099544,6.294613 18.1366431,6.1268918 17.745721,6.012944 C17.2657385,5.88183322 16.7695309,5.82029651 16.2721781,5.830204 C14.9697132,5.830204 13.9045679,6.25659933 13.0767421,7.10939 C12.2489163,7.96218067 11.8349994,9.06416267 11.8349914,10.415336 C11.8349914,11.5228613 12.1440491,12.42549 12.7621644,13.123222 C13.3660734,13.8148735 14.2468985,14.1988721 15.1628804,14.169822 C15.5432275,14.1721026 15.9220742,14.1217908 16.288734,14.020306 C16.7335091,13.8807415 17.1611688,13.6912641 17.5635964,13.45547 L17.1993511,15.681584 C17.0448216,15.7148107 16.8295846,15.7591113 16.55364,15.814486 C16.2776954,15.8698607 16.0045101,15.9141613 15.7340841,15.947388 C15.3738644,15.9850685 15.0117666,16.0017092 14.6496223,15.997226 C13.0160226,15.997226 11.7356402,15.5154547 10.8084751,14.551912 C9.88131003,13.5883693 9.41772418,12.2482733 9.41771753,10.531624 C9.41771753,8.54915467 10.024793,6.965402 11.2389439,5.780366 C12.4530948,4.59533 14.0866885,4.002808 16.1397251,4.0028 C16.708,3.99282946 17.2760069,4.03453321 17.8367823,4.1274 C18.2727711,4.21046667 18.5707908,4.276918 18.7308416,4.326754 C18.8908924,4.37659 19.125446,4.45688533 19.4345023,4.56764 L18.8550167,6.511328 Z M21.2888484,4.20215 L28.0936373,4.20215 L27.7459459,6.029556 L23.2259799,6.029556 L22.6299403,8.886956 L26.669768,8.886956 L26.3055207,10.714356 L22.2491352,10.714356 L21.5703123,13.970464 L26.139952,13.970464 L25.742593,15.797864 L18.8550167,15.797864 L21.2888484,4.20215 Z"/>
  </g>
</svg>
