<svg xmlns="http://www.w3.org/2000/svg" xmlns:xlink="http://www.w3.org/1999/xlink" width="59" height="20" viewBox="0 0 59 20">
  <defs>
    <polygon id="sbb_product_ir_66-a" points="0 0 59 0 59 20 0 20"/>
  </defs>
  <g fill="none" fill-rule="evenodd">
    <mask id="sbb_product_ir_66-b" fill="#fff">
      <use xlink:href="#sbb_product_ir_66-a"/>
    </mask>
    <path fill="#E20613" d="M57.2079348,20 L1.79198547,20 C0.802340203,20 5.97972973e-05,19.1942 5.97972973e-05,18.2 L5.97972973e-05,1.8 C5.97972973e-05,0.8058 0.802340203,0 1.79198547,0 L57.2079348,0 C58.1975801,0 59.0000598,0.8058 59.0000598,1.8 L59.0000598,18.2 C59.0000598,19.1942 58.1975801,20 57.2079348,20" mask="url(#sbb_product_ir_66-b)"/>
    <polygon fill="#FFF" points="9.22 4.2 13.276 4.2 8.258 15.8 4.185 15.8"/>
    <path fill="#FFF" d="M25.9805902 12.36622C26.3469483 12.36622 26.6790226 12.14902 26.8269213 11.81242L30.1191611 4.20002 15.9840767 4.20002 10.9660868 15.80002 15.0043976 15.80002 18.8033199 7.10962 24.7970024 7.10962 23.5954753 9.88502 18.3695902 9.86602 22.5864956 15.80002 27.1839111 15.80002 24.059901 12.36622 25.9805902 12.36622zM40.5715493 9.77912C40.0192216 9.77912 39.5797115 10.01132 39.2536169 10.47592 38.9588162 10.88772 38.8115155 11.37872 38.8115155 11.94892 38.8115155 12.51392 38.9616068 13.00752 39.2613905 13.42992 39.5874851 13.89992 40.0349682 14.13452 40.6032419 14.13452 41.1555696 14.13452 41.6002622 13.91032 41.9371203 13.46152 42.2526507 13.03912 42.4105155 12.54032 42.4105155 11.96472 42.4105155 11.39992 42.2683973 10.91672 41.9843601 10.51552 41.6371372 10.02472 41.1661338 9.77912 40.5715493 9.77912M44.4783061 7.12612L42.2843432 7.12612C42.0790392 6.23392 41.5739514 5.78772 40.7688804 5.78772 39.9165696 5.78772 39.3114209 6.31312 38.9536338 7.36372 38.8063331 7.79132 38.6879345 8.43812 38.5984378 9.30392 38.9456608 8.83392 39.3154074 8.49612 39.7074784 8.29032 40.09935 8.08432 40.5715493 7.98152 41.1240764 7.98152 42.2078027 7.98152 43.0786507 8.36672 43.7364209 9.13752 44.362698 9.86632 44.6756372 10.77952 44.6756372 11.87752 44.6756372 13.18172 44.2546642 14.22972 43.4129176 15.02152 42.6552858 15.73432 41.7447723 16.09072 40.6821743 16.09072 39.3191946 16.09072 38.2589885 15.57472 37.5013568 14.54232 36.743725 13.51032 36.3650088 12.07032 36.3650088 10.22252 36.3650088 8.24812 36.7700358 6.70112 37.5802892 5.58192 38.3642318 4.49972 39.435002 3.95832 40.7926 3.95832 42.0710662 3.95832 43.049948 4.38872 43.7286473 5.24932 44.1179277 5.74552 44.3678804 6.37112 44.4783061 7.12612M49.5610963 9.77912C49.0087686 9.77912 48.5692584 10.01132 48.2431639 10.47592 47.9483632 10.88772 47.8010625 11.37872 47.8010625 11.94892 47.8010625 12.51392 47.9511537 13.00752 48.2509375 13.42992 48.5770321 13.89992 49.0245152 14.13452 49.5927889 14.13452 50.1451166 14.13452 50.5898091 13.91032 50.9266672 13.46152 51.2421976 13.03912 51.4000625 12.54032 51.4000625 11.96472 51.4000625 11.39992 51.2579443 10.91672 50.9739071 10.51552 50.6266841 10.02472 50.1556807 9.77912 49.5610963 9.77912M53.467853 7.12612L51.2738902 7.12612C51.0685861 6.23392 50.5634983 5.78772 49.7584274 5.78772 48.9061166 5.78772 48.3009679 6.31312 47.9431807 7.36372 47.7958801 7.79132 47.6774814 8.43812 47.5879848 9.30392 47.9352078 8.83392 48.3049544 8.49612 48.6970253 8.29032 49.088897 8.08432 49.5610963 7.98152 50.1136233 7.98152 51.1973497 7.98152 52.0681976 8.36672 52.7259679 9.13752 53.3522449 9.86632 53.6651841 10.77952 53.6651841 11.87752 53.6651841 13.18172 53.2442111 14.22972 52.4024645 15.02152 51.6448328 15.73432 50.7343193 16.09072 49.6717213 16.09072 48.3087416 16.09072 47.2485355 15.57472 46.4909037 14.54232 45.733272 13.51032 45.3545557 12.07032 45.3545557 10.22252 45.3545557 8.24812 45.7595828 6.70112 46.5698361 5.58192 47.3537787 4.49972 48.424549 3.95832 49.782147 3.95832 51.0606132 3.95832 52.0394949 4.38872 52.7181943 5.24932 53.1074747 5.74552 53.3574274 6.37112 53.467853 7.12612"/>
  </g>
</svg>
