<svg xmlns="http://www.w3.org/2000/svg" width="59" height="20" viewBox="0 0 59 20">
  <g fill="none" fill-rule="evenodd">
    <rect width="59" height="20" fill="#EB0000" rx="2"/>
    <path fill="#FFF" fill-rule="nonzero" d="M9.85575068,9.605046 L15.0288786,9.605046 L13.9879452,14.582072 C13.2892006,15.0179925 12.5343784,15.3560853 11.7444164,15.586972 C10.8672291,15.8599618 9.95403152,15.9986731 9.03562078,15.998428 C7.60564283,15.998428 6.50950721,15.6740113 5.74721392,15.025178 C4.70627851,14.138962 4.18581081,12.8544827 4.18581081,11.17174 C4.18320739,10.0554717 4.41145082,8.95080249 4.85611061,7.927574 C5.32809166,6.76346772 6.12148206,5.75875902 7.14301041,5.031562 C8.17029725,4.33399169 9.38847528,3.9744902 10.6285709,4.002924 C11.963911,4.002924 13.0350746,4.31415267 13.8420618,4.93661 C14.6490489,5.55906733 15.1839742,6.46637933 15.4468378,7.658546 L13.2309075,7.911746 C13.083171,7.32983902 12.7527721,6.81106253 12.2885439,6.432092 C11.8140884,6.08683394 11.2378961,5.91130164 10.6522228,5.9336 C9.04957495,5.90708613 7.60220103,6.89109263 7.03260865,8.394418 C6.66404146,9.26206562 6.47876746,10.1969667 6.48848514,11.14009 C6.48848514,12.115982 6.70928931,12.8373473 7.15089767,13.304186 C7.59250602,13.7710247 8.23914735,14.0044467 9.09082166,14.004452 C9.62118824,14.0016526 10.1488566,13.9284849 10.6601021,13.786852 C11.1395109,13.6632083 11.6046884,13.4895013 12.0480153,13.268576 L12.4028803,11.543628 L9.45357,11.543628 L9.85575068,9.605046 Z M15.4581874,15.800612 L17.8712615,4.20074 L26.443204,4.20074 L26.0410253,6.139328 L19.8506098,6.139328 L19.298603,8.774222 L25.2839776,8.774222 L24.8817989,10.7128 L18.8964263,10.7128 L18.1709256,13.862016 L24.8975715,13.862016 L24.4875055,15.800604 L15.4581874,15.800612 Z M27.6295525,15.800612 L24.5540639,15.800612 L29.6562184,9.929462 L26.7857648,4.20074 L29.2698123,4.20074 L30.3974917,6.376706 C30.4342922,6.45583267 30.6918977,6.991252 31.1703079,7.982964 C31.209559,8.05160935 31.2438202,8.12300824 31.2728244,8.196604 C31.9142102,7.41061467 32.4530776,6.76705667 32.8894264,6.26593 L34.7110634,4.20074 L37.6998041,4.20074 L32.4083871,10.309266 L35.2551869,15.800612 L32.5739917,15.800612 L31.7065462,14.051928 C31.2544201,13.1287867 30.9547566,12.466766 30.8075556,12.065866 C30.3121252,12.7359396 29.7830905,13.380328 29.2224967,13.99654 L27.6295525,15.800612 Z"/>
  </g>
</svg>
