<svg xmlns="http://www.w3.org/2000/svg" width="59" height="20" viewBox="0 0 59 20">
  <g fill="none" fill-rule="evenodd">
    <rect width="59" height="20" fill="#EB0000" rx="2"/>
    <path fill="#FFF" fill-rule="nonzero" d="M44.7676792 11.204296L44.7676792 13.158 43.3171283 13.158 43.3171283 15.8 41.0703445 15.8 41.0703445 13.158 36.2614458 13.158 36.2614458 10.990626 41.1885917 4.235352 43.3171183 4.235352 43.3171183 11.204296 44.7676792 11.204296zM41.1176521 11.22793L41.1176521 6.9248 38.1534782 11.22793 41.1176521 11.22793zM53.0689333 4.235352L53.0689333 6.292 48.4255915 6.292 47.928935 8.89454C48.4815831 8.30559983 49.2595666 7.9829807 50.065345 8.0086 50.8609852 7.99115093 51.6408868 8.23254026 52.2884729 8.696686 53.2238767 9.387702 53.6916245 10.437116 53.6917162 11.844928 53.6917162 13.226568 53.192432 14.3208387 52.1938636 15.12774 51.4044028 15.7646802 50.41586 16.1009145 49.4031238 16.076958 48.1838197 16.076958 47.2036463 15.748638 46.4626036 15.091998 45.721561 14.4355527 45.3300169 13.5483133 45.2879715 12.43028L47.5505158 12.43028C47.5760934 12.8074072 47.7133506 13.1682738 47.9446876 13.466608 48.3070836 13.890556 48.8350073 14.1358307 49.3916412 14.138866 49.948275 14.1419014 50.4788245 13.9023987 50.8457914 13.482428 51.1929501 13.0390613 51.3742667 12.4876344 51.3582144 11.924028 51.3873252 11.3437419 51.1957167 10.7740178 50.8221416 10.330082 50.4580033 9.92898937 49.9354968 9.71035263 49.3952405 9.733012 48.6927953 9.7196684 48.0405667 10.0971127 47.7003021 10.713872L45.6427269 10.682232 46.7385243 4.235358 53.0689333 4.235352z"/>
    <polygon fill="#FFF" fill-rule="nonzero" points="9.22 4.2 13.276 4.2 8.258 15.8 4.185 15.8"/>
    <path fill="#FFF" fill-rule="nonzero" d="M25.9805304,12.366254 C26.3470525,12.3662563 26.6789963,12.1490854 26.8268376,11.812566 L30.1191233,4.2 L15.9841006,4.2 L10.9660669,15.8 L15.0044375,15.8 L18.8032143,7.1096 L24.7969426,7.1096 L23.5955451,9.88506 L18.3696101,9.866038 L22.5865096,15.8 L27.1837955,15.8 L24.0598751,12.36625 L25.9805304,12.366254 Z"/>
  </g>
</svg>
