<svg xmlns="http://www.w3.org/2000/svg" width="59" height="20" viewBox="0 0 59 20">
  <g fill="none" fill-rule="evenodd">
    <rect width="59" height="20" fill="#EB0000" rx="2"/>
    <path fill="#FFF" fill-rule="nonzero" d="M36.5752342,7.897656 C36.5712206,7.04969709 36.8152015,6.21918398 37.2769574,5.508984 C37.9915272,4.475384 39.0663344,3.958584 40.5013792,3.958584 C41.6050592,3.958584 42.4958549,4.24068067 43.1737662,4.804874 C43.8878255,5.3811619 44.2930271,6.25873983 44.269466,7.17792 C44.2833784,7.71001427 44.1334313,8.23347027 43.8400616,8.676944 C43.5638908,9.08853308 43.1522582,9.38956065 42.6772035,9.527344 C43.267426,9.6502382 43.7912254,9.98846548 44.1472204,10.476562 C44.5160677,10.9947197 44.7057793,11.6197603 44.6873893,12.25625 C44.7161558,13.3364262 44.2516281,14.3706265 43.4260411,15.06445 C42.6482085,15.73945 41.6654067,16.07695 40.4776357,16.07695 C39.1898132,16.07695 38.1689251,15.70514 37.4149716,14.96152 C36.6606925,14.2179653 36.2835855,13.2133427 36.2836506,11.947652 L36.2836506,11.797452 L38.4987976,11.797452 C38.4987976,12.5093667 38.6669775,13.059106 39.0033373,13.44667 C39.3673933,13.8463254 39.8916545,14.0599413 40.430336,14.028116 C41.0452436,14.028116 41.5182495,13.8462147 41.8493538,13.482412 C42.1513882,13.1467637 42.3148552,12.7083953 42.3065878,12.25625 C42.3295028,11.7393699 42.1144043,11.2405977 41.7232134,10.903516 C41.4026201,10.629492 40.9085915,10.4923827 40.2411274,10.492188 C40.0541402,10.4921562 39.8673005,10.5027196 39.6815004,10.523828 L39.6815004,8.823242 C39.8181466,8.83398467 39.9494721,8.839258 40.0754769,8.839062 C41.399894,8.839062 42.0621026,8.34596333 42.0621026,7.359766 C42.0772103,6.96363648 41.9188236,6.58070644 41.6286121,6.31172 C41.3130616,6.03577439 40.9035349,5.89269233 40.4854173,5.912306 C40.0131009,5.883893 39.5530192,6.06972518 39.232048,6.418556 C38.9375383,6.756056 38.7798728,7.24909 38.7590514,7.897658 L36.5752342,7.897656 Z"/>
    <polygon fill="#FFF" fill-rule="nonzero" points="9.221 4.2 13.277 4.2 8.259 15.8 4.186 15.8"/>
    <polygon fill="#FFF" fill-rule="nonzero" points="15.948 4.2 30.343 4.2 28.853 7.645 18.572 7.645 16.531 12.355 26.816 12.355 25.326 15.8 10.931 15.8"/>
  </g>
</svg>
