<svg xmlns="http://www.w3.org/2000/svg" width="59" height="20" viewBox="0 0 59 20">
  <g fill="none" fill-rule="evenodd">
    <rect width="59" height="20" fill="#EB0000" rx="2"/>
    <path fill="#FFF" fill-rule="nonzero" d="M44.435274,7.1224 L42.2436811,7.1224 C42.0387092,6.231384 41.5341695,5.78581133 40.730062,5.785682 C39.8786508,5.785682 39.2742543,6.31035667 38.9168724,7.359706 C38.7304546,7.99128692 38.611502,8.64096851 38.5620213,9.297792 C38.8506016,8.88098754 39.2291945,8.53489278 39.6695948,8.285292 C40.1093434,8.06868779 40.595039,7.96277087 41.0847198,7.976692 C42.0849798,7.94005388 43.0467437,8.3656978 43.694234,9.131574 C44.3328303,9.89645424 44.6669381,10.8712889 44.6322642,11.868488 C44.6322642,13.1710213 44.2118148,14.2178313 43.3709159,15.008918 C42.637492,15.7116631 41.6571921,16.0954118 40.6432483,16.076692 C39.2820425,16.076692 38.2230669,15.561262 37.4663215,14.530402 C36.7095123,13.4993473 36.3311077,12.0610007 36.3311077,10.215362 C36.3311077,8.24309533 36.7357906,6.697978 37.5451563,5.58001 C38.2708497,4.52789429 39.4790841,3.91720575 40.7536161,3.95833 C42.0307323,3.95833 43.0082779,4.388148 43.686253,5.247784 C44.0964273,5.79538125 44.3548511,6.44215262 44.435274,7.1224 L44.435274,7.1224 Z M40.5328784,9.7724 C40.0036364,9.76045112 39.5057981,10.023694 39.2164429,10.468494 C38.9161398,10.8988731 38.7613969,11.414584 38.7749714,11.939784 C38.7639801,12.4682344 38.92137,12.9864117 39.2242305,13.418886 C39.5183393,13.8716775 40.0259883,14.1383848 40.5644135,14.122988 C41.0923465,14.1350424 41.591721,13.8830084 41.8968109,13.450528 C42.2154117,13.0186798 42.3818112,12.4927686 42.3698075,11.955606 C42.384352,11.4399854 42.2352822,10.9330573 41.9441026,10.50795 C41.6312872,10.0353177 41.0981264,9.75742673 40.5328784,9.7724 L40.5328784,9.7724 Z"/>
    <polygon fill="#FFF" fill-rule="nonzero" points="9.221 4.2 13.277 4.2 8.259 15.8 4.186 15.8"/>
    <polygon fill="#FFF" fill-rule="nonzero" points="15.948 4.2 30.343 4.2 28.853 7.645 18.572 7.645 16.531 12.355 26.816 12.355 25.326 15.8 10.931 15.8"/>
  </g>
</svg>
