<svg xmlns="http://www.w3.org/2000/svg" width="59" height="20" viewBox="0 0 59 20">
  <g fill="none" fill-rule="evenodd">
    <rect width="59" height="20" fill="#EB0000" rx="2"/>
    <path fill="#FFF" fill-rule="nonzero" d="M44.4352759 7.12242L42.2436811 7.12242C42.0387119 6.231404 41.5341722 5.78583133 40.730062 5.785702 39.8786508 5.785702 39.2742543 6.31037667 38.9168724 7.359726 38.7304546 7.99130692 38.611502 8.64098851 38.5620213 9.297812 38.8506016 8.88100754 39.2291945 8.53491278 39.6695948 8.285312 40.1093434 8.06870779 40.595039 7.96279087 41.0847198 7.976712 42.0849798 7.94007388 43.0467437 8.3657178 43.694234 9.131594 44.3328303 9.89647424 44.6669381 10.8713089 44.6322642 11.868508 44.6322642 13.1710413 44.2118148 14.2178513 43.3709159 15.008938 42.637492 15.7116831 41.6571921 16.0954318 40.6432483 16.076712 39.2820425 16.076712 38.2230669 15.561282 37.4663215 14.530422 36.7095123 13.4993673 36.3311077 12.0610207 36.3311077 10.215382 36.3311077 8.24311533 36.7357906 6.697998 37.5451563 5.58003 38.2708502 4.52791487 39.4790843 3.91722649 40.7536161 3.95835 42.0307323 3.95835 43.0082779 4.388168 43.686253 5.247804 44.096428 5.79540104 44.3548525 6.44217242 44.4352759 7.12242zM40.5328804 9.77242C40.0036384 9.76047112 39.5058001 10.023714 39.2164449 10.468514 38.9161418 10.8988931 38.7613989 11.414604 38.7749734 11.939804 38.7639821 12.4682544 38.921372 12.9864317 39.2242325 13.418906 39.5183428 13.8716938 40.0259905 14.1383979 40.5644135 14.123 41.0923465 14.1350544 41.591721 13.8830204 41.8968109 13.45054 42.2154117 13.0186918 42.3818112 12.4927806 42.3698075 11.955618 42.384352 11.4399974 42.2352822 10.9330693 41.9441026 10.507962 41.6312854 10.0353328 41.0981248 9.75744497 40.5328784 9.77242L40.5328804 9.77242zM51.2385819 4.23531L51.2385819 15.79996 48.9366192 15.79996 48.9366192 8.229842 46.224718 8.229842 46.224718 6.552888C46.6885953 6.55014547 47.1504795 6.49172224 47.6005223 6.378864 47.9533987 6.27966374 48.2839127 6.11315017 48.5739804 5.888434 48.9996854 5.56148067 49.286149 5.01043933 49.4333712 4.23531L51.2385819 4.23531z"/>
    <polygon fill="#FFF" fill-rule="nonzero" points="9.221 4.2 13.277 4.2 8.259 15.8 4.186 15.8"/>
    <polygon fill="#FFF" fill-rule="nonzero" points="15.948 4.2 30.343 4.2 28.853 7.645 18.572 7.645 16.531 12.355 26.816 12.355 25.326 15.8 10.931 15.8"/>
  </g>
</svg>
