<svg xmlns="http://www.w3.org/2000/svg" width="59" height="20" viewBox="0 0 59 20">
  <g fill="none" fill-rule="evenodd">
    <rect width="59" height="20" fill="#EB0000" rx="2"/>
    <path fill="#FFF" fill-rule="nonzero" d="M44.6651926 13.74336L44.6651926 15.8 36.3639324 15.8C36.3611989 15.1884131 36.4638993 14.5809589 36.6674934 14.004492 36.8536771 13.4625258 37.1442983 12.9626038 37.5228041 12.5332 37.8282179 12.1966284 38.1618428 11.8869646 38.5200097 11.607614 38.9010421 11.3070287 39.6591814 10.7559873 40.7944278 9.95449 41.2419567 9.66861868 41.6345135 9.30420776 41.9532994 8.878708 42.1771133 8.53601361 42.292523 8.13346718 42.284403 7.723826 42.3040012 7.27082377 42.1438512 6.82849586 41.8390387 6.493748 41.5336098 6.17641227 41.1076067 6.00513474 40.6682994 6.023044 39.4805284 6.023044 38.8682486 6.88001 38.8314599 8.593942L36.6162093 8.593942 36.6162093 8.34082C36.6162093 6.93808533 37.0077533 5.85175733 37.7908415 5.081836 38.5528092 4.333008 39.5382381 3.958594 40.7471281 3.958594 41.7246629 3.92585256 42.6805174 4.25211337 43.4353794 4.876172 44.2184676 5.54062533 44.6100116 6.43444067 44.6100116 7.557618 44.6279757 8.49011417 44.2927096 9.39472695 43.6718837 10.088868 43.4972376 10.2918051 43.3046193 10.4784413 43.0963925 10.646486 42.9177009 10.78633 42.4473228 11.12253 41.685258 11.655086 40.9599833 12.1613367 40.4409746 12.5489667 40.1282321 12.817976 39.8071466 13.0957909 39.5152662 13.4058758 39.2571609 13.743376L44.6651926 13.74336zM53.0689333 4.235352L53.0689333 6.292 48.4255915 6.292 47.928935 8.89454C48.4815831 8.30559983 49.2595666 7.9829807 50.065345 8.0086 50.8609852 7.99115093 51.6408868 8.23254026 52.2884729 8.696686 53.2238767 9.387702 53.6916245 10.437116 53.6917162 11.844928 53.6917162 13.226568 53.192432 14.3208387 52.1938636 15.12774 51.4044028 15.7646802 50.41586 16.1009145 49.4031238 16.076958 48.1838197 16.076958 47.2036463 15.748638 46.4626036 15.091998 45.721561 14.4355527 45.3300169 13.5483133 45.2879715 12.43028L47.5505158 12.43028C47.5760934 12.8074072 47.7133506 13.1682738 47.9446876 13.466608 48.3070836 13.890556 48.8350073 14.1358307 49.3916412 14.138866 49.948275 14.1419014 50.4788245 13.9023987 50.8457914 13.482428 51.1929501 13.0390613 51.3742667 12.4876344 51.3582144 11.924028 51.3873252 11.3437419 51.1957167 10.7740178 50.8221416 10.330082 50.4580033 9.92898937 49.9354968 9.71035263 49.3952405 9.733012 48.6927953 9.7196684 48.0405667 10.0971127 47.7003021 10.713872L45.6427269 10.682232 46.7385243 4.235358 53.0689333 4.235352z"/>
    <polygon fill="#FFF" fill-rule="nonzero" points="9.22 4.2 13.276 4.2 8.258 15.8 4.185 15.8"/>
    <path fill="#FFF" fill-rule="nonzero" d="M25.9805304,12.366254 C26.3470525,12.3662563 26.6789963,12.1490854 26.8268376,11.812566 L30.1191233,4.2 L15.9841006,4.2 L10.9660669,15.8 L15.0044375,15.8 L18.8032143,7.1096 L24.7969426,7.1096 L23.5955451,9.88506 L18.3696101,9.866038 L22.5865096,15.8 L27.1837955,15.8 L24.0598751,12.36625 L25.9805304,12.366254 Z"/>
  </g>
</svg>
