<svg xmlns="http://www.w3.org/2000/svg" width="59" height="20" viewBox="0 0 59 20">
  <g fill="none" fill-rule="evenodd">
    <rect width="59" height="20" fill="#EB0000" rx="2"/>
    <path fill="#FFF" fill-rule="nonzero" d="M42.2594177 4.235106L42.2594177 15.79995 39.957455 15.79995 39.957455 8.229834 37.2455539 8.229834 37.2455539 6.55288C37.7093676 6.55013945 38.171188 6.49171608 38.6211648 6.378856 38.9740858 6.27961695 39.3046568 6.11310811 39.5948183 5.888426 40.0205232 5.56147267 40.3069224 5.010366 40.4540157 4.235106L42.2594177 4.235106zM49.94703 4.235106L49.94703 15.79995 47.6450673 15.79995 47.6450673 8.229834 44.9331662 8.229834 44.9331662 6.55288C45.3969799 6.55013945 45.8588003 6.49171608 46.3087771 6.378856 46.6616981 6.27961695 46.9922691 6.11310811 47.2824306 5.888426 47.7081355 5.56147267 47.9945347 5.010366 48.141628 4.235106L49.94703 4.235106z"/>
    <polygon fill="#FFF" fill-rule="nonzero" points="9.221 4.2 13.277 4.2 8.259 15.8 4.186 15.8"/>
    <polygon fill="#FFF" fill-rule="nonzero" points="15.948 4.2 30.343 4.2 28.853 7.645 18.572 7.645 16.531 12.355 26.816 12.355 25.326 15.8 10.931 15.8"/>
  </g>
</svg>
