<svg xmlns="http://www.w3.org/2000/svg" width="59" height="20" viewBox="0 0 59 20">
  <g fill="none" fill-rule="evenodd">
    <rect width="59" height="20" fill="#EB0000" rx="2"/>
    <path fill="#FFF" fill-rule="nonzero" d="M6.60642932,4.18938 L4.18581081,15.801156 L6.60642932,15.801156 L9.04362764,4.18938 L6.60642932,4.18938 Z M18.8421523,6.501754 L19.4224352,4.555366 C19.1018965,4.44446067 18.8504395,4.36405467 18.6680644,4.314148 C18.4856893,4.26424133 18.3116034,4.222652 18.1458068,4.18938 C17.805738,4.12500682 17.4626612,4.07781403 17.1178733,4.04798 C16.7089076,4.00916267 16.3386295,3.98975467 16.0070389,3.989756 C15.0874131,3.97830768 14.1737288,4.13909597 13.3128716,4.46387 C11.7327944,5.05463084 10.4804841,6.2960447 9.87260753,7.8742 C9.54346272,8.72512229 9.38023759,9.63155027 9.39179939,10.544242 C9.39179939,12.2743753 9.88366073,13.6440553 10.8673834,14.653282 C11.7737377,15.5405273 13.0669446,15.984148 14.7470042,15.984144 C15.1379975,15.9815487 15.5284213,15.9537649 15.9158659,15.900964 C16.3414101,15.8455107 16.7641889,15.7734227 17.1842025,15.6847 L17.548954,13.4555 C17.1695902,13.6822327 16.7664852,13.8663373 16.3469347,14.004482 C15.9733054,14.1174945 15.5848816,14.1735723 15.1946547,14.17084 C14.7199586,14.177424 14.248906,14.0868566 13.8102596,13.904668 C13.4036888,13.7329345 13.0409824,13.4713556 12.7491665,13.139422 C12.4461381,12.7890042 12.2151235,12.3819456 12.0694028,11.941646 C11.9039162,11.4429792 11.8226616,10.9200653 11.8289977,10.394518 C11.8212528,9.76071294 11.9337852,9.13121878 12.1605897,8.539628 C12.3691199,7.99903947 12.6850008,7.50663017 13.0890424,7.092314 C13.4918726,6.68423131 13.9745118,6.36421318 14.5065971,6.152392 C15.0846394,5.92480753 15.7011709,5.8118212 16.3220709,5.819686 C16.7467637,5.81487648 17.170293,5.86520124 17.5821196,5.969408 C18.0217762,6.09584289 18.4447935,6.27455945 18.8421682,6.501754 L18.8421523,6.501754 Z M21.2627808,4.18938 L18.7758431,15.801156 L20.997512,15.801156 L22.8544174,6.901012 L22.8709952,6.901012 L25.2916137,15.801156 L28.2759493,15.801156 L30.7628791,4.18938 L28.5909535,4.18938 L26.7008885,13.006344 L26.6677309,13.006344 L24.197375,4.18938 L21.2627808,4.18938 Z"/>
  </g>
</svg>
