<svg xmlns="http://www.w3.org/2000/svg" width="59" height="20" viewBox="0 0 59 20">
  <g fill="none" fill-rule="evenodd">
    <rect width="59" height="20" fill="#EB0000" rx="2"/>
    <path fill="#FFF" fill-rule="nonzero" d="M14.4147843,11.156384 C14.4570608,11.069113 14.5430523,11.011591 14.6395982,11.006 C14.7395155,11.006 14.7894742,11.0999893 14.7894742,11.287968 L14.7894742,11.325568 L13.8902225,15.874656 C13.8402585,16.012508 13.7590757,16.081434 13.6466741,16.081434 C13.5950772,16.0888295 13.5430213,16.0714183 13.5061666,16.0344383 C13.4693119,15.9974583 13.4519601,15.9452257 13.4593311,15.893454 L13.4405947,15.705476 C13.4031217,15.367112 13.2407574,15.1979307 12.9535018,15.197932 L12.8410949,15.197932 L12.7474244,15.216732 L12.6350174,15.254332 L12.1853916,15.44231 C11.291506,15.8247714 10.3282041,16.016805 9.35649905,16.006248 C7.80778227,16.006248 6.55882337,15.5425667 5.60962233,14.615204 C4.6604213,13.6878413 4.18581745,12.4659733 4.18581081,10.9496 C4.16745988,9.11344698 4.90651788,7.35138647 6.22785861,6.080954 C7.49400099,4.75513211 9.2501119,4.01356865 11.0800645,4.031984 C12.028255,4.03462838 12.9634828,4.25315933 13.8152845,4.671112 L14.5459258,5.009474 C14.6540854,5.0508749 14.7676899,5.07620876 14.8831447,5.084674 C15.1329379,5.084674 15.3452608,4.92175867 15.5201134,4.595928 L15.7074564,4.21997 L15.7824023,4.14477 L15.9135438,4.10717 C16.000035,4.10604109 16.0731312,4.17123573 16.0821542,4.257554 L16.1008907,4.295154 L16.1008907,4.370354 L15.0517551,8.88184 L15.0142821,9.126212 L14.9206216,9.2766 C14.8705257,9.31365058 14.8129901,9.33931166 14.7520132,9.3518 L14.6583407,9.3142 L14.6021312,9.239 L14.6021312,8.581074 C14.6314989,7.53089356 14.3008473,6.50240017 13.6654106,5.6674 C13.0409275,4.865352 12.2728179,4.46433 11.3610819,4.464334 C10.1246066,4.464334 9.05050167,5.197452 8.13876696,6.663688 C7.22703225,8.129924 6.77116224,9.853064 6.77115693,11.833108 C6.77115693,14.339508 7.64542796,15.5927007 9.39397003,15.592686 C10.6304453,15.592686 11.5921439,15.1979307 12.279066,14.40842 C12.8836585,13.7297955 13.4289648,13.0002554 13.908957,12.227864 L14.0775674,11.889502 L14.3211158,11.344362 L14.3585888,11.287962 L14.3773253,11.231562 L14.4147843,11.156384 Z M18.0117911,12.453438 C17.9109976,12.8851353 17.8545004,13.3260497 17.8431826,13.76929 C17.8327333,14.1588162 17.9405381,14.5423277 18.1523008,14.868966 C18.3070155,15.1455695 18.5950559,15.3204069 18.9110428,15.329514 L19.1171202,15.348314 L19.1733297,15.348314 C19.298225,15.385914 19.3606726,15.4548393 19.3606726,15.55509 C19.3403892,15.6226622 19.3087057,15.6862433 19.2670001,15.743068 L19.1358607,15.799468 L15.0704896,15.799468 C15.0188929,15.8068642 14.9668369,15.7894535 14.9299821,15.7524738 C14.8931273,15.7154941 14.8757754,15.6632616 14.8831467,15.61149 L14.9018831,15.5175 C14.9305857,15.4894259 14.9619589,15.464239 14.9955536,15.4423 C15.0473604,15.4122142 15.1047286,15.3930246 15.1641641,15.3859 L15.3327745,15.3483 C15.8898243,15.2338521 16.3879866,14.9239445 16.7378535,14.474198 C17.1000537,14.0167807 17.3685801,13.3619873 17.5434327,12.509818 L18.9485078,5.6674 L18.7236958,5.329038 C18.4930916,4.94802625 18.0978071,4.69752667 17.6558357,4.652314 L17.5808898,4.652314 C17.3560758,4.652314 17.2436695,4.57712267 17.2436709,4.42674 C17.2436722,4.27635733 17.3810578,4.201166 17.6558277,4.201166 L20.9530806,4.201166 L25.3556586,12.227866 L26.4422552,7.152434 L26.4984647,6.870466 C26.5259616,6.74028705 26.5447401,6.60840671 26.5546742,6.47571 C26.5671651,6.325326 26.5734106,6.18747467 26.5734106,6.062156 C26.5734106,5.285172 26.2299469,4.82149067 25.5430195,4.671112 L25.3182076,4.633512 L25.2057986,4.577112 L25.1495892,4.426728 C25.1495892,4.276344 25.2182816,4.20115267 25.3556666,4.201154 L29.2711557,4.201154 C29.341918,4.19147091 29.4105747,4.22974328 29.4397642,4.295144 L29.4585007,4.389134 C29.4637845,4.44902825 29.4449778,4.50855545 29.4062695,4.55445671 C29.3675613,4.60035796 29.3121664,4.62882098 29.2524232,4.633506 L29.0838148,4.671106 C28.7149182,4.68862274 28.3637106,4.83490109 28.0908906,5.08466 C27.7604162,5.35160779 27.4972708,5.69292412 27.3227804,6.080948 L27.1729045,6.438108 L27.041765,6.832864 L24.9997132,16.025038 L24.9809767,16.043838 L24.9809767,16.081438 C24.9295398,16.144522 24.855607,16.1849854 24.7748993,16.194224 C24.709758,16.1986932 24.6466316,16.1705385 24.6062908,16.119024 C24.5688179,16.0688907 24.4689012,15.8934433 24.3065409,15.592682 L19.3231936,6.306528 L18.0117911,12.453438 Z M27.8848112,15.799462 C27.7099559,15.799462 27.622529,15.7368027 27.6225303,15.611484 C27.6184494,15.5437648 27.6421717,15.4773208 27.6881798,15.4276061 C27.7341878,15.3778914 27.7984713,15.3492393 27.8660787,15.348314 L28.2220321,15.291914 C28.8839829,15.20419 29.3086287,14.75304 29.4959697,13.938464 L31.0509246,6.513296 C31.1008886,6.199996 31.1352348,5.96502267 31.1539633,5.808376 C31.1726919,5.65172933 31.1820601,5.54834067 31.1820681,5.49821 C31.1820681,5.072122 30.9447658,4.80268533 30.4701613,4.6899 L30.4139519,4.6899 C30.1766483,4.63976667 30.0579972,4.55204333 30.0579985,4.42673 C30.0579985,4.276346 30.2016289,4.20115467 30.4888898,4.201156 L35.3223612,4.201156 C35.4222785,4.201156 35.4722371,4.263816 35.4722371,4.389136 L35.4722371,4.426736 C35.4722371,4.57712 35.3598308,4.65231133 35.1350182,4.65231 L34.9102063,4.67111 L34.7228614,4.67111 C34.2107866,4.67111 33.8798132,5.040802 33.7299412,5.780186 L32.1187828,13.33694 C32.0813098,13.499856 32.0438415,13.7222973 32.0063778,14.004264 C31.9781889,14.1880221 31.9594277,14.3731121 31.9501683,14.558802 C31.9501683,15.085146 32.2686527,15.3483167 32.9056215,15.348314 C33.7798965,15.348314 34.7134938,14.9817553 35.7064133,14.248638 C36.6400877,13.5861526 37.3910225,12.6968493 37.8889628,11.663928 L37.9451723,11.532342 L38.0575773,11.325566 L38.2261857,11.250366 C38.351081,11.250366 38.4135293,11.3067593 38.4135306,11.419546 L38.3385847,11.66392 L36.8023662,15.799456 L27.8848112,15.799462 Z"/>
  </g>
</svg>
