<svg xmlns="http://www.w3.org/2000/svg" width="59" height="20" viewBox="0 0 59 20">
  <g fill="none" fill-rule="evenodd">
    <rect width="59" height="20" fill="#EB0000" rx="2"/>
    <path fill="#FFF" fill-rule="nonzero" d="M42.2922803 4.235352L42.2922803 15.8 39.9903176 15.8 39.9903176 8.230078 37.2784185 8.230078 37.2784185 6.553126C37.7422643 6.55038453 38.2041169 6.49196123 38.6541271 6.379102 39.0069942 6.27980059 39.3375217 6.11329692 39.6276829 5.888672 40.0533878 5.56171867 40.3398169 5.010612 40.48697 4.235352L42.2922803 4.235352zM45.5875559 7.897852C45.5834176 7.04982882 45.8273691 6.21922709 46.2891775 5.508984 47.0038443 4.475384 48.078619 3.958584 49.5135016 3.958584 50.6171817 3.958584 51.5080092 4.24068067 52.1859844 4.804874 52.9000372 5.38118035 53.3052661 6.25874125 53.2817838 7.17793 53.2957257 7.71005605 53.1457032 8.23353947 52.852186 8.676954 52.5760573 9.08858369 52.1644083 9.38962321 51.6893279 9.527354 52.2795437 9.6503972 52.8033567 9.9885874 53.1595442 10.476572 53.5282887 10.9947751 53.7179561 11.619792 53.6996074 12.25626 53.7284182 13.3364451 53.2638822 14.3706639 52.4382592 15.06446 51.6604266 15.73946 50.6776248 16.07696 49.4898538 16.07696 48.2021296 16.07696 47.181209 15.70515 46.427092 14.96153 45.6729099 14.2179753 45.2958355 13.213418 45.2958687 11.947858L45.2958687 11.797458 47.5111134 11.797458C47.5111134 12.5093727 47.6792933 13.059112 48.0156531 13.446676 48.3796585 13.846345 48.9038979 14.0599666 49.4425541 14.028122 50.0574617 14.028122 50.5304676 13.8462207 50.8615719 13.482418 51.1636804 13.1468104 51.3271603 12.7084093 51.3188119 12.256246 51.341767 11.7394143 51.1266559 11.2406842 50.7354375 10.903706 50.4148442 10.6294873 49.9208156 10.492378 49.2533515 10.492378 49.0663293 10.4922542 48.8794518 10.502818 48.6936269 10.524018L48.6936269 8.823242C48.830273 8.83398467 48.9616636 8.839258 49.0877987 8.839062 50.4122158 8.839062 51.0744244 8.346028 51.0744244 7.35996 51.0894914 6.96376044 50.9310745 6.58077393 50.6408342 6.311718 50.3253222 6.03577264 49.9158254 5.89268879 49.4977371 5.912304 49.0253865 5.88385273 48.5652599 6.06968887 48.2442721 6.418554 47.9498594 6.756054 47.7921939 7.24915267 47.7712755 7.89785L45.5875559 7.897852z"/>
    <polygon fill="#FFF" fill-rule="nonzero" points="9.22 4.2 13.276 4.2 8.258 15.8 4.185 15.8"/>
    <path fill="#FFF" fill-rule="nonzero" d="M25.9805304,12.366254 C26.3470525,12.3662563 26.6789963,12.1490854 26.8268376,11.812566 L30.1191233,4.2 L15.9841006,4.2 L10.9660669,15.8 L15.0044375,15.8 L18.8032143,7.1096 L24.7969426,7.1096 L23.5955451,9.88506 L18.3696101,9.866038 L22.5865096,15.8 L27.1837955,15.8 L24.0598751,12.36625 L25.9805304,12.366254 Z"/>
  </g>
</svg>
