<svg xmlns="http://www.w3.org/2000/svg" width="59" height="20" viewBox="0 0 59 20">
  <g fill="none" fill-rule="evenodd">
    <rect width="59" height="20" fill="#EB0000" rx="2"/>
    <path fill="#FFF" d="M6.09319881,15.8021462 L3.703125,15.8021462 L6.13276957,4.19999981 L11.2848823,4.19999981 C12.1712718,4.19999981 12.8611151,4.29101164 13.354433,4.47303804 C13.8477509,4.65506444 14.2460926,4.9887745 14.5494699,5.47417823 C14.8528472,5.95958197 15.0045336,6.54786136 15.0045336,7.23903406 C15.0045336,8.22566991 14.7090749,9.03950037 14.1181486,9.68054986 C13.5272224,10.3215994 12.6329322,10.718622 11.4352512,10.8716297 C11.7412666,11.1459883 12.0288112,11.5073976 12.2978938,11.9558685 C12.8307826,12.8633624 13.4243381,14.1454422 14.0785779,15.8021462 L11.5143927,15.8021462 C11.3086238,15.1479064 10.9050061,14.126991 10.3035275,12.7393695 C9.97640762,11.9901594 9.62818842,11.4862968 9.2588595,11.2277665 C9.03198601,11.0747588 8.63628238,10.9982561 8.07173674,10.9982561 L7.09829608,10.9982561 L6.09319881,15.8021462 Z M7.46234706,9.25714275 L8.72861133,9.25714275 C10.0107103,9.25714275 10.8614731,9.18064005 11.2809253,9.02763235 C11.7003774,8.87462465 12.0288114,8.63456445 12.2662371,8.30744454 C12.5036629,7.98032464 12.622374,7.63738149 12.622374,7.27860482 C12.622374,6.85651462 12.4509024,6.53995172 12.1079541,6.32890662 C11.896909,6.20227956 11.4405308,6.13896698 10.7388059,6.13896698 L8.1113075,6.13896698 L7.46234706,9.25714275 Z M22.3757745,4.19999981 L24.7183634,4.19999981 L23.2542454,11.2277665 C22.8638119,13.0902395 22.3520352,14.3512151 21.7188999,15.010731 C21.0857646,15.670247 20.1123337,16 18.7985779,16 C17.685315,16 16.8516994,15.7441117 16.297706,15.2323273 C15.7437126,14.7205429 15.4667201,14.0241045 15.4667201,13.1429912 C15.4667201,12.9583268 15.4799102,12.7525609 15.5062908,12.5256874 L17.7143392,12.2882629 C17.6826824,12.5204125 17.6668542,12.7129882 17.6668542,12.8659959 C17.6668542,13.2353249 17.7723752,13.5175934 17.9834203,13.7128102 C18.1944654,13.9080269 18.5189424,14.0056338 18.956861,14.0056338 C19.5688918,14.0056338 19.9988897,13.8262481 20.2468677,13.4674715 C20.4315322,13.1931128 20.6557642,12.4201717 20.9195706,11.148625 L22.3757745,4.19999981 Z"/>
  </g>
</svg>
