<svg xmlns="http://www.w3.org/2000/svg" width="59" height="20" viewBox="0 0 59 20">
  <g fill="none" fill-rule="evenodd">
    <rect width="59" height="20" fill="#EB0000" rx="2"/>
    <path fill="#FFF" fill-rule="nonzero" d="M36.5612795 12.8967L38.7371038 12.8967C38.9156 13.79338 39.4332453 14.2416873 40.2900396 14.241622 40.7360488 14.2574554 41.1666519 14.0767809 41.4686623 13.74709 41.7707635 13.417598 42.0033086 12.9047727 42.1662974 12.208614 42.2797699 11.7114215 42.3562198 11.2064471 42.3950141 10.697872 42.114732 11.1249311 41.744745 11.4853064 41.3109927 11.753732 40.894693 11.9731119 40.4289346 12.0807623 39.958936 12.066232 39.1595765 12.0820732 38.379476 11.8192948 37.7515746 11.322678 37.3061348 10.9624445 36.9556276 10.4980102 36.7308168 9.970138 36.4833171 9.40160107 36.3583455 8.7870034 36.3640919 8.166622 36.3640919 6.86408867 36.8082244 5.80940133 37.6964893 5.00256 38.4425005 4.3124622 39.4254505 3.93835538 40.4399235 3.95842 41.0740659 3.95285961 41.6997002 4.1050506 42.2608987 4.401388 42.8228338 4.70097773 43.3042564 5.13243943 43.664142 5.659006 44.331606 6.62404467 44.6653706 7.979318 44.6654357 9.724826 44.6654357 11.338498 44.3711208 12.7148653 43.7824908 13.853928 43.0149752 15.335764 41.8534825 16.0767147 40.2980126 16.07678 39.2624563 16.07678 38.4070891 15.7893453 37.7319112 15.214476 37.0505857 14.6284001 36.6294439 13.7945663 36.5612795 12.8967zM40.3926278 5.91213C39.9033451 5.90964098 39.4404773 6.13457573 39.1390652 6.52131 38.7865233 6.96470792 38.6046803 7.52054416 38.6267399 8.087326 38.6179155 8.5670645 38.7464783 9.03926799 38.9971642 9.447872 39.2776274 9.92513151 39.7773852 10.2300299 40.3287402 10.2602562 40.8800952 10.2904824 41.409984 10.0420311 41.7405984 9.598272 42.0552232 9.16778903 42.2188227 8.64483457 42.2058214 8.111162 42.2224166 7.55739914 42.0530157 7.01411269 41.7248339 6.568584 41.4147851 6.14396283 40.9170687 5.89870953 40.3926278 5.91213L40.3926278 5.91213zM49.5451962 3.958418C50.3881437 3.94624718 51.2085343 4.23176795 51.8629255 4.765058 52.525134 5.30294867 53.0060558 6.13094333 53.3056907 7.249042 53.5383921 8.15851732 53.6523099 9.09448088 53.644582 10.033418 53.644582 11.6943513 53.350267 13.0601067 52.761637 14.130684 52.443298 14.7228983 51.9740498 15.2197524 51.4017926 15.570528 50.0395934 16.3562536 48.3355968 16.2178379 47.117099 15.222482 45.929328 14.209982 45.3354425 12.4802947 45.3354425 10.03342 45.3354425 8.29318533 45.6455247 6.89565933 46.2656892 5.840842 46.9343739 4.65966856 48.1915039 3.93808214 49.5451982 3.95842L49.5451962 3.958418zM49.4585758 5.912128C48.7017666 5.912128 48.1867125 6.34982333 47.9134136 7.225214 47.6977447 7.92130733 47.5899721 8.89689333 47.5900956 10.151972 47.5625947 11.0524035 47.6742871 11.9516749 47.9211993 12.817792 48.2050025 13.6877133 48.730565 14.1227393 49.4978866 14.12287 50.1338162 14.12287 50.6068221 13.78537 50.9169043 13.11037 51.2269865 12.43537 51.3820609 11.4043807 51.3821273 10.017402 51.3821273 8.83615267 51.2717594 7.90542333 51.0510237 7.225214 50.7672244 6.34982467 50.2364084 5.91213 49.4585758 5.91213L49.4585758 5.912128z"/>
    <polygon fill="#FFF" fill-rule="nonzero" points="9.22 4.2 13.276 4.2 8.258 15.8 4.185 15.8"/>
    <path fill="#FFF" fill-rule="nonzero" d="M25.9805304,12.366254 C26.3470525,12.3662563 26.6789963,12.1490854 26.8268376,11.812566 L30.1191233,4.2 L15.9841006,4.2 L10.9660669,15.8 L15.0044375,15.8 L18.8032143,7.1096 L24.7969426,7.1096 L23.5955451,9.88506 L18.3696101,9.866038 L22.5865096,15.8 L27.1837955,15.8 L24.0598751,12.36625 L25.9805304,12.366254 Z"/>
  </g>
</svg>
