<svg xmlns="http://www.w3.org/2000/svg" width="48" height="48" viewBox="0 0 48 48">
  <path fill="none" stroke="#000" d="M14,22.5 C18.142,22.5 21.5,25.858 21.5,30 C21.5,34.143 18.142,37.5 14,37.5 C9.858,37.5 6.5,34.143 6.5,30 C6.5,25.858 9.858,22.5 14,22.5 Z M34.001,22.5 C38.144,22.5 41.501,25.858 41.501,30 C41.501,34.143 38.144,37.5 34.001,37.5 C29.859,37.5 26.501,34.143 26.501,30 C26.501,25.858 29.859,22.5 34.001,22.5 Z M14,30 L18.5,18.5 L28.5,18.5 L33,12.5 L26,12.5 M34.001,30 L28.5,18.5 M15,14.5 L20,14.5"/>
</svg>
