<?xml version="1.0" encoding="utf-8"?>
<!-- Generator: Adobe Illustrator 16.0.4, SVG Export Plug-In . SVG Version: 6.00 Build 0)  -->
<!DOCTYPE svg PUBLIC "-//W3C//DTD SVG 1.1//EN" "http://www.w3.org/Graphics/SVG/1.1/DTD/svg11.dtd">
<svg version="1.1" id="Layer_8" xmlns="http://www.w3.org/2000/svg" xmlns:xlink="http://www.w3.org/1999/xlink" x="0px" y="0px"
	 width="226px" height="226px" viewBox="0 0 226 226" enable-background="new 0 0 226 226" xml:space="preserve">
<path d="M113,0C50.592,0,0,50.592,0,113s50.592,113,113,113c62.407,0,113-50.592,113-113S175.407,0,113,0z M192.195,192.196
	C171.041,213.35,142.916,225,113,225c-29.917,0-58.042-11.65-79.196-32.804C12.65,171.042,1,142.916,1,113
	c0-29.917,11.65-58.042,32.804-79.196C54.958,12.65,83.083,1,113,1c29.916,0,58.041,11.65,79.195,32.804
	C213.35,54.958,225,83.084,225,113S213.35,171.042,192.195,192.196z M109.6,8.188h6.8v27h-6.8V8.188z M109.6,190.812h6.8v27h-6.8
	V190.812z M35.131,116.4h-27v-6.8h27V116.4z M217.869,109.6v6.8h-27v-6.8H217.869z M63.539,20.53l13.5,23.382l-5.89,3.4
	l-13.5-23.383L63.539,20.53z M154.852,178.688l13.5,23.383l-5.89,3.4l-13.5-23.383L154.852,178.688z M47.264,154.879l-23.383,13.5
	l-3.399-5.889l23.383-13.5L47.264,154.879z M178.736,71.121l23.383-13.5l3.4,5.889l-23.383,13.5L178.736,71.121z M43.913,77.039
	l-23.383-13.5l3.401-5.889l23.382,13.5L43.913,77.039z M182.088,148.961l23.383,13.5l-3.4,5.891l-23.383-13.5L182.088,148.961z
	 M71.123,178.736l5.888,3.4l-13.5,23.383l-5.889-3.4L71.123,178.736z M162.49,20.481l5.891,3.4l-13.502,23.383l-5.889-3.4
	L162.49,20.481z M39.582,48.852l-5.446-4.904l1.947-2.163l5.446,4.904L39.582,48.852z M186.418,177.147l5.447,4.904l-1.947,2.163
	l-5.447-4.904L186.418,177.147z M46.689,184.471l2.163,1.947l-4.904,5.446l-2.163-1.947L46.689,184.471z M179.311,41.529
	l-2.163-1.947l4.904-5.447l2.163,1.947L179.311,41.529z M17.344,94.155l-7.168-1.524l0.604-2.846l7.169,1.523L17.344,94.155z
	 M208.655,131.844l7.169,1.525l-0.604,2.846l-7.169-1.523L208.655,131.844z M91.309,208.051l2.847,0.604l-1.524,7.169l-2.846-0.604
	L91.309,208.051z M133.369,10.175l2.846,0.605l-1.523,7.169l-2.848-0.605L133.369,10.175z M20.738,144.508l-6.972,2.265
	l-0.899-2.767l6.971-2.266L20.738,144.508z M205.262,81.492l6.972-2.264l0.899,2.767l-6.971,2.265L205.262,81.492z M144.509,205.262
	l2.264,6.972l-2.767,0.899l-2.266-6.971L144.509,205.262z M81.492,20.737l-2.265-6.971l2.769-0.899l2.264,6.971L81.492,20.737z
	 M92.632,10.175l1.523,7.169l-2.846,0.605l-1.524-7.169L92.632,10.175z M134.691,208.051l1.523,7.169l-2.847,0.604l-1.523-7.168
	L134.691,208.051z M17.95,134.691l-7.17,1.523l-0.604-2.847l7.169-1.523L17.95,134.691z M208.051,91.309l7.169-1.524l0.605,2.847
	l-7.169,1.524L208.051,91.309z M43.948,34.136l4.904,5.446l-2.163,1.948l-4.903-5.447L43.948,34.136z M179.312,184.471l4.903,5.447
	l-2.162,1.947l-4.905-5.447L179.312,184.471z M39.583,177.147l1.947,2.163l-5.447,4.904l-1.947-2.162L39.583,177.147z
	 M186.418,48.852l-1.947-2.163l5.447-4.904l1.947,2.163L186.418,48.852z M19.839,84.26l-6.971-2.266l0.899-2.767l6.971,2.265
	L19.839,84.26z M206.162,141.74l6.971,2.265l-0.899,2.768l-6.971-2.265L206.162,141.74z M81.492,205.263l2.769,0.899l-2.266,6.971
	l-2.768-0.899L81.492,205.263z M144.006,12.867l2.769,0.9l-2.266,6.971l-2.769-0.899L144.006,12.867z M72.021,24.536l-2.981-6.695
	l2.659-1.184l2.98,6.695L72.021,24.536z M153.98,201.464l2.979,6.696l-2.658,1.183l-2.98-6.695L153.98,201.464z M24.537,153.979
	l-6.696,2.98l-1.183-2.658l6.695-2.981L24.537,153.979z M201.463,72.021l6.697-2.981l1.184,2.659l-6.695,2.981L201.463,72.021z
	 M33.279,56.878L27.35,52.57l1.71-2.354l5.93,4.308L33.279,56.878z M192.723,169.122l5.928,4.309l-1.709,2.354l-5.932-4.309
	L192.723,169.122z M54.524,191.01l2.354,1.711l-4.309,5.93l-2.354-1.71L54.524,191.01z M173.43,27.35l2.355,1.711l-4.309,5.929
	l-2.355-1.71L173.43,27.35z M15.899,104.258l-7.289-0.767l0.305-2.894l7.289,0.766L15.899,104.258z M210.102,121.742l7.289,0.767
	l-0.305,2.894l-7.289-0.766L210.102,121.742z M101.363,209.797l2.896,0.305l-0.767,7.289l-2.895-0.305L101.363,209.797z
	 M122.51,8.609l2.895,0.304l-0.768,7.29l-2.895-0.304L122.51,8.609z M54.524,34.989l-4.309-5.929l2.355-1.71l4.307,5.929
	L54.524,34.989z M171.478,191.01l4.306,5.932l-2.354,1.709l-4.308-5.93L171.478,191.01z M34.99,171.477l-5.931,4.308l-1.709-2.354
	l5.929-4.309L34.99,171.477z M191.01,54.523l5.932-4.309l1.71,2.354l-5.929,4.308L191.01,54.523z M23.353,74.68l-6.694-2.981
	l1.183-2.658l6.696,2.98L23.353,74.68z M202.649,151.32l6.693,2.982l-1.182,2.658l-6.698-2.981L202.649,151.32z M72.021,201.463
	l2.658,1.185l-2.981,6.695l-2.657-1.183L72.021,201.463z M153.979,24.536l-2.659-1.184l2.981-6.695l2.66,1.184L153.979,24.536z
	 M16.204,124.638l-7.29,0.765l-0.303-2.894l7.288-0.767L16.204,124.638z M209.798,101.362l7.289-0.765l0.304,2.893l-7.289,0.767
	L209.798,101.362z M124.639,209.797l0.766,7.289l-2.896,0.305l-0.767-7.289L124.639,209.797z M101.363,16.203l-0.765-7.291
	l2.894-0.304l0.766,7.29L101.363,16.203z"/>
</svg>
