<svg xmlns="http://www.w3.org/2000/svg" viewBox="0 0 24 24"><path d="M9.615 16.311c-.077.062-.202.093-.376.093h-.584v-.849h.55c.179 0 .308.026.387.082.11.073.165.186.165.336 0 .148-.048.261-.142.338m.077-1.273c-.117-.026-.277-.038-.481-.038H8v3h.655v-1.082h.673c.172 0 .317-.016.435-.05.117-.033.222-.088.314-.165.216-.179.324-.426.324-.738 0-.354-.131-.617-.392-.793-.094-.064-.2-.11-.317-.134M12.529 17.242c-.068.074-.148.127-.24.158-.092.03-.215.045-.369.045h-.505v-1.892h.48c.287 0 .504.079.651.236.147.157.222.389.222.696 0 .333-.08.585-.239.757m.024-2.164c-.161-.053-.354-.078-.58-.078H10.76v3h1.227c.241 0 .439-.026.595-.079.156-.054.297-.142.421-.267.283-.279.425-.677.425-1.191 0-.485-.15-.865-.449-1.139-.124-.112-.266-.194-.426-.246M13.879 18h.655v-1.234h1.269v-.516h-1.269v-.695h1.457V15h-2.112v3z"/><path d="M7 19V5h5v5h5v9H7zm6-13.292L16.293 9H13V5.708zM12.707 4H6v16h12V9.293L12.707 4z"/></svg>
