<svg xmlns="http://www.w3.org/2000/svg" width="48" height="48" viewBox="0 0 48 48">
  <g fill="none" fill-rule="evenodd">
    <path stroke="#000" d="M18.8281,25.5244 C23.8671,28.4174 26.0791,33.5984 26.5001,39.5004 L4.5001,39.5004 C4.5991,33.4464 7.2981,28.2844 12.1341,25.5004 M31.5,6.998 C28.873,6.998 26.861,9.276 26.561,12.244 C27.747,13.338 28.5,15.046 28.5,17.002 C28.5,17.261 28.465,17.507 28.439,17.757 C29.275,18.527 30.321,19.002 31.5,19.002 C34.349,19.002 36.5,16.337 36.5,13.002 C36.5,9.666 34.349,6.998 31.5,6.998 Z M19.7744,12.981 C19.9764,12.712 20.1994,12.466 20.4394,12.244 C21.2754,11.473 22.3214,10.998 23.5004,10.998 C24.6784,10.998 25.7244,11.473 26.5604,12.244 C27.7474,13.338 28.5004,15.046 28.5004,17.002 C28.5004,17.261 28.4644,17.507 28.4394,17.757 C28.1384,20.726 26.1284,23.002 23.5004,23.002 C22.3214,23.002 21.2944,22.578 20.4574,21.808 M26.832,21.5039 C31.871,24.3969 34.079,29.5989 34.5,35.4999 L25.853,35.4999 M34.8398,17.5117 C39.8788,20.4057 42.0788,25.5987 42.4998,31.4997 L33.8778,31.4997 M20.457,21.8076 L22.503,23.9996 L21.537,25.7906 L23.576,29.5356 L25.537,25.7906 L24.503,23.9996 L26.48,21.8476 M26.6768,11.4907 C26.6768,11.4907 28.3648,11.1987 29.8478,9.8447 C30.3838,9.3557 31.2088,9.3907 31.6978,9.9277 C32.8268,11.1657 34.6958,12.8917 36.4988,12.8917 M38.9824,21.127 L40.6454,20.528 C41.1414,20.364 41.2514,19.831 40.8764,19.534 C39.4284,18.386 36.8884,16.142 36.4994,12.892 M20.5,13.5 C20.5,14.053 18.262,14.5 15.5,14.5 C12.739,14.5 10.5,14.053 10.5,13.5 C10.5,12.948 12.739,12.5 15.5,12.5 C18.262,12.5 20.5,12.948 20.5,13.5 Z M10.5,13.5 L10.5,19.5 C10.5,20.053 12.739,20.5 15.5,20.5 C18.262,20.5 20.5,20.053 20.5,19.5 L20.5,13.5 M20.5,19.5 L20.5,21 C20.5,24.335 18.349,27 15.5,27 C12.651,27 10.5,24.335 10.5,21 L10.5,19.5 M11.5,20.0996 C11.5,20.0996 12,21.4956 15.5,21.4996 C19,21.5036 19.5,20.0996 19.5,20.0996"/>
    <polygon fill="#000" points="17 16 16.1 16 17.3 17.125 15.875 17.125 15.875 16 15.125 16 15.125 17.125 13.7 17.125 14.9 16 14 16 12.5 17.5 14 19 14.9 19 13.7 17.875 15.125 17.875 15.125 19 15.875 19 15.931 17.819 17.3 17.875 16.1 19 17 19 18.5 17.5"/>
  </g>
</svg>
