<svg xmlns="http://www.w3.org/2000/svg" width="36" height="36" viewBox="0 0 36 36">
  <g fill="none" fill-rule="evenodd">
    <path stroke="#000" d="M9.7632,6.7503 L18.7497,6.7503 L26.2497,14.2503 L26.2497,29.2503 L9.7497,29.2503 L9.7632,6.7503 Z M18.75,6.7503 L18.75,14.2503 L26.25,14.2503"/>
    <polygon fill="#000" points="19.2 21 21.601 23.25 18.75 23.25 18.75 21 17.25 21 17.25 23.25 14.4 23.25 16.8 21 15 21 12 24 15 27 16.8 27 14.4 24.75 17.25 24.75 17.25 27 18.75 27 18.75 24.75 21.601 24.75 19.2 27 21 27 24 24 21 21"/>
  </g>
</svg>
