<svg xmlns="http://www.w3.org/2000/svg" width="36" height="36" viewBox="0 0 36 36">
  <g fill="none" fill-rule="evenodd">
    <path stroke="#000" d="M9.7632,6.7503 L18.7497,6.7503 L26.2497,14.2503 L26.2497,29.2503 L9.7497,29.2503 L9.7632,6.7503 Z M18.75,6.7503 L18.75,14.2503 L26.25,14.2503"/>
    <path fill="#000" d="M13.002,23.3346 L13.002,24.6081 L13.8975,24.6081 C14.1615,24.6081 14.3535,24.5601 14.4705,24.4686 C14.616,24.3546 14.688,24.1851 14.688,23.9616 C14.688,23.7366 14.604,23.5671 14.4375,23.4576 C14.316,23.3751 14.118,23.3346 13.8435,23.3346 L13.002,23.3346 Z M12,22.5036 L13.8525,22.5036 C14.1645,22.5036 14.409,22.5231 14.589,22.5591 C14.7675,22.5981 14.9295,22.6656 15.075,22.7616 C15.474,23.0241 15.675,23.4201 15.675,23.9496 C15.675,24.4191 15.5085,24.7881 15.1785,25.0566 C15.0375,25.1721 14.877,25.2531 14.697,25.3041 C14.517,25.3551 14.295,25.3791 14.0325,25.3791 L13.002,25.3791 L13.002,27.0006 L12,27.0006 L12,22.5036 Z M17.22585,23.3346 L17.22585,24.6081 L18.12135,24.6081 C18.38535,24.6081 18.57735,24.5601 18.69435,24.4686 C18.83985,24.3546 18.91185,24.1851 18.91185,23.9616 C18.91185,23.7366 18.82785,23.5671 18.66135,23.4576 C18.53985,23.3751 18.34185,23.3346 18.06735,23.3346 L17.22585,23.3346 Z M16.22385,22.5036 L18.07635,22.5036 C18.38835,22.5036 18.63285,22.5231 18.81285,22.5591 C18.99135,22.5981 19.15335,22.6656 19.29885,22.7616 C19.69785,23.0241 19.89885,23.4201 19.89885,23.9496 C19.89885,24.4191 19.73235,24.7881 19.40235,25.0566 C19.26135,25.1721 19.10085,25.2531 18.92085,25.3041 C18.74085,25.3551 18.51885,25.3791 18.25635,25.3791 L17.22585,25.3791 L17.22585,27.0006 L16.22385,27.0006 L16.22385,22.5036 Z M24,22.50405 L24,23.33505 L22.605,23.33505 L22.605,27.00105 L21.603,27.00105 L21.603,23.33505 L20.2155,23.33505 L20.2155,22.50405 L24,22.50405 Z"/>
  </g>
</svg>
