<svg xmlns="http://www.w3.org/2000/svg" width="36" height="36" viewBox="0 0 36 36">
  <g fill="none" fill-rule="evenodd">
    <path stroke="#000" d="M9.7632,6.7503 L18.7497,6.7503 L26.2497,14.2503 L26.2497,29.2503 L9.7497,29.2503 L9.7632,6.7503 Z M18.75,6.7503 L18.75,14.2503 L26.25,14.2503"/>
    <path fill="#000" d="M12.9771,23.3331 L12.9771,24.6066 L13.8531,24.6066 C14.1141,24.6066 14.3016,24.5601 14.4156,24.4686 C14.5581,24.3546 14.6286,24.1836 14.6286,23.9601 C14.6286,23.7351 14.5461,23.5671 14.3826,23.4561 C14.2641,23.3736 14.0706,23.3331 13.8006,23.3331 L12.9771,23.3331 Z M11.9961,22.5021 L13.8111,22.5021 C14.1156,22.5021 14.3556,22.5216 14.5326,22.5591 C14.7066,22.5981 14.8656,22.6656 15.0081,22.7601 C15.3981,23.0241 15.5946,23.4201 15.5946,23.9481 C15.5946,24.4191 15.4326,24.7881 15.1086,25.0551 C14.9721,25.1706 14.8146,25.2531 14.6376,25.3026 C14.4621,25.3536 14.2446,25.3791 13.9851,25.3791 L12.9771,25.3791 L12.9771,26.9991 L11.9961,26.9991 L11.9961,22.5021 Z M17.11455,23.3331 L17.11455,26.1696 L17.87055,26.1696 C18.10305,26.1696 18.28755,26.1456 18.42555,26.1006 C18.56205,26.0526 18.68205,25.9761 18.78405,25.8636 C19.02255,25.6071 19.14105,25.2291 19.14105,24.7296 C19.14105,24.2706 19.03155,23.9241 18.81105,23.6871 C18.59055,23.4516 18.26505,23.3331 17.83305,23.3331 L17.11455,23.3331 Z M16.13355,22.5021 L17.95155,22.5021 C18.28905,22.5021 18.57855,22.5426 18.82005,22.6191 C19.06155,22.6971 19.27305,22.8201 19.45755,22.9896 C19.90755,23.3991 20.13105,23.9676 20.13105,24.6951 C20.13105,25.4676 19.91955,26.0616 19.49505,26.4831 C19.30905,26.6691 19.09905,26.8026 18.86505,26.8806 C18.63105,26.9601 18.33255,26.9991 17.97255,26.9991 L16.13355,26.9991 L16.13355,22.5021 Z M23.9736,22.50255 L23.9736,23.33355 L21.7896,23.33355 L21.7896,24.37605 L23.6916,24.37605 L23.6916,25.14855 L21.7896,25.14855 L21.7896,26.99955 L20.8086,26.99955 L20.8086,22.50255 L23.9736,22.50255 Z"/>
  </g>
</svg>
