<svg xmlns="http://www.w3.org/2000/svg" viewBox="0 0 30 30"><path fill="#767676" d="M12.23884 19.52057v2.06914L7.0765 23.43387c-1.70315.608-2.8474 2.2331-2.8474 4.04074v2.15758c0 .47457.38394.8585.8585.8585 0 0 7.34323 3.50932 10.871 3.50932 3.71955 0 10.87098-3.50932 10.87098-3.50932.47457 0 .8585-.38393.8585-.8585V27.4746c0-1.80764-1.14425-3.43274-2.8474-4.04074l-5.16234-1.84415v-2.3002c1.64595-1.40558 2.71775-3.684 2.71775-6.2508 0-4.25978-2.9519-7.724-6.581-7.724-3.62787 0-6.57975 3.46422-6.57975 7.724 0 2.71267 1.19708 5.10324 3.0035 6.48187z"/></svg>
