<svg xmlns="http://www.w3.org/2000/svg" viewBox="0 0 24 24"><path d="M12 7c-2.757 0-5 2.243-5 5 0 1.546.753 3.014 2 3.99v2.464l2 .7V20h2v-.846l2-.7V16.02A5.103 5.103 0 0 0 17 12c0-2.757-2.243-5-5-5zm2 10.745l-2 .7-2-.7V16.5h4v1.245zm-.037-2.245H10.05C8.785 14.732 8 13.404 8 12c0-2.206 1.794-4 4-4s4 1.794 4 4c0 1.431-.834 2.851-2.037 3.5zM14.804 6.098l.703-1.287.877.48-.704 1.286zM17.319 8.22l1.284-.707.482.876-1.284.708zM18.5 12.5l.001-1 1.5.003-.002 1zM17.32 15.794l.47-.882 1.299.693-.471.882zM4.787 15.607l1.309-.78.512.86-1.31.78zM4 11.5h1.5v1H4zM4.84 8.41l.54-.841 1.282.823-.541.842zM7.61 5.295l.876-.482.709 1.289-.876.482zM11.5 4h1v1.5h-1z"/></svg>