<svg viewBox="0 0 24 24" version="1.1" xmlns="http://www.w3.org/2000/svg">
	<g stroke="none" stroke-width="1" fill="none" fill-rule="evenodd">
		<polygon points="0 24 24 24 24 0 0 0"></polygon>
		<path d="M4,5.9761 L8,8.8561 L8,16.4161 L4,13.4961 L4,5.9761 Z M9,8.8401 L13,5.6401 L13,13.1601 L9,16.3601 L9,8.8401 Z M14,5.4381 L18,7.5981 L18,9.0001 L19,9.0001 L19,7.0011 L13.446,4.0031 L8.484,7.9731 L3,4.0241 L3,14.0041 L8.514,18.0291 L13.441,14.0871 L13.926,14.6321 L14.674,13.9681 L14,13.2101 L14,5.4381 Z" fill="#000000"></path>
		<g transform="translate(15.000000, 10.000000)" fill="#000000">
			<path d="M4.7324,4.1494 L3.0074,7.0824 L1.2884,4.1604 C1.1064,3.8344 1.0164,3.5194 1.0034,3.1884 C1.0034,1.9824 1.8994,1.0004 3.0004,1.0004 C4.1004,1.0004 4.9964,1.9804 4.9974,3.1864 C4.9944,3.5074 4.9064,3.8204 4.7324,4.1494 M3.0004,0.0004 C1.3474,0.0004 0.0034,1.4304 0.0034,3.2064 C0.0224,3.7124 0.1574,4.1834 0.4204,4.6574 L3.0074,9.0544 L5.6044,4.6374 C5.8644,4.1474 5.9934,3.6744 5.9974,3.1934 L5.9974,3.1884 C5.9974,1.4304 4.6524,0.0004 3.0004,0.0004"></path>
			<path d="M3,2 C2.453,2 2,2.454 2,3 C2,3.547 2.464,4 3.011,4 C3.557,4 4,3.547 4,3 C4,2.454 3.547,2 3,2"></path>
		</g>
	</g>
</svg>
