<?xml version="1.0" encoding="UTF-8"?><svg width="22px" height="30px" viewBox="0 0 22 30" version="1.1" xmlns="http://www.w3.org/2000/svg" xmlns:xlink="http://www.w3.org/1999/xlink"><g id="180_familienausfluege_253" fill="#000000" stroke="none" fill-rule="evenodd"><path d="M5.497,1 C4.67,1 3.997,1.673 3.997,2.5 C3.997,3.327 4.67,4 5.497,4 C6.324,4 6.997,3.327 6.997,2.5 C6.997,1.673 6.324,1 5.497,1 Z M5.497,5 C4.11697342,4.99834694 2.99865306,3.88002658 2.997,2.5 C2.997,1.122 4.119,0 5.497,0 C6.875,0 7.997,1.122 7.997,2.5 C7.997,3.878 6.875,5 5.497,5 Z M2.074,7 L0.004,19.418 L0.991,19.582 L2.92,8 L8.073,8 L10.003,19.582 L10.99,19.418 L8.92,7 L2.074,7 Z"></path><path d="M2.05,27 L2.95,18.001 L8.045,18.001 L8.945,27 L2.05,27 Z M8.95,17.001 L2.045,17.001 L0.945,28 L2.997,28 L2.997,29.999 L3.997,29.999 L3.997,28 L6.997,28 L6.997,29.999 L7.997,29.999 L7.997,28 L10.05,28 L8.95,17.001 Z M17.498,1 C18.325,1 18.998,1.673 18.998,2.5 C18.998,3.327 18.325,4 17.498,4 C16.671,4 15.998,3.327 15.998,2.5 C15.998,1.673 16.671,1 17.498,1 Z M17.498,5 C18.877,5 19.998,3.878 19.998,2.5 C19.998,1.122 18.877,0 17.498,0 C16.1179734,0.00165305817 14.9996531,1.11997342 14.998,2.5 C14.998,3.878 16.12,5 17.498,5 Z M13.998,17.001 L20.998,17.001 L20.998,8 L13.998,8 L13.998,17.001 Z M12.998,19.5 L13.998,19.5 L13.998,18.001 L14.998,18.001 L14.998,29.999 L15.998,29.999 L15.998,18.001 L18.998,18.001 L18.998,29.999 L19.998,29.999 L19.998,18.001 L20.998,18.001 L20.998,19.5 L21.998,19.5 L21.998,7 L12.998,7 L12.998,19.5 Z"></path></g></svg>
