<svg xmlns="http://www.w3.org/2000/svg" viewBox="0 0 32 47"><g fill="none" fill-rule="evenodd"><ellipse cx="16" cy="43" fill="#000" fill-opacity=".25" rx="8" ry="4"/><circle cx="16" cy="16" r="12" fill="#FFF"/><path fill="#000" d="M16.0000889 24.0004281c-4.4110029 0-8-3.5889971-8-8 0-4.411431 3.5889971-8.0004281 8-8.0004281s8 3.5889971 8 8.0004281c.0004281 4.4110029-3.588569 8-8 8M15.9994217 0C7.17781694 0 .0000889 7.10182987.0000889 15.8310341c0 2.2769158.47101337 4.4508555 1.39925222 6.4619698C5.3996191 30.9539975 13.0692648 40.0981865 15.3251476 42.6937121c.1690133.1945104.4154169.3062879.6747189.3062879.2588572 0 .5057056-.1117775.6747189-.3062879 2.2545485-2.5950855 9.924639-11.7388345 13.926696-20.4007082.9282389-2.0111143 1.3988075-4.185054 1.3988075-6.4619698C31.9991993 7.10182987 24.8214713 0 15.9994217 0"/></g></svg>