<?xml version="1.0" encoding="UTF-8"?><svg width="48px" height="48px" viewBox="0 0 48 48" version="1.1" xmlns="http://www.w3.org/2000/svg" xmlns:xlink="http://www.w3.org/1999/xlink"><g transform="translate(5.000000, 7.000000)" stroke="none" fill="#000000" fill-rule="evenodd"><path d="M32,31 L37,31 L37,14 L32,14 L32,31 Z M19,30 L31,30 L31,6 L19,6 L19,30 Z M21.36,3 L28.64,3 L29.306,5 L20.694,5 L21.36,3 Z M32,13 L35,13 L35,11 L32,11 L32,13 Z M1,31 L16,31 L16,28 L1,28 L1,31 Z M3,3.893 L12,2.109 L12,27 L11,27 L11,26.001 L10,26.001 L10,27 L8,27 L8,26.001 L7,26.001 L7,27 L5,27 L5,26.001 L4,26.001 L4,27 L3,27 L3,3.893 Z M36,13 L36,10 L32,10 L32,5 L30.36,5 L29.36,2 L20.64,2 L19.64,5 L18,5 L18,10 L14,10 L14,27 L13,27 L13,0.891 L2,3.071 L2,27 L0,27 L0,34 L1,34 L1,32 L16,32 L16,34 L17,34 L17,27 L15,27 L15,11 L18,11 L18,34 L19,34 L19,31 L31,31 L31,34 L32,34 L32,32 L37,32 L37,34 L38,34 L38,13 L36,13 Z"></path><path d="M4,8 L5,8 L5,6 L4,6 L4,8 Z M7,8 L8,8 L8,6 L7,6 L7,8 Z M10,8 L11,8 L11,6 L10,6 L10,8 Z M4,12 L5,12 L5,10 L4,10 L4,12 Z M7,12 L8,12 L8,10 L7,10 L7,12 Z M10,12 L11,12 L11,10 L10,10 L10,12 Z M4,16.001 L5,16.001 L5,14.001 L4,14.001 L4,16.001 Z M7,16.001 L8,16.001 L8,14.001 L7,14.001 L7,16.001 Z M10,16.001 L11,16.001 L11,14.001 L10,14.001 L10,16.001 Z M4,20.001 L5,20.001 L5,18.001 L4,18.001 L4,20.001 Z M7,20.001 L8,20.001 L8,18.001 L7,18.001 L7,20.001 Z M10,20.001 L11,20.001 L11,18.001 L10,18.001 L10,20.001 Z M4,24.001 L5,24.001 L5,22.001 L4,22.001 L4,24.001 Z M7,24.001 L8,24.001 L8,22.001 L7,22.001 L7,24.001 Z M10,24.001 L11,24.001 L11,22.001 L10,22.001 L10,24.001 Z M20.001,9 L21.001,9 L21.001,7 L20.001,7 L20.001,9 Z M23.001,9 L24.001,9 L24.001,7 L23.001,7 L23.001,9 Z M26.001,9 L27.001,9 L27.001,7 L26.001,7 L26.001,9 Z M20.001,13 L21.001,13 L21.001,11 L20.001,11 L20.001,13 Z M23.001,13 L24.001,13 L24.001,11 L23.001,11 L23.001,13 Z M26.001,13 L27.001,13 L27.001,11 L26.001,11 L26.001,13 Z M20.001,17.001 L21.001,17.001 L21.001,15.001 L20.001,15.001 L20.001,17.001 Z M23.001,17.001 L24.001,17.001 L24.001,15.001 L23.001,15.001 L23.001,17.001 Z M26.001,17.001 L27.001,17.001 L27.001,15.001 L26.001,15.001 L26.001,17.001 Z M20.001,21.001 L21.001,21.001 L21.001,19.001 L20.001,19.001 L20.001,21.001 Z M23.001,21.001 L24.001,21.001 L24.001,19.001 L23.001,19.001 L23.001,21.001 Z M26.001,21.001 L27.001,21.001 L27.001,19.001 L26.001,19.001 L26.001,21.001 Z M20.001,25.001 L21.001,25.001 L21.001,23.001 L20.001,23.001 L20.001,25.001 Z M23.001,25.001 L24.001,25.001 L24.001,23.001 L23.001,23.001 L23.001,25.001 Z M26.001,25.001 L27.001,25.001 L27.001,23.001 L26.001,23.001 L26.001,25.001 Z M29.002,9 L30.002,9 L30.002,7 L29.002,7 L29.002,9 Z M29.002,13 L30.002,13 L30.002,11 L29.002,11 L29.002,13 Z M29.002,17.001 L30.002,17.001 L30.002,15.001 L29.002,15.001 L29.002,17.001 Z M29.002,21.001 L30.002,21.001 L30.002,19.001 L29.002,19.001 L29.002,21.001 Z M29.002,25.001 L30.002,25.001 L30.002,23.001 L29.002,23.001 L29.002,25.001 Z M20.001,29.001 L21.001,29.001 L21.001,27.001 L20.001,27.001 L20.001,29.001 Z M23.001,29.001 L24.001,29.001 L24.001,27.001 L23.001,27.001 L23.001,29.001 Z M26.001,29.001 L27.001,29.001 L27.001,27.001 L26.001,27.001 L26.001,29.001 Z M29.002,29.001 L30.002,29.001 L30.002,27.001 L29.002,27.001 L29.002,29.001 Z M33.002,17.001 L34.003,17.001 L34.003,15.001 L33.002,15.001 L33.002,17.001 Z M33.002,21.001 L34.003,21.001 L34.003,19.001 L33.002,19.001 L33.002,21.001 Z M33.002,25.001 L34.003,25.001 L34.003,23.001 L33.002,23.001 L33.002,25.001 Z M35.002,17.001 L36.002,17.001 L36.002,15.001 L35.002,15.001 L35.002,17.001 Z M35.002,21.001 L36.002,21.001 L36.002,19.001 L35.002,19.001 L35.002,21.001 Z M35.002,25.001 L36.002,25.001 L36.002,23.001 L35.002,23.001 L35.002,25.001 Z M33.002,29.001 L34.003,29.001 L34.003,27.001 L33.002,27.001 L33.002,29.001 Z M35.002,29.001 L36.002,29.001 L36.002,27.001 L35.002,27.001 L35.002,29.001 Z"></path></g></svg>
