<svg xmlns="http://www.w3.org/2000/svg" viewBox="0 0 24 24"><path d="M12 15.99976H6v-1h6v1zm6.00977-2v-1H16v1h2.00977zm-6.00977-1H6v1h6v-1zm6.00977-2H15v1h3.00977v-1zm.09277-6.00439h-.6377a.89657.89657 0 0 1-.30273.57324 1.021 1.021 0 0 1-.34277.16846 2.18675 2.18675 0 0 1-.4873.0625v.5791H17.29v2.62157h.8125V4.99536zM13 6.00122v4.999h1v-6.001l-3 .00488V4.00024h8v11.99952h1V3.00024H10V5.0058l-2.00049.0032.001 1zm8.35352 14.645l-.707.707-2.35364-2.35352H14v2H4V5.00024h.29254L2.646 3.35376l.707-.707zM13 13.70721l-7.7074-7.707H5v13.99955h8v-6.29255zm4.29279 4.29254L14 14.70715v3.2926h3.29279z"/></svg>
