<svg xmlns="http://www.w3.org/2000/svg" viewBox="0 0 24 24" width="100%" height="100%">
	<path fill="none" d="M11.5 12.5l-.002-6c0-.552.45-1 1.002-1 .553 0 1 .448 1 1V13"/>
	<path fill="none" d="M15.5 12.5c0-.552.448-1 1-1s1.003.448 1.003 1c0 0-.003.562-.003 3.5s-.9 4.5-.9 4.5H9.5l-3.707-6.29c-.312-.532-.39-1.026 0-1.417.39-.39 1.026-.39 1.417 0l2.288 2.29H9.5V12.5l-.002-5c0-.552.45-1 1.002-1 .553 0 1 .448 1 1v5.508"/>
	<path fill="none" d="M13.497 11.5c0-.555.448-1.003 1-1.003.554 0 1.003.448 1.003 1.002V13M15 8.152c.316-.472.5-1.04.5-1.652 0-1.657-1.343-3-3-3-.896 0-1.692.4-2.24 1.024C8.715 4.65 7.5 5.926 7.5 7.5c0 .608.184 1.17.494 1.644"/></svg>
