<?xml version="1.0" encoding="utf-8"?>
<!-- Generator: Adobe Illustrator 20.0.0, SVG Export Plug-In . SVG Version: 6.00 Build 0)  -->
<svg version="1.1" id="Ebene_2_1_" xmlns="http://www.w3.org/2000/svg" xmlns:xlink="http://www.w3.org/1999/xlink" x="0px" y="0px"
	 viewBox="0 0 24 24" enable-background="new 0 0 24 24" xml:space="preserve">
<polygon points="7.9995117,8.0007324 5.9995117,8.0007324 5.9995117,15.0007324 11.9995117,15.0007324 11.9995117,19.0007324 
	12.9995117,19.0007324 12.9995117,15.0007324 12.9995117,13.0007324 7.9995117,13.0007324 "/>
<path d="M6.4995117,18.0007324c-1.9296875,0-3.5-1.5703125-3.5-3.5c0-1.3212891,0.737793-2.5180664,1.925293-3.1220703
	l-0.4541016-0.8916016c-1.5244141,0.7763672-2.4711914,2.3139648-2.4711914,4.0136719c0,2.4814453,2.0185547,4.5,4.5,4.5
	c1.7299805,0,3.328125-1.0166016,4.0717773-2.5898438l-0.9042969-0.4277344
	C9.0878906,17.2087402,7.8447266,18.0007324,6.4995117,18.0007324z"/>
<rect x="17.0449219" y="16.9978027" width="1" height="2"/>
<path d="M21.4091797,7.645752c-0.1621094-0.9116211-0.7773438-1.7333984-1.6650391-2.206543
	c-1.3164062-0.6416016-2.9042969-0.5957031-4.0419922,0.1142578C14.6044922,6.239502,14,7.463623,14,9.0002441h1
	c0-1.1962891,0.4257812-2.0947266,1.2324219-2.5986328c0.8515625-0.5322266,2.0576172-0.5585938,3.0576172-0.0722656
	c0.6015625,0.3212891,1.0253906,0.8789062,1.1337891,1.4907227c0.1220703,0.6860352-0.1533203,1.4287109-0.7773438,2.1264648
	L18.125,11.4694824C17.0478516,12.6901855,17,13.4763184,17,14.9997559h1c0-1.4257812,0.0400391-1.9223633,0.8535156-2.8461914
	l1.5195312-1.5200195C21.4521484,9.427002,21.5322266,8.3430176,21.4091797,7.645752z"/>
<circle cx="6.9997559" cy="6" r="1"/>
</svg>
