<svg xmlns="http://www.w3.org/2000/svg" viewBox="0 0 24 24"><path d="M19.86943 11.27302L16.2306 7.8351V5.49096c0-.24402-.20963-.43247-.4695-.43247-.2433 0-.4445.18848-.4445.43247V6.9752l-3.00164-2.84056C12.223 4.04714 12.11373 4 12.0048 4c-.12573 0-.23483.0488-.327.13464L4.14016 11.2259c-.18083.16996-.1928.44257 0 .59908.16764.18173.45635.16998.63716 0l7.2275-6.78333 7.21066 6.84728c.07512.07068.18445.11107.327.11107.12574 0 .23465-.0404.32697-.11107.1678-.1582.1803-.44425 0-.6159"/><path d="M17.54116 11c-.26832 0-.4762.2089-.4762.48118v6.57314H13.6884v-2.68407c0-.2518-.2078-.4719-.459-.4719h-2.44146c-.26856 0-.48486.22008-.48486.4719v2.68407h-3.3681v-6.35487c0-.2537-.2076-.46445-.47617-.46445-.251 0-.4588.21074-.4588.46445v6.8361c0 .25368.2078.46445.4588.46445h4.32914c.25102 0 .4588-.21077.4588-.46444v-2.6841h1.50645v2.6841c0 .25367.2078.46444.4762.46444h4.31176C17.7922 19 18 18.78923 18 18.53556v-7.05432c0-.2723-.2078-.48124-.45884-.48124"/></svg>
