<?xml version="1.0" encoding="utf-8"?>
<!-- Generator: Adobe Illustrator 16.0.4, SVG Export Plug-In . SVG Version: 6.00 Build 0)  -->
<!DOCTYPE svg PUBLIC "-//W3C//DTD SVG 1.1//EN" "http://www.w3.org/Graphics/SVG/1.1/DTD/svg11.dtd">
<svg version="1.1" xmlns="http://www.w3.org/2000/svg" xmlns:xlink="http://www.w3.org/1999/xlink" x="0px" y="0px"
	 width="24px" height="24px" viewBox="0 0 24 24" enable-background="new 0 0 24 24" xml:space="preserve">
<path d="M12,16.723H5.667v-1.056H12V16.723z M12,13.556H5.667v1.056H12V13.556z M20.444,3v16.889h-6.333V22H3.556V5.111h6.333V3
	H20.444z M13.056,6.167h-2.111l0,0H9.889l0,0H4.611v14.778h8.444v-1.056l0,0v-1.056l0,0V6.167z M19.389,4.056h-8.444v1.056h3.167
	v6.333h4.222V12.5h-4.222v1.056h4.222v1.056h-4.222v4.222h5.277V4.056z M17.489,6.378v2.956h0.844V5.111h-0.739
	c0,0.105,0,0.105,0,0.211s-0.104,0.211-0.104,0.316c-0.106,0.106-0.212,0.211-0.423,0.211s-0.316,0-0.527,0v0.528H17.489z
	 M9.15,11.444H12v-0.739h-1.794c0-0.105,0.105-0.211,0.211-0.211l0.422-0.317l0.317-0.211c0.211-0.105,0.422-0.317,0.633-0.528
	C11.895,9.122,12,8.911,12,8.594c0-0.316-0.105-0.739-0.422-0.95c-0.317-0.317-0.634-0.422-1.056-0.422
	c-0.528,0-0.95,0.211-1.161,0.633C9.255,8.172,9.15,8.383,9.15,8.7h0.739c0-0.21,0-0.316,0.106-0.528L10.1,8.066
	c0.211-0.211,0.633-0.211,0.844,0c0.106,0.105,0.106,0.317,0.106,0.423c0,0.21-0.106,0.422-0.211,0.633
	c-0.211,0.211-0.528,0.422-0.739,0.633C9.783,9.967,9.467,10.283,9.255,10.6C9.15,10.917,9.15,11.128,9.15,11.444z"/>
</svg>
