<?xml version="1.0" encoding="utf-8"?>
<!-- Generator: Adobe Illustrator 16.0.4, SVG Export Plug-In . SVG Version: 6.00 Build 0)  -->
<!DOCTYPE svg PUBLIC "-//W3C//DTD SVG 1.1//EN" "http://www.w3.org/Graphics/SVG/1.1/DTD/svg11.dtd">
<svg version="1.1" xmlns="http://www.w3.org/2000/svg" xmlns:xlink="http://www.w3.org/1999/xlink" x="0px" y="0px"
	 width="24px" height="24px" viewBox="0 0 24 24" enable-background="new 0 0 24 24" xml:space="preserve">
<path d="M15.419,11.36c0.633-0.886,1.015-2.026,1.015-3.293C16.434,5.28,14.408,3,12,3C9.594,3,7.566,5.28,7.566,8.066
	c0,1.268,0.38,2.408,1.013,3.293c-3.673,1.773-5.446,6.207-5.446,10.007V22h17.734v-0.633C20.867,17.566,19.22,13.008,15.419,11.36z
	 M12,4.268c1.775,0,3.168,1.646,3.168,3.799S13.775,11.867,12,11.867c-1.773,0-3.166-1.647-3.166-3.801S10.227,4.268,12,4.268z
	 M4.4,20.734c0.125-3.423,1.773-7.095,5.194-8.487c0.633,0.506,1.518,0.886,2.406,0.886s1.775-0.253,2.408-0.886
	c3.418,1.267,4.938,5.064,5.193,8.487H4.4z"/>
</svg>
