<?xml version="1.0" encoding="UTF-8"?><svg width="43px" height="32px" viewBox="0 0 43 32" version="1.1" xmlns="http://www.w3.org/2000/svg" xmlns:xlink="http://www.w3.org/1999/xlink"><g id="180_markt_shopping_258" fill="#000000" stroke="none" fill-rule="evenodd"><path d="M26.03,29.992 L26.971,13.992 L31.001,13.992 L31.001,16.992 L32.001,16.992 L32.001,13.992 L34.996,13.992 L34.994,16.992 L35.994,16.992 L35.996,13.992 L40.028,13.992 L40.969,29.992 L26.03,29.992 Z M32,9.492 C32.0294769,8.68487689 32.6923388,8.04578138 33.5,8.04578138 C34.3076612,8.04578138 34.9705231,8.68487689 35,9.492 L34.997,12.992 L32,12.992 L32,9.492 Z M40.971,12.992 L35.997,12.992 L36,9.492 C36,8.113 34.88,6.992 33.5,6.992 C32.1197452,6.99310288 31.0011029,8.11174521 31,9.492 L31,12.992 L26.028,12.992 L24.969,30.992 L42.03,30.992 L40.971,12.992 Z M22.001,7.492 C22.001,8.319 21.328,8.992 20.501,8.992 C19.674,8.992 19.001,8.319 19.001,7.492 L18.001,7.491 C17.9982484,8.31779852 17.3278024,8.98690364 16.501,8.988 L16.498,8.988 C15.6728221,8.98416827 15.0048317,8.3161779 15.001,7.491 L14.001,7.491 C13.9982484,8.31779852 13.3278024,8.98690364 12.501,8.988 L12.497,8.988 C11.6719863,8.98416412 11.0042846,8.31601612 11.001,7.491 L10.001,7.491 C9.97152312,8.29812311 9.30866119,8.93721862 8.501,8.93721862 C7.69333881,8.93721862 7.03047688,8.29812311 7.001,7.491 L6.001,7.491 C5.99769946,8.31796009 5.32696596,8.98690617 4.5,8.988 L4.497,8.988 C3.6722099,8.9841728 3.00437835,8.31678735 3,7.492 L3,5.992 L22.001,5.992 L22.001,7.492 Z M19,22.992 L6,22.992 L6,9.472 C6.186,9.331 6.358,9.174 6.499,8.988 C6.97050863,9.61983929 7.71262111,9.99201205 8.501,9.99201205 C9.28937889,9.99201205 10.0314914,9.61983929 10.503,8.988 C10.9734444,9.61526763 11.7109233,9.98548792 12.495,9.988 C13.2860036,9.99549098 14.0323906,9.62229746 14.501,8.985 C14.9714523,9.61423969 15.7103393,9.9857202 16.496,9.988 L16.501,9.988 C17.2877846,9.99069128 18.0293248,9.62047761 18.5,8.99 C18.641,9.177 18.813,9.334 19,9.476 L19,22.992 Z M4.75,1.992 L20.751,1.992 L23.001,4.992 L2.501,4.992 L4.75,1.992 Z M4,30.008 L21,30.008 L21,24.008 L4,24.008 L4,30.008 Z M25.001,5.992 L21.251,0.992 L4.25,0.992 L0.5,5.992 L2,5.992 L2,7.492 C2.00493305,8.86806433 3.11893776,9.98251554 4.495,9.988 L4.5,9.988 C4.672,9.988 4.837,9.961 5,9.928 L5,23.008 L3,23.008 L3,31.008 L22,31.008 L22,23.008 L20,23.008 L20,9.932 C20.163,9.965 20.329,9.992 20.501,9.992 C21.879,9.992 23.001,8.87 23.001,7.492 L23.001,5.992 L25.001,5.992 Z"></path></g></svg>
