<svg viewBox="0 0 270 66" version="1.1" xmlns="http://www.w3.org/2000/svg" xmlns:xlink="http://www.w3.org/1999/xlink">
    <g stroke="none" stroke-width="1" fill="none" fill-rule="evenodd">
        <g fill-rule="nonzero">
            <path d="M177.6,23.9 C178.9,25.2 179.6,27.1 179.6,29.5 L162.4,29.5 C163.7,24.5 166.7,22 171.6,22 C174.3,22 176.3,22.6 177.6,23.9 Z M185.8,30.4 C185.8,28.3 185.5,26.4 184.8,24.6 C184.1,22.9 183.2,21.4 181.9,20.2 C180.7,19 179.2,18.1 177.5,17.5 C175.8,16.9 173.9,16.6 171.8,16.6 C169.4,16.6 167.2,17 165.2,17.9 C163.2,18.8 161.5,19.9 160.2,21.4 C158.8,22.9 157.8,24.7 157,26.7 C156.2,28.7 155.9,30.9 155.9,33.3 C155.9,35.7 156.3,38 157.1,40.1 C157.9,42.2 159.1,44 160.6,45.6 C162.1,47.1 164,48.3 166.2,49.2 C168.4,50.1 170.9,50.5 173.6,50.5 C177,50.5 180.7,49.7 184.5,48 L183.7,43.3 C180.8,44.6 177.6,45.2 174.3,45.2 C166.8,45.2 162.8,41.3 162.1,33.6 L185.7,33.6 C185.7,32.7 185.8,31.7 185.8,30.4 Z M149.8,17.3 L143.8,17.3 L143.8,41.5 C142.2,44 139.7,45.2 136.3,45.2 C131.2,45.2 128.7,41.7 128.7,34.6 L128.7,17.3 L122.7,17.3 L122.7,36.3 C122.7,45.8 126.7,50.6 134.7,50.6 C138.7,50.6 141.7,49.2 143.8,46.3 L144.5,49.9 L149.8,49.9 L149.8,17.3 Z M103.4,22.8 C104.6,23.3 105.7,24.1 106.6,25.1 C107.5,26.1 108.2,27.3 108.8,28.8 C109.4,30.2 109.6,31.9 109.6,33.7 C109.6,35.6 109.3,37.2 108.8,38.7 C108.3,40.2 107.6,41.4 106.7,42.4 C105.8,43.4 104.8,44.1 103.5,44.6 C102.3,45.1 101,45.4 99.7,45.4 C98.3,45.4 97,45.1 95.9,44.5 C94.8,43.9 93.8,43.1 93,42.1 C92.2,41.1 91.6,39.9 91.2,38.4 C90.8,37 90.6,35.4 90.6,33.7 C90.6,32 90.8,30.4 91.2,29 C91.6,27.6 92.2,26.4 93,25.3 C93.8,24.3 94.8,23.5 95.9,22.9 C97,22.3 98.3,22 99.7,22 C100.9,22 102.2,22.2 103.4,22.8 Z M101.7,50.2 C102.7,50 103.6,49.7 104.5,49.2 C105.4,48.8 106.3,48.3 107.2,47.7 C108,47.1 108.7,46.4 109.3,45.7 L109.3,66 L115.3,66 L115.3,17.3 L110.6,17.3 L109.9,22 C108.4,20.2 106.8,18.8 105.2,18 C103.6,17.1 101.5,16.7 98.9,16.7 C96.7,16.7 94.7,17.2 92.9,18.1 C91.1,19 89.6,20.2 88.3,21.8 C87,23.4 86.1,25.1 85.4,27.2 C84.7,29.2 84.4,31.4 84.4,33.7 C84.4,36.1 84.7,38.4 85.3,40.5 C85.9,42.6 86.9,44.4 88.1,45.9 C89.3,47.4 90.9,48.6 92.7,49.4 C94.5,50.2 96.6,50.7 99,50.7 C99.8,50.6 100.7,50.5 101.7,50.2 Z M78.1,17.3 L72.1,17.3 L72.1,49.9 L78.1,49.9 L78.1,17.3 Z M78.1,3.3 L72.1,3.3 L72.1,10 L78.1,10 L78.1,3.3 Z M54.3,22.9 C55.5,23.5 56.4,24.3 57.3,25.4 C58.1,26.4 58.8,27.7 59.2,29.1 C59.6,30.5 59.9,32.1 59.9,33.7 C59.9,35.3 59.7,36.7 59.2,38.2 C58.8,39.6 58.1,40.9 57.3,41.9 C56.5,43 55.5,43.8 54.4,44.4 C53.2,45 52,45.3 50.5,45.3 C49.2,45.3 47.9,45.1 46.7,44.6 C45.5,44.1 44.5,43.4 43.6,42.4 C42.7,41.4 42,40.2 41.5,38.7 C41,37.2 40.7,35.6 40.7,33.6 C40.7,31.7 41,30.1 41.5,28.6 C42,27.2 42.7,25.9 43.6,24.9 C44.5,23.9 45.5,23.1 46.7,22.6 C47.9,22.1 49.1,21.8 50.4,21.8 C51.9,22 53.2,22.3 54.3,22.9 Z M57,49.3 C58.8,48.4 60.4,47.2 61.7,45.7 C63,44.2 64.1,42.4 64.8,40.3 C65.6,38.2 65.9,36 65.9,33.7 C65.9,31.4 65.5,29.3 64.8,27.2 C64.1,25.1 63.1,23.3 61.8,21.8 C60.5,20.2 59,19 57.1,18.1 C55.3,17.2 53.3,16.7 51.1,16.7 C46.7,16.7 43.3,18.1 41,20.9 L41,0 L35,0 L35,49.9 L40.3,49.9 L41,45.8 C41.5,46.6 42.2,47.2 43,47.8 C43.8,48.4 44.7,48.9 45.6,49.3 C46.5,49.7 47.5,50 48.4,50.2 C49.3,50.4 50.2,50.5 51,50.5 C53.3,50.6 55.2,50.1 57,49.3 Z M27.1,17.3 L21.1,17.3 L21.1,41.5 C19.5,44 17,45.2 13.6,45.2 C8.5,45.3 6,41.7 6,34.6 L6,17.3 L0,17.3 L0,36.3 C0,45.8 4,50.6 12,50.6 C16,50.6 19,49.2 21.1,46.3 L21.8,49.9 L27.1,49.9 L27.1,17.3 Z" fill="#000000"></path>
            <polygon fill="#273C56" points="247.9 9.3 238.8 15.3 254.1 25.5 239.5 47.4 251 53 269.3 41 267.8 19.1"></polygon>
            <polygon fill="#0080FF" points="239.5 47.4 231.1 43.2 229.6 21.4 238.8 15.3 224.4 5.7 204.6 35.4 234.3 55.2"></polygon>
        </g>
    </g>
</svg>
