<svg xmlns="http://www.w3.org/2000/svg" viewBox="0 0 86 59"><path d="M48.751,0L46.686,2.706,45.581,4.154,43.457,6.933l-0.273-.027-0.551-.054-0.54.136L37.376,8.194l-0.775-1.06-2.124.628-1.103.323-2.002-.167-2.198-.183L28.249,9.739l-0.356.77-1.96.67-1.795-.986L22.151,9.101l-1.666,1.54-1.523,1.412-4.573,4.23,3.903,0.761L3.857,33.567,2.769,34.809l0.4,1.604,0.04,0.155-0.6,1.031-0.89,1.529,0.834,1.556,0.139,0.26L0.62,43.925,0,44.817l0.059,1.085,0.014,0.257,0.172,3.149,3.144-.168,1.977-.106,0.77-.04L6.8,48.6l2.879-1.7,2.661-1.576-1.303-2.311,2.736-2.021,1.098,0.241-0.143.457,0.676,1.195,0.461,0.82-0.557,1.158-0.873,1.811,1.266,1.559,5.41,6.647,1.341,1.65,2.031-.628,6.081-1.882,4.377,0.655,1.661,0.246,1.132-1.24,5.175-5.677,1.32-1.448-0.71-1.828-0.05-.13,1.765-1.457,0.598-.491-0.108,1.244,1.09,1.047,4.143,3.985,0.648,2.116,0.125,0.413,0.233,0.364,2.04,3.202,2.438,3.825,2.73-3.618,0.185-.244,0.919-1.219-0.381-1.477L59.41,50.412l4.224-10.61,0.963,2.739,1.03,2.929,2.94-.982,1.578-.526,2.788,0.723,1.276,0.703,5.995,3.304-1.392-6.713-0.536-2.585,0.106-1.75,0.383,0.733,1.75,0.126,0.755,0.056,4.134,0.298-0.817-4.07-0.23-1.147,1.078-6.852,0.292-1.848-1.478-1.145-0.08-.06L81.19,21.43l-1.741,3.343-0.199.383-4.825-.418-0.313-1.004-0.639-2.045-2.132-.163-3.427-.26,0.145-1.888,2.134-4.707,1.241-2.74-2.669-1.375L58.843,5.443l-0.635-.327-0.713-.02L54.341,5,51.287,2.27,48.75-.001Zm2.843,8.179-3.51-2.107,1.104-1.448,3.91,3.5L57.402,8.25l9.921,5.114-2.362,5.215-0.435,5.598,6.578,0.498,0.943,3.027,9.023,0.782,1.173-2.25,0.08,0.061-1.166,7.41,0.34,1.703-0.755-.056-1.123-2.149-4.173.744-0.34,5.676,0.62,2.997-1.622-.893L70.032,40.67l-2.461.821-1.682-4.787-4.245-.425L56.101,50.201l0.742,2.877-0.184.243-2.041-3.202-0.886-2.904-4.738-4.554,0.46-5.311-6.99,1.814,0.77,1.538-3.53,2.908,0.879,2.263-5.177,5.676-5.086-.76-6.767,2.094-5.408-6.647L19.42,43.59l-1.275-2.26,0.771-2.44L13.053,37.6,6.921,42.13l1.155,2.049L5.2,45.882l-1.98.106-0.013-.257,3.176-4.573L5.331,39.192,6.579,37.05l-0.35-1.404L24.275,14.992l-3.174-.618,1.524-1.411,3.013,1.653,4.55-1.555,0.922-1.996,2.59,0.216,1.668-.49,0.723,0.99,6.784-1.731,4.886,0.484,3.834-2.355H51.594Z"/><path d="M58.777,13.173a5.8106,5.8106,0,0,0-9.547,6.464L31.868,37.027a5.82128,5.82128,0,1,0,1.955,2.047L51.091,21.781a5.81237,5.81237,0,0,0,7.686-8.608M56.36,18.961a2.75747,2.75747,0,1,1-3.31-4.353,2.55011,2.55011,0,0,1,.683-0.276,2.75977,2.75977,0,0,1,2.627,4.629"/></svg>