<svg xmlns="http://www.w3.org/2000/svg" width="16" height="16" viewBox="0 0 16 16">
  <g fill="none" fill-rule="evenodd">
    <rect width="16" height="16" fill="#EB0000" rx="2"/>
    <path fill="#FFF" d="M6.82247619,10.361625 C5.52647619,10.361625 4.47580952,11.386125 4.47580952,12.649875 C4.47580952,13.913625 5.52647619,14.93775 6.82247619,14.93775 C8.11847619,14.93775 9.16914286,13.913625 9.16914286,12.649875 C9.16914286,11.386125 8.11847619,10.361625 6.82247619,10.361625 L6.82247619,10.361625 Z M6.82247619,13.725375 C6.21752381,13.725375 5.72685714,13.24725 5.72685714,12.657375 C5.72685714,12.0675 6.21752381,11.589 6.82247619,11.589 C7.42780952,11.589 7.91809524,12.0675 7.91809524,12.657375 C7.91809524,13.24725 7.42780952,13.725375 6.82247619,13.725375 L6.82247619,13.725375 Z M12.2011429,4.13925 C12.0887619,3.51 11.5253333,3 10.9584762,3 L0.00342857143,3 L0.00304761905,4.227375 L1.61828571,4.227375 L1.61828571,8.498625 L0.00114285714,8.498625 L0.000380952381,10.165125 L0.000380952381,10.1655 L0,12.657375 L3.71009524,12.657375 C3.71009524,10.9815 5.10361905,9.622875 6.82247619,9.622875 C8.54133333,9.622875 9.93485714,10.9815 9.93485714,12.657375 L12.1512381,12.657375 C12.7230476,12.657375 13.1866667,12.144375 13.1866667,11.499375 L13.1866667,8.652375 L12.2011429,4.13925 L12.2011429,4.13925 Z M2.35085714,4.227375 L5.58057143,4.227375 L5.58057143,8.498625 L2.35085714,8.498625 L2.35085714,4.227375 Z M6.38895238,4.231125 L7.25638095,4.231125 L7.25638095,8.51325 L6.38895238,8.51325 L6.38895238,4.231125 Z M8.0952381,4.227375 L8.96266667,4.227375 L8.96266667,8.5095 L8.0952381,8.5095 L8.0952381,4.227375 Z M9.81180952,8.5095 L9.81180952,4.227375 L11.2773333,4.227375 L12.2342857,8.5095 L9.81180952,8.5095 L9.81180952,8.5095 Z"/>
  </g>
</svg>
