<svg xmlns="http://www.w3.org/2000/svg" width="24" height="24" viewBox="0 0 24 24">
  <path fill="none" stroke="#000" d="M18.9707,20.2497 L4.0297,20.2497 C3.1847,20.2497 2.4997,19.5647 2.4997,18.7207 L2.4997,8.0297 C2.4997,7.1847 3.1847,6.4997 4.0297,6.4997 L18.9707,6.4997 C19.8157,6.4997 20.4997,7.1847 20.4997,8.0297 L20.4997,18.7207 C20.4997,19.5647 19.8157,20.2497 18.9707,20.2497 Z M8.5,6.5002 L8.5,6.0292 C8.5,5.1852 9.188,4.5002 10.037,4.5002 L12.963,4.5002 C13.812,4.5002 14.5,5.1852 14.5,6.0292 L14.5,6.5002 M2.5,11.5002 L20.5,11.5002 M12.7339,13.4997 L10.2659,13.4997 C9.8429,13.4997 9.4999,13.1567 9.4999,12.7337 L9.4999,10.2667 C9.4999,9.8427 9.8429,9.4997 10.2659,9.4997 L12.7339,9.4997 C13.1569,9.4997 13.4999,9.8427 13.4999,10.2667 L13.4999,12.7337 C13.4999,13.1567 13.1569,13.4997 12.7339,13.4997 Z"/>
</svg>
