<svg xmlns="http://www.w3.org/2000/svg" width="24" height="24" viewBox="0 0 24 24">
  <g fill="none" fill-rule="evenodd">
    <path stroke="#000" d="M5.5,7.5002 L18.5,7.5002 L20.5,20.5002 L3.5,20.5002 L5.5,7.5002 Z M14,5.5002 C14,6.6042 13.104,7.5002 12,7.5002 C10.896,7.5002 10,6.6042 10,5.5002 C10,4.3952 10.896,3.5002 12,3.5002 C13.104,3.5002 14,4.3952 14,5.5002 Z"/>
    <path fill="#000" d="M11.834,12.0105 L9.596,14.2685 L12.045,17.7215 L10.471,17.7215 L8.737,15.1585 L8.018,15.8775 L8.018,17.7215 L6.772,17.7215 L6.772,12.0105 L8.018,12.0105 L8.018,14.3735 L10.256,12.0105 L11.834,12.0105 Z M17.2949,14.6433 L17.2949,17.7213 L16.4979,17.7213 L16.3729,17.0693 C15.9509,17.5943 15.3819,17.8583 14.6659,17.8583 C13.7939,17.8583 13.1049,17.5363 12.5999,16.8893 C12.1809,16.3503 11.9709,15.6843 11.9709,14.8933 C11.9709,13.9953 12.2439,13.2593 12.7909,12.6863 C13.3039,12.1443 13.9669,11.8733 14.7789,11.8733 C15.5289,11.8733 16.1399,12.1163 16.6109,12.6003 C16.9629,12.9653 17.1649,13.3943 17.2169,13.8893 L16.0099,13.8893 C15.9469,13.5813 15.8079,13.3423 15.5899,13.1703 C15.3719,12.9983 15.0969,12.9133 14.7639,12.9133 C14.2589,12.9133 13.8679,13.1083 13.5919,13.4983 C13.3499,13.8393 13.2289,14.3003 13.2289,14.8813 C13.2289,15.4493 13.3419,15.8993 13.5679,16.2333 C13.8469,16.6413 14.2589,16.8463 14.8029,16.8463 C15.1959,16.8463 15.5189,16.7273 15.7699,16.4913 C16.0209,16.2533 16.1529,15.9423 16.1659,15.5573 L14.8969,15.5573 L14.8969,14.6433 L17.2949,14.6433 Z"/>
  </g>
</svg>
