<svg xmlns="http://www.w3.org/2000/svg" width="24" height="24" viewBox="0 0 24 24">
  <path fill="none" stroke="#000" d="M17.5,9.5002 L5.5,9.5002 L4.5,6.5002 L11.5,4.5002 L18.5,6.5002 L17.5,9.5002 Z M11.5,12.0002 C13.392,12.0002 15.075,11.0242 16.25,9.5002 L6.75,9.5002 C7.925,11.0242 9.608,12.0002 11.5,12.0002 Z M9.7998,13.9997 C9.7998,14.1657 9.6658,14.2997 9.4998,14.2997 C9.3338,14.2997 9.1998,14.1657 9.1998,13.9997 C9.1998,13.8347 9.3338,13.6997 9.4998,13.6997 C9.6658,13.6997 9.7998,13.8347 9.7998,13.9997 Z M13.7998,13.9997 C13.7998,14.1657 13.6658,14.2997 13.4998,14.2997 C13.3338,14.2997 13.1998,14.1657 13.1998,13.9997 C13.1998,13.8347 13.3338,13.6997 13.4998,13.6997 C13.6658,13.6997 13.7998,13.8347 13.7998,13.9997 Z M12,7.0002 C12,7.2762 11.776,7.5002 11.5,7.5002 C11.224,7.5002 11,7.2762 11,7.0002 C11,6.7242 11.224,6.5002 11.5,6.5002 C11.776,6.5002 12,6.7242 12,7.0002 Z M14.0518,16.5515 C13.5238,17.1205 12.5778,17.4995 11.4998,17.4995 C10.4868,17.4995 9.5908,17.1645 9.0478,16.6525 M5.4814,11.0002 C5.4814,11.0002 5.7794,15.9082 6.4814,17.0002 C8.3544,19.9112 10.4424,20.5002 11.4904,20.5002 C12.5394,20.5002 14.6274,19.9112 16.5004,17.0002 C17.2024,15.9082 17.5004,11.0002 17.5004,11.0002"/>
</svg>
