<svg xmlns="http://www.w3.org/2000/svg" width="24" height="24" viewBox="0 0 24 24">
  <path fill="none" stroke="#000" d="M18.5,12.5876 L18.5,19.4996 L5.5,19.4806 L5.5,12.4406 M5.5,15.49 L18.5,15.49 M5.5,17.49 L18.5,17.49 M16.4697,10.9997 C16.3737,11.8287 16.9677,12.5777 17.7967,12.6737 C18.6247,12.7697 19.3737,12.1757 19.4697,11.3467 C19.4837,11.2317 19.4837,11.1157 19.4697,10.9997 L19.4697,7.5097 L4.4997,7.5097 L4.4997,10.9997 C4.4497,11.7767 5.0397,12.4477 5.8167,12.4977 C5.8607,12.5007 5.9057,12.5007 5.9497,12.4997 C6.7247,12.5237 7.3817,11.8037 7.4397,11.0297 C7.4047,10.2247 8.0297,9.5427 8.8347,9.5077 C8.8897,9.5057 8.9457,9.5057 8.9997,9.5097 C9.8057,9.5037 10.4647,10.1937 10.4697,10.9997 C10.4697,11.0137 10.4697,10.9867 10.4697,10.9997 C10.3737,11.8287 10.9687,12.5777 11.7967,12.6737 C12.6247,12.7697 13.3737,12.1757 13.4697,11.3467 C13.4837,11.2317 13.4837,11.1157 13.4697,10.9997 C13.3737,10.1717 13.9677,9.5017 14.7967,9.4067 C15.6247,9.3107 16.3737,9.9047 16.4697,10.7327 L16.4697,10.9997 Z M7.5,7.51 L7.5,4 M16.5,7.51 L16.5,4 M13.5,7.51 L13.5,4 M10.5,7.51 L10.5,4"/>
</svg>
