<svg xmlns="http://www.w3.org/2000/svg" width="24" height="24" viewBox="0 0 24 24">
  <path fill="none" stroke="#000" d="M20.5,16.5 C20.5,18.157 16.471,19.5 11.5,19.5 C6.529,19.5 2.5,18.157 2.5,16.5 C2.5,14.843 6.529,13.5 11.5,13.5 C16.471,13.5 20.5,14.843 20.5,16.5 Z M13.5,8 C13.5,9.381 12.604,10.5 11.5,10.5 C10.396,10.5 9.5,9.381 9.5,8 C9.5,6.619 10.396,5.5 11.5,5.5 C12.604,5.5 13.5,6.619 13.5,8 Z M13.5,8 C13.5,9.381 12.604,10.5 11.5,10.5 C10.396,10.5 9.5,9.381 9.5,8 C9.5,6.619 10.396,5.5 11.5,5.5 C12.604,5.5 13.5,6.619 13.5,8 Z M18.5,9 C18.5,10.381 17.604,11.5 16.5,11.5 C15.396,11.5 14.5,10.381 14.5,9 C14.5,7.619 15.396,6.5 16.5,6.5 C17.604,6.5 18.5,7.619 18.5,9 Z M8.5,9 C8.5,10.381 7.604,11.5 6.5,11.5 C5.396,11.5 4.5,10.381 4.5,9 C4.5,7.619 5.396,6.5 6.5,6.5 C7.604,6.5 8.5,7.619 8.5,9 Z M14.4629,13.6699 C14.3339,12.0069 13.6629,10.6209 12.7409,9.9459 M10.2588,9.9463 C9.3368,10.6213 8.6668,12.0073 8.5368,13.6703 M10.2588,9.9463 C9.3368,10.6213 8.6668,12.0073 8.5368,13.6703 M8.8013,12.2275 C8.5163,11.6835 8.1553,11.2425 7.7453,10.9415 M5.2554,10.9429 C4.2484,11.6769 3.5394,13.2629 3.5074,15.1239 M19.4941,15.126 C19.4631,13.264 18.7561,11.675 17.7461,10.941 M15.2539,10.9409 C14.8419,11.2399 14.4829,11.6819 14.1979,12.2259"/>
</svg>
