<svg xmlns="http://www.w3.org/2000/svg" width="24" height="24" viewBox="0 0 24 24">
  <path fill="none" stroke="#000" d="M9.5308,8.1211 C9.1128,7.7351 8.5898,7.4981 7.9998,7.4981 C6.5758,7.4981 5.4998,8.8321 5.4998,10.5001 C5.4998,12.1671 6.5758,13.5001 7.9998,13.5001 C9.3138,13.5001 10.3198,12.3621 10.4698,10.8781 M10.4697,10.8784 C10.4827,10.7534 10.4997,10.6294 10.4997,10.5004 C10.4997,9.5224 10.1237,8.6684 9.5307,8.1214 M9.6641,12.7529 C12.1841,14.1989 13.2901,16.5489 13.5001,19.4999 L2.5001,19.4999 C2.5501,16.4739 3.8991,14.1329 6.3171,12.7409 M13.5303,6.1221 C13.1123,5.7361 12.5893,5.4991 12.0003,5.4991 C10.6863,5.4991 9.6813,6.6371 9.5303,8.1211 C10.1233,8.6681 10.5003,9.5221 10.5003,10.5001 C10.5003,10.6301 10.4823,10.7531 10.4693,10.8781 C10.8873,11.2641 11.4103,11.5011 12.0003,11.5011 C13.3133,11.5011 14.3193,10.3631 14.4693,8.8781 M16,3.499 C14.687,3.499 13.681,4.638 13.53,6.122 C14.124,6.669 14.5,7.523 14.5,8.501 C14.5,8.63 14.482,8.753 14.47,8.878 C14.888,9.264 15.411,9.501 16,9.501 C17.425,9.501 18.5,8.168 18.5,6.501 C18.5,4.833 17.425,3.499 16,3.499 Z M14.4697,8.8784 C14.4827,8.7534 14.4997,8.6304 14.4997,8.5014 C14.4997,7.5234 14.1237,6.6694 13.5307,6.1224 M13.666,10.752 C16.186,12.198 17.29,14.549 17.5,17.5 L13.176,17.5 M17.6699,8.7559 C20.1899,10.2029 21.2899,12.5489 21.4999,15.4999 L17.1899,15.4999"/>
</svg>
