<svg xmlns="http://www.w3.org/2000/svg" width="24" height="24" viewBox="0 0 24 24">
  <path fill="none" stroke="#000" d="M12.5,6 C12.5,7.914 11.228,9.5 9.5,9.5 C7.772,9.5 6.5,7.914 6.5,6 C6.5,4.086 7.772,2.5 9.5,2.5 C11.228,2.5 12.5,4.086 12.5,6 Z M7.5835,8.7148 C4.8895,10.7088 3.5965,13.5508 3.5005,17.4998 L10.0005,17.4998 M11.3804,8.7393 C12.6254,9.5993 13.4924,10.6113 14.0774,11.7363 M19.5,15.5 C19.5,17.172 18.172,18.5 16.5,18.5 C14.828,18.5 13.5,17.172 13.5,15.5 C13.5,13.828 14.828,12.5 16.5,12.5 C18.172,12.5 19.5,13.828 19.5,15.5 Z M17.5,15.499 C17.5,16.061 17.066,16.5 16.502,16.5 C15.938,16.5 15.5,16.061 15.5,15.499 C15.5,14.937 15.938,14.5 16.502,14.5 C17.066,14.5 17.5,14.937 17.5,15.499 Z M13.5547,16.1416 L10.4997,19.2496 L10.4997,21.4996 L12.7497,21.4996 L15.7917,18.4996"/>
</svg>
