<svg xmlns="http://www.w3.org/2000/svg" width="24" height="24" viewBox="0 0 24 24">
  <path fill="none" stroke="#000" d="M6.25,10.5 L8.75,10.5 L7.5,8.25 L6.25,10.5 Z M7.5,8.25 L7.5,5 M7.5,5 L12,3.5 L16.5,5 L12,6.495 L7.5,5 Z M9.5,5.6509 L9.5,7.7499 C10.78,8.9299 12.859,9.2379 14.5,7.7499 L14.5,5.6459 M9.6304,7.8525 C9.2344,8.4485 9.0004,9.1965 9.0004,9.9995 C9.0004,11.9085 10.3214,13.4995 11.9914,13.4995 C13.6624,13.4995 15.0004,11.9085 15.0004,9.9995 C15.0004,9.2065 14.7684,8.4685 14.3794,7.8765 M10.1353,12.7466 C7.4153,13.7386 5.5003,16.6426 5.5003,20.4946 L18.5003,20.4996 C18.5003,16.9676 16.6833,13.8116 13.8643,12.7356"/>
</svg>
