<svg xmlns="http://www.w3.org/2000/svg" width="24" height="24" viewBox="0 0 24 24">
  <path fill="none" stroke="#000" d="M15,10 C15,11.941 13.675,13.5 12,13.5 C10.325,13.5 9,11.941 9,10 C9,8.059 10.325,6.5 12,6.5 C13.675,6.5 15,8.059 15,10 Z M10.1025,12.7207 C7.2555,13.9727 5.4995,17.0317 5.4995,20.4997 L18.4995,20.4997 C18.4995,17.4467 17.0875,14.1557 13.8975,12.7207 M8.5,11.5 L7,11.5 C6.758,11.5 6.5,11.275 6.5,11 L6.5,9.006 C6.5,8.733 6.753,8.5 7,8.5 L8.5,8.5 L8.5,11.5 Z M12,11.5 L17,11.5 C17.293,11.5 17.5,11.321 17.5,11 L17.5,9 C17.5,8.718 17.345,8.5 17,8.5 L15.5,8.5 L15.5,11.5 M7.4868,8.438 C8.5748,3.106 15.6118,3.334 16.4208,8.459"/>
</svg>
