<svg xmlns="http://www.w3.org/2000/svg" width="24" height="24" viewBox="0 0 24 24">
  <g fill="none" fill-rule="evenodd">
    <path stroke="#000" d="M3.1,3 L21,20.9"/>
    <path fill="#000" d="M5.999,12.001 L5.999,11.004 L7.999,11.004 L7.999,12.004 L6,12.004 L6,13.001 L4.999,13.001 L4.999,12.001 L5.999,12.001 Z M3.999,14.0017 L4.999,14.0017 L4.999,16.0037 L2.999,16.0037 L2.999,15.0037 L3.999,15.0017 L3.999,14.002 L2.999,14.002 L2.999,12.001 L3.999,12.001 L3.999,14.0017 Z M6.999,8.001 L7.999,8.001 L7.999,9.001 L6.999,9.001 L6.999,10.0002 L4.999,10.0002 L4.999,9.0002 L4,9.0002 L4,8.0002 L3,8.0002 L3,6.0002 L4,6.0002 L4,7.0002 L5,7.0002 L5,9.0002 L6.999,9.0002 L6.999,8.0027 L5.999,8.0027 L5.999,6.0027 L4.999,5.9997 L4.999,4.9997 L5.585,4.9997 L7.589,7.0027 L6.999,7.0027 L6.999,8.001 Z M20,10.0032 L19,10.0032 L19,8.0012 L21,8.0012 L21,9.0012 L20,9.0032 L20,10.003 L21,10.003 L21,12.004 L20,12.004 L20,10.0032 Z M18.9999,15.0036 L18.9999,15.5856 L19.9999,16.5856 L19.9999,15.0036 L19,15.0036 L18.418,15.0036 L18,14.5856 L18,13.0036 L21,13.0036 L21,15.0036 L20,15.0036 L20,14.0036 L19,14.0036 L19,15.0036 Z M10.9995,5.0011 L10.9995,4.0011 L11.9995,4.0011 L11.9995,3.0031 L12.9995,3.0031 L12.9995,4.0011 L12.9995,5.0011 L12.9995,5.0031 L11.9995,5.0031 L11.9995,5.0011 L11.0001,5.0011 L11.0001,6.001 L9.4151,6.001 L8.4171,5.003 L8.9991,5.003 L8.9991,5.001 L11.0001,5.001 Z M14,10.0002 L13.414,10.0002 L12.414,9.0002 L15,9.0002 L15,11.5862 L14,10.5862 L14,10.0002 Z M14,13.9997 L14,13.4137 L15,14.4137 L15,14.9997 L9,14.9997 L9,8.9997 L9.586,8.9997 L10.586,9.9997 L10,9.9997 L10,13.9997 L14,13.9997 Z M11,13.0002 L11,11.0002 L11.585,11.0002 L13,12.4142 L13,13.0002 L11,13.0002 Z M6.9993,2.9949 L10.0003,2.9949 L10.0003,3.9959 L7.4093,3.9959 L6.9993,3.5859 L6.9993,2.9949 Z M20,7.003 L20,6.002 L21,6.002 L21,7.003 L20,7.003 Z M18,13.0012 L16.415,13.0012 L16,12.5862 L16,12.0012 L18,12.0012 L18,11.0032 L19,11.0032 L19,12.0032 L18,12.0032 L18,13.0012 Z M2.999,2.9953 L3.581,2.9953 L4.586,4.0013 L3.999,4.0033 L3.999,5.0033 L2.999,5.0033 L2.999,4.0033 L2.999,3.9953 L2.999,2.9953 Z M12.9995,7.0031 L12.9995,5.0031 L13.9995,5.0031 L13.9995,4.0031 L14.9995,4.0031 L14.9995,5.0011 L15.9995,5.0011 L15.9995,3.0031 L16.9995,3.0031 L16.9995,4.0011 L17.9995,4.0011 L17.9995,5.0011 L16.9995,5.0011 L16.9995,6.0011 L13.9995,6.0031 L13.9995,7.0031 L12.9995,7.0031 Z M18,8.0012 L18,9.0012 L17,9.0012 L17,9.0032 L16,9.0032 L16,7.0032 L17,7.0032 L17,8.0012 L18,8.0012 Z M17,21.005 L17,19.005 L18,19.005 L18,21.005 L17,21.005 Z M20,20.0017 L20,19.4137 L21,20.4137 L21,21.0047 L20,21.0047 L20,21.0017 L19,21.0017 L19,20.0017 L20,20.0017 Z M20,5.0031 L20,4.0011 L18,4.0011 L18,3.0011 L20,3.0011 L20,3.0031 L21,3.0031 L21,5.0031 L20,5.0031 Z M18,18.0015 L18.588,18.0015 L19.588,19.0015 L18,19.0015 L18,18.0015 Z M20.4156,17.0016 L20.9996,17.0016 L20.9996,17.5856 L20.4156,17.0016 Z M17,7.001 L17,6.001 L19,6.001 L19,7.001 L17,7.001 Z M11,21.002 L11,20.001 L13,20.001 L13,21.002 L11,21.002 Z M11.9995,8.0031 L11.4165,8.0031 L10.4145,7.0011 L10.9995,7.0011 L10.9995,6.0031 L11.9995,6.0031 L11.9995,7.0011 L11.9995,8.0011 L11.9995,8.0031 Z M9.9995,19.0017 L9.9995,18.0047 L10.9995,18.0047 L10.9995,19.0017 L10.9995,20.0017 L10.9995,20.0047 L9.9995,20.0047 L9.9995,20.0017 L8.9995,20.0017 L8.9995,19.0017 L9.9995,19.0017 Z M15,19.0046 L15,20.0016 L16,20.0016 L16,21.0016 L15,21.0016 L15,21.0046 L14,21.0046 L14,19.0046 L15,19.0046 Z M7.999,15.0017 L7.999,16.0017 L8.999,16.0017 L8.999,17.0017 L6.999,17.0017 L6.999,16.0037 L5.999,16.0037 L5.999,15.0037 L7.999,15.0017 Z M10,17.002 L10,16.002 L12,16.002 L12,17.002 L10,17.002 Z M16,11.001 L16,10.001 L18,10.001 L18,11.001 L16,11.001 Z M2.999,18.001 L2.999,17.001 L3.999,17.001 L3.999,18.001 L2.999,18.001 Z M14,8.002 L14,7.001 L15,7.001 L15,8.002 L14,8.002 Z M3.999,12.001 L3.999,11.001 L4.999,11.001 L4.999,12.001 L3.999,12.001 Z M2.999,11.001 L2.999,9.001 L3.999,9.001 L3.999,11.001 L2.999,11.001 Z M4.999,18.003 L4.999,17.003 L7,17.003 L7,18.003 L4.999,18.003 Z M6.999,19.0017 L6.999,18.0037 L8.999,18.0037 L8.999,19.0037 L7.999,19.0037 L7.999,21.0017 L6.999,21.0017 L6.999,20.0047 L5.999,20.0047 L5.999,19.0047 L6.999,19.0047 L6.999,19.0037 L6.999,19.0017 Z M3.999,19.0017 L3.999,20.0047 L5.999,20.0047 L5.999,21.0047 L3.999,21.0047 L3.999,21.0017 L2.999,21.0017 L2.999,19.0017 L3.999,19.0017 Z M5.999,14.004 L5.999,13.004 L7.999,13.004 L7.999,14.004 L5.999,14.004 Z M17.0001,17.0016 L17.0001,16.4136 L17.5881,17.0016 L17.0001,17.0016 Z M16,16.0017 L16,15.4137 L16.59,16.0037 L16,16.0037 L16,18.0017 L17,18.0017 L17,19.0017 L15,19.0017 L15,17.0017 L14,17.0017 L14,18.0037 L13,18.0037 L13,19.0037 L12,19.0037 L12,17.0037 L13,17.0037 L13,16.0037 L16,16.0017 Z"/>
  </g>
</svg>
