<svg xmlns="http://www.w3.org/2000/svg" width="24" height="24" viewBox="0 0 24 24">
  <g fill="none" fill-rule="evenodd">
    <path stroke="#000" d="M16.5,10.5007 L18,10.5007 L16.5,10.5007 L16.5,12.0007 L16.5,10.5007 Z M16.5,10.5007 L15,10.5007 L16.5,10.5007 L16.5,9.0007 L16.5,10.5007 Z M6,10.4997 L10,10.4997 L6,10.4997 Z M6,12.5002 L12,12.5002 L6,12.5002 Z M6,14.4997 L11,14.4997 L6,14.4997 Z"/>
    <path stroke="#000" stroke-dasharray="1 1" d="M18.5,17.4997 L5.5,17.4997 C4.396,17.4997 3.5,16.6037 3.5,15.4997 L3.5,8.4997 C3.5,7.3957 4.396,6.4997 5.5,6.4997 L18.5,6.4997 C19.604,6.4997 20.5,7.3957 20.5,8.4997 L20.5,15.4997 C20.5,16.6037 19.604,17.4997 18.5,17.4997 Z"/>
  </g>
</svg>
