<svg xmlns="http://www.w3.org/2000/svg" width="24" height="24" viewBox="0 0 24 24">
  <path fill="none" stroke="#000" d="M18,10.5007 L15,10.5007 M16.5,12.0007 L16.5,9.0007 M18.5,17.4997 L5.5,17.4997 C4.396,17.4997 3.5,16.6037 3.5,15.4997 L3.5,8.4997 C3.5,7.3957 4.396,6.4997 5.5,6.4997 L18.5,6.4997 C19.604,6.4997 20.5,7.3957 20.5,8.4997 L20.5,15.4997 C20.5,16.6037 19.604,17.4997 18.5,17.4997 Z M7.5,12.5002 C6.143,13.0302 5.5,14.0002 5.5,15.5002 L11.5,15.5002 C11.5,14.0002 10.857,13.0252 9.5,12.5002 L7.5,12.5002 Z M8.5,8.5002 C9.604,8.5002 10.5,9.3952 10.5,10.5002 C10.5,11.6042 9.604,12.5002 8.5,12.5002 C7.396,12.5002 6.5,11.6042 6.5,10.5002 C6.5,9.3952 7.396,8.5002 8.5,8.5002 Z"/>
</svg>
