<svg xmlns="http://www.w3.org/2000/svg" width="24" height="24" viewBox="0 0 24 24">
  <g fill="none" fill-rule="evenodd">
    <path stroke="#000" d="M18.5,11.4997 C18.5,9.7997 19.8,8.4997 21.5,8.4997 L21.5,4.4997 L17,4.4997 L2.5,4.4997 L2.5,18.4997 L21.5,18.4997 L21.5,14.4997 C19.8,14.4997 18.5,13.1997 18.5,11.4997 Z M8.4971,7.9973 C8.4971,8.8263 7.8261,9.4973 6.9971,9.4973 C6.1691,9.4973 5.4971,8.8263 5.4971,7.9973 C5.4971,7.1683 6.1691,6.4973 6.9971,6.4973 C7.8261,6.4973 8.4971,7.1683 8.4971,7.9973 Z M12.5,14.9997 C12.5,15.8287 11.828,16.4997 11,16.4997 C10.171,16.4997 9.5,15.8287 9.5,14.9997 C9.5,14.1717 10.171,13.4997 11,13.4997 C11.828,13.4997 12.5,14.1717 12.5,14.9997 Z M4.5,15.9997 L13.5,6.9997"/>
    <path stroke="#000" stroke-dasharray="1 1" d="M16.5,17.9997 L16.5,4.9997"/>
  </g>
</svg>
