<svg xmlns="http://www.w3.org/2000/svg" width="24" height="24" viewBox="0 0 24 24">
  <g fill="none" fill-rule="evenodd">
    <path stroke="#000" d="M18.5,11.4997 C18.5,9.7997 19.8,8.4997 21.5,8.4997 L21.5,4.4997 L17,4.4997 L2.5,4.4997 L2.5,18.4997 L21.5,18.4997 L21.5,14.4997 C19.8,14.4997 18.5,13.1997 18.5,11.4997 Z M10.0669,10.1657 L7.9329,12.8337 M11,7.5002 C11.828,7.5002 12.5,8.1712 12.5,9.0002 C12.5,9.8282 11.828,10.5002 11,10.5002 C10.171,10.5002 9.5,9.8282 9.5,9.0002 C9.5,8.1712 10.171,7.5002 11,7.5002 Z M7,12.4997 C7.828,12.4997 8.5,13.1717 8.5,13.9997 C8.5,14.8277 7.828,15.4997 7,15.4997 C6.171,15.4997 5.5,14.8277 5.5,13.9997 C5.5,13.1717 6.171,12.4997 7,12.4997 Z"/>
    <path stroke="#000" stroke-dasharray="1 1" d="M16.5,17.9997 L16.5,4.9997"/>
  </g>
</svg>
