<svg xmlns="http://www.w3.org/2000/svg" width="24" height="24" viewBox="0 0 24 24">
  <path fill="none" stroke="#000" d="M7.54,4.5 L5.46,4.5 C4.726,4.5 4.065,4.932 3.77,5.594 C3.038,7.231 2.5,7.891 2.5,8.675 L2.5,19.801 C2.5,20.739 3.271,21.5 4.224,21.5 L8.776,21.5 C9.728,21.5 10.5,20.739 10.5,19.801 L10.5,8.675 C10.5,7.891 9.962,7.231 9.23,5.594 C8.934,4.932 8.274,4.5 7.54,4.5 Z M2.5,18.5 L6.5,18.5 L6.5,10.5 L2.5,10.5 L2.5,18.5 Z M5.5,4.5 L7.5,4.5 L7.5,2.499 L5.5,2.499 L5.5,4.5 Z M17,21 C17.608,21.025 17.879,21.479 19,21.5 C20.531,21.5 21.5,19.5 21.5,16.596 C21.5,13.5 19.903,13.48 19,13.5 C17.825,13.5 18.062,14 17,14 C15.938,14 16.174,13.5 15,13.5 C14.096,13.48 12.5,13.5 12.5,16.596 C12.5,19.5 13.469,21.5 15,21.5 C16.121,21.479 16.392,21.025 17,21 Z M19.4688,10.5 C19.4688,10.5 16.9998,10.625 16.9998,14"/>
</svg>
