<svg xmlns="http://www.w3.org/2000/svg" width="24" height="24" viewBox="0 0 24 24">
  <g fill="none" fill-rule="evenodd">
    <path stroke="#000" d="M11.4995,2.5002 L3.4995,2.5002 L3.4995,8.5002 L11.4995,8.5002 L11.4995,5.8492 L12.4995,5.0002 L11.4995,4.0002 L11.4995,2.5002 Z M9.9995,4.4792 L4.9785,4.4792 M7.9995,6.4792 L4.9785,6.4792 M6.165,14.8493 C4.613,15.6753 3.5,17.8893 3.5,20.4993 L11.5,20.4993 C11.5,17.8893 10.387,15.6743 8.835,14.8493 M7.5,10.5002 C8.604,10.5002 9.5,11.6192 9.5,13.0002 C9.5,14.3802 8.604,15.5002 7.5,15.5002 C6.396,15.5002 5.5,14.3802 5.5,13.0002 C5.5,11.6192 6.396,10.5002 7.5,10.5002 Z M15.166,6.8493 C13.614,7.6743 12.5,9.8893 12.5,12.4993 L20.501,12.4993 C20.501,9.8893 19.388,7.6743 17.836,6.8493 M16.501,2.4997 C17.605,2.4997 18.501,3.6187 18.501,4.9997 C18.501,6.3807 17.605,7.4997 16.501,7.4997 C15.396,7.4997 14.501,6.3807 14.501,4.9997 C14.501,3.6187 15.396,2.4997 16.501,2.4997 Z"/>
    <polygon fill="#000" points="17 8.75 18 9.687 16.813 9.687 16.813 8.75 16.188 8.75 16.188 9.687 15 9.687 16 8.75 15.25 8.75 14 10 15.25 11.25 16 11.25 15 10.312 16.188 10.312 16.188 11.25 16.813 11.25 16.813 10.312 18 10.312 17 11.25 17.75 11.25 19 10 17.75 8.75"/>
  </g>
</svg>
