<svg xmlns="http://www.w3.org/2000/svg" width="24" height="24" viewBox="0 0 24 24">
  <path fill="none" stroke="#000" d="M9.4976,5.5002 C9.4976,6.0522 9.0496,6.5002 8.4976,6.5002 C7.9456,6.5002 7.4976,6.0522 7.4976,5.5002 C7.4976,4.9472 7.9456,4.5002 8.4976,4.5002 C9.0496,4.5002 9.4976,4.9472 9.4976,5.5002 Z M19,5.5002 L16,5.5002 C15.279,5.5002 14.594,5.8112 14.119,6.3542 L7.865,13.5002 L5,13.5002 C3.622,13.5002 2.5,14.6212 2.5,16.0002 C2.5,17.3782 3.622,18.5002 5,18.5002 L9,18.5002 C9.721,18.5002 10.407,18.1892 10.881,17.6462 L17.134,10.5002 L19,10.5002 C20.379,10.5002 21.5,9.3782 21.5,8.0002 C21.5,6.6222 20.379,5.5002 19,5.5002 Z M7.4981,13.4997 L7.4981,8.4997 L9.4981,8.4997 L9.4981,11.6337"/>
</svg>
