<svg xmlns="http://www.w3.org/2000/svg" width="24" height="24" viewBox="0 0 24 24">
  <path fill="none" stroke="#000" d="M17.5,7.4997 L17.5,9.9997 M19.501,5.5002 L19.501,4.0002 M4.4995,5.5002 L4.4995,4.0002 M19.5,9.4997 C19.5,10.6157 18.616,11.4997 17.5,11.4997 C16.385,11.4997 15.5,10.6157 15.5,9.4997 C15.5,8.3837 16.385,7.4997 17.5,7.4997 C18.616,7.4997 19.5,8.3837 19.5,9.4997 Z M2.5,19.5 L21.5,19.5 L21.5,5.5 L2.5,5.5 L2.5,19.5 Z M4,7.5002 L14,7.5002 M4,9.5002 L14,9.5002 M4,11.5002 L14,11.5002 M4,13.5007 L14,13.5007 M4,15.5007 L14,15.5007 M4,17.5007 L14,17.5007"/>
</svg>
