<svg xmlns="http://www.w3.org/2000/svg" width="24" height="24" viewBox="0 0 24 24">
  <path fill="none" stroke="#000" d="M14.5,12.5002 C14.5,14.1742 13.174,15.5002 11.5,15.5002 C9.826,15.5002 8.5,14.1742 8.5,12.5002 C8.5,10.8262 9.826,9.5002 11.5,9.5002 C13.174,9.5002 14.5,10.8262 14.5,12.5002 Z M3,8.5002 L7.5,8.5002 L7.5,4.0002 M3.25,4.2502 L7.5,8.5002 M15.5,4.0002 L15.5,8.5002 L20,8.5002 M19.75,4.2502 L15.5,8.5002 M20,16.4997 L15.5,16.4997 L15.5,20.9997 M19.75,20.7497 L15.5,16.4997 M7.5,20.9997 L7.5,16.4997 L3,16.4997 M3.25,20.7497 L7.5,16.4997"/>
</svg>
