<svg xmlns="http://www.w3.org/2000/svg" width="24" height="24" viewBox="0 0 24 24">
  <g fill="none" fill-rule="evenodd">
    <path stroke="#000" d="M2.5,12.0002 C2.51,6.7382 6.885,2.4902 12.329,2.5002 C16.156,2.5072 19.623,4.5892 21.237,7.9432 C21.343,8.1652 21.431,8.3952 21.5,8.6292 M21.5,4.0002 L21.5,8.5002 L17,8.5002 M21.5,12.0002 C21.479,17.2682 17.139,21.5202 11.708,21.5002 C7.918,21.4862 4.381,19.3082 2.762,15.9842 C2.657,15.7622 2.569,15.5332 2.5,15.2982 M2.5,19.9997 L2.5,15.4997 L7,15.4997"/>
    <path fill="#000" d="M9.1392,12.4314 L9.1392,12.3844 L9.1392,12.1084 C9.1392,12.0404 9.1432,11.8814 9.1532,11.6304 L9.1602,11.5824 L8.0452,11.5824 L8.4082,10.7474 L9.2552,10.7474 C9.3332,10.2944 9.4442,9.8694 9.5902,9.4744 C10.1962,7.8174 11.3042,6.9894 12.9122,6.9894 C14.0472,6.9894 15.0782,7.3464 16.0022,8.0604 L15.5172,9.1514 C15.1072,8.8824 14.7912,8.6824 14.5662,8.5524 C14.0192,8.2424 13.4612,8.0874 12.8922,8.0874 C11.8482,8.0874 11.1262,8.6954 10.7252,9.9124 C10.6252,10.2134 10.5542,10.4914 10.5132,10.7474 L14.8062,10.7474 L14.4302,11.5824 L10.3972,11.5824 C10.3882,11.8294 10.3832,12.0164 10.3832,12.1414 C10.3832,12.2044 10.3862,12.3014 10.3902,12.4314 L14.0602,12.4314 L13.6852,13.2664 L10.4862,13.2664 C10.5682,13.7294 10.7042,14.1604 10.8962,14.5604 C11.1282,15.0324 11.4062,15.3704 11.7302,15.5774 C12.0672,15.7924 12.4712,15.9004 12.9402,15.9004 C13.3282,15.9004 13.6722,15.8464 13.9722,15.7394 C14.2732,15.6304 14.7872,15.3794 15.5172,14.9844 L15.5172,16.3254 C15.3122,16.4414 15.1872,16.5114 15.1402,16.5344 C14.4712,16.8664 13.7052,17.0324 12.8442,17.0324 C10.8162,17.0324 9.6062,15.7774 9.2142,13.2664 L8.0452,13.2664 L8.4082,12.4314 L9.1392,12.4314 Z"/>
  </g>
</svg>
