<svg xmlns="http://www.w3.org/2000/svg" width="24" height="24" viewBox="0 0 24 24">
  <path fill="none" stroke="#000" d="M12.6445,17.0835 L12.6445,21.5835 L11.1445,21.5835 C11.1445,21.5835 9.9915,17.0835 11.1445,12.5835 L15.6445,12.5835 C15.6445,12.5835 16.2375,14.9785 17.7125,17.1395 C19.1885,19.3005 21.4975,18.8425 21.6445,21.5835161 L17.6445,21.5835 C17.0505,21.5835 16.0575,21.6135 14.6445,19.0835 C13.1605,16.3645 10.6445,16.5805 10.6445,16.5805 M17.1445,11.0835 L17.1445,9.5835 L19.6445,10.5835 L21.6445,6.5835 L15.6445,2.5835 C15.6445,2.5835 13.8085,3.5835 12.1445,3.5835 C10.4815,3.5835 8.6445,2.5835 8.6445,2.5835 L2.6445,6.5835 L4.6445,10.5835 L7.1445,9.5835 L7.6445,19.5835 L9.1445,19.5835"/>
</svg>
