<svg xmlns="http://www.w3.org/2000/svg" width="24" height="24" viewBox="0 0 24 24">
  <g fill="none" fill-rule="evenodd">
    <path stroke="#000" d="M8.5,9.9997 L8.5,5.4997 C8.5,3.8427 9.843,2.4997 11.5,2.4997 C13.157,2.4997 14.5,3.8427 14.5,5.4997 L14.5,9.9997 M5.5,7.5002 L4.5,20.5002 L18.5,20.5002 L17.5,7.5002 L5.5,7.5002 Z M11.5,12.0002 L11.5,17.0002"/>
    <path stroke="#000" stroke-dasharray="1 1" d="M15.5,14.4997 C15.5,12.2907 13.709,10.4997 11.5,10.4997 C9.291,10.4997 7.5,12.2907 7.5,14.4997 C7.5,16.7087 9.291,18.4997 11.5,18.4997 C13.709,18.4997 15.5,16.7087 15.5,14.4997 Z"/>
  </g>
</svg>
