<svg xmlns="http://www.w3.org/2000/svg" width="24" height="24" viewBox="0 0 24 24">
  <path fill="none" stroke="#000" d="M4,16.8874 C3.053,17.3554 2.5,17.9084 2.5,18.4994 C2.5,20.1444 6.732,21.4994 12,21.4994 C17.269,21.4994 21.5,20.1444 21.5,18.4994 C21.5,17.9084 20.947,17.3554 20,16.8884 M11,8.0002 L12,9.0002 L13.5,7.5002 M15.5,9.0002 C15.5,10.9532 13.953,12.5002 12,12.5002 C10.047,12.5002 8.5,10.9532 8.5,9.0002 C8.5,7.0472 10.047,5.5002 12,5.5002 C13.953,5.5002 15.5,7.0472 15.5,9.0002 Z M5.5,5.3 L5.5,18.5 L9.5,18.5 L9.5,15.509 L14.5,15.509 L14.5,18.5 L18.5,18.5 L18.5,5.3 C12.528,2.863 11.529,2.905 5.5,5.3 Z"/>
</svg>
