<svg xmlns="http://www.w3.org/2000/svg" width="24" height="24" viewBox="0 0 24 24">
  <path fill="none" stroke="#000" d="M6.4995,5.5002 C6.4995,6.0522 6.0515,6.5002 5.4995,6.5002 C4.9475,6.5002 4.4995,6.0522 4.4995,5.5002 C4.4995,4.9472 4.9475,4.5002 5.4995,4.5002 C6.0515,4.5002 6.4995,4.9472 6.4995,5.5002 Z M7.4995,13.4997 L7.4995,8.4997 L3.4995,8.4997 L3.4995,13.4997 L4.4995,13.4997 L4.4995,19.4997 L6.4995,19.4997 L6.4995,13.4997 L7.4995,13.4997 Z M18.5,15.4997 L18.5,19.4997 L16.5,19.4997 L16.5,15.4997 M18.5,5.5002 C18.5,6.0522 18.053,6.5002 17.5,6.5002 C16.948,6.5002 16.5,6.0522 16.5,5.5002 C16.5,4.9472 16.948,4.5002 17.5,4.5002 C18.053,4.5002 18.5,4.9472 18.5,5.5002 Z M20.5,15.4997 L18.5,8.4997 L16.5,8.4997 L14.5,15.4997 L20.5,15.4997 Z M11.5,4.0002 L11.5,20.0002"/>
</svg>
