<svg xmlns="http://www.w3.org/2000/svg" width="24" height="24" viewBox="0 0 24 24">
  <g fill="none" fill-rule="evenodd">
    <path stroke="#000" d="M18.998,9.0006 C18.998,9.2766 18.774,9.5006 18.498,9.5006 C18.223,9.5006 17.998,9.2766 17.998,9.0006 C17.998,8.7246 18.223,8.5006 18.498,8.5006 C18.774,8.5006 18.998,8.7246 18.998,9.0006"/>
    <path stroke="#000" d="M18.998,9.0006 C18.998,9.2766 18.774,9.5006 18.498,9.5006 C18.223,9.5006 17.998,9.2766 17.998,9.0006 C17.998,8.7246 18.223,8.5006 18.498,8.5006 C18.774,8.5006 18.998,8.7246 18.998,9.0006 Z M3,19.5001 L15.501,19.5001 L15.501,16.5001 L21,16.5001 M11.6426,6.5001 C12.9266,6.5001 13.4996,7.0481 13.4996,8.2781 L13.4996,17.5001 L3.4996,17.5001 L3.4996,8.2781 C3.4996,7.0481 4.0736,6.5001 5.3576,6.5001 L11.6426,6.5001 M13.5,12.5001 L3.5,12.5001 M11.5,3.5001 L5.5,3.5001 M10,8.5006 L7,8.5006 M4.5,17.5001 L4.5,19.5001 M12.5,17.5001 L12.5,19.5001 M10,3.5001 L8.5,5.7901 L7,3.5001 M11.5,15.0001 C11.5,15.2761 11.275,15.5001 11,15.5001 C10.724,15.5001 10.5,15.2761 10.5,15.0001 C10.5,14.7241 10.724,14.5001 11,14.5001 C11.275,14.5001 11.5,14.7241 11.5,15.0001 Z M6.5,15.0001 C6.5,15.2761 6.275,15.5001 6,15.5001 C5.724,15.5001 5.5,15.2761 5.5,15.0001 C5.5,14.7241 5.724,14.5001 6,14.5001 C6.275,14.5001 6.5,14.7241 6.5,15.0001 Z M19.5,13.0001 L19.5,10.5001 L17.5,10.5001 L17.5,13.0001 L18,13.0001 L18,16.0001 L19,16.0001 L19,13.0001 L19.5,13.0001 Z"/>
  </g>
</svg>
