<svg xmlns="http://www.w3.org/2000/svg" width="48" height="48" viewBox="0 0 48 48"><path fill="none" stroke="#000" stroke-miterlimit="10" d="M17.5 34.4999352V8.5l-10 1.9817705V34.5M23.5 41V12.5h13.0000648V41M25 12.5l1-3h8l1 3" vector-effect="non-scaling-stroke"/><path fill="none" stroke="#000" stroke-miterlimit="10" d="M36.5000648 20.5H42.5V41M36.5 17.5h4v3M36.5000648 38.5002518H42.5M23.5 37.5h13.0000648M23.5 17.5h-4v17M21.5 41v-6.5h-16V41M5.5 38.5h16M9.5 13.0000629V15M12.5001888 13.0000629V15M15.5003777 13.0000629V15M9.5 17.0003147v1.9999371M12.5001888 17.0003147v1.9999371M15.5003777 17.0003147v1.9999371M9.5 21.0005665v1.999937M12.5001888 21.0005665v1.999937M15.5003777 21.0005665v1.999937M9.5 25.0008183v1.999937M12.5001888 25.0008183v1.999937M15.5003777 25.0008183v1.999937M9.5 29.00107v1.9999371M12.5001888 29.00107v1.9999371M15.5003777 29.00107v1.9999371M25.5010071 14.0001259v1.999937M28.5011959 14.0001259v1.999937M31.5013866 14.0001259v1.999937M25.5010071 18.0003777v1.999937M28.5011959 18.0003777v1.999937M31.5013866 18.0003777v1.999937M25.5010071 22.0006294v1.9999371M28.5011959 22.0006294v1.9999371M31.5013866 22.0006294v1.9999371M25.5010071 26.0008812v1.9999371M28.5011959 26.0008812v1.9999371M31.5013866 26.0008812v1.9999371M25.5010071 30.001133v1.9999389M28.5011959 30.001133v1.9999389M31.5013866 30.001133v1.9999389M34.5015755 14.0001259v1.999937M34.5015755 18.0003777v1.999937M34.5015755 22.0006294v1.9999371M34.5015755 26.0008812v1.9999371M34.5015755 30.001133v1.9999389M25.5010071 34.0013847v1.999939M28.5011959 34.0013847v1.999939M31.5013866 34.0013847v1.999939M34.5015755 34.0013847v1.999939M9.5 33.0013237v1.5M12.5001888 33.0013237v1.5M15.5003777 33.0013237v1.5M38.5018272 22.0006294v1.9999371M38.5018272 26.0008812v1.9999371M38.5018272 30.001133v1.9999389M40.5019531 22.0006294v1.9999371M40.5019531 26.0008812v1.9999371M40.5019531 30.001133v1.9999389M38.5018272 34.0013847v1.999939M40.5019531 34.0013847v1.999939" vector-effect="non-scaling-stroke"/></svg>