<svg xmlns="http://www.w3.org/2000/svg" width="48" height="48" viewBox="0 0 48 48"><path fill="none" stroke="#000" stroke-miterlimit="10" d="M17.9998741 32.5l2.4999676 6.0002365M6.5000944 38.5002365L9 32.5M20.4996529 35.5000458H6.5002832M21.9997482 38.5002365H5.0001888" vector-effect="non-scaling-stroke"/><circle cx="10.5001574" cy="28.5000629" r="1" fill="none" stroke="#000" stroke-miterlimit="10" vector-effect="non-scaling-stroke"/><circle cx="16.4997787" cy="28.5000954" r="1" fill="none" stroke="#000" stroke-miterlimit="10" vector-effect="non-scaling-stroke"/><path fill="none" stroke="#000" stroke-miterlimit="10" d="M17 16.5H9.9998741M9.7355766 13.5C6.9111476 13.5 5.5 14.9453049 5.5 17.7749996V32.5h16V17.7749996S20.0888519 13.5 17.2644234 13.5H9.7355766zM21.5 24.5001888h-16M17.9998741 9.5002747L9 9.5M13.4999685 13.5l-1.999937-4M27.4998112 14.5c0-.8284273-.6715736-1.5-1.5-1.5s-1.5.6715727-1.5 1.5v24h3v-24zM33.5001907 14.5c0-.8284273-.6715736-1.5-1.5-1.5-.8284283 0-1.5000019.6715727-1.5000019 1.5v24h3.0000019v-24zM38.3274879 37.6167717l-2.954422-.5209465M41.4101639 13.1669178L36.5897751 38.833313M40.6726379 37.6167717l2.954422-.5209465M37.589962 13.1669178l4.8203888 25.6663952M37.3718834 17.3304539l-.5634766-3M42.1917076 14.3304539l-.5634766 3M15.4999056 9.5l-1.9999371 4" vector-effect="non-scaling-stroke"/></svg>