<svg xmlns="http://www.w3.org/2000/svg" width="48" height="48" viewBox="0 0 48 48"><path fill="none" stroke="#000" stroke-miterlimit="10" d="M27.7883549 34.3000526l-5.2892952-6.8001155h5l-7-8.9999371h2.9998741l-5.013607-6.5722008" vector-effect="non-scaling-stroke"/><path fill="none" stroke="#000" stroke-miterlimit="10" d="M14.5127916 11.9278603L9.4993067 18.5h2.9998741l-6.9999995 8.9999371h4.9999995l-6.9999998 8.999937h24.1669472" vector-effect="non-scaling-stroke"/><path fill="none" stroke="#000" stroke-miterlimit="10" d="M16.4991188 5.5001888l1.0000629 2.9999371h2.9999371l-2.4999371 2 1 3.0000629-2.5000629-2.0000629-2.499938 2.0000629 1-3.0000629-2.5000629-2h3.0000629zM16.4991207 40v-3.5001259M28.5 21.4920101l-.7116451 12.8080425-.2884808 5.1920205h16L42.5 21.4920101z" vector-effect="non-scaling-stroke"/><path fill="none" stroke="#000" stroke-miterlimit="10" d="M37.4944992 24.9920731L37.5 17.4918213c0-1.1045685-.8954315-1.999999-2-1.999999s-2 .8954306-2 1.999999v7.5002518" vector-effect="non-scaling-stroke"/></svg>