<svg xmlns="http://www.w3.org/2000/svg" width="48" height="48" viewBox="0 0 48 48"><path fill="none" stroke="#000" stroke-miterlimit="10" d="M5.8561158 37.993988L16 20.0001259l6.1927128 5.1604977M28.3233852 15.4999371L42.0000648 37M20 29.0002518l7.7096844-13.5003147M15 38.0000648l4-6.9999389 5 3.5h6l3.3225136 3.4938621M23 23.4999371l2.5 2L28.5 23.5l3 1.9999371 2-2" vector-effect="non-scaling-stroke"/><path fill="none" stroke="#000" stroke-miterlimit="10" d="M20.3277187 23.6058254c.1128331-.5173073.1722813-1.0545616.1722813-1.6056995 0-4.1421356-3.3578644-7.5-7.5-7.5s-7.5 3.3578644-7.5 7.5c0 3.3654842 2.2167125 6.2132263 5.2697239 7.1628132M25.1663456 11.2196989c-2.1397438 0-2.5653439 4.2802382.7996063 4.2802382h6.9965534c3.3192253 0 3.1984253-4.2802382.6996536-4.1806974 1.0994606-3.6829944-3.7981281-5.3751822-5.29739-1.9908085-1.3199996-1.0767213-3.4304256-.0422078-3.1984233 1.8912677z" vector-effect="non-scaling-stroke"/></svg>