<svg xmlns="http://www.w3.org/2000/svg" viewBox="0 0 40 40"><g fill="none" fill-rule="evenodd"><path fill="#000" d="M0 20C0 9 9 0 20 0s20 9 20 20-9 20-20 20S0 31 0 20z"/><path fill="#FFF" d="M9 15.944c0 2.64 1.008 4.608 3.96 4.608 2.808 0 4.056-1.896 4.056-4.512 0-2.64-.96-4.848-3.936-4.848-2.808 0-4.08 2.136-4.08 4.752zm2.448.048c0-1.104.096-3 1.632-3 1.416 0 1.488 2.088 1.488 3.024 0 1.008-.096 2.736-1.584 2.736-1.536 0-1.536-1.728-1.536-2.76zm9.936 7.944c0 2.64 1.008 4.728 3.96 4.728 2.808 0 4.056-2.016 4.056-4.632 0-2.64-.96-4.728-3.936-4.728-2.808 0-4.08 2.016-4.08 4.632zm2.448.024c0-1.104.096-2.856 1.632-2.856 1.416 0 1.488 1.944 1.488 2.88 0 1.008-.096 2.88-1.584 2.88-1.536 0-1.536-1.872-1.536-2.904zm-10.536 4.896h2.088L25.272 11h-2.04l-9.936 17.856z"/></g></svg>