<svg xmlns="http://www.w3.org/2000/svg" width="48" height="48" viewBox="0 0 48 48"><path fill="none" stroke="#000" stroke-miterlimit="10" d="M25.501133 34.5002518l1.0000629-8.9998741h5.999876l1.0000611 8.9998741" vector-effect="non-scaling-stroke"/><circle cx="9.4998741" cy="12.4999371" r="2" fill="none" stroke="#000" stroke-miterlimit="10" vector-effect="non-scaling-stroke"/><path fill="none" stroke="#000" stroke-miterlimit="10" d="M7.5001812 27.5005035v12.4986153M11.500433 27.5005035v12.4986153M5.4998741 29.4999371v-12.000063h8v12.000063M5.4998741 27.5005035h8" vector-effect="non-scaling-stroke"/><circle cx="29.501133" cy="20.5004406" r="2" fill="none" stroke="#000" stroke-miterlimit="10" vector-effect="non-scaling-stroke"/><path fill="none" stroke="#000" stroke-miterlimit="10" d="M27.50144 32.5008202v7.4982986M31.5016937 32.5008202v7.4982986M25.7233105 32.5008202h7.5556469M35.5017624 34.5002518l1.0000648-8.9998741h5.9998742l1.000061 8.9998741" vector-effect="non-scaling-stroke"/><circle cx="39.5017624" cy="20.5004406" r="2" fill="none" stroke="#000" stroke-miterlimit="10" vector-effect="non-scaling-stroke"/><path fill="none" stroke="#000" stroke-miterlimit="10" d="M37.5020714 32.5008202v7.4982986M41.5023232 32.5008202v7.4982986M35.7239418 32.5008202h7.555645M15.5005035 34.5002518l1.000063-8.9998741h5.9998741l1.0000629 8.9998741" vector-effect="non-scaling-stroke"/><circle cx="19.5005035" cy="20.5004406" r="2" fill="none" stroke="#000" stroke-miterlimit="10" vector-effect="non-scaling-stroke"/><path fill="none" stroke="#000" stroke-miterlimit="10" d="M17.5008106 32.5008202v7.4982986M21.5010624 32.5008202v7.4982986M15.7226801 32.5008202h7.5556478" vector-effect="non-scaling-stroke"/></svg>