<svg xmlns="http://www.w3.org/2000/svg" width="48" height="48" viewBox="0 0 48 48"><path fill="none" stroke="#000" stroke-miterlimit="10" d="M17.4998741 33.5001259v8.522747M16.9998741 12.5001259c-2.9678202.2704496-5.7011948 2.9454947-6.5 6.5" vector-effect="non-scaling-stroke"/><path fill="none" stroke="#000" stroke-miterlimit="10" d="M19.5006104 18.499939c0-2.9661865.9013672-5.6759644 2.3873291-7.7702637-1.3261719-.7797241-2.8116455-1.2295532-4.3880615-1.2295532-5.5228271 0-10 5.3725586-10 12 0 6.6273804 4.4771729 12 10 12 3.0510254 0 5.7784424-1.6446533 7.6126709-4.2297363-3.3201905-1.9519044-5.6119385-6.0347901-5.6119385-10.7704468z" vector-effect="non-scaling-stroke"/><path fill="none" stroke="#000" stroke-miterlimit="10" d="M25.1125488 29.2703857c1.3261719.7797241 2.8116455 1.2295532 4.3880615 1.2295532 5.5228271 0 10-5.3726196 10-12 0-6.6274414-4.4771729-12-10-12-3.0510254 0-5.7784424 1.6446533-7.6126709 4.2297363M29.5006294 30.4999371v11.5229358M29.0006294 9.4999371c-2.9678192.2704496-5.7011948 2.9454947-6.5 6.5" vector-effect="non-scaling-stroke"/></svg>