<svg xmlns="http://www.w3.org/2000/svg" width="48" height="48" viewBox="0 0 48 48"><path fill="none" stroke="#000" stroke-miterlimit="10" d="M16.4987946 26.4998741v-2.53582c1.2249756-1.0985718 2.0002441-2.6885986 2.0002441-4.463562v-7.5003014c0-.8284302-.6715698-1.5-1.5-1.5s-1.499999.6715698-1.499999 1.5v6.9999981h-.0001831v-1.9996967c0-.8284302-.6715698-1.5-1.5-1.5s-1.5.6715698-1.5 1.5v1.9996967h-.0001831v-1.9996967c0-.8284302-.6715698-1.5-1.5-1.5s-1.5.6715698-1.5 1.5l-.0001831 1.9996967v-6.9999981c0-.8284302-.6715698-1.5-1.5-1.5s-1.5.6715698-1.5 1.5l-.0001831 7.5003014c0 1.7750854.7753296 3.3652344 2.0004883 4.4638062v2.5355759M17.4985504 37.4236374L7.4985514 37.5V26.5000629h9.999999zM7.4985514 28.5001888h9.999999M9.4985514 31.0001259v6.4996834" vector-effect="non-scaling-stroke"/><circle cx="25.00107" cy="33" r="3.5" fill="none" stroke="#000" stroke-miterlimit="10" vector-effect="non-scaling-stroke"/><circle cx="38.0018883" cy="28.9997482" r="3.5" fill="none" stroke="#000" stroke-miterlimit="10" vector-effect="non-scaling-stroke"/><path fill="none" stroke="#000" stroke-miterlimit="10" d="M28.50107 33V15.4432936l13.0008183-2.9436388v16.8096046M28.50107 18.4434834l13.0008183-2.9436398" vector-effect="non-scaling-stroke"/></svg>