<?xml version="1.0" encoding="UTF-8"?>
<svg width="72px" height="28px" viewBox="0 0 72 28" version="1.1" xmlns="http://www.w3.org/2000/svg" xmlns:xlink="http://www.w3.org/1999/xlink">
    <g stroke="none" stroke-width="1" fill="none" fill-rule="evenodd">
        <g transform="translate(0.000000, -15.000000)" fill-rule="nonzero">
            <rect fill="#003399" opacity="0" x="2" y="0" width="64" height="64"></rect>
            <path d="M57.8243536,30.2744221 C57.0424575,30.2744221 56.4518983,29.6856133 56.4518983,28.904274 C56.4518983,28.110842 57.0613127,27.5124066 57.8692243,27.5124066 C58.6771359,27.5124066 59.2637171,28.0977945 59.2637171,28.904274 C59.2760486,29.2672972 59.1473238,29.6085215 58.8998188,29.8596066 C58.6364818,30.1270807 58.2543646,30.2744221 57.8243536,30.2744221 L57.8243536,30.2744221 Z M40.7535912,42.7618475 L40.7535912,35.236137 C40.7535912,33.8498387 40.7263823,32.8256884 40.664884,31.9168972 L40.6514387,31.7261171 L42.7514519,31.7261171 L42.8045967,33.3767867 C43.3548994,32.3264619 44.3223249,31.6228508 45.4108376,31.5041503 L45.4108376,31.4899094 L45.5932641,31.4837039 L46.7323757,31.4837039 L46.7323757,33.2926144 L45.6293039,33.2926144 C44.3730033,33.2926144 43.4257856,34.1914608 43.1583912,35.638621 C43.1157481,35.8908994 43.0714343,36.1937768 43.0714343,36.5111337 L43.0714343,42.7618475 L40.7535912,42.7618475 L40.7535912,42.7618475 Z M56.698926,42.7618475 L59.0392044,42.7618475 L59.0392044,31.7261171 L56.698926,31.7261171 L56.698926,42.7618475 Z M61.2976177,42.7618475 L63.6374983,42.7618475 L63.6374983,26.740137 L61.2976177,26.740137 L61.2976177,42.7618475 Z M52.1054055,37.309021 C49.381737,37.309021 48.0015646,38.0590939 48.0015646,39.5384751 C48.0015646,40.7729768 48.8703381,41.2126939 49.6835006,41.2126939 C51.0684464,41.2126939 51.871505,40.3153591 52.1383425,39.5469878 C52.2046939,39.3522298 52.2412906,39.1527779 52.2412906,38.9868199 L52.2412906,37.3095779 C52.195863,37.309021 52.1509127,37.309021 52.1054055,37.309021 L52.1054055,37.309021 Z M49.1666917,43.0044199 C46.8653171,43.0044199 45.6611271,41.3716508 45.6611271,39.7590895 C45.6611271,37.1008972 47.9809591,35.6285967 52.195863,35.6091845 L52.195863,35.5671779 C52.195863,34.1752309 51.5489768,33.4097238 50.2728663,33.2916597 L48.0250343,33.2926144 L48.0250343,31.4837039 L50.4770917,31.4837039 L50.4770917,31.4922166 C53.8073901,31.620305 54.5137061,34.0199337 54.5137061,36.0307624 L54.5137061,40.0236199 C54.5137061,41.0822983 54.5709083,41.9085878 54.6896088,42.5508597 L54.7293083,42.7618475 L52.552442,42.7618475 L52.4188641,41.6147801 C51.6469923,42.4907138 50.4576,43.0044199 49.1666917,43.0044199 L49.1666917,43.0044199 Z" id="Shape" fill="#84BF41"></path>
            <path d="M0,42.7618475 L2.31776354,42.7618475 L2.31776354,27.5342055 L0,27.5342055 L0,42.7618475 Z M11.9839823,42.7618475 L11.9839823,36.4276773 C11.9839823,35.0696221 11.5794298,33.4515713 9.65110276,33.4515713 C8.34094144,33.4515713 7.46365525,34.385105 7.17549613,35.3109215 C7.09363094,35.531695 7.04883978,35.8388685 7.04883978,36.1627492 L7.04883978,42.7618475 L4.70864088,42.7618475 L4.70864088,34.7949083 C4.70864088,33.5968442 4.68175028,32.7363448 4.61945635,31.918011 L4.60465856,31.7261171 L6.72304972,31.7261171 L6.81485967,33.1634917 C7.45363094,32.2901039 8.62790718,31.4837039 10.3026829,31.4837039 C10.9741525,31.4837039 14.3243403,31.7113193 14.3243403,36.207063 L14.3243403,42.7618475 L11.9839823,42.7618475 L11.9839823,42.7618475 Z M33.7943337,42.7618475 L33.7943337,35.236137 C33.7943337,33.8498387 33.7671249,32.8256884 33.7051492,31.9168972 L33.6920221,31.7261171 L35.792274,31.7261171 L35.8452597,33.3767867 C36.3957215,32.3264619 37.3623514,31.6228508 38.451421,31.5041503 L38.451421,31.4899094 L38.6332906,31.4837039 L39.7725613,31.4837039 L39.7725613,33.2926144 L38.6698873,33.2926144 C37.4132685,33.2926144 36.4666077,34.1914608 36.1984177,35.638621 C36.1560133,35.8908994 36.1122564,36.1937768 36.1122564,36.5111337 L36.1122564,42.7618475 L33.7943337,42.7618475 L33.7943337,42.7618475 Z M19.9372376,43.0044199 C18.9892243,43.0044199 18.1831425,42.6849149 17.6670497,42.1047779 C17.1171448,41.543337 16.8579448,40.6209414 16.8579448,39.2076729 L16.8579448,33.5615204 L15.174179,33.5615204 L15.174179,31.7261171 L16.8579448,31.7261171 L16.8579448,29.8102807 L19.1527956,29.1019757 L19.1527956,31.7261171 L21.9829127,31.7261171 L21.9829127,33.5615204 L19.1527956,33.5615204 L19.1527956,39.1414011 C19.1527956,40.4697017 19.5419934,41.0362343 20.4534099,41.0362343 C20.9428508,41.0362343 21.2487514,41.0013083 21.5453436,40.911726 L21.7661171,40.8450564 L21.877737,42.6554785 L21.7572862,42.704168 C21.4797878,42.8161856 20.8744309,43.0044199 19.9372376,43.0044199 L19.9372376,43.0044199 Z M29.9632972,36.0280575 C29.9490564,35.5511867 29.8321061,34.5546431 29.1606365,33.8831735 C28.7283978,33.4500597 28.1383956,33.2309569 27.4072575,33.2309569 C25.546316,33.2309569 24.7763536,34.9041414 24.5850166,36.0280575 L29.9632972,36.0280575 L29.9632972,36.0280575 Z M27.811253,43.0044199 C24.4543823,43.0044199 22.2845967,40.8122785 22.2845967,37.4203227 C22.2845967,33.9247823 24.4554961,31.4837039 27.5644641,31.4837039 C29.1865724,31.4837039 30.4758099,32.126453 31.2919956,33.342895 C32.1454144,34.6134365 32.237463,36.108411 32.237463,36.6922077 C32.237463,37.0442519 32.2038099,37.3235006 32.1797039,37.5273282 L32.1508243,37.7758674 L24.5413392,37.7758674 C24.6462762,39.8768354 25.9586652,41.1244641 28.0804773,41.1244641 C29.530979,41.1244641 30.3493923,40.8662188 31.0186343,40.5876066 L31.216495,40.5049459 L31.6386298,42.2438453 L31.5016309,42.304389 C30.782347,42.6238939 29.5574718,43.0044199 27.811253,43.0044199 L27.811253,43.0044199 Z" fill="#0D173B"></path>
            <path d="M59.6093967,16.5158983 C59.5655602,16.4952133 59.8097238,16.5457326 60.2414851,16.6624442 C60.2532597,16.6089812 60.2615337,16.457821 60.2615337,16.4306121 C59.9257989,16.380411 59.5604685,16.374842 59.1462099,16.4911558 C59.5021525,16.8564862 59.8060641,16.6263249 59.6093967,16.5158983 L59.6093967,16.5158983 Z M69.6350586,16.1999735 L68.2728663,16.2915447 C68.3383425,16.3158099 68.4051713,16.3405525 68.4747845,16.3656928 C68.3144751,16.3497017 68.5850519,16.3886851 68.8977149,16.4261569 C69.0635934,16.4406365 69.2175381,16.4486718 69.3376707,16.4730961 C69.3932022,16.4870188 69.4606674,16.4971226 69.4897856,16.5177282 C69.5033901,16.5277525 69.5148464,16.5371403 69.5248707,16.5470055 L69.5384751,16.5608486 L69.5440442,16.5676111 C69.5422939,16.5812155 69.5523978,16.5401635 69.5585238,16.5182851 L69.5612287,16.5094541 C69.5555801,16.5277525 69.5504884,16.5487558 69.5434873,16.5726232 C69.5387934,16.591558 69.5399867,16.5801017 69.5372022,16.5859094 C69.5310762,16.5921945 69.2466564,16.5959337 68.9667713,16.5670541 C68.6983425,16.5268773 68.3809856,16.4707889 68.0155757,16.4291801 C67.6571669,16.3995845 67.2597746,16.3718188 66.8451978,16.3916287 C66.430621,16.412632 66.002758,16.4627536 65.5896133,16.5567116 C64.7723138,16.7630851 64.1379182,16.6780376 63.289989,16.7826563 C63.2510055,16.7879072 62.9403315,16.8198099 62.8251315,16.8448707 C62.611916,16.8758983 62.0822983,17.0569724 61.9579492,17.0619845 C61.9865901,17.2494232 61.6425812,17.1927779 61.4828287,17.1567381 C61.4731227,17.2105193 61.4834652,17.2668464 61.4529945,17.3185591 C61.4326276,17.3164906 61.2324597,17.3857856 61.1881459,17.3997083 C60.9838409,17.4869039 60.7328354,17.3852287 60.5113459,17.3421878 C60.5113459,17.3421878 60.5052199,17.2110762 60.4950365,17.1919028 C59.4308685,17.600274 58.0794166,18.0585282 57.884579,17.1717746 C58.2755271,18.9444066 50.2600575,17.6861171 49.9514519,19.8943293 C49.9446099,19.9400751 52.951505,19.0855425 53.4729282,18.9564994 C49.4053657,20.6186254 46.6693657,23.1985326 42.5439646,24.7779978 C40.0792575,25.7786785 36.5639072,26.8904221 34.211695,24.8663072 C32.9354254,23.7687249 31.9613171,21.7264707 31.0521282,20.5861657 C30.4493967,19.8305238 29.7378298,19.3193635 28.9463867,19.0055072 C29.3161724,18.9689105 29.6743425,18.9514873 30.0182718,18.9570563 C32.1736575,18.9972331 34.0750144,20.1796243 34.6380464,20.6903867 C38.7823028,24.2245923 43.4841017,19.8006895 47.4486365,18.3074652 C47.7450696,18.3086586 48.4607735,18.2610829 48.435474,18.2501834 C48.7085967,18.1010917 49.0027227,17.9522387 49.304168,17.8075226 C49.0715403,17.8674298 48.8331845,17.8873193 48.5961017,17.9020376 C49.0263514,17.7623337 49.4151514,17.6572376 49.7535912,17.5958983 C50.7014453,17.1697856 53.217547,16.4512972 53.3973481,16.4250431 C53.6879735,16.3715801 53.9778829,16.3258342 54.2676331,16.2959204 C54.2298431,16.3205039 54.1919735,16.3396773 54.1545017,16.3585326 C54.1436022,16.3710232 53.8458961,16.4675271 53.7691227,16.4888486 C53.6979978,16.5301392 53.6265547,16.5598939 53.5551116,16.5847956 C53.8638762,16.5349127 54.0957878,16.4911558 54.4403536,16.7702453 C53.7474033,16.2074519 59.8895204,16.0995713 60.759726,16.0801591 C61.2727956,16.0838188 61.6366939,16.4649017 61.8433061,16.4235315 C62.079832,16.3753989 62.9560044,16.3411094 63.2063735,16.3310851 C63.2063735,16.3310851 63.5168088,16.2177149 63.5405967,16.2018033 C63.7328088,16.0579624 63.7949436,16.1775381 64.0196155,16.0940022 C64.1728442,16.0577238 64.2068155,15.9880309 64.3458829,16.0236729 C64.3869348,16.0286851 64.4450917,15.9437171 64.4654586,15.9463425 C64.6326099,15.9487293 64.6037304,16.0922519 64.643032,15.8943912 C64.6538519,15.840053 64.8715227,16.1072884 64.9400221,16.078568 C65.0353326,16.0163536 65.1706608,16.070453 65.2996243,16.0496884 C65.3235713,16.0337768 65.3475182,16.018979 65.351337,16.0009989 C65.4000265,15.9721193 65.4573083,16.0000442 65.521432,15.9920884 C65.7163492,15.968221 65.8698961,15.8457017 66.0453215,15.8184928 C66.1548729,15.7990011 66.545821,15.8214365 66.9251536,15.8651138 C67.3075094,15.9149967 67.6775337,15.9956685 67.7430895,16.0632928 L67.7449193,16.0653613 C67.728053,16.0665547 67.7108685,16.0691801 67.6962298,16.0727602 C67.6962298,16.0727602 67.374895,16.0157967 67.2887337,16.0116597 C67.1824442,16.0103867 67.0592884,15.9838939 66.9537945,15.9856442 C66.783779,15.9982939 66.741295,16.034095 67.0058254,16.0391072 C67.2715492,16.0514387 67.4661481,16.0757039 67.2768796,16.0748287 C67.0867359,16.0710099 66.8363669,16.0774541 66.5847249,16.0854099 C66.0825547,16.0987757 67.8415028,16.1597967 67.9423823,16.1630586 C67.9679204,16.1734011 67.9973569,16.184937 68.026316,16.1967116 C68.3349215,16.1994166 68.6387536,16.2059403 68.9138652,16.204747 C69.0583425,16.2038718 69.4905812,16.1630586 69.6350586,16.1999735 L69.6350586,16.1999735 Z M59.814179,18.0939315 C59.943779,17.9613878 60.983284,17.781905 62.252632,17.6206409 C61.3755845,17.5013834 60.4422895,17.4534895 59.814179,18.0939315 L59.814179,18.0939315 Z M71.6813702,15.8309039 C70.9694055,16.1728442 70.3468641,15.6936663 69.5080044,15.9097459 C69.8567867,16.2839072 70.2544972,16.0458696 69.8555138,15.8805481 C69.9382541,15.9212818 72.8902541,16.3458829 71.6813702,15.8309039 L71.6813702,15.8309039 Z M64.2053039,17.6770475 C64.8085923,17.576884 65.1794917,17.4162563 65.5175337,17.2911116 C64.5322077,17.3631116 63.3121061,17.4859492 62.252632,17.6206409 C63.0342099,17.7281238 63.7713149,17.8914563 64.2053039,17.6770475 L64.2053039,17.6770475 Z M65.5175337,17.2911116 C66.3673724,17.2282608 67.0427403,17.2033591 67.2908022,17.2393989 C66.3996729,17.0120221 65.9894718,17.1165613 65.5175337,17.2911116 L65.5175337,17.2911116 Z M66.0510497,15.4386829 C65.6963006,15.4486276 65.3420287,15.4583337 64.9864044,15.4679602 C65.3552354,15.8188906 65.7102232,15.8093436 66.0510497,15.4386829 L66.0510497,15.4386829 Z M13.8691094,25.6925171 C13.4273238,26.0333436 8.08325304,29.9635094 5.86406188,28.1345503 C5.33905856,27.588305 5.64949392,26.4620818 6.40473812,25.6671381 L6.52701878,25.5472442 C6.83649945,25.2543912 9.67329945,23.6800177 10.8164685,22.9721105 C13.5005967,21.3085525 16.2803536,18.7417724 21.7560928,16.1605127 C25.6821215,14.310232 31.851368,14.2645657 35.3189834,19.8193061 C29.2586519,13.1169414 16.1474917,23.9346829 13.8691094,25.6925171 L13.8691094,25.6925171 Z" id="Shape" fill="#84BF41"></path>
        </g>
    </g>
</svg>
