<svg xmlns="http://www.w3.org/2000/svg" width="48" height="48" viewBox="0 0 48 48"><path fill="none" stroke="#000" stroke-miterlimit="10" d="M28.5 21.4920101L27.4998741 38.492012h16L42.5 21.4920101z" vector-effect="non-scaling-stroke"/><path fill="none" stroke="#000" stroke-miterlimit="10" d="M37.4944992 24.9920731L37.5 17.4918213c0-1.1045685-.8954315-1.999999-2-1.999999s-2 .8954306-2 1.999999v7.5002518M5.5000629 31.5080528H23.499937v7H5.5000629zM21.4999371 17.2184467v14.2736264H7.5000629V17.2184467" vector-effect="non-scaling-stroke"/><path fill="none" stroke="#000" stroke-miterlimit="10" d="M10.5002518 17.4917583c-1.1045694 0-2-.8954296-2-1.999999C8.5 16.5963287 7.6045694 17.4917583 6.5 17.4917583s-2-.8954296-2-1.999999v-2h20.0010071v2c0 1.1045694-.8954296 1.999999-2 1.999999-1.1045685 0-2-.8954296-2-1.999999-.0002518 1.1045694-.8956814 1.999999-2.0002518 1.999999-1.1045685 0-2-.8954296-2-1.999999-.0002518 1.1045694-.8956823 1.999999-2.0002518 1.999999s-2-.8954296-2-1.999999c-.0002517 1.1045694-.8956823 1.999999-2.0002517 1.999999z" vector-effect="non-scaling-stroke"/><path fill="none" stroke="#000" stroke-miterlimit="10" d="M26.0010071 13.4919481l-3.000063-4H6.5l-3.0000629 4z" vector-effect="non-scaling-stroke"/></svg>