<svg xmlns="http://www.w3.org/2000/svg" width="48" height="48" viewBox="0 0 48 48"><path fill="none" stroke="#000" stroke-miterlimit="10" d="M27.501339 7.4936757c-.2691345 0-.5123596.107605-.6921082.2805481-.1875305-.3395996-.4998779-.5957642-.8781738-.7095642-.185791-.6174011-.7519531-1.0700684-1.4299011-1.0700684s-1.2441101.4526672-1.4299011 1.0700684c-.0265503.0079651-.0533142.0151978-.0791931.0245972.00177-.0298767.0089111-.058197.0089111-.088501 0-.8284302-.6715698-1.5-1.5-1.5-.6532898 0-1.2033081.4201965-1.4090881 1.0030212-.0307007-.0018616-.0598145-.0091858-.0910034-.0091858-.8284302 0-1.5.6715698-1.5 1.5 0 .7870793.6083069 1.425385 1.379303 1.487824.2748718.3116455.6725769.5121765 1.1207581.5121765.5224304 0 .9815063-.2677612 1.2500916-.6728516.2685852.4050903.7276306.6728516 1.250061.6728516.3859558 0 .7342529-.1498718 1.000061-.3893433.2658081.2394714.6141052.3893433 1.000061.3893433.5663452 0 1.0534363-.3175964 1.3087158-.7808838.1796875.1725769.4225769.2799683.6914062.2799683.5523071 0 1-.4477234 1-1s-.4476929-1.0000005-1-1.0000005zM5.9994965 23.5005665h38.0004387M11.5001888 42.0005684V29.0009441c0-1.3807106-1.1192884-2.5-2.5-2.5s-2.5 1.1192894-2.5 2.5v12.9996243M18.5006294 42.0005684V29.0009441c0-1.3807106-1.1192875-2.5-2.5-2.5s-2.499999 1.1192894-2.499999 2.5v12.9996243M32.5015106 30.3700733v-1.3691292c0-1.3807106-1.1192875-2.5-2.4999981-2.5-1.3807125 0-2.5 1.1192894-2.5 2.5v5.1172695M20.50107 42.0005684V29.0009441c0-1.3807106 1.1192894-2.5 2.5-2.5 1.3807125 0 2.5 1.1192894 2.5 2.5v7.4584446M43.9999352 27.5010071c-10.0637512 0-18.1658535 5.6377945-21.4997463 14.4995613M12.5005665 18.9954777v-7.5009175l7 .0060702v2.9938669h12.0000629l.0009136 3.0060692" vector-effect="non-scaling-stroke"/><path fill="none" stroke="#000" stroke-miterlimit="10" d="M30.5006294 14.4944973v-3.0000954h-2v3.0000954M23.4128952 21.4944973h3.0885544M17.4145565 21.4944973h3.1754475M29.4130211 21.4944973h3.8376083l-1.75-3.9939308H12.5005665v3.9939308h2.09865" vector-effect="non-scaling-stroke"/><circle cx="29.5006294" cy="8.4936781" r="1" fill="none" stroke="#000" stroke-miterlimit="10" vector-effect="non-scaling-stroke"/><circle cx="22.0007553" cy="20.9944973" r="1.5" fill="none" stroke="#000" stroke-miterlimit="10" vector-effect="non-scaling-stroke"/><circle cx="16.0003777" cy="20.9944973" r="1.5" fill="none" stroke="#000" stroke-miterlimit="10" vector-effect="non-scaling-stroke"/><circle cx="28.0008812" cy="20.9944973" r="1.5" fill="none" stroke="#000" stroke-miterlimit="10" vector-effect="non-scaling-stroke"/></svg>