<svg xmlns="http://www.w3.org/2000/svg" width="48" height="48" viewBox="0 0 48 48"><path fill="none" stroke="#000" stroke-miterlimit="10" d="M6 38.5004425h26.5c5.477314 0 8-1.8059578 8-6.5003777M6 32.5005684h28.0001259M9.4998112 32.5005684v5.9998741M16.5002518 32.5005684v5.9998741M23.5006924 32.5005684v5.9998741M30.501133 32.5005684v5.9998741M41.0000648 18.5001259c-10.4460392 0-14.7072353 9-25.5000648 9-4.9705629 0-9-4.029438-9-9s4.0294371-9 9-9c10.7928295 0 15.0540257 9 25.5000648 9zM13.5 9.7210197v5.3146515M17.5002518 9.6080942v5.427577M13.5 21.9649925v5.3121014M17.5002518 21.9649925v5.4287186M26.5008183 13.0001259v11M41.0000648 18.5001259H19.5" vector-effect="non-scaling-stroke"/><circle cx="15.5" cy="18.5001259" r="4" fill="none" stroke="#000" stroke-miterlimit="10" vector-effect="non-scaling-stroke"/></svg>