<svg xmlns="http://www.w3.org/2000/svg" width="48" height="48" viewBox="0 0 48 48"><path fill="none" stroke="#000" stroke-miterlimit="10" d="M14.4014893 35.4058228c.9887695.7567749 2.0651855 1.404541 3.2258911 1.8989868M8.6463623 25.4851685c.3519897 2.6547852 1.3955688 5.0853882 2.9476929 7.1132812M11.5940552 14.4014282c-1.5521851 2.0279541-2.5957031 4.4584351-2.9476929 7.1132812M21.5147705 8.6463013c-2.6548462.3519897-5.0853271 1.3955078-7.1132812 2.9476929M32.5985107 11.5939941c-2.0279541-1.5521851-4.4584351-2.5957031-7.1132812-2.9476929M38.3536377 21.5147095c-.3519897-2.6548462-1.3955078-5.0853271-2.9476929-7.1132812M35.4059448 32.5984497c1.552124-2.0278931 2.5957031-4.4584961 2.9476929-7.1132812M28.6403198 37.5767822c1.4354858-.5245361 2.7661743-1.258606 3.9581909-2.1709595M25.6213379 25.6212158c-.1223145.1223755-.2583008.2304077-.4002075.3302612M21.6671753 25.859314c-.0985718-.0767212-.2003174-.1499023-.2885132-.2380981" vector-effect="non-scaling-stroke"/><path fill="none" stroke="#000" stroke-miterlimit="10" d="M16.4994965 40.5001907l6.0004406-17.0002536h2.0001258l5.0001259 17.0002536M25.4852295 8.6463013C25.4888306 8.5971069 25.5 8.5500488 25.5 8.499939c0-1.1046143-.8954468-2-2-2s-2 .8953857-2 2c0 .0501099.0111694.097168.0147705.1463623M38.3536377 25.4851685c.0491943.003601.0962524.0147705.1463623.0147705 1.1045532 0 2-.8954468 2-2 0-1.1046143-.8954468-2-2-2-.0501099 0-.097168.0111694-.1463623.0147705M8.6463623 21.5147095C8.597168 21.5111084 8.5501099 21.499939 8.5 21.499939c-1.1045532 0-2 .8953857-2 2 0 1.1045532.8954468 2 2 2 .0501099 0 .097168-.0111694.1463623-.0147705M35.4059448 14.4014282c.0377197-.0324707.0791016-.0581055.1148682-.0938721.7810669-.7810669.7810669-2.0474243 0-2.8284302-.7810669-.7810669-2.0473633-.7810669-2.8284302 0-.0357666.0357666-.0614014.0771484-.0938721.1148682M11.5940552 32.5984497c-.0377197.0324707-.0791016.0581055-.1148682.0938721-.7810669.7810669-.7810669 2.0473633 0 2.8284302.7810669.7810059 2.0473633.7810059 2.8284302 0 .0357666-.0357666.0614014-.0772095.0938721-.1149292M32.5985107 35.4058228c.0324707.0377197.0581055.0791626.0938721.1149292.7810669.7810059 2.0473633.7810059 2.8284302 0 .7810669-.7810669.7810669-2.0473633 0-2.8284302-.0357666-.0357666-.0771484-.0614014-.1148682-.0938721M14.4014893 11.5939941c-.0324707-.0377197-.0581055-.0791016-.0938721-.1148682-.7810669-.7810669-2.0473633-.7810669-2.8284302 0-.7810669.7810059-.7810669 2.0473633 0 2.8284302.0357666.0357666.0771484.0614014.1148682.0938721" vector-effect="non-scaling-stroke"/><path fill="none" stroke="#000" stroke-miterlimit="10" d="M25.2211304 25.9514771c.1419067-.0998535.2778931-.2078857.4002075-.3302612.5429077-.5428468.8786621-1.2928468.8786621-2.1212769 0-1.6568604-1.3431396-3-3-3s-3 1.3431396-3 3c0 .8284302.3357544 1.5784302.8786621 2.1212769.0881958.0881958.1899414.161377.2885132.2380981M10.5 23.4998779h10-10zM14 40.5009499h18.0005035M14.3076782 14.3074951l7.0710449 7.0710449-7.0710449-7.0710449zM23.499939 20.499939v-10 10zM25.6212769 21.37854l7.0710449-7.0710449-7.0710449 7.0710449zM26.5 23.4998779h10-10zM21.5147705 8.6463013c.076294 1.0350341.9307861 1.8536377 1.9852295 1.8536377s1.9089355-.8186035 1.9852295-1.8536377M38.3536377 21.5147095C37.3186035 21.5910034 36.5 22.4454346 36.5 23.499939c0 1.0544434.8186035 1.9089355 1.8536377 1.9852295M8.6463623 25.4851685C9.6813965 25.4088745 10.5 24.5543823 10.5 23.499939c0-1.0545044-.8186035-1.9089355-1.8536377-1.9852295M32.5985107 11.5939941c-.677063.7857056-.6514282 1.9682617.0938721 2.713562.7453003.7452393 1.9277954.770874 2.713562.0938721M14.4014893 35.4058228c.677063-.7857056.6514282-1.9682007-.0938721-2.713501s-1.9277954-.7709351-2.713562-.0938721M35.4059448 32.5984497c-.7857666-.677063-1.9682617-.6514282-2.713562.0938721s-.7709351 1.9277954-.0938721 2.713501M11.5940552 14.4014282c.7857666.677002 1.9682617.6513672 2.713562-.0938721.7453003-.7453003.7709351-1.9278564.0938721-2.713562M14.3075562 32.6922607l7.071106-7.0710449M25.6213379 25.6212158l7.071106 7.0710449" vector-effect="non-scaling-stroke"/></svg>