<svg xmlns="http://www.w3.org/2000/svg" width="48" height="48" viewBox="0 0 48 48"><path fill="none" stroke="#000" stroke-miterlimit="10" d="M45.4999352 29.0051098v2.495142s0 2-3 2h-5l1-6 7 1.504858zM28.5359154 12.6233196c5.0203438 2.6155958 10.7302361 6.8904095 15.9640198 13.8769321v2.2619781M37.833271 31.5002518h-7.6901455M24.8558102 31.5002518H22M24.0366211 36.5005684H20M28.5 15.5l-2 6 9.9999352.0002518S33.2762299 18.0574932 28.5 15.5z" vector-effect="non-scaling-stroke"/><circle cx="27.5009441" cy="34.5002518" r="4" fill="none" stroke="#000" stroke-miterlimit="10" vector-effect="non-scaling-stroke"/><path fill="none" stroke="#000" stroke-miterlimit="10" d="M38.9999352 33.5002518l2.5 3-10.538271.0003166" vector-effect="non-scaling-stroke"/><path fill="none" stroke="#000" stroke-miterlimit="10" d="M16.4898434 35.5938454c-.6071959-.0595322-1.2647276-.0937805-1.9899063-.0937805-3.2574682 0-5.124033.7367363-7.3270965 1.3159065M23 17.5h-3.8604546c-.9533634 0-1.7741928.6729202-1.9611626 1.6077671l-.1999989 1C16.7308674 21.3453522 17.6774521 22.5 18.9395447 22.5H21" clip-rule="evenodd" vector-effect="non-scaling-stroke"/><path fill="none" stroke="#000" stroke-miterlimit="10" d="M17.4651222 32.7158089c-.8676243-.1326218-1.8341227-.2159348-2.9651852-.2159348-3.4222422 0-5.3093081.8131561-7.6642175 1.4024734L2.4999371 22.5h11.5140238l.9859762-5h-2.5v-6H25" clip-rule="evenodd" vector-effect="non-scaling-stroke"/><path fill="none" stroke="#000" stroke-miterlimit="10" d="M17.0003777 40L28.0002518 8" vector-effect="non-scaling-stroke"/></svg>