<svg xmlns="http://www.w3.org/2000/svg" width="48" height="48" viewBox="0 0 48 48"><circle cx="13.4971027" cy="12.4999371" r="2" fill="none" stroke="#000" stroke-miterlimit="10" vector-effect="non-scaling-stroke"/><path fill="none" stroke="#000" stroke-miterlimit="10" d="M11.4969769 37.5004425v2.4982986M15.4972286 37.5004425v2.4982986M8.4970398 29.4999371l2.0001259-12.000063h5.9998741l2.0001259 12.000063" vector-effect="non-scaling-stroke"/><path fill="none" stroke="#000" stroke-miterlimit="10" d="M17.4971027 37.5004425l-1.0000629-9.999939h-5.9998741l-1.000063 9.999939z" vector-effect="non-scaling-stroke"/><circle cx="25.497858" cy="12.4999371" r="2" fill="none" stroke="#000" stroke-miterlimit="10" vector-effect="non-scaling-stroke"/><path fill="none" stroke="#000" stroke-miterlimit="10" d="M23.4981651 27.5005035v12.4986153M27.4984169 27.5005035v12.4986153M21.497858 29.4999371v-12.000063h8v12.000063M21.497858 27.5005035h8" vector-effect="non-scaling-stroke"/><circle cx="36.4985504" cy="20.5004406" r="2" fill="none" stroke="#000" stroke-miterlimit="10" vector-effect="non-scaling-stroke"/><path fill="none" stroke="#000" stroke-miterlimit="10" d="M34.4988594 32.5008202v7.4982986M38.4991112 32.5008202v7.4982986M32.4985504 34.5002518l1.0000649-8.9998741h5.9998741l1.000061 8.9998741M32.719326 32.5008202h7.5570488" vector-effect="non-scaling-stroke"/></svg>