<svg xmlns="http://www.w3.org/2000/svg" width="48" height="48" viewBox="0 0 48 48"><path fill="none" stroke="#000" stroke-miterlimit="10" d="M23.4999466 11.5001259h-.0000191c-5.5228424 0-9.9999905 4.4771481-9.9999905 9.9999905v2.0000191c0 5.5228424 4.4771481 9.9999905 9.9999905 9.9999905h.0000191c5.5228424 0 9.9999886-4.4771481 9.9999886-9.9999905v-2.0000191c0-5.5228425-4.4771462-9.9999905-9.9999886-9.9999905z" vector-effect="non-scaling-stroke"/><path fill="none" stroke="#000" stroke-miterlimit="10" d="M15.4458599 29.4095497c-.2606201 2.8655396-1.7229004 5.3796997-3.8876343 7.0333862 2.9388428-.3092041 5.4910889-1.8962402 7.1100464-4.18927M28.2919903 32.2777138c1.619812 2.2802124 4.1649151 3.8571167 7.093565 4.1652222-2.1473999-1.6404419-3.605711-4.1270142-3.883482-6.9638672" vector-effect="non-scaling-stroke"/><circle cx="17.9999371" cy="24.0000629" r="1.5" fill="none" stroke="#000" stroke-miterlimit="10" vector-effect="non-scaling-stroke"/><circle cx="29.0006294" cy="24.0000629" r="1.5" fill="none" stroke="#000" stroke-miterlimit="10" vector-effect="non-scaling-stroke"/><path fill="none" stroke="#000" stroke-miterlimit="10" d="M18.668272 32.2536659C20.6130962 39.2714272 25.25 44.000248 29.4095459 44.000248h2.0905781c0 .276123.223877.5.5000019.5.276123 0 .5-.223877.5-.5v-3c0-.2761841-.223877-.5-.5-.5-.276125 0-.5000019.2238159-.5000019.5h-.4309578c-1.3986359 0-4.9017372-3.5729675-2.7771759-8.7225342M17.3293438 13.6413612c-1.9273682-2.5892944-5.4195395-3.7315569-8.5786133-2.5682983-3.8913555 1.4113121-5.899231 5.720459-4.4825439 9.612793l1.368103 3.7587891c1.4023438 3.8529663 5.6332397 5.8530273 9.4940796 4.519104M29.6705837 13.6413612c1.9273682-2.5892944 5.4195423-3.7315569 8.5786152-2.5682983 3.8913536 1.4113121 5.899231 5.720459 4.4825439 9.612793l-1.368103 3.7587891c-1.4023438 3.8529663-5.6332397 5.8530273-9.4940815 4.519104" vector-effect="non-scaling-stroke"/></svg>