<svg xmlns="http://www.w3.org/2000/svg" width="48" height="48" viewBox="0 0 48 48"><path fill="none" stroke="#000" stroke-miterlimit="10" d="M9.5 28.5v-17h12V16c0 5.375 2.5 14.5 8 14.5h5c3.3137093.0003777 6 2.6866684 6 6.0003777-7.125 0-14.375-.0003777-17-.0003777s-4.8750629-1-8.0000629-1h-7v-7c3.8659935 0 7 3.1340065 7 7M9.5 15.5h12M23 19.5h-4" vector-effect="non-scaling-stroke"/><path fill="none" stroke="#000" stroke-miterlimit="10" d="M40.5008202 36.5003777v2.9998741H23.5v-1c-2.625-.0001259-4.8750629-1.0001259-8-1.0001259V39.5h-8v-4h.9999371M24.0000629 22.5001888h-4M25.0001259 25.5003777h-4" vector-effect="non-scaling-stroke"/></svg>