<svg xmlns="http://www.w3.org/2000/svg" width="48" height="48" viewBox="0 0 48 48"><path fill="none" stroke="#1D1D1B" stroke-miterlimit="10" d="M17.5596447 20.437664S12.145751 18.8121681 8.5040798 20.5c.3558254 3.908596 3.6015463 7.0460262 6 9" vector-effect="non-scaling-stroke"/><path fill="none" stroke="#1D1D1B" stroke-miterlimit="10" d="M13.0040798 28.5s-2.2029467.6951332-4.5040798 3c1.7761726 2.1833305 7.2228298 5 15.0040798 1M23.5040798 23l.03125 17M23.5040798 30.5l-6-4M29.5040798 22c0-9.5051594-6-13.5-6-13.5s-6 3.9948406-6 13.5" vector-effect="non-scaling-stroke"/><path fill="none" stroke="#1D1D1B" stroke-miterlimit="10" d="M29.4485149 20.437664s5.4138927-1.6254959 9.055563.062336c-.3558235 3.908596-3.6015434 7.0460262-6 9" vector-effect="non-scaling-stroke"/><path fill="none" stroke="#1D1D1B" stroke-miterlimit="10" d="M34.0040779 28.5s2.2029495.6951332 4.5040817 3c-1.7761726 2.1833305-7.2228298 5-15.0040798 1M23.5040798 30.5l6-4" vector-effect="non-scaling-stroke"/></svg>