<svg xmlns="http://www.w3.org/2000/svg" width="48" height="48" viewBox="0 0 48 48"><path fill="none" stroke="#000" stroke-miterlimit="10" d="M17.5 23.5003147c0 5.4215698 2.5467529 10.2392597 6.4993286 13.3520527 3.9525757-3.112793 6.4993286-7.9304829 6.4993286-13.3520527s-2.5467529-10.2392578-6.4993286-13.3520508C20.0467529 13.2610569 17.5 18.0787449 17.5 23.5003147z" vector-effect="non-scaling-stroke"/><path fill="none" stroke="#000" stroke-miterlimit="10" d="M27.7327118 35.2942963c3.4933605-.7825623 6.7657318-2.6604118 9.2458649-5.61619 3.4849243-4.1531372 4.6307983-9.4807129 3.6037598-14.4059448-3.1254883-.0970459-6.2570801.6622314-9.0174561 2.2459106M16.434082 17.5182552c-2.760437-1.5838623-5.8922119-2.3431396-9.0177612-2.2460938-1.0270386 4.9252319.1188354 10.2528076 3.6037598 14.4059448 2.4800606 2.9556942 5.7523117 4.8335171 9.2455578 5.6161213" vector-effect="non-scaling-stroke"/><path d="M24.5332031 34.2023392h-.0029297v.000061M23.46875 34.2024002v-.000061h-.0029297"/><path fill="none" stroke="#000" stroke-miterlimit="10" d="M7.0023193 25.9509335c-1.1305542.62323-2.1895142 1.3707886-3.1526489 2.2312622 2.3791504 4.4330463 6.6813965 7.7777119 12.0206299 8.7191181 1.814209.3198853 3.6091309.3314819 5.3378296.0845947M26.7905273 36.9859085c1.7286987.2468872 3.5236206.2352905 5.3378296-.0845947 5.3392334-.9414062 9.6414795-4.2860718 12.0206299-8.7191181-.9629517-.8603516-2.0216675-1.6077881-3.1520386-2.230957" vector-effect="non-scaling-stroke"/></svg>