<svg xmlns="http://www.w3.org/2000/svg" width="48" height="48" viewBox="0 0 48 48"><path fill="none" stroke="#000" stroke-miterlimit="10" d="M24.5 11.1574583V17M12.2811575 20.0314369L17.5 22.0857983M16.9449825 34.3993149l3.2287789-4.0845242M32.0605698 34.4036751l-3.2343312-4.0888844M36.7091217 20.0314369L31.5 22.0857983M24.5 17l-7 5.0857983 2.6737614 8.2289924h8.6524772L31.5 22.0857983zM9.8248901 34.399292h7.1201172l2.2070313 6.7926636M10.0805664 13.258728l2.2005615 6.7727051-5.7698364 4.1920776M30.2730103 6.9631348L24.5 11.1574707l-5.7730103-4.1943359M42.4883423 24.2303467l-5.7792359-4.1989136 2.2035523-6.7817383M29.8556519 41.1896362l2.204895-6.7859497h7.1113281" vector-effect="non-scaling-stroke"/><path fill="none" stroke="#000" stroke-miterlimit="10" d="M18.7269897 6.9631348L24.5 11.1574707l5.7730103-4.1943359M6.5 24c0 .0754395.010376.1482544.0112915.2235107l5.7698364-4.1920776-2.2005615-6.7727051M38.9126587 13.2496948l-2.2035522 6.7817383 5.7792358 4.1989136C42.4893188 24.152832 42.5 24.0777588 42.5 24M19.1520386 41.1919556l-2.2070313-6.7926636H9.8248901M39.171875 34.4036865h-7.1113281l-2.204895 6.7859497" vector-effect="non-scaling-stroke"/><circle cx="24.5" cy="24" r="18" fill="none" stroke="#000" stroke-miterlimit="10" vector-effect="non-scaling-stroke"/></svg>