<svg xmlns="http://www.w3.org/2000/svg" width="48" height="48" viewBox="0 0 48 48"><path fill="none" stroke="#000" stroke-miterlimit="10" d="M21.4998741 16l-5 .4999371-4 2.0000629 9-11.9998112L30.5059624 18.5l-4-2.0000629-5-.4999371zM13.4998741 21.4801369L15.5 20.4836731l6.0003777-.4980736" vector-effect="non-scaling-stroke"/><path fill="none" stroke="#000" stroke-miterlimit="10" d="M13.4998741 17.9999371v3.5L14.5055218 23.5l2.0001259-.5h5.0003147" vector-effect="non-scaling-stroke"/><path fill="none" stroke="#000" stroke-miterlimit="10" d="M15.5 16.9998741v3.5L16.5056477 23v6.0803528M21.5003777 15.9998112v12.7582454M14.5055218 23.5v5.7094154M29.5059624 21.4801369l-2.0001259-.9964638-6.0003777-.4980736" vector-effect="non-scaling-stroke"/><path fill="none" stroke="#000" stroke-miterlimit="10" d="M29.5059624 17.9999371v3.5L28.5003147 23.5l-2.0001259-.5h-5.0003147" vector-effect="non-scaling-stroke"/><path fill="none" stroke="#000" stroke-miterlimit="10" d="M27.5058365 16.9998741v3.5L26.5001888 23v5.4354324M28.5003147 23.5v4.8040771M40.9998093 32.5001259l-33.9996205 2 3.0049877-5.0003147 30.9946328-2M40.9998093 35.5003166l-32.9995575 2v-3.0001907M9.5001888 37.4233932v3.5764161M23.50107 36.5608597v3.4388885M37.5019531 35.7114182v3.2882652" vector-effect="non-scaling-stroke"/></svg>