<svg xmlns="http://www.w3.org/2000/svg" width="48" height="48" viewBox="0 0 48 48">
  <path fill="none" stroke="#000" d="M27.7881,34.2998 L22.4991,27.4998 L27.4991,27.4998 L20.4991,18.4998 L23.4991,18.4998 L18.4851,11.9278 M14.5132,11.9282 L9.4992,18.5002 L12.4992,18.5002 L5.4992,27.5002 L10.4992,27.5002 L3.4992,36.5002 L27.6662,36.5002 M16.499,5.5 L17.499,8.5 L20.499,8.5 L17.999,10.5 L18.999,13.5 L16.499,11.5 L13.999,13.5 L14.999,10.5 L12.499,8.5 L15.499,8.5 L16.499,5.5 Z M16.499,40 L16.499,36.5 M28.5,21.4922 L27.788,34.3002 L27.5,39.4922 L43.5,39.4922 L42.5,21.4922 L28.5,21.4922 Z M37.4941,24.9922 L37.5001,17.4922 C37.5001,16.3872 36.6041,15.4922 35.5001,15.4922 C34.3951,15.4922 33.5001,16.3872 33.5001,17.4922 L33.5001,24.9922"/>
</svg>
