<svg xmlns="http://www.w3.org/2000/svg" width="48" height="48" viewBox="0 0 48 48">
  <path fill="none" stroke="#000" d="M17.5596,20.4375 C17.5596,20.4375 12.1456,18.8125 8.5036,20.4995 C8.8596,24.4085 12.1056,27.5455 14.5036,29.5005 M13.0039,28.5 C11.2999,29.156 9.7619,30.181 8.4999,31.5 C10.2759,33.684 15.7229,36.5 23.5039,32.5 M23.5039,23 L23.5349,40 M23.5039,30.5 L17.5039,26.5 M29.5039,22 C29.5039,12.495 23.5039,8.5 23.5039,8.5 C23.5039,8.5 17.5039,12.495 17.5039,22 M29.4482,20.4375 C29.4482,20.4375 34.8622,18.8125 38.5042,20.4995 C38.1482,24.4085 34.9022,27.5455 32.5042,29.5005 M34.0039,28.5 C35.7079,29.156 37.2459,30.181 38.5079,31.5 C36.7329,33.684 31.2849,36.5 23.5039,32.5 M23.5039,30.5 L29.5039,26.5"/>
</svg>
