<svg xmlns="http://www.w3.org/2000/svg" width="48" height="48" viewBox="0 0 48 48">
  <path fill="none" stroke="#000" d="M27.501,7.4937 C27.243,7.4937 26.995,7.5947 26.81,7.7747 C26.621,7.4317 26.306,7.1777 25.931,7.0647 C25.699,6.2747 24.871,5.8227 24.081,6.0557 C23.595,6.1987 23.214,6.5777 23.071,7.0647 C23.045,7.0727 23.018,7.0797 22.992,7.0897 C22.994,7.0597 23.001,7.0317 23.000995,7.00069259 C23.003,6.1747 22.334,5.5027 21.508,5.5007 C20.871,5.4987 20.302,5.9017 20.092,6.5037 C20.061,6.5017 20.032,6.4947 20.001,6.4947 C19.175,6.4927 18.503,7.1607 18.501,7.9867 C18.499,8.7697 19.1,9.4217 19.88,9.4827 C20.42,10.1037 21.362,10.1687 21.983,9.6287 C22.086,9.5387 22.176,9.4357 22.251,9.3217 C22.702,10.0097 23.626,10.2017 24.314,9.7507 C24.38,9.7067 24.443,9.6587 24.501,9.6057 C25.105,10.1587 26.044,10.1177 26.598,9.5127 C26.681,9.4227 26.752,9.3217 26.81,9.2137 C27.208,9.5967 27.841,9.5827 28.223,9.1847 C28.605,8.7867 28.592,8.1547 28.194,7.7727 C28.008,7.5937 27.76,7.4937 27.501,7.4937 Z M5.9995,23.5005 L43.9995,23.5005 M18.5005,42.001 L18.5005,29.001 C18.5005,27.62 17.3815,26.501 16.0005,26.501 C14.6205,26.501 13.5005,27.62 13.5005,29.001 L13.5005,42.001 M32.502,30.3701 L32.502,29.0011 C32.502,27.6201 31.382,26.5011 30.002,26.5011 C28.621,26.5011 27.502,27.6201 27.502,29.0011 L27.502,34.1181 M20.501,42.001 L20.501,29.001 C20.501,27.62 21.62,26.501 23.001,26.501 C24.382,26.501 25.501,27.62 25.501,29.001 L25.501,36.459 M44,27.501 C33.937,27.501 25.834,33.139 22.5,42.001 L6.5,42.001 L6.5,29.001 C6.5,27.62 7.62,26.501 9,26.501 C10.381,26.501 11.5,27.62 11.5,29.001 L11.5,42.001 M12.501,18.9951 L12.501,11.4951 L19.501,11.5011 L19.501,14.4941 L31.501,14.4941 L31.502,17.5011 M30.501,14.4941 L30.501,11.4941 L28.501,11.4941 L28.501,14.4941 M23.4131,21.4946 L26.5011,21.4946 M17.4146,21.4946 L20.5896,21.4946 M29.4131,21.4941 L33.2511,21.4941 L31.5011,17.5011 L12.5011,17.5011 L12.5011,21.4941 L14.5991,21.4941 M29.501,7.4937 C30.053,7.4937 30.501,7.9417 30.501,8.4937 C30.501,9.0457 30.053,9.4937 29.501,9.4937 C28.948,9.4937 28.501,9.0457 28.501,8.4937 C28.501,7.9417 28.948,7.4937 29.501,7.4937 Z M22.001,19.4946 C22.829,19.4946 23.501,20.1656 23.501,20.9946 C23.501,21.8226 22.829,22.4946 22.001,22.4946 C21.172,22.4946 20.501,21.8226 20.501,20.9946 C20.501,20.1656 21.172,19.4946 22.001,19.4946 Z M16.0005,19.4946 C16.8285,19.4946 17.5005,20.1656 17.5005,20.9946 C17.5005,21.8226 16.8285,22.4946 16.0005,22.4946 C15.1715,22.4946 14.5005,21.8226 14.5005,20.9946 C14.5005,20.1656 15.1715,19.4946 16.0005,19.4946 Z M28.001,19.4946 C28.829,19.4946 29.501,20.1656 29.501,20.9946 C29.501,21.8226 28.829,22.4946 28.001,22.4946 C27.173,22.4946 26.501,21.8226 26.501,20.9946 C26.501,20.1656 27.173,19.4946 28.001,19.4946 Z"/>
</svg>
