<svg xmlns="http://www.w3.org/2000/svg" width="48" height="48" viewBox="0 0 48 48">
  <path fill="none" stroke="#000" d="M21.5,16 L16.5,16.5 L12.5,18.5 L21.5,6.5 L30.506,18.5 L26.506,16.5 L21.506,16 L21.5,16 Z M13.5,21.48 L15.5,20.484 L21.5,19.986 M13.5,18 L13.5,21.5 L14.506,23.5 L16.506,23 L21.506,23 M15.5,17 L15.5,20.5 L16.506,23 L16.506,29.08 M21.5,16 L21.5,19.986 L21.5,28.758 M14.5054,23.5 L14.5054,29.209 M29.5059,21.48 L27.5059,20.484 L21.5049,19.986 M29.5059,18 L29.5059,21.5 L28.4999,23.5 L26.4999,23 L21.4999,23 M27.5059,17 L27.5059,20.5 L26.4999,23 L26.4999,28.435 M28.5,23.5 L28.5,28.304 M41,32.5 L7,34.5 L10.005,29.5 L41,27.5 M41,35.5 L8,37.5 L8,34.5 M9.5,37.4238 L9.5,40.9998 M23.501,36.5605 L23.501,39.9995 M37.502,35.7109 L37.502,38.9999"/>
</svg>
