<svg xmlns="http://www.w3.org/2000/svg" width="48" height="48" viewBox="0 0 48 48">
  <path fill="none" stroke="#000" d="M22.1929,25.1611 L15.9999,20.0001 L5.4999,38.5001 L42.4999,38.5001 L28.3229,15.5001 M20,29 L27.71,15.5 M14.7139,38.5 L18.9999,31 L23.9999,34.5 L29.9999,34.5 L33.8039,38.5 M23,23.5 L25.5,25.5 L28.5,23.5 L31.5,25.5 L33.5,23.5 M20.3276,23.606 C21.2136,19.559 18.6516,15.561 14.6046,14.675 C10.5576,13.789 6.5596,16.351 5.6736,20.398 C4.8416,24.199 7.0546,28.006 10.7696,29.163 M25.166,11.2197 C23.026,11.2197 22.601,15.4997 25.966,15.4997 L32.963,15.4997 C36.281,15.4997 36.161,11.2197 33.662,11.3197 C34.208,9.8547 33.464,8.2257 32,7.6787 C30.541,7.1357 28.916,7.8717 28.365,9.3287 C27.498,8.6487 26.244,8.8017 25.564,9.6677 C25.221,10.1067 25.076,10.6697 25.166,11.2197 Z"/>
</svg>
