<svg xmlns="http://www.w3.org/2000/svg" width="48" height="48" viewBox="0 0 48 48">
  <path fill="none" stroke="#000" d="M16.499,26.5 L16.499,23.964 C17.771,22.83 18.499,21.206 18.499,19.5 L18.499,12 C18.499,11.172 17.828,10.5 16.999,10.5 C16.17,10.5 15.499,11.172 15.499,12 L15.499,19 L15.499,17 C15.499,16.172 14.827,15.5 13.999,15.5 C13.17,15.5 12.499,16.172 12.499,17 L12.499,19 L12.499,19 L12.499,17 C12.499,16.172 11.827,15.5 10.999,15.5 C10.17,15.5 9.499,16.172 9.499,17 L9.499,19 L9.499,12 C9.499,11.172 8.827,10.5 7.999,10.5 C7.17,10.5 6.499,11.172 6.499,12 L6.498,19.5 C6.498,21.206 7.226,22.83 8.499,23.964 L8.499,26.5 M17.499,37.4238 L7.499,37.4998 L7.499,26.4998 L17.499,26.4998 L17.499,37.4238 Z M7.4985,28.5 L17.4985,28.5 L7.4985,28.5 Z M9.4985,31 L9.4985,37.5 L9.4985,31 Z M25.001,29.5 C26.934,29.5 28.501,31.067 28.501,33 C28.501,34.933 26.934,36.5 25.001,36.5 C23.068,36.5 21.501,34.933 21.501,33 C21.501,31.067 23.068,29.5 25.001,29.5 Z M38.002,25.5 C39.935,25.5 41.502,27.066 41.502,29 C41.502,30.933 39.935,32.5 38.002,32.5 C36.069,32.5 34.502,30.933 34.502,29 C34.502,27.066 36.069,25.5 38.002,25.5 Z M28.501,33 L28.501,15.443 L41.502,12.5 L41.502,29.309 M28.501,18.4434 L41.502,15.5004"/>
</svg>
