<svg xmlns="http://www.w3.org/2000/svg" width="48" height="48" viewBox="0 0 48 48">
  <path fill="none" stroke="#000" d="M18,32.5 L20.5,38.5 M6.5,38.5 L9,32.5 M20.4995,35.5 L6.5005,35.5 M21.9995,38.5 L4.9995,38.5 M10.5,27.5 C11.052,27.5 11.5,27.948 11.5,28.5 C11.5,29.053 11.052,29.5 10.5,29.5 C9.948,29.5 9.5,29.053 9.5,28.5 C9.5,27.948 9.948,27.5 10.5,27.5 Z M16.5,27.5 C17.052,27.5 17.5,27.948 17.5,28.5 C17.5,29.053 17.052,29.5 16.5,29.5 C15.947,29.5 15.5,29.053 15.5,28.5 C15.5,27.948 15.947,27.5 16.5,27.5 Z M17,16.5 L10,16.5 M9.7354,13.5 C6.9114,13.5 5.5004,14.945 5.5004,17.775 L5.5004,32.5 L21.5004,32.5 L21.5004,17.775 C21.5004,14.945 20.0894,13.5 17.2644,13.5 L9.7354,13.5 Z M21.5,24.5 L5.5,24.5 M18,9.5005 L9,9.5005 M13.5,13.5 L11.5,9.5 M27.5,14.5 C27.5,13.671 26.828,13 26,13 C25.171,13 24.5,13.671 24.5,14.5 L24.5,38.5 L27.5,38.5 L27.5,14.5 Z M33.5,14.5 C33.5,13.671 32.829,13 32,13 C31.172,13 30.5,13.671 30.5,14.5 L30.5,38.5 L33.5,38.5 L33.5,14.5 Z M38.3271,37.6172 L35.3731,37.0962 M41.4102,13.167 L36.5902,38.833 M40.6729,37.6172 L43.6269,37.0962 M37.5898,13.167 L42.4098,38.833 M37.3721,17.3306 L36.8091,14.3306 M42.1914,14.3306 L41.6284,17.3306 M15.5,9.5 L13.5,13.5"/>
</svg>
