<svg xmlns="http://www.w3.org/2000/svg" width="36" height="36" viewBox="0 0 36 36">
  <path fill="none" stroke="#000" d="M17.25,9.75 L17.25,14.25 L17.25,9.75 Z M17.25,3 L17.25,6.75 L17.25,3 Z M11.9472,11.9466 L15.1287,15.1296 L11.9472,11.9466 Z M7.1733,7.17405 L9.8253,9.82605 L7.1733,7.17405 Z M9.75,17.25 L14.25,17.25 L9.75,17.25 Z M3,17.25 L6.75,17.25 L3,17.25 Z M11.9472,22.5528 L15.1287,19.3713 L11.9472,22.5528 Z M7.1733,27.3267 L9.8253,24.6747 L7.1733,27.3267 Z M17.25,24.75 L17.25,20.25 L17.25,24.75 Z M17.25,31.5 L17.25,27.75 L17.25,31.5 Z M22.5528,22.5528 L19.3713,19.3713 L22.5528,22.5528 Z M27.3267,27.3267 L24.6747,24.6747 L27.3267,27.3267 Z M24.75,17.25 L20.25,17.25 L24.75,17.25 Z M31.5,17.25 L27.75,17.25 L31.5,17.25 Z M22.5528,11.9466 L19.3713,15.1296 L22.5528,11.9466 Z M27.3267,7.17405 L24.6747,9.82605 L27.3267,7.17405 Z M27.75,17.25 C27.75,11.451 23.049,6.75 17.25,6.75 C11.451,6.75 6.75,11.451 6.75,17.25 C6.75,23.049 11.451,27.75 17.25,27.75 C23.049,27.75 27.75,23.049 27.75,17.25 Z M24.75,17.25 C24.75,13.1085 21.393,9.75 17.25,9.75 C13.107,9.75 9.75,13.1085 9.75,17.25 C9.75,21.393 13.107,24.75 17.25,24.75 C21.393,24.75 24.75,21.393 24.75,17.25 Z M20.25,17.25 C20.25,15.594 18.906,14.25 17.25,14.25 C15.594,14.25 14.25,15.594 14.25,17.25 C14.25,18.906 15.594,20.25 17.25,20.25 C18.906,20.25 20.25,18.906 20.25,17.25 Z"/>
</svg>
