<svg xmlns="http://www.w3.org/2000/svg" width="36" height="36" viewBox="0 0 36 36">
  <path fill="none" stroke="#000" d="M27.75,18.8814 L27.75,29.2494 L8.25,29.2209 L8.25,18.6609 M8.25,23.235 L27.75,23.235 M8.25,26.235 L27.75,26.235 M24.70455,16.49955 C24.56055,17.74305 25.45155,18.86655 26.69505,19.01055 C27.93705,19.15455 29.06055,18.26355 29.20455,17.02005 C29.22555,16.84755 29.22555,16.67355 29.20455,16.49955 L29.20455,11.26455 L6.74955,11.26455 L6.74955,16.49955 C6.67455,17.66505 7.55955,18.67155 8.72505,18.74655 C8.79105,18.75105 8.85855,18.75105 8.92455,18.74955 C10.08705,18.78555 11.07255,17.70555 11.15955,16.54455 C11.10705,15.33705 12.04455,14.31405 13.25205,14.26155 C13.33455,14.25855 13.41855,14.25855 13.49955,14.26455 C14.70855,14.25555 15.69705,15.29055 15.70455,16.49955 C15.70455,16.52055 15.70455,16.48005 15.70455,16.49955 C15.56055,17.74305 16.45305,18.86655 17.69505,19.01055 C18.93705,19.15455 20.06055,18.26355 20.20455,17.02005 C20.22555,16.84755 20.22555,16.67355 20.20455,16.49955 C20.06055,15.25755 20.95155,14.25255 22.19505,14.11005 C23.43705,13.96605 24.56055,14.85705 24.70455,16.09905 L24.70455,16.49955 Z M11.25,11.265 L11.25,6 M24.75,11.265 L24.75,6 M20.25,11.265 L20.25,6 M15.75,11.265 L15.75,6"/>
</svg>
