<svg xmlns="http://www.w3.org/2000/svg" width="36" height="36" viewBox="0 0 36 36">
  <path fill="none" stroke="#000" d="M20.4756,17.6184 C24.2556,19.7889 25.9356,23.3244 26.2506,27.7509 L9.7506,27.7509 C9.8241,23.2119 11.8236,19.7139 15.4491,17.6259 M14.29545,14.8176 C14.52045,17.0451 16.02945,18.7521 18.00045,18.7521 C19.96995,18.7521 21.47895,17.0451 21.70395,14.8176 M20.29545,10.68315 C19.66845,10.10415 18.88395,9.74865 18.00045,9.74865 C17.11545,9.74865 16.33095,10.10415 15.70395,10.68315 M24,6.7485 C22.0305,6.7485 20.5215,8.457 20.295,10.683 C21.186,11.5035 21.75,12.7845 21.75,14.2515 C21.75,14.445 21.723,14.6295 21.705,14.817 C22.332,15.396 23.1165,15.7515 24,15.7515 C26.1375,15.7515 27.75,13.752 27.75,11.2515 C27.75,8.7495 26.1375,6.7485 24,6.7485 Z M21.70455,14.8176 C21.72405,14.6301 21.74955,14.4456 21.74955,14.2521 C21.74955,12.7851 21.18555,11.5041 20.29605,10.6836 M15.70455,10.68315 C15.47955,8.45715 13.97055,6.74865 11.99955,6.74865 C9.86355,6.74865 8.24955,8.74965 8.24955,11.25165 C8.24955,13.75215 9.86355,15.75165 11.99955,15.75165 C12.88455,15.75165 13.66905,15.39615 14.29605,14.81715 C14.27655,14.62965 14.24955,14.44515 14.24955,14.25165 C14.24955,12.78465 14.81505,11.50365 15.70455,10.68315 Z M15.70455,10.68315 C14.81505,11.50365 14.24955,12.78465 14.24955,14.25165 C14.24955,14.44515 14.27655,14.62965 14.29605,14.81715 M26.4756,14.61615 C30.2556,16.78665 31.9356,20.32365 32.2506,24.75015 L25.7826,24.75015 M10.1133,24.74565 L3.7503,24.74565 C3.8253,20.20665 5.8233,16.70865 9.4503,14.62065"/>
</svg>
