<svg xmlns="http://www.w3.org/2000/svg" width="36" height="36" viewBox="0 0 36 36">
  <path fill="none" stroke="#000" d="M7.37625,9.80235 C4.60425,11.06385 3.75375,14.04435 3.75375,17.25585 L15.75525,17.25585 C15.75525,14.03085 14.88975,11.05185 12.12825,9.79185 M23.86665,24.7833 C21.45765,26.2128 20.25315,29.2653 20.25315,32.2548 L32.25615,32.2548 C32.25615,29.2503 31.04115,26.2068 28.63365,24.7833 M26.25,18.7503 C27.9705,18.7503 29.25,20.4933 29.25,22.5003 C29.25,23.3448 29.0235,24.1428 28.6335,24.7833 C28.095,25.6653 27.246,26.2503 26.25,26.2503 C25.254,26.2503 24.405,25.6653 23.8665,24.7833 C23.4765,24.1428 23.25,23.3448 23.25,22.5003 C23.25,20.4933 24.5295,18.7503 26.25,18.7503 Z M6,24.2076 L9.75,20.5026 L13.5,24.1986 M30,11.7528 L26.241,15.4593 L22.5,11.7618 M26.24115,15.45885 C26.82465,8.11785 23.07015,3.75585 17.98815,3.77230336 M9.75,3.7503 C11.4705,3.7503 12.75,5.4933 12.75,7.5003 C12.75,8.2173 12.588,8.8998 12.3,9.4818 C11.781,10.5303 10.857,11.2503 9.75,11.2503 C8.6445,11.2503 7.719,10.5318 7.2,9.4848 C6.9105,8.9028 6.75,8.2188 6.75,7.5003 C6.75,5.4933 8.0295,3.7503 9.75,3.7503 Z M9.75,20.50305 C9.168,27.84405 12.921,32.27055 18.003,32.2526047"/>
</svg>
