<svg xmlns="http://www.w3.org/2000/svg" width="36" height="36" viewBox="0 0 36 36">
  <path fill="none" stroke="#000" d="M14.2962,12.18165 C13.6692,11.60265 12.8847,11.24715 11.9997,11.24715 C9.8637,11.24715 8.2497,13.24815 8.2497,15.75015 C8.2497,18.25065 9.8637,20.25015 11.9997,20.25015 C13.9707,20.25015 15.4797,18.54315 15.7047,16.31715 M15.70455,16.3176 C15.72405,16.1301 15.74955,15.9441 15.74955,15.7506 C15.74955,14.2836 15.18555,13.0026 14.29605,12.1821 M14.49615,19.12935 C18.27615,21.29835 19.93515,24.82335 20.25015,29.24985 L3.75015,29.24985 C3.82515,24.71085 5.84865,21.19935 9.47565,19.11135 M20.29545,9.18315 C19.66845,8.60415 18.88395,8.24865 18.00045,8.24865 C16.02945,8.24865 14.52195,9.95565 14.29545,12.18165 C15.18495,13.00215 15.75045,14.28315 15.75045,15.75015 C15.75045,15.94515 15.72345,16.12965 15.70395,16.31715 C16.33095,16.89615 17.11545,17.25165 18.00045,17.25165 C19.96995,17.25165 21.47895,15.54465 21.70395,13.31715 M24,5.2485 C22.0305,5.2485 20.5215,6.957 20.295,9.183 C21.186,10.0035 21.75,11.2845 21.75,12.7515 C21.75,12.945 21.723,13.1295 21.705,13.317 C22.332,13.896 23.1165,14.2515 24,14.2515 C26.1375,14.2515 27.75,12.252 27.75,9.7515 C27.75,7.2495 26.1375,5.2485 24,5.2485 Z M21.70455,13.3176 C21.72405,13.1301 21.74955,12.9456 21.74955,12.7521 C21.74955,11.2851 21.18555,10.0041 20.29605,9.1836 M20.499,16.128 C24.279,18.297 25.935,21.8235 26.25,26.25 L19.764,26.25 M26.50485,13.13385 C30.28485,15.30435 31.93485,18.82335 32.24985,23.24985 L25.78485,23.24985"/>
</svg>
