<svg xmlns="http://www.w3.org/2000/svg" width="48" height="48" viewBox="0 0 48 48">
  <path fill="none" stroke="#000" d="M20.5,11.5 L20.5,8 L20.5,11.5 L23,11.5 L20.5,11.5 L20.5,17.5 L23.5,17.5 L20.5,17.5 L20.5,21.885 L20.5,17.5 L13,17.5 L20.5,17.5 L20.5,11.5 L13,11.5 L20.5,11.5 Z M10.5,8 L10.5,40 L10.5,8 Z M20.5,35.5195 L20.5,39.9995 L20.5,35.5195 Z M8,11.5 L10.5,11.5 L8,11.5 Z M8,17.5 L10.5,17.5 L8,17.5 Z M8,23.5 L10.5,23.5 L8,23.5 Z M8,29.5 L10.5,29.5 L8,29.5 Z M8,35.5 L10.5,35.5 L8,35.5 Z M13,23.5 L19.206,23.5 L13,23.5 Z M14,35.5 L25,35.5 L14,35.5 Z M13,29.5 L15.29,29.5 L13,29.5 Z M25,11.5 L27.646,11.5 L25,11.5 Z M18,29.5 L29,29.5 L18,29.5 Z M22,23.5 L33,23.5 L22,23.5 Z M26,17.5 L37,17.5 L26,17.5 Z M30,11.5 L41,11.5 L30,11.5 Z M10.5,36.5 L30,8 M20.5,36.5 L40,8"/>
</svg>
