<svg xmlns="http://www.w3.org/2000/svg" width="48" height="48" viewBox="0 0 48 48">
  <g fill="none" fill-rule="evenodd">
    <path stroke="#000" d="M19,4.5 L15.5,8 L15.5,33 L19,36.5 L29,36.5 L32.5,33 L32.5,8 L29,4.5 L19,4.5 Z M20,34.5 L28,34.5 L30.5,32 L30.5,9 L28,6.5 L20,6.5 L17.5,9 L17.5,32 L20,34.5 Z M26.5,28 C26.5,29.381 25.381,30.5 24,30.5 C22.619,30.5 21.5,29.381 21.5,28 C21.5,26.619 22.619,25.5 24,25.5 C25.381,25.5 26.5,26.619 26.5,28 Z M26.5,20 C26.5,21.381 25.381,22.5 24,22.5 C22.619,22.5 21.5,21.381 21.5,20 C21.5,18.619 22.619,17.5 24,17.5 C25.381,17.5 26.5,18.619 26.5,20 Z M26.5,12 C26.5,13.381 25.381,14.5 24,14.5 C22.619,14.5 21.5,13.381 21.5,12 C21.5,10.619 22.619,9.5 24,9.5 C25.381,9.5 26.5,10.619 26.5,12 Z M22.5,36.5 L22.5,42.994 L22.5,36.5 Z M25.5,36.5 L25.5,42.994 L25.5,36.5 Z M35,19.5 L37,19.5 L35,19.5 Z M13,16 L11,14 L13,16 Z M35,16 L37,14 L35,16 Z M13,19.5 L11,19.5 L13,19.5 Z M13,23 L11,25 L13,23 Z M35,23 L37,25 L35,23 Z M10,19.5 L9,19.5 L10,19.5 Z M38,19.5 L39,19.5 L38,19.5 Z"/>
    <path fill="#000" d="M26.5,20 C26.5,21.381 25.381,22.5 24,22.5 C22.619,22.5 21.5,21.381 21.5,20 C21.5,18.619 22.619,17.5 24,17.5 C25.381,17.5 26.5,18.619 26.5,20 Z"/>
  </g>
</svg>
