<svg xmlns="http://www.w3.org/2000/svg" width="24" height="24" viewBox="0 0 24 24">
  <g fill="none" fill-rule="evenodd">
    <polygon fill="#000" points="13.264 9 15.616 11.318 12.692 11.318 12.692 9 11.309 9 11.309 11.318 8.401 11.318 10.753 9 9.004 9 6 12 9.004 15 10.753 15 8.401 12.698 11.309 12.698 11.309 15 12.692 15 12.692 12.698 15.616 12.698 13.264 15 15.012 15 18 12 15.012 9"/>
    <path stroke="#000" d="M2.5,6.3594 C2.5,4.2284 4.228,2.5004 6.359,2.5004 L17.641,2.5004 C19.772,2.5004 21.5,4.2284 21.5,6.3594 L21.5,17.6404 C21.5,19.7724 19.771,21.5004 17.641,21.5004 L6.359,21.5004 C4.228,21.5004 2.5,19.7714 2.5,17.6404 L2.5,6.3594 Z"/>
  </g>
</svg>
