<svg xmlns="http://www.w3.org/2000/svg" width="24" height="24" viewBox="0 0 24 24">
  <g fill="none" fill-rule="evenodd">
    <polygon fill="#000" points="13.475 9 16.219 11.704 12.807 11.704 12.807 9 11.194 9 11.194 11.704 7.801 11.704 10.545 9 8.505 9 5 12.5 8.505 16 10.545 16 7.801 13.314 11.194 13.314 11.194 16 12.807 16 12.807 13.314 16.219 13.314 13.475 16 15.514 16 19 12.5 15.514 9"/>
    <path stroke="#000" d="M2.5,6.3594 C2.5,4.2284 4.228,2.5004 6.359,2.5004 L17.641,2.5004 C19.772,2.5004 21.5,4.2284 21.5,6.3594 L21.5,17.6404 C21.5,19.7724 19.771,21.5004 17.641,21.5004 L6.359,21.5004 C4.228,21.5004 2.5,19.7714 2.5,17.6404 L2.5,6.3594 Z"/>
  </g>
</svg>
