<svg xmlns="http://www.w3.org/2000/svg" width="24" height="24" viewBox="0 0 24 24">
  <path fill="none" stroke="#000" d="M10.5,6.5002 L10.481,6.6022 L9.5,10.5002 M19.5,3.5002 L18.5,17.5002 L19.5,3.5002 Z M7,19.9997 C6.392,20.0247 6.121,20.4787 5,20.4997 C3.469,20.4997 2.5,18.4997 2.5,15.5957 C2.5,12.4997 4.097,12.4797 5,12.4997 C6.175,12.4997 5.938,12.9997 7,12.9997 C8.062,12.9997 7.825,12.4997 9,12.4997 C9.903,12.4797 11.5,12.4997 11.5,15.5957 C11.5,18.4997 10.531,20.4997 9,20.4997 C7.879,20.4787 7.608,20.0247 7,19.9997 Z M13,17.4997 L18.5,17.4997 L21.5,15.4997 L19.5,3.4997 L11.5,3.4997 L9.5,6.4997 L17.5,6.4997 L19.5,3.4997 M5,10.5002 C5,10.5002 7,11.0002 7,13.0002"/>
</svg>
