<svg xmlns="http://www.w3.org/2000/svg" width="24" height="24" viewBox="0 0 24 24">
  <path fill="none" stroke="#000" d="M10.501,18 C10.501,19.954 8.954,21.5 7,21.5 C5.046,21.5 3.5,19.954 3.5,18 C3.5,16.046 5.046,14.505 7,14.505 C8.954,14.505 10.501,16.046 10.501,18 Z M20.501,18 C20.501,19.954 18.954,21.5 17,21.5 C15.046,21.5 13.5,19.954 13.5,18 C13.5,16.046 15.046,14.505 17,14.505 C18.954,14.505 20.501,16.046 20.501,18 Z M15.5,18.001 C15.5,17.163 16.163,16.502 17,16.502 M6.999,16.502 C6.161,16.502 5.5,17.164 5.5,18.002 M3.5,18 L4.5,9.5 L6.5,8.5 L7.5,4.5 L10.5,4.5 L10.5,8.037 M20.501,18 L19.501,9.5 L17.501,8.5 L16.501,4.5 L13.501,4.5 L13.5,8 M8.5,13 C8.5,11.046 10.046,9.504 12,9.504 C13.954,9.504 15.501,11.046 15.501,13 M10.5005,18 L10.5005,9.845 M13.501,18 L13.5,9.845"/>
</svg>
