<svg xmlns="http://www.w3.org/2000/svg" width="24" height="24" viewBox="0 0 24 24">
  <path fill="none" stroke="#000" d="M10.5,6.5002 C10.5,7.6652 9.665,8.5002 8.5,8.5002 C7.335,8.5002 6.5,7.6652 6.5,6.5002 C6.5,5.3352 7.335,4.5002 8.5,4.5002 C9.665,4.5002 10.5,5.3352 10.5,6.5002 Z M17.5,12.5002 C17.5,13.6302 16.631,14.5002 15.5,14.5002 C14.369,14.5002 13.5,13.6302 13.5,12.5002 C13.5,11.3692 14.369,10.5002 15.5,10.5002 C16.631,10.5002 17.5,11.3692 17.5,12.5002 Z M10.5,18.4997 C10.5,19.6477 9.648,20.4997 8.5,20.4997 C7.352,20.4997 6.5,19.6477 6.5,18.4997 C6.5,17.3527 7.352,16.4997 8.5,16.4997 C9.648,16.4997 10.5,17.3527 10.5,18.4997 Z M6.5,6.5002 L2,6.5002 L6.5,6.5002 Z M10.5,6.5002 L22,6.5002 L10.5,6.5002 Z M17.5,12.5002 L22,12.5002 L17.5,12.5002 Z M13.5,12.5002 L2,12.5002 L13.5,12.5002 Z M6.5,18.4997 L2,18.4997 L6.5,18.4997 Z M10.5,18.4997 L22,18.4997 L10.5,18.4997 Z"/>
</svg>
