<svg xmlns="http://www.w3.org/2000/svg" width="24" height="24" viewBox="0 0 24 24">
  <path fill="none" stroke="#000" d="M10.5,13 C10.5,13.276 10.276,13.5 10,13.5 C9.724,13.5 9.5,13.276 9.5,13 C9.5,12.724 9.724,12.5 10,12.5 C10.276,12.5 10.5,12.724 10.5,13 Z M14.5,13 C14.5,13.276 14.276,13.5 14,13.5 C13.724,13.5 13.5,13.276 13.5,13 C13.5,12.724 13.724,12.5 14,12.5 C14.276,12.5 14.5,12.724 14.5,13 Z M9.1333,16 C9.7663,16.905 10.8123,17.5 12.0003,17.5 C13.1873,17.5 14.2343,16.905 14.8663,16 M6.5,9 C6.5,5.962 8.962,3.5 12,3.5 C15.037,3.5 17.5,5.962 17.5,9 C17.5,9.829 18.172,10.5 19,10.5 L5,10.5 C5.829,10.5 6.5,9.829 6.5,9 Z M6.5,8.5 L11,8.5 M13,8.5 L17.5,8.5 M7.7573,10.5 C6.9713,11.451 6.5003,12.67 6.5003,14 C6.5003,17.037 8.9623,19.5 12.0003,19.5 C15.0373,19.5 17.5003,17.037 17.5003,14 C17.5003,12.67 17.0283,11.451 16.2423,10.5"/>
</svg>
