<svg xmlns="http://www.w3.org/2000/svg" width="24" height="24" viewBox="0 0 24 24">
  <path fill="none" stroke="#000" d="M17.5,14 C17.5,17.037 15.037,19.5 12,19.5 C8.962,19.5 6.5,17.037 6.5,14 C6.5,10.962 8.962,8.5 12,8.5 C15.037,8.5 17.5,10.962 17.5,14 Z M10.5,13 C10.5,13.276 10.276,13.5 10,13.5 C9.724,13.5 9.5,13.276 9.5,13 C9.5,12.724 9.724,12.5 10,12.5 C10.276,12.5 10.5,12.724 10.5,13 Z M14.5,13 C14.5,13.276 14.276,13.5 14,13.5 C13.724,13.5 13.5,13.276 13.5,13 C13.5,12.724 13.724,12.5 14,12.5 C14.276,12.5 14.5,12.724 14.5,13 Z M9.1333,16 C9.7663,16.905 10.8123,17.5 12.0003,17.5 C13.1873,17.5 14.2343,16.905 14.8663,16 M15.5,7.3691 L15.5,5.0001 L14,6.0001 L13,5.0001 L12,6.0001 L11,5.0001 L10,6.0001 L8.5,5.0001 L8.5,7.3691 C9.545,6.8161 10.735,6.5001 12,6.5001 C13.265,6.5001 14.455,6.8161 15.5,7.3691 Z"/>
</svg>
