<svg xmlns="http://www.w3.org/2000/svg" width="24" height="24" viewBox="0 0 24 24">
  <path fill="none" stroke="#000" d="M2.5,7.5002 L5.5,7.5002 L5.5,13.5002 L10.5,9.5002 L10.5,13.5002 L15.5,9.5002 L15.5,13.5002 L20.5,9.5002 L20.5,20.5002 L2.5,20.5002 L2.5,7.5002 Z M5.5,17.5 L7.5,17.5 L7.5,16.5 L5.5,16.5 L5.5,17.5 Z M10.5,17.5 L12.5,17.5 L12.5,16.5 L10.5,16.5 L10.5,17.5 Z M15.5,17.5 L17.5,17.5 L17.5,16.5 L15.5,16.5 L15.5,17.5 Z M7.0103,2.8913 C6.7433,2.6483 6.3893,2.5003 6.0003,2.5003 C5.3073,2.5003 4.7303,2.9723 4.5573,3.6093 C4.3853,3.5403 4.1973,3.5003 4.0003,3.5003 C3.1713,3.5003 2.5003,4.1713 2.5003,5.0003 M10.5,5.0002 C10.5,4.1712 9.829,3.5002 9,3.5002 C8.308,3.5002 7.73,3.9722 7.558,4.6092 C7.385,4.5402 7.197,4.5002 7,4.5002 C6.171,4.5002 5.5,5.1712 5.5,6.0002"/>
</svg>
