<svg xmlns="http://www.w3.org/2000/svg" width="24" height="24" viewBox="0 0 24 24">
  <path fill="none" stroke="#000" d="M2,11.5002 L21,11.5002 M8.8614,17.028 L4.1264,13.72 C3.6954,13.375 3.0654,13.443 2.7194,13.874 C2.3744,14.304 2.4434,14.934 2.8744,15.28 L8.7994,20.5 L12.7424,20.5 L13.7504,21.5 L21.2004,21.5 L16.1724,16.436 C15.0354,15.342 13.5884,14.528 12.1094,14.5 L10.0004,14.5 C8.0154,14.5 7.9684,17.5 10.0004,17.5 L12.0004,17.5 M19.5,11.5002 C19.5,7.3972 15.658,5.5002 11.5,5.5002 C7.342,5.5002 3.5,7.3972 3.5,11.5002 M12.5,4.5002 C12.5,5.0522 12.053,5.5002 11.5,5.5002 C10.947,5.5002 10.5,5.0522 10.5,4.5002 C10.5,3.9472 10.947,3.5002 11.5,3.5002 C12.053,3.5002 12.5,3.9472 12.5,4.5002 Z"/>
</svg>
