<svg xmlns="http://www.w3.org/2000/svg" width="24" height="24" viewBox="0 0 24 24">
  <path fill="none" stroke="#000" d="M21.1406,4.8594 L18.4996,7.5004 L16.4996,7.5004 L16.4996,5.5004 L19.1406,2.8594 C18.6386,2.6334 18.0856,2.5004 17.4996,2.5004 C15.2906,2.5004 13.4996,4.2914 13.4996,6.5004 C13.4996,7.0864 13.6326,7.6384 13.8596,8.1404 L8.1406,13.8594 C7.6386,13.6324 7.0856,13.5004 6.4996,13.5004 C4.2906,13.5004 2.4996,15.2914 2.4996,17.5004 C2.4996,18.0864 2.6326,18.6384 2.8596,19.1404 L5.4996,16.5004 L7.4996,16.5004 L7.4996,18.5004 L4.8596,21.1404 C5.3616,21.3674 5.9136,21.5004 6.4996,21.5004 C8.7086,21.5004 10.4996,19.7094 10.4996,17.5004 C10.4996,16.9144 10.3676,16.3614 10.1406,15.8594 L15.8596,10.1404 C16.3616,10.3664 16.9136,10.5004 17.4996,10.5004 C19.7086,10.5004 21.4996,8.7094 21.4996,6.5004 C21.4996,5.9144 21.3676,5.3614 21.1406,4.8594 Z"/>
</svg>
