<svg xmlns="http://www.w3.org/2000/svg" width="24" height="24" viewBox="0 0 24 24">
  <path fill="none" stroke="#000" d="M13.5,17.9997 C13.5,18.8277 12.829,19.4997 12,19.4997 C11.171,19.4997 10.5,18.8277 10.5,17.9997 C10.5,17.1717 11.171,16.4997 12,16.4997 C12.829,16.4997 13.5,17.1717 13.5,17.9997 Z M2.2197,8.7121 C4.6787,6.1231 8.1467,4.5001 11.9997,4.5001 C15.8537,4.5001 19.3207,6.1231 21.7807,8.7121 M21.7803,8.7121 C19.3203,6.1231 15.8533,4.5001 12.0003,4.5001 C8.1463,4.5001 4.6793,6.1231 2.2193,8.7121 M4.3931,10.7761 C6.3061,8.7621 9.0031,7.5001 12.0001,7.5001 C14.9971,7.5001 17.6941,8.7621 19.6071,10.7761 M19.6074,10.7761 C17.6944,8.7621 14.9974,7.5001 12.0004,7.5001 C9.0034,7.5001 6.3064,8.7621 4.3934,10.7761 M6.5713,12.8445 C7.9383,11.4055 9.8643,10.5035 12.0063,10.5035 C14.1443,10.5035 16.0683,11.4035 17.4343,12.8385 M17.4346,12.8386 C16.0686,11.4026 14.1446,10.5036 12.0056,10.5036 C9.8646,10.5036 7.9376,11.4056 6.5716,12.8446 M8.7441,14.9079 C9.5641,14.0449 10.7151,13.4999 12.0001,13.4999 C13.2841,13.4999 14.4361,14.0449 15.2561,14.9079 M15.2559,14.9079 C14.4369,14.0449 13.2839,13.4999 11.9999,13.4999 C10.7149,13.4999 9.5639,14.0449 8.7439,14.9079"/>
</svg>
