<svg xmlns="http://www.w3.org/2000/svg" width="24" height="24" viewBox="0 0 24 24">
  <path fill="none" stroke="#000" d="M9.8999,16 C8.4999,15.2 7.4999,13.7 7.4999,12 C7.4999,9.5 9.4999,7.5 11.9999,7.5 C14.4999,7.5 16.4999,9.5 16.4999,12 C16.4999,13.7 15.4999,15.3 14.0999,16 M14.5,16 L14.5,18.1 L12.5,18.8 L12.5,19.5 L11.5,19.5 L11.5,18.8 L9.5,18.1 L9.5,16 L14.5,16 Z M15.9453,5.0508 L15.2433,6.3378 M18.8438,7.9507 L17.5608,8.6587 M18.5,12 L20,12.004 M17.5547,15.3525 L18.8537,16.0455 M5.0425,16.0371 L6.3525,15.2571 M4,12 L5.5,12 M5.1099,7.9897 L6.3909,8.8137 M8.0474,5.0537 L8.7564,6.3427 M12,4 L12,5.5"/>
</svg>
