<svg xmlns="http://www.w3.org/2000/svg" width="24" height="24" viewBox="0 0 24 24">
  <path fill="none" stroke="#000" d="M9.53762845,14.5029599 C8.89483486,13.870757 8.5,12.9874783 8.5,12 C8.5,10.8345759 9.04995654,9.81571198 9.90842331,9.18315728 L6.975568,5.15410357 C6.716275,5.37151929 6.37790376,5.5 6,5.5 C5.15,5.5 4.5,4.85 4.5,4 C4.5,3.15 5.15,2.5 6,2.5 C6.85,2.5 7.5,3.15 7.5,4 C7.5,4.47209624 7.29948975,4.88249701 6.975568,5.15410357 L9.9086,9.1834 C10.4892987,8.75514367 11.2114241,8.504 12,8.504 C13.954,8.504 15.501,10.046 15.501,12 C15.501,13.954 13.954,15.5 12,15.5 C11.0334783,15.5 10.1667804,15.1217459 9.53762845,14.5029599 L6.9131,17.0625 C6.5539812,16.7119076 6.05790984,16.5 5.4999,16.5 C4.3709,16.5 3.4999,17.369 3.4999,18.498 C3.4999,19.628 4.3709,20.5 5.4999,20.5 C6.6299,20.5 7.5059,19.628 7.5059,18.498 C7.5059,17.926516 7.28144756,17.4216504 6.91321429,17.0623885 Z M17.6816,14.6416 L15.1796,13.4836 L17.6815436,14.6415739 C17.9926146,13.9562483 18.6744905,13.5 19.5,13.5 C20.636,13.5 21.5,14.364 21.5,15.5 C21.5,16.636 20.636,17.5 19.5,17.5 C18.364,17.5 17.5,16.636 17.5,15.5 C17.5,15.1895095 17.5645437,14.8993384 17.6815436,14.6415739 Z M17.7646,7.8638 L14.8226,9.9128 L17.7644015,7.86393822 C17.5968818,7.62154359 17.4998,7.32468291 17.4998,7 C17.4998,6.156 18.1558,5.495 18.9998,5.495 C19.8438,5.495 20.5098,6.156 20.5098,7 C20.5098,7.844 19.8438,8.5 18.9998,8.5 C18.4804829,8.5 18.0323426,8.25163855 17.7644015,7.86393822 Z"/>
</svg>
