<svg xmlns="http://www.w3.org/2000/svg" width="24" height="24" viewBox="0 0 24 24">
  <g fill="none" fill-rule="evenodd">
    <path stroke="#000" d="M3.5,5.5 L15.5,5.5 L15.5,8.5 L15.5,11.5 L15.5,13.5 L15.5,14.5 L9.5,14.5 L8.75,14.5 L6.5,16.75 L6.5,14.5 L3.5,14.5 L3.5,5.5 Z M15.5,8.5 L20.5,8.5 L20.5,17.5 L17.5,17.5 L17.5,19.75 L15.25,17.5 L9.5,17.5 L9.5,14.5 M19,11.5 L15.5,11.5 M18,13.5 L15.5,13.5"/>
    <path fill="#000" d="M8.828,12.628 L8.828,11.816 L9.672,11.816 L9.672,12.628 L8.828,12.628 Z M7.497,8.675 C7.515,8.191 7.61,7.816 7.782,7.55 C7.94,7.306 8.151,7.117 8.415,6.984 C8.678,6.851 8.973,6.785 9.301,6.785 C9.83,6.785 10.25,6.935 10.563,7.234 C10.854,7.51 11,7.873 11,8.324 C11,8.696 10.901,9.017 10.704,9.285 C10.615,9.407 10.403,9.632 10.067,9.96 C9.918,10.104 9.815,10.223 9.756,10.318 C9.698,10.413 9.657,10.531 9.633,10.671 C9.607,10.812 9.594,10.994 9.594,11.218 L8.93,11.218 C8.936,10.82 8.971,10.524 9.036,10.332 C9.083,10.191 9.149,10.064 9.237,9.953 C9.324,9.841 9.518,9.631 9.817,9.324 C10.01,9.126 10.136,8.947 10.196,8.789 C10.245,8.653 10.27,8.515 10.27,8.375 C10.27,8.114 10.198,7.896 10.055,7.718 C9.883,7.502 9.629,7.394 9.293,7.394 C8.598,7.394 8.223,7.821 8.168,8.675 L7.497,8.675 Z"/>
  </g>
</svg>
