<svg xmlns="http://www.w3.org/2000/svg" width="24" height="24" viewBox="0 0 24 24">
  <path fill="none" stroke="#000" d="M16,12.5002 L17.5,12.5002 M5.499,18.509 L8.5,18.509 L8.5,10.501 L5.499,10.501 L5.499,18.509 Z M16,14.4997 L17.5,14.4997 M16,16.5007 L16.5,16.5007 M17.5,10.5002 C18.053,10.5002 18.5,10.9482 18.5,11.5002 C18.5,12.0522 18.053,12.5002 17.5,12.5002 C18.053,12.5002 18.5,12.9482 18.5,13.5002 C18.5,14.0522 18.053,14.5002 17.5,14.5002 C18.053,14.5002 18.5,14.9482 18.5,15.5002 C18.5,16.0522 18.053,16.5002 17.5,16.5002 L16.5,16.5002 C17.052,16.5002 17.5,16.9482 17.5,17.5002 C17.5,18.0522 17.052,18.5002 16.5,18.5002 C16.5,18.5002 13.008,18.5002 11.5,18.5002 C9.992,18.5002 8.5,18.0002 8.5,15.5002 L8.5,10.5002 L9.5,10.5002 L13.79,5.7952 C13.972,5.6132 14.223,5.5002 14.5,5.5002 C15.053,5.5002 15.5,5.9482 15.5,6.5002 C15.5,6.6222 15.479,6.7392 15.438,6.8472 L14,10.5002 L17.5,10.5002"/>
</svg>
