<svg xmlns="http://www.w3.org/2000/svg" width="24" height="24" viewBox="0 0 24 24">
  <path fill="none" stroke="#000" d="M8.5,11.8208 L5.5,14.8208 L5.5,12.4998 L2.5,12.4998 L2.5,3.4998 L15.5,3.4998 L15.5,10.4998 M21.5,10.5 L8.5,10.5 L8.5,19.5 L16.209,19.5 L18.5,21.791 L18.5,19.5 L21.5,19.5 L21.5,10.5 Z M14,6.5 L4,6.5 M12,8.5 L4,8.5 M20,13.5 L10,13.5 M20,15.5 L10,15.5 M2.5,15 L2.5,19.5 L6.293,19.5 M4.5249,17.7324 L6.2929,19.5004 L4.5249,21.2674 M21.5,9 L21.5,5.5 L17.707,5.5 M19.4746,7.2676 L17.7066,5.4996 L19.4746,3.7326"/>
</svg>
