<svg xmlns="http://www.w3.org/2000/svg" width="48" height="48" viewBox="0 0 48 48">
  <path fill="none" stroke="#000" d="M21.876,31.248 L27.374,34.218 C28.272,34.703 29.401,34.365 29.886,33.469 C30.37,32.571 30.035,31.429 29.139,30.944 M24.6611,28.5244 L31.9751,32.4764 C32.8721,32.9614 34.0021,32.6244 34.4871,31.7274 C34.9721,30.8304 34.6171,29.7134 33.7211,29.2294 M27.5684,25.9053 L35.3174,30.0923 C36.2144,30.5773 37.3444,30.2403 37.8294,29.3433 C38.3144,28.4463 37.9764,27.3163 37.0804,26.8313 L26.7624,21.2573 L19.9004,24.6503 C17.4594,25.8723 15.1504,23.2603 17.0004,21.0503 C21.4664,16.1783 25.1314,11.5663 29.0994,12.8503 L37.0994,15.3493 L42.5004,12.3503 L42.5004,26.0503 L38.0454,28.5243 M25.0039,32.9375 C25.9009,33.4215 26.2289,34.5595 25.7429,35.4575 C25.2589,36.3535 24.1289,36.6905 23.2319,36.2065 L4.4999,26.6355 L4.4999,11.8875 L9.8999,14.8875 L17.7029,12.4345 C19.9549,11.8725 22.1509,12.6485 23.8679,14.1545"/>
</svg>
