<svg xmlns="http://www.w3.org/2000/svg" width="48" height="48" viewBox="0 0 48 48">
  <path fill="none" stroke="#000" d="M19.2998,32.5 C16.4998,30.9 14.4998,27.9 14.4998,24.5 C14.4998,19.5 18.4998,15.5 23.4998,15.5 C28.4998,15.5 32.4998,19.5 32.4998,24.5 C32.4998,27.9 30.4998,31.1 27.6998,32.5 M28.5,32.5 L28.5,38.7 L24.5,40.1 L24.5,41.5 L22.5,41.5 L22.5,40.1 L18.5,38.7 L18.5,32.5 L28.5,32.5 Z M27,26 L24.5,28 L24.5,32.5 M20,26 L22.5,28 L22.5,32.5 M28.5,34.5 L26,34.5 M18.5,36.5 L21,36.5 M28.5,36.5 L26,36.5 M18.5,34.5 L21,34.5 M37,24.5 L40,24.508 M7,24.5 L10,24.5 M23.5,8 L23.5,11 M35.1895,17.751 L37.7915,16.257 M9.2085,32.751 L11.8065,31.251 M30.2471,12.8105 L31.7531,10.2165 M35.1934,31.251 L37.7874,32.757 M9.2124,16.251 L11.8104,17.751 M15.2529,10.2124 L16.7529,12.8104"/>
</svg>
