<svg xmlns="http://www.w3.org/2000/svg" width="48" height="48" viewBox="0 0 48 48">
  <g fill="none" fill-rule="evenodd">
    <path stroke="#000" d="M32,35.4997 L36,42.5007 M12,42.5007 L16,35.4997 M36,38.4997 L12,38.4997 M38,42.5007 L10,42.5007 M17.5,29.9997 C17.5,29.1717 16.828,28.4997 16,28.4997 C15.172,28.4997 14.5,29.1717 14.5,29.9997 C14.5,30.8287 15.172,31.4997 16,31.4997 C16.828,31.4997 17.5,30.8287 17.5,29.9997 Z M33.5,29.9997 C33.5,29.1717 32.828,28.4997 32,28.4997 C31.172,28.4997 30.5,29.1717 30.5,29.9997 C30.5,30.8287 31.172,31.4997 32,31.4997 C32.828,31.4997 33.5,30.8287 33.5,29.9997 Z M28,14.5007 L20,14.5007 M37.5,24.4997 L10.5,24.4997 M32,5.4997 L16,5.4997 M37.5,35.4997 L10.5,35.4997 L10.5,16.4997 C10.5,13.7387 12.825,11.4997 15.692,11.4997 L32.308,11.4997 C35.176,11.4997 37.5,13.7387 37.5,16.4997 L37.5,35.4997 Z M20,5.4997 L24,11.4997 M28,5.4997 L24,11.4997"/>
    <polygon fill="#000" points="24.722 28.001 26.166 29.501 24.451 29.501 24.451 28.001 23.549 28.001 23.549 29.501 21.834 29.501 23.279 28.001 22.196 28.001 20.39 30.001 22.196 32.001 23.279 32.001 21.834 30.501 23.549 30.501 23.549 32.001 24.451 32.001 24.451 30.501 26.166 30.501 24.722 32.001 25.805 32.001 27.611 30.001 25.805 28.001"/>
  </g>
</svg>
