<svg xmlns="http://www.w3.org/2000/svg" width="24" height="24" viewBox="0 0 24 24">
  <path fill="none" stroke="#000" d="M17.5,21 L17.5,9.5 L17.5,21 Z M17.5,3.5 C18.604,3.5 19.5,4.843 19.5,6.5 C19.5,8.157 18.604,9.5 17.5,9.5 C16.396,9.5 15.5,8.157 15.5,6.5 C15.5,4.843 16.396,3.5 17.5,3.5 Z M5.5,21 L5.5,9.5 L5.5,21 Z M7.5,3 L7.5,7.5 C7.5,7.5 7.5,9.5 5.5,9.5 C3.5,9.5 3.5,7.5 3.5,7.5 L3.5,3 M5.5,8 L5.5,3 L5.5,8 Z M10.5,12.5 L10.5,21 L10.5,3.5 L11,3.5 C12.4,3.5 12.5,4.8 12.5,6.5 L12.5,12.5 L10.5,12.5 Z"/>
</svg>
