<svg xmlns="http://www.w3.org/2000/svg" width="24" height="24" viewBox="0 0 24 24">
  <path fill="none" stroke="#000" d="M14.5,19.9997 L14.5,14.4997 L10.5,14.4997 C8.333,14.5297 8.5,19.9997 8.5,19.9997 M6.5,19.9997 L6.5,10.4997 L13.5,9.4997 L17.5,5.4997 L17.5,7.4997 L20.5,10.4997 L18.5,12.4997 L17.5,11.4997 L16.5,12.4997 L16.5,19.9997 M6.5,10.5002 C6.5,10.5002 2.5,10.5512 2.5,8.0092 M17,9.5002 C17,9.2242 16.776,9.0002 16.5,9.0002 C16.224,9.0002 16,9.2242 16,9.5002 C16,9.7762 16.224,10.0002 16.5,10.0002 C16.776,10.0002 17,9.7762 17,9.5002"/>
</svg>
