<svg xmlns="http://www.w3.org/2000/svg" width="24" height="24" viewBox="0 0 24 24">
  <path fill="none" stroke="#000" d="M14.5,9.4997 L14.5,4.9997 C14.5,3.6187 13.381,2.4997 12,2.4997 C10.619,2.4997 9.5,3.6187 9.5,4.9997 L9.5,9.4997 L7.5,21.4997 L16.5,21.4997 L14.5,9.4997 Z M5,21.4997 L19,21.4997 M8,9.4997 L16,9.4997 M18,7.4997 L20,7.4997 M21,7.4997 L22,7.4997 M18,5.4997 L21.5,3.4997 M18,9.4997 L21.5,11.4997 M6,7.4997 L4,7.4997 M3,7.4997 L2,7.4997 M6,5.4997 L2.5,3.4997 M6,9.4997 L2.5,11.4997 M8,5.4997 L16,5.4997"/>
</svg>
