<svg xmlns="http://www.w3.org/2000/svg" width="24" height="24" viewBox="0 0 24 24">
  <path fill="none" stroke="#000" d="M10,13.5 C10.276,13.5 10.5,13.724 10.5,14 C10.5,14.276 10.276,14.5 10,14.5 C9.724,14.5 9.5,14.276 9.5,14 C9.5,13.724 9.724,13.5 10,13.5 Z M10,11.5 C11.381,11.5 12.5,12.619 12.5,14 C12.5,15.381 11.381,16.5 10,16.5 C8.619,16.5 7.5,15.381 7.5,14 C7.5,12.619 8.619,11.5 10,11.5 Z M10,8.5 C13.037,8.5 15.5,10.962 15.5,14 C15.5,17.037 13.037,19.5 10,19.5 C6.962,19.5 4.5,17.037 4.5,14 C4.5,10.962 6.962,8.5 10,8.5 Z M10,14 L17,7 L10,14 Z M14.5,9.5 L14.5,6 L14.5,9.5 Z M18,9.5 L14.5,9.5 L18,9.5 Z M20,7.5 L16.5,7.5 L16.5,4"/>
</svg>
