<svg xmlns="http://www.w3.org/2000/svg" width="24" height="24" viewBox="0 0 24 24">
  <path fill="none" stroke="#000" d="M2,21.5 L22,21.5 L2,21.5 Z M11.5,21.5 L11.5,9 L11.5,21.5 Z M11.5,16 L15,12 L11.5,16 Z M11.5,13 L9,11 L11.5,13 Z M20.0078,11.1479 C20.3178,10.6759 20.4998,10.1139 20.4998,9.5079 C20.4998,7.8509 19.1568,6.5079 17.4998,6.5079 C17.1178,6.5079 16.7558,6.5859 16.4198,6.7169 C16.0388,4.3339 13.9898,2.5079 11.4998,2.5079 C8.7388,2.5079 6.4998,4.7469 6.4998,7.5079 C6.4998,7.8649 6.5398,8.2109 6.6118,8.5469 C4.3108,8.7469 2.4998,10.6559 2.4998,13.0079 C2.4998,15.4929 4.5148,17.5079 6.9998,17.5079 L17.9998,17.5079 C19.9328,17.5079 21.4998,15.9409 21.4998,14.0079 C21.4998,12.8239 20.9078,11.7809 20.0078,11.1479 Z"/>
</svg>
