<?xml version="1.0" encoding="utf-8"?>
<!-- Generator: Adobe Illustrator 19.2.1, SVG Export Plug-In . SVG Version: 6.00 Build 0)  -->
<svg version="1.1" id="Ebene_1" xmlns="http://www.w3.org/2000/svg" xmlns:xlink="http://www.w3.org/1999/xlink" x="0px" y="0px"
	 width="59px" height="20px" viewBox="0 0 59 20" enable-background="new 0 0 59 20" xml:space="preserve">
<path id="SN_8_" d="M4.2003255,11.9487543c-0.0324965,2.8597069,2.3722577,4.1270781,4.9394956,4.1270781
	c3.1521778,0,4.825757-1.5923386,4.825757-3.720871c0-2.6322308-2.5997353-3.1684265-3.4446478-3.3796549
	c-2.9084535-0.7474232-3.460897-0.8611612-3.460897-1.7548199c0-0.9749007,0.9424043-1.3161159,1.7548213-1.3161159
	c1.2186251,0,2.209774,0.3574634,2.2910156,1.7548208h2.4697475c0-2.6809769-2.2260227-3.7371185-4.6470251-3.7371185
	c-2.096036,0-4.3383069,1.1373837-4.3383069,3.5096414c0,2.177278,1.7385726,2.8434596,3.460896,3.2984138
	c1.7060757,0.4549532,3.4446487,0.6661816,3.4446487,1.917304c0,1.1861277-1.3648615,1.4461021-2.2585192,1.4461021
	c-1.3648605,0-2.5672383-0.6011887-2.5672383-2.1447802H4.2003255z M15.3606138,15.7996092h2.3885069V8.0329027h0.0324955
	l4.825758,7.7667065h2.5509892V4.1982946h-2.3885059v7.7829552h-0.0324955l-4.8420067-7.7829552h-2.5347414V15.7996092z"/>
<path d="M32.5111465,12.8794918h2.1832047c0.1792984,0.8964844,0.6988297,1.344532,1.5583992,1.344532
	c0.485157,0,0.8792953-0.164649,1.1826172-0.4943361c0.3031235-0.3294926,0.5365219-0.8423834,0.7000008-1.5384769
	c0.1054688-0.4429684,0.1820297-0.9464846,0.2292938-1.5109377c-0.3531227,0.4957037-0.7156219,0.8478518-1.0874977,1.0560551
	c-0.3718758,0.2083988-0.8240242,0.3125-1.3566399,0.3125c-0.8492203,0-1.587307-0.2478514-2.2148438-0.7435551
	c-0.4378929-0.3480463-0.7792969-0.7988281-1.0242195-1.3527336c-0.2453117-0.5535164-0.3679695-1.1546879-0.3679695-1.8035164
	c0-1.3023434,0.4457016-2.3570309,1.3367195-3.164062c0.7646484-0.696094,1.6822243-1.0441408,2.7527351-1.0441408
	c0.6593742,0,1.2683563,0.1476564,1.827343,0.4429688c0.5589828,0.2955079,1.0283203,0.7148438,1.4080086,1.2578125
	c0.6697235,0.9650393,1.0044899,2.3203125,1.0044899,4.0658207c0,1.6136713-0.295311,2.9900389-0.8859367,4.1291008
	c-0.7699203,1.4820318-1.9351578,2.2226562-3.4960938,2.2226562c-1.0390625,0-1.8972664-0.2873039-2.5750008-0.8621092
	C33.0082169,14.6224613,32.6166153,13.8498049,32.5111465,12.8794918z M36.3556786,5.8947268
	c-0.4957008,0-0.9150391,0.203125-1.2578125,0.608984c-0.342968,0.4113283-0.514061,0.9335938-0.514061,1.5664062
	c0,0.5113287,0.1238289,0.9648438,0.3716774,1.3605471c0.337307,0.5429688,0.8119164,0.8146486,1.4238281,0.8146486
	c0.5537109,0,0.9966812-0.2214842,1.328907-0.6644535C38.019352,9.164258,38.1748199,8.6685543,38.1748199,8.09375
	c0-0.6064453-0.1609383-1.1205077-0.4824219-1.5423827C37.3548965,6.1134768,36.9091949,5.8947268,36.3556786,5.8947268z"/>
</svg>
