<?xml version="1.0" encoding="utf-8"?>
<!-- Generator: Adobe Illustrator 19.2.1, SVG Export Plug-In . SVG Version: 6.00 Build 0)  -->
<svg version="1.1" id="Ebene_1" xmlns="http://www.w3.org/2000/svg" xmlns:xlink="http://www.w3.org/1999/xlink" x="0px" y="0px"
	 width="59px" height="20px" viewBox="0 0 59 20" enable-background="new 0 0 59 20" xml:space="preserve">
<path d="M42.4356461,4.2175779v11.5646486h-2.3097687V8.2123051h-0.8226547h-0.8226547h-0.7989273h-0.2768555V6.5353518
	c0.5642586-0.0158205,1.0243149-0.0738282,1.3803711-0.1740236c0.3558578-0.1001954,0.6814461-0.2636719,0.9768562-0.4904299
	c0.4271469-0.3269529,0.71455-0.8781247,0.8622055-1.6533203H42.4356461z"/>
<path d="M45.7420883,7.8800783c0.0263672-0.9492188,0.2610359-1.7455082,0.7040062-2.3888674
	c0.7170906-1.0335937,1.7956047-1.5503907,3.2352524-1.5503907c1.1074219,0,2.0012703,0.2820315,2.6815453,0.8462892
	c0.7329102,0.6119142,1.0995102,1.4029298,1.0995102,2.3730469c0,0.5802736-0.1437492,1.0796871-0.4310532,1.4990234
	c-0.2875023,0.4191408-0.6763687,0.702734-1.1667976,0.8503904c0.6221657,0.1423826,1.1139641,0.4587889,1.475193,0.9492188
	c0.3612328,0.4904299,0.5418968,1.0835943,0.5418968,1.7796879c0,1.1443357-0.4219742,2.0804682-1.265625,2.8082027
	c-0.780468,0.6750002-1.7667007,1.0124998-2.9584007,1.0124998c-1.2920876,0-2.3164062-0.3718748-3.073143-1.1154289
	c-0.7567368-0.7435551-1.1350594-1.7480469-1.1350594-3.0136719c0-0.0263672,0-0.0763674,0-0.1503906h2.2227554
	c0,0.7119141,0.1687508,1.2617188,0.5062485,1.6492186c0.3374023,0.3876953,0.8147469,0.5814447,1.4317398,0.5814447
	s1.0916023-0.1818352,1.4238281-0.5457029c0.3057594-0.3427734,0.4587898-0.7515621,0.4587898-1.2261715
	c0-0.5695314-0.195118-1.0203123-0.5853539-1.3525391c-0.3216782-0.2742186-0.8174782-0.4113283-1.4871101-0.4113283
	c-0.1898422,0-0.3770485,0.0105467-0.5616188,0.031641V8.8054686C48.9958,8.8162107,49.127636,8.8212891,49.2542,8.8212891
	c1.328907,0,1.9933586-0.4929686,1.9933586-1.4791017c0-0.4324217-0.1451187-0.781836-0.4350586-1.0482421
	c-0.2900391-0.266211-0.6723633-0.3994141-1.1469727-0.3994141c-0.5431633,0-0.9624023,0.1689453-1.2577133,0.5062499
	c-0.2954102,0.3375001-0.4536133,0.8306642-0.4746094,1.4792972H45.7420883z"/>
<polygon points="9.2512569,4.1999998 13.3211823,4.1999998 8.2861805,15.8000002 4.1993332,15.8000002 "/>
<path d="M26.0686073,12.3662539c0.3677654,0.000001,0.7008343-0.2171707,0.8491745-0.553688l3.3034401-7.6125569H16.0382843
	l-5.0350437,11.5999908h4.0520592l3.811655-8.6903973h6.01404l-1.2054653,2.7754579l-5.2436504-0.019022l4.2311935,5.9339619
	h4.6128712l-3.13451-3.4337502L26.0686073,12.3662539z"/>
</svg>
