<?xml version="1.0" encoding="utf-8"?>
<!-- Generator: Adobe Illustrator 19.2.1, SVG Export Plug-In . SVG Version: 6.00 Build 0)  -->
<svg version="1.1" id="Ebene_1" xmlns="http://www.w3.org/2000/svg" xmlns:xlink="http://www.w3.org/1999/xlink" x="0px" y="0px"
	 width="59px" height="20px" viewBox="0 0 59 20" enable-background="new 0 0 59 20" xml:space="preserve">
<path d="M36.7324219,7.8978515c0.0263672-0.9492188,0.2610359-1.7455077,0.7040024-2.3888669
	c0.7170906-1.0335941,1.7956085-1.5503907,3.2352562-1.5503907c1.1074219,0,2.0012703,0.2820311,2.6815414,0.8462892
	c0.7329102,0.6119137,1.099514,1.4029293,1.099514,2.3730469c0,0.5802732-0.1437531,1.0796871-0.431057,1.4990234
	c-0.2874985,0.4191408-0.6763649,0.702734-1.1667976,0.8503904c0.6221695,0.1423826,1.1139679,0.4587889,1.4751968,0.9492188
	s0.541893,1.0835934,0.541893,1.7796879c0,1.1443357-0.4219704,2.0804682-1.265625,2.8082027
	c-0.780468,0.6750002-1.7666969,1.0125008-2.9583969,1.0125008c-1.2920914,0-2.3164062-0.3718758-3.073143-1.1154308
	c-0.7567406-0.7435541-1.1350594-1.7480469-1.1350594-3.0136719c0-0.0263672,0-0.0763664,0-0.1503906h2.2227516
	c0,0.7119141,0.1687508,1.2617188,0.5062523,1.6492195c0.3374023,0.3876953,0.8147469,0.5814447,1.431736,0.5814447
	c0.616993,0,1.0916023-0.1818361,1.4238281-0.5457029c0.3057632-0.3427734,0.4587898-0.7515621,0.4587898-1.2261715
	c0-0.5695314-0.195118-1.0203133-0.58535-1.3525391c-0.321682-0.2742195-0.817482-0.4113283-1.4871101-0.4113283
	c-0.1898422,0-0.3770523,0.0105467-0.5616226,0.0316401V8.8232422c0.1371117,0.0107422,0.2689476,0.0158205,0.3955078,0.0158205
	c1.328907,0,1.9933624-0.4929686,1.9933624-1.4791017c0-0.4324222-0.1451187-0.781836-0.4350586-1.0482421
	c-0.2900391-0.266211-0.6723633-0.3994141-1.1469727-0.3994141c-0.5431671,0-0.9624023,0.1689453-1.2577171,0.5062499
	c-0.2954102,0.3375001-0.4536133,0.8306642-0.4746094,1.4792967H36.7324219z"/>
<path d="M53.2488289,4.2353516v2.0566406h-4.6590843l-0.4983368,2.6025391
	c0.5588837-0.5906248,1.2735329-0.8859377,2.1436501-0.8859377c0.8542976,0,1.5978508,0.2292967,2.2306633,0.6880865
	c0.9385757,0.6910152,1.4080086,1.7402344,1.4080086,3.148242c0,1.3816404-0.5010719,2.475976-1.5029297,3.2828121
	c-0.780468,0.6328125-1.7138672,0.9492197-2.8001938,0.9492197c-1.2234383,0-2.2069359-0.3283215-2.950489-0.9849615
	c-0.7435532-0.6564455-1.136425-1.5435553-1.1786118-2.6617193h2.2702141
	c0.0368156,0.40625,0.1687508,0.7515631,0.3955078,1.0363283c0.3532219,0.4482422,0.8436508,0.672266,1.4712868,0.672266
	c0.6063499,0,1.0863304-0.21875,1.4396515-0.6564455c0.3427734-0.4271488,0.5141602-0.9464846,0.5141602-1.5583982
	c0-0.6644535-0.1792984-1.1957035-0.5378914-1.5939455c-0.3586922-0.3980465-0.8358421-0.5970707-1.4317398-0.5970707
	c-0.7277336,0-1.2946281,0.3269539-1.7006836,0.9808598l-2.0645485-0.031641l1.0995102-6.4468746H53.2488289z"/>
<polygon points="9.2512569,4.1999998 13.3211823,4.1999998 8.2861805,15.8000002 4.1993332,15.8000002 "/>
<path d="M26.0686073,12.3662539c0.3677654,0.000001,0.7008343-0.2171707,0.8491745-0.553688l3.3034401-7.6125569H16.0382843
	l-5.0350437,11.5999908h4.0520592l3.811655-8.6903973h6.01404l-1.2054653,2.7754579l-5.2436504-0.019022l4.2311935,5.9339619
	h4.6128712l-3.13451-3.4337502L26.0686073,12.3662539z"/>
</svg>
