<?xml version="1.0" encoding="utf-8"?>
<!-- Generator: Adobe Illustrator 19.2.1, SVG Export Plug-In . SVG Version: 6.00 Build 0)  -->
<svg version="1.1" id="Ebene_1" xmlns="http://www.w3.org/2000/svg" xmlns:xlink="http://www.w3.org/1999/xlink" x="0px" y="0px"
	 width="59px" height="20px" viewBox="0 0 59 20" enable-background="new 0 0 59 20" xml:space="preserve">
<path d="M44.205864,4.2353878v2.0566406h-4.6589813L39.0484428,8.894372
	c0.5589867-0.5904293,1.273632-0.8859367,2.1437492-0.8859367c0.8542976,0,1.5978546,0.2294922,2.2306671,0.6882811
	c0.9384766,0.6908197,1.4080048,1.7402344,1.4080048,3.148242c0,1.3816404-0.5011711,2.4757814-1.5029297,3.2826176
	c-0.780468,0.6328125-1.7138672,0.9492178-2.8001938,0.9492178c-1.2234383,0-2.2070312-0.328124-2.9505844-0.9847651
	c-0.743557-0.6564455-1.1363297-1.5437498-1.1785164-2.6617184h2.2701149
	c0.0369148,0.4060545,0.1687508,0.7513666,0.3955078,1.0361328c0.3533211,0.4482422,0.84375,0.6724606,1.4712906,0.6724606
	c0.6064453,0,1.0863266-0.21875,1.4396477-0.656641c0.3427734-0.4271479,0.5142593-0.9464836,0.5142593-1.5582027
	c0-0.6644535-0.1792984-1.1957035-0.5378914-1.5939455c-0.3587875-0.3980465-0.8359375-0.5972652-1.4318352-0.5972652
	c-0.7277336,0-1.2945328,0.3271484-1.7005882,0.9808588l-2.0646477-0.0316401l1.0996094-6.4466801H44.205864z"/>
<path d="M51.412117,4.2353878v11.5646486h-2.3097687v-7.570117h-0.8226547h-0.8226547h-0.7990265h-0.2767563V6.5529661
	c0.5642586-0.0158205,1.0242195-0.0738282,1.3802719-0.1740236c0.3558617-0.0999999,0.6814461-0.2636719,0.9769554-0.4904294
	c0.4271469-0.3269534,0.7144508-0.8779297,0.8621101-1.6531253H51.412117z"/>
<polygon points="9.2519217,4.1999998 13.3218451,4.1999998 8.2868452,15.7999954 4.1999998,15.7999954 "/>
<path d="M16.0023804,4.2000046h14.443655l-1.495575,3.4454651H18.6353722l-2.0482254,4.7090654h10.3195629l-1.4949036,3.4454651
	h-14.443819L16.0023804,4.2000046z"/>
</svg>
