<?xml version="1.0" encoding="utf-8"?>
<!-- Generator: Adobe Illustrator 19.2.1, SVG Export Plug-In . SVG Version: 6.00 Build 0)  -->
<svg version="1.1" id="Ebene_1" xmlns="http://www.w3.org/2000/svg" xmlns:xlink="http://www.w3.org/1999/xlink" x="0px" y="0px"
	 width="59px" height="20px" viewBox="0 0 59 20" enable-background="new 0 0 59 20" xml:space="preserve">
<path d="M44.5318375,4.2353516v1.9617186c-0.063282,0.0685549-0.2504883,0.2822266-0.5616226,0.6408205
	c-0.4324226,0.4957032-0.8622055,1.1191406-1.2893562,1.8707027c-0.4271469,0.7513676-0.7593727,1.4726562-0.9966774,2.1632814
	c-0.5010757,1.4398441-0.8041992,3.0824223-0.909668,4.9281254H38.385643
	c0.0158234-0.8701172,0.1673851-1.8351564,0.4547882-2.8951178c0.2873993-1.0599604,0.6842766-2.1199217,1.1905251-3.179882
	c0.7224617-1.4976568,1.455471-2.6128912,2.1990242-3.3460941h-5.4580078V4.2353516H44.5318375z"/>
<path d="M49.7129898,3.9585938c0.880661,0,1.6558571,0.2687497,2.3255844,0.8066406
	c0.6644516,0.5378904,1.1469727,1.3660154,1.4475594,2.4839845c0.2266579,0.8542967,0.3401375,1.7824221,0.3401375,2.7843752
	c0,1.6609373-0.2954102,3.0269527-0.8859406,4.0972652c-0.3480453,0.6222658-0.8029289,1.1023436-1.3644524,1.4398441
	c-0.561718,0.3373041-1.1878891,0.5062504-1.8787117,0.5062504c-0.9440422,0-1.7508774-0.2847662-2.4205055-0.8542976
	c-1.1917992-1.0124998-1.7876968-2.7421875-1.7876968-5.1890621c0-1.7402344,0.3111343-3.1376958,0.9333992-4.1925783
	c0.3532219-0.601172,0.8160172-1.0650392,1.3882828-1.3921876C48.3827133,4.1218748,49.0168953,3.9585938,49.7129898,3.9585938z
	 M49.6259766,5.9123049c-0.7593765,0-1.276268,0.437695-1.5503922,1.3130856
	c-0.2163086,0.696094-0.3243141,1.671875-0.3243141,2.9267578c0,1.1074219,0.1107407,1.9960938,0.3322258,2.6658201
	c0.2847672,0.8699226,0.8120117,1.3050785,1.5820312,1.3050785c0.637989,0,1.1125984-0.3374996,1.4238281-1.0124998
	c0.3111343-0.6750002,0.4666977-1.7058592,0.4666977-3.0929689c0-1.1812496-0.1107407-2.1119142-0.3322258-2.7921877
	C50.939064,6.3499999,50.4063492,5.9123049,49.6259766,5.9123049z"/>
<polygon points="9.2512569,4.1999998 13.3211823,4.1999998 8.2861805,15.8000002 4.1993332,15.8000002 "/>
<path d="M26.0686073,12.3662539c0.3677654,0.000001,0.7008343-0.2171707,0.8491745-0.553688l3.3034401-7.6125569H16.0382843
	l-5.0350437,11.5999908h4.0520592l3.811655-8.6903973h6.01404l-1.2054653,2.7754579l-5.2436504-0.019022l4.2311935,5.9339619
	h4.6128712l-3.13451-3.4337502L26.0686073,12.3662539z"/>
</svg>
