<?xml version="1.0" encoding="utf-8"?>
<!-- Generator: Adobe Illustrator 19.2.1, SVG Export Plug-In . SVG Version: 6.00 Build 0)  -->
<svg version="1.1" id="Ebene_1" xmlns="http://www.w3.org/2000/svg" xmlns:xlink="http://www.w3.org/1999/xlink" x="0px" y="0px"
	 width="59px" height="20px" viewBox="0 0 59 20" enable-background="new 0 0 59 20" xml:space="preserve">
<path d="M38.4630623,9.5904303c-0.5378914-0.1845703-0.9503899-0.4876957-1.2378922-0.9095707
	c-0.2874985-0.421875-0.4310532-0.9333982-0.4310532-1.5345702c0-1.0019531,0.4113274-1.8007812,1.2339821-2.3968749
	c0.7277374-0.5271487,1.5925789-0.7910159,2.594532-0.7910159c1.1390648,0,2.0697289,0.3138673,2.7923851,0.9414065
	c0.6853485,0.5906248,1.0281219,1.3208981,1.0281219,2.1910152c0,0.6064453-0.1449203,1.1259766-0.4349594,1.5583982
	c-0.2900391,0.4324226-0.7013664,0.7462893-1.2339859,0.9412117c0.4166031,0.1214838,0.7566414,0.2769527,1.0205078,0.4667969
	c0.7328148,0.5326166,1.0994148,1.3103514,1.0994148,2.3333979c0,1.1759768-0.4509773,2.1121092-1.3525391,2.8082037
	c-0.7593727,0.585351-1.735157,0.8779287-2.9269524,0.8779287c-1.2919922,0-2.3203125-0.3214836-3.0847664-0.9650383
	c-0.7964821-0.6695318-1.1945305-1.5476561-1.1945305-2.6339846c0-1.0177736,0.3531265-1.8062496,1.0599594-2.3652344
	C37.7169685,9.8646488,38.0728264,9.6906252,38.4630623,9.5904303z M40.5751724,10.4605474
	c-0.5695343,0-1.0349617,0.1753902-1.3960953,0.5261717c-0.3613281,0.3505859-0.5417976,0.8001947-0.5417976,1.3486328
	c0,0.5642576,0.1832047,1.0230465,0.5496101,1.3763666c0.3664055,0.3533211,0.8425789,0.5298834,1.4277344,0.5298834
	c0.6644516,0,1.1628914-0.1949224,1.4951172-0.5853519c0.3216782-0.3744135,0.4826164-0.8068361,0.4826164-1.2972651
	c0-0.5587893-0.1847649-1.0175781-0.5539055-1.3763676C41.6853256,10.6345701,41.1974373,10.4605474,40.5751724,10.4605474z
	 M40.590992,5.7541018c-0.5062523,0-0.9150391,0.1410155-1.2259789,0.4232421
	c-0.3113251,0.2820315-0.4667969,0.6525393-0.4667969,1.1113281c0,0.4798827,0.1568375,0.8634763,0.4707031,1.1509767
	c0.3136749,0.2873049,0.734375,0.4310551,1.2617188,0.4310551c0.5271492,0,0.9437523-0.1423836,1.2496109-0.4271488
	s0.4589844-0.672461,0.4589844-1.1628904c0-0.4796877-0.1542969-0.8542972-0.4628906-1.1232424
	C41.5679436,5.8884768,41.1394272,5.7541018,40.590992,5.7541018z"/>
<polygon points="9.2519217,4.1999998 13.3218451,4.1999998 8.2868452,15.7999954 4.1999998,15.7999954 "/>
<path d="M16.0023804,4.2000046h14.443655l-1.495575,3.4454651H18.6353722l-2.0482254,4.7090654h10.3195629l-1.4949036,3.4454651
	h-14.443819L16.0023804,4.2000046z"/>
</svg>
