<?xml version="1.0" encoding="utf-8"?>
<!-- Generator: Adobe Illustrator 19.2.1, SVG Export Plug-In . SVG Version: 6.00 Build 0)  -->
<svg version="1.1" id="Ebene_1" xmlns="http://www.w3.org/2000/svg" xmlns:xlink="http://www.w3.org/1999/xlink" x="0px" y="0px"
	 width="59px" height="20px" viewBox="0 0 59 20" enable-background="new 0 0 59 20" xml:space="preserve">
<path d="M44.8166008,13.7255859v2.0566406h-8.3293953c0-0.6275387,0.1014671-1.2259769,0.3045921-1.7955074
	c0.2029305-0.5695314,0.4890633-1.0599613,0.8582039-1.4712896c0.2847633-0.3164062,0.6182594-0.625,1.0005836-0.9255857
	s1.1430664-0.8515625,2.2821312-1.6531248c0.5537109-0.3849611,0.9413071-0.7435551,1.1627922-1.0757818
	c0.2214851-0.3322258,0.3322258-0.7171869,0.3322258-1.1548824c0-0.5062499-0.149025-0.9162111-0.4468765-1.2300782
	c-0.2980461-0.3136716-0.6895485-0.4707031-1.1747055-0.4707031c-1.1917953,0-1.8062515,0.8570313-1.8430672,2.5708985h-2.2227516
	c0-0.1107426,0-0.195117,0-0.2531252c0-1.4027343,0.3927727-2.4890623,1.1786118-3.2589841
	c0.7645493-0.7488284,1.7533188-1.1232424,2.9663086-1.1232424c1.0757828,0,1.9748039,0.3058596,2.6973648,0.9175782
	c0.7857399,0.664453,1.1786118,1.5582032,1.1786118,2.6814451c0,0.9808598-0.3137703,1.8246098-0.9413071,2.53125
	c-0.2056656,0.2322264-0.398243,0.4179688-0.5774422,0.5576172c-0.1792984,0.1398439-0.6513672,0.4759769-1.4159203,1.0085936
	c-0.7277336,0.5062504-1.2485352,0.8939457-1.5623016,1.1628914c-0.3137703,0.2689447-0.6050797,0.577343-0.8740234,0.9253902
	H44.8166008z"/>
<path d="M53.2488289,4.2175779v2.0566406h-4.6590843l-0.4983368,2.6025391
	c0.5588837-0.5906248,1.2735329-0.8859372,2.1436501-0.8859372c0.8542976,0,1.5978508,0.2292972,2.2306633,0.688086
	c0.9385757,0.6910152,1.4080086,1.7402344,1.4080086,3.148242c0,1.3816404-0.5010719,2.4759769-1.5029297,3.2828121
	c-0.780468,0.6328125-1.7138672,0.9492188-2.8001938,0.9492188c-1.2234383,0-2.2069359-0.3283195-2.950489-0.9849606
	c-0.7435532-0.6564455-1.136425-1.5435543-1.1786118-2.6617184h2.2702141
	c0.0368156,0.40625,0.1687508,0.7515621,0.3955078,1.0363274c0.3532219,0.4482422,0.8436508,0.672266,1.4712868,0.672266
	c0.6063499,0,1.0863304-0.21875,1.4396515-0.6564455c0.3427734-0.4271479,0.5141602-0.9464846,0.5141602-1.5583982
	c0-0.6644535-0.1792984-1.1957035-0.5378914-1.5939455c-0.3586922-0.3980465-0.8358421-0.5970697-1.4317398-0.5970697
	c-0.7277336,0-1.2946281,0.3269529-1.7006836,0.9808588l-2.0645485-0.0316401l1.0995102-6.4468756H53.2488289z"/>
<polygon points="9.2512569,4.1999998 13.3211823,4.1999998 8.2861805,15.8000002 4.1993332,15.8000002 "/>
<path d="M26.0686073,12.3662539c0.3677654,0.000001,0.7008343-0.2171707,0.8491745-0.553688l3.3034401-7.6125569H16.0382843
	l-5.0350437,11.5999908h4.0520592l3.811655-8.6903973h6.01404l-1.2054653,2.7754579l-5.2436504-0.019022l4.2311935,5.9339619
	h4.6128712l-3.13451-3.4337502L26.0686073,12.3662539z"/>
</svg>
