<?xml version="1.0" encoding="utf-8"?>
<!-- Generator: Adobe Illustrator 21.1.0, SVG Export Plug-In . SVG Version: 6.00 Build 0)  -->
<svg version="1.1" id="Layer_1" xmlns="http://www.w3.org/2000/svg" xmlns:xlink="http://www.w3.org/1999/xlink" x="0px" y="0px"
	 viewBox="0 0 296 100" style="enable-background:new 0 0 296 100;" xml:space="preserve">
<path d="M212,21.2V79h-11.5V41.1h-13.6v-8.4c2.3,0,4.6-0.3,6.9-0.9c1.8-0.5,3.4-1.3,4.9-2.5c2.1-1.6,3.6-4.4,4.3-8.3L212,21.2
	L212,21.2z M250.6,21.2V79H239V41.1h-13.6v-8.4c2.3,0,4.6-0.3,6.9-0.9c1.8-0.5,3.4-1.3,4.9-2.5c2.1-1.6,3.6-4.4,4.3-8.3L250.6,21.2
	L250.6,21.2z M46.3,21h20.3L41.4,79H21L46.3,21z M80,21h72.2l-7.5,17.2H93.2L82.9,61.8h51.6L127.1,79H54.8L80,21z"/>
</svg>
