<?xml version="1.0" encoding="utf-8"?>
<!-- Generator: Adobe Illustrator 19.2.1, SVG Export Plug-In . SVG Version: 6.00 Build 0)  -->
<svg version="1.1" id="Ebene_1" xmlns="http://www.w3.org/2000/svg" xmlns:xlink="http://www.w3.org/1999/xlink" x="0px" y="0px"
	 width="59px" height="20px" viewBox="0 0 59 20" enable-background="new 0 0 59 20" xml:space="preserve">
<path id="_x2014__1_" d="M4.5987058,4.2014909h8.9542675l-0.3820934,1.8274016H9.8981705l-2.109818,9.7682924H5.3628922
	l2.109818-9.7682924H4.1999998L4.5987058,4.2014909z M23.2714272,6.6601768
	c-0.2436543-0.1439781-0.4623871-0.2602658-0.6562023-0.3488679c-0.1938152-0.0886016-0.4956112-0.1910458-0.9053955-0.3073359
	c-0.4097824-0.1162896-0.9358482-0.1744332-1.5782089-0.1744332c-1.3733273,0-2.4974461,0.4540772-3.3723869,1.3622446
	c-0.8749428,0.9081683-1.3124075,2.0655103-1.3124075,3.4720635c0,1.096446,0.3101025,1.9547625,0.9303141,2.574975
	c0.6202126,0.6202116,1.484066,0.9303141,2.5915871,0.9303141c0.3987083,0,0.6977348-0.038764,0.897089-0.1162901
	l0.6478977-3.0733566H18.055027l0.3820934-1.8274021h4.7014065l-1.3290195,6.3294544
	c-0.2215042,0.077527-0.4208546,0.1412077-0.5980587,0.1910467c-0.1772041,0.0498381-0.4762306,0.1162891-0.897089,0.1993532
	c-0.4208565,0.0830641-0.9801483,0.1245956-1.677887,0.1245956c-1.8274097,0-3.2200975-0.4457703-4.1781044-1.337326
	c-0.9580059-0.8915548-1.4370022-2.1790295-1.4370022-3.862463c0-2.0821409,0.6340466-3.7350917,1.9021587-4.9589033
	s2.9764385-1.8357077,5.1250324-1.8357077c0.6977386,0,1.3511658,0.0553746,1.9603024,0.1661272
	c0.6091385,0.1107521,1.2238026,0.2713404,1.8440151,0.4817696L23.2714272,6.6601768z M25.4809227,4.2014909h2.3257847
	l1.0798283,9.0207195l4.8509216-9.0207195h2.525135l-6.4789696,11.5956936h-2.7743282L25.4809227,4.2014909z"/>
</svg>
