<?xml version="1.0" encoding="utf-8"?>
<!-- Generator: Adobe Illustrator 21.1.0, SVG Export Plug-In . SVG Version: 6.00 Build 0)  -->
<svg version="1.1" id="Layer_1" xmlns="http://www.w3.org/2000/svg" xmlns:xlink="http://www.w3.org/1999/xlink" x="0px" y="0px"
	 viewBox="0 0 296 100" style="enable-background:new 0 0 296 100;" xml:space="preserve">
<path stroke-miterlimit="10" d="M222.9,35.8h-11c-1-4.5-3.6-6.7-7.6-6.7c-4.3,0-7.3,2.6-9.1,7.9c-0.9,3.2-1.5,6.4-1.8,9.7
	c1.4-2.1,3.3-3.8,5.6-5.1c2.2-1.1,4.6-1.6,7.1-1.5c5-0.2,9.8,1.9,13.1,5.8c3.2,3.8,4.9,8.7,4.7,13.7c0,6.5-2.1,11.7-6.3,15.7
	c-3.7,3.5-8.6,5.4-13.7,5.3c-6.8,0-12.1-2.6-15.9-7.7c-3.8-5.2-5.7-12.3-5.7-21.6c0-9.9,2-17.6,6.1-23.2c3.6-5.3,9.7-8.3,16.1-8.1
	c6.4,0,11.3,2.1,14.7,6.4C221.2,29.2,222.5,32.4,222.9,35.8L222.9,35.8z M203.4,49.1c-2.7-0.1-5.2,1.3-6.6,3.5
	c-1.5,2.2-2.3,4.7-2.2,7.4c-0.1,2.6,0.7,5.2,2.3,7.4c1.5,2.3,4,3.6,6.7,3.5c2.6,0.1,5.2-1.2,6.7-3.4c1.6-2.2,2.4-4.8,2.4-7.5
	c0.1-2.6-0.7-5.1-2.1-7.2C208.9,50.4,206.2,49,203.4,49.1L203.4,49.1z M257.1,21.4v57.8h-11.5V41.3H232v-8.4c2.3,0,4.6-0.3,6.9-0.9
	c1.8-0.5,3.4-1.3,4.9-2.5c2.1-1.6,3.6-4.4,4.3-8.3L257.1,21.4L257.1,21.4z M46.3,21.2h20.3l-25.2,58H21L46.3,21.2z M80,21.2h72.2
	l-7.5,17.2H93.2L82.9,62h51.6l-7.4,17.2H54.8L80,21.2z"/>
</svg>
