<?xml version="1.0" encoding="utf-8"?>
<!-- Generator: Adobe Illustrator 19.2.1, SVG Export Plug-In . SVG Version: 6.00 Build 0)  -->
<svg version="1.1" id="Ebene_1" xmlns="http://www.w3.org/2000/svg" xmlns:xlink="http://www.w3.org/1999/xlink" x="0px" y="0px"
	 width="59px" height="20px" viewBox="0 0 59 20" enable-background="new 0 0 59 20" xml:space="preserve">
<path d="M44.5859032,7.1223903H42.386879c-0.2056656-0.8910155-0.7119141-1.3367186-1.5187492-1.3367186
	c-0.8542976,0-1.460743,0.5248046-1.8193359,1.5740232c-0.1476555,0.4271483-0.266407,1.0732427-0.3560562,1.938086
	c0.3480492-0.4693356,0.7185555-0.8068361,1.1113281-1.0124998c0.392971-0.2056646,0.8662109-0.3085942,1.4199219-0.3085942
	c1.0863304,0,1.9589844,0.3849616,2.6183624,1.1548829c0.6275368,0.7277346,0.9412079,1.6402349,0.9412079,2.7369146
	c0,1.3025389-0.421875,2.3494139-1.265625,3.1404295c-0.7593727,0.7119141-1.6716766,1.0677729-2.7369118,1.0677729
	c-1.3658218,0-2.4283218-0.5154295-3.1876945-1.5462885c-0.7593765-1.0310545-1.1390648-2.4693365-1.1390648-4.3150396
	c0-1.9722652,0.4060555-3.5173826,1.2181664-4.6353512c0.7857399-1.0810547,1.8587837-1.6216798,3.2193336-1.6216798
	c1.2814445,0,2.2623062,0.429883,2.9425774,1.289453C44.224575,5.743484,44.4751625,6.3682885,44.5859032,7.1223903z
	 M40.6702766,9.7723904c-0.5537109,0-0.9939423,0.2320309-1.3208961,0.6960936
	c-0.2955093,0.4113283-0.4429703,0.9017582-0.4429703,1.4712896c0,0.5642576,0.1501961,1.0572262,0.4507828,1.4791012
	c0.3269539,0.4695311,0.7751961,0.7041016,1.3447266,0.7041016c0.5537109,0,0.9994125-0.2242184,1.3369141-0.6724606
	c0.3164062-0.421875,0.4746094-0.9201174,0.4746094-1.4949226c0-0.5642576-0.1423836-1.046875-0.4271507-1.4476557
	C41.7382469,10.0175076,41.2661781,9.7723904,40.6702766,9.7723904z"/>
<polygon points="9.2519217,4.1999998 13.3218451,4.1999998 8.2868452,15.7999954 4.1999998,15.7999954 "/>
<path d="M16.0023804,4.2000046h14.443655l-1.495575,3.4454651H18.6353722l-2.0482254,4.7090654h10.3195629l-1.4949036,3.4454651
	h-14.443819L16.0023804,4.2000046z"/>
</svg>
