<?xml version="1.0" encoding="utf-8"?>
<!-- Generator: Adobe Illustrator 19.2.1, SVG Export Plug-In . SVG Version: 6.00 Build 0)  -->
<svg version="1.1" id="Ebene_1" xmlns="http://www.w3.org/2000/svg" xmlns:xlink="http://www.w3.org/1999/xlink" x="0px" y="0px"
	 width="59px" height="20px" viewBox="0 0 59 20" enable-background="new 0 0 59 20" xml:space="preserve">
<path d="M36.6849365,12.896884h2.1832047c0.1791992,0.8964844,0.6987305,1.3445311,1.5583,1.3445311
	c0.485157,0,0.8792953-0.1646481,1.182518-0.4943352c0.3032227-0.3294926,0.5366211-0.8423834,0.7000999-1.5384769
	c0.1054688-0.4429684,0.1819305-0.9464846,0.229393-1.5109377c-0.3533211,0.4957037-0.7158203,0.8478518-1.0876961,1.0560551
	c-0.3716774,0.2083979-0.823925,0.3125-1.3565407,0.3125c-0.8491211,0-1.587307-0.2478514-2.2148438-0.7435551
	c-0.4377937-0.3480463-0.7792015-0.7988281-1.0243187-1.3527346c-0.2453117-0.5535154-0.3678703-1.1546869-0.3678703-1.8035154
	c0-1.3023434,0.4456062-2.3570309,1.3368149-3.1640625c0.7645531-0.6960936,1.6821289-1.0441403,2.7527351-1.0441403
	c0.6591797,0,1.268261,0.147656,1.8272476,0.4429688c0.5588875,0.2955074,1.0283203,0.7148438,1.4080086,1.2578125
	c0.6696281,0.9650388,1.0045891,2.3203125,1.0045891,4.0658197c0,1.6136723-0.2954102,2.9900398-0.8859367,4.1291018
	c-0.7700195,1.4820318-1.9353523,2.2226572-3.4962921,2.2226572c-1.0389633,0-1.8971672-0.2873058-2.5748024-0.8621101
	C37.1819077,14.6398525,36.7904053,13.867197,36.6849365,12.896884z M40.529274,5.9121184
	c-0.4957047,0-0.9149437,0.203125-1.2577171,0.6089845c-0.3428688,0.4113283-0.5141602,0.9335938-0.5141602,1.5664062
	c0,0.5113277,0.1238289,0.9648438,0.3717766,1.3605471c0.3374023,0.5429688,0.8120117,0.8146486,1.4238281,0.8146486
	c0.5537109,0,0.9966812-0.2214851,1.328907-0.6644535c0.3111343-0.4166012,0.4667015-0.9123049,0.4667015-1.4871092
	c0-0.6064453-0.1609383-1.1205082-0.4825211-1.5423832C41.5285873,6.1308684,41.0829849,5.9121184,40.529274,5.9121184z"/>
<path d="M53.2488022,4.2351656v2.0566406h-4.6590805l-0.4983406,2.6023436
	c0.5588875-0.5904293,1.2735367-0.8859377,2.1436539-0.8859377c0.8542976,0,1.5978508,0.2294922,2.2306633,0.6882811
	c0.9385757,0.6910162,1.4080086,1.7402344,1.4080086,3.148243c0,1.3816404-0.5010757,2.475976-1.5029297,3.2826166
	c-0.780468,0.6328125-1.7138672,0.9492197-2.8001976,0.9492197c-1.2234344,0-2.2069321-0.328126-2.9504852-0.984766
	c-0.743557-0.6564455-1.1364288-1.5437508-1.1786156-2.6617193h2.2702141
	c0.0368195,0.40625,0.1687508,0.7515631,0.3955078,1.0363283c0.3532257,0.4480467,0.8436546,0.672266,1.4712906,0.672266
	c0.6063461,0,1.0863266-0.21875,1.4396477-0.656641c0.3427734-0.4269533,0.5141602-0.9464846,0.5141602-1.5582027
	c0-0.6644535-0.1792946-1.1957035-0.5378914-1.5939455c-0.3586884-0.3980474-0.8358383-0.5970707-1.431736-0.5970707
	c-0.7277336,0-1.2946281,0.3269529-1.7006836,0.9808598l-2.0645523-0.031641l1.099514-6.4468746H53.2488022z"/>
<polygon points="9.2512569,4.1999998 13.3211823,4.1999998 8.2861805,15.8000002 4.1993332,15.8000002 "/>
<path d="M26.0686073,12.3662539c0.3677654,0.000001,0.7008343-0.2171707,0.8491745-0.553688l3.3034401-7.6125569H16.0382843
	l-5.0350437,11.5999908h4.0520592l3.811655-8.6903973h6.01404l-1.2054653,2.7754579l-5.2436504-0.019022l4.2311935,5.9339619
	h4.6128712l-3.13451-3.4337502L26.0686073,12.3662539z"/>
</svg>
