<?xml version="1.0" encoding="utf-8"?>
<!-- Generator: Adobe Illustrator 19.2.1, SVG Export Plug-In . SVG Version: 6.00 Build 0)  -->
<svg version="1.1" id="Ebene_1" xmlns="http://www.w3.org/2000/svg" xmlns:xlink="http://www.w3.org/1999/xlink" x="0px" y="0px"
	 width="59px" height="20px" viewBox="0 0 59 20" enable-background="new 0 0 59 20" xml:space="preserve">
<path id="_xF06E_" d="M9.2356586,4.1999998L4.1999998,15.8000002h4.2488375l1.9108524-4.6085272l1.6860466-4.0914731h8.9922485
	l-1.213953,2.7875972H12.360465c0.5545244,0.5844994,1.0753212,1.1165352,1.5624027,1.5961237
	c0.4870825,0.4795895,0.9666653,0.9479313,1.4387608,1.4050388c0.4720945,0.4571085,0.9554224,0.9217033,1.4499998,1.3937979
	c0.4945755,0.4720955,1.0341053,0.9779053,1.6186047,1.5174427h10.813179l1.9333324-1.4837217l2.1356602-1.6410847
	l1.3937988,3.1248064h6.2496109L39.02248,12.6302328l-1.7310104-2.8775196l8.4751968-5.5527134h-6.4519386l-3.5969009,2.6751938
	l-1.303875-2.6751938h-6.092247l3.2147293,5.5751944l-8.4751949,5.5751934
	c-0.4196396-0.3297176-0.9179535-0.7306175-1.4949608-1.202713c-0.5770035-0.4720955-1.3226051-1.0603323-2.2368221-1.7647285
	h0.8767471c0.4945736,0,0.8954735-0.003747,1.2027111-0.01124c0.3072357-0.007494,0.5282936-0.018734,0.6631775-0.0337219
	c0.3297176-0.029974,0.5545216-0.082428,0.6744213-0.1573639c0.164856-0.1198969,0.3446999-0.3971548,0.5395336-0.8317833
	l3.0348835-7.1488371H9.2356586z"/>
</svg>
