<?xml version="1.0" encoding="utf-8"?>
<!-- Generator: Adobe Illustrator 19.2.1, SVG Export Plug-In . SVG Version: 6.00 Build 0)  -->
<svg version="1.1" id="Ebene_1" xmlns="http://www.w3.org/2000/svg" xmlns:xlink="http://www.w3.org/1999/xlink" x="0px" y="0px"
	 width="59px" height="20px" viewBox="0 0 59 20" enable-background="new 0 0 59 20" xml:space="preserve">
<path id="Imported-Layers_1_" d="M8.6518822,15.8000002H8.3146181c-0.0299788-0.0131159-0.0637054-0.0299788-0.1011791-0.0430946
	c-0.0374737-0.0149899-0.0712004-0.0243587-0.0993061-0.0243587l-0.3166528-0.1573887L7.4152474,15.239768l-2.5838146-2.0479412
	L4.404232,12.8095942c-0.1367793-0.1349058-0.2042322-0.3054104-0.2042322-0.5171366
	c0-0.2098541,0.0843163-0.4178333,0.2473273-0.6295595l6.8576961-6.857697l0.2698107-0.2229686l0.2473269-0.1817479
	c0.1948643-0.1330318,0.4646749-0.2004848,0.8094339-0.2004848h12.568696L22.4815693,6.941205h-7.961298l-1.7537718,1.7987404
	h7.9594259l-1.8212242,1.7781296h-7.9594259l-1.7762556,1.7743826h7.8919716l-3.4400902,3.5075426H8.6518822L8.6518822,15.8000002z
	 M33.227169,4.1999998v8.4746885l8.4765625-8.4746885h5.4187012L35.5205612,15.8000002h-5.8683891V7.3009529l-8.4971733,8.4990473
	h-5.3756094L27.3606529,4.1999998H33.227169L33.227169,4.1999998z"/>
</svg>
