<?xml version="1.0" encoding="utf-8"?>
<!-- Generator: Adobe Illustrator 19.2.1, SVG Export Plug-In . SVG Version: 6.00 Build 0)  -->
<svg version="1.1" id="Ebene_1" xmlns="http://www.w3.org/2000/svg" xmlns:xlink="http://www.w3.org/1999/xlink" x="0px" y="0px"
	 width="59px" height="20px" viewBox="0 0 59 20" enable-background="new 0 0 59 20" xml:space="preserve">
<path d="M44.5859032,7.1224203H42.386879c-0.2056618-0.891016-0.7119141-1.336719-1.5187492-1.336719
	c-0.8542976,0-1.460743,0.5248046-1.8193359,1.5740237c-0.1476555,0.4271483-0.266407,1.0732422-0.3560524,1.9380856
	c0.3480453-0.4693356,0.7185516-0.8068361,1.1113281-1.0124998c0.3929672-0.2056637,0.8662109-0.3085938,1.4199219-0.3085938
	c1.0863266,0,1.9589844,0.3849611,2.6183586,1.1548824c0.6275368,0.7277346,0.9412117,1.6402349,0.9412117,2.7369146
	c0,1.3025389-0.421875,2.3494139-1.265625,3.1404295c-0.7593765,0.7119141-1.6716805,1.0677738-2.7369156,1.0677738
	c-1.3658218,0-2.4283218-0.5154305-3.1876945-1.5462894c-0.7593765-1.0310545-1.1390648-2.4693356-1.1390648-4.3150387
	c0-1.9722662,0.4060555-3.5173831,1.2181664-4.6353521c0.7857399-1.0810547,1.8587875-1.6216795,3.2193336-1.6216795
	c1.2814484,0,2.2623062,0.4298828,2.9425812,1.2894533C44.224575,5.7435141,44.4751625,6.3683186,44.5859032,7.1224203z
	 M40.6702805,9.7724199c-0.5537109,0-0.9939461,0.2320318-1.3209,0.6960936
	c-0.2955093,0.4113283-0.4429703,0.9017582-0.4429703,1.4712896c0,0.5642576,0.1501961,1.0572262,0.4507828,1.4791012
	c0.3269539,0.4695311,0.7751961,0.7041016,1.3447266,0.7041016c0.5537109,0,0.9994125-0.2242184,1.3369141-0.6724606
	c0.3164062-0.421875,0.4746094-0.9201174,0.4746094-1.4949217c0-0.5642586-0.1423836-1.046875-0.4271469-1.4476566
	C41.7382469,10.0175371,41.2661781,9.7724199,40.6702805,9.7724199z"/>
<path d="M51.4122696,4.2353106v11.5646486h-2.3097649v-7.570117H48.27985h-0.8226585h-0.7988281h-0.2769508V6.5528889
	c0.5642586-0.0158205,1.0244141-0.0738282,1.3804665-0.1740236c0.3558617-0.0999999,0.6814461-0.2636719,0.9767609-0.4904294
	c0.4271469-0.3269534,0.7146454-0.8779297,0.8623047-1.6531253H51.4122696z"/>
<polygon points="9.2519217,4.1999998 13.3218451,4.1999998 8.2868452,15.7999954 4.1999998,15.7999954 "/>
<path d="M16.0023804,4.2000046h14.443655l-1.495575,3.4454651H18.6353722l-2.0482254,4.7090654h10.3195629l-1.4949036,3.4454651
	h-14.443819L16.0023804,4.2000046z"/>
</svg>
