<?xml version="1.0" encoding="utf-8"?>
<!-- Generator: Adobe Illustrator 19.2.1, SVG Export Plug-In . SVG Version: 6.00 Build 0)  -->
<svg version="1.1" id="Ebene_1" xmlns="http://www.w3.org/2000/svg" xmlns:xlink="http://www.w3.org/1999/xlink" x="0px" y="0px"
	 width="59px" height="20px" viewBox="0 0 59 20" enable-background="new 0 0 59 20" xml:space="preserve">
<path id="SN_9_" d="M4.2003255,11.9487543c-0.0324965,2.8597069,2.3722577,4.1270781,4.9394956,4.1270781
	c3.1521778,0,4.825757-1.5923386,4.825757-3.720871c0-2.6322308-2.5997353-3.1684265-3.4446478-3.3796549
	c-2.9084535-0.7474232-3.460897-0.8611612-3.460897-1.7548199c0-0.9749007,0.9424043-1.3161159,1.7548213-1.3161159
	c1.2186251,0,2.209774,0.3574634,2.2910156,1.7548208h2.4697475c0-2.6809769-2.2260227-3.7371185-4.6470251-3.7371185
	c-2.096036,0-4.3383069,1.1373837-4.3383069,3.5096414c0,2.177278,1.7385726,2.8434596,3.460896,3.2984138
	c1.7060757,0.4549532,3.4446487,0.6661816,3.4446487,1.917304c0,1.1861277-1.3648615,1.4461021-2.2585192,1.4461021
	c-1.3648605,0-2.5672383-0.6011887-2.5672383-2.1447802H4.2003255z M15.3606138,15.7996092h2.3885069V8.0329027h0.0324955
	l4.825758,7.7667065h2.5509892V4.1982946h-2.3885059v7.7829552h-0.0324955l-4.8420067-7.7829552h-2.5347414V15.7996092z"/>
<path d="M37.1148605,4.2175779v11.5646486h-2.3097687V8.2123051h-0.8226547h-0.8226547h-0.7989273h-0.2768555V6.5353518
	c0.5642586-0.0158205,1.0243149-0.0738282,1.3803711-0.1740236c0.3558578-0.1001954,0.6814461-0.2636719,0.9768562-0.4904299
	c0.4271469-0.3269529,0.71455-0.8781247,0.8622055-1.6533203H37.1148605z"/>
<path d="M42.3037338,9.6169825c-0.5378914-0.1845703-0.9503899-0.4876957-1.2378883-0.9095707
	c-0.2875023-0.421875-0.431057-0.9333982-0.431057-1.5345702c0-1.0019531,0.4113274-1.8007812,1.2339859-2.3968749
	c0.7277336-0.5271487,1.5925789-0.7910156,2.594532-0.7910156c1.139061,0,2.069725,0.3138671,2.7923813,0.9414062
	c0.6853523,0.5906248,1.0281258,1.3208985,1.0281258,2.1910157c0,0.6064453-0.1449242,1.1259761-0.4349632,1.5583987
	c-0.2900391,0.4324217-0.7013664,0.7462883-1.2339821,0.9412107c0.4165993,0.1214838,0.7566414,0.2769527,1.0205078,0.4667969
	c0.732811,0.5326166,1.0994148,1.3103514,1.0994148,2.3333979c0,1.1759768-0.4509773,2.1121101-1.3525391,2.8082037
	c-0.7593765,0.585351-1.735157,0.8779287-2.9269562,0.8779287c-1.2919922,0-2.3203125-0.3214836-3.0847626-0.9650383
	c-0.7964859-0.6695309-1.1945343-1.5476561-1.1945343-2.6339846c0-1.0177736,0.3531265-1.8062496,1.0599632-2.3652344
	C41.5576401,9.891201,41.9135017,9.7171774,42.3037338,9.6169825z M44.415844,10.4870996
	c-0.5695305,0-1.0349617,0.1753902-1.3960953,0.5261717c-0.3613281,0.3505859-0.5417938,0.8001957-0.5417938,1.3486328
	c0,0.5642576,0.1832008,1.0230465,0.5496063,1.3763676c0.3664093,0.3533201,0.8425789,0.5298824,1.4277344,0.5298824
	c0.6644554,0,1.1628914-0.1949215,1.4951172-0.5853519c0.321682-0.3744135,0.4826202-0.8068352,0.4826202-1.2972651
	c0-0.5587893-0.1847687-1.0175781-0.5539093-1.3763676C45.526001,10.6611233,45.0381088,10.4870996,44.415844,10.4870996z
	 M44.4316635,5.780654c-0.5062485,0-0.9150391,0.1410155-1.225975,0.4232421
	c-0.3113289,0.2820315-0.4667969,0.6525393-0.4667969,1.1113281c0,0.4798832,0.1568336,0.8634772,0.4707031,1.1509767
	c0.3136711,0.2873049,0.734375,0.4310551,1.2617188,0.4310551c0.5271492,0,0.9437485-0.1423826,1.2496071-0.4271488
	c0.3058624-0.2847652,0.4589844-0.672461,0.4589844-1.1628904c0-0.4796877-0.1542969-0.8542972-0.4628906-1.1232424
	C45.4086189,5.915029,44.9801025,5.780654,44.4316635,5.780654z"/>
</svg>
