<?xml version="1.0" encoding="utf-8"?>
<!-- Generator: Adobe Illustrator 19.2.1, SVG Export Plug-In . SVG Version: 6.00 Build 0)  -->
<svg version="1.1" id="Ebene_1" xmlns="http://www.w3.org/2000/svg" xmlns:xlink="http://www.w3.org/1999/xlink" x="0px" y="0px"
	 width="59px" height="20px" viewBox="0 0 59 20" enable-background="new 0 0 59 20" xml:space="preserve">
<path d="M44.8166008,13.7255859v2.0566406h-8.3293953c0-0.6275387,0.1014671-1.2259769,0.3045921-1.7955074
	c0.2029305-0.5695314,0.4890633-1.0599613,0.8582039-1.4712896c0.2847633-0.3164062,0.6182594-0.625,1.0005836-0.9255857
	s1.1430664-0.8515625,2.2821312-1.6531248c0.5537109-0.3849611,0.9413071-0.7435551,1.1627922-1.0757818
	c0.2214851-0.3322258,0.3322258-0.7171869,0.3322258-1.1548824c0-0.5062499-0.149025-0.9162111-0.4468765-1.2300782
	c-0.2980461-0.3136716-0.6895485-0.4707031-1.1747055-0.4707031c-1.1917953,0-1.8062515,0.8570313-1.8430672,2.5708985h-2.2227516
	c0-0.1107426,0-0.195117,0-0.2531252c0-1.4027343,0.3927727-2.4890623,1.1786118-3.2589841
	c0.7645493-0.7488284,1.7533188-1.1232424,2.9663086-1.1232424c1.0757828,0,1.9748039,0.3058596,2.6973648,0.9175782
	c0.7857399,0.664453,1.1786118,1.5582032,1.1786118,2.6814451c0,0.9808598-0.3137703,1.8246098-0.9413071,2.53125
	c-0.2056656,0.2322264-0.398243,0.4179688-0.5774422,0.5576172c-0.1792984,0.1398439-0.6513672,0.4759769-1.4159203,1.0085936
	c-0.7277336,0.5062504-1.2485352,0.8939457-1.5623016,1.1628914c-0.3137703,0.2689447-0.6050797,0.577343-0.8740234,0.9253902
	H44.8166008z"/>
<path d="M53.6285172,7.1048827H51.429493c-0.2056656-0.891211-0.7119141-1.3369141-1.5187492-1.3369141
	c-0.8542976,0-1.460743,0.5248046-1.8193359,1.5742188c-0.1476593,0.4271483-0.2663116,1.0730472-0.355957,1.9378905
	c0.3480453-0.4693356,0.7184563-0.8068361,1.1113281-1.0124998c0.392868-0.2056637,0.8662109-0.3083982,1.4199219-0.3083982
	c1.0863266,0,1.9589844,0.3849611,2.6182594,1.1548824c0.6275368,0.7277346,0.9413109,1.6400394,0.9413109,2.7369146
	c0,1.3025389-0.4219742,2.3492184-1.265625,3.140234c-0.7593765,0.7119141-1.6717796,1.0679684-2.7369156,1.0679684
	c-1.3658218,0-2.4284172-0.5154295-3.1877937-1.546484c-0.7593727-1.030859-1.139061-2.469141-1.139061-4.3150387
	c0-1.9722662,0.4060555-3.5171881,1.2181625-4.6353521c0.7857437-1.0808592,1.8588867-1.6214843,3.2194328-1.6214843
	c1.2814484,0,2.2623062,0.429883,2.9425812,1.289258C53.2672844,5.7257814,53.5177727,6.3507814,53.6285172,7.1048827z
	 M49.7129898,9.7546873c-0.5537109,0-0.9940453,0.2322264-1.3209991,0.6960936
	c-0.2954102,0.4113283-0.4429665,0.9017582-0.4429665,1.4712896c0,0.5644531,0.1502914,1.0574217,0.4508781,1.4792967
	c0.3269539,0.4693356,0.7751961,0.7039061,1.3447266,0.7039061c0.5537109,0,0.9993172-0.2240229,1.3368149-0.6722651
	c0.3164062-0.421875,0.4746094-0.9203129,0.4746094-1.4951172c0-0.5642586-0.1423798-1.0466805-0.4271469-1.4474611
	C50.7808609,10,50.3088875,9.7546873,49.7129898,9.7546873z"/>
<polygon points="9.2512569,4.1999998 13.3211823,4.1999998 8.2861805,15.8000002 4.1993332,15.8000002 "/>
<path d="M26.0686073,12.3662539c0.3677654,0.000001,0.7008343-0.2171707,0.8491745-0.553688l3.3034401-7.6125569H16.0382843
	l-5.0350437,11.5999908h4.0520592l3.811655-8.6903973h6.01404l-1.2054653,2.7754579l-5.2436504-0.019022l4.2311935,5.9339619
	h4.6128712l-3.13451-3.4337502L26.0686073,12.3662539z"/>
</svg>
