<?xml version="1.0" encoding="utf-8"?>
<!-- Generator: Adobe Illustrator 19.2.1, SVG Export Plug-In . SVG Version: 6.00 Build 0)  -->
<svg version="1.1" id="Ebene_1" xmlns="http://www.w3.org/2000/svg" xmlns:xlink="http://www.w3.org/1999/xlink" x="0px" y="0px"
	 width="59px" height="20px" viewBox="0 0 59 20" enable-background="new 0 0 59 20" xml:space="preserve">
<path d="M36.685215,12.8966999h2.1832047c0.1791,0.8966789,0.6986313,1.3449211,1.5582047,1.3449211
	c0.4851532,0,0.8792953-0.1648436,1.1826172-0.4945307c0.3031235-0.3294926,0.5365219-0.8423834,0.6999969-1.5384769
	c0.1054688-0.4429684,0.1820335-0.9464846,0.2294922-1.5107422c-0.3533173,0.4957037-0.7158203,0.8476562-1.0876923,1.0558596
	c-0.3716812,0.2083988-0.8240242,0.3125-1.3566437,0.3125c-0.8490219,0-1.5873032-0.2478514-2.2148438-0.7435551
	c-0.4376945-0.3480463-0.7790985-0.7990227-1.0242157-1.3525391c-0.2453156-0.5539055-0.3679695-1.1550779-0.3679695-1.8035154
	c0-1.3025389,0.4457016-2.3574219,1.3369141-3.1640625c0.7644539-0.6960936,1.6820297-1.0441406,2.7527351-1.0441406
	c0.6591797,0,1.2681618,0.1476562,1.8271484,0.4429686c0.5589828,0.2953129,1.0283165,0.7144532,1.4080048,1.2576175
	c0.6697273,0.9650388,1.0046883,2.3205075,1.0046883,4.0658207c0,1.6136713-0.2955055,2.9900389-0.8859367,4.1291008
	c-0.7701187,1.4818363-1.9353523,2.2228527-3.4962883,2.2228527c-1.0390625,0-1.8972664-0.2875004-2.5748062-0.8623056
	C37.1820908,14.6396685,36.7906837,13.867012,36.685215,12.8966999z M40.5295525,5.9121289
	c-0.4957047,0-0.9150391,0.20293-1.2578125,0.60918c-0.3427734,0.4113278-0.514061,0.9332032-0.514061,1.5660152
	c0,0.5117188,0.1238251,0.9652348,0.3716774,1.3605471c0.3375015,0.5433598,0.8121109,0.8148441,1.4238281,0.8148441
	c0.5537109,0,0.9966812-0.2214842,1.328907-0.6644535c0.3111343-0.4164057,0.4667969-0.9123049,0.4667969-1.4871092
	c0-0.6062503-0.1609383-1.1205077-0.4826164-1.5425782C41.5287704,6.1310744,41.0832634,5.9121289,40.5295525,5.9121289z"/>
<path d="M49.7131462,3.9584181c0.8806648,0,1.6558609,0.26875,2.3255844,0.8066409
	c0.6644554,0.5378904,1.1470718,1.3660154,1.4476585,2.483984c0.2265625,0.8542972,0.3400383,1.7824225,0.3400383,2.7843757
	c0,1.6609373-0.295311,3.0269527-0.8859367,4.0972652c-0.3480492,0.6222658-0.8029289,1.1023436-1.3644524,1.4398441
	c-0.5617218,0.3373041-1.1878929,0.5062504-1.8787117,0.5062504c-0.9439468,0-1.750782-0.2847662-2.4205093-0.8542976
	c-1.1917953-1.0124998-1.787693-2.7421875-1.787693-5.1890621c0-1.7402344,0.3111305-3.1376958,0.9333954-4.1925788
	c0.3533211-0.6011715,0.8160172-1.0650387,1.3882828-1.3921871C48.3828735,4.1216993,49.0170517,3.9584181,49.7131462,3.9584181z
	 M49.6262321,5.9121289c-0.7593765,0-1.2763672,0.4376955-1.5503922,1.313086
	c-0.216404,0.696094-0.3244133,1.671875-0.3244133,2.9267578c0,1.1074219,0.1107445,1.9960938,0.3322258,2.6658201
	c0.2847672,0.8699226,0.8121109,1.3050785,1.5820312,1.3050785c0.6380882,0,1.1126976-0.3374996,1.4238281-1.0124998
	c0.3111343-0.6750002,0.4667969-1.7058592,0.4667969-3.0929689c0-1.1812496-0.1107407-2.1119142-0.3322258-2.7921877
	C50.9393196,6.3498244,50.4065056,5.9121289,49.6262321,5.9121289z"/>
<polygon points="9.2512569,4.1999998 13.3211823,4.1999998 8.2861805,15.8000002 4.1993332,15.8000002 "/>
<path d="M26.0686073,12.3662539c0.3677654,0.000001,0.7008343-0.2171707,0.8491745-0.553688l3.3034401-7.6125569H16.0382843
	l-5.0350437,11.5999908h4.0520592l3.811655-8.6903973h6.01404l-1.2054653,2.7754579l-5.2436504-0.019022l4.2311935,5.9339619
	h4.6128712l-3.13451-3.4337502L26.0686073,12.3662539z"/>
</svg>
