<?xml version="1.0" encoding="utf-8"?>
<!-- Generator: Adobe Illustrator 19.2.1, SVG Export Plug-In . SVG Version: 6.00 Build 0)  -->
<svg version="1.1" id="Ebene_1" xmlns="http://www.w3.org/2000/svg" xmlns:xlink="http://www.w3.org/1999/xlink" x="0px" y="0px"
	 width="59px" height="20px" viewBox="0 0 59 20" enable-background="new 0 0 59 20" xml:space="preserve">
<path d="M44.9194336,11.2042971v1.9537106h-1.4554672v2.6419926h-2.2543945v-2.6419926h-4.8251953v-2.1673822l4.9438477-6.7552738
	h2.1357422v6.9689455H44.9194336z M41.2570305,11.2279301V6.9248047l-2.9742165,4.3031254H41.2570305z"/>
<path d="M53.6285172,7.1226563H51.429493c-0.2056656-0.891211-0.7119141-1.3369141-1.5187492-1.3369141
	c-0.8542976,0-1.460743,0.5248046-1.8193359,1.5742188c-0.1476593,0.4271483-0.2663116,1.0730472-0.355957,1.9378905
	c0.3480453-0.4693356,0.7184563-0.8068361,1.1113281-1.0124998c0.392868-0.2056646,0.8662109-0.3083987,1.4199219-0.3083987
	c1.0863266,0,1.9589844,0.3849607,2.6182594,1.1548829c0.6275406,0.7277346,0.9413109,1.6400394,0.9413109,2.7369137
	c0,1.3025398-0.4219742,2.3492193-1.265625,3.1402349c-0.7593765,0.7119141-1.6717796,1.0679693-2.7369156,1.0679693
	c-1.3658218,0-2.4284172-0.5154305-3.1877937-1.5464849c-0.7593727-1.0308599-1.139061-2.469141-1.139061-4.3150396
	c0-1.9722652,0.4060555-3.5171871,1.2181625-4.6353512c0.7857437-1.0808592,1.8588867-1.6214843,3.2194328-1.6214843
	c1.2814484,0,2.2623062,0.4298825,2.9425812,1.2892575C53.2672844,5.7435546,53.5177727,6.3685546,53.6285172,7.1226563z
	 M49.7129898,9.7724609c-0.5537109,0-0.9940453,0.2322264-1.3209991,0.6960936
	c-0.2954102,0.4113283-0.4429665,0.9017582-0.4429665,1.4712896c0,0.5644531,0.1502914,1.0574217,0.4508781,1.4792967
	c0.3269539,0.4693356,0.7751961,0.7039061,1.3447266,0.7039061c0.5537109,0,0.9993172-0.2240238,1.3368149-0.672266
	c0.3164062-0.421875,0.4746094-0.9203119,0.4746094-1.4951172c0-0.5642576-0.1423798-1.0466795-0.4271469-1.4474602
	C50.7808609,10.0177736,50.3088875,9.7724609,49.7129898,9.7724609z"/>
<polygon points="9.2512569,4.1999998 13.3211823,4.1999998 8.2861805,15.8000002 4.1993332,15.8000002 "/>
<path d="M26.0686073,12.3662539c0.3677654,0.000001,0.7008343-0.2171707,0.8491745-0.553688l3.3034401-7.6125569H16.0382843
	l-5.0350437,11.5999908h4.0520592l3.811655-8.6903973h6.01404l-1.2054653,2.7754579l-5.2436504-0.019022l4.2311935,5.9339619
	h4.6128712l-3.13451-3.4337502L26.0686073,12.3662539z"/>
</svg>
