<?xml version="1.0" encoding="utf-8"?>
<!-- Generator: Adobe Illustrator 19.2.1, SVG Export Plug-In . SVG Version: 6.00 Build 0)  -->
<svg version="1.1" id="Ebene_1" xmlns="http://www.w3.org/2000/svg" xmlns:xlink="http://www.w3.org/1999/xlink" x="0px" y="0px"
	 width="59px" height="20px" viewBox="0 0 59 20" enable-background="new 0 0 59 20" xml:space="preserve">
<path d="M44.5318375,4.2353516v1.9617186c-0.063282,0.0685549-0.2504883,0.2822266-0.5616226,0.6408205
	c-0.4324226,0.4957032-0.8622055,1.1191406-1.2893562,1.8707027c-0.4271469,0.7513676-0.7593727,1.4726562-0.9966774,2.1632814
	c-0.5010757,1.4398441-0.8041992,3.0824223-0.909668,4.9281254H38.385643
	c0.0158234-0.8701172,0.1673851-1.8351564,0.4547882-2.8951178c0.2873993-1.0599604,0.6842766-2.1199217,1.1905251-3.179882
	c0.7224617-1.4976568,1.455471-2.6128912,2.1990242-3.3460941h-5.4580078V4.2353516H44.5318375z"/>
<path d="M53.2488289,4.2353516v2.0566406h-4.6590843l-0.4983368,2.6025391
	c0.5588837-0.5906248,1.2735329-0.8859377,2.1436501-0.8859377c0.8542976,0,1.5978508,0.2292967,2.2306633,0.6880865
	c0.9385757,0.6908197,1.4080086,1.7402344,1.4080086,3.148242c0,1.3816404-0.5010719,2.4757814-1.5029297,3.2828121
	c-0.780468,0.6328125-1.7138672,0.9492197-2.8001938,0.9492197c-1.2234383,0-2.2069359-0.3283215-2.950489-0.9849615
	c-0.7435532-0.6564455-1.136425-1.5435553-1.1786118-2.6617193h2.2702141
	c0.0368156,0.4060555,0.1687508,0.7513676,0.3955078,1.0361328c0.3532219,0.4484377,0.8436508,0.6724615,1.4712868,0.6724615
	c0.6063499,0,1.0863304-0.21875,1.4396515-0.6564455c0.3427734-0.4273434,0.5141602-0.9464846,0.5141602-1.5583982
	c0-0.6644535-0.1792984-1.1957035-0.5378914-1.5939455c-0.3586922-0.3980465-0.8358421-0.5972652-1.4317398-0.5972652
	c-0.7277336,0-1.2946281,0.3271484-1.7006836,0.9808588l-2.0645485-0.0316401l1.0995102-6.4466801H53.2488289z"/>
<polygon points="9.2512569,4.1999998 13.3211823,4.1999998 8.2861805,15.8000002 4.1993332,15.8000002 "/>
<path d="M26.0686073,12.3662539c0.3677654,0.000001,0.7008343-0.2171707,0.8491745-0.553688l3.3034401-7.6125569H16.0382843
	l-5.0350437,11.5999908h4.0520592l3.811655-8.6903973h6.01404l-1.2054653,2.7754579l-5.2436504-0.019022l4.2311935,5.9339619
	h4.6128712l-3.13451-3.4337502L26.0686073,12.3662539z"/>
</svg>
