<?xml version="1.0" encoding="utf-8"?>
<!-- Generator: Adobe Illustrator 21.1.0, SVG Export Plug-In . SVG Version: 6.00 Build 0)  -->
<svg version="1.1" id="Layer_1" xmlns="http://www.w3.org/2000/svg" xmlns:xlink="http://www.w3.org/1999/xlink" x="0px" y="0px"
	 viewBox="0 0 296 100" style="enable-background:new 0 0 296 100;" xml:space="preserve">
<path d="M192.3,48.2c-2.5-0.8-4.7-2.4-6.2-4.5c-1.5-2.3-2.2-5-2.2-7.7c-0.1-4.8,2.2-9.3,6.2-12c3.8-2.7,8.3-4.1,13-4
	c5.7,0,10.3,1.6,14,4.7c3.3,2.7,5.2,6.7,5.1,11c0.1,2.8-0.7,5.5-2.2,7.8c-1.5,2.2-3.7,3.8-6.2,4.7c1.8,0.5,3.5,1.3,5.1,2.3
	c3.7,2.7,5.5,6.6,5.5,11.7c0.2,5.5-2.3,10.8-6.8,14c-3.8,2.9-8.7,4.4-14.6,4.4c-6.5,0-11.6-1.6-15.4-4.8c-3.9-3.2-6.1-8.1-6-13.2
	c0-5.1,1.8-9,5.3-11.8C188.6,49.5,190.4,48.6,192.3,48.2L192.3,48.2z M202.9,52.5c-2.6-0.1-5.1,0.8-7,2.6c-1.8,1.8-2.8,4.2-2.7,6.7
	c-0.1,2.6,0.9,5.1,2.7,6.9c1.9,1.8,4.5,2.8,7.1,2.6c3.3,0,5.8-1,7.5-2.9c1.6-1.8,2.4-4.1,2.4-6.5c0.1-2.6-0.9-5.1-2.8-6.9
	C208.2,53.3,205.6,52.3,202.9,52.5z M203,29c-2.2-0.1-4.4,0.7-6.1,2.1c-1.6,1.4-2.4,3.5-2.3,5.6c-0.1,2.2,0.8,4.3,2.4,5.8
	c1.7,1.5,4,2.3,6.3,2.2c2.3,0.1,4.5-0.6,6.2-2.1c1.6-1.5,2.4-3.6,2.3-5.8c0.1-2.1-0.7-4.2-2.3-5.6C207.6,29.5,205.3,28.8,203,29
	L203,29z M46.3,21h20.3L41.4,79H21L46.3,21z M80,21h72.2l-7.5,17.2H93.2L82.9,61.8h51.6L127.1,79H54.8L80,21z"/>
</svg>
