<?xml version="1.0" encoding="utf-8"?>
<!-- Generator: Adobe Illustrator 19.2.1, SVG Export Plug-In . SVG Version: 6.00 Build 0)  -->
<svg version="1.1" id="Ebene_1" xmlns="http://www.w3.org/2000/svg" xmlns:xlink="http://www.w3.org/1999/xlink" x="0px" y="0px"
	 width="59px" height="20px" viewBox="0 0 59 20" enable-background="new 0 0 59 20" xml:space="preserve">
<path id="_x5E__1_" d="M6.6288242,4.1893792L4.1999998,15.801156h2.4288244L9.0742846,4.1893792H6.6288242z M18.9060345,6.5017533
	l0.5822506-1.9463873c-0.3216267-0.1109056-0.5739326-0.1913114-0.7569275-0.2412186
	c-0.1829948-0.0499077-0.3576698-0.0914969-0.5240288-0.1247683c-0.2772636-0.0554533-0.621067-0.1025872-1.0314178-0.1414046
	c-0.4103508-0.0388169-0.7818794-0.0582249-1.1145973-0.0582249c-0.9870615,0-1.8881569,0.1580384-2.7033148,0.4741194
	c-0.8151569,0.316082-1.5138531,0.7624707-2.0961084,1.3391809s-1.0341902,1.2670884-1.3558168,2.0711555
	s-0.4824371,1.6940718-0.4824371,2.670042c0,1.7301311,0.4935236,3.0997963,1.4805851,4.1090403
	c0.9094257,0.8872452,2.2070045,1.330862,3.8927727,1.330862c0.3548985,0,0.7458353-0.0277271,1.172823-0.0831795
	s0.8511953-0.1275406,1.2726374-0.2162647l0.3659859-2.2291946c-0.4436226,0.2550831-0.8456497,0.4380741-1.2060928,0.5489807
	c-0.360445,0.1109056-0.7458353,0.166357-1.1561871,0.166357c-0.5101671,0-0.9731913-0.0887232-1.3890886-0.2661724
	c-0.4158955-0.1774483-0.7707891-0.4325285-1.0646896-0.7652454c-0.2938995-0.3327179-0.5212536-0.7319727-0.6820669-1.1977768
	c-0.1608143-0.4658051-0.2412195-0.9815083-0.2412195-1.5471277c0-0.6765261,0.1109047-1.294816,0.332716-1.8548899
	c0.2218122-0.5600748,0.5323429-1.0425072,0.9316034-1.4473133c0.3992615-0.4048061,0.8733759-0.7181106,1.4223595-0.9399219
	c0.5489845-0.2218113,1.1561842-0.332716,1.821619-0.332716c0.4658051,0,0.8872395,0.0499072,1.2643204,0.1497226
	C18.0187931,6.0692229,18.4402275,6.2466698,18.9060345,6.5017533L18.9060345,6.5017533z M21.3348579,4.1893792
	L18.8394909,15.801156h2.2291946l1.8632069-8.9001446h0.016634l2.4288254,8.9001446h2.9944401l2.495369-11.6117764h-2.1792889
	l-1.8964787,8.8169651h-0.0332699l-2.4787312-8.8169651H21.3348579z"/>
</svg>
