<?xml version="1.0" encoding="utf-8"?>
<!-- Generator: Adobe Illustrator 19.2.1, SVG Export Plug-In . SVG Version: 6.00 Build 0)  -->
<svg version="1.1" id="Ebene_1" xmlns="http://www.w3.org/2000/svg" xmlns:xlink="http://www.w3.org/1999/xlink" x="0px" y="0px"
	 width="59px" height="20px" viewBox="0 0 59 20" enable-background="new 0 0 59 20" xml:space="preserve">
<path id="SN_7_" d="M4.2003255,11.9487543c-0.0324965,2.8597069,2.3722577,4.1270781,4.9394956,4.1270781
	c3.1521778,0,4.825757-1.5923386,4.825757-3.720871c0-2.6322308-2.5997353-3.1684265-3.4446478-3.3796549
	c-2.9084535-0.7474232-3.460897-0.8611612-3.460897-1.7548199c0-0.9749007,0.9424043-1.3161159,1.7548213-1.3161159
	c1.2186251,0,2.209774,0.3574634,2.2910156,1.7548208h2.4697475c0-2.6809769-2.2260227-3.7371185-4.6470251-3.7371185
	c-2.096036,0-4.3383069,1.1373837-4.3383069,3.5096414c0,2.177278,1.7385726,2.8434596,3.460896,3.2984138
	c1.7060757,0.4549532,3.4446487,0.6661816,3.4446487,1.917304c0,1.1861277-1.3648615,1.4461021-2.2585192,1.4461021
	c-1.3648605,0-2.5672383-0.6011887-2.5672383-2.1447802H4.2003255z M15.3606138,15.7996092h2.3885069V8.0329027h0.0324955
	l4.825758,7.7667065h2.5509892V4.1982946h-2.3885059v7.7829552h-0.0324955l-4.8420067-7.7829552h-2.5347414V15.7996092z"/>
<path d="M34.2117348,9.5728512c-0.5378914-0.1845703-0.9503899-0.4876947-1.2378922-0.9095697
	c-0.2874985-0.421875-0.4310532-0.9333987-0.4310532-1.5345707c0-1.0019531,0.4113274-1.8007812,1.2339821-2.3968749
	c0.7277374-0.5271482,1.5925789-0.7910156,2.594532-0.7910156c1.1390648,0,2.0697289,0.3138671,2.7923851,0.9414062
	c0.6853485,0.5906253,1.0281219,1.3208985,1.0281219,2.1910157c0,0.6064453-0.1449203,1.1259766-0.4349594,1.5583982
	s-0.7013664,0.7462893-1.2339859,0.9412107c0.4166031,0.1214848,0.7566414,0.2769537,1.0205078,0.4667969
	c0.7328148,0.5326176,1.0994148,1.3103523,1.0994148,2.3333988c0,1.1759768-0.4509773,2.1121092-1.3525391,2.8082027
	c-0.7593727,0.5853519-1.735157,0.8779297-2.9269524,0.8779297c-1.2919922,0-2.3203125-0.3214836-3.0847664-0.9650383
	c-0.7964821-0.6695318-1.1945305-1.547657-1.1945305-2.6339846c0-1.0177736,0.3531265-1.8062506,1.0599594-2.3652344
	C33.465641,9.8470707,33.8214989,9.6730471,34.2117348,9.5728512z M36.3238449,10.4429684
	c-0.5695343,0-1.0349617,0.1753912-1.3960953,0.5261726c-0.3613281,0.3505859-0.5417976,0.8001947-0.5417976,1.3486328
	c0,0.5642576,0.1832047,1.0230465,0.5496101,1.3763666s0.8425789,0.5298834,1.4277344,0.5298834
	c0.6644516,0,1.1628914-0.1949224,1.4951172-0.5853519c0.3216782-0.3744144,0.4826164-0.8068361,0.4826164-1.297266
	c0-0.5587883-0.1847649-1.0175781-0.5539055-1.3763666C37.4339981,10.616992,36.9461098,10.4429684,36.3238449,10.4429684z
	 M36.3396645,5.7365236c-0.5062523,0-0.9150391,0.1410155-1.2259789,0.4232421
	c-0.3113251,0.2820311-0.4667969,0.6525388-0.4667969,1.1113281c0,0.4798827,0.1568375,0.8634763,0.4707031,1.1509767
	c0.3136749,0.2873049,0.734375,0.4310541,1.2617188,0.4310541c0.5271492,0,0.9437523-0.1423826,1.2496109-0.4271479
	c0.3058586-0.2847662,0.4589844-0.672461,0.4589844-1.1628909c0-0.4796872-0.1542969-0.8542967-0.4628906-1.1232419
	C37.3166161,5.8708982,36.8880997,5.7365236,36.3396645,5.7365236z"/>
</svg>
