<?xml version="1.0" encoding="utf-8"?>
<!-- Generator: Adobe Illustrator 19.2.1, SVG Export Plug-In . SVG Version: 6.00 Build 0)  -->
<svg version="1.1" id="Ebene_1" xmlns="http://www.w3.org/2000/svg" xmlns:xlink="http://www.w3.org/1999/xlink" x="0px" y="0px"
	 width="59px" height="20px" viewBox="0 0 59 20" enable-background="new 0 0 59 20" xml:space="preserve">
<path d="M44.783474,13.7430973v2.0566406h-8.3293953c0-0.6273432,0.1014671-1.225976,0.3045921-1.7955074
	c0.2029305-0.5695314,0.4890633-1.0599613,0.8582039-1.4712896c0.2847633-0.3164062,0.6183586-0.625,1.0005836-0.9253902
	c0.3822289-0.3007812,1.1431656-0.8515625,2.2822266-1.6533203c0.5535164-0.3849611,0.9412117-0.7435551,1.1626968-1.0757809
	c0.2214851-0.3322268,0.3322258-0.7169924,0.3322258-1.1548834c0-0.5062499-0.149025-0.9162107-0.4468765-1.2300777
	c-0.2980461-0.3136721-0.6894531-0.4707031-1.1746063-0.4707031c-1.1917992,0-1.8062515,0.8570309-1.8431664,2.5708981h-2.2227516
	c0-0.1107416,0-0.195117,0-0.2531252c0-1.4027338,0.3927727-2.4888668,1.1786118-3.2589841
	c0.7646484-0.7486329,1.7533188-1.1232421,2.9662094-1.1232421c1.075779,0,1.9750023,0.3058593,2.697464,0.917578
	c0.7857399,0.6644535,1.1787109,1.5582032,1.1787109,2.6816406c0,0.9808598-0.3138695,1.8246098-0.9414062,2.53125
	c-0.2056656,0.2320318-0.398243,0.4179688-0.5773468,0.5574217c-0.1792946,0.1398439-0.6515617,0.4761724-1.4160156,1.0085945
	c-0.7277336,0.5062494-1.248436,0.8939447-1.5623016,1.1628904c-0.3138695,0.2689447-0.6050797,0.5773439-0.8740234,0.9253902
	H44.783474z"/>
<path d="M51.4121857,4.2352848v11.5644531h-2.3097649V8.2298164h-0.8226585h-0.8226547h-0.7988281h-0.2769547V6.5528631
	c0.5642586-0.0158205,1.0242195-0.0738282,1.3804703-0.1740236c0.3558578-0.1001949,0.6812515-0.2636719,0.976757-0.4904294
	c0.4271507-0.3269534,0.7146492-0.8781252,0.8623047-1.6531253H51.4121857z"/>
<polygon points="9.2519217,4.1999998 13.3218451,4.1999998 8.2868452,15.7999954 4.1999998,15.7999954 "/>
<path d="M16.0023804,4.2000046h14.443655l-1.495575,3.4454651H18.6353722l-2.0482254,4.7090654h10.3195629l-1.4949036,3.4454651
	h-14.443819L16.0023804,4.2000046z"/>
</svg>
