<?xml version="1.0" encoding="utf-8"?>
<!-- Generator: Adobe Illustrator 19.2.1, SVG Export Plug-In . SVG Version: 6.00 Build 0)  -->
<svg version="1.1" id="Ebene_1" xmlns="http://www.w3.org/2000/svg" xmlns:xlink="http://www.w3.org/1999/xlink" x="0px" y="0px"
	 width="59px" height="20px" viewBox="0 0 59 20" enable-background="new 0 0 59 20" xml:space="preserve">
<path d="M36.7324219,7.8978515c0.0263672-0.9492188,0.2610359-1.7455077,0.7040024-2.3888669
	c0.7170906-1.0335941,1.7956085-1.5503907,3.2352562-1.5503907c1.1074219,0,2.0012703,0.2820311,2.6815414,0.8462892
	c0.7329102,0.6119137,1.099514,1.4029293,1.099514,2.3730469c0,0.5802732-0.1437531,1.0796871-0.431057,1.4990234
	c-0.2874985,0.4191408-0.6763649,0.702734-1.1667976,0.8503904c0.6221695,0.1423826,1.1139679,0.4587889,1.4751968,0.9492188
	s0.541893,1.0835934,0.541893,1.7796879c0,1.1443357-0.4219704,2.0804682-1.265625,2.8082027
	c-0.780468,0.6750002-1.7666969,1.0125008-2.9583969,1.0125008c-1.2920914,0-2.3164062-0.3718758-3.073143-1.1154308
	c-0.7567406-0.7435541-1.1350594-1.7480469-1.1350594-3.0136719c0-0.0263672,0-0.0763664,0-0.1503906h2.2227516
	c0,0.7119141,0.1687508,1.2617188,0.5062523,1.6492195c0.3374023,0.3876953,0.8147469,0.5814447,1.431736,0.5814447
	c0.616993,0,1.0916023-0.1818361,1.4238281-0.5457029c0.3057632-0.3427734,0.4587898-0.7515621,0.4587898-1.2261715
	c0-0.5695314-0.195118-1.0203133-0.58535-1.3525391c-0.321682-0.2742195-0.817482-0.4113283-1.4871101-0.4113283
	c-0.1898422,0-0.3770523,0.0105467-0.5616226,0.0316401V8.8232422c0.1371117,0.0107422,0.2689476,0.0158205,0.3955078,0.0158205
	c1.328907,0,1.9933624-0.4929686,1.9933624-1.4791017c0-0.4324222-0.1451187-0.781836-0.4350586-1.0482421
	c-0.2900391-0.266211-0.6723633-0.3994141-1.1469727-0.3994141c-0.5431671,0-0.9624023,0.1689453-1.2577171,0.5062499
	c-0.2954102,0.3375001-0.4536133,0.8306642-0.4746094,1.4792967H36.7324219z"/>
<path d="M53.6285172,7.1226563H51.429493c-0.2056656-0.891211-0.7119141-1.3369141-1.5187492-1.3369141
	c-0.8542976,0-1.460743,0.5248046-1.8193359,1.5742188c-0.1476593,0.4271483-0.2663116,1.0730472-0.355957,1.9378905
	c0.3480453-0.4693356,0.7184563-0.8068361,1.1113281-1.0124998c0.392868-0.2056646,0.8662109-0.3083987,1.4199219-0.3083987
	c1.0863266,0,1.9589844,0.3849607,2.6182594,1.1548829c0.6275368,0.7277346,0.9413109,1.6400394,0.9413109,2.7369137
	c0,1.3025398-0.4219742,2.3492193-1.265625,3.1402349c-0.7593765,0.7119141-1.6717796,1.0679693-2.7369156,1.0679693
	c-1.3658218,0-2.4284172-0.5154305-3.1877937-1.5464849c-0.7593727-1.0308599-1.139061-2.469141-1.139061-4.3150396
	c0-1.9722652,0.4060555-3.5171871,1.2181625-4.6353512c0.7857437-1.0808592,1.8588867-1.6214843,3.2194328-1.6214843
	c1.2814484,0,2.2623062,0.4298825,2.9425812,1.2892575C53.2672844,5.7435546,53.5177727,6.3685546,53.6285172,7.1226563z
	 M49.7129898,9.7724609c-0.5537109,0-0.9940453,0.2322264-1.3209991,0.6960936
	c-0.2954102,0.4113283-0.4429665,0.9017582-0.4429665,1.4712896c0,0.5644531,0.1502914,1.0574217,0.4508781,1.4792967
	c0.3269539,0.4693356,0.7751961,0.7039061,1.3447266,0.7039061c0.5537109,0,0.9993172-0.2240238,1.3368149-0.672266
	c0.3164062-0.421875,0.4746094-0.9203119,0.4746094-1.4951172c0-0.5642576-0.1423798-1.0466795-0.4271469-1.4474602
	C50.7808609,10.0177736,50.3088875,9.7724609,49.7129898,9.7724609z"/>
<polygon points="9.2512569,4.1999998 13.3211823,4.1999998 8.2861805,15.8000002 4.1993332,15.8000002 "/>
<path d="M26.0686073,12.3662539c0.3677654,0.000001,0.7008343-0.2171707,0.8491745-0.553688l3.3034401-7.6125569H16.0382843
	l-5.0350437,11.5999908h4.0520592l3.811655-8.6903973h6.01404l-1.2054653,2.7754579l-5.2436504-0.019022l4.2311935,5.9339619
	h4.6128712l-3.13451-3.4337502L26.0686073,12.3662539z"/>
</svg>
