<?xml version="1.0" encoding="utf-8"?>
<!-- Generator: Adobe Illustrator 19.2.1, SVG Export Plug-In . SVG Version: 6.00 Build 0)  -->
<svg version="1.1" id="Ebene_1" xmlns="http://www.w3.org/2000/svg" xmlns:xlink="http://www.w3.org/1999/xlink" x="0px" y="0px"
	 width="59px" height="20px" viewBox="0 0 59 20" enable-background="new 0 0 59 20" xml:space="preserve">
<path id="SN_2_" d="M4.2003255,11.9487543c-0.0324965,2.8597069,2.3722577,4.1270781,4.9394956,4.1270781
	c3.1521778,0,4.825757-1.5923386,4.825757-3.720871c0-2.6322308-2.5997353-3.1684265-3.4446478-3.3796549
	c-2.9084535-0.7474232-3.460897-0.8611612-3.460897-1.7548199c0-0.9749007,0.9424043-1.3161159,1.7548213-1.3161159
	c1.2186251,0,2.209774,0.3574634,2.2910156,1.7548208h2.4697475c0-2.6809769-2.2260227-3.7371185-4.6470251-3.7371185
	c-2.096036,0-4.3383069,1.1373837-4.3383069,3.5096414c0,2.177278,1.7385726,2.8434596,3.460896,3.2984138
	c1.7060757,0.4549532,3.4446487,0.6661816,3.4446487,1.917304c0,1.1861277-1.3648615,1.4461021-2.2585192,1.4461021
	c-1.3648605,0-2.5672383-0.6011887-2.5672383-2.1447802H4.2003255z M15.3606138,15.7996092h2.3885069V8.0329027h0.0324955
	l4.825758,7.7667065h2.5509892V4.1982946h-2.3885059v7.7829552h-0.0324955l-4.8420067-7.7829552h-2.5347414V15.7996092z"/>
<path d="M32.4795074,7.8798828c0.0265617-0.9492188,0.2611313-1.7453127,0.7041016-2.3886719
	c0.7169914-1.0335937,1.7955093-1.5503907,3.2353516-1.5503907c1.1074219,0,2.0011711,0.2820315,2.6814461,0.8462892
	c0.7330055,0.6119142,1.0994148,1.4029298,1.0994148,2.3730469c0,0.5802736-0.1437531,1.0796871-0.4308624,1.4990234
	c-0.2874985,0.4191408-0.6765594,0.702734-1.1667938,0.8503904c0.6220703,0.1421881,1.1138649,0.4585943,1.4749985,0.9492188
	c0.3613281,0.4902344,0.5419922,1.0835943,0.5419922,1.7796879c0,1.1443357-0.4220695,2.0804682-1.265625,2.8082027
	c-0.780468,0.6750002-1.7666016,1.0124998-2.9583969,1.0124998c-1.2921906,0-2.3164062-0.3718748-3.0730476-1.1154289
	c-0.7568359-0.7435551-1.1351585-1.7482424-1.1351585-3.0138674c0-0.0261717,0-0.0761719,0-0.1501951h2.2226562
	c0,0.7119141,0.1687508,1.2617188,0.5062523,1.6492186c0.3374977,0.3876953,0.8148422,0.5814447,1.4318352,0.5814447
	s1.0916023-0.1820307,1.4238281-0.5457029c0.3056641-0.3429689,0.4587898-0.7515621,0.4587898-1.2261715
	c0-0.5695314-0.195118-1.0203123-0.5853539-1.3527346c-0.3216782-0.2740231-0.8173828-0.4113283-1.4871063-0.4113283
	c-0.189846,0-0.3771515,0.0107422-0.5615234,0.031641V8.8054686c0.1371078,0.0107422,0.2687492,0.0158205,0.3953094,0.0158205
	c1.328907,0,1.9933624-0.4929686,1.9933624-1.4792967c0-0.4322267-0.1449242-0.781641-0.4349632-1.0480471
	c-0.2900391-0.266211-0.6724586-0.3994141-1.147068-0.3994141c-0.5429688,0-0.962307,0.1689453-1.257618,0.5062499
	c-0.2955093,0.3375001-0.4537125,0.8306642-0.4746094,1.4791017H32.4795074z"/>
</svg>
