<?xml version="1.0" encoding="utf-8"?>
<!-- Generator: Adobe Illustrator 19.2.1, SVG Export Plug-In . SVG Version: 6.00 Build 0)  -->
<svg version="1.1" id="Ebene_1" xmlns="http://www.w3.org/2000/svg" xmlns:xlink="http://www.w3.org/1999/xlink" x="0px" y="0px"
	 width="59px" height="20px" viewBox="0 0 59 20" enable-background="new 0 0 59 20" xml:space="preserve">
<path d="M44.7194328,11.2042971v1.9537106h-1.4554672v2.6419926h-2.2543945v-2.6419926h-4.8251953v-2.1673822l4.9438477-6.7552738
	h2.1357422v6.9689455H44.7194328z M41.0570297,11.2279301V6.9248047l-2.9742165,4.3031254H41.0570297z"/>
<path d="M53.0488281,4.2353516v2.0566406h-4.6590805L47.891407,8.8945312
	c0.5588875-0.5906248,1.2735329-0.8859377,2.1436501-0.8859377c0.8542976,0,1.5978546,0.2292967,2.2306671,0.6880865
	c0.9385719,0.6910152,1.4080048,1.7402344,1.4080048,3.148242c0,1.3816404-0.5010719,2.475976-1.5029297,3.2828121
	c-0.780468,0.6328125-1.7138672,0.9492197-2.8001938,0.9492197c-1.2234383,0-2.2069321-0.3283215-2.950489-0.9849615
	c-0.7435532-0.6564455-1.136425-1.5435553-1.1786118-2.6617193h2.2702141
	c0.0368156,0.40625,0.1687508,0.7515631,0.3955078,1.0363283c0.3532219,0.4482422,0.8436508,0.672266,1.4712906,0.672266
	c0.6063461,0,1.0863266-0.21875,1.4396477-0.6564455c0.3427734-0.4271488,0.5141602-0.9464846,0.5141602-1.5583982
	c0-0.6644535-0.1792984-1.1957035-0.5378914-1.5939455c-0.3586922-0.3980465-0.8358383-0.5970707-1.4317398-0.5970707
	c-0.7277336,0-1.2946281,0.3269539-1.7006836,0.9808598l-2.0645485-0.031641l1.0995102-6.4468746H53.0488281z"/>
<polygon points="9.0512571,4.1999998 13.1211824,4.1999998 8.0861797,15.8000002 3.9993334,15.8000002 "/>
<path d="M25.8686066,12.3662539c0.3677673,0.000001,0.7008362-0.2171707,0.8491745-0.553688l3.3034401-7.6125569H15.8382835
	l-5.0350428,11.5999908h4.0520592l3.8116541-8.6903973h6.01404l-1.2054634,2.7754579l-5.2436523-0.019022l4.2311954,5.9339619
	h4.6128693l-3.13451-3.4337502L25.8686066,12.3662539z"/>
</svg>
