<svg xmlns="http://www.w3.org/2000/svg" viewBox="0 0 296 100"><path d="M221.2 21.2v10.3h-23.3l-2.5 13c2.8-2.9 6.7-4.6 10.7-4.4 4-.1 7.9 1.1 11.2 3.4 4.7 3.5 7 8.7 7 15.7 0 6.9-2.5 12.4-7.5 16.4-4 3.2-8.9 4.9-14 4.7-6.1 0-11-1.6-14.8-4.9-3.7-3.3-5.7-7.7-5.9-13.3h11.4c.1 1.9.8 3.7 2 5.2 3.5 4 9.5 4.5 13.6 1 .3-.3.7-.6 1-1 1.7-2.2 2.7-5 2.6-7.8.1-2.9-.8-5.8-2.7-8-1.8-2-4.4-3.1-7.2-3-3.5-.1-6.8 1.8-8.5 4.9l-10.3-.2 5.5-32.2 31.7.2zM266.2 21.2v10.3h-23.3l-2.5 13c2.8-2.9 6.7-4.6 10.7-4.4 4-.1 7.9 1.1 11.2 3.4 4.7 3.5 7 8.7 7 15.7 0 6.9-2.5 12.4-7.5 16.4-4 3.2-8.9 4.9-14 4.7-6.1 0-11-1.6-14.8-4.9-3.7-3.3-5.7-7.7-5.9-13.3h11.4c.1 1.9.8 3.7 2 5.2 3.5 4 9.5 4.5 13.6 1 .3-.3.7-.6 1-1 1.7-2.2 2.7-5 2.6-7.8.1-2.9-.8-5.8-2.7-8-1.8-2-4.4-3.1-7.2-3-3.5-.1-6.8 1.8-8.5 4.9H229l5.5-32.2h31.7zM46.3 21h20.3L41.4 79H21zM130.3 61.8c1.8 0 3.5-1.1 4.2-2.8l16.6-38H80.2L55 79h20.3l19.1-43.5h30.1l-6 13.9-26.2-.1 21 29.7h23.1l-15.7-17.2h9.6z"/></svg>
