<?xml version="1.0" encoding="utf-8"?>
<!-- Generator: Adobe Illustrator 21.1.0, SVG Export Plug-In . SVG Version: 6.00 Build 0)  -->
<svg version="1.1" id="Layer_1" xmlns="http://www.w3.org/2000/svg" xmlns:xlink="http://www.w3.org/1999/xlink" x="0px" y="0px"
	 viewBox="0 0 296 100" style="enable-background:new 0 0 296 100;" xml:space="preserve">
<path d="M221,20.2v10.3h-23.3l-2.5,13c2.8-2.9,6.7-4.6,10.7-4.4c4-0.1,7.9,1.1,11.2,3.4c4.7,3.5,7,8.7,7,15.7
	c0,6.9-2.5,12.4-7.5,16.4c-4,3.2-8.9,4.9-14,4.7c-6.1,0-11-1.6-14.8-4.9c-3.7-3.3-5.7-7.7-5.9-13.3h11.4c0.1,1.9,0.8,3.7,2,5.2
	c3.5,4,9.5,4.5,13.6,1c0.3-0.3,0.7-0.6,1-1c1.7-2.2,2.7-5,2.6-7.8c0.1-2.9-0.8-5.8-2.7-8c-1.8-2-4.4-3.1-7.2-3
	c-3.5-0.1-6.8,1.8-8.5,4.9l-10.3-0.2l5.5-32.2C189.3,20,221,20.2,221,20.2z M257.1,20.2V78h-11.5V40.1H232v-8.4
	c2.3,0,4.6-0.3,6.9-0.9c1.8-0.5,3.4-1.3,4.9-2.5c2.1-1.6,3.6-4.4,4.3-8.3h9L257.1,20.2z M46.3,21h20.3L41.4,79H21L46.3,21z M80,21
	h72.2l-7.5,17.2H93.2L82.9,61.8h51.6L127.1,79H54.8L80,21z"/>
</svg>
