<?xml version="1.0" encoding="utf-8"?>
<!-- Generator: Adobe Illustrator 19.2.1, SVG Export Plug-In . SVG Version: 6.00 Build 0)  -->
<svg version="1.1" id="Ebene_1" xmlns="http://www.w3.org/2000/svg" xmlns:xlink="http://www.w3.org/1999/xlink" x="0px" y="0px"
	 width="59px" height="20px" viewBox="0 0 59 20" enable-background="new 0 0 59 20" xml:space="preserve">
<path d="M44.2391586,4.2353516v2.0566406h-4.6590805l-0.4983406,2.6025391
	c0.5588875-0.5906248,1.2735367-0.8859377,2.1436539-0.8859377c0.8542976,0,1.5978508,0.2292967,2.2306633,0.6880865
	c0.9385757,0.6908197,1.4080086,1.7402344,1.4080086,3.148242c0,1.3816404-0.5010757,2.4757814-1.5029297,3.2828121
	c-0.780468,0.6328125-1.7138672,0.9492197-2.8001976,0.9492197c-1.2234383,0-2.2069321-0.3283215-2.9504852-0.9849615
	c-0.743557-0.6564455-1.1364288-1.5435553-1.1786156-2.6617193h2.2702141
	c0.0368195,0.4060555,0.1687508,0.7513676,0.3955078,1.0361328c0.3532257,0.4484377,0.8436546,0.6724615,1.4712906,0.6724615
	c0.6063461,0,1.0863266-0.21875,1.4396477-0.6564455c0.3427734-0.4273434,0.5141602-0.9464846,0.5141602-1.5583982
	c0-0.6644535-0.1792946-1.1957035-0.5378914-1.5939455c-0.3586884-0.3980465-0.8358383-0.5972652-1.431736-0.5972652
	c-0.7277336,0-1.2946281,0.3271484-1.7006836,0.9808588l-2.0645523-0.0316401l1.099514-6.4466801H44.2391586z"/>
<path d="M53.2488289,4.2353516v2.0566406h-4.6590843l-0.4983368,2.6025391
	c0.5588837-0.5906248,1.2735329-0.8859377,2.1436501-0.8859377c0.8542976,0,1.5978508,0.2292967,2.2306633,0.6880865
	c0.9385757,0.6908197,1.4080086,1.7402344,1.4080086,3.148242c0,1.3816404-0.5010719,2.4757814-1.5029297,3.2828121
	c-0.780468,0.6328125-1.7138672,0.9492197-2.8001938,0.9492197c-1.2234383,0-2.2069359-0.3283215-2.950489-0.9849615
	c-0.7435532-0.6564455-1.136425-1.5435553-1.1786118-2.6617193h2.2702141
	c0.0368156,0.4060555,0.1687508,0.7513676,0.3955078,1.0361328c0.3532219,0.4484377,0.8436508,0.6724615,1.4712868,0.6724615
	c0.6063499,0,1.0863304-0.21875,1.4396515-0.6564455c0.3427734-0.4273434,0.5141602-0.9464846,0.5141602-1.5583982
	c0-0.6644535-0.1792984-1.1957035-0.5378914-1.5939455c-0.3586922-0.3980465-0.8358421-0.5972652-1.4317398-0.5972652
	c-0.7277336,0-1.2946281,0.3271484-1.7006836,0.9808588l-2.0645485-0.0316401l1.0995102-6.4466801H53.2488289z"/>
<polygon points="9.2512569,4.1999998 13.3211823,4.1999998 8.2861805,15.8000002 4.1993332,15.8000002 "/>
<path d="M26.0686073,12.3662539c0.3677654,0.000001,0.7008343-0.2171707,0.8491745-0.553688l3.3034401-7.6125569H16.0382843
	l-5.0350437,11.5999908h4.0520592l3.811655-8.6903973h6.01404l-1.2054653,2.7754579l-5.2436504-0.019022l4.2311935,5.9339619
	h4.6128712l-3.13451-3.4337502L26.0686073,12.3662539z"/>
</svg>
