<?xml version="1.0" encoding="utf-8"?>
<!-- Generator: Adobe Illustrator 19.2.1, SVG Export Plug-In . SVG Version: 6.00 Build 0)  -->
<svg version="1.1" id="Ebene_1" xmlns="http://www.w3.org/2000/svg" xmlns:xlink="http://www.w3.org/1999/xlink" x="0px" y="0px"
	 width="59px" height="20px" viewBox="0 0 59 20" enable-background="new 0 0 59 20" xml:space="preserve">
<path id="SN" d="M4.2003255,11.9487543c-0.0324965,2.8597069,2.3722577,4.1270781,4.9394956,4.1270781
	c3.1521778,0,4.825757-1.5923386,4.825757-3.720871c0-2.6322308-2.5997353-3.1684265-3.4446478-3.3796549
	c-2.9084535-0.7474232-3.460897-0.8611612-3.460897-1.7548199c0-0.9749007,0.9424043-1.3161159,1.7548213-1.3161159
	c1.2186251,0,2.209774,0.3574634,2.2910156,1.7548208h2.4697475c0-2.6809769-2.2260227-3.7371185-4.6470251-3.7371185
	c-2.096036,0-4.3383069,1.1373837-4.3383069,3.5096414c0,2.177278,1.7385726,2.8434596,3.460896,3.2984138
	c1.7060757,0.4549532,3.4446487,0.6661816,3.4446487,1.917304c0,1.1861277-1.3648615,1.4461021-2.2585192,1.4461021
	c-1.3648605,0-2.5672383-0.6011887-2.5672383-2.1447802H4.2003255z M15.3606138,15.7996092h2.3885069V8.0329027h0.0324955
	l4.825758,7.7667065h2.5509892V4.1982946h-2.3885059v7.7829552h-0.0324955l-4.8420067-7.7829552h-2.5347414V15.7996092z"/>
</svg>
