<?xml version="1.0" encoding="utf-8"?>
<!-- Generator: Adobe Illustrator 19.2.1, SVG Export Plug-In . SVG Version: 6.00 Build 0)  -->
<svg version="1.1" id="Ebene_1" xmlns="http://www.w3.org/2000/svg" xmlns:xlink="http://www.w3.org/1999/xlink" x="0px" y="0px"
	 width="59" height="20" viewBox="0 0 59 20" enable-background="new 0 0 59 20" xml:space="preserve">
<path d="M14.46,11.16c0.06-0.1,0.14-0.15,0.23-0.15c0.1,0,0.15,0.09,0.15,0.28v0.04l-0.9,4.55
	c-0.05,0.14-0.13,0.21-0.24,0.21c-0.13,0-0.19-0.06-0.19-0.19l-0.02-0.19c-0.04-0.34-0.2-0.51-0.49-0.51h-0.11l-0.09,0.02
	l-0.11,0.04l-0.45,0.19c-0.86,0.38-1.81,0.56-2.84,0.56c-1.55,0-2.81-0.46-3.76-1.39c-0.95-0.93-1.43-2.15-1.43-3.67
	c0-1.88,0.68-3.5,2.05-4.87s2.99-2.05,4.87-2.05c0.94,0,1.85,0.21,2.74,0.64l0.73,0.34c0.15,0.05,0.26,0.08,0.34,0.08
	c0.25,0,0.46-0.16,0.64-0.49l0.19-0.38l0.08-0.08l0.13-0.04c0.09,0,0.14,0.05,0.17,0.15l0.02,0.04v0.04v0.04L15.1,8.88l-0.04,0.24
	l-0.09,0.15c-0.03,0.03-0.08,0.05-0.17,0.08l-0.09-0.04l-0.06-0.08V9.05V8.58c0-1.14-0.31-2.11-0.94-2.91
	c-0.63-0.8-1.4-1.2-2.31-1.2c-1.24,0-2.32,0.73-3.23,2.2c-0.91,1.47-1.37,3.19-1.37,5.17c0,2.51,0.88,3.76,2.63,3.76
	c1.24,0,2.21-0.39,2.89-1.18c0.69-0.79,1.23-1.52,1.64-2.18l0.17-0.34l0.24-0.55l0.04-0.06l0.02-0.06L14.46,11.16z M18.07,12.45
	c-0.11,0.53-0.17,0.96-0.17,1.32c0,0.43,0.1,0.79,0.31,1.1c0.21,0.31,0.46,0.46,0.76,0.46l0.21,0.02h0.06
	c0.13,0.04,0.19,0.11,0.19,0.21c-0.04,0.1-0.07,0.16-0.09,0.19L19.2,15.8h-4.08c-0.13,0-0.19-0.06-0.19-0.19l0.02-0.09
	c0.03-0.03,0.06-0.05,0.09-0.08c0.04-0.03,0.09-0.04,0.17-0.06l0.17-0.04c0.58-0.13,1.05-0.42,1.41-0.87
	c0.36-0.46,0.63-1.11,0.81-1.96l1.41-6.84l-0.23-0.34c-0.26-0.4-0.62-0.63-1.07-0.68h-0.08c-0.23,0-0.34-0.08-0.34-0.23
	s0.14-0.23,0.41-0.23h3.31l4.42,8.03l1.09-5.08l0.06-0.28c0.03-0.11,0.04-0.24,0.06-0.39s0.02-0.29,0.02-0.41
	c0-0.78-0.34-1.24-1.03-1.39L25.4,4.63l-0.11-0.06l-0.06-0.15c0-0.15,0.07-0.23,0.21-0.23h3.93c0.09,0,0.14,0.03,0.17,0.09
	l0.02,0.09c0,0.14-0.07,0.22-0.21,0.24l-0.17,0.04c-0.33,0-0.66,0.14-1,0.41c-0.34,0.28-0.6,0.61-0.77,1l-0.15,0.36l-0.13,0.39
	l-2.05,9.19l-0.02,0.02v0.04c-0.08,0.08-0.14,0.11-0.21,0.11c-0.08,0-0.13-0.03-0.17-0.08s-0.14-0.23-0.3-0.53l-5-9.29L18.07,12.45z
	 M27.98,15.8c-0.18,0-0.26-0.06-0.26-0.19c0-0.15,0.08-0.24,0.24-0.26l0.36-0.06c0.66-0.09,1.09-0.54,1.28-1.35l1.56-7.43
	c0.05-0.31,0.08-0.55,0.1-0.7c0.02-0.16,0.03-0.26,0.03-0.31c0-0.43-0.24-0.7-0.71-0.81h-0.06c-0.24-0.05-0.36-0.14-0.36-0.26
	c0-0.15,0.14-0.23,0.43-0.23h4.85c0.1,0,0.15,0.06,0.15,0.19v0.04c0,0.15-0.11,0.23-0.34,0.23l-0.23,0.02h-0.09h-0.09
	c-0.51,0-0.85,0.37-1,1.11l-1.62,7.56c-0.04,0.16-0.08,0.39-0.11,0.67c-0.04,0.28-0.06,0.47-0.06,0.55c0,0.53,0.32,0.79,0.96,0.79
	c0.88,0,1.81-0.37,2.81-1.1c1-0.73,1.73-1.59,2.19-2.58l0.06-0.13l0.11-0.21l0.17-0.08c0.13,0,0.19,0.06,0.19,0.17l-0.08,0.24
	l-1.54,4.14H27.98z"/>
</svg>
