<?xml version="1.0" encoding="utf-8"?>
<!-- Generator: Adobe Illustrator 19.2.1, SVG Export Plug-In . SVG Version: 6.00 Build 0)  -->
<svg version="1.1" id="Ebene_1" xmlns="http://www.w3.org/2000/svg" xmlns:xlink="http://www.w3.org/1999/xlink" x="0px" y="0px"
	 width="59px" height="20px" viewBox="0 0 59 20" enable-background="new 0 0 59 20" xml:space="preserve">
<path d="M44.2060547,4.2353516v2.0566406H39.546875l-0.4982414,2.6025391
	c0.5587883-0.5906248,1.273632-0.8859377,2.1435547-0.8859377c0.8542976,0,1.5980453,0.2292967,2.2308578,0.6880865
	c0.9384766,0.6908197,1.407814,1.7402344,1.407814,3.148242c0,1.3816404-0.5009766,2.4757814-1.5027351,3.2828121
	c-0.780468,0.6328125-1.7140617,0.9492197-2.8003922,0.9492197c-1.2234344,0-2.2068329-0.3283215-2.9503899-0.9849615
	c-0.7435532-0.6564455-1.1363258-1.5435553-1.1785164-2.6617193h2.2701187
	c0.0369148,0.4060555,0.1687508,0.7513676,0.3955078,1.0361328c0.3531265,0.4484377,0.84375,0.6724615,1.4712906,0.6724615
	c0.6064453,0,1.0863266-0.21875,1.4396477-0.6564455c0.3427734-0.4273434,0.514061-0.9464846,0.514061-1.5583982
	c0-0.6644535-0.1792946-1.1957035-0.5378914-1.5939455c-0.358593-0.3980465-0.8357391-0.5972652-1.4316406-0.5972652
	c-0.7277336,0-1.294529,0.3271484-1.700779,0.9808588l-2.0644531-0.0316401l1.0996094-6.4466801H44.2060547z"/>
<polygon points="9.2519217,4.1999998 13.3218451,4.1999998 8.2868452,15.7999954 4.1999998,15.7999954 "/>
<path d="M16.0023804,4.2000046h14.443655l-1.495575,3.4454651H18.6353722l-2.0482254,4.7090654h10.3195629l-1.4949036,3.4454651
	h-14.443819L16.0023804,4.2000046z"/>
</svg>
