<?xml version="1.0" encoding="utf-8"?>
<!-- Generator: Adobe Illustrator 19.2.1, SVG Export Plug-In . SVG Version: 6.00 Build 0)  -->
<svg version="1.1" id="Ebene_1" xmlns="http://www.w3.org/2000/svg" xmlns:xlink="http://www.w3.org/1999/xlink" x="0px" y="0px"
	 width="59px" height="20px" viewBox="0 0 59 20" enable-background="new 0 0 59 20" xml:space="preserve">
<path id="SN_5_" d="M4.2003255,11.9487543c-0.0324965,2.8597069,2.3722577,4.1270781,4.9394956,4.1270781
	c3.1521778,0,4.825757-1.5923386,4.825757-3.720871c0-2.6322308-2.5997353-3.1684265-3.4446478-3.3796549
	c-2.9084535-0.7474232-3.460897-0.8611612-3.460897-1.7548199c0-0.9749007,0.9424043-1.3161159,1.7548213-1.3161159
	c1.2186251,0,2.209774,0.3574634,2.2910156,1.7548208h2.4697475c0-2.6809769-2.2260227-3.7371185-4.6470251-3.7371185
	c-2.096036,0-4.3383069,1.1373837-4.3383069,3.5096414c0,2.177278,1.7385726,2.8434596,3.460896,3.2984138
	c1.7060757,0.4549532,3.4446487,0.6661816,3.4446487,1.917304c0,1.1861277-1.3648615,1.4461021-2.2585192,1.4461021
	c-1.3648605,0-2.5672383-0.6011887-2.5672383-2.1447802H4.2003255z M15.3606138,15.7996092h2.3885069V8.0329027h0.0324955
	l4.825758,7.7667065h2.5509892V4.1982946h-2.3885059v7.7829552h-0.0324955l-4.8420067-7.7829552h-2.5347414V15.7996092z"/>
<path d="M40.4215012,7.1048827H38.222477c-0.2056656-0.8910155-0.7119141-1.3367186-1.5187492-1.3367186
	c-0.8542976,0-1.460743,0.5248046-1.8193359,1.5740232c-0.1476593,0.4271483-0.266407,1.0732427-0.3560562,1.938086
	c0.3480453-0.4693356,0.7185555-0.8068361,1.1113281-1.0124998c0.3929672-0.2056646,0.8662109-0.3085938,1.4199219-0.3085938
	c1.0863266,0,1.9589844,0.3849611,2.6183586,1.1548824c0.6275406,0.7277346,0.9412117,1.6402349,0.9412117,2.7369146
	c0,1.3025389-0.421875,2.3494139-1.265625,3.1404295c-0.7593765,0.7119141-1.6716805,1.0677729-2.7369156,1.0677729
	c-1.365818,0-2.428318-0.5154295-3.1876945-1.5462885c-0.7593727-1.0310545-1.139061-2.4693365-1.139061-4.3150396
	c0-1.9722652,0.4060555-3.5173826,1.2181625-4.6353512c0.7857437-1.0810547,1.8587875-1.6216798,3.2193375-1.6216798
	c1.2814445,0,2.2623024,0.429883,2.9425774,1.289453C40.060173,5.7259765,40.3107567,6.3507814,40.4215012,7.1048827z
	 M36.5058746,9.7548828c-0.5537109,0-0.9939461,0.2320309-1.3209,0.6960936
	c-0.2955055,0.4113283-0.4429665,0.9017582-0.4429665,1.4712896c0,0.5642576,0.1501961,1.0572262,0.450779,1.4791012
	c0.3269539,0.4695311,0.7751961,0.7041016,1.3447266,0.7041016c0.5537109,0,0.9994164-0.2242184,1.3369141-0.6724606
	c0.3164062-0.421875,0.4746094-0.9201174,0.4746094-1.4949226c0-0.5642576-0.1423798-1.046875-0.4271469-1.4476557
	C37.5738449,10,37.1017723,9.7548828,36.5058746,9.7548828z"/>
</svg>
