<?xml version="1.0" encoding="utf-8"?>
<!-- Generator: Adobe Illustrator 19.2.1, SVG Export Plug-In . SVG Version: 6.00 Build 0)  -->
<svg version="1.1" id="Ebene_1" xmlns="http://www.w3.org/2000/svg" xmlns:xlink="http://www.w3.org/1999/xlink" x="0px" y="0px"
	 width="59px" height="20px" viewBox="0 0 59 20" enable-background="new 0 0 59 20" xml:space="preserve">
<path d="M36.6516495,12.8970385h2.1832008c0.1792984,0.8964844,0.6988297,1.3445311,1.5583992,1.3445311
	c0.485157,0,0.8792992-0.1646481,1.1826172-0.4943361c0.3031273-0.3294916,0.5365257-0.8423824,0.7000008-1.538476
	c0.1054688-0.4429693,0.1820297-0.9464846,0.2292976-1.5109377c-0.3531265,0.4957027-0.7156258,0.8478518-1.0875015,1.0560541
	c-0.3718758,0.2083988-0.8240242,0.3125-1.3566399,0.3125c-0.8492203,0-1.5873032-0.2478514-2.2148438-0.7435541
	c-0.4378891-0.3480473-0.7792969-0.7988281-1.0242195-1.3527346c-0.2453117-0.5535154-0.3679695-1.1546879-0.3679695-1.8035154
	c0-1.3023438,0.4457054-2.3570313,1.3367195-3.1640625c0.7646484-0.696094,1.6822281-1.0441408,2.7527351-1.0441408
	c0.6593742,0,1.2683601,0.1476564,1.827343,0.4429688c0.5589867,0.2955079,1.0283203,0.7148438,1.4080086,1.2578125
	c0.6697273,0.9650388,1.0044937,2.3203125,1.0044937,4.0658202c0,1.6136723-0.2953148,2.9900389-0.8859406,4.1291018
	c-0.7699203,1.4820309-1.935154,2.2226553-3.4960938,2.2226553c-1.0390625,0-1.8972626-0.2873039-2.5749969-0.8621082
	C37.1487198,14.640007,36.7571182,13.8673506,36.6516495,12.8970385z M40.4961815,5.9122725
	c-0.4957047,0-0.9150391,0.203125-1.2578125,0.6089845c-0.3429718,0.4113283-0.5140648,0.9335938-0.5140648,1.5664067
	c0,0.5113277,0.1238289,0.9648438,0.3716812,1.3605461c0.3373032,0.5429688,0.8119125,0.8146486,1.4238281,0.8146486
	c0.5537109,0,0.9966774-0.2214842,1.328907-0.6644526c0.3111305-0.4166021,0.4665985-0.9123049,0.4665985-1.4871101
	c0-0.6064448-0.1609344-1.1205072-0.4824219-1.5423822C41.4953995,6.1310225,41.0496941,5.9122725,40.4961815,5.9122725z"/>
<polygon points="9.2519217,4.1999998 13.3218451,4.1999998 8.2868452,15.7999954 4.1999998,15.7999954 "/>
<path d="M16.0023804,4.2000046h14.443655l-1.495575,3.4454651H18.6353722l-2.0482254,4.7090654h10.3195629l-1.4949036,3.4454651
	h-14.443819L16.0023804,4.2000046z"/>
</svg>
