<?xml version="1.0" encoding="utf-8"?>
<!-- Generator: Adobe Illustrator 21.1.0, SVG Export Plug-In . SVG Version: 6.00 Build 0)  -->
<svg version="1.1" id="Layer_1" xmlns="http://www.w3.org/2000/svg" xmlns:xlink="http://www.w3.org/1999/xlink" x="0px" y="0px"
	 viewBox="0 0 296 100" style="enable-background:new 0 0 296 100;" xml:space="preserve">
<path d="M222.5,20.2V30c-0.3,0.3-1.3,1.4-2.8,3.2c-2.5,2.9-4.6,6-6.4,9.4c-2,3.4-3.7,7.1-5,10.8c-2.6,8-4.2,16.3-4.5,24.6h-11.9
	c0.2-4.9,0.9-9.8,2.3-14.5c1.5-5.5,3.5-10.8,6-15.9c3.6-7.5,7.3-13.1,11-16.7h-27.3V20.2H222.5z M46.3,21h20.3L41.4,79H21L46.3,21z
	 M80,21h72.2l-7.5,17.2H93.2L82.9,61.8h51.6L127.1,79H54.8L80,21z"/>
</svg>
