<?xml version="1.0" encoding="utf-8"?>
<!-- Generator: Adobe Illustrator 19.2.1, SVG Export Plug-In . SVG Version: 6.00 Build 0)  -->
<svg version="1.1" id="Ebene_1" xmlns="http://www.w3.org/2000/svg" xmlns:xlink="http://www.w3.org/1999/xlink" x="0px" y="0px"
	 width="59px" height="20px" viewBox="0 0 59 20" enable-background="new 0 0 59 20" xml:space="preserve">
<path d="M3.9384766,4.1294808h3.7314453c1.078125,0,1.8457031,0.1435547,2.3037109,0.4296875
	c0.8222656,0.5097656,1.2333984,1.3764648,1.2333984,2.5991211c0,1.5249019-0.6298828,2.4360347-1.8896484,2.7324214
	c0.75,0.1196289,1.2460938,0.4267578,1.4912109,0.9213867c0.125,0.2651367,0.2070312,0.5541992,0.2460938,0.8662109
	c0.0390625,0.3125,0.0742188,0.9941406,0.1054688,2.0454102c0.015625,0.5258789,0.046875,0.8896484,0.09375,1.0927734
	s0.1503906,0.4448242,0.3115234,0.7260742H9.1455078c-0.109375-0.1875-0.1806641-0.425293-0.2148438-0.7143555
	c-0.0332031-0.2885742-0.0654297-0.9121094-0.0966797-1.8696289c-0.0214844-0.6293945-0.0576172-1.0668945-0.109375-1.3115234
	c-0.0527344-0.2446289-0.1513672-0.4448242-0.296875-0.6010742c-0.125-0.1298828-0.2783203-0.2182617-0.4609375-0.2651367
	c-0.1816406-0.046875-0.4599609-0.0703125-0.8349609-0.0703125H6.2265625v4.8320312H3.9384766V4.1294808z M6.2265625,5.8160043
	v3.2861323h0.8974609c0.5517578,0,0.9472656-0.0883789,1.1865234-0.2651367c0.3955078-0.2915039,0.59375-0.7705078,0.59375-1.436523
	c0-0.5620117-0.1396484-0.9667969-0.4179688-1.2138672S7.7539062,5.8160043,7.1240234,5.8160043H6.2265625z"/>
<path d="M12.3457031,4.1294808h6.3779297V6.018641h-4.0898438v2.6933589h3.8408203V10.56991h-3.8408203v3.0834961h4.2539062
	v1.8891602h-6.5419922V4.1294808z"/>
</svg>
