<?xml version="1.0" encoding="utf-8"?>
<!-- Generator: Adobe Illustrator 19.2.1, SVG Export Plug-In . SVG Version: 6.00 Build 0)  -->
<svg version="1.1" id="Ebene_1" xmlns="http://www.w3.org/2000/svg" xmlns:xlink="http://www.w3.org/1999/xlink" x="0px" y="0px"
	 width="59px" height="20px" viewBox="0 0 59 20" enable-background="new 0 0 59 20" xml:space="preserve">
<path id="SN_4_" d="M4.2003255,11.9487543c-0.0324965,2.8597069,2.3722577,4.1270781,4.9394956,4.1270781
	c3.1521778,0,4.825757-1.5923386,4.825757-3.720871c0-2.6322308-2.5997353-3.1684265-3.4446478-3.3796549
	c-2.9084535-0.7474232-3.460897-0.8611612-3.460897-1.7548199c0-0.9749007,0.9424043-1.3161159,1.7548213-1.3161159
	c1.2186251,0,2.209774,0.3574634,2.2910156,1.7548208h2.4697475c0-2.6809769-2.2260227-3.7371185-4.6470251-3.7371185
	c-2.096036,0-4.3383069,1.1373837-4.3383069,3.5096414c0,2.177278,1.7385726,2.8434596,3.460896,3.2984138
	c1.7060757,0.4549532,3.4446487,0.6661816,3.4446487,1.917304c0,1.1861277-1.3648615,1.4461021-2.2585192,1.4461021
	c-1.3648605,0-2.5672383-0.6011887-2.5672383-2.1447802H4.2003255z M15.3606138,15.7996092h2.3885069V8.0329027h0.0324955
	l4.825758,7.7667065h2.5509892V4.1982946h-2.3885059v7.7829552h-0.0324955l-4.8420067-7.7829552h-2.5347414V15.7996092z"/>
<path d="M39.9943504,4.0791993v2.0566406h-4.6591797l-0.4982414,2.6025386
	c0.5587883-0.5906248,1.273632-0.8859372,2.1435547-0.8859372c0.8542976,0,1.5980453,0.2292972,2.2308578,0.688086
	c0.9384766,0.6908207,1.407814,1.7402344,1.407814,3.148242c0,1.3816404-0.5009766,2.4757814-1.5027351,3.2828131
	c-0.780468,0.6328125-1.7140617,0.9492188-2.8003883,0.9492188c-1.2234383,0-2.2068367-0.3283205-2.9503937-0.9849615
	c-0.7435532-0.6564455-1.1363258-1.5435543-1.1785126-2.6617184h2.2701149
	c0.0369148,0.4060545,0.1687508,0.7513666,0.3955078,1.0361328c0.3531265,0.4484377,0.84375,0.6724606,1.4712906,0.6724606
	c0.6064453,0,1.0863266-0.21875,1.4396477-0.6564455c0.3427734-0.4273434,0.514061-0.9464836,0.514061-1.5583982
	c0-0.6644526-0.1792946-1.1957026-0.5378876-1.5939455c-0.3585968-0.3980465-0.835743-0.5972652-1.4316406-0.5972652
	c-0.7277374,0-1.2945328,0.3271484-1.7007828,0.9808598l-2.0644531-0.031641l1.0996094-6.4466796H39.9943504z"/>
</svg>
