<?xml version="1.0" encoding="utf-8"?>
<!-- Generator: Adobe Illustrator 19.2.1, SVG Export Plug-In . SVG Version: 6.00 Build 0)  -->
<svg version="1.1" id="Ebene_1" xmlns="http://www.w3.org/2000/svg" xmlns:xlink="http://www.w3.org/1999/xlink" x="0px" y="0px"
	 width="59px" height="20px" viewBox="0 0 59 20" enable-background="new 0 0 59 20" xml:space="preserve">
<path d="M42.4356461,4.0791993v11.5646477h-2.3097687V8.073926h-0.8226547h-0.8226547h-0.7989273h-0.2768555V6.3969727
	C37.9690437,6.3811522,38.4291,6.3231444,38.7851562,6.222949c0.3558578-0.1001949,0.6814461-0.2636719,0.9768562-0.4904294
	c0.4271469-0.3269534,0.71455-0.8781252,0.8622055-1.6533203H42.4356461z"/>
<path d="M53.2488289,4.0791993v2.0566406h-4.6590843l-0.4983368,2.6025386
	c0.5588837-0.5906248,1.2735329-0.8859372,2.1436501-0.8859372c0.8542976,0,1.5978508,0.2292972,2.2306633,0.688086
	c0.9385757,0.6910152,1.4080086,1.7402344,1.4080086,3.148242c0,1.3816404-0.5010719,2.4759769-1.5029297,3.2828131
	c-0.780468,0.6328125-1.7138672,0.9492188-2.8001938,0.9492188c-1.2234383,0-2.2069359-0.3283205-2.950489-0.9849615
	c-0.7435532-0.6564455-1.136425-1.5435543-1.1786118-2.6617184h2.2702141
	c0.0368156,0.40625,0.1687508,0.7515621,0.3955078,1.0363283c0.3532219,0.4482422,0.8436508,0.6722651,1.4712868,0.6722651
	c0.6063499,0,1.0863304-0.21875,1.4396515-0.6564455c0.3427734-0.4271479,0.5141602-0.9464836,0.5141602-1.5583982
	c0-0.6644526-0.1792984-1.1957026-0.5378914-1.5939455c-0.3586922-0.3980465-0.8358421-0.5970697-1.4317398-0.5970697
	c-0.7277336,0-1.2946281,0.3269529-1.7006836,0.9808588l-2.0645485-0.0316401l1.0995102-6.4468751H53.2488289z"/>
<polygon points="9.2512569,4.1999998 13.3211823,4.1999998 8.2861805,15.8000002 4.1993332,15.8000002 "/>
<path d="M26.0686073,12.3662539c0.3677654,0.000001,0.7008343-0.2171707,0.8491745-0.553688l3.3034401-7.6125569H16.0382843
	l-5.0350437,11.5999908h4.0520592l3.811655-8.6903973h6.01404l-1.2054653,2.7754579l-5.2436504-0.019022l4.2311935,5.9339619
	h4.6128712l-3.13451-3.4337502L26.0686073,12.3662539z"/>
</svg>
