<?xml version="1.0" encoding="utf-8"?>
<!-- Generator: Adobe Illustrator 19.2.1, SVG Export Plug-In . SVG Version: 6.00 Build 0)  -->
<svg version="1.1" id="Ebene_1" xmlns="http://www.w3.org/2000/svg" xmlns:xlink="http://www.w3.org/1999/xlink" x="0px" y="0px"
	 width="59px" height="20px" viewBox="0 0 59 20" enable-background="new 0 0 59 20" xml:space="preserve">
<path id="BEX_1_" d="M4.1999998,15.8000002L6.6291952,4.1999998h3.9642563c0.8598499,0,1.4612083,0.0263758,1.8040934,0.0791273
	c0.5697155,0.0791268,1.0523844,0.2373791,1.4480219,0.474761c0.3956356,0.2373819,0.6963148,0.5538864,0.9020462,0.949523
	c0.2057304,0.3956356,0.3085947,0.833467,0.3085947,1.3135056c0,0.643568-0.1793528,1.201407-0.5380621,1.673533
	c-0.3587112,0.472126-0.9125938,0.8295135-1.6616659,1.0721693c0.5960932,0.1635303,1.0616179,0.454978,1.3965893,0.8743525
	c0.3349733,0.4193735,0.5024557,0.8928118,0.5024557,1.4203281c0,0.6963186-0.1978149,1.3570213-0.5934505,1.9821272
	c-0.3956366,0.6251059-0.9416065,1.0748053-1.6379271,1.3491135c-0.6963196,0.2743073-1.6484699,0.4114599-2.8564806,0.4114599
	H4.1999998z M8.0297413,8.8843117H9.849659c0.8176479,0,1.4058189-0.0580263,1.7645292-0.1740799
	s0.6277399-0.3059549,0.8070946-0.5697136c0.1793547-0.2637572,0.2690306-0.5459738,0.2690306-0.8466573
	c0-0.2954087-0.0844011-0.5380616-0.2532053-0.7279673c-0.1688051-0.1899056-0.4088202-0.3165073-0.7200556-0.3798089
	c-0.1740789-0.0316515-0.5934477-0.0474763-1.2581167-0.0474763H8.6073666L8.0297413,8.8843117z M6.9773531,13.9326057h2.3025923
	c0.965353,0,1.6128683-0.0619822,1.942565-0.1859474c0.3296976-0.1239672,0.5934496-0.3283758,0.7912683-0.6132336
	s0.2967262-0.5855379,0.2967262-0.9020472c0-0.3850861-0.1424265-0.7029095-0.4272852-0.9534788
	c-0.2848577-0.2505693-0.7596149-0.3758526-1.424284-0.3758526h-2.848567L6.9773531,13.9326057z M15.3920212,15.8000002
	l2.4212837-11.6000004h8.6010914L26.010849,6.1386085h-6.211462l-0.5538864,2.6349254h6.0057316L24.847683,10.712142h-6.0057297
	l-0.7279663,3.14925h6.7495213l-0.411459,1.9386082H15.3920212z M27.6047802,15.8000002h-3.085947L29.63834,9.9287853
	l-2.8802185-5.7287855h2.4924984l1.1315136,2.1759892c0.0369263,0.0791278,0.2954044,0.6145477,0.775444,1.606276
	c0.0316525,0.0527511,0.0659389,0.1239648,0.1028633,0.2136426c0.6435699-0.7859983,1.1842651-1.4295568,1.6221008-1.9306965
	l1.8278313-2.0652113h2.9989128l-5.3094177,6.1085949l2.8564796,5.4914055h-2.6903114l-0.8703957-1.748704
	c-0.4536629-0.923152-0.754343-1.5851736-0.9020462-1.9860849c-0.2057323,0.3112335-0.7358761,0.954793-1.5904503,1.9306965
	L27.6047802,15.8000002z"/>
</svg>
