<?xml version="1.0" encoding="utf-8"?>
<!-- Generator: Adobe Illustrator 19.2.1, SVG Export Plug-In . SVG Version: 6.00 Build 0)  -->
<svg version="1.1" id="Ebene_1" xmlns="http://www.w3.org/2000/svg" xmlns:xlink="http://www.w3.org/1999/xlink" x="0px" y="0px"
	 width="59px" height="20px" viewBox="0 0 59 20" enable-background="new 0 0 59 20" xml:space="preserve">
<polygon points="23,4 23,12 22.7373047,12 17.8953857,4 15,4 15,16 18,16 18,8 17.7816162,8 22.6074219,16 25,16 25,4 "/>
<path d="M10.5209961,8.9752808C7.6125488,8.2278442,7.0600586,8.1141357,7.0600586,7.220459
	c0-0.9749146,0.9423828-1.1456909,1.7548828-1.1456909C10.0334473,6.0747681,11.0246582,6,11.105957,8h2.4697266
	c0-3-2.2260742-3.9075317-4.6470947-3.9075317c-2.0960693,0-4.3382568,1.0521851-4.3382568,3.4244385
	c0,2.1772461,1.7385254,2.8008423,3.4609375,3.2557983c1.7060547,0.4549561,3.4445801,0.6448975,3.4445801,1.8959961
	c0,1.1861572-1.3648682,1.4610901-2.2585449,1.4610901C7.8724365,14.1297913,6.6700439,13,6.6700439,12H4.2003174
	c-0.0324707,3,2.3721924,4.1014404,4.9395752,4.1014404c3.1520996,0,4.8256836-1.6051636,4.8256836-3.7337036
	C13.9655762,9.7355347,11.3658447,9.1865234,10.5209961,8.9752808z"/>
<path d="M37.1148605,4.2176757v11.5646477h-2.3097687V8.2123051h-0.8226547h-0.8226547h-0.7990265h-0.2767563V6.5353518
	c0.5642586-0.0158205,1.0244141-0.0738282,1.3802719-0.1740236c0.3558617-0.1000977,0.6816406-0.2636719,0.9769554-0.4904299
	c0.4271469-0.3269529,0.7144508-0.878027,0.8621101-1.6532226H37.1148605z"/>
</svg>
