<?xml version="1.0" encoding="utf-8"?>
<!-- Generator: Adobe Illustrator 19.2.1, SVG Export Plug-In . SVG Version: 6.00 Build 0)  -->
<svg version="1.1" id="Ebene_1" xmlns="http://www.w3.org/2000/svg" xmlns:xlink="http://www.w3.org/1999/xlink" x="0px" y="0px"
	 width="59px" height="20px" viewBox="0 0 59 20" enable-background="new 0 0 59 20" xml:space="preserve">
<path d="M44.8166008,13.8640623v2.0566406h-8.3293953c0-0.6275387,0.1014671-1.225976,0.3045921-1.7955074
	c0.2029305-0.5695314,0.4890633-1.0599613,0.8582039-1.4712896c0.2847633-0.3164062,0.6182594-0.625,1.0005836-0.9255857
	s1.1430664-0.8515625,2.2821312-1.6531248c0.5537109-0.3849611,0.9413071-0.7435551,1.1627922-1.0757809
	c0.2214851-0.3322268,0.3322258-0.7171879,0.3322258-1.1548834c0-0.5062499-0.149025-0.9162107-0.4468765-1.2300777
	c-0.2980461-0.3136721-0.6895485-0.4707031-1.1747055-0.4707031c-1.1917953,0-1.8062515,0.8570309-1.8430672,2.5708981h-2.2227516
	c0-0.1107416,0-0.195117,0-0.2531252c0-1.4027338,0.3927727-2.4890623,1.1786118-3.2589841
	c0.7645493-0.7488279,1.7533188-1.1232419,2.9663086-1.1232419c1.0757828,0,1.9748039,0.3058591,2.6973648,0.9175777
	c0.7857399,0.6644535,1.1786118,1.5582032,1.1786118,2.6814456c0,0.9808593-0.3137703,1.8246093-0.9413071,2.5312495
	c-0.2056656,0.2322273-0.398243,0.4179688-0.5774422,0.5576172c-0.1792984,0.1398439-0.6513672,0.4759769-1.4159203,1.0085945
	c-0.7277336,0.5062494-1.2485352,0.8939447-1.5623016,1.1628904c-0.3137703,0.2689447-0.6050797,0.5773439-0.8740234,0.9253902
	H44.8166008z"/>
<path d="M53.5415039,4.3560548v1.9617186c-0.063282,0.0685549-0.2504883,0.2822266-0.5616226,0.6408205
	c-0.4324188,0.4957032-0.8622055,1.1191401-1.2893524,1.8707032c-0.4271507,0.7513666-0.7593765,1.4726562-0.9966812,2.163476
	c-0.5010757,1.4396486-0.8041992,3.0822268-0.909668,4.9279299h-2.3888664
	c0.0158195-0.8701172,0.1673813-1.8351564,0.4547844-2.8951168s0.6842766-2.1199217,1.1905289-3.179883
	c0.7224579-1.4976559,1.4554672-2.6128907,2.1990204-3.3458986h-5.4580078V4.3560548H53.5415039z"/>
<polygon points="9.2512569,4.1999998 13.3211823,4.1999998 8.2861805,15.8000002 4.1993332,15.8000002 "/>
<path d="M26.0686073,12.3662539c0.3677654,0.000001,0.7008343-0.2171707,0.8491745-0.553688l3.3034401-7.6125569H16.0382843
	l-5.0350437,11.5999908h4.0520592l3.811655-8.6903973h6.01404l-1.2054653,2.7754579l-5.2436504-0.019022l4.2311935,5.9339619
	h4.6128712l-3.13451-3.4337502L26.0686073,12.3662539z"/>
</svg>
