<?xml version="1.0" encoding="utf-8"?>
<!-- Generator: Adobe Illustrator 19.2.1, SVG Export Plug-In . SVG Version: 6.00 Build 0)  -->
<svg version="1.1" id="Ebene_1" xmlns="http://www.w3.org/2000/svg" xmlns:xlink="http://www.w3.org/1999/xlink" x="0px" y="0px"
	 width="59px" height="20px" viewBox="0 0 59 20" enable-background="new 0 0 59 20" xml:space="preserve">
<path d="M44.6188469,7.1226563h-2.1990242c-0.2056618-0.891211-0.7119141-1.3369141-1.5187492-1.3369141
	c-0.8542976,0-1.460743,0.5248046-1.8193359,1.5740232c-0.1476555,0.4273438-0.2663078,1.0732427-0.355957,1.938086
	c0.3480492-0.4693356,0.7184563-0.8068361,1.1113281-1.0124998c0.3928719-0.2056646,0.8662109-0.3083987,1.4199219-0.3083987
	c1.0863304,0,1.9589844,0.3847661,2.6182632,1.1546874c0.6275368,0.7277346,0.9413071,1.6402349,0.9413071,2.7371092
	c0,1.3023443-0.4219704,2.3492193-1.265625,3.1402349c-0.7593727,0.7119141-1.6717758,1.0679693-2.7369118,1.0679693
	c-1.3658218,0-2.428421-0.515626-3.1877937-1.5464849c-0.7593765-1.0308599-1.1390648-2.469141-1.1390648-4.3150396
	c0-1.9722652,0.4060555-3.5173826,1.2181664-4.6353512c0.7857399-1.0808592,1.8588867-1.6214843,3.2194328-1.6214843
	c1.2814445,0,2.2623062,0.4296875,2.9425774,1.2892575C44.257618,5.7435546,44.5081062,6.3683596,44.6188469,7.1226563z
	 M40.7033195,9.7724609c-0.5537109,0-0.9940414,0.2322264-1.3209953,0.6960936
	c-0.2954102,0.4113283-0.4429703,0.9017582-0.4429703,1.4712896c0,0.5644531,0.1502953,1.0574217,0.450882,1.4792967
	c0.3269501,0.4693356,0.7751923,0.7039061,1.3447266,0.7039061c0.5537109,0,0.9993134-0.2242184,1.3368149-0.672266
	c0.3164062-0.421875,0.4746094-0.9203119,0.4746094-1.4951172c0-0.5642576-0.1423836-1.0466795-0.4271469-1.4474602
	C41.7711906,10.0175781,41.2992172,9.7724609,40.7033195,9.7724609z"/>
<path d="M53.2488289,4.2353516v2.0566406h-4.6590843l-0.4983368,2.6025391
	c0.5588837-0.5906248,1.2735329-0.8859377,2.1436501-0.8859377c0.8542976,0,1.5978508,0.2292967,2.2306633,0.6880865
	c0.9385757,0.6908197,1.4080086,1.7402344,1.4080086,3.148242c0,1.3816404-0.5010719,2.4757814-1.5029297,3.2828121
	c-0.780468,0.6328125-1.7138672,0.9492197-2.8001938,0.9492197c-1.2234383,0-2.2069359-0.3283215-2.950489-0.9849615
	c-0.7435532-0.6564455-1.136425-1.5435553-1.1786118-2.6617193h2.2702141
	c0.0368156,0.4060555,0.1687508,0.7513676,0.3955078,1.0361328c0.3532219,0.4484377,0.8436508,0.6724615,1.4712868,0.6724615
	c0.6063499,0,1.0863304-0.21875,1.4396515-0.6564455c0.3427734-0.4273434,0.5141602-0.9464846,0.5141602-1.5583982
	c0-0.6644535-0.1792984-1.1957035-0.5378914-1.5939455c-0.3586922-0.3980465-0.8358421-0.5972652-1.4317398-0.5972652
	c-0.7277336,0-1.2946281,0.3271484-1.7006836,0.9808588l-2.0645485-0.0316401l1.0995102-6.4466801H53.2488289z"/>
<polygon points="9.2512569,4.1999998 13.3211823,4.1999998 8.2861805,15.8000002 4.1993332,15.8000002 "/>
<path d="M26.0686073,12.3662539c0.3677654,0.000001,0.7008343-0.2171707,0.8491745-0.553688l3.3034401-7.6125569H16.0382843
	l-5.0350437,11.5999908h4.0520592l3.811655-8.6903973h6.01404l-1.2054653,2.7754579l-5.2436504-0.019022l4.2311935,5.9339619
	h4.6128712l-3.13451-3.4337502L26.0686073,12.3662539z"/>
</svg>
