<?xml version="1.0" encoding="utf-8"?>
<!-- Generator: Adobe Illustrator 19.2.1, SVG Export Plug-In . SVG Version: 6.00 Build 0)  -->
<svg version="1.1" id="Ebene_1" xmlns="http://www.w3.org/2000/svg" xmlns:xlink="http://www.w3.org/1999/xlink" x="0px" y="0px"
	 width="59px" height="20px" viewBox="0 0 59 20" enable-background="new 0 0 59 20" xml:space="preserve">
<path d="M42.4356461,4.2175779v11.5646486h-2.3097687V8.2123051h-0.8226547h-0.8226547h-0.7989273h-0.2768555V6.5353518
	c0.5642586-0.0158205,1.0243149-0.0738282,1.3803711-0.1740236c0.3558578-0.1001954,0.6814461-0.2636719,0.9768562-0.4904299
	c0.4271469-0.3269529,0.71455-0.8781247,0.8622055-1.6533203H42.4356461z"/>
<path d="M53.6285172,7.1048827H51.429493c-0.2056656-0.891211-0.7119141-1.3369141-1.5187492-1.3369141
	c-0.8542976,0-1.460743,0.5248046-1.8193359,1.5742188c-0.1476593,0.4271483-0.2663116,1.0730472-0.355957,1.9378905
	c0.3480453-0.4693356,0.7184563-0.8068361,1.1113281-1.0124998c0.392868-0.2056637,0.8662109-0.3083982,1.4199219-0.3083982
	c1.0863266,0,1.9589844,0.3849611,2.6182594,1.1548824c0.6275368,0.7277346,0.9413109,1.6400394,0.9413109,2.7369146
	c0,1.3025389-0.4219742,2.3492184-1.265625,3.140234c-0.7593765,0.7119141-1.6717796,1.0679684-2.7369156,1.0679684
	c-1.3658218,0-2.4284172-0.5154295-3.1877937-1.546484c-0.7593727-1.030859-1.139061-2.469141-1.139061-4.3150387
	c0-1.9722662,0.4060555-3.5171881,1.2181625-4.6353521c0.7857437-1.0808592,1.8588867-1.6214843,3.2194328-1.6214843
	c1.2814484,0,2.2623062,0.429883,2.9425812,1.289258C53.2672844,5.7257814,53.5177727,6.3507814,53.6285172,7.1048827z
	 M49.7129898,9.7546873c-0.5537109,0-0.9940453,0.2322264-1.3209991,0.6960936
	c-0.2954102,0.4113283-0.4429665,0.9017582-0.4429665,1.4712896c0,0.5644531,0.1502914,1.0574217,0.4508781,1.4792967
	c0.3269539,0.4693356,0.7751961,0.7039061,1.3447266,0.7039061c0.5537109,0,0.9993172-0.2240229,1.3368149-0.6722651
	c0.3164062-0.421875,0.4746094-0.9203129,0.4746094-1.4951172c0-0.5642586-0.1423798-1.0466805-0.4271469-1.4474611
	C50.7808609,10,50.3088875,9.7546873,49.7129898,9.7546873z"/>
<polygon points="9.2512569,4.1999998 13.3211823,4.1999998 8.2861805,15.8000002 4.1993332,15.8000002 "/>
<path d="M26.0686073,12.3662539c0.3677654,0.000001,0.7008343-0.2171707,0.8491745-0.553688l3.3034401-7.6125569H16.0382843
	l-5.0350437,11.5999908h4.0520592l3.811655-8.6903973h6.01404l-1.2054653,2.7754579l-5.2436504-0.019022l4.2311935,5.9339619
	h4.6128712l-3.13451-3.4337502L26.0686073,12.3662539z"/>
</svg>
