<?xml version="1.0" encoding="utf-8"?>
<!-- Generator: Adobe Illustrator 19.2.1, SVG Export Plug-In . SVG Version: 6.00 Build 0)  -->
<svg version="1.1" id="Ebene_1" xmlns="http://www.w3.org/2000/svg" xmlns:xlink="http://www.w3.org/1999/xlink" x="0px" y="0px"
	 width="59px" height="20px" viewBox="0 0 59 20" enable-background="new 0 0 59 20" xml:space="preserve">
<path id="GEX_1_" d="M9.8891602,9.6050463h5.1906643l-1.0444632,4.977025
	c-0.6119099,0.3956318-1.3622808,0.7305946-2.2511339,1.0049c-0.8888531,0.2743044-1.794836,0.4114552-2.7179785,0.4114552
	c-1.4348254,0-2.5346656-0.3244133-3.2995543-0.9732504c-1.0444679-0.8862152-1.5666947-2.170681-1.5666947-3.8534355
	c0-1.12887,0.2241883-2.210247,0.6725712-3.2441664c0.5380597-1.2449217,1.3029366-2.2102494,2.2946539-2.8960118
	c0.9917173-0.6857615,2.1574955-1.0286374,3.4973698-1.0286374c1.3398724,0,2.4146566,0.3112259,3.2243843,0.9336867
	c0.8097267,0.6224608,1.3464594,1.5297637,1.6102142,2.7219338l-2.2234411,0.2532039
	c-0.195178-0.6541119-0.5103607-1.1473255-0.9455557-1.4796567c-0.435195-0.3323307-0.9824781-0.4984937-1.6418648-0.4984937
	c-0.7701626,0-1.4770155,0.2004504-2.1205759,0.6013579C7.9241939,6.935864,7.4204302,7.5556784,7.0564489,8.3944178
	c-0.3639817,0.8387394-0.54597,1.7539549-0.54597,2.7456722c0,0.9758921,0.2215509,1.6972504,0.664659,2.1640959
	c0.4431076,0.4668455,1.0919337,0.7002659,1.9464993,0.7002659c0.5116844,0,1.0365477-0.0725317,1.5746078-0.2175961
	c0.5380592-0.1450663,1.0022602-0.3178234,1.3926172-0.5182762l0.3560667-1.724947H9.4856167L9.8891602,9.6050463z
	 M15.5105867,15.8006115l2.4212561-11.5998726h8.600996l-0.4035416,1.9385872h-6.2113914l-0.5538826,2.6348958h6.0056648
	l-0.4035435,1.9385862h-6.0056629l-0.7279587,3.1492157h6.7494469l-0.4114552,1.9385872H15.5105867z M27.7232113,15.8006115
	h-3.0859146l5.1194515-5.87115L26.876564,4.2007394h2.492466l1.1315022,2.1759653
	c0.0369263,0.0791264,0.2954025,0.6145406,0.7754364,1.6062574c0.0316505,0.0527511,0.0659389,0.1239638,0.1028633,0.2136407
	c0.6435604-0.7859888,1.1842518-1.4295406,1.6220837-1.9306741l1.8278122-2.0651894h2.9988708l-5.3093529,6.1085267
	l2.8564491,5.4913454h-2.6902847l-0.8703842-1.7486849c-0.4536591-0.9231415-0.7543335-1.5851555-0.9020386-1.986062
	c-0.2057285,0.3112297-0.7358665,0.9547815-1.5904312,1.9306746L27.7232113,15.8006115z"/>
</svg>
