<?xml version="1.0" encoding="utf-8"?>
<!-- Generator: Adobe Illustrator 19.2.1, SVG Export Plug-In . SVG Version: 6.00 Build 0)  -->
<svg version="1.1" id="Ebene_1" xmlns="http://www.w3.org/2000/svg" xmlns:xlink="http://www.w3.org/1999/xlink" x="0px" y="0px"
	 width="59px" height="20px" viewBox="0 0 59 20" enable-background="new 0 0 59 20" xml:space="preserve">
<path d="M44.4986954,4.235414v1.9617186c-0.063282,0.0685549-0.2505875,0.2820315-0.5617218,0.640625
	c-0.4324188,0.4957032-0.8621063,1.1193361-1.289257,1.8708987c-0.4271469,0.7513666-0.7593727,1.4724607-0.9966774,2.1632814
	c-0.5011749,1.4396477-0.8042984,3.0824213-0.9097672,4.9281244h-2.3888664
	c0.0158195-0.8701172,0.1673813-1.8351564,0.4548836-2.8951168c0.2873039-1.0599613,0.6841774-2.1199217,1.1904297-3.179883
	c0.7224579-1.4976559,1.4554672-2.6130857,2.1990204-3.3460937h-5.4580078V4.235414H44.4986954z"/>
<polygon points="9.2519217,4.1999998 13.3218451,4.1999998 8.2868452,15.7999954 4.1999998,15.7999954 "/>
<path d="M16.0023804,4.2000046h14.443655l-1.495575,3.4454651H18.6353722l-2.0482254,4.7090654h10.3195629l-1.4949036,3.4454651
	h-14.443819L16.0023804,4.2000046z"/>
</svg>
