<?xml version="1.0" encoding="utf-8"?>
<!-- Generator: Adobe Illustrator 19.2.1, SVG Export Plug-In . SVG Version: 6.00 Build 0)  -->
<svg version="1.1" id="Ebene_1" xmlns="http://www.w3.org/2000/svg" xmlns:xlink="http://www.w3.org/1999/xlink" x="0px" y="0px"
	 width="59px" height="20px" viewBox="0 0 59 20" enable-background="new 0 0 59 20" xml:space="preserve">
<path d="M42.4026718,4.2351069v11.5648441h-2.3097687v-7.570117h-0.8226547h-0.8226547h-0.7990265h-0.2767563V6.5528803
	c0.5642586-0.01582,1.0242195-0.0738282,1.3802719-0.1740232c0.3558617-0.1000004,0.6814461-0.2636719,0.9769554-0.4904299
	c0.4271469-0.3269529,0.7144508-0.8779297,0.8621101-1.6533203H42.4026718z"/>
<path d="M50.1163406,4.2351069v11.5648441h-2.3097649v-7.570117h-0.8226547h-0.8226585h-0.7990227h-0.2767563V6.5528803
	c0.5642586-0.01582,1.0242195-0.0738282,1.3802719-0.1740232c0.3558617-0.1000004,0.6814461-0.2636719,0.9769554-0.4904299
	c0.4271469-0.3269529,0.7144508-0.8779297,0.8621063-1.6533203H50.1163406z"/>
<polygon points="9.2519217,4.1999998 13.3218451,4.1999998 8.2868452,15.7999954 4.1999998,15.7999954 "/>
<path d="M16.0023804,4.2000046h14.443655l-1.495575,3.4454651H18.6353722l-2.0482254,4.7090654h10.3195629l-1.4949036,3.4454651
	h-14.443819L16.0023804,4.2000046z"/>
</svg>
