<?xml version="1.0" encoding="utf-8"?>
<!-- Generator: Adobe Illustrator 19.2.1, SVG Export Plug-In . SVG Version: 6.00 Build 0)  -->
<svg version="1.1" id="Ebene_1" xmlns="http://www.w3.org/2000/svg" xmlns:xlink="http://www.w3.org/1999/xlink" x="0px" y="0px"
	 width="59px" height="20px" viewBox="0 0 59 20" enable-background="new 0 0 59 20" xml:space="preserve">
<path d="M42.4356461,4.2176757v11.5646477h-2.3097687V8.2124023h-0.8226547h-0.8226547h-0.7989273h-0.2768555V6.535449
	c0.5642586-0.01582,1.0243149-0.0738277,1.3803711-0.1740232c0.3558578-0.1001954,0.6814461-0.2636719,0.9768562-0.4904299
	c0.4271469-0.3269529,0.71455-0.8781247,0.8622055-1.6533203H42.4356461z"/>
<path d="M53.5415039,4.2176757v1.961719c-0.063282,0.0685544-0.2504883,0.2822266-0.5616226,0.64082
	c-0.4324188,0.4957032-0.8622055,1.1191406-1.2893524,1.8707032c-0.4271507,0.7513676-0.7593765,1.4726562-0.9966812,2.1634769
	c-0.5010757,1.4396477-0.8041992,3.0822258-0.909668,4.9279289h-2.3888664
	c0.0158195-0.8701172,0.1673813-1.8351555,0.4547844-2.8951168c0.2873993-1.0599613,0.6842766-2.1199217,1.1905289-3.179883
	c0.7224579-1.4976559,1.4554672-2.6128902,2.1990204-3.3458982h-5.4580078V4.2176757H53.5415039z"/>
<polygon points="9.2512569,4.1999998 13.3211823,4.1999998 8.2861805,15.8000002 4.1993332,15.8000002 "/>
<path d="M26.0686073,12.3662539c0.3677654,0.000001,0.7008343-0.2171707,0.8491745-0.553688l3.3034401-7.6125569H16.0382843
	l-5.0350437,11.5999908h4.0520592l3.811655-8.6903973h6.01404l-1.2054653,2.7754579l-5.2436504-0.019022l4.2311935,5.9339619
	h4.6128712l-3.13451-3.4337502L26.0686073,12.3662539z"/>
</svg>
