<?xml version="1.0" encoding="utf-8"?>
<!-- Generator: Adobe Illustrator 19.2.1, SVG Export Plug-In . SVG Version: 6.00 Build 0)  -->
<svg version="1.1" id="Ebene_1" xmlns="http://www.w3.org/2000/svg" xmlns:xlink="http://www.w3.org/1999/xlink" x="0px" y="0px"
	 width="59px" height="20px" viewBox="0 0 59 20" enable-background="new 0 0 59 20" xml:space="preserve">
<path id="_x201C__1_" d="M6.6420808,4.2021494h2.425468L6.6254673,15.7978783H4.1999998L6.6420808,4.2021494z M18.918932,6.5113273
	c-0.3322563-0.2104297-0.70327-0.3765554-1.1130543-0.498383c-0.4097843-0.1218286-0.902626-0.1827412-1.4785385-0.1827412
	c-1.306881,0-2.3756256,0.4263906-3.2062693,1.2791853c-0.8306446,0.8527946-1.2459593,1.9547644-1.2459593,3.3059454
	c0,1.1075249,0.3101015,2.0101442,0.930315,2.7078848c0.6202145,0.6977406,1.4231577,1.046607,2.4088554,1.046607
	c0.3987083,0,0.7752619-0.049839,1.1296692-0.1495152c0.3544083-0.099678,0.7807999-0.2879543,1.2791862-0.5648365
	l-0.3654823,2.2261152c-0.1550522,0.033226-0.3710175,0.0775261-0.6478996,0.1329021
	c-0.2768803,0.055377-0.5509892,0.0996771-0.8223324,0.1329021c-0.2713432,0.033226-0.6340523,0.0498381-1.0881376,0.0498381
	c-1.6391363,0-2.9238472-0.4817657-3.8541679-1.4453135c-0.9303207-0.9635458-1.3954744-2.3036318-1.3954744-4.0202942
	c0-1.9824696,0.6091299-3.5662074,1.8274078-4.7512589s2.8573895-1.7775688,4.9173851-1.7775688
	c0.6977425,0,1.2653389,0.0415311,1.7028122,0.1245956c0.4374714,0.0830646,0.7364998,0.1495152,0.897089,0.1993532
	c0.1605911,0.049839,0.3959389,0.1301336,0.7060452,0.2408862L18.918932,6.5113273z M21.3610153,4.2021494h6.8278561
	l-0.3488693,1.8274074h-4.5352898l-0.5980606,2.8574004h4.0535202l-0.3654823,1.8274069h-4.0701332l-0.6811237,3.2561073h4.5851288
	l-0.3987064,1.8274069h-6.910923L21.3610153,4.2021494z"/>
</svg>
