<?xml version="1.0" encoding="utf-8"?>
<!-- Generator: Adobe Illustrator 19.2.1, SVG Export Plug-In . SVG Version: 6.00 Build 0)  -->
<svg version="1.1" id="Ebene_1" xmlns="http://www.w3.org/2000/svg" xmlns:xlink="http://www.w3.org/1999/xlink" x="0px" y="0px"
	 width="59px" height="20px" viewBox="0 0 59 20" enable-background="new 0 0 59 20" xml:space="preserve">
<path d="M36.6962204,7.8798828c0.0265617-0.9492188,0.2611313-1.7453127,0.7041016-2.3886719
	c0.7169914-1.0335937,1.7955055-1.5503907,3.2353516-1.5503907c1.1074219,0,2.0011711,0.2820315,2.6814423,0.8462892
	c0.7330093,0.6119142,1.0994148,1.4029298,1.0994148,2.3730469c0,0.5802736-0.1437492,1.0796871-0.4308586,1.4990234
	c-0.2874985,0.4191408-0.6765633,0.702734-1.1667976,0.8503904c0.6220703,0.1421881,1.1138687,0.4585943,1.4750023,0.9492188
	c0.3613281,0.4902344,0.5419922,1.0835943,0.5419922,1.7796879c0,1.1443357-0.4220734,2.0804682-1.265625,2.8082027
	c-0.7804718,0.6750002-1.7666016,1.0124998-2.9584007,1.0124998c-1.2921867,0-2.3164062-0.3718748-3.0730476-1.1154289
	c-0.7568359-0.7435551-1.1351547-1.7482424-1.1351547-3.0138674c0-0.0261717,0-0.0761719,0-0.1501951h2.2226562
	c0,0.7119141,0.1687508,1.2617188,0.5062485,1.6492186c0.3375015,0.3876953,0.814846,0.5814447,1.431839,0.5814447
	c0.6169891,0,1.0915985-0.1820307,1.4238281-0.5457029c0.3056641-0.3429689,0.458786-0.7515621,0.458786-1.2261715
	c0-0.5695314-0.1951141-1.0203123-0.58535-1.3527346c-0.3216782-0.2740231-0.8173828-0.4113283-1.4871101-0.4113283
	c-0.1898422,0-0.3771477,0.0107422-0.5615234,0.031641V8.8054686c0.1371117,0.0107422,0.2687492,0.0158205,0.3953133,0.0158205
	c1.328907,0,1.9933586-0.4929686,1.9933586-1.4792967c0-0.4322267-0.1449203-0.781641-0.4349594-1.0480471
	c-0.2900391-0.266211-0.6724625-0.3994141-1.1470718-0.3994141c-0.5429688,0-0.9623032,0.1689453-1.257618,0.5062499
	c-0.2955055,0.3375001-0.4537086,0.8306642-0.4746094,1.4791017H36.6962204z"/>
<polygon points="9.2489214,4.1999998 13.3188457,4.1999998 8.2838449,15.7999954 4.197,15.7999954 "/>
<path d="M15.9993801,4.2000046h14.443655l-1.495573,3.4454651H18.6323719l-2.0482254,4.7090654h10.3195629l-1.4949036,3.4454651
	h-14.443819L15.9993801,4.2000046z"/>
</svg>
