<?xml version="1.0" encoding="utf-8"?>
<!-- Generator: Adobe Illustrator 19.2.1, SVG Export Plug-In . SVG Version: 6.00 Build 0)  -->
<svg version="1.1" id="Ebene_1" xmlns="http://www.w3.org/2000/svg" xmlns:xlink="http://www.w3.org/1999/xlink" x="0px" y="0px"
	 width="59px" height="20px" viewBox="0 0 59 20" enable-background="new 0 0 59 20" xml:space="preserve">
<polygon fill-rule="evenodd" clip-rule="evenodd" points="37.8383598,4.2403846 34.5434456,12.7969866 29.7253551,12.7969866 
	30.1682796,11.4954367 27.0670967,11.4954367 25.3501892,15.7596149 36.730854,15.7596149 40.9674568,4.2403846 "/>
<path fill-rule="evenodd" clip-rule="evenodd" d="M26.1969795,4.2403846l-2.833374,6.8081326l-0.2638359,0.5804968
	c-0.0604763,0.1043358-0.1043282,0.1860771-0.1335773,0.2455568c-0.0295677,0.0594778-0.0604744,0.1096535-0.0970268,0.1468687
	c-0.0368824,0.0372143-0.0734348,0.0691147-0.1099854,0.0986881c-0.0385418,0.0315666-0.0933628,0.0687819-0.1648064,0.1116467
	c-0.1339092,0.0893841-0.4615402,0.1339092-0.9892025,0.1339092l-2.2857723,0.0225954
	c0.4980927,0.386776,0.9194202,0.7124138,1.2636738,0.971261c0.344574,0.2621708,0.6117287,0.4725065,0.8024616,0.6363211
	c0.1903915,0.1488619,0.4595394,0.3681688,0.8114281,0.6585836c0.3532124,0.290082,0.7855167,0.6585827,1.2965698,1.1051702
	h-5.009161c-0.6153793-0.5804958-1.1742821-1.1071644-1.6723728-1.5853186
	c-0.4964333-0.47616-0.945015-0.9227486-1.3387651-1.3377686c-0.4120312-0.4037228-0.862607-0.8523035-1.3517246-1.350728
	c-0.4907885-0.5007486-1.0221014-1.032732-1.5936279-1.5966148h7.2952566l1.1885757-2.770236h-8.7712603l-3.4929476,8.640666
	H4.6155744L9.5167389,4.2403846H26.1969795z"/>
</svg>
