<?xml version="1.0" encoding="utf-8"?>
<!-- Generator: Adobe Illustrator 21.1.0, SVG Export Plug-In . SVG Version: 6.00 Build 0)  -->
<svg version="1.1" id="Layer_1" xmlns="http://www.w3.org/2000/svg" xmlns:xlink="http://www.w3.org/1999/xlink" x="0px" y="0px"
	 viewBox="0 0 296 100" style="enable-background:new 0 0 296 100;" xml:space="preserve">
<path d="M223.9,68.4v10.3h-41.6c0-3.1,0.5-6.1,1.5-9c0.9-2.7,2.4-5.2,4.3-7.4c1.5-1.7,3.2-3.2,5-4.6c1.9-1.5,5.7-4.3,11.4-8.3
	c2.2-1.4,4.2-3.3,5.8-5.4c1.1-1.7,1.7-3.7,1.7-5.8c0.1-2.3-0.7-4.5-2.2-6.2c-1.5-1.6-3.7-2.4-5.9-2.4c-6,0-9,4.3-9.2,12.9h-11.1
	v-1.3c0-7,2-12.4,5.9-16.3c3.8-3.7,8.8-5.6,14.8-5.6c4.9-0.2,9.7,1.5,13.5,4.6c3.9,3.3,5.9,7.8,5.9,13.4c0.1,4.7-1.6,9.2-4.7,12.7
	c-0.9,1-1.8,1.9-2.9,2.8c-0.9,0.7-3.3,2.4-7.1,5c-3.6,2.5-6.2,4.5-7.8,5.8c-1.6,1.4-3.1,2.9-4.4,4.6L223.9,68.4z M257.1,20.9v57.8
	h-11.5V40.8H232v-8.4c2.3,0,4.6-0.3,6.9-0.9c1.8-0.5,3.4-1.3,4.9-2.5c2.1-1.6,3.6-4.4,4.3-8.3L257.1,20.9L257.1,20.9z M46.3,21h20.3
	L41.4,79H21L46.3,21z M80,21h72.2l-7.5,17.2H93.2L82.9,61.8h51.6L127.1,79H54.8L80,21z"/>
</svg>
