<svg xmlns="http://www.w3.org/2000/svg" viewBox="0 0 296 100"><path d="M224.1 68.7V79h-41.6c0-3.1.5-6.1 1.5-9 .9-2.7 2.4-5.2 4.3-7.4 1.5-1.7 3.2-3.2 5-4.6 1.9-1.5 5.7-4.3 11.4-8.3 2.2-1.4 4.2-3.3 5.8-5.4 1.1-1.7 1.7-3.7 1.7-5.8.1-2.3-.7-4.5-2.2-6.2-1.5-1.6-3.7-2.4-5.9-2.4-6 0-9 4.3-9.2 12.9h-11.1v-1.3c0-7 2-12.4 5.9-16.3 3.8-3.7 8.8-5.6 14.8-5.6 4.9-.2 9.7 1.5 13.5 4.6 3.9 3.3 5.9 7.8 5.9 13.4.1 4.7-1.6 9.2-4.7 12.7-.9 1-1.8 1.9-2.9 2.8-.9.7-3.3 2.4-7.1 5-3.6 2.5-6.2 4.5-7.8 5.8-1.6 1.4-3.1 2.9-4.4 4.6l27.1.2zM267.7 21.2V31c-.3.3-1.3 1.4-2.8 3.2-2.5 2.9-4.6 6-6.4 9.4-2 3.4-3.7 7.1-5 10.8-2.6 8-4.2 16.3-4.5 24.6h-12c.2-4.9.9-9.8 2.3-14.5 1.5-5.5 3.5-10.8 6-15.9 3.6-7.5 7.3-13.1 11-16.7H229V21.2h38.7zM46.3 21h20.3L41.4 79H21zM130.3 61.8c1.8 0 3.5-1.1 4.2-2.8l16.6-38H80.2L55 79h20.3l19.1-43.5h30.1l-6 13.9-26.2-.1 21 29.7h23.1l-15.7-17.2h9.6z"/></svg>
