<svg xmlns="http://www.w3.org/2000/svg" viewBox="0 0 296 100"><path d="M183.7 39.5c0-4.2 1.2-8.4 3.5-11.9 3.6-5.2 9-7.8 16.2-7.8 5.5 0 10 1.4 13.4 4.2 3.6 2.9 5.6 7.3 5.5 11.9.1 2.7-.7 5.3-2.2 7.5-1.4 2.1-3.5 3.6-5.8 4.3 3 .6 5.6 2.3 7.4 4.7 1.8 2.6 2.8 5.7 2.7 8.9.1 5.4-2.2 10.6-6.3 14-3.9 3.4-8.8 5.1-14.8 5.1-6.5 0-11.6-1.9-15.4-5.6-3.8-3.7-5.7-8.7-5.7-15.1V59h11.1c0 3.6.8 6.3 2.5 8.2 1.8 2 4.5 3.1 7.2 2.9 3.1 0 5.5-.9 7.1-2.7 1.5-1.7 2.3-3.9 2.3-6.1.1-2.6-1-5.1-2.9-6.8-1.6-1.4-4.1-2.1-7.4-2.1-.9 0-1.9.1-2.8.2v-8.5c.7.1 1.3.1 2 .1 6.6 0 10-2.5 10-7.4.1-2-.7-3.9-2.2-5.2-1.6-1.4-3.6-2.1-5.7-2-2.4-.1-4.7.8-6.3 2.5-1.5 1.7-2.3 4.2-2.4 7.4h-11zM268.1 35.6h-11c-1-4.5-3.6-6.7-7.6-6.7-4.3 0-7.3 2.6-9.1 7.9-.9 3.2-1.5 6.4-1.8 9.7 1.4-2.1 3.3-3.8 5.6-5.1 2.2-1.1 4.6-1.6 7.1-1.5 5-.2 9.8 1.9 13.1 5.8 3.2 3.8 4.9 8.7 4.7 13.7 0 6.5-2.1 11.7-6.3 15.7-3.7 3.5-8.6 5.4-13.7 5.3-6.8 0-12.1-2.6-15.9-7.7-3.8-5.2-5.7-12.3-5.7-21.6 0-9.9 2-17.6 6.1-23.2 3.6-5.3 9.7-8.3 16.1-8.1 6.4 0 11.3 2.1 14.7 6.4 2 2.8 3.3 6 3.7 9.4zm-19.5 13.3c-2.7-.1-5.2 1.3-6.6 3.5-1.5 2.2-2.3 4.7-2.2 7.4-.1 2.6.7 5.2 2.3 7.4 1.5 2.3 4 3.6 6.7 3.5 2.6.1 5.2-1.2 6.7-3.4 1.6-2.2 2.4-4.8 2.4-7.5.1-2.6-.7-5.1-2.1-7.2-1.7-2.4-4.4-3.8-7.2-3.7zM46.3 21h20.3L41.4 79H21zM130.3 61.8c1.8 0 3.5-1.1 4.2-2.8l16.6-38H80.2L55 79h20.3l19.1-43.5h30.1l-6 13.9-26.2-.1 21 29.7h23.1l-15.7-17.2h9.6z"/></svg>
