<?xml version="1.0" encoding="utf-8"?>
<!-- Generator: Adobe Illustrator 19.2.1, SVG Export Plug-In . SVG Version: 6.00 Build 0)  -->
<svg version="1.1" id="Ebene_1" xmlns="http://www.w3.org/2000/svg" xmlns:xlink="http://www.w3.org/1999/xlink" x="0px" y="0px"
	 width="59px" height="20px" viewBox="0 0 59 20" enable-background="new 0 0 59 20" xml:space="preserve">
<path id="Imported-Layers" d="M8.5162792,15.8000002c-0.1348839,0-0.2547808-0.022481-0.3596897-0.0674419
	c-0.1049099-0.014987-0.2004528-0.0674419-0.2922487-0.1573639l-0.4046507-0.3372097l-2.5627909-2.0457363l-0.4477391-0.3821707
	c-0.1667314-0.1348839-0.2491603-0.3072357-0.2491603-0.5170536c0-0.2397938,0.1049099-0.4496126,0.3166027-0.6294575
	l6.8322344-6.8565898l0.2716417-0.2248063l0.2229328-0.1798449c0.2248058-0.1348839,0.5095606-0.2023258,0.8542633-0.2023258
	h12.5441847L22.5217037,6.942636h-7.9581375l-1.7534885,1.79845h7.9600124l-1.7984505,1.7759676h-7.9581385l-1.7984495,1.7759705
	h7.8888245l4.0914726,3.5069761H8.5162792L8.5162792,15.8000002z M23.8255806,15.8000002l-0.3353348-0.044961
	c-0.031847-0.0149879-0.091795-0.0449619-0.1817188-0.0899229c-0.089922-0.044961-0.2098179-0.1198959-0.3578167-0.2248068
	l-0.3147297-0.2922478l-2.427906-2.0906973l-0.3390827-0.2697678c-0.1180229-0.1198959-0.1798458-0.2772608-0.1798458-0.4720926
	c0-0.1198969,0.018734-0.2135658,0.0580769-0.2810078c0.035593-0.0674429,0.1611099-0.2060728,0.3690567-0.4158916
	l7.2855949-7.4186049h18.1175041L42.8217049,6.942636H30.0527134l-5.2829475,5.3503881h14.5449619l-3.5069771,3.5069761H23.8255806
	L23.8255806,15.8000002z"/>
</svg>
