<?xml version="1.0" encoding="utf-8"?>
<!-- Generator: Adobe Illustrator 19.2.1, SVG Export Plug-In . SVG Version: 6.00 Build 0)  -->
<svg version="1.1" id="Ebene_1" xmlns="http://www.w3.org/2000/svg" xmlns:xlink="http://www.w3.org/1999/xlink" x="0px" y="0px"
	 width="59px" height="20px" viewBox="0 0 59 20" enable-background="new 0 0 59 20" xml:space="preserve">
<path d="M44.7805939,13.8640623v2.0566406h-8.3294907c0-0.6275387,0.1013641-1.2261715,0.3044891-1.7957029
	s0.4890633-1.0597658,0.8582039-1.4710941c0.2847672-0.3164062,0.6183586-0.625,1.000782-0.9255857
	c0.382225-0.3005857,1.1429672-0.8515625,2.282032-1.6533203c0.5537109-0.3847656,0.9414062-0.7433596,1.1628876-1.0757809
	c0.2214851-0.3320312,0.3320351-0.7169924,0.3320351-1.1546879c0-0.5062499-0.1488304-0.9164062-0.4468765-1.2300777
	c-0.2980461-0.3136721-0.6894531-0.4707031-1.1746101-0.4707031c-1.1917953,0-1.8062477,0.8570309-1.842968,2.5707026h-2.2228508
	c0-0.1105461,0-0.1949215,0-0.2531242c0-1.4027348,0.3927727-2.4888678,1.1787109-3.2589846
	c0.7644539-0.7486329,1.7531242-1.1230469,2.9662094-1.1230469c1.0757828,0,1.9748039,0.3058591,2.6974602,0.9175777
	c0.7855492,0.6644535,1.1785164,1.5582032,1.1785164,2.6814456c0,0.9808593-0.3136711,1.8246093-0.9414062,2.5312495
	c-0.2054672,0.2322273-0.3980446,0.4179688-0.577343,0.5576172c-0.1792984,0.1398439-0.6513672,0.4759769-1.4160156,1.0085945
	c-0.7277336,0.5062494-1.248436,0.8937492-1.5621109,1.1628904c-0.3138657,0.2687502-0.6050758,0.5773439-0.874218,0.9253902
	H44.7805939z"/>
<polygon points="9.2489214,4.1999998 13.3188457,4.1999998 8.2838449,15.7999954 4.197,15.7999954 "/>
<path d="M15.9993801,4.2000046h14.443655l-1.495573,3.4454651H18.6323719l-2.0482254,4.7090654h10.3195629l-1.4949036,3.4454651
	h-14.443819L15.9993801,4.2000046z"/>
</svg>
