<svg xmlns="http://www.w3.org/2000/svg" width="48" height="48" viewBox="0 0 48 48">
  <path fill="none" stroke="#000" d="M12.5063,32 C12.5063,31.172 11.8343,30.5 11.0063,30.5 C10.1783,30.5 9.5063,31.172 9.5063,32 C9.5063,32.828 10.1783,33.5 11.0063,33.5 C11.8343,33.5 12.5063,32.828 12.5063,32 Z M15.5063,26.5 L4.0063,26.5 M10.0063,8.5 L4.0003,8.5 M8.0063,17.5 L4.0023,17.5 M7.0063,8.5 L5.0063,14.5 L10.9963,14.5 C14.0043,14.5 15.5063,15.977 15.5063,18.867 L15.5063,37.5 L4.0063,37.5 M11.0063,37.5 L14.0063,43 M15.0063,40.5 L4.0003,40.5 M43.5063,4.5 L20.0063,4.5 C19.1843,4.5 18.5063,5.178 18.5063,6 L18.5063,7.5 L43.5063,7.5 L43.5063,4.5 Z M23.506,13.5004 L33.506,13.5004 L33.506,9.5004 L23.506,9.5004 L23.506,13.5004 Z M25.5053,7.5 L25.5053,9.5 M31.5063,7.5 L31.5063,9.5 M18.506,37.5004 L43.506,37.5004 L43.506,35.5004 L18.506,35.5004 L18.506,37.5004 Z M39.506,35.5004 L41.506,35.5004 L41.506,7.5004 L39.506,7.5004 L39.506,35.5004 Z M20.5063,37.5 L20.5063,43"/>
</svg>
