<svg xmlns="http://www.w3.org/2000/svg" width="48" height="48" viewBox="0 0 48 48">
  <path fill="none" stroke="#000" d="M5.5,11.0002 L5.5,41.5002 L15.5,41.5002 L15.5,35.5002 L31.5,35.5002 L31.5,41.5002 L41.5,41.5002 L41.5,11.0002 C29.556,6.1262 17.558,6.2092 5.5,11.0002 Z M31.5,21.4997 C31.5,25.9187 27.918,29.4997 23.5,29.4997 C19.082,29.4997 15.5,25.9187 15.5,21.4997 C15.5,17.0817 19.082,13.4997 23.5,13.4997 C27.918,13.4997 31.5,17.0817 31.5,21.4997 Z M21.0313,19.9987 L23.5003,21.4997 L27.0243,17.9767 M15.5,21.4997 L18,21.4997 M29,21.4997 L31.5,21.4997 M23.5,29.4997 L23.5,26.9997 M23.5,13.4997 L23.5,15.9997 M16.5723,25.4997 L18.7373,24.2497 M28.2627,18.7497 L30.4277,17.4997 M19.5,28.4284 L20.75,26.2634 M26.25,16.737 L27.5,14.572 M19.5,14.572 L20.75,16.737 M26.25,26.2634 L27.5,28.4284 M16.5723,17.4997 L18.7373,18.7497 M28.2627,24.2497 L30.4277,25.4997"/>
</svg>
