<svg xmlns="http://www.w3.org/2000/svg" width="24" height="24" viewBox="0 0 24 24">
  <path fill="none" stroke="#000" d="M9.085,10.0847 C8.693,10.6467 8.5,11.2627 8.5,12.0007 C8.5,13.9337 10.067,15.4997 12,15.4997 C12.725,15.4997 13.358,15.2957 13.915,14.9147 M15.3818,12.8567 C15.4508,12.5807 15.4998,12.2967 15.4998,12.0007 C15.4998,10.0667 13.9328,8.5007 11.9998,8.5007 C11.7028,8.5007 11.4188,8.5487 11.1438,8.6177 M4,5.0002 L19,20.0002 M17.6572,15.0896 C19.0732,13.8956 20.0882,12.5866 20.5002,12.0006 C19.7562,10.9006 16.2502,6.5006 12.0002,6.5006 C11.1392,6.5006 10.3162,6.6816 9.5392,6.9726 M7.2227,8.2229 C5.3447,9.5589 3.9937,11.2979 3.4997,11.9999 C4.2437,13.0999 7.7497,17.4999 11.9997,17.4999 C13.2727,17.4999 14.4657,17.1119 15.5387,16.5389"/>
</svg>
