<svg xmlns="http://www.w3.org/2000/svg" width="24" height="24" viewBox="0 0 24 24">
  <path fill-rule="evenodd" d="M11.014,18.98 L11.014,17.041 L13.029,17.041 L13.029,18.98 L11.014,18.98 Z M7.834,9.543 C7.877,8.386 8.104,7.491 8.515,6.857 C8.894,6.272 9.397,5.822 10.026,5.504 C10.653,5.187 11.359,5.029 12.143,5.029 C13.405,5.029 14.409,5.386 15.155,6.101 C15.852,6.76 16.2,7.628 16.2,8.703 C16.2,9.592 15.964,10.357 15.491,10.997 C15.279,11.29 14.772,11.827 13.971,12.611 C13.616,12.953 13.369,13.238 13.229,13.464 C13.09,13.691 12.991,13.972 12.936,14.308 C12.873,14.643 12.842,15.079 12.842,15.614 L11.257,15.614 C11.269,14.663 11.353,13.957 11.508,13.497 C11.621,13.161 11.78,12.86 11.989,12.592 C12.197,12.325 12.659,11.824 13.374,11.091 C13.834,10.618 14.136,10.193 14.278,9.813 C14.396,9.49 14.456,9.16 14.456,8.824 C14.456,8.203 14.285,7.68 13.943,7.258 C13.532,6.742 12.926,6.484 12.124,6.484 C10.464,6.484 9.569,7.503 9.438,9.543 L7.834,9.543 Z"/>
</svg>
