<svg xmlns="http://www.w3.org/2000/svg" width="36" height="36" viewBox="0 0 36 36">
  <path fill="none" stroke="#000" d="M13.6275,15.12705 C13.0395,15.97005 12.75,16.89405 12.75,18.00105 C12.75,20.90055 15.1005,23.24955 18,23.24955 C19.0875,23.24955 20.037,22.94355 20.8725,22.37205 M23.0727,19.28505 C23.1762,18.87105 23.2497,18.44505 23.2497,18.00105 C23.2497,15.10005 20.8992,12.75105 17.9997,12.75105 C17.5542,12.75105 17.1282,12.82305 16.7157,12.92655 M6,7.5003 L28.5,30.0003 M26.4858,22.6344 C28.6098,20.8434 30.1323,18.8799 30.7503,18.0009 C29.6343,16.3509 24.3753,9.7509 18.0003,9.7509 C16.7088,9.7509 15.4743,10.0224 14.3088,10.4589 M10.83405,12.33435 C8.01705,14.33835 5.99055,16.94685 5.24955,17.99985 C6.36555,19.64985 11.62455,26.24985 17.99955,26.24985 C19.90905,26.24985 21.69855,25.66785 23.30805,24.80835"/>
</svg>
