<svg xmlns="http://www.w3.org/2000/svg" width="36" height="36" viewBox="0 0 36 36">
  <path fill="none" stroke="#000" d="M26.25,25.49955 L26.25,22.49955 L26.25,25.49955 Z M26.25,19.5003 L26.25,16.5003 L26.25,19.5003 Z M29.25,25.49955 L29.25,22.49955 L29.25,25.49955 Z M29.25,19.5003 L29.25,16.5003 L29.25,19.5003 Z M20.25,25.49955 L20.25,22.49955 L20.25,25.49955 Z M20.25,19.5003 L20.25,16.5003 L20.25,19.5003 Z M20.25,13.5003 L20.25,10.5003 L20.25,13.5003 Z M17.25,25.49955 L17.25,22.49955 L17.25,25.49955 Z M17.25,19.5003 L17.25,16.5003 L17.25,19.5003 Z M17.25,13.5003 L17.25,10.5003 L17.25,13.5003 Z M14.25,25.49955 L14.25,22.49955 L14.25,25.49955 Z M14.25,19.5003 L14.25,16.5003 L14.25,19.5003 Z M14.25,13.5003 L14.25,10.5003 L14.25,13.5003 Z M9,12.7503 L6,12.7503 L9,12.7503 Z M9,8.2503 L6,8.2503 L9,8.2503 Z M9,17.2503 L6,17.2503 L9,17.2503 Z M9,21.74955 L6,21.74955 L9,21.74955 Z M23.25,29.24955 L11.25,29.24955 L23.25,29.24955 Z M11.25,26.24955 L3.75,26.24955 L11.25,26.24955 Z M32.25,29.24955 L23.25,29.24955 L32.25,29.24955 Z M3.75,32.99955 L3.75,5.24955 L11.25,3.74955 L11.25,32.24955 M11.25,32.99955 L11.25,6.74955 L23.25,6.74955 L23.25,32.99955 M23.25,12.7503 L32.25,12.7503 L32.25,33.0003"/>
</svg>
