<svg xmlns="http://www.w3.org/2000/svg" width="16" height="16" viewBox="0 0 16 16">
  <g fill="none" fill-rule="evenodd">
    <rect width="16" height="16" fill="#EB0000" rx="2"/>
    <path fill="#FFF" d="M8.6798,10.6548 C8.4608,10.7108 8.2358,10.7498 7.9998,10.7498 C7.7228,10.7498 7.4608,10.6968 7.2088,10.6198 C6.0798,10.2778 5.2498,9.2398 5.2498,7.9998 C5.2498,7.7638 5.2888,7.5388 5.3448,7.3198 L7.2088,9.1838 L8.6798,10.6548 C8.6898,10.6518 8.6988,10.6488 8.7088,10.6458 L8.7088,10.6838 L8.6798,10.6548 Z M11.0698,10.9238 L10.0098,9.8638 L8.7088,8.5628 L7.2088,7.0628 L6.1368,5.9898 L5.0768,4.9298 L2.6658,2.5198 L1.6058,3.5808 L4.1858,6.1608 C3.9148,6.7198 3.7498,7.3388 3.7498,7.9998 C3.7498,10.0728 5.2428,11.7978 7.2088,12.1698 L7.2088,15.9998 L8.7088,15.9998 L8.7088,12.1788 C9.1088,12.1108 9.4858,11.9858 9.8388,11.8138 L12.9198,14.8948 L13.9798,13.8338 L11.0698,10.9238 Z"/>
    <path fill="#FFF" d="M8.6798 10.6548L8.7088 10.6838 8.7088 10.6458C8.6988 10.6488 8.6898 10.6518 8.6798 10.6548M8 5.25C8.247 5.25 8.481 5.293 8.709 5.354 9.881 5.669 10.75 6.73 10.75 8 10.75 8.152 10.731 8.3 10.706 8.445L11.908 9.647C12.125 9.14 12.25 8.586 12.25 8 12.25 5.899 10.715 4.162 8.709 3.822L8.709 0 7.209 0 7.209 3.83C6.912 3.886 6.631 3.983 6.36 4.098L7.557 5.296C7.701 5.268 7.848 5.25 8 5.25"/>
  </g>
</svg>
