<svg xmlns="http://www.w3.org/2000/svg" width="16" height="16" viewBox="0 0 16 16">
  <g fill="none" fill-rule="evenodd">
    <rect width="16" height="16" fill="#EB0000" rx="2"/>
    <path fill="#FFF" d="M8.77850454,9.2 C8.77850454,9.65 8.44841,10.01 8.02828968,10.01 C7.60816935,10.01 7.27807481,9.65 7.27807481,9.2 L7.27807481,6.02 C7.27807481,5.57 7.60816935,5.21 8.02828968,5.21 C8.44841,5.21 8.77850454,5.57 8.77850454,6.02 L8.77850454,9.2 Z M7.99828108,12.41 C7.57816076,12.41 7.24806622,12.05 7.24806622,11.6 C7.24806622,11.15 7.57816076,10.79 7.99828108,10.79 C8.41840141,10.79 8.74849595,11.15 8.74849595,11.6 C8.74849595,12.05 8.41840141,12.41 7.99828108,12.41 L7.99828108,12.41 Z M13.9099742,12.83 L8.68847876,2.42 C8.53843578,2.15 8.29836703,2 7.99828108,2 C7.72820373,2 7.45812638,2.15 7.338092,2.42 L2.08658795,12.83 C1.96655357,13.07 1.96655357,13.37 2.11659654,13.61 C2.23663092,13.85 2.47669967,14 2.74677703,14 L13.2497851,14 C13.5198625,14 13.7599312,13.85 13.9099742,13.61 C14.0300086,13.37 14.0300086,13.07 13.9099742,12.83 L13.9099742,12.83 Z"/>
  </g>
</svg>
