<svg xmlns="http://www.w3.org/2000/svg" width="16" height="16" viewBox="0 0 16 16">
  <g fill="none" fill-rule="evenodd">
    <rect width="16" height="16" fill="#EB0000" rx="2"/>
    <path fill="#FFF" d="M11.2884 5.2783L10.7464 6.1713 12.0274 6.9493 13.9694 3.7523 10.7704 1.7993 9.9894 3.0793 11.1424 3.7833C10.1794 3.8683 9.2404 4.1673 8.4474 5.0903 8.7664 5.4493 9.0634 5.8803 9.3324 6.4013 9.8644 5.5903 10.4924 5.3433 11.2884 5.2783M4 9.7494L2 9.7494 2 11.2494 4 11.2494C4.96 11.2494 5.932 11.1664 6.798 10.5894 6.568 10.1804 6.355 9.7144 6.166 9.1804 5.58 9.6794 4.883 9.7494 4 9.7494"/>
    <path fill="#FFF" d="M12.0273,8.9286 L10.7463,9.7066 L11.2883,10.6006 C10.1593,10.5086 9.3633,10.0756 8.7113,8.1386 C7.6173,4.8996 5.7843,4.6286 4.0003,4.6286 L2.0003,4.6286 L2.0003,6.1286 L4.0003,6.1286 C5.5243,6.1286 6.5063,6.2966 7.2893,8.6186 C8.2063,11.3396 9.6473,11.9636 11.1433,12.0946 L9.9893,12.7996 L10.7703,14.0786 L13.9693,12.1256 L12.0273,8.9286 Z"/>
  </g>
</svg>
