<svg xmlns="http://www.w3.org/2000/svg" width="16" height="16" viewBox="0 0 16 16">
  <g fill="none" fill-rule="evenodd">
    <rect width="16" height="16" fill="#EB0000" rx="2"/>
    <path fill="#FFF" d="M7.994,2 C4.682,2 2,4.688 2,8 C2,11.312 4.682,14 7.994,14 C11.312,14 14,11.312 14,8 C14,4.688 11.312,2 7.994,2 L7.994,2 Z M8,12.8 C5.348,12.8 3.2,10.652 3.2,8 C3.2,5.348 5.348,3.2 8,3.2 C10.652,3.2 12.8,5.348 12.8,8 C12.8,10.652 10.652,12.8 8,12.8 Z M8.3,5 L7.4,5 L7.4,8.54098361 L10.55,10.4 L11,9.67409836 L8.3,8.09836066 L8.3,5 Z"/>
  </g>
</svg>
