<svg xmlns="http://www.w3.org/2000/svg" viewBox="0 0 24 24"><path d="M8.0999756 10.1999512v2h3.5c-.5 2.5-4 3.4000244-5.8999634 1.7000122-1.9000244-1.5-1.7999878-4.7000122.2000122-6 1.3999634-1.0999756 3.3999634-.7999878 4.6999512.2000122.6000366-.5 1.1000366-1 1.6000366-1.5999756C11 5.5999756 9.5999756 4.8999634 8.0999756 5 5 4.8999634 2.0999756 7.5999756 2 10.6999512c-.2000122 2.5 1.5 5 3.9000244 5.9000244 2.3999634.9000244 5.5.2999878 7-1.7999878 1-1.2999878 1.1999512-3 1.0999756-4.6000366H8.0999756zM19.2000122 10.0999756V8.3999634H17.5v1.7000122h-1.7000122v1.7000122H17.5V13.5h1.7000122v-1.7000122h1.7000122v-1.7000122h-1.7000122z"/></svg>
