<?xml version="1.0" encoding="utf-8"?>
<!-- Generator: Adobe Illustrator 16.0.4, SVG Export Plug-In . SVG Version: 6.00 Build 0)  -->
<!DOCTYPE svg PUBLIC "-//W3C//DTD SVG 1.1//EN" "http://www.w3.org/Graphics/SVG/1.1/DTD/svg11.dtd">
<svg version="1.1" xmlns="http://www.w3.org/2000/svg" xmlns:xlink="http://www.w3.org/1999/xlink" x="0px" y="0px"
	 width="20px" height="20px" viewBox="0 0 20 20" enable-background="new 0 0 20 20" xml:space="preserve">
<g id="sbb_him_construction">
	<path d="M10.7,6.5c0.7,0,1.3-0.6,1.3-1.4c0-0.8-0.6-1.4-1.3-1.4c-0.7,0-1.3,0.6-1.3,1.4
		C9.4,5.9,10,6.5,10.7,6.5z M10.4,15.7c-0.2,0.1-0.5,0.4-0.5,0.4l-0.2,0.4l-0.2,0.3H9.1l-1,0.8h10.1l-0.5-0.5l-0.4-0.4l-0.6,0
		l-0.4-0.4c0,0-0.3-0.5-0.3-0.6s0.1-0.5,0-0.5c-0.1-0.1-0.4-0.3-0.4-0.3l-0.8,0l-0.4-0.5L14,13.8l-0.5-0.1c0,0-0.3,0-0.5,0.2
		c-0.1,0.2-0.4,0.3-0.7,0.4c-0.1,0-0.2,0.1-0.2,0.1l-3.9-3.3L10,7.3L8.1,4.5H4L3.5,7.3L2.7,6.6C2.5,6.5,2.3,6.5,2.2,6.7
		C2,6.8,2,7.1,2.2,7.2l1.5,1.3l-1,1.1l0.1,3.7l-0.9,3.6c-0.1,0.4,0.1,0.9,0.5,1c0.1,0,0.1,0,0.2,0c0.3,0,0.7-0.2,0.8-0.6l1-3.8
		l0.2-2.9l2,2.4l-1.9,3.6C4.5,17,4.6,17.5,5,17.7c0.1,0.1,0.2,0.1,0.4,0.1c0.3,0,0.5-0.2,0.7-0.4l2.4-4.5l-1-1.2l3.9,3.3l-0.3,0.4
		C11.2,15.4,10.6,15.6,10.4,15.7z M7,10.2L6.2,9.5l1.5-0.7L7,10.2L7,10.2z M5,5.9l1,0.1L4.7,7.4L5,5.9L5,5.9z"/>
</g>
</svg>
