<?xml version="1.0" encoding="utf-8"?>
<!-- Generator: Adobe Illustrator 16.0.4, SVG Export Plug-In . SVG Version: 6.00 Build 0)  -->
<!DOCTYPE svg PUBLIC "-//W3C//DTD SVG 1.1//EN" "http://www.w3.org/Graphics/SVG/1.1/DTD/svg11.dtd">
<svg version="1.1" xmlns="http://www.w3.org/2000/svg" xmlns:xlink="http://www.w3.org/1999/xlink" x="0px" y="0px"
	 width="20px" height="20px" viewBox="0 0 20 20" enable-background="new 0 0 20 20" xml:space="preserve">
<g id="sbb_him_replacementbus">
	<path d="M8.5,13c-1.6,0-2.9,1.3-2.9,2.9s1.3,2.9,2.9,2.9c1.6,0,2.9-1.3,2.9-2.9S10.1,13,8.5,13L8.5,13z
		 M8.5,17.2c-0.8,0-1.4-0.6-1.4-1.3c0-0.7,0.6-1.3,1.4-1.3s1.4,0.6,1.4,1.3C9.9,16.6,9.3,17.2,8.5,17.2L8.5,17.2z M15.3,5.2
		c-0.1-0.8-0.8-1.4-1.6-1.4H0l0,1.5h2v5.3H0l0,2.1l0,0l0,3.1h4.6c0-2.1,1.7-3.8,3.9-3.8c2.1,0,3.9,1.7,3.9,3.8h2.8
		c0.7,0,1.3-0.6,1.3-1.4v-3.6L15.3,5.2L15.3,5.2z M2.9,5.3h4v5.3h-4V5.3z M8,5.3h1.1v5.4H8V5.3z M10.1,5.3h1.1v5.4h-1.1V5.3z
		 M12.3,10.6V5.3h1.8l1.2,5.4H12.3L12.3,10.6z"/>
</g>
</svg>
