<?xml version="1.0" encoding="utf-8"?>
<!-- Generator: Adobe Illustrator 16.0.4, SVG Export Plug-In . SVG Version: 6.00 Build 0)  -->
<!DOCTYPE svg PUBLIC "-//W3C//DTD SVG 1.1//EN" "http://www.w3.org/Graphics/SVG/1.1/DTD/svg11.dtd">
<svg version="1.1" id="Layer_1" xmlns="http://www.w3.org/2000/svg" xmlns:xlink="http://www.w3.org/1999/xlink" x="0px" y="0px"
	 width="20px" height="20px" viewBox="0 0 20 20" enable-background="new 0 0 20 20" xml:space="preserve">
<g id="sbb_him_info">
	<path id="Path-Copy-15" d="M8.3,4.85c0-1,0.8-1.9,1.9-1.9c1,0,1.8,0.8,1.8,1.9c0,1-0.8,1.8-1.8,1.8C9.1,6.65,8.3,5.85,8.3,4.85z
		 M7.2,16.25h1.2v-8H7.2c-0.2,0-0.3-0.1-0.3-0.3s0.1-0.4,0.3-0.4h4.5v8.7h1.1c0.2,0,0.4,0.2,0.4,0.4S13,17.05,12.8,17.05h-1.1H8.4
		H7.2c-0.2,0-0.4-0.199-0.4-0.399S7,16.25,7.2,16.25z"/>
</g>
</svg>
