<svg xmlns="http://www.w3.org/2000/svg" width="24" height="24" viewBox="0 0 24 24">
  <g fill="none" fill-rule="evenodd">
    <path stroke="#000" d="M6.5088,4.5002 L12.4998,4.5002 L17.4998,9.5002 L17.4998,19.5002 L6.4998,19.5002 L6.5088,4.5002 Z M12.5,4.5002 L12.5,9.5002 L17.5,9.5002"/>
    <path fill="#000" d="M8.6514,15.5554 L8.6514,16.4044 L9.2354,16.4044 C9.4094,16.4044 9.5344,16.3734 9.6104,16.3124 C9.7054,16.2364 9.7524,16.1224 9.7524,15.9734 C9.7524,15.8234 9.6974,15.7114 9.5884,15.6374 C9.5094,15.5824 9.3804,15.5554 9.2004,15.5554 L8.6514,15.5554 Z M7.9974,15.0014 L9.2074,15.0014 C9.4104,15.0014 9.5704,15.0144 9.6884,15.0394 C9.8044,15.0654 9.9104,15.1104 10.0054,15.1734 C10.2654,15.3494 10.3964,15.6134 10.3964,15.9654 C10.3964,16.2794 10.2884,16.5254 10.0724,16.7034 C9.9814,16.7804 9.8764,16.8354 9.7584,16.8684 C9.6414,16.9024 9.4964,16.9194 9.3234,16.9194 L8.6514,16.9194 L8.6514,17.9994 L7.9974,17.9994 L7.9974,15.0014 Z M11.4097,15.5554 L11.4097,17.4464 L11.9137,17.4464 C12.0687,17.4464 12.1917,17.4304 12.2837,17.4004 C12.3747,17.3684 12.4547,17.3174 12.5227,17.2424 C12.6817,17.0714 12.7607,16.8194 12.7607,16.4864 C12.7607,16.1804 12.6877,15.9494 12.5407,15.7914 C12.3937,15.6344 12.1767,15.5554 11.8887,15.5554 L11.4097,15.5554 Z M10.7557,15.0014 L11.9677,15.0014 C12.1927,15.0014 12.3857,15.0284 12.5467,15.0794 C12.7077,15.1314 12.8487,15.2134 12.9717,15.3264 C13.2717,15.5994 13.4207,15.9784 13.4207,16.4634 C13.4207,16.9784 13.2797,17.3744 12.9967,17.6554 C12.8727,17.7794 12.7327,17.8684 12.5767,17.9204 C12.4207,17.9734 12.2217,17.9994 11.9817,17.9994 L10.7557,17.9994 L10.7557,15.0014 Z M15.9824,15.0017 L15.9824,15.5557 L14.5264,15.5557 L14.5264,16.2507 L15.7944,16.2507 L15.7944,16.7657 L14.5264,16.7657 L14.5264,17.9997 L13.8724,17.9997 L13.8724,15.0017 L15.9824,15.0017 Z"/>
  </g>
</svg>
