<svg xmlns="http://www.w3.org/2000/svg" width="24" height="24" viewBox="0 0 24 24">
  <g fill="none" fill-rule="evenodd">
    <path stroke="#000" d="M6.5088,4.5002 L12.4998,4.5002 L17.4998,9.5002 L17.4998,19.5002 L6.4998,19.5002 L6.5088,4.5002 Z M12.5,4.5002 L12.5,9.5002 L17.5,9.5002"/>
    <polygon fill="#000" points="12.8 14 14.401 15.5 12.5 15.5 12.5 14 11.5 14 11.5 15.5 9.6 15.5 11.2 14 10 14 8 16 10 18 11.2 18 9.6 16.5 11.5 16.5 11.5 18 12.5 18 12.5 16.5 14.401 16.5 12.8 18 14 18 16 16 14 14"/>
  </g>
</svg>
