<svg xmlns="http://www.w3.org/2000/svg" width="24" height="24" viewBox="0 0 24 24">
  <g fill="none" fill-rule="evenodd">
    <path stroke="#000" d="M6.5088,4.5002 L12.4998,4.5002 L17.4998,9.5002 L17.4998,19.5002 L6.4998,19.5002 L6.5088,4.5002 Z M12.5,4.5002 L12.5,9.5002 L17.5,9.5002"/>
    <path fill="#000" d="M8.668,15.5564 L8.668,16.4054 L9.265,16.4054 C9.441,16.4054 9.569,16.3734 9.647,16.3124 C9.744,16.2364 9.792,16.1234 9.792,15.9744 C9.792,15.8244 9.736,15.7114 9.625,15.6384 C9.544,15.5834 9.412,15.5564 9.229,15.5564 L8.668,15.5564 Z M8,15.0024 L9.235,15.0024 C9.443,15.0024 9.606,15.0154 9.726,15.0394 C9.845,15.0654 9.953,15.1104 10.05,15.1744 C10.316,15.3494 10.45,15.6134 10.45,15.9664 C10.45,16.2794 10.339,16.5254 10.119,16.7044 C10.025,16.7814 9.918,16.8354 9.798,16.8694 C9.678,16.9034 9.53,16.9194 9.355,16.9194 L8.668,16.9194 L8.668,18.0004 L8,18.0004 L8,15.0024 Z M11.4839,15.5564 L11.4839,16.4054 L12.0809,16.4054 C12.2569,16.4054 12.3849,16.3734 12.4629,16.3124 C12.5599,16.2364 12.6079,16.1234 12.6079,15.9744 C12.6079,15.8244 12.5519,15.7114 12.4409,15.6384 C12.3599,15.5834 12.2279,15.5564 12.0449,15.5564 L11.4839,15.5564 Z M10.8159,15.0024 L12.0509,15.0024 C12.2589,15.0024 12.4219,15.0154 12.5419,15.0394 C12.6609,15.0654 12.7689,15.1104 12.8659,15.1744 C13.1319,15.3494 13.2659,15.6134 13.2659,15.9664 C13.2659,16.2794 13.1549,16.5254 12.9349,16.7044 C12.8409,16.7814 12.7339,16.8354 12.6139,16.8694 C12.4939,16.9034 12.3459,16.9194 12.1709,16.9194 L11.4839,16.9194 L11.4839,18.0004 L10.8159,18.0004 L10.8159,15.0024 Z M16,15.0027 L16,15.5567 L15.07,15.5567 L15.07,18.0007 L14.402,18.0007 L14.402,15.5567 L13.477,15.5567 L13.477,15.0027 L16,15.0027 Z"/>
  </g>
</svg>
