<svg xmlns="http://www.w3.org/2000/svg" viewBox="0 0 24 24"><path d="M18.9000244 3H5.0999756C3.9000244 3 3 3.8999634 3 5.0999756v13.7999878C3 20.0999756 3.9000244 21 5.0999756 21h13.8000488C20 21 21 20.0999756 21 18.8999634V5.0999756C21 3.8999634 20.0999756 3 18.9000244 3zM12 8.5c1.9000244 0 3.5 1.5 3.5 3.5 0 1.8999634-1.5 3.5-3.5 3.5-1.9000244 0-3.5-1.6000366-3.5-3.5 0-1.9000244 1.5999756-3.5 3.5-3.5zm6.9000244 9.6999512c0 .4000244-.3000488.7000122-.7000122.7000122H5.7999878c-.3999634 0-.7000122-.2999878-.7000122-.7000122v-7.5999756h1.6000366C6.5999756 11 6.5 11.5 6.5 12c0 3.0999756 2.5 5.5 5.5 5.5 3.0999756 0 5.5-2.5 5.5-5.5 0-.5-.0999756-.9000244-.2000122-1.4000244h1.6000366v7.5999756zM19 7.8999634c0 .4000244-.2999878.7000122-.7000122.7000122h-2.0999756c-.4000244 0-.7000122-.2999878-.7000122-.7000122V5.7999878c0-.4000244.2999878-.7000122.7000122-.7000122h2.0999756c.4000244 0 .7000122.2999878.7000122.7000122v2.0999756z"/></svg>
