<svg xmlns="http://www.w3.org/2000/svg" viewBox="0 0 24 24"><path d="M18.9000244 7.3999634c.7999878-.5 1.2999878-1.2000122 1.5999756-2.0999756-.7000122.3999634-1.5.7000122-2.2999878.8999634C17.5 5.5 16.5 5 15.5 5c-2 0-3.7000122 1.6999512-3.7000122 3.7999878 0 .2999878 0 .5999756.1000366.8999634C8.7999878 9.5 6.0999756 8 4.2999878 5.6999512c-.3999634.6000366-.5 1.2000122-.5 1.9000244 0 1.2999878.7000122 2.5 1.6000366 3.2000122-.6000366 0-1.2000122-.2000122-1.7000122-.5 0 1.7999878 1.2999878 3.3999634 3 3.7000122-.2999878.0999756-.6000366.0999756-1 .0999756-.2000122 0-.5 0-.7000122-.0999756.5 1.5 1.7999878 2.5999756 3.4000244 2.5999756-1.3000488 1-2.9000244 1.5999756-4.6000366 1.5999756-.2999878 0-.5999756 0-.8999634-.0999756C4.5999756 19.3999634 6.5999756 20 8.7000122 20c6.7999878 0 10.5-5.8000488 10.5-10.8000488v-.5C19.9000244 8.1999512 20.5 7.5 21 6.7999878c-.7000122.2999878-1.4000244.5-2.0999756.5999756z"/></svg>
