<svg xmlns="http://www.w3.org/2000/svg" viewBox="0 0 24 24"><path d="M19.7999878 9.3999634s-.2000122-1.0999756-.5999756-1.5999756c-.6000366-.6000366-1.2999878-.6000366-1.6000366-.7000122C15.4000244 7 12 7 12 7s-3.4000244 0-5.5999756.1999512c-.3000488 0-1 0-1.6000366.7000122-.5.5-.5999756 1.6000366-.5999756 1.6000366S4 10.5999756 4 11.8999634v1.2000122c0 1.2999878.2000122 2.5.2000122 2.5s.2000122 1.0999756.5999756 1.5999756c.6000366.6000366 1.4000244.6000366 1.7999878.7000122C7.7999878 18 12 18 12 18s3.4000244 0 5.5999756-.2000122c.3000488 0 1 0 1.6000366-.7000122.5-.5.5999756-1.6000366.5999756-1.6000366S20 14.1999512 20 13v-1.2000122c0-1.2000122-.2000122-2.4000244-.2000122-2.4000244zm-9.5 5.1000366v-4.4000244l4.2999878 2.2000122L10.2999878 14.5z"/></svg>
