<svg xmlns="http://www.w3.org/2000/svg" width="48" height="48" viewBox="0 0 48 48">
  <path fill="none" stroke="#000" d="M25.501,34.5 L26.501,25.5 L32.501,25.5 L33.501,34.5 M9.5,10.5 C10.604,10.5 11.5,11.396 11.5,12.5 C11.5,13.604 10.604,14.5 9.5,14.5 C8.396,14.5 7.5,13.604 7.5,12.5 C7.5,11.396 8.396,10.5 9.5,10.5 Z M7.5,27.501 L7.5,39.999 M11.5005,27.501 L11.5005,39.999 M5.5,29.5 L5.5,17.5 L13.5,17.5 L13.5,29.5 M5.5,27.501 L13.5,27.501 M29.501,18.5005 C30.605,18.5005 31.501,19.3965 31.501,20.5005 C31.501,21.6045 30.605,22.5005 29.501,22.5005 C28.397,22.5005 27.501,21.6045 27.501,20.5005 C27.501,19.3965 28.397,18.5005 29.501,18.5005 Z M27.501,32.501 L27.501,39.999 M31.502,32.501 L31.502,39.999 M25.7236,32.501 L33.2796,32.501 M35.502,34.5 L36.502,25.5 L42.502,25.5 L43.502,34.5 M39.502,18.5005 C40.606,18.5005 41.502,19.3965 41.502,20.5005 C41.502,21.6045 40.606,22.5005 39.502,22.5005 C38.398,22.5005 37.502,21.6045 37.502,20.5005 C37.502,19.3965 38.398,18.5005 39.502,18.5005 Z M37.502,32.501 L37.502,39.999 M41.502,32.501 L41.502,39.999 M35.7236,32.501 L43.2796,32.501 M15.501,34.5 L16.501,25.5 L22.5,25.5 L23.501,34.5 M19.5005,18.5005 C20.6045,18.5005 21.5005,19.3965 21.5005,20.5005 C21.5005,21.6045 20.6045,22.5005 19.5005,22.5005 C18.3965,22.5005 17.5005,21.6045 17.5005,20.5005 C17.5005,19.3965 18.3965,18.5005 19.5005,18.5005 Z M17.501,32.501 L17.501,39.999 M21.501,32.501 L21.501,39.999 M15.7227,32.501 L23.2787,32.501"/>
</svg>
