<svg xmlns="http://www.w3.org/2000/svg" width="48" height="48" viewBox="0 0 48 48">
  <path fill="none" stroke="#000" d="M17.5,33.5 L17.5,42.022 M17,12.5 C14.032,12.771 11.299,15.446 10.5,19 M19.5005,18.5 C19.4755,15.726 20.3095,13.011 21.8875,10.729 C20.5625,9.933 19.0465,9.509 17.5005,9.5 C11.9775,9.5 7.5005,14.873 7.5005,21.5 C7.5005,28.128 11.9775,33.5 17.5005,33.5 C20.5765,33.422 23.4205,31.842 25.1125,29.271 C21.7925,27.318 19.5005,23.236 19.5005,18.5 Z M25.1123,29.2705 C26.4383,30.0665 27.9543,30.4915 29.5013,30.4995 C35.0233,30.4995 39.5013,25.1265 39.5013,18.4995 C39.5013,11.8725 35.0233,6.4995 29.5013,6.4995 C26.4243,6.5785 23.5803,8.1585 21.8873,10.7295 M29.501,30.5 L29.501,42.022 M29.001,9.5 C26.033,9.771 23.299,12.445 22.501,16"/>
</svg>
