<svg xmlns="http://www.w3.org/2000/svg" width="48" height="48" viewBox="0 0 48 48">
  <path fill="none" stroke="#000" d="M23.5,11.5 L23.5,11.5 C29.022,11.5 33.5,15.977 33.5,21.5 L33.5,23.5 C33.5,29.023 29.022,33.5 23.5,33.5 C17.977,33.5 13.5,29.023 13.5,23.5 L13.5,21.5 C13.5,15.977 17.977,11.5 23.5,11.5 Z M15.4458,29.4092 C15.1938,32.1952 13.7828,34.7472 11.5578,36.4432 C14.4218,36.1372 17.0128,34.6092 18.6688,32.2542 M28.292,32.2773 C29.948,34.6213 32.532,36.1373 35.386,36.4433 C33.18,34.7613 31.772,32.2393 31.502,29.4793 M18,22.5 C18.828,22.5 19.5,23.172 19.5,24 C19.5,24.829 18.828,25.5 18,25.5 C17.171,25.5 16.5,24.829 16.5,24 C16.5,23.172 17.171,22.5 18,22.5 Z M29.001,22.5 C29.829,22.5 30.501,23.172 30.501,24 C30.501,24.829 29.829,25.5 29.001,25.5 C28.172,25.5 27.501,24.829 27.501,24 C27.501,23.172 28.172,22.5 29.001,22.5 Z M18.6685,32.2539 C20.6135,39.2719 25.2505,43.9999 29.4095,43.9999 L31.5005,43.9999 C31.5005,44.2759 31.7235,44.4999 32.0005,44.4999 C32.2765,44.4999 32.5005,44.2759 32.5005,43.9999 L32.5005,40.9999 C32.5005,40.7239 32.2765,40.4999 32.0005,40.4999 C31.7235,40.4999 31.5005,40.7239 31.5005,40.9999 L31.0695,40.9999 C29.6705,40.9999 26.1675,37.4279 28.2925,32.2769 M17.3291,13.6416 C14.8561,10.3196 10.1581,9.6316 6.8361,12.1056 C4.1791,14.0846 3.1351,17.5726 4.2681,20.6856 L5.6361,24.4446 C7.0371,28.2896 11.2631,30.3016 15.1301,28.9636 M29.6709,13.6416 C32.1449,10.3196 36.8419,9.6316 40.1639,12.1056 C42.8209,14.0846 43.8649,17.5726 42.7319,20.6856 L41.3629,24.4446 C39.9629,28.2896 35.7369,30.3016 31.8689,28.9636"/>
</svg>
