<svg xmlns="http://www.w3.org/2000/svg" width="48" height="48" viewBox="0 0 48 48">
  <path fill="none" stroke="#000" d="M14.4014,35.4063 C15.3934,36.1713 16.4774,36.8093 17.6274,37.3043 M8.6465,25.4854 C8.9885,28.0734 10.0055,30.5264 11.5945,32.5984 M11.5942,14.4014 C10.0052,16.4734 8.9892,18.9264 8.6462,21.5144 M21.5146,8.6465 C18.9266,8.9885 16.4736,10.0055 14.4016,11.5945 M32.5986,11.5942 C30.5266,10.0052 28.0736,8.9892 25.4856,8.6462 M38.3535,21.5146 C38.0105,18.9266 36.9955,16.4726 35.4065,14.4016 M35.4063,32.5986 C36.9943,30.5266 38.0103,28.0736 38.3533,25.4856 M28.6406,37.5771 C30.0626,37.0571 31.3966,36.3251 32.5986,35.4061 M25.6211,25.6211 C25.4981,25.7421 25.3641,25.8531 25.2211,25.9511 M21.667,25.8594 C21.566,25.7864 21.47,25.7064 21.379,25.6214 M16.499,40.5 L22.5,23.5 L24.5,23.5 L29.5,40.5 M25.4854,8.6465 C25.4894,8.5975 25.5004,8.5505 25.5004,8.5005 C25.5004,7.3955 24.6044,6.5005 23.5004,6.5005 C22.3954,6.5005 21.5004,7.3955 21.5004,8.5005 C21.5004,8.5505 21.5114,8.5975 21.5144,8.6465 M38.3535,25.4854 C38.4025,25.4884 38.4505,25.5004 38.4995,25.5004 C39.6045,25.5004 40.4995,24.6044 40.4995,23.5004 C40.4995,22.3954 39.6045,21.5004 38.4995,21.5004 C38.4505,21.5004 38.4025,21.5114 38.3535,21.5144 M8.6465,21.5146 C8.5975,21.5116 8.5505,21.4996 8.5005,21.4996 C7.3955,21.4996 6.5005,22.3956 6.5005,23.4996 C6.5005,24.6046 7.3955,25.4996 8.5005,25.4996 C8.5505,25.4996 8.5975,25.4886 8.6465,25.4856 M35.4063,14.4014 C35.4433,14.3694 35.4853,14.3434 35.5203,14.3074 C36.3023,13.5264 36.3023,12.2604 35.5203,11.4794 C34.7403,10.6984 33.4733,10.6984 32.6923,11.4794 C32.6563,11.5154 32.6313,11.5564 32.5983,11.5944 M11.5942,32.5986 C11.5562,32.6306 11.5152,32.6566 11.4792,32.6926 C10.6982,33.4736 10.6982,34.7396 11.4792,35.5206 C12.2602,36.3016 13.5262,36.3016 14.3072,35.5206 C14.3432,35.4856 14.3692,35.4436 14.4012,35.4066 M32.5986,35.4063 C32.6306,35.4433 32.6566,35.4853 32.6926,35.5203 C33.4736,36.3023 34.7406,36.3023 35.5206,35.5203 C36.3016,34.7393 36.3016,33.4733 35.5206,32.6923 C35.4856,32.6563 35.4436,32.6313 35.4066,32.5983 M14.4014,11.5942 C14.3694,11.5562 14.3434,11.5152 14.3074,11.4792 C13.5264,10.6982 12.2604,10.6982 11.4794,11.4792 C10.6984,12.2602 10.6984,13.5262 11.4794,14.3072 C11.5154,14.3432 11.5564,14.3692 11.5944,14.4012 M25.2207,25.9512 C25.3647,25.8532 25.4977,25.7422 25.6207,25.6212 C26.7927,24.4502 26.7927,22.5502 25.6207,21.3782 C24.4497,20.2072 22.5507,20.2072 21.3787,21.3782 C20.2067,22.5502 20.2067,24.4502 21.3787,25.6212 C21.4697,25.7062 21.5667,25.7862 21.6667,25.8592 M14,40.501 L32.001,40.501 M14.3076,14.3076 L21.3786,21.3786 L14.3076,14.3076 Z M25.6211,21.3784 L32.6921,14.3074 L25.6211,21.3784 Z M21.5146,8.6465 C21.5896,9.7425 22.5396,10.5705 23.6366,10.4955 C24.6276,10.4275 25.4166,9.6375 25.4856,8.6465 M38.3535,21.5146 C37.2565,21.5896 36.4295,22.5396 36.5045,23.6366 C36.5725,24.6276 37.3625,25.4166 38.3535,25.4856 M8.6465,25.4854 C9.7425,25.4104 10.5705,24.4604 10.4955,23.3634 C10.4275,22.3724 9.6385,21.5824 8.6465,21.5144 M32.5986,11.5942 C31.8766,12.4232 31.9636,13.6792 32.7926,14.4012 C33.5416,15.0532 34.6576,15.0532 35.4066,14.4012 M14.4014,35.4063 C15.1234,34.5773 15.0364,33.3203 14.2074,32.5983 C13.4584,31.9463 12.3434,31.9463 11.5944,32.5983 M35.4063,32.5986 C34.5773,31.8766 33.3203,31.9636 32.5983,32.7926 C31.9463,33.5416 31.9463,34.6576 32.5983,35.4066 M11.5942,14.4014 C12.4232,15.1234 13.6802,15.0364 14.4012,14.2074 C15.0532,13.4584 15.0532,12.3424 14.4012,11.5944 M14.3076,32.6924 L21.3786,25.6214 M25.6211,25.6211 L32.6921,32.6921"/>
</svg>
