<svg xmlns="http://www.w3.org/2000/svg" width="48" height="48" viewBox="0 0 48 48">
  <path fill="none" stroke="#000" d="M9.5,28.5 L9.5,11.5 L21.5,11.5 L21.5,16 C21.5,21.375 24,30.5 29.5,30.5 L34.5,30.5 C37.813,30.5 40.5,33.187 40.5,36.5 L23.5,36.5 C20.875,36.5 18.625,35.5 15.5,35.5 L8.5,35.5 L8.5,28.5 C12.366,28.5 15.5,31.634 15.5,35.5 M9.5,15.5 L21.5,15.5 M23,19.5 L19,19.5 M40.501,36.5 L40.501,39.5 L23.5,39.5 L23.5,38.5 C20.875,38.5 18.625,37.5 15.5,37.5 L15.5,39.5 L7.5,39.5 L7.5,35.5 L8.5,35.5 M24,22.5 L20,22.5 M25,25.5 L21,25.5"/>
</svg>
