<svg xmlns="http://www.w3.org/2000/svg" width="48" height="48" viewBox="0 0 48 48">
  <path fill="none" stroke="#000" d="M28.5,21.4922 L27.5,38.4922 L43.5,38.4922 L42.5,21.4922 L28.5,21.4922 Z M37.4941,24.9922 L37.5001,17.4922 C37.5001,16.3872 36.6041,15.4922 35.5001,15.4922 C34.3951,15.4922 33.5001,16.3872 33.5001,17.4922 L33.5001,24.9922 M5.5,38.508 L23.5,38.508 L23.5,31.508 L5.5,31.508 L5.5,38.508 Z M21.5,17.2178 L21.5,31.4918 L7.5,31.4918 L7.5,17.2178 M10.5005,17.4917 C9.3955,17.4917 8.5005,16.5957 8.5005,15.4917 C8.4975,16.5957 7.6005,17.4897 6.4955,17.4877 C5.3945,17.4847 4.5025,16.5927 4.5005,15.4917 L4.5005,13.4917 L24.5005,13.4917 L24.5005,15.4917 C24.5005,16.5957 23.6055,17.4917 22.5005,17.4917 C21.3965,17.4917 20.5005,16.5957 20.5005,15.4917 C20.4985,16.5957 19.6015,17.4897 18.4965,17.4877 C17.3955,17.4847 16.5035,16.5927 16.5005,15.4917 C16.4985,16.5957 15.6005,17.4897 14.4965,17.4877 C13.3955,17.4847 12.5025,16.5927 12.5005,15.4917 C12.5005,16.5957 11.6045,17.4917 10.5005,17.4917 Z M26.001,13.4922 L23.001,9.4922 L6.5,9.4922 L3.5,13.4922 L26.001,13.4922 Z"/>
</svg>
