<svg xmlns="http://www.w3.org/2000/svg" width="48" height="48" viewBox="0 0 48 48">
  <path fill="none" stroke="#000" d="M9.5,32.5 L9.5,16.5 L9.5,32.5 Z M12.5005,32.5 L12.5005,16.5 L12.5005,32.5 Z M14.5,32.5 L12.5,38.5 L14.5,32.5 Z M18.5005,32.5 L18.5005,16.5 L18.5005,32.5 Z M21.501,32.5 L21.501,16.5 L21.501,32.5 Z M40.501,16.5 L7.5,16.5 L7.5,12.498 L24.005,9.5 L40.501,12.498 L40.501,16.5 Z M38.501,32.5 L38.501,16.5 L38.501,32.5 Z M35.501,32.5 L35.501,16.5 L35.501,32.5 Z M33.501,32.5 L35.501,38.5 M40.501,38.5 L7.5,38.5 L7.5,35.5 L8.5,35.5 L8.5,32.5 L39.501,32.5 L39.501,35.5 L40.501,35.5 L40.501,38.5 Z M29.501,32.5 L29.501,16.5 L29.501,32.5 Z M26.5,32.5 L26.5,16.5 L26.5,32.5 Z"/>
</svg>
