<svg xmlns="http://www.w3.org/2000/svg" width="48" height="48" viewBox="0 0 48 48">
  <path fill="none" stroke="#000" d="M45.5,29.0049 L45.5,31.4999 C45.5,31.4999 45.5,33.4999 42.5,33.4999 L37.5,33.4999 L38.5,27.4999 L45.5,29.0049 Z M28.5361,12.6235 C34.8371,15.9835 40.2951,20.7275 44.5001,26.4995 L44.5001,28.7625 M37.833,31.5 L30.144,31.5 M24.856,31.5 L22,31.5 M24.0366,36.501 L19.9996,36.501 M28.5,15.5 L26.5,21.5 L36.5,21.5 C34.141,19.12 31.445,17.099 28.5,15.5 Z M27.501,30.5 C29.71,30.5 31.501,32.291 31.501,34.5 C31.501,36.709 29.71,38.5 27.501,38.5 C25.292,38.5 23.501,36.709 23.501,34.5 C23.501,32.291 25.292,30.5 27.501,30.5 Z M39,33.5 L41.5,36.5 L30.962,36.501 M16.4897,35.5938 C15.8827,35.5338 15.2247,35.4998 14.4997,35.4998 C12.0047,35.5608 9.5327,36.0038 7.1727,36.8168 M23,17.5 L19.14,17.5 C18.186,17.5 17.365,18.173 17.178,19.108 L16.979,20.108 C16.762,21.191 17.464,22.245 18.547,22.461 C18.676,22.487 18.808,22.5 18.939,22.5 L21,22.5 M17.4653,32.7158 C16.4843,32.5688 15.4923,32.4958 14.5003,32.4998 C11.0773,32.4998 9.1903,33.3138 6.8363,33.9028 L2.5003,22.4998 L14.0143,22.4998 L15.0003,17.4998 L12.5003,17.4998 L12.5003,11.4998 L25.0003,11.4998 M17.0005,40 L28.0005,8"/>
</svg>
