<svg xmlns="http://www.w3.org/2000/svg" width="48" height="48" viewBox="0 0 48 48">
  <path fill="none" stroke="#000" d="M6,38.5 L32.5,38.5 C37.978,38.5 40.5,36.694 40.5,32 M6,32.501 L34,32.501 M9.5,32.501 L9.5,38.5 M16.5005,32.501 L16.5005,38.5 M23.5005,32.501 L23.5005,38.5 M30.501,32.501 L30.501,38.5 M41,18.5 C30.554,18.5 26.293,27.5 15.5,27.5 C10.529,27.5 6.5,23.471 6.5,18.5 C6.5,13.53 10.529,9.5 15.5,9.5 C26.293,9.5 30.554,18.5 41,18.5 Z M13.5,9.7212 L13.5,15.0352 M17.5005,9.6079 L17.5005,15.0359 M13.5,21.9648 L13.5,27.2768 M17.5005,21.9648 L17.5005,27.3938 M26.501,13 L26.501,24 M41,18.5 L19.5,18.5 M15.5,14.5 C17.709,14.5 19.5,16.291 19.5,18.5 C19.5,20.709 17.709,22.5 15.5,22.5 C13.291,22.5 11.5,20.709 11.5,18.5 C11.5,16.291 13.291,14.5 15.5,14.5 Z"/>
</svg>
