<svg xmlns="http://www.w3.org/2000/svg" width="48" height="48" viewBox="0 0 48 48">
  <path fill="none" stroke="#000" d="M24.5,11.1572 L24.5,17.0002 M12.2812,20.0312 L17.5002,22.0862 M16.9448,34.3994 L20.1738,30.3144 M32.0605,34.4033 L28.8265,30.3143 M36.709,20.0312 L31.5,22.0862 M24.5,17 L17.5,22.086 L20.174,30.315 L28.826,30.315 L31.5,22.086 L24.5,17 Z M9.8252,34.3994 L16.9452,34.3994 L19.1522,41.1924 M10.0811,13.2588 L12.2811,20.0308 L6.5111,24.2238 M30.2734,6.9629 L24.5004,11.1569 L18.7274,6.9629 M42.4883,24.23 L36.7093,20.031 L38.9133,13.25 M29.8564,41.1904 L32.0604,34.4044 L39.1714,34.4044 M18.7271,6.9629 L24.5001,11.1569 L30.2731,6.9629 M6.5,24 C6.5,24.075 6.51,24.148 6.511,24.224 L12.281,20.031 L10.081,13.259 M38.9131,13.2495 L36.7091,20.0315 L42.4881,24.2305 C42.4891,24.1525 42.5001,24.0775 42.5001,23.9995 M19.1519,41.1924 L16.9449,34.3994 L9.8249,34.3994 M39.1719,34.4043 L32.0609,34.4043 L29.8569,41.1903 M24.5,6 C34.441,6 42.5,14.059 42.5,24 C42.5,33.941 34.441,42 24.5,42 C14.559,42 6.5,33.941 6.5,24 C6.5,14.059 14.559,6 24.5,6 Z"/>
</svg>
