<svg xmlns="http://www.w3.org/2000/svg" width="48" height="48" viewBox="0 0 48 48">
  <path fill="none" stroke="#000" d="M35.5,10.5 C36.604,10.5 37.5,11.396 37.5,12.5 C37.5,13.604 36.604,14.5 35.5,14.5 C34.396,14.5 33.5,13.604 33.5,12.5 C33.5,11.396 34.396,10.5 35.5,10.5 Z M33.5,37.5 L33.5,39.999 L33.5,37.5 Z M37.5,37.5 L37.5,39.999 L37.5,37.5 Z M30.5,29.5 L32.5,17.5 L38.5,17.5 L40.5,29.5 M39.5,37.5 L38.5,27.501 L32.5,27.501 L31.5,37.5 L39.5,37.5 Z M23.5,10.5 C24.604,10.5 25.5,11.396 25.5,12.5 C25.5,13.604 24.604,14.5 23.5,14.5 C22.396,14.5 21.5,13.604 21.5,12.5 C21.5,11.396 22.396,10.5 23.5,10.5 Z M21.5005,27.501 L21.5005,39.999 L21.5005,27.501 Z M25.501,27.501 L25.501,39.999 L25.501,27.501 Z M19.5,29.5 L19.5,17.5 L27.5,17.5 L27.5,29.5 M19.5,27.501 L27.5,27.501 L19.5,27.501 Z M12.5,10.5 C13.604,10.5 14.5,11.396 14.5,12.5 C14.5,13.604 13.604,14.5 12.5,14.5 C11.396,14.5 10.5,13.604 10.5,12.5 C10.5,11.396 11.396,10.5 12.5,10.5 Z M10.5005,27.501 L10.5005,39.999 L10.5005,27.501 Z M14.5005,27.501 L14.5005,39.999 L14.5005,27.501 Z M8.5,29.5 L8.5,17.5 L16.5,17.5 L16.5,29.5 M8.5,27.501 L16.5,27.501"/>
</svg>
