<svg xmlns="http://www.w3.org/2000/svg" width="48" height="48" viewBox="0 0 48 48">
  <path fill="none" stroke="#000" d="M13.4971,10.5 C14.6011,10.5 15.4971,11.396 15.4971,12.5 C15.4971,13.604 14.6011,14.5 13.4971,14.5 C12.3931,14.5 11.4971,13.604 11.4971,12.5 C11.4971,11.396 12.3931,10.5 13.4971,10.5 Z M11.4971,37.5 L11.4971,39.999 M15.4971,37.5 L15.4971,39.999 M8.4971,29.5 L10.4971,17.5 L16.4971,17.5 L18.4971,29.5 M17.4971,37.5 L16.4971,27.501 L10.4971,27.501 L9.4971,37.5 L17.4971,37.5 Z M25.498,10.5 C26.602,10.5 27.498,11.396 27.498,12.5 C27.498,13.604 26.602,14.5 25.498,14.5 C24.393,14.5 23.498,13.604 23.498,12.5 C23.498,11.396 24.393,10.5 25.498,10.5 Z M23.498,27.501 L23.498,39.999 M27.498,27.501 L27.498,39.999 M21.498,29.5 L21.498,17.5 L29.498,17.5 L29.498,29.5 M21.498,27.501 L29.498,27.501 M36.499,18.5005 C37.603,18.5005 38.499,19.3965 38.499,20.5005 C38.499,21.6045 37.603,22.5005 36.499,22.5005 C35.394,22.5005 34.499,21.6045 34.499,20.5005 C34.499,19.3965 35.394,18.5005 36.499,18.5005 Z M34.499,32.501 L34.499,39.999 M38.499,32.501 L38.499,39.999 M32.499,34.5 L33.499,25.5 L39.498,25.5 L40.499,34.5 M32.7197,32.501 L40.2767,32.501"/>
</svg>
