<svg xmlns="http://www.w3.org/2000/svg" width="36" height="36" viewBox="0 0 36 36">
  <g fill="none" fill-rule="evenodd" stroke="#000">
    <path d="M24.75,15.75105 L27,15.75105 L24.75,15.75105 L24.75,18.00105 L24.75,15.75105 Z M24.75,15.75105 L22.5,15.75105 L24.75,15.75105 L24.75,13.50105 L24.75,15.75105 Z M9,15.74955 L15,15.74955 L9,15.74955 Z M9,18.7503 L18,18.7503 L9,18.7503 Z M9,21.74955 L16.5,21.74955 L9,21.74955 Z"/>
    <path stroke-dasharray="1 1" d="M27.75,26.24955 L8.25,26.24955 C6.594,26.24955 5.25,24.90555 5.25,23.24955 L5.25,12.74955 C5.25,11.09355 6.594,9.74955 8.25,9.74955 L27.75,9.74955 C29.406,9.74955 30.75,11.09355 30.75,12.74955 L30.75,23.24955 C30.75,24.90555 29.406,26.24955 27.75,26.24955 Z"/>
  </g>
</svg>
