<svg xmlns="http://www.w3.org/2000/svg" width="36" height="36" viewBox="0 0 36 36">
  <g fill="none" fill-rule="evenodd">
    <path fill="#000" d="M26.9619,7.3971 L26.9619,13.5006 L25.7439,13.5006 L25.7439,9.5046 L25.3074,9.5046 L24.8739,9.5046 L24.4524,9.5046 L24.3054,9.5046 L24.3054,8.6196 C24.6054,8.6121 24.8469,8.5821 25.0359,8.5281 C25.2234,8.4756 25.3944,8.3886 25.5519,8.2701 C25.7769,8.0961 25.9284,7.8051 26.0049,7.3971 L26.9619,7.3971 Z M17.98455,15.41415 L17.98455,16.50015 L13.58805,16.50015 C13.58805,16.16865 13.64205,15.85215 13.75005,15.55215 C13.85655,15.25215 14.00805,14.99265 14.20305,14.77515 C14.35305,14.60865 14.52855,14.44515 14.73105,14.28765 C14.93205,14.12865 15.33405,13.83765 15.93405,13.41465 C16.22655,13.21065 16.43205,13.02165 16.54755,12.84615 C16.66605,12.67065 16.72455,12.46815 16.72455,12.23715 C16.72455,11.97015 16.64505,11.75415 16.48755,11.58765 C16.33005,11.42265 16.12455,11.34015 15.86805,11.34015 C15.23805,11.34015 14.91555,11.79165 14.89455,12.69615 L13.72305,12.69615 L13.72305,12.56265 C13.72305,11.82165 13.93005,11.24865 14.34405,10.84365 C14.74755,10.44765 15.26955,10.24965 15.91005,10.24965 C16.47855,10.24965 16.95255,10.41165 17.33355,10.73415 C17.74755,11.08515 17.95455,11.55615 17.95455,12.15015 C17.95455,12.66615 17.78955,13.11165 17.45805,13.48515 C17.35005,13.60815 17.24805,13.70565 17.15355,13.77915 C17.05905,13.85265 16.81005,14.03115 16.40655,14.31165 C16.02255,14.57865 15.74805,14.78415 15.58155,14.92515 C15.41655,15.06765 15.26355,15.22965 15.12105,15.41415 L17.98455,15.41415 Z"/>
    <path stroke="#000" d="M15.75,8.2503 L15.75,5.2503 L29.25,5.2503 L29.25,27.7503 L20.25,27.7503 L20.25,8.2503 L6.75,8.2503 L6.75,30.7503 L20.25,30.7503 L20.25,27.7503 M9,20.24955 L18,20.24955 M9,23.24955 L18,23.24955 M20.25,20.24955 L27,20.24955 M20.25,17.24955 L27,17.24955"/>
  </g>
</svg>
