<svg xmlns="http://www.w3.org/2000/svg" width="36" height="36" viewBox="0 0 36 36">
  <g fill="none" fill-rule="evenodd" stroke="#000">
    <path d="M27.75,17.24955 C27.75,14.69955 29.7,12.74955 32.25,12.74955 L32.25,6.74955 L25.5,6.74955 L3.75,6.74955 L3.75,27.74955 L32.25,27.74955 L32.25,21.74955 C29.7,21.74955 27.75,19.79955 27.75,17.24955 Z M6.75,11.24955 L21.75,11.24955 L21.75,24.74955 L6.75,24.71355 L6.75,11.24955 Z M6.75,14.24955 L21.75,14.24955 M9.75,11.24955 L9.75,8.99955 M12,18.74955 L14.25,18.74955 M14.25,22.49955 L14.25,16.49955 L14.25,22.49955 Z M18.75,11.24955 L18.75,8.99955 L18.75,11.24955 Z"/>
    <path stroke-dasharray="1 1" d="M24.75,26.99955 L24.75,7.49955"/>
  </g>
</svg>
