<svg xmlns="http://www.w3.org/2000/svg" width="36" height="36" viewBox="0 0 36 36">
  <path fill="none" stroke="#000" d="M17.2464,14.99595 C17.2464,16.23945 16.2384,17.24595 14.9964,17.24595 C13.7529,17.24595 12.7464,16.23945 12.7464,14.99595 C12.7464,13.75245 13.7529,12.74595 14.9964,12.74595 C16.2384,12.74595 17.2464,13.75245 17.2464,14.99595 Z M23.25,23.99955 C23.25,25.24305 22.242,26.24955 21,26.24955 C19.758,26.24955 18.75,25.24305 18.75,23.99955 C18.75,22.75755 19.758,21.74955 21,21.74955 C22.242,21.74955 23.25,22.75755 23.25,23.99955 Z M11.25,26.24955 L24.75,12.74955 L11.25,26.24955 Z"/>
</svg>
