<svg xmlns="http://www.w3.org/2000/svg" width="36" height="36" viewBox="0 0 36 36">
  <g fill="none" fill-rule="evenodd" stroke="#000">
    <path d="M5.25,20.24955 C5.25,19.99755 5.2575,19.74855 5.2725,19.49955 M16.5,8.2731 C16.749,8.2581 16.998,8.2506 17.25,8.2506 M17.25,8.2503 C23.877,8.2503 29.25,13.6233 29.25,20.2503 C29.25,26.8773 23.877,32.2503 17.25,32.2503 C10.623,32.2503 5.25,26.8773 5.25,20.2503 M17.25,8.24955 L17.25,4.49955 M15,5.24955 L19.5,5.24955 M12,20.24955 L15.75,24.74955 L24,15.74955"/>
    <path stroke-dasharray="1 1" d="M5.4726,17.93655 C6.4551,12.90555 10.5801,9.00105 15.7191,8.34705"/>
  </g>
</svg>
