<svg xmlns="http://www.w3.org/2000/svg" width="36" height="36" viewBox="0 0 36 36">
  <g fill="none" fill-rule="evenodd">
    <path stroke="#000" d="M30.75,18.7503 C30.75,23.7213 26.7195,27.7503 21.75,27.7503 C16.7805,27.7503 12.75,23.7213 12.75,18.7503 C12.75,13.7808 16.7805,9.7503 21.75,9.7503 C26.7195,9.7503 30.75,13.7808 30.75,18.7503 Z M12.75,18.7503 L4.5,18.7503 L12.75,18.7503 Z"/>
    <path fill="#000" d="M27,18.75 C27,21.64975 24.64975,24 21.75,24 C18.85025,24 16.5,21.64975 16.5,18.75 C16.5,15.85025 18.85025,13.5 21.75,13.5 C24.64975,13.5 27,15.85025 27,18.75"/>
  </g>
</svg>
