<svg xmlns="http://www.w3.org/2000/svg" width="24" height="24" viewBox="0 0 24 24">
  <path fill="none" stroke="#000" d="M15,14.5 C18.178,14.5 18.2,10.2 15.7,10.3 C16.8,6.6 11.9,4.9 10.4,8.3 C9.08,7.218 6.968,8.258 7.2,10.2 C5.059,10.2 4.633,14.5 8,14.5 M13,13.5 L10.5,16 L12.669,16 L9.339,18.715 L11,16.5 L8.5,16.5 L11.5,13.5 L13,13.5 Z M17,16.5 C17,16.776 16.776,17 16.5,17 C16.224,17 16,16.776 16,16.5 C16,16.224 16.224,16 16.5,16 C16.776,16 17,16.224 17,16.5 Z M15,18.5 C15,18.776 14.776,19 14.5,19 C14.224,19 14,18.776 14,18.5 C14,18.224 14.224,18 14.5,18 C14.776,18 15,18.224 15,18.5 Z M6,17.5 C6,17.776 5.776,18 5.5,18 C5.224,18 5,17.776 5,17.5 C5,17.224 5.224,17 5.5,17 C5.776,17 6,17.224 6,17.5 Z"/>
</svg>
