<svg xmlns="http://www.w3.org/2000/svg" width="24" height="24" viewBox="0 0 24 24">
  <path fill="none" stroke="#000" d="M7.2002,10.2002 C5.0592,10.2002 4.6332,14.5002 8.0002,14.5002 L15.0002,14.5002 C18.2362,14.5002 18.2002,10.2002 15.7002,10.3002 C16.8002,6.6002 11.9002,4.9002 10.4002,8.3002 C9.0792,7.2182 6.9682,8.2582 7.2002,10.2002 Z M17.375,11.5044 C18.636,11.9004 21.51,11.2084 22.5,9.0004 C18.332,10.7624 15.544,6.6464 16.982,3.8004 C15.893,4.1264 15.069,4.7994 14.454,6.8344 M10.5,17 C10.5,17.276 10.276,17.5 10,17.5 C9.724,17.5 9.5,17.276 9.5,17 C9.5,16.724 9.724,16.5 10,16.5 C10.276,16.5 10.5,16.724 10.5,17 Z M14.5,17 C14.5,17.276 14.276,17.5 14,17.5 C13.724,17.5 13.5,17.276 13.5,17 C13.5,16.724 13.724,16.5 14,16.5 C14.276,16.5 14.5,16.724 14.5,17 Z M12.5,20 C12.5,20.276 12.276,20.5 12,20.5 C11.724,20.5 11.5,20.276 11.5,20 C11.5,19.724 11.724,19.5 12,19.5 C12.276,19.5 12.5,19.724 12.5,20 Z"/>
</svg>
