<svg xmlns="http://www.w3.org/2000/svg" width="24" height="24" viewBox="0 0 24 24">
  <path fill="none" stroke="#000" d="M16.0195,14.3838 C18.1645,13.6818 17.8985,10.2118 15.7005,10.2998 C16.7995,6.5998 11.8995,4.8998 10.3995,8.2998 C9.0795,7.2178 6.9675,8.2578 7.2005,10.1998 C5.3005,10.1998 4.7515,13.5848 7.0025,14.3488 M17.3389,11.3872 C18.6049,11.0352 19.4999,9.8982 19.4999,8.5002 C19.4999,6.8092 18.1909,5.5002 16.4999,5.5002 C15.5069,5.5002 14.6449,5.9512 14.1039,6.6672 M11.5,11 L11.5,18 M8.0142,14.5 L15.0142,14.5 M9.0249,12.0249 L13.9749,16.9749 M9.0391,16.9746 L13.9891,12.0246"/>
</svg>
