<svg xmlns="http://www.w3.org/2000/svg" width="24" height="24" viewBox="0 0 24 24">
  <path fill="none" stroke="#000" d="M7.2002,10.2002 C5.0592,10.2002 4.6332,14.5002 8.0002,14.5002 L15.0002,14.5002 C18.2032,14.5002 18.2002,10.2002 15.7002,10.3002 C16.8002,6.6002 11.9002,4.9002 10.4002,8.3002 C9.0792,7.2182 6.9682,8.2582 7.2002,10.2002 Z M7.5,16 C7.5,16 7,17 7,17.5 C7,17.776 7.224,18 7.5,18 C7.776,18 8,17.776 8,17.5 C8,17 7.5,16 7.5,16 Z M11.5,16 C11.5,16 11,17 11,17.5 C11,17.776 11.224,18 11.5,18 C11.776,18 12,17.776 12,17.5 C12,17 11.5,16 11.5,16 Z M15.5,16 C15.5,16 15,17 15,17.5 C15,17.776 15.224,18 15.5,18 C15.776,18 16,17.776 16,17.5 C16,17 15.5,16 15.5,16 Z M13.5,18 C13.5,18 13,19 13,19.5 C13,19.776 13.224,20 13.5,20 C13.776,20 14,19.776 14,19.5 C14,19 13.5,18 13.5,18 Z M9.5,18 C9.5,18 9,19 9,19.5 C9,19.776 9.224,20 9.5,20 C9.776,20 10,19.776 10,19.5 C10,19 9.5,18 9.5,18 Z"/>
</svg>
