<svg xmlns="http://www.w3.org/2000/svg" width="24" height="24" viewBox="0 0 24 24">
  <path fill="none" stroke="#000" d="M8.5,16 L7.5,18 M14.5,16 L13.5,18 M10.5,16 L8.5,20 M12.5498,16 L10.5498,20 M7.2002,10.2002 C5.0592,10.2002 4.6332,14.5002 8.0002,14.5002 L15.0002,14.5002 C18.2362,14.5002 18.2002,10.2002 15.7002,10.3002 C16.8002,6.6002 11.9002,4.9002 10.4002,8.3002 C9.0792,7.2182 6.9682,8.2582 7.2002,10.2002 Z M17.3389,11.3872 C18.6049,11.0352 19.4999,9.8982 19.4999,8.5002 C19.4999,6.8092 18.1909,5.5002 16.4999,5.5002 C15.5069,5.5002 14.6449,5.9512 14.1039,6.6672 M16.5,2 L16.5,4 M11.8291,3.8779 L13.2701,5.2639 M19.793,11.8638 L21.207,13.2778 M23,8.5 L21,8.5 M21.0957,3.8887 L19.6817,5.3027"/>
</svg>
