<svg xmlns="http://www.w3.org/2000/svg" width="24" height="24" viewBox="0 0 24 24">
  <path fill="none" stroke="#000" d="M16.5,12.5 C16.5,14.706 14.729,16.494 12.523,16.494 C10.316,16.494 8.528,14.705 8.528,12.499 C8.528,10.292 10.293,8.5 12.5,8.5 C14.706,8.5 16.5,10.293 16.5,12.5 Z M4,12.5 L7.003,12.5 L4,12.5 Z M6.3926,6.3159 L8.6696,8.5929 L6.3926,6.3159 Z M12.5117,3.9878 L12.5117,7.0028 L12.5117,3.9878 Z M18.6572,6.4077 L16.3932,8.6457 L18.6572,6.4077 Z M21,12.5 L17.994,12.5 L21,12.5 Z M18.6709,18.5928 L16.4039,16.3358 L18.6709,18.5928 Z M12.5,17.9932 L12.5,20.9962 L12.5,17.9932 Z M8.6572,16.4014 L6.3952,18.6624 L8.6572,16.4014 Z"/>
</svg>
