<svg xmlns="http://www.w3.org/2000/svg" width="36" height="36" viewBox="0 0 36 36">
  <path fill="none" stroke="#000" d="M29.25,18.7503 C29.25,24.5643 24.5655,29.2503 18.75,29.2503 C12.9345,29.2503 8.25,24.5643 8.25,18.7503 C8.25,12.9348 12.9345,8.2503 18.75,8.2503 C24.5655,8.2503 29.25,12.9348 29.25,18.7503 Z M24.75,18.7503 C24.75,22.0623 22.0635,24.7503 18.75,24.7503 C15.4365,24.7503 12.75,22.0623 12.75,18.7503 C12.75,15.4368 15.4365,12.7503 18.75,12.7503 C22.0635,12.7503 24.75,15.4368 24.75,18.7503 Z M8.25585,18.7503 L4.49985,18.7503 M29.25585,18.7437 L32.99835,18.7437 M18.75585,29.24955 L18.75585,32.99955 M18.75585,8.2503 L18.75585,4.5003"/>
</svg>
