<svg xmlns="http://www.w3.org/2000/svg" width="36" height="36" viewBox="0 0 36 36">
  <path fill="none" stroke="#000" d="M23.2617,12.0102 C23.2617,14.9097 20.9112,17.2602 18.0117,17.2602 C15.1122,17.2602 12.7617,14.9097 12.7617,12.0102 C12.7617,9.1107 15.1122,6.7602 18.0117,6.7602 C20.9112,6.7602 23.2617,9.1107 23.2617,12.0102 Z M26.25,12.0219 C26.25,7.4649 22.5555,3.7719 18,3.7719 C13.443,3.7719 9.75,7.4649 9.75,12.0219 C9.8055,13.4364 10.224,14.6274 10.899,15.7509 L18.024,26.9979 L25.149,15.7509 C25.8135,14.5854 26.238,13.3734 26.25,12.0219 Z M13.2027,23.5122 C7.6782,24.1377 3.7497,25.8102 3.7497,27.7497 C3.7497,30.2157 10.0977,32.2497 17.9997,32.2497 C25.9032,32.2497 32.2497,30.2157 32.2497,27.7497 C32.2497,25.8252 28.3797,24.1632 22.9227,23.5272"/>
</svg>
