<svg width="24" height="24" viewBox="0 0 24 24" xmlns="http://www.w3.org/2000/svg"><path d="M14.39524 6.752773l2.272635.817313c.049.01927.102134.02753.155268.02753.157334 0 .303155-.08014.390235-.214423l.511262-.779078c.04162-.06454.062284-.1404.062284-.215952 0-.214423-.167075-.388163-.37518-.388163H14.5204c-.209287 0-.377543.17374-.377543.388163 0 .16487.10184.31047.252384.36461M6.851667 6.8h3.294567V6H6.851667c-.207516 0-.375477.17925-.375477.400473 0 .220277.16796.399527.375477.399527M6.851667 9.06984h.471116c.207515 0 .376657-.17932.376657-.399367 0-.221626-.169142-.400632-.376657-.400632h-.471116c-.207516 0-.375477.179007-.375477.400633 0 .220047.16796.399368.375477.399368" fill="#767676"/><path d="M18.979167 17.950662c-1.968298 0-3.620747-1.523286-3.837413-3.534147h3.214867c.13992.211976.37341.339222.622547.339222.415032 0 .751838-.34748.751838-.77449 0-.42762-.336806-.775102-.751838-.775102-.00797 0-.018006 0-.023614.000918l-1.686396-2.785045c.53163-.269175 1.116097-.409574 1.71001-.409574 2.130355 0 3.857487 1.77686 3.857487 3.968803 0 2.191024-1.727132 3.969415-3.857487 3.969415zm-2.349382-7.118457l1.70086 2.810126h-3.19686c.091507-1.112487.63583-2.131988 1.496-2.810125zm-2.25197 2.810126h-.881426c-.0369-.195762-.11896-.379903-.238216-.535902l2.46598-3.772733.50713.836278c-1.07979.82496-1.75606 2.093142-1.85347 3.472358zm-1.74514-.968417c-.110103-.032424-.22316-.047718-.338282-.047718-.113056 0-.225522.015294-.335626.047718L9.58459 9.04372h5.422264l-2.374178 3.630193zm-3.161732 1.307334c0 2.191024-1.728608 3.969415-3.859258 3.969415-2.13006 0-3.859847-1.77839-3.859847-3.969415 0-2.191942 1.729788-3.968803 3.859847-3.968803.593914 0 1.17779.1404 1.709716.409574l-2.030286 3.354595c-.035718.061176-.05579.13153-.05579.204634 0 .21381.16796.387245.37636.387245.13077 0 .251204-.069435.319687-.183528l2.030584-3.35276c.950792.750938 1.50899 1.914814 1.50899 3.149043zm9.508224-4.74421c-.73383 0-1.45733.17955-2.1091.52489l-.90386-1.492086H8.624056L7.7199 9.76193c-.651178-.34534-1.374383-.524892-2.108215-.524892C3.06571 9.237036 1 11.361684 1 13.981246c0 2.61773 2.06571 4.743294 4.611685 4.743294 2.545977 0 4.611686-2.125565 4.611686-4.743293 0-1.502792-.690734-2.914432-1.863506-3.811274l.506834-.836278 2.46716 3.772733c-.17032.22207-.26242.494915-.26242.77816 0 .693738.54875 1.258088 1.222955 1.258088.476135 0 .90799-.284163 1.109603-.72616h.981788c.218732 2.441234 2.209464 4.308025 4.593383 4.308025 2.546567 0 4.612276-2.125565 4.612276-4.743293 0-2.619563-2.06571-4.74421-4.612276-4.74421z" fill="#767676"/></svg>