<?xml version="1.0" encoding="UTF-8"?>
<svg width="108px" height="36px" viewBox="0 0 108 36" version="1.1" xmlns="http://www.w3.org/2000/svg" xmlns:xlink="http://www.w3.org/1999/xlink">
            <path d="M106.5,21 C112.5,36 93,36 93,36 L14.6465,36 C14.6465,36 -4.8535,36 1.1465,21 L8.5215,5.92 C11.9765,-0.139 17.853,0.0005 17.853,0.0005 L89.794,0.0005 C89.794,0.0005 95.6705,-0.139 99.125,5.92 L106.5,21 Z M82.5,19.5 L88.5,19.5 L88.5,7.5 L82.5,7.5 L82.5,19.5 Z M90,19.5 L102,19.5 L96,7.5 L90,7.5 L90,19.5 Z M19.1465,19.5 L25.1465,19.5 L25.1465,7.5 L19.1465,7.5 L19.1465,19.5 Z M17.64665,19.5 L17.64665,7.5 L11.64665,7.5 L5.64665,19.5 L17.64665,19.5 Z" id="Combined-Shape"></path>
 </svg>