<svg width="24" height="24" viewBox="0 0 24 24" xmlns="http://www.w3.org/2000/svg"><path d="M4.914362 11.25h1.023936c1.321808 0 2.75532-.37234 2.75532-1.898936 0-1.24734-1.19149-1.303192-2.179625-1.303192H5.60176L4.91436 11.25zm-1.19149 5.69824h.893617c1.601063 0 3.388297-.187602 3.388297-2.19824 0-1.359043-1.26739-1.56383-2.662234-1.56383h-.837766l-.781915 3.76207zM3.516652 6H7.37181C9.401063 6 11.3 6.74468 11.3 9.109043c0 1.582446-1.265957 2.848404-2.775368 3.090425v.037234c1.45356.223404 2.086538 1.340426 2.086538 2.736702 0 3.723404-4.171645 4.021277-6.106383 4.021277H.8L3.516653 6zM14.278264 6H23.2l-.44838 2.048504-7.840182 8.903113h5.922038l-.428323 2.04707H11.28l.4097-2.04707 7.82156-8.903113h-5.679942"/></svg>