<svg width="10" height="11" viewBox="0 0 10 11" xmlns="http://www.w3.org/2000/svg"><g fill="#000" fill-rule="evenodd"><path d="M.5 1h9v9h-9V1zm.75 8.25h7.5v-7.5h-7.5v7.5z"/><path d="M2.0015 2.491h.93825c.3885 0 .6765.105.867.3135.23925.2715.35925.68625.35925 1.245 0 .42825-.06375.7725-.1905 1.03275-.126.2595-.3075.42075-.543.48225l.97275 2.91H3.6845l-.96975-2.92875v2.9295H2.0015V2.491zm.71325 2.65125V3.154h.12c.111 0 .2085.0195.28875.0585.081.03825.14775.099.19875.1815.051.084.08925.1905.11325.32175.02325.132.036.291.036.477 0 .3435-.057.58725-.171.732-.11475.1455-.30975.2175-.58575.2175zM5.7665 7.402h.54675c-.0435.7485-.35175 1.1235-.9225 1.1235-.17175 0-.3165-.03225-.4395-.09525-.1215-.0645-.222-.16275-.30225-.2955-.08025-.1335-.13875-.30375-.177-.5085-.03825-.20475-.057-.4485-.057-.73125 0-.5625.078-.97875.23475-1.2495.1575-.27075.39975-.4065.72825-.4065.639 0 .957.56175.957 1.686v.07425H4.9895c0 .681.1365 1.02075.40725 1.02075.246 0 .36975-.20475.36975-.618zm-.0315-.82725h-.7455c.02475-.3345.06375-.5535.11475-.6585.051-.117.13725-.1755.258-.1755.12 0 .2055.0585.2595.1755.05025.10425.0885.324.11325.6585zm2.11575-1.218v.55275c-.14325-.1065-.2955-.15975-.45225-.15975-.054 0-.1035.009-.14775.02775-.04575.018-.084.0435-.11925.07575-.033.0315-.06.06975-.0795.11325-.0195.04425-.02775.09075-.02775.14025 0 .1515.13575.3315.411.54075.111.08625.204.16575.27825.24.0735.0735.12975.14325.16875.2085.0795.129.11925.29175.11925.489 0 .28425-.08175.513-.24975.6855-.16425.17025-.384.255-.66075.255-.17175 0-.3435-.051-.51675-.15225v-.5715c.17025.1275.33075.1905.48375.1905.26925 0 .40275-.132.40275-.39525 0-.09825-.02475-.1845-.07425-.255-.02325-.03525-.0585-.0765-.108-.1215-.04875-.0465-.1095-.09825-.18-.15525-.24975-.19275-.41775-.35475-.5055-.486-.08625-.13575-.1305-.29775-.1305-.48825 0-.2565.07875-.46575.237-.63.1605-.162.3675-.243.6255-.243.17925 0 .35475.0465.52575.13875z"/></g></svg>