<svg width="24" height="24" viewBox="0 0 24 24" xmlns="http://www.w3.org/2000/svg"><path d="M8.718504 8.686265H7.50863v-.74953h2.958287v.74953h-.836583l.26263.523787h4.59309l-.410175-.936914h-1.313156V7.5h1.79858l1.624475 3.420103c.182955-.050165.34378-.08705.480997-.112134.135742-.025084.293615-.038363.46772-.038363.855763 0 1.587588.298042 2.19105.894126.60346.596083.904453 1.324958.904453 2.182197 0 .851337-.299518 1.575785-.897077 2.176295-.601985.601986-1.32791.901503-2.186623.901503-.849862 0-1.569884-.299517-2.17187-.901503-.60051-.60051-.89855-1.324958-.89855-2.176295 0-.525262.11951-1.012162.361485-1.465126.2405-.450014.582805-.82183 1.02249-1.112493l-.26263-.562147-3.19436 3.545517h-1.873827c-.125414.78199-.469195 1.423813-1.034294 1.922517-.566574.50018-1.23643.74953-2.011044.74953-.85724 0-1.586114-.299516-2.183673-.901502C4.300993 15.42319 4 14.697267 4 13.84593c0-.849862.300993-1.575786.900027-2.176296.60051-.599034 1.329385-.900027 2.1881-.900027.290664 0 .637396.06787 1.037244.203613l1.023966-1.510866-.430832-.77609zM7.122062 11.5575c-.658053 0-1.211348.219843-1.661362.66248-.448538.44116-.674283.985603-.674283 1.62595 0 .634445.22427 1.175937.66838 1.623.445588.445587.988556.66838 1.628903.66838.557722 0 1.046097-.175578 1.4607-.52526.416078-.348208.67871-.801173.787893-1.36037h-2.43745l-.424932-.773138 1.202496-1.822187c-.177054-.066395-.36001-.098855-.550344-.098855zm.287713 1.909238h1.922518l-.137218-.4869c-.174103-.423455-.442636-.74953-.807073-.982653l-.978227 1.469553zm2.22056-1.335286c.157873.22427.270008.423455.337878.599034.066396.174104.119512.41903.160825.736252h1.125772l-1.699724-3.222393-.722972 1.08741c.182956.141644.334928.271484.455915.38657.11951.118036.234596.253778.342304.413127zm.66838-2.16154l1.682018 3.188456 2.87271-3.188457h-4.554728zm4.565057 3.876018c0 .634445.219842 1.174462.666905 1.623.444112.445587.982653.66838 1.614147.66838.63297 0 1.174462-.221317 1.624476-.663954.448538-.442636.674282-.984128.674282-1.62595 0-.641823-.225744-1.18479-.674282-1.627427-.447063-.442637-1.00036-.66248-1.653985-.66248-.141644 0-.241974.00295-.300993.011804-.057542.007377-.147545.03246-.27296.072297l1.128724 2.41237-.73035.351157-1.130198-2.410893c-.631495.46772-.945766 1.08446-.945766 1.851696z"/><path d="M2 4h20v16H2V4zm1 15h18V5H3v14z"/></svg>