<svg xmlns="http://www.w3.org/2000/svg" width="24" height="24" viewBox="0 0 24 24">
  <g fill="none" fill-rule="evenodd">
    <path stroke="#000" d="M13.5453,5.7278 L12.5323,7.0348 L8.7683,8.0608 L8.0283,7.6608 L5.5883,9.4738 L6.6913,9.8528 L3.7883,13.0718 L2.7083,17.0258 L4.8483,16.4818 L5.7933,15.9318 L8.0303,18.0728 L11.1873,17.7188 L13.0063,15.7498 L15.1593,18.7278 L16.7333,15.3898 L20.3973,16.3468 L20.1653,14.3438 L21.7083,14.3828 L21.5503,11.1138 L20.2073,10.0878 L19.7713,10.9148 L17.9953,10.3788 L18.6583,8.4028 L14.9413,6.9598 L13.5453,5.7278 Z M9.2084,14.7517 L14.2084,9.7517"/>
    <path fill="#000" d="M9.21,13.75 C9.76228475,13.75 10.21,14.1977153 10.21,14.75 C10.21,15.3022847 9.76228475,15.75 9.21,15.75 C8.65771525,15.75 8.21,15.3022847 8.21,14.75 C8.21,14.1977153 8.65771525,13.75 9.21,13.75 Z M14.21,8.74 C14.7622847,8.74 15.21,9.18771525 15.21,9.74 C15.21,10.2922847 14.7622847,10.74 14.21,10.74 C13.6577153,10.74 13.21,10.2922847 13.21,9.74 C13.21,9.18771525 13.6577153,8.74 14.21,8.74 Z"/>
  </g>
</svg>
