<svg xmlns="http://www.w3.org/2000/svg" width="24" height="24" viewBox="0 0 24 24">
  <g fill="none" fill-rule="evenodd">
    <path fill="#000" d="M13.5,5.0002 C13.5,5.8282 12.829,6.5002 12,6.5002 C11.171,6.5002 10.5,5.8282 10.5,5.0002 C10.5,4.1712 11.171,3.5002 12,3.5002 C12.829,3.5002 13.5,4.1712 13.5,5.0002 Z M13.5,12.0002 C13.5,12.8282 12.829,13.5002 12,13.5002 C11.171,13.5002 10.5,12.8282 10.5,12.0002 C10.5,11.1712 11.171,10.5002 12,10.5002 C12.829,10.5002 13.5,11.1712 13.5,12.0002 Z M13.5,18.9997 C13.5,19.8287 12.829,20.4997 12,20.4997 C11.171,20.4997 10.5,19.8287 10.5,18.9997 C10.5,18.1717 11.171,17.4997 12,17.4997 C12.829,17.4997 13.5,18.1717 13.5,18.9997 Z"/>
    <path stroke="#000" d="M13.5,5.0002 C13.5,5.8282 12.829,6.5002 12,6.5002 C11.171,6.5002 10.5,5.8282 10.5,5.0002 C10.5,4.1712 11.171,3.5002 12,3.5002 C12.829,3.5002 13.5,4.1712 13.5,5.0002 Z M13.5,12.0002 C13.5,12.8282 12.829,13.5002 12,13.5002 C11.171,13.5002 10.5,12.8282 10.5,12.0002 C10.5,11.1712 11.171,10.5002 12,10.5002 C12.829,10.5002 13.5,11.1712 13.5,12.0002 Z M13.5,18.9997 C13.5,19.8287 12.829,20.4997 12,20.4997 C11.171,20.4997 10.5,19.8287 10.5,18.9997 C10.5,18.1717 11.171,17.4997 12,17.4997 C12.829,17.4997 13.5,18.1717 13.5,18.9997 Z"/>
  </g>
</svg>
