<svg xmlns="http://www.w3.org/2000/svg" width="24" height="24" viewBox="0 0 24 24">
  <path fill="none" stroke="#000" d="M11.4995,12.5 L11.4985,6.501 C11.4985,5.948 11.9465,5.5 12.4995,5.5 C13.0525,5.5 13.5005,5.948 13.5005,6.501 L13.4995,13.001 M15.5,12.5015 C15.5,11.9485 15.948,11.5005 16.501,11.5005 C17.055,11.5005 17.503,11.9485 17.503,12.5015 C17.503,12.5015 17.5,13.0625 17.5,16.0005 C17.5,18.9375 16.6,20.5005 16.6,20.5005 L9.5,20.5005 C9.5,20.5005 6.105,14.7415 5.793,14.2095 C5.481,13.6775 5.402,13.1845 5.793,12.7935 C6.185,12.4025 6.818,12.4025 7.209,12.7935 L9.499,15.0845 L9.5,15.0845 L9.5,12.5005 L9.498,7.5015 C9.498,6.9485 9.947,6.5005 10.5,6.5005 C11.053,6.5005 11.501,6.9485 11.501,7.5015 L11.5,13.0075 M13.4971,11.4985 C13.4971,10.9455 13.9451,10.4975 14.4981,10.4975 C15.0521,10.4975 15.5001,10.9455 15.5001,11.4985 L15.5001,13.0005 M15,8.1523 C15.316,7.6803 15.5,7.1123 15.5,6.5003 C15.5,4.8423 14.157,3.5003 12.5,3.5003 C11.604,3.5003 10.808,3.9013 10.259,4.5243 C8.716,4.6493 7.5,5.9253 7.5,7.5003 C7.5,8.1083 7.684,8.6713 7.994,9.1433"/>
</svg>
