<svg xmlns="http://www.w3.org/2000/svg" width="48" height="48" viewBox="0 0 48 48">
  <path fill="none" stroke="#000" d="M30.5,20.4092 C30.5,19.3592 31.336,18.5002 32.357,18.5002 L41.643,18.5002 C42.664,18.5002 43.5,19.3592 43.5,20.4092 L43.5,37.5912 C43.5,38.6402 42.664,39.5002 41.643,39.5002 L32.357,39.5002 C31.336,39.5002 30.5,38.6402 30.5,37.5912 L30.5,20.4092 Z M36,37.5 L38,37.5 M30.5,35.5 L43.5,35.5 M35,20.5 L39,20.5 M29,34.5 L6.493,34.5 C5.392,34.5 4.5,33.607 4.5,32.508 L4.5,31.5 L29,31.5 M29,31.5 L7.5,31.5 L7.438,10.503 C7.438,9.397 8.334,8.5 9.441,8.5 L38.496,8.5 C39.604,8.5 40.5,9.397 40.5,10.503 L40.5,17 M9.5,31.5 L9.5,10.5 L38.5,10.5 L38.5,17"/>
</svg>
