<svg xmlns="http://www.w3.org/2000/svg" width="24" height="24" viewBox="0 0 24 24">
  <path fill="none" stroke="#000" d="M5.5,18.4997 L4,18.4997 L5.5,18.4997 L5.5,15.4997 L5.502,15.4997 L5.5,15.4997 L5.5,18.4997 Z M5.5,18.4997 L5.502,18.4997 L5.5,18.4997 L5.5,20.4012 L5.5,18.4997 Z M10.5,9.5002 L7,9.5002 L10.5,9.5002 L10.5,6.5002 L7,6.5002 L10.5,6.5002 L10.5,4.0002 L10.5,6.5002 L12,6.5002 L10.5,6.5002 L10.5,9.5002 L11.718,9.5002 L10.5,9.5002 L10.5,11.3562 L10.5,9.5002 Z M5.5,15.4997 L4,15.4997 L5.5,15.4997 L5.5,4.0002 L5.5,15.4997 Z M4,6.5002 L5.5,6.5002 L4,6.5002 Z M4,9.5002 L5.5,9.5002 L4,9.5002 Z M7,12.4948 L9.747,12.4948 L7,12.4948 Z M4,12.5002 L5.5,12.5002 L4,12.5002 Z M13.6855,6.5002 L12.9995,6.5002 L13.6855,6.5002 Z M7,15.4948 L7.776,15.4948 L7,15.4948 Z M10,15.4997 L15,15.4997 L10,15.4997 Z M12,12.5002 L17,12.5002 L12,12.5002 Z M14,9.5002 L19,9.5002 L14,9.5002 Z M16,6.5002 L21,6.5002 L16,6.5002 Z M8,18.4997 L13,18.4997 L8,18.4997 Z M10.5,18.4997 L10.5,20.4007 L10.5,18.4997 Z M15,4.5002 L5.498,18.9622 M21,4.5002 L10.497,19.4482"/>
</svg>
