<svg xmlns="http://www.w3.org/2000/svg" width="36" height="36" viewBox="0 0 36 36">
  <g fill="none" fill-rule="evenodd">
    <path stroke="#000" d="M6.75,27.74955 L6.75,30.74955 L11.25,30.74955 L11.25,27.74955 M24.7515,27.74955 L24.7515,30.74955 L29.25,30.74955 L29.25,27.74955 M25.5,8.2503 L10.5,8.2503 M29.25,17.25105 L6.75,17.25105 M11.25,23.99955 C11.25,23.58705 10.914,23.24955 10.5,23.24955 C10.086,23.24955 9.75,23.58705 9.75,23.99955 C9.75,24.41355 10.086,24.74955 10.5,24.74955 C10.914,24.74955 11.25,24.41355 11.25,23.99955 Z M26.25,23.99955 C26.25,23.58705 25.914,23.24955 25.5,23.24955 C25.086,23.24955 24.75,23.58705 24.75,23.99955 C24.75,24.41355 25.086,24.74955 25.5,24.74955 C25.914,24.74955 26.25,24.41355 26.25,23.99955 Z M25.5,5.2503 C28.059,5.2503 29.25,6.4413 29.25,9.0003 L29.25,27.7503 L6.75,27.7503 L6.75,9.0003 C6.75,6.4413 7.941,5.2503 10.5,5.2503 L25.5,5.2503 Z M6.75,14.2503 L5.25,14.2503 L5.25,15.7503 L6.75,15.7503 M29.25,15.7503 L30.75,15.7503 L30.75,14.2503 L29.25,14.2503"/>
    <polygon fill="#000" points="19.2 19.5 21.601 21.75 18.75 21.75 18.75 19.5 17.25 19.5 17.25 21.75 14.4 21.75 16.8 19.5 15 19.5 12 22.5 15 25.5 16.8 25.5 14.4 23.25 17.25 23.25 17.25 25.5 18.75 25.5 18.75 23.25 21.601 23.25 19.2 25.5 21 25.5 24 22.5 21 19.5"/>
  </g>
</svg>
