<svg xmlns="http://www.w3.org/2000/svg" width="36" height="36" viewBox="0 0 36 36">
  <path fill="none" stroke="#000" d="M27.75,25.49955 C27.75,25.08705 27.414,24.74955 27,24.74955 C26.586,24.74955 26.25,25.08705 26.25,25.49955 C26.25,25.91355 26.586,26.24955 27,26.24955 C27.414,26.24955 27.75,25.91355 27.75,25.49955 Z M11.25,29.24955 L11.25,32.24955 L15.75,32.24955 L15.75,29.24955 M26.2515,29.24955 L26.2515,32.24955 L30.75,32.24955 L30.75,29.24955 M33,20.25105 L30.75,20.25105 M30.75,21.75105 L18,21.75105 M27.75,21.74955 C27.75,20.09355 26.406,18.74955 24.75,18.74955 C23.094,18.74955 21.75,20.09355 21.75,21.74955 M15,24.74955 C14.586,24.74955 14.25,25.08555 14.25,25.49955 C14.25,25.91355 14.586,26.24955 15,26.24955 C15.414,26.24955 15.75,25.91355 15.75,25.49955 C15.75,25.08555 15.414,24.74955 15,24.74955 Z M11.25,28.49955 L11.25,29.24955 L30.75,29.24955 L30.75,17.99955 C30.75,15.44205 29.559,14.24955 27,14.24955 L25.5,14.24955 M20.25,8.24955 L21.6555,11.34405 M28.5,7.49955 L6,29.99955 M9,9.74955 C11.895,9.74955 14.25,12.10455 14.25,14.99955 C14.25,17.89605 11.895,20.24955 9,20.24955 C6.105,20.24955 3.75,17.89605 3.75,14.99955 C3.75,12.10455 6.105,9.74955 9,9.74955 M9,14.99955 L12,8.24955 L20.25,8.24955 L23.25,3.74955 L18,3.74955 M9.31275,5.24955 L13.50075,5.24955"/>
</svg>
