<svg xmlns="http://www.w3.org/2000/svg" width="36" height="36" viewBox="0 0 36 36">
  <g fill="none" fill-rule="evenodd">
    <path stroke="#000" d="M4.50225,27.75105 L31.50375,27.75105 L4.50225,27.75105 Z M4.50225,8.2503 L31.50375,8.2503 L4.50225,8.2503 Z"/>
    <path fill="#000" d="M15.14055,11.9967 L10.43655,16.7427 L15.58305,23.9982 L12.27555,23.9982 L8.63055,18.6132 L7.12005,20.1237 L7.12005,23.9982 L4.50105,23.9982 L4.50105,11.9967 L7.12005,11.9967 L7.12005,16.9632 L11.82405,11.9967 L15.14055,11.9967 Z M14.0208,18.15705 L16.3338,18.15705 L16.3338,15.84405 L17.6598,15.84405 L17.6598,18.15705 L19.9803,18.15705 L19.9803,19.48155 L17.6598,19.48155 L17.6598,21.79455 L16.3338,21.79455 L16.3338,19.48155 L14.0208,19.48155 L14.0208,18.15705 Z M20.9196,11.9967 L26.7321,11.9967 C27.8811,11.9967 28.7616,12.1782 29.3751,12.5382 C29.8836,12.8337 30.2721,13.2282 30.5406,13.7202 C30.8091,14.2137 30.9441,14.7687 30.9441,15.3867 C30.9441,16.0887 30.7746,16.6977 30.4386,17.2182 C30.1011,17.7387 29.6316,18.1107 29.0301,18.3342 C29.5611,18.4647 29.9766,18.7617 30.2781,19.2207 C30.4701,19.5117 30.5976,19.8147 30.6636,20.1327 C30.7296,20.4492 30.8151,21.1737 30.9186,22.3077 C30.9951,23.1387 31.1136,23.6562 31.2711,23.8587 L31.3851,23.9982 L28.6521,23.9982 C28.5606,23.8287 28.4931,23.6127 28.4511,23.3487 C28.4106,23.0877 28.3566,22.4787 28.2921,21.5262 C28.2261,20.6787 28.0191,20.0907 27.6711,19.7667 C27.3231,19.4412 26.7321,19.2777 25.8936,19.2777 L23.5386,19.2777 L23.5386,23.9982 L20.9196,23.9982 L20.9196,11.9967 Z M23.5386,14.0577 L23.5386,17.3577 L26.0421,17.3577 C26.8461,17.3577 27.4131,17.2422 27.7416,17.0127 C28.1571,16.7232 28.3656,16.2852 28.3656,15.6987 C28.3656,15.1302 28.1886,14.7132 27.8316,14.4522 C27.4761,14.1882 26.9151,14.0577 26.1486,14.0577 L23.5386,14.0577 Z"/>
  </g>
</svg>
