<svg xmlns="http://www.w3.org/2000/svg" width="29" height="16" viewBox="0 0 29 16">
  <g fill="none" fill-rule="evenodd">
    <path fill="#000" d="M5.8408,6.6777 L6.9418,6.6777 C8.3618,6.6777 9.9028,6.2787 9.9028,4.6377 C9.9028,3.2977 8.6218,3.2377 7.5618,3.2377 L6.5808,3.2377 L5.8408,6.6777 Z M4.5608,12.7997 L5.5208,12.7997 C7.2408,12.7997 9.1618,12.5997 9.1618,10.4397 C9.1618,8.9787 7.8018,8.7587 6.3008,8.7587 L5.4018,8.7587 L4.5608,12.7997 Z M4.3408,1.0367 L8.4818,1.0367 C10.6618,1.0367 12.7018,1.8367 12.7018,4.3777 C12.7018,6.0777 11.3418,7.4387 9.7218,7.6987 L9.7218,7.7387 C11.2818,7.9787 11.9618,9.1787 11.9618,10.6787 C11.9618,14.6797 7.4818,14.9997 5.4018,14.9997 L1.4198,14.9997 L4.3408,1.0367 Z"/>
    <polygon fill="#000" points="19.641 1.037 18.461 6.518 18.501 6.518 24.042 1.037 27.944 1.037 20.882 7.398 25.383 15 22.042 15 18.162 7.898 16.641 15 13.84 15 16.841 1.037"/>
  </g>
</svg>
