<svg xmlns="http://www.w3.org/2000/svg" width="25" height="16" viewBox="0 0 25 16">
  <path fill-rule="evenodd" d="M11.4023 3.7178C10.5823 3.2978 9.5213 2.9968 8.5023 2.9968 7.5013 2.9968 6.1613 3.3978 6.1613 4.5978 6.1613 6.8378 10.9223 6.6978 10.9223 10.5788 10.9223 13.9998 8.2413 15.2398 5.1803 15.2398 3.8403 15.2398 2.4603 14.9198 1.2003 14.4598L1.9203 12.0788C3.0003 12.5788 4.1403 13.0398 5.3403 13.0398 6.6813 13.0398 8.0023 12.3598 8.0023 10.8598 8.0023 8.3388 3.2403 8.7388 3.2403 5.0178 3.2403 2.0768 5.7603.7968 8.4413.7968 9.6623.7968 10.9223.9568 12.0623 1.4168L11.4023 3.7178zM16.9609 6.6777L18.0619 6.6777C19.4819 6.6777 21.0229 6.2787 21.0229 4.6377 21.0229 3.2977 19.7419 3.2377 18.6819 3.2377L17.7009 3.2377 16.9609 6.6777zM15.6809 12.7997L16.6409 12.7997C18.3609 12.7997 20.2819 12.5997 20.2819 10.4397 20.2819 8.9787 18.9219 8.7587 17.4209 8.7587L16.5219 8.7587 15.6809 12.7997zM15.4609 1.0367L19.6019 1.0367C21.7819 1.0367 23.8219 1.8367 23.8219 4.3777 23.8219 6.0777 22.4619 7.4387 20.8419 7.6987L20.8419 7.7387C22.4019 7.9787 23.0819 9.1787 23.0819 10.6787 23.0819 14.6797 18.6019 14.9997 16.5219 14.9997L12.5399 14.9997 15.4609 1.0367z"/>
</svg>
