<svg xmlns="http://www.w3.org/2000/svg" width="28" height="16" viewBox="0 0 28 16">
  <g fill="none" fill-rule="evenodd">
    <polygon fill="#000" points="7.421 1.037 9.442 5.838 9.482 5.838 13.322 1.037 16.623 1.037 10.842 7.698 14.082 15 11.022 15 8.882 9.398 8.842 9.398 4.481 15 1 15 7.461 7.418 4.4 1.037"/>
    <path fill="#000" d="M20.041,7.498 L21.041,7.498 C22.581,7.498 24.162,6.698 24.162,4.958 C24.162,3.537 23.021,3.237 21.821,3.237 L20.941,3.237 L20.041,7.498 Z M18.44,15 L15.64,15 L18.601,1.037 L20.961,1.037 C23.542,1.037 27.082,1.177 27.082,4.658 C27.082,8.038 24.302,9.699 21.181,9.699 L19.561,9.699 L18.44,15 Z"/>
  </g>
</svg>
