<svg xmlns="http://www.w3.org/2000/svg" width="22" height="16" viewBox="0 0 22 16">
  <g fill="none" fill-rule="evenodd">
    <path fill="#000" d="M7.79240404,4.95881818 L6.74876768,4.95881818 L6.74876768,4.31227273 L9.30058586,4.31227273 L9.30058586,4.95881818 L8.57894949,4.95881818 L8.80549495,5.41063636 L12.7674949,5.41063636 L12.4136768,4.60245455 L11.2809495,4.60245455 L11.2809495,3.93554545 L12.832404,3.93554545 L14.2336768,6.88572727 C14.3914949,6.84245455 14.5302222,6.81063636 14.6485859,6.789 C14.7656768,6.76736364 14.9018586,6.75590909 15.0520404,6.75590909 C15.7902222,6.75590909 16.4214949,7.013 16.9420404,7.52718182 C17.4625859,8.04136364 17.7222222,8.67009091 17.7222222,9.40954545 C17.7222222,10.1439091 17.4638586,10.7688182 16.948404,11.2868182 C16.4291313,11.8060909 15.8029495,12.0644545 15.0622222,12.0644545 C14.3291313,12.0644545 13.7080404,11.8060909 13.1887677,11.2868182 C12.6707677,10.7688182 12.4136768,10.1439091 12.4136768,9.40954545 C12.4136768,8.95645455 12.5167677,8.53645455 12.7254949,8.14572727 C12.9329495,7.75754545 13.2282222,7.43681818 13.6074949,7.18609091 L13.3809495,6.70118182 L10.6254949,9.75954545 L9.00913131,9.75954545 C8.90094949,10.4340909 8.60440404,10.9877273 8.11694949,11.4179091 C7.62822222,11.8493636 7.05040404,12.0644545 6.38222222,12.0644545 C5.64276768,12.0644545 5.0140404,11.8060909 4.49858586,11.2868182 C3.98185859,10.7700909 3.72222222,10.1439091 3.72222222,9.40954545 C3.72222222,8.67645455 3.98185859,8.05027273 4.49858586,7.53227273 C5.01658586,7.01554545 5.64531313,6.75590909 6.3860404,6.75590909 C6.63676768,6.75590909 6.93585859,6.81445455 7.28076768,6.93154545 L8.1640404,5.62827273 L7.79240404,4.95881818 L7.79240404,4.95881818 Z M6.41531313,7.43554545 C5.84767677,7.43554545 5.37040404,7.62518182 4.98222222,8.007 C4.59531313,8.38754545 4.40058586,8.85718182 4.40058586,9.40954545 C4.40058586,9.95681818 4.5940404,10.4239091 4.97713131,10.8095455 C5.36149495,11.1939091 5.82985859,11.3860909 6.38222222,11.3860909 C6.86331313,11.3860909 7.28458586,11.2346364 7.64222222,10.933 C8.00113131,10.6326364 8.22767677,10.2419091 8.32185859,9.75954545 L6.21931313,9.75954545 L5.85276768,9.09263636 L6.8900404,7.52081818 C6.73731313,7.46354545 6.57949495,7.43554545 6.41531313,7.43554545 L6.41531313,7.43554545 Z M6.66349495,9.08245455 L8.32185859,9.08245455 L8.20349495,8.66245455 C8.05331313,8.29718182 7.82167677,8.01590909 7.50731313,7.81481818 L6.66349495,9.08245455 L6.66349495,9.08245455 Z M8.57894949,7.93063636 C8.71513131,8.12409091 8.81185859,8.29590909 8.87040404,8.44736364 C8.92767677,8.59754545 8.97349495,8.80881818 9.00913131,9.08245455 L9.98022222,9.08245455 L8.5140404,6.30281818 L7.89040404,7.24081818 C8.04822222,7.363 8.17931313,7.475 8.28367677,7.57427273 C8.38676768,7.67609091 8.4860404,7.79318182 8.57894949,7.93063636 L8.57894949,7.93063636 Z M9.15549495,6.06609091 L10.606404,8.81645455 L13.084404,6.06609091 L9.15549495,6.06609091 L9.15549495,6.06609091 Z M13.0933131,9.40954545 C13.0933131,9.95681818 13.2829495,10.4226364 13.6685859,10.8095455 C14.0516768,11.1939091 14.5162222,11.3860909 15.0609495,11.3860909 C15.6069495,11.3860909 16.0740404,11.1951818 16.4622222,10.8133636 C16.8491313,10.4315455 17.0438586,9.96445455 17.0438586,9.41081818 C17.0438586,8.85718182 16.8491313,8.38881818 16.4622222,8.007 C16.0765859,7.62518182 15.5993131,7.43554545 15.0354949,7.43554545 C14.9133131,7.43554545 14.8267677,7.43809091 14.7758586,7.44572727 C14.7262222,7.45209091 14.6485859,7.47372727 14.540404,7.50809091 L15.5140404,9.589 L14.8840404,9.89190909 L13.9091313,7.81227273 C13.364404,8.21572727 13.0933131,8.74772727 13.0933131,9.40954545 L13.0933131,9.40954545 Z"/>
    <path fill="#000" d="M1,1 L20.4444444,1 L20.4444444,15 L1,15 L1,1 Z M2.2962963,13.708889 L19.1481481,13.708889 L19.1481481,2.2962963 L2.2962963,2.2962963 L2.2962963,13.708889 Z"/>
  </g>
</svg>
