<svg xmlns="http://www.w3.org/2000/svg" width="16" height="16" viewBox="0 0 16 16">
  <path fill-rule="evenodd" d="M1,1 L14.9045601,1 L14.9045601,15 L1,15 L1,1 Z M2.26405092,13.7272727 L13.6405092,13.7272727 L13.6405092,2.27272727 L2.26405092,2.27272727 L2.26405092,13.7272727 Z M5.42544227,3.54545455 L8.18612948,3.54545455 C9.03051549,3.54545455 9.68023766,3.74527273 10.1390881,4.14363636 C10.5966746,4.54454545 10.8242037,5.11218182 10.8242037,5.84909091 C10.8242037,7.03654545 10.2490606,7.748 9.10003829,7.98472727 C9.36422493,8.04709091 9.56268093,8.15272727 9.69414222,8.30672727 C9.82686757,8.46072727 9.95327266,8.71145455 10.0746216,9.06018182 L11.2489249,12.4545455 L9.53613586,12.4545455 L8.64750806,9.55018182 C8.45663637,8.92654545 8.05214008,8.61472727 7.43149108,8.61472727 L7.0421634,8.61472727 L7.0421634,12.4545455 L5.42544227,12.4545455 L5.42544227,3.54545455 L5.42544227,3.54545455 Z M7.14834367,7.32418182 L7.71337443,7.32418182 C8.17096087,7.32418182 8.52363107,7.20454545 8.77391315,6.96272727 C9.02166714,6.72218182 9.14680818,6.38618182 9.14680818,5.95727273 C9.14680818,5.49527273 9.0380998,5.172 8.82194709,4.98109091 C8.60705843,4.79145455 8.24427582,4.696 7.7323352,4.696 L7.0421634,4.696 L7.0421634,7.32290909 L7.14834367,7.32290909 L7.14834367,7.32418182 L7.14834367,7.32418182 Z"/>
</svg>
