<svg xmlns="http://www.w3.org/2000/svg" width="27" height="16" viewBox="0 0 27 16">
  <g fill="none" fill-rule="evenodd">
    <polygon fill="#000" points="3.16 1.037 13.942 1.037 13.482 3.237 9.542 3.237 7.001 15 4.081 15 6.621 3.237 2.681 3.237"/>
    <path fill="#000" d="M24.9033,3.8174 C24.2623,3.3784 23.2023,2.9974 21.7023,2.9974 C18.6013,2.9974 16.4213,5.3384 16.4213,8.6184 C16.4213,10.9594 17.9413,13.0404 20.4023,13.0404 C21.5823,13.0404 22.5423,12.6594 23.3423,12.1794 L22.9023,14.8604 C21.8823,15.1394 20.8013,15.2404 19.7423,15.2404 C15.5203,15.2404 13.5003,12.3994 13.5003,8.6184 C13.5003,4.1174 16.5613,0.7964 21.5023,0.7964 C22.9023,0.7964 24.3823,0.9764 25.6023,1.4774 L24.9033,3.8174 Z"/>
  </g>
</svg>
