<svg xmlns="http://www.w3.org/2000/svg" width="25" height="16" viewBox="0 0 25 16">
  <g fill="none" fill-rule="evenodd">
    <polygon fill="#000" points="4.501 1.037 8.041 1.037 11.022 11.64 11.063 11.64 13.343 1.037 15.983 1.037 12.963 15 9.361 15 6.441 4.298 6.401 4.298 4.181 15 1.5 15"/>
    <path fill="#000" d="M23.6611,1.0371 L21.7011,10.5191 C21.1611,13.3191 20.2611,15.2401 17.0991,15.2401 C16.3191,15.2401 15.5191,15.1601 14.7601,14.9601 L15.3991,12.5791 C15.7391,12.6991 16.1801,12.8001 16.6801,12.8001 C18.1601,12.8001 18.6401,11.7201 18.9001,10.4391 L20.8601,1.0371 L23.6611,1.0371 Z"/>
  </g>
</svg>
