<svg xmlns="http://www.w3.org/2000/svg" width="27" height="16" viewBox="0 0 27 16">
  <path fill-rule="evenodd" d="M5.8408 6.6777L6.9418 6.6777C8.3618 6.6777 9.9028 6.2787 9.9028 4.6377 9.9028 3.2977 8.6218 3.2377 7.5618 3.2377L6.5808 3.2377 5.8408 6.6777zM4.5608 12.7997L5.5208 12.7997C7.2408 12.7997 9.1618 12.5997 9.1618 10.4397 9.1618 8.9787 7.8018 8.7587 6.3008 8.7587L5.4018 8.7587 4.5608 12.7997zM4.3408 1.0367L8.4818 1.0367C10.6618 1.0367 12.7018 1.8367 12.7018 4.3777 12.7018 6.0777 11.3418 7.4387 9.7218 7.6987L9.7218 7.7387C11.2818 7.9787 11.9618 9.1787 11.9618 10.6787 11.9618 14.6797 7.4818 14.9997 5.4018 14.9997L1.4198 14.9997 4.3408 1.0367zM18.1611 6.998L19.1811 6.998C20.6821 6.998 22.5021 6.538 22.5021 4.698 22.5021 3.237 21.2411 3.237 20.1011 3.237L18.9411 3.237 18.1611 6.998zM16.5601 1.037L19.8611 1.037C22.4411 1.037 25.4221.997 25.4221 4.338 25.4221 6.738 23.6221 8.019 21.3421 8.059L21.3421 8.099C22.1011 8.139 22.5821 8.618 22.7621 9.379L24.1011 15 21.1611 15 20.4811 11.72C20.1611 10.239 20.2411 9.199 18.7211 9.199L17.6611 9.199 16.4401 15 13.6401 15 16.5601 1.037z"/>
</svg>
