<?xml version="1.0" encoding="utf-8"?>
<!-- Generator: Adobe Illustrator 16.0.4, SVG Export Plug-In . SVG Version: 6.00 Build 0)  -->
<!DOCTYPE svg PUBLIC "-//W3C//DTD SVG 1.1//EN" "http://www.w3.org/Graphics/SVG/1.1/DTD/svg11.dtd">
<svg version="1.1" xmlns="http://www.w3.org/2000/svg" xmlns:xlink="http://www.w3.org/1999/xlink" x="0px" y="0px"
	 width="24px" height="24px" viewBox="0 0 24 24" enable-background="new 0 0 24 24" xml:space="preserve">
<path d="M16.881,11.1l-2.2-1l-1.399-2.9c0-0.1-0.101-0.2-0.101-0.3V6.8c-0.1-0.2-0.199-0.3-0.399-0.4s-0.4-0.2-0.6-0.3
	c-0.1,0-0.3,0-0.399,0c-0.1,0-0.2,0-0.4,0.1c-0.2,0.1-0.4,0.1-0.5,0.3l-3.5,1.8c-0.1,0-0.1,0.1-0.2,0.1c-0.1,0.1-0.2,0.3-0.3,0.4
	l-0.5,2.7c0,0.4,0.2,0.7,0.5,0.8c0.3,0.1,0.7-0.2,0.7-0.5l0.5-2.6l1.8-0.9l-0.8,3.5c0,0.1,0,0.2,0,0.3l-0.5,3.701c0,0,0,0,0,0.1
	l-2.4,3.6c-0.3,0.4-0.2,1,0.1,1.199c0.3,0.201,0.9,0,1.2-0.398l2.4-3.602c0.1-0.1,0.1-0.199,0.2-0.398c0-0.102,0.1-0.102,0.1-0.201
	l0.4-2.699c0.1,0,0.1,0,0.2,0c0.2,0,0.3,0.1,0.5,0.199l2.5,2.9l0.8,3.6c0.1,0.5,0.5,0.701,0.9,0.701c0.399-0.102,0.699-0.5,0.6-1
	l-0.8-3.602c0-0.1-0.101-0.299-0.2-0.398l-0.1-0.102l-2.6-3l0.7-3.099l0.6,1.2c0,0,0,0.1,0.101,0.1c0,0.2,0.2,0.3,0.3,0.4l2.4,1
	c0.3,0.1,0.699,0,0.8-0.3C17.281,11.6,17.181,11.2,16.881,11.1z M12.581,3c0.9,0,1.6,0.7,1.6,1.5c0,0.8-0.699,1.6-1.6,1.6
	c-0.899,0-1.6-0.7-1.6-1.5C10.981,3.8,11.782,3,12.581,3z"/>
</svg>
