<?xml version="1.0" encoding="utf-8"?>
<!-- Generator: Adobe Illustrator 21.1.0, SVG Export Plug-In . SVG Version: 6.00 Build 0)  -->
<svg version="1.1" id="Layer_1" xmlns="http://www.w3.org/2000/svg" xmlns:xlink="http://www.w3.org/1999/xlink" x="0px" y="0px"
	 viewBox="0 0 22 13" style="enable-background:new 0 0 22 13;" xml:space="preserve">
<path d="M4.1,6H5c1.4,0,2.9-0.7,2.9-2.4C7.9,2.3,6.9,2,5.8,2H4.9C4.9,2,4.1,6,4.1,6z M2.6,13H0L2.8,0H5c2.4,0,5.7,0.1,5.7,3.4
	c0,3.1-2.6,4.7-5.5,4.7H3.7L2.6,13z M14.6,5.5h0.9c1.4,0,3.1-0.4,3.1-2.1C18.6,2,17.4,2,16.4,2h-1.1C15.3,2,14.6,5.5,14.6,5.5z
	 M13.1,0h3.1c2.4,0,5.2,0,5.2,3.1c0,2.2-1.7,3.4-3.8,3.5v0c0.7,0,1.2,0.5,1.3,1.2l1.2,5.2h-2.7l-0.6-3.1c-0.3-1.4-0.2-2.3-1.6-2.3
	h-1L13,13h-2.6C10.4,13,13.1,0,13.1,0z"/>
</svg>
