<?xml version="1.0" encoding="utf-8"?>
<!-- Generator: Adobe Illustrator 21.1.0, SVG Export Plug-In . SVG Version: 6.00 Build 0)  -->
<svg version="1.1" id="Layer_1" xmlns="http://www.w3.org/2000/svg" xmlns:xlink="http://www.w3.org/1999/xlink" x="0px" y="0px"
	 viewBox="0 0 26 13" style="enable-background:new 0 0 26 13;" xml:space="preserve">
<path d="M21.7,10.5v0.1c0,0.7-0.2,1.2-0.7,1.7c-0.5,0.5-1.1,0.7-1.8,0.7c-0.7,0-1.3-0.2-1.8-0.7c-0.5-0.5-0.7-1-0.7-1.6v-0.1h-1.8
	v0.1c0,0.7-0.2,1.2-0.7,1.7c-0.5,0.5-1.1,0.7-1.8,0.7c-0.7,0-1.3-0.2-1.8-0.7c-0.5-0.5-0.7-1-0.7-1.6v-0.1H8v0.1
	c0,0.7-0.2,1.2-0.7,1.7C6.8,12.8,6.2,13,5.5,13c-0.7,0-1.3-0.2-1.8-0.7c-0.5-0.5-0.7-1-0.7-1.7l0-0.1H0V7.4h4.7V4.1H0V1.9h8v3.2h9.6
	V0h2.4v5.1h3.8l1.8,5.5H21.7"/>
</svg>
