<?xml version="1.0" encoding="utf-8"?>
<!-- Generator: Adobe Illustrator 21.1.0, SVG Export Plug-In . SVG Version: 6.00 Build 0)  -->
<svg version="1.1" id="Layer_1" xmlns="http://www.w3.org/2000/svg" xmlns:xlink="http://www.w3.org/1999/xlink" x="0px" y="0px"
	 viewBox="0 0 23 13" style="enable-background:new 0 0 23 13;" xml:space="preserve">
<path d="M2.1,12.3c-0.3-0.5-0.6-0.9-0.8-1.3c-0.2-0.4-0.5-0.9-0.8-1.7C0.2,8.6,0,7.6,0,6.5c0-1.1,0.2-2,0.5-2.9
	c0.4-0.8,0.9-1.8,1.6-2.9h1.2C2.9,1.4,2.6,1.9,2.4,2.3C2.2,2.7,2,3.3,1.7,4C1.4,4.8,1.3,5.6,1.3,6.5c0,1,0.2,1.8,0.5,2.6
	c0.3,0.8,0.5,1.3,0.7,1.7c0.2,0.3,0.5,0.8,0.8,1.5L2.1,12.3C2.1,12.3,2.1,12.3,2.1,12.3z M8.4,8.2l-1.8-2l-0.8-1
	C5.4,4.6,5.2,4,5.2,3.2c0-1,0.4-2,1.1-2.9l0.2-0.2L6.6,0l4.5,5.1l0-1.9L14.6,0l0.8,0.9l-3.1,2.8l0,1.5l3.8-3.5L17,2.6l-3.8,3.5
	l1.5,0.1l3.1-2.8l0.8,0.9l-3.5,3.2l-2-0.1l3.8,4.3L15.3,13l-4-4.5l-0.1-0.3l-0.1,0.3L6.2,13l-1.4-1.5C4.8,11.5,8.4,8.2,8.4,8.2z
	 M6.7,2.3C6.6,2.4,6.6,2.6,6.6,2.7c0,0.1,0,0.3,0,0.4c0,0.6,0.2,1.2,0.7,1.7l0.5,0.5l1.7,1.9l1-0.9L6.8,2.3L6.7,2
	C6.7,2,6.7,2.3,6.7,2.3z M20.5,0.7c0.6,1,1.2,1.9,1.6,2.8c0.4,0.9,0.6,1.9,0.6,3c0,0.5-0.1,1.1-0.2,1.6c-0.1,0.5-0.3,1-0.5,1.5
	c-0.2,0.5-0.4,0.9-0.6,1.2c-0.2,0.3-0.5,0.8-0.9,1.5h-1.2c0.4-0.7,0.7-1.2,0.9-1.6c0.2-0.4,0.4-1,0.7-1.7c0.3-0.7,0.4-1.6,0.4-2.5
	c0-1-0.1-1.8-0.4-2.6s-0.5-1.3-0.7-1.7c-0.2-0.4-0.5-0.9-0.9-1.5C19.3,0.7,20.5,0.7,20.5,0.7z"/>
</svg>
