<?xml version="1.0" encoding="utf-8"?>
<!-- Generator: Adobe Illustrator 21.1.0, SVG Export Plug-In . SVG Version: 6.00 Build 0)  -->
<svg version="1.1" id="Layer_1" xmlns="http://www.w3.org/2000/svg" xmlns:xlink="http://www.w3.org/1999/xlink" x="0px" y="0px"
	 viewBox="0 0 24 13" style="enable-background:new 0 0 24 13;" xml:space="preserve">
<path d="M9.2,2.6C8.4,2.3,7.5,2,6.6,2C5.7,2,4.5,2.3,4.5,3.4c0,2,4.3,1.9,4.3,5.4c0,3.1-2.4,4.2-5.2,4.2c-1.2,0-2.4-0.3-3.6-0.7
	l0.6-2.1c1,0.5,2,0.9,3.1,0.9c1.2,0,2.4-0.6,2.4-2c0-2.3-4.3-1.9-4.3-5.3C1.8,1.2,4.1,0,6.5,0c1.1,0,2.2,0.1,3.3,0.6
	C9.8,0.6,9.2,2.6,9.2,2.6z M11.8,0.2h2.5l1.2,9.8h0l5.2-9.8h2.7l-7,12.6h-3"/>
</svg>
