<?xml version="1.0" encoding="utf-8"?>
<!-- Generator: Adobe Illustrator 21.1.0, SVG Export Plug-In . SVG Version: 6.00 Build 0)  -->
<svg version="1.1" id="Layer_1" xmlns="http://www.w3.org/2000/svg" xmlns:xlink="http://www.w3.org/1999/xlink" x="0px" y="0px"
	 viewBox="0 0 22 13" style="enable-background:new 0 0 22 13;" xml:space="preserve">
<path d="M3.1,7.6L0,0h2.8l1.9,5.5L8.9,0h3L5.7,7.6L4.5,13H1.9 M14.9,5.3h1c1.3,0,2.8-0.4,2.8-1.9c0-1.2-1.2-1.3-2.2-1.3h-0.9
	L14.9,5.3z M13.7,11h0.9c1.6,0,3.4-0.2,3.4-2.2c0-1.4-1.3-1.6-2.7-1.6h-0.8L13.7,11z M13.5,0h3.9c2,0,3.9,0.7,3.9,3.1
	c0,1.6-1.3,2.8-2.8,3.1v0C20,6.5,20.6,7.6,20.6,9c0,3.7-4.2,4-6.1,4h-3.7L13.5,0z"/>
</svg>
