<?xml version="1.0" encoding="utf-8"?>
<!-- Generator: Adobe Illustrator 21.1.0, SVG Export Plug-In . SVG Version: 6.00 Build 0)  -->
<svg version="1.1" id="Layer_1" xmlns="http://www.w3.org/2000/svg" xmlns:xlink="http://www.w3.org/1999/xlink" x="0px" y="0px"
	 viewBox="0 0 25 13" style="enable-background:new 0 0 25 13;" xml:space="preserve">
<path d="M6,0l1.9,4.5h0L11.5,0h3.1L9.2,6.2l3,6.8H9.3l-2-5.2h0L3.2,13H0l6-7.1L3.2,0 M17.7,6h0.9c1.4,0,2.9-0.7,2.9-2.4
	c0-1.3-1.1-1.6-2.2-1.6h-0.8C18.6,2,17.7,6,17.7,6z M16.2,13h-2.6l2.8-13h2.2c2.4,0,5.7,0.1,5.7,3.4c0,3.1-2.6,4.7-5.5,4.7h-1.5
	L16.2,13z"/>
</svg>
