<?xml version="1.0" encoding="utf-8"?>
<!-- Generator: Adobe Illustrator 16.0.4, SVG Export Plug-In . SVG Version: 6.00 Build 0)  -->
<!DOCTYPE svg PUBLIC "-//W3C//DTD SVG 1.1//EN" "http://www.w3.org/Graphics/SVG/1.1/DTD/svg11.dtd">
<svg version="1.1" xmlns="http://www.w3.org/2000/svg" xmlns:xlink="http://www.w3.org/1999/xlink" x="0px" y="0px"
	 width="24px" height="24px" viewBox="0 0 24 24" enable-background="new 0 0 24 24" xml:space="preserve">
<path d="M12.953,4C9.671,4,7,6.642,7,9.89c0,0.848,0.175,1.656,0.521,2.404c1.489,3.224,4.342,6.625,5.182,7.59
	C12.766,19.957,12.857,20,12.954,20c0.096,0,0.188-0.043,0.251-0.115c0.838-0.965,3.693-4.367,5.182-7.59
	c0.346-0.748,0.521-1.557,0.521-2.404C18.906,6.642,16.236,4,12.953,4 M12.954,12.93c-1.642,0-2.977-1.334-2.977-2.976
	c0-1.642,1.335-2.978,2.977-2.978c1.642,0,2.976,1.336,2.976,2.978C15.932,11.594,14.596,12.93,12.954,12.93"/>
</svg>
