<?xml version="1.0" encoding="utf-8"?>
<!-- Generator: Adobe Illustrator 21.1.0, SVG Export Plug-In . SVG Version: 6.00 Build 0)  -->
<svg version="1.1" id="Layer_1" xmlns="http://www.w3.org/2000/svg" xmlns:xlink="http://www.w3.org/1999/xlink" x="0px" y="0px"
	 viewBox="0 0 22 13" style="enable-background:new 0 0 22 13;" xml:space="preserve">
<path d="M4.2,5.6h0.9c1.4,0,3.1-0.4,3.1-2.1C8.3,2,7.1,2,6,2H4.9C4.9,2,4.2,5.6,4.2,5.6z M2.7,0h3.1C8.2,0,11,0,11,3.1
	c0,2.2-1.7,3.4-3.8,3.5v0c0.7,0,1.2,0.5,1.3,1.2L9.7,13H7L6.4,9.9C6.1,8.6,6.1,7.6,4.7,7.6h-1L2.6,13H0C0,13,2.7,0,2.7,0z M15.5,5.3
	h1c1.3,0,2.8-0.4,2.8-1.9c0-1.2-1.2-1.3-2.2-1.3h-0.9L15.5,5.3z M14.3,11h0.9c1.6,0,3.4-0.2,3.4-2.2c0-1.4-1.3-1.6-2.7-1.6h-0.8
	L14.3,11z M14.1,0H18c2,0,3.9,0.7,3.9,3.1c0,1.6-1.3,2.8-2.8,3.1v0c1.5,0.2,2.1,1.3,2.1,2.7c0,3.7-4.2,4-6.1,4h-3.7L14.1,0z"/>
</svg>
