<?xml version="1.0" encoding="utf-8"?>
<!-- Generator: Adobe Illustrator 21.1.0, SVG Export Plug-In . SVG Version: 6.00 Build 0)  -->
<svg version="1.1" id="Layer_1" xmlns="http://www.w3.org/2000/svg" xmlns:xlink="http://www.w3.org/1999/xlink" x="0px" y="0px"
	 viewBox="0 0 23 13" style="enable-background:new 0 0 23 13;" xml:space="preserve">
<path d="M4.1,5.3h1c1.3,0,2.8-0.4,2.8-1.9C7.9,2.1,6.7,2,5.7,2H4.8C4.8,2,4.1,5.3,4.1,5.3z M2.9,11h0.9c1.6,0,3.4-0.2,3.4-2.2
	c0-1.4-1.3-1.6-2.7-1.6H3.7C3.7,7.2,2.9,11,2.9,11z M2.7,0h3.9c2,0,3.9,0.7,3.9,3.1c0,1.6-1.3,2.8-2.8,3.1v0C9.2,6.5,9.8,7.6,9.8,9
	c0,3.7-4.2,4-6.1,4H0C0,13,2.7,0,2.7,0z M13.7,0h8.9l-0.4,2L14.4,11h5.9l-0.4,2h-9.1l0.4-2L19,2h-5.7"/>
</svg>
