<?xml version="1.0" encoding="utf-8"?>
<!-- Generator: Adobe Illustrator 21.1.0, SVG Export Plug-In . SVG Version: 6.00 Build 0)  -->
<svg version="1.1" id="Layer_1" xmlns="http://www.w3.org/2000/svg" xmlns:xlink="http://www.w3.org/1999/xlink" x="0px" y="0px"
	 viewBox="0 0 28 13" style="enable-background:new 0 0 28 13;" xml:space="preserve">
<path d="M2.8,0h4.3l0.9,9.4h0L13.1,0h4.3l-2.8,13h-2.8l2.5-10.8h0L8.4,13H5.9l-1-10.8h0L2.5,13H0 M21.5,6h0.9c1.4,0,2.9-0.7,2.9-2.4
	c0-1.3-1.1-1.6-2.2-1.6h-0.8C22.3,2,21.5,6,21.5,6z M20,13h-2.6l2.8-13h2.2C24.7,0,28,0.1,28,3.4c0,3.1-2.6,4.7-5.5,4.7H21L20,13z"
	/>
</svg>
