<?xml version="1.0" encoding="utf-8"?>
<!-- Generator: Adobe Illustrator 21.1.0, SVG Export Plug-In . SVG Version: 6.00 Build 0)  -->
<svg version="1.1" id="Layer_1" xmlns="http://www.w3.org/2000/svg" xmlns:xlink="http://www.w3.org/1999/xlink" x="0px" y="0px"
	 viewBox="0 0 13 13" style="enable-background:new 0 0 13 13;" xml:space="preserve">
<path d="M0,0h13v13H0V0z M1.2,11.8h10.6V1.2H1.2V11.8z"/>
<path d="M1.2,11.8l0.3-1.1l3.8-3.9l0.8-0.3L5.3,6.2L1.5,2.3L1.2,1.2l1.1,0.3l3.9,3.9l0.3,0.8l0.3-0.8l3.9-3.9l1.1-0.3l-0.3,1.2
	L7.7,6.2L6.9,6.5l0.8,0.3l3.8,3.9l0.3,1.1l-1.1-0.3L6.8,7.7L6.5,6.9L6.2,7.7l-3.9,3.9L1.2,11.8"/>
</svg>
