<?xml version="1.0" encoding="utf-8"?>
<!-- Generator: Adobe Illustrator 21.1.0, SVG Export Plug-In . SVG Version: 6.00 Build 0)  -->
<svg version="1.1" id="Layer_1" xmlns="http://www.w3.org/2000/svg" xmlns:xlink="http://www.w3.org/1999/xlink" x="0px" y="0px"
	 viewBox="0 0 13 13" style="enable-background:new 0 0 13 13;" xml:space="preserve">
<path d="M0,0h12.9v13H0V0z M1.2,11.8h10.6V1.2H1.2V11.8z M4.1,2.4h2.6c0.8,0,1.4,0.2,1.8,0.6c0.4,0.4,0.6,0.9,0.6,1.6
	c0,1.1-0.5,1.8-1.6,2C7.8,6.5,8,6.6,8.1,6.8c0.1,0.1,0.2,0.4,0.4,0.7l1.1,3.2H7.9L7.1,7.9C6.9,7.4,6.5,7.1,6,7.1H5.6v3.6H4.1
	C4.1,10.6,4.1,2.4,4.1,2.4z M5.7,5.9h0.5c0.4,0,0.8-0.1,1-0.3C7.4,5.3,7.6,5,7.6,4.6c0-0.4-0.1-0.7-0.3-0.9c-0.2-0.2-0.5-0.3-1-0.3
	H5.6L5.7,5.9L5.7,5.9C5.7,5.9,5.7,5.9,5.7,5.9z"/>
</svg>
