<?xml version="1.0" encoding="utf-8"?>
<!-- Generator: Adobe Illustrator 21.1.0, SVG Export Plug-In . SVG Version: 6.00 Build 0)  -->
<svg version="1.1" id="Layer_1" xmlns="http://www.w3.org/2000/svg" xmlns:xlink="http://www.w3.org/1999/xlink" x="0px" y="0px"
	 viewBox="0 0 9 13" style="enable-background:new 0 0 9 13;" xml:space="preserve">
<path d="M6.7,8C6.6,7.5,6.4,7.2,6.2,6.9C6,6.7,5.7,6.6,5.3,6.5C7,6.1,7.8,5.1,7.8,3.4c0-1.1-0.3-1.9-1-2.5C6.2,0.3,5.2,0,4,0H0v13
	h2.3V7.4h0.6c0.9,0,1.5,0.5,1.8,1.4L6,13h2.5L6.7,8z M3.3,5.5h-1V1.7h1c0.7,0,1.3,0.1,1.6,0.4c0.3,0.3,0.5,0.8,0.5,1.4
	c0,0.6-0.2,1.1-0.5,1.5C4.5,5.3,4,5.5,3.3,5.5z"/>
</svg>
