<?xml version="1.0" encoding="utf-8"?>
<!-- Generator: Adobe Illustrator 21.1.0, SVG Export Plug-In . SVG Version: 6.00 Build 0)  -->
<svg version="1.1" id="Layer_1" xmlns="http://www.w3.org/2000/svg" xmlns:xlink="http://www.w3.org/1999/xlink" x="0px" y="0px"
	 viewBox="0 0 21 13" style="enable-background:new 0 0 21 13;" xml:space="preserve">
<path d="M0.4,0.2h9.7l-0.4,2H6.2L3.9,12.8H1.3L3.5,2.2H0 M20,2.7C19.4,2.3,18.5,2,17.1,2c-2.8,0-4.8,2.1-4.8,5.1c0,2.1,1.4,4,3.6,4
	c1.1,0,1.9-0.3,2.6-0.8l-0.4,2.4c-0.9,0.3-1.9,0.3-2.8,0.3c-3.8,0-5.6-2.6-5.6-6c0-4.1,2.8-7,7.2-7c1.3,0,2.6,0.2,3.7,0.6
	C20.6,0.6,20,2.7,20,2.7z"/>
</svg>
