<?xml version="1.0" encoding="utf-8"?>
<!-- Generator: Adobe Illustrator 21.1.0, SVG Export Plug-In . SVG Version: 6.00 Build 0)  -->
<svg version="1.1" id="Layer_1" xmlns="http://www.w3.org/2000/svg" xmlns:xlink="http://www.w3.org/1999/xlink" x="0px" y="0px"
	 viewBox="0 0 22 13" style="enable-background:new 0 0 22 13;" xml:space="preserve">
<path d="M9.2,2.6C8.4,2.3,7.5,2,6.6,2C5.7,2,4.5,2.3,4.5,3.4c0,2,4.3,1.9,4.3,5.4c0,3.1-2.4,4.2-5.2,4.2c-1.2,0-2.4-0.3-3.6-0.7
	l0.6-2.1c1,0.5,2,0.9,3.1,0.9c1.2,0,2.4-0.6,2.4-2c0-2.3-4.3-1.9-4.3-5.3C1.8,1.2,4.1,0,6.5,0c1.1,0,2.2,0.1,3.3,0.6
	C9.8,0.6,9.2,2.6,9.2,2.6z M21.3,2.7C20.8,2.3,19.8,2,18.5,2c-2.8,0-4.8,2.1-4.8,5.1c0,2.1,1.4,4,3.6,4c1.1,0,1.9-0.3,2.6-0.8
	l-0.4,2.4c-0.9,0.3-1.9,0.3-2.8,0.3c-3.8,0-5.6-2.6-5.6-6c0-4.1,2.8-7,7.2-7c1.3,0,2.6,0.2,3.7,0.6C22,0.6,21.3,2.7,21.3,2.7z"/>
</svg>
