<?xml version="1.0" encoding="utf-8"?>
<!-- Generator: Adobe Illustrator 21.1.0, SVG Export Plug-In . SVG Version: 6.00 Build 0)  -->
<svg version="1.1" id="Layer_1" xmlns="http://www.w3.org/2000/svg" xmlns:xlink="http://www.w3.org/1999/xlink" x="0px" y="0px"
	 viewBox="0 0 11 13" style="enable-background:new 0 0 11 13;" xml:space="preserve">
<title>sbb_sa_2</title>
<g>
	<path d="M0,0h10.8v13H0V0z M1.2,11.8h8.4V1.2H1.2C1.2,1.2,1.2,11.8,1.2,11.8z"/>
	<path d="M3,9.4l0.7-0.7c0.9-1.1,1.6-1.9,2-2.4C6,5.7,6.2,5.2,6.2,4.7c0-0.7-0.4-1.1-1.1-1.1c-0.6,0-1.2,0.2-1.7,0.7L3.3,4.4
		L3.2,2.9l0.1-0.1c0.2-0.1,0.3-0.1,0.4-0.2c0.1,0,0.3-0.1,0.6-0.2c0.2-0.1,0.6-0.1,1-0.1c0.8,0,1.4,0.2,1.8,0.5
		c0.4,0.4,0.6,0.9,0.6,1.6c0,0.2,0,0.4-0.1,0.7c0,0.2-0.1,0.5-0.3,0.9C7.2,6.4,6.9,6.9,6.5,7.5C6.1,8.1,5.7,8.7,5.2,9.1L5.1,9.3h2.7
		v1.4H3L3,9.4"/>
</g>
</svg>
