<?xml version="1.0" encoding="utf-8"?>
<!-- Generator: Adobe Illustrator 21.1.0, SVG Export Plug-In . SVG Version: 6.00 Build 0)  -->
<svg version="1.1" id="Layer_1" xmlns="http://www.w3.org/2000/svg" xmlns:xlink="http://www.w3.org/1999/xlink" x="0px" y="0px"
	 viewBox="0 0 22 13" style="enable-background:new 0 0 22 13;" xml:space="preserve">
<path d="M0.4,0.2h9.7l-0.4,2H6.2L3.9,12.8H1.3L3.5,2.2H0 M20.9,2.9C20,2.3,18.8,2,17.4,2c-3.1,0-5,2.4-5,5.4c0,2,1.4,3.7,3.5,3.7
	c0.6,0,1,0,1.2-0.1l0.7-3.3h-2.7l0.4-2h5.1l-1.4,6.9C18.6,12.7,17.2,13,16,13c-3.7,0-6.2-1.7-6.2-5.6c0-4.6,3-7.4,7.5-7.4
	c1.4,0,2.9,0.2,4.2,0.7C21.6,0.7,20.9,2.9,20.9,2.9z"/>
</svg>
