<?xml version="1.0" encoding="utf-8"?>
<!-- Generator: Adobe Illustrator 21.1.0, SVG Export Plug-In . SVG Version: 6.00 Build 0)  -->
<svg version="1.1" id="Layer_1" xmlns="http://www.w3.org/2000/svg" xmlns:xlink="http://www.w3.org/1999/xlink" x="0px" y="0px"
	 viewBox="0 0 19 13" style="enable-background:new 0 0 19 13;" xml:space="preserve">
<path d="M6.3,3.7h-1V3.1h2.4v0.6H7l0.2,0.4h3.7l-0.3-0.8H9.5V2.7H11l1.3,2.7c0.1,0,0.3-0.1,0.4-0.1c0.1,0,0.2,0,0.4,0
	c0.7,0,1.3,0.2,1.8,0.7c0.5,0.5,0.7,1.1,0.7,1.7c0,0.7-0.2,1.3-0.7,1.7c-0.5,0.5-1.1,0.7-1.8,0.7c-0.7,0-1.3-0.2-1.7-0.7
	c-0.5-0.5-0.7-1.1-0.7-1.7c0-0.4,0.1-0.8,0.3-1.2c0.2-0.4,0.5-0.7,0.8-0.9l-0.2-0.5L8.9,8.1H7.4C7.3,8.8,7.1,9.3,6.6,9.7
	c-0.5,0.4-1,0.6-1.6,0.6c-0.7,0-1.3-0.2-1.7-0.7C2.8,9.1,2.5,8.5,2.5,7.8c0-0.7,0.2-1.3,0.7-1.7C3.7,5.6,4.3,5.3,5,5.3
	c0.2,0,0.5,0.1,0.8,0.2l0.8-1.2C6.7,4.3,6.3,3.7,6.3,3.7z M5,6c-0.5,0-1,0.2-1.3,0.5C3.3,6.9,3.2,7.3,3.2,7.8c0,0.5,0.2,0.9,0.5,1.3
	C4,9.5,4.5,9.6,5,9.6c0.4,0,0.8-0.1,1.2-0.4c0.3-0.3,0.5-0.6,0.6-1.1h-2L4.5,7.5l1-1.5C5.3,6,5.2,6,5,6z M5.3,7.5h1.5L6.7,7.1
	C6.5,6.8,6.3,6.5,6,6.3C6,6.3,5.3,7.5,5.3,7.5z M7,6.4c0.1,0.2,0.2,0.3,0.3,0.5c0.1,0.1,0.1,0.3,0.1,0.6h0.9L7,4.9L6.4,5.8
	C6.5,5.9,6.7,6,6.8,6.1C6.9,6.2,7,6.3,7,6.4z M7.6,4.7l1.3,2.6l2.3-2.6C11.2,4.7,7.6,4.7,7.6,4.7z M11.2,7.8c0,0.5,0.2,0.9,0.5,1.3
	c0.4,0.4,0.8,0.5,1.3,0.5c0.5,0,0.9-0.2,1.3-0.5c0.4-0.4,0.5-0.8,0.5-1.3s-0.2-0.9-0.5-1.3C14,6.2,13.6,6,13,6c-0.1,0-0.2,0-0.2,0
	c0,0-0.1,0-0.2,0.1L13.5,8l-0.6,0.3L12,6.3C11.5,6.7,11.2,7.2,11.2,7.8z"/>
<path d="M0,0h18.1v13H0V0z M1.2,11.8h15.6V1.2H1.2C1.2,1.2,1.2,11.8,1.2,11.8z"/>
</svg>
