<?xml version="1.0" encoding="utf-8"?>
<!-- Generator: Adobe Illustrator 21.1.0, SVG Export Plug-In . SVG Version: 6.00 Build 0)  -->
<svg version="1.1" id="Layer_1" xmlns="http://www.w3.org/2000/svg" xmlns:xlink="http://www.w3.org/1999/xlink" x="0px" y="0px"
	 viewBox="0 0 22 13" style="enable-background:new 0 0 22 13;" xml:space="preserve">
<path d="M12.6,1.4h2.2l0.4,0.9L18.9,0l0.9,1.4l-3.9,2.4l0.8,1.6c0.2-0.1,0.4-0.1,0.6-0.1c0.2,0,0.3,0,0.6,0c1,0,1.9,0.4,2.6,1.1
	c0.7,0.7,1.1,1.5,1.1,2.6c0,1-0.4,1.9-1.1,2.6c-0.7,0.7-1.6,1-2.6,1c-1,0-1.9-0.4-2.6-1c-0.7-0.7-1.1-1.6-1.1-2.6
	c0-0.6,0.1-1.2,0.4-1.7c0.3-0.5,0.7-1,1.2-1.3l-0.3-0.7l-3.8,4.2H9.5c-0.1,0.9-0.6,1.7-1.2,2.3c-0.7,0.6-1.5,0.9-2.4,0.9
	c-0.5,0-0.9-0.1-1.3-0.2c-0.4-0.2-0.8-0.4-1.2-0.8L0.9,13L0,11.6l2.5-1.5C2.4,9.8,2.3,9.6,2.3,9.4c0-0.2,0-0.4,0-0.6
	c0-1,0.4-1.8,1.1-2.5C4,5.6,4.9,5.2,5.9,5.2c0.3,0,0.8,0.1,1.2,0.2l1.2-1.8L7.8,2.8H6.4V1.9h3.5v0.9h-1l0.3,0.6l4.2,0l0.9-0.6
	l-0.2-0.5h-1.6C12.6,2.3,12.6,1.4,12.6,1.4z M5.9,6.2C5.2,6.2,4.5,6.4,4,7C3.4,7.5,3.2,8.1,3.2,8.9v0.3c0,0,0,0.1,0,0.1
	c0,0.1,0,0.2,0.1,0.3l1.9-1.2l1.4-2.2C6.4,6.2,6.2,6.2,5.9,6.2z M6.8,11.4c0.3-0.1,0.6-0.3,0.8-0.5c0.2-0.2,0.4-0.4,0.6-0.7
	C8.4,10,8.5,9.7,8.6,9.4l-1.7,0L4.2,11c0.5,0.4,1,0.6,1.7,0.6C6.2,11.6,6.5,11.5,6.8,11.4z M7.4,6.7L7,7.3l0.7-0.4
	C7.6,6.8,7.5,6.7,7.4,6.7z M8.8,4.6L8,5.9C8.1,6,8.3,6.1,8.3,6.2c0.1,0.1,0.1,0.1,0.2,0.2l0.9-0.5L8.8,4.6z M10.2,7.3L9.4,7.8
	l0.1,0.6h1.3C10.8,8.4,10.2,7.3,10.2,7.3z M9.7,4.3l0.6,1.1L12,4.3C12,4.3,9.7,4.3,9.7,4.3z M11.7,8.1l3.4-3.8L11,6.8
	C11,6.8,11.7,8.1,11.7,8.1z M15.9,10.8c0.5,0.5,1.2,0.8,1.9,0.8c0.7,0,1.4-0.3,1.9-0.8c0.5-0.5,0.8-1.2,0.8-1.9
	c0-0.8-0.3-1.4-0.8-1.9c-0.5-0.5-1.2-0.8-2-0.8c-0.2,0-0.3,0-0.4,0c-0.1,0-0.2,0-0.3,0.1l1.3,2.9l-0.9,0.4l-1.3-2.9
	c-0.7,0.5-1.1,1.3-1.1,2.2C15.1,9.6,15.4,10.3,15.9,10.8z"/>
</svg>
