<?xml version="1.0" encoding="utf-8"?>
<!-- Generator: Adobe Illustrator 21.1.0, SVG Export Plug-In . SVG Version: 6.00 Build 0)  -->
<svg version="1.1" id="Layer_1" xmlns="http://www.w3.org/2000/svg" xmlns:xlink="http://www.w3.org/1999/xlink" x="0px" y="0px"
	 viewBox="0 0 21 13" style="enable-background:new 0 0 21 13;" xml:space="preserve">
<path d="M2.7,0h7.7L10,2H4.9L4.2,5.3h4.5l-0.4,2H3.8L3.1,11h5.1l-0.4,2H0 M14.3,6h0.9c1.4,0,2.9-0.7,2.9-2.4C18.1,2.3,17,2,15.9,2
	h-0.8C15.1,2,14.3,6,14.3,6z M12.8,13h-2.6l2.8-13h2.2c2.4,0,5.7,0.1,5.7,3.4c0,3.1-2.6,4.7-5.5,4.7h-1.5L12.8,13z"/>
</svg>
