<?xml version="1.0" encoding="utf-8"?>
<!-- Generator: Adobe Illustrator 21.1.0, SVG Export Plug-In . SVG Version: 6.00 Build 0)  -->
<svg version="1.1" id="Layer_1" xmlns="http://www.w3.org/2000/svg" xmlns:xlink="http://www.w3.org/1999/xlink" x="0px" y="0px"
	 viewBox="0 0 23 13" style="enable-background:new 0 0 23 13;" xml:space="preserve">
<path d="M11.1,2.9C10.1,2.3,8.9,2,7.6,2c-3.1,0-5,2.4-5,5.4c0,2,1.4,3.7,3.5,3.7c0.6,0,1,0,1.2-0.1l0.7-3.3H5.5l0.4-2H11l-1.4,6.9
	C8.8,12.7,7.4,13,6.2,13C2.5,13,0,11.3,0,7.4C0,2.8,3,0,7.5,0c1.4,0,2.9,0.2,4.2,0.7C11.7,0.7,11.1,2.9,11.1,2.9z M16.1,5.6H17
	c1.4,0,3-0.4,3-2.1c0-1.3-1.1-1.3-2.2-1.3h-1L16.1,5.6z M14.7,0.2h3c2.3,0,5,0,5,3c0,2.2-1.6,3.3-3.7,3.3v0c0.7,0,1.1,0.5,1.3,1.2
	l1.2,5.1h-2.6l-0.6-3c-0.3-1.3-0.2-2.3-1.6-2.3h-1l-1.1,5.2H12C12,12.8,14.7,0.2,14.7,0.2z"/>
</svg>
