<?xml version="1.0" encoding="utf-8"?>
<!-- Generator: Adobe Illustrator 21.1.0, SVG Export Plug-In . SVG Version: 6.00 Build 0)  -->
<svg version="1.1" id="Layer_1" xmlns="http://www.w3.org/2000/svg" xmlns:xlink="http://www.w3.org/1999/xlink" x="0px" y="0px"
	 viewBox="0 0 25 13" style="enable-background:new 0 0 25 13;" xml:space="preserve">
<path d="M4.1,5.6H5c1.4,0,3-0.4,3-2.1c0-1.3-1.1-1.3-2.2-1.3h-1C4.8,2.2,4.1,5.6,4.1,5.6z M2.6,0.2h3c2.3,0,5,0,5,3
	c0,2.2-1.6,3.3-3.7,3.3v0C7.6,6.6,8,7,8.2,7.7l1.2,5.1H6.8l-0.6-3C5.9,8.5,5.9,7.6,4.6,7.6h-1l-1.1,5.2H0C0,12.8,2.6,0.2,2.6,0.2z
	 M14.5,7.9c0,1.6,0.8,3.1,2.6,3.1c2.9,0,4.5-3.5,4.5-6c0-1.7-0.9-3.1-2.7-3.1C16,2,14.5,5.4,14.5,7.9 M24.2,5.3
	c0,2.1-0.8,4.1-2.1,5.6c-1.3,1.5-3.2,2.1-5.3,2.1c-3.1,0-5-2.2-5-5.2c0-2,0.7-3.9,2-5.4C15.2,0.8,17,0,19,0C22.4,0,24.2,2,24.2,5.3"
	/>
<path d="M19.2,10.4l2,2.4h3l-3.2-3.1"/>
</svg>
