<?xml version="1.0" encoding="utf-8"?>
<!-- Generator: Adobe Illustrator 21.1.0, SVG Export Plug-In . SVG Version: 6.00 Build 0)  -->
<svg version="1.1" id="Layer_1" xmlns="http://www.w3.org/2000/svg" xmlns:xlink="http://www.w3.org/1999/xlink" x="0px" y="0px"
	 viewBox="0 0 23 13" style="enable-background:new 0 0 23 13;" xml:space="preserve">
<path d="M4.1,5.6H5c1.4,0,3-0.4,3-2.1c0-1.3-1.1-1.3-2.2-1.3h-1C4.8,2.2,4.1,5.6,4.1,5.6z M2.6,0.2h3c2.3,0,5,0,5,3
	c0,2.2-1.6,3.3-3.7,3.3v0C7.6,6.6,8,7,8.2,7.7l1.2,5.1H6.8l-0.6-3C5.9,8.5,5.9,7.6,4.6,7.6h-1l-1.1,5.2H0C0,12.8,2.6,0.2,2.6,0.2z
	 M22.1,2.7C21.5,2.3,20.6,2,19.2,2c-2.8,0-4.8,2.1-4.8,5.1c0,2.1,1.4,4,3.6,4c1.1,0,1.9-0.3,2.6-0.8l-0.4,2.4
	c-0.9,0.3-1.9,0.3-2.8,0.3c-3.8,0-5.6-2.6-5.6-6c0-4.1,2.8-7,7.2-7c1.3,0,2.6,0.2,3.7,0.6C22.8,0.6,22.1,2.7,22.1,2.7z"/>
</svg>
