<?xml version="1.0" encoding="utf-8"?>
<!-- Generator: Adobe Illustrator 21.1.0, SVG Export Plug-In . SVG Version: 6.00 Build 0)  -->
<svg version="1.1" id="Layer_1" xmlns="http://www.w3.org/2000/svg" xmlns:xlink="http://www.w3.org/1999/xlink" x="0px" y="0px"
	 viewBox="0 0 20 13" style="enable-background:new 0 0 20 13;" xml:space="preserve">
<path d="M0.5,0.2h10.1l-0.4,2H6.5L4.1,12.8H1.3L3.7,2.2H0 M18.7,2.6C17.9,2.3,16.9,2,15.9,2c-0.9,0-2.2,0.4-2.2,1.4
	c0,2,4.5,1.9,4.5,5.4c0,3.1-2.5,4.2-5.4,4.2c-1.3,0-2.6-0.3-3.7-0.7l0.7-2.1c1,0.5,2.1,0.9,3.2,0.9c1.3,0,2.5-0.6,2.5-2
	c0-2.3-4.5-1.9-4.5-5.3C11,1.2,13.4,0,15.9,0c1.1,0,2.3,0.1,3.4,0.6C19.3,0.6,18.7,2.6,18.7,2.6z"/>
</svg>
