<?xml version="1.0" encoding="utf-8"?>
<!-- Generator: Adobe Illustrator 21.1.0, SVG Export Plug-In . SVG Version: 6.00 Build 0)  -->
<svg version="1.1" id="Layer_1" xmlns="http://www.w3.org/2000/svg" xmlns:xlink="http://www.w3.org/1999/xlink" x="0px" y="0px"
	 viewBox="0 0 14 13" style="enable-background:new 0 0 14 13;" xml:space="preserve">
<path d="M3.6,8.2l-1.8-2L1,5.2C0.6,4.6,0.4,4,0.4,3.2c0-1,0.4-2,1.1-2.9l0.2-0.2L1.8,0l4.5,5.1l0-1.9L9.8,0l0.8,0.9L7.5,3.7l0,1.5
	l3.8-3.5l0.8,0.9L8.3,6.1l1.5,0.1l3.1-2.8l0.8,0.9l-3.5,3.2l-2-0.1l3.8,4.3L10.5,13l-4-4.5L6.4,8.2L6.4,8.5L1.4,13L0,11.5L3.6,8.2z
	 M1.9,2.3C1.8,2.4,1.8,2.6,1.8,2.7c0,0.1,0,0.3,0,0.4c0,0.6,0.2,1.2,0.7,1.7l0.5,0.5l1.7,1.9l1-0.9L2,2.3L1.9,2
	C1.9,2,1.9,2.3,1.9,2.3z"/>
</svg>
