<?xml version="1.0" encoding="utf-8"?>
<!-- Generator: Adobe Illustrator 21.1.0, SVG Export Plug-In . SVG Version: 6.00 Build 0)  -->
<svg version="1.1" id="Layer_1" xmlns="http://www.w3.org/2000/svg" xmlns:xlink="http://www.w3.org/1999/xlink" x="0px" y="0px"
	 viewBox="0 0 23 13" style="enable-background:new 0 0 23 13;" xml:space="preserve">
<path d="M11.1,2.9C10.1,2.3,8.9,2,7.6,2c-3.1,0-5,2.4-5,5.4c0,2,1.4,3.7,3.5,3.7c0.6,0,1,0,1.2-0.1l0.7-3.3H5.5l0.4-2H11l-1.4,6.9
	C8.8,12.7,7.4,13,6.2,13C2.5,13,0,11.3,0,7.4C0,2.8,3,0,7.5,0c1.4,0,2.9,0.2,4.2,0.7C11.7,0.7,11.1,2.9,11.1,2.9z M16,6h0.9
	c1.4,0,2.8-0.7,2.8-2.3c0-1.3-1-1.5-2.1-1.5h-0.8C16.8,2.2,16,6,16,6z M14.6,12.8H12l2.7-12.6h2.1c2.3,0,5.5,0.1,5.5,3.3
	c0,3-2.5,4.5-5.3,4.5h-1.5L14.6,12.8z"/>
</svg>
