<?xml version="1.0" encoding="utf-8"?>
<!-- Generator: Adobe Illustrator 16.0.4, SVG Export Plug-In . SVG Version: 6.00 Build 0)  -->
<!DOCTYPE svg PUBLIC "-//W3C//DTD SVG 1.1//EN" "http://www.w3.org/Graphics/SVG/1.1/DTD/svg11.dtd">
<svg version="1.1" xmlns="http://www.w3.org/2000/svg" xmlns:xlink="http://www.w3.org/1999/xlink" x="0px" y="0px"
	 width="24px" height="24px" viewBox="0 0 24 24" enable-background="new 0 0 24 24" xml:space="preserve">
<path d="M17.6,15.6H14.9c-0.301,0-0.5-0.1-0.7-0.3s-0.3-0.4-0.3-0.7h4.8c0,0.3-0.101,0.5-0.3,0.7C18.1,15.5,17.8,15.6,17.6,15.6z
	 M9.1,15.6H6.4c-0.3,0-0.5-0.1-0.7-0.3c-0.2-0.2-0.3-0.4-0.3-0.7h4.8c0,0.3-0.1,0.5-0.3,0.7C9.7,15.5,9.4,15.6,9.1,15.6z M5,11.6h14
	v-2H5V11.6z M4,8h16v6H4V8z"/>
</svg>
