<?xml version="1.0" encoding="utf-8"?>
<!-- Generator: Adobe Illustrator 21.1.0, SVG Export Plug-In . SVG Version: 6.00 Build 0)  -->
<svg version="1.1" id="Layer_1" xmlns="http://www.w3.org/2000/svg" xmlns:xlink="http://www.w3.org/1999/xlink" x="0px" y="0px"
	 viewBox="0 0 19 13" style="enable-background:new 0 0 19 13;" xml:space="preserve">
<path d="M2.1,12.4c-0.3-0.5-0.6-0.9-0.8-1.3c-0.2-0.4-0.5-1-0.8-1.7C0.2,8.6,0,7.7,0,6.6c0-1,0.2-2,0.5-2.9c0.4-0.9,0.9-1.9,1.6-2.9
	h1.2C2.9,1.4,2.6,1.9,2.4,2.4C2.2,2.8,2,3.3,1.7,4.1C1.4,4.8,1.3,5.6,1.3,6.6c0,1,0.2,1.8,0.5,2.6c0.3,0.8,0.5,1.3,0.7,1.7
	c0.2,0.3,0.4,0.9,0.8,1.5L2.1,12.4C2.1,12.4,2.1,12.4,2.1,12.4z M16.2,0.7c0.6,1,1.2,1.9,1.5,2.8c0.4,0.9,0.6,1.9,0.6,3
	c0,1.1-0.2,2-0.5,2.7c-0.3,0.8-0.6,1.3-0.7,1.6c-0.2,0.3-0.5,0.8-0.9,1.5H15c0.4-0.8,0.7-1.3,0.9-1.7c0.2-0.3,0.4-0.9,0.7-1.6
	C16.9,8.3,17,7.5,17,6.5c0-0.5-0.1-1-0.2-1.5c-0.1-0.5-0.3-1-0.5-1.5C16.2,3,16,2.6,15.8,2.2c-0.2-0.4-0.5-0.9-0.8-1.5L16.2,0.7
	C16.2,0.7,16.2,0.7,16.2,0.7z M8.4,11.7V7.5C7.5,7.4,6.7,7.1,6.2,6.6C5.7,6.1,5.4,5.6,5.3,5C5.2,4.5,5.2,4.1,5.2,3.8V0H13v3.8
	c0,0.2-0.1,0.6-0.1,1.2c-0.1,0.5-0.4,1.1-0.9,1.6c-0.5,0.5-1.3,0.8-2.2,0.9v4.2l3.2,0V13H5.2v-1.3H8.4z"/>
</svg>
