<svg xmlns="http://www.w3.org/2000/svg" width="24" height="24" viewBox="0 0 24 24">
  <g fill="none" fill-rule="evenodd">
    <path stroke="#000" d="M2.5,7.5002 L8.009,7.5002 L10,10.5082 L12,10.5082 C12.829,10.5082 13.5,11.1792 13.5,12.0082 L13.5,12.0002 L13.5,14.5002 L11.5,14.5002 M8.5,14.4997 L4.5,14.4997 M11.5,13.9997 C11.5,14.8287 10.829,15.4997 10,15.4997 C9.171,15.4997 8.5,14.8287 8.5,13.9997 C8.5,13.1717 9.171,12.4997 10,12.4997 C10.829,12.4997 11.5,13.1717 11.5,13.9997 Z M6,9.4953 L7.004,9.4953 L8,11.0003 M2.5,12.592 C2.657,12.536 2.824,12.5 3,12.5 C3.829,12.5 4.5,13.172 4.5,14 C4.5,14.829 3.829,15.5 3,15.5 C2.824,15.5 2.657,15.464 2.5,15.408 M18.5,11.4997 C18.5,9.7997 19.8,8.4997 21.5,8.4997 L21.5,4.4997 L17,4.4997 L2.5,4.4997 L2.5,18.4997 L21.5,18.4997 L21.5,14.4997 C19.8,14.4997 18.5,13.1997 18.5,11.4997 Z"/>
    <path stroke="#000" stroke-dasharray="1 1" d="M16.5,17.9997 L16.5,4.9997"/>
  </g>
</svg>
