<svg xmlns="http://www.w3.org/2000/svg" width="24" height="24" viewBox="0 0 24 24">
  <g fill="none" fill-rule="evenodd">
    <path fill="#000" d="M17.9746,4.9314 L17.9746,9.0004 L17.1626,9.0004 L17.1626,6.3364 L16.8716,6.3364 L16.5826,6.3364 L16.3016,6.3364 L16.2036,6.3364 L16.2036,5.7464 C16.4036,5.7414 16.5646,5.7214 16.6906,5.6854 C16.8156,5.6504 16.9296,5.5924 17.0346,5.5134 C17.1846,5.3974 17.2856,5.2034 17.3366,4.9314 L17.9746,4.9314 Z M11.9897,10.2761 L11.9897,11.0001 L9.0587,11.0001 C9.0587,10.7791 9.0947,10.5681 9.1667,10.3681 C9.2377,10.1681 9.3387,9.9951 9.4687,9.8501 C9.5687,9.7391 9.6857,9.6301 9.8207,9.5251 C9.9547,9.4191 10.2227,9.2251 10.6227,8.9431 C10.8177,8.8071 10.9547,8.6811 11.0317,8.5641 C11.1107,8.4471 11.1497,8.3121 11.1497,8.1581 C11.1497,7.9801 11.0967,7.8361 10.9917,7.7251 C10.8867,7.6151 10.7497,7.5601 10.5787,7.5601 C10.1587,7.5601 9.9437,7.8611 9.9297,8.4641 L9.1487,8.4641 L9.1487,8.3751 C9.1487,7.8811 9.2867,7.4991 9.5627,7.2291 C9.8317,6.9651 10.1797,6.8331 10.6067,6.8331 C10.9857,6.8331 11.3017,6.9411 11.5557,7.1561 C11.8317,7.3901 11.9697,7.7041 11.9697,8.1001 C11.9697,8.4441 11.8597,8.7411 11.6387,8.9901 C11.5667,9.0721 11.4987,9.1371 11.4357,9.1861 C11.3727,9.2351 11.2067,9.3541 10.9377,9.5411 C10.6817,9.7191 10.4987,9.8561 10.3877,9.9501 C10.2777,10.0451 10.1757,10.1531 10.0807,10.2761 L11.9897,10.2761 Z"/>
    <path stroke="#000" d="M10.5,5.5002 L10.5,3.5002 L19.5,3.5002 L19.5,18.5002 L13.5,18.5002 L13.5,5.5002 L4.5,5.5002 L4.5,20.5002 L13.5,20.5002 L13.5,18.5002 M6,13.4997 L12,13.4997 M6,15.4997 L12,15.4997 M13.5,13.4997 L18,13.4997 M13.5,11.4997 L18,11.4997"/>
  </g>
</svg>
