<svg xmlns="http://www.w3.org/2000/svg" width="24" height="24" viewBox="0 0 24 24">
  <g fill="none" fill-rule="evenodd">
    <path stroke="#000" d="M18.5,11.4997 C18.5,9.7997 19.8,8.4997 21.5,8.4997 L21.5,4.4997 L17,4.4997 L2.5,4.4997 L2.5,18.4997 L21.5,18.4997 L21.5,14.4997 C19.8,14.4997 18.5,13.1997 18.5,11.4997 Z M4.5,7.4997 L14.5,7.4997 L14.5,16.4997 L4.5,16.4757 L4.5,7.4997 Z M4.5,9.4997 L14.5,9.4997 M6.5,7.4997 L6.5,5.9997 M8,12.4997 L9.5,12.4997 M9.5,14.9997 L9.5,10.9997 L9.5,14.9997 Z M12.5,7.4997 L12.5,5.9997 L12.5,7.4997 Z"/>
    <path stroke="#000" stroke-dasharray="1 1" d="M16.5,17.9997 L16.5,4.9997"/>
  </g>
</svg>
