<svg xmlns="http://www.w3.org/2000/svg" width="24" height="24" viewBox="0 0 24 24">
  <g fill="none" fill-rule="evenodd">
    <path stroke="#000" d="M18.5,11.4997 C18.5,9.7997 19.8,8.4997 21.5,8.4997 L21.5,4.4997 L17,4.4997 L2.5,4.4997 L2.5,18.4997 L21.5,18.4997 L21.5,14.4997 C19.8,14.4997 18.5,13.1997 18.5,11.4997 Z M13.3672,9.0886 C13.0562,8.1586 12.2402,7.5006 11.2732,7.5006 C10.5372,7.5006 9.8952,7.8866 9.4912,8.4786 C9.0862,7.8866 8.4432,7.5006 7.7072,7.5006 C6.4702,7.5006 5.4762,8.5776 5.4762,9.9236 C5.4762,10.3456 5.5742,10.7416 5.7462,11.0866 C5.8432,11.2806 5.9592,11.4596 6.0982,11.6176 L9.4902,15.3086 L12.8772,11.6226 C12.9572,11.5166 13.1472,11.2496 13.2102,11.1306 C13.3952,10.7756 13.5012,10.3636 13.5012,9.9236 C13.5012,9.6296 13.4542,9.3486 13.3672,9.0886 Z"/>
    <path stroke="#000" stroke-dasharray="1 1" d="M16.5,17.9997 L16.5,4.9997"/>
  </g>
</svg>
