<svg xmlns="http://www.w3.org/2000/svg" width="36" height="36" viewBox="0 0 36 36">
  <path fill="none" stroke="#000" d="M14.84985,24 C12.74985,22.8 11.24985,20.55 11.24985,18 C11.24985,14.25 14.24985,11.25 17.99985,11.25 C21.74985,11.25 24.74985,14.25 24.74985,18 C24.74985,20.55 23.24985,22.95 21.14985,24 M21.75,24 L21.75,27.15 L18.75,28.2 L18.75,29.25 L17.25,29.25 L17.25,28.2 L14.25,27.15 L14.25,24 L21.75,24 Z M23.91795,7.5762 L22.86495,9.5067 M28.2657,11.92605 L26.3412,12.98805 M27.75,18 L30,18.006 M26.33205,23.02875 L28.28055,24.06825 M7.56375,24.05565 L9.52875,22.88565 M6,18 L8.25,18 M7.66485,11.98455 L9.58635,13.22055 M12.0711,7.58055 L13.1346,9.51405 M18,6 L18,8.25"/>
</svg>
