<svg xmlns="http://www.w3.org/2000/svg" width="36" height="36" viewBox="0 0 36 36">
  <path fill="none" stroke="#000" d="M22.1175,9.7383 C22.617,10.6563 23.5845,11.2503 24.75,11.2503 C26.466,11.2503 27.75,9.9663 27.75,8.2503 C27.75,6.5343 26.466,5.2503 24.75,5.2503 C23.034,5.2503 21.75,6.5343 21.75,8.2503 C21.75,8.79924915 21.8819756,9.30470637 22.1174346,9.73817955 L12.2485009,15.523053 C11.7234316,14.7374911 10.8266588,14.2503 9.75,14.2503 C8.0145,14.2503 6.75,15.5148 6.75,17.2503 C6.75,18.9843 8.0145,20.2503 9.75,20.2503 C10.9065,20.2503 11.853,19.6878 12.3555,18.8013 C12.609,18.3558 12.75,17.8293 12.75,17.2503 C12.75,16.5933 12.5685,16.0023 12.249,15.5238 Z M22.16745,24.67935 L12.35595,18.80235 L22.1669869,24.6790726 C22.6935,23.77605 23.6295,23.24955 24.75,23.24955 C26.4255,23.24955 27.75,24.57405 27.75,26.24955 C27.75,27.92655 26.4255,29.24955 24.75,29.24955 C23.0745,29.24955 21.759,27.92655 21.759,26.24955 C21.759,25.6945589 21.9074952,25.1275683 22.1669875,24.6790717 Z"/>
</svg>
