<svg xmlns="http://www.w3.org/2000/svg" width="36" height="36" viewBox="0 0 36 36">
  <path fill="none" stroke="#000" d="M10.5,17.2503 C13.395,17.2503 15.75,19.6053 15.75,22.5003 C15.75,25.3953 13.395,27.7503 10.5,27.7503 C7.605,27.7503 5.25,25.3953 5.25,22.5003 C5.25,19.6053 7.605,17.2503 10.5,17.2503 M25.5015,17.2503 C28.3965,17.2503 30.7515,19.6053 30.7515,22.5003 C30.7515,25.3953 28.3965,27.7503 25.5015,27.7503 C22.605,27.7503 20.2515,25.3953 20.2515,22.5003 C20.2515,19.6053 22.605,17.2503 25.5015,17.2503 M10.5,22.49955 L13.5,14.24955 L21.75,14.24955 L24.75,9.74955 L19.5,9.74955 M25.5015,22.49955 L21.75,14.24955 M10.81275,11.2503 L15.00075,11.2503"/>
</svg>
