<svg xmlns="http://www.w3.org/2000/svg" width="36" height="36" viewBox="0 0 36 36">
  <path fill="none" stroke="#000" d="M8.25,24.74955 L8.25,27.74955 L12.75,27.74955 L12.75,24.74955 M23.2515,24.74955 L23.2515,27.74955 L27.75,27.74955 L27.75,24.74955 M8.25,12.7503 L6.75,12.7503 L6.75,14.2503 L8.25,14.2503 M24,8.2503 L12,8.2503 M27.75,15.75105 L8.25,15.75105 M6,25.3311 C4.5795,26.0331 3.75,26.8626 3.75,27.7491 C3.75,30.2166 10.098,32.2491 18,32.2491 C25.9035,32.2491 32.25,30.2166 32.25,27.7491 C32.25,26.8626 31.4205,26.0331 30,25.3326 M24,5.2503 C26.559,5.2503 27.75,6.4413 27.75,9.0003 L27.75,24.7503 L8.25,24.7503 L8.25,9.0003 C8.25,6.4413 9.441,5.2503 12,5.2503 L24,5.2503 M12.75,20.99955 C12.75,20.58705 12.414,20.24955 12,20.24955 C11.586,20.24955 11.25,20.58705 11.25,20.99955 C11.25,21.41355 11.586,21.74955 12,21.74955 C12.414,21.74955 12.75,21.41355 12.75,20.99955 Z M24.75,20.99955 C24.75,20.58705 24.414,20.24955 24,20.24955 C23.586,20.24955 23.25,20.58705 23.25,20.99955 C23.25,21.41355 23.586,21.74955 24,21.74955 C24.414,21.74955 24.75,21.41355 24.75,20.99955 Z M27.75,14.2503 L29.25,14.2503 L29.25,12.7503 L27.75,12.7503"/>
</svg>
