<svg xmlns="http://www.w3.org/2000/svg" width="36" height="36" viewBox="0 0 36 36">
  <path fill="none" stroke="#000" d="M11.2485,6.75 L32.2485,6.75 L32.2485,3.75 L11.2485,3.75 L11.2485,6.75 Z M12.75,6.7518 L12.75,33.0018 M30.7515,6.7518 L30.7515,33.0018 M3.75,18.75 L9.75,18.75 L9.75,11.25 L3.75,11.25 L3.75,18.75 Z M6.75,18.7503 L6.75,33.0003 M24.75,12.7503 C24.75,13.5783 24.078,14.2503 23.25,14.2503 C22.4205,14.2503 21.75,13.5783 21.75,12.7503 C21.75,11.9208 22.4205,11.2503 23.25,11.2503 C24.078,11.2503 24.75,11.9208 24.75,12.7503 Z M26.25,24.74955 L26.25,17.24955 L20.25,17.24955 L20.25,24.74955 L21.75,24.74955 L21.75,32.24955 L24.75,32.24955 L24.75,24.74955 L26.25,24.74955 Z"/>
</svg>
