<svg xmlns="http://www.w3.org/2000/svg" width="36" height="36" viewBox="0 0 36 36">
  <path fill="none" stroke="#000" d="M30.75,27.74955 L12.75,27.74955 L12.75,16.49955 C12.75,14.42805 14.4285,12.74955 16.5,12.74955 L27,12.74955 C29.0715,12.74955 30.75,14.42805 30.75,16.49955 L30.75,27.74955 Z M3.75,14.25 L9.75,14.25 L9.75,6.75 L3.75,6.75 L3.75,14.25 Z M6.75,14.24955 L6.75,31.49955 M12.75,27.74955 L12.75,30.74955 L17.25,30.74955 L17.25,27.74955 M26.2515,27.74955 L26.2515,30.74955 L30.75,30.74955 L30.75,27.74955 M12.75,18.75105 L10.5,18.75105 M33,18.75105 L30.75,18.75105 M30.75,20.25105 L12.75,20.25105 M27.75,20.24955 C27.75,18.59355 26.406,17.24955 24.75,17.24955 C23.094,17.24955 21.75,18.59355 21.75,20.24955 M17.25,23.99955 C17.25,23.58705 16.914,23.24955 16.5,23.24955 C16.086,23.24955 15.75,23.58705 15.75,23.99955 C15.75,24.41355 16.086,24.74955 16.5,24.74955 C16.914,24.74955 17.25,24.41355 17.25,23.99955 Z M27.75,23.99955 C27.75,23.58705 27.414,23.24955 27,23.24955 C26.586,23.24955 26.25,23.58705 26.25,23.99955 C26.25,24.41355 26.586,24.74955 27,24.74955 C27.414,24.74955 27.75,24.41355 27.75,23.99955 Z"/>
</svg>
