<svg xmlns="http://www.w3.org/2000/svg" width="36" height="36" viewBox="0 0 36 36">
  <path fill="none" stroke="#000" d="M8.25,14.25 L17.25,14.25 L17.25,8.25 L8.25,8.25 L8.25,14.25 Z M20.25,11.25 L23.25,11.25 L23.25,24.75 C23.25,26.406 24.594,27.75 26.25,27.75 C27.906,27.75 29.25,26.406 29.25,24.75 L29.25,20.25 M32.25,17.25 C32.25,18.906 30.906,20.25 29.25,20.25 C27.594,20.25 26.25,18.906 26.25,17.25 L26.25,15.75 L32.25,15.75 L32.25,17.25 Z M27.75,15.75 L27.75,12 M30.75,15.75 L30.75,12 M5.25,30.75 L20.25,30.75 L20.25,5.25 L5.25,5.25 L5.25,30.75 Z"/>
</svg>
