<svg xmlns="http://www.w3.org/2000/svg" width="36" height="36" viewBox="0 0 36 36">
  <path fill="none" stroke="#000" d="M9.75,24.74955 L9.75,27.74955 L14.25,27.74955 L14.25,24.74955 M9.75,14.24955 L8.25,14.24955 L8.25,15.74955 L9.75,15.74955 M26.25,14.24955 L27.75,14.24955 L27.75,15.74955 L26.25,15.74955 M26.25,17.25105 L9.75,17.24955 M14.25,20.99955 C14.25,20.58705 13.914,20.24955 13.5,20.24955 C13.086,20.24955 12.75,20.58705 12.75,20.99955 C12.75,21.41355 13.086,21.74955 13.5,21.74955 C13.914,21.74955 14.25,21.41355 14.25,20.99955 Z M23.25,20.99955 C23.25,20.58705 22.914,20.24955 22.5,20.24955 C22.086,20.24955 21.75,20.58705 21.75,20.99955 C21.75,21.41355 22.086,21.74955 22.5,21.74955 C22.914,21.74955 23.25,21.41355 23.25,20.99955 Z M29.25,22.49955 L29.25,19.49955 M32.25,23.99955 L32.25,17.99955 M6.75,19.49955 L6.75,22.49955 M3.75,17.99955 L3.75,23.99955 M26.25,24.74955 L9.75,24.74955 L9.75,10.49955 C9.75,8.42805 11.4285,6.74955 13.5,6.74955 L22.5,6.74955 C24.5715,6.74955 26.25,8.42805 26.25,10.49955 L26.25,24.74955 Z M21.7515,24.74955 L21.7515,27.74955 L26.25,27.74955 L26.25,24.74955 M22.5,9.75105 L13.5,9.74955"/>
</svg>
