<svg xmlns="http://www.w3.org/2000/svg" width="36" height="36" viewBox="0 0 36 36">
  <path fill="none" stroke="#000" d="M5.25,23.25 L30.75,23.25 L30.75,12.75 L5.25,12.75 L5.25,23.25 Z M23.25,12.75 L23.25,23.25 M12.75,12.75 L12.75,23.25 M9.75,24.00435 C9.75,24.41835 9.414,24.75435 9,24.75435 C8.586,24.75435 8.25,24.41835 8.25,24.00435 C8.25,23.59185 8.586,23.25435 9,23.25435 C9.414,23.25435 9.75,23.59185 9.75,24.00435 Z M2.997,21.75885 L5.25,21.75885 M30.7485,21.75885 L33.0015,21.75885 M27.75,24.00435 C27.75,24.41835 27.414,24.75435 27,24.75435 C26.586,24.75435 26.25,24.41835 26.25,24.00435 C26.25,23.59185 26.586,23.25435 27,23.25435 C27.414,23.25435 27.75,23.59185 27.75,24.00435 Z"/>
</svg>
