<svg xmlns="http://www.w3.org/2000/svg" width="36" height="36" viewBox="0 0 36 36">
  <path fill="none" stroke="#000" d="M6.74985,21.74955 L6.74985,24.74955 L11.24985,24.74955 L11.24985,21.74955 M24.75135,21.74955 L24.75135,24.74955 L29.24985,24.74955 L29.24985,21.74955 M25.49985,6.7503 L10.49985,6.7503 M29.24985,14.25105 L6.74985,14.25105 M6.74985,11.2503 L5.24985,11.2503 L5.24985,12.7503 L6.74985,12.7503 M25.49985,3.7503 C28.05885,3.7503 29.24985,4.9413 29.24985,7.5003 L29.24985,21.7503 L6.74985,21.7503 L6.74985,7.5003 C6.74985,4.9413 7.94085,3.7503 10.49985,3.7503 L25.49985,3.7503 Z M11.24985,18.0003 C11.24985,17.5863 10.91385,17.2503 10.49985,17.2503 C10.08585,17.2503 9.74985,17.5863 9.74985,18.0003 C9.74985,18.4143 10.08585,18.7503 10.49985,18.7503 C10.91385,18.7503 11.24985,18.4143 11.24985,18.0003 Z M26.24985,18.0003 C26.24985,17.5863 25.91385,17.2503 25.49985,17.2503 C25.08585,17.2503 24.74985,17.5863 24.74985,18.0003 C24.74985,18.4143 25.08585,18.7503 25.49985,18.7503 C25.91385,18.7503 26.24985,18.4143 26.24985,18.0003 Z M29.24985,12.7503 L30.74985,12.7503 L30.74985,11.2503 L29.24985,11.2503 M7.12485,30.74955 L14.99985,30.74955 M9.966,27.9723 L7.125,30.7503 L9.969,33.5133 M28.87485,30.73635 L20.99985,30.73635 M26.0346,33.51375 L28.8756,30.73575 L26.0301,27.97275"/>
</svg>
