<svg xmlns="http://www.w3.org/2000/svg" width="36" height="36" viewBox="0 0 36 36">
  <path fill="none" stroke="#000" d="M24,26.24955 L27,32.24955 M9,32.24955 L12,26.24955 M27,29.24955 L9,29.24955 M28.5,32.24955 L7.5,32.24955 M21,11.2503 L15,11.2503 M27.75,18.7503 L8.25,18.7503 M24,3.7503 L12,3.7503 M27.75,26.24955 L8.25,26.24955 L8.25,11.99955 C8.25,9.92955 9.9285,8.24955 12,8.24955 L24,8.24955 C26.0715,8.24955 27.75,9.92955 27.75,11.99955 L27.75,26.24955 Z M15,3.7503 L18,8.2503 M21,3.7503 L18,8.2503 M23.25,22.49955 C23.25,22.08705 22.914,21.74955 22.5,21.74955 C22.086,21.74955 21.75,22.08705 21.75,22.49955 C21.75,22.91355 22.086,23.24955 22.5,23.24955 C22.914,23.24955 23.25,22.91355 23.25,22.49955 Z M14.25,22.49955 C14.25,22.08705 13.914,21.74955 13.5,21.74955 C13.086,21.74955 12.75,22.08705 12.75,22.49955 C12.75,22.91355 13.086,23.24955 13.5,23.24955 C13.914,23.24955 14.25,22.91355 14.25,22.49955 Z"/>
</svg>
