<svg xmlns="http://www.w3.org/2000/svg" width="25" height="16" viewBox="0 0 25 16">
  <path fill-rule="evenodd" d="M23.5555559,14.9999997 L21.4409725,14.9999997 L21.4409725,10.0999998 L3.11458336,10.0999998 L3.11458336,14.9999997 L1,14.9999997 L1,1 L1.96565974,1 C2.44919446,1 3.05537503,1.26739999 3.78843059,1.80779998 C4.52148616,2.34679997 5.15304172,2.97399995 5.68591673,3.68939993 C6.21597229,4.40759992 6.61492369,5.1117999 6.87995147,5.80339988 C7.14638897,6.49499986 7.28031259,7.22719985 7.28031259,7.99999983 L9.38079873,7.99999983 C9.38079873,6.46979986 9.89111818,5.0851999 10.9131668,4.07999992 C11.9352154,3.07339995 13.1884585,2.33979997 14.6686669,2.39999997 L23.5555559,2.39999997 L23.5555559,14.9999997"/>
</svg>
