<svg xmlns="http://www.w3.org/2000/svg" width="33" height="16" viewBox="0 0 33 16">
  <g fill="none" fill-rule="evenodd">
    <polygon fill="#000" points="4.581 1.037 9.202 1.037 10.142 11.1 10.182 11.1 15.684 1.037 20.344 1.037 17.363 15 14.403 15 17.043 3.437 17.004 3.437 10.682 15 8.002 15 6.881 3.437 6.841 3.437 4.28 15 1.62 15"/>
    <path fill="#000" d="M24.7012,7.498 L25.7012,7.498 C27.2412,7.498 28.8222,6.698 28.8222,4.958 C28.8222,3.537 27.6812,3.237 26.4812,3.237 L25.6012,3.237 L24.7012,7.498 Z M23.1002,15 L20.3002,15 L23.2612,1.037 L25.6212,1.037 C28.2012,1.037 31.7422,1.177 31.7422,4.658 C31.7422,8.038 28.9622,9.699 25.8412,9.699 L24.2212,9.699 L23.1002,15 Z"/>
  </g>
</svg>
