<svg xmlns="http://www.w3.org/2000/svg" width="27" height="16" viewBox="0 0 27 16">
  <g fill="none" fill-rule="evenodd">
    <polygon fill="#000" points="3.141 1.037 5.942 1.037 7.242 11.899 7.282 11.899 13.083 1.037 16.123 1.037 8.322 15 4.981 15"/>
    <path fill="#000" d="M19.1611,7.498 L20.1611,7.498 C21.7011,7.498 23.2821,6.698 23.2821,4.958 C23.2821,3.537 22.1411,3.237 20.9411,3.237 L20.0611,3.237 L19.1611,7.498 Z M17.5601,15 L14.7601,15 L17.7211,1.037 L20.0811,1.037 C22.6621,1.037 26.2021,1.177 26.2021,4.658 C26.2021,8.038 23.4221,9.699 20.3011,9.699 L18.6811,9.699 L17.5601,15 Z"/>
  </g>
</svg>
