<svg xmlns="http://www.w3.org/2000/svg" width="29" height="16" viewBox="0 0 29 16">
  <g fill="none" fill-rule="evenodd">
    <path fill="#000" d="M14.8232,3.998 C13.7432,3.298 12.4022,2.997 10.9422,2.997 C7.5412,2.997 5.4012,5.658 5.4012,8.959 C5.4012,11.219 6.9612,13.04 9.3422,13.04 C9.9812,13.04 10.4022,13.04 10.7212,12.899 L11.5022,9.199 L8.5422,9.199 L9.0022,6.998 L14.6632,6.998 L13.0622,14.62 C12.2422,14.96 10.6812,15.24 9.3222,15.24 C5.2202,15.24 2.4802,13.359 2.4802,9.039 C2.4802,3.937 5.8212,0.797 10.8622,0.797 C12.4232,0.797 14.0622,1.017 15.5232,1.577 L14.8232,3.998 Z"/>
    <polygon fill="#000" points="18.4 1.037 27.982 1.037 27.502 3.237 19.08 12.8 25.441 12.8 24.981 15 15.179 15 15.619 12.8 24.021 3.237 17.92 3.237"/>
  </g>
</svg>
