<svg xmlns="http://www.w3.org/2000/svg" width="25" height="16" viewBox="0 0 25 16">
  <g fill="none" fill-rule="evenodd">
    <polygon fill="#000" points="3.259 1.037 14.527 1.037 14.045 3.237 9.927 3.237 7.273 15 4.221 15 6.875 3.237 2.757 3.237"/>
    <path fill="#000" d="M23.4912,3.7178 C22.6352,3.2978 21.5262,2.9968 20.4602,2.9968 C19.4152,2.9968 18.0142,3.3978 18.0142,4.5978 C18.0142,6.8378 22.9902,6.6978 22.9902,10.5788 C22.9902,13.9998 20.1882,15.2398 16.9902,15.2398 C15.5902,15.2398 14.1472,14.9198 12.8302,14.4598 L13.5832,12.0788 C14.7122,12.5788 15.9032,13.0398 17.1572,13.0398 C18.5572,13.0398 19.9372,12.3598 19.9372,10.8598 C19.9372,8.3388 14.9632,8.7388 14.9632,5.0178 C14.9632,2.0768 17.5962,0.7968 20.3972,0.7968 C21.6732,0.7968 22.9902,0.9568 24.1812,1.4168 L23.4912,3.7178 Z"/>
  </g>
</svg>
