<svg xmlns="http://www.w3.org/2000/svg" width="29" height="16" viewBox="0 0 29 16">
  <path fill-rule="evenodd" d="M14.8232 3.998C13.7432 3.298 12.4022 2.997 10.9422 2.997 7.5412 2.997 5.4012 5.658 5.4012 8.959 5.4012 11.219 6.9612 13.04 9.3422 13.04 9.9812 13.04 10.4022 13.04 10.7212 12.899L11.5022 9.199 8.5422 9.199 9.0022 6.998 14.6632 6.998 13.0622 14.62C12.2422 14.96 10.6812 15.24 9.3222 15.24 5.2202 15.24 2.4802 13.359 2.4802 9.039 2.4802 3.937 5.8212.797 10.8622.797 12.4232.797 14.0622 1.017 15.5232 1.577L14.8232 3.998zM20.2607 7.498L21.2607 7.498C22.8007 7.498 24.3817 6.698 24.3817 4.958 24.3817 3.537 23.2407 3.237 22.0407 3.237L21.1607 3.237 20.2607 7.498zM18.6597 15L15.8597 15 18.8207 1.037 21.1807 1.037C23.7617 1.037 27.3017 1.177 27.3017 4.658 27.3017 8.038 24.5217 9.699 21.4007 9.699L19.7807 9.699 18.6597 15z"/>
</svg>
