<svg xmlns="http://www.w3.org/2000/svg" width="11" height="16" viewBox="0 0 11 16">
  <path fill-rule="evenodd" d="M8.266,9.6632 C8.077,9.1172 7.8782,8.7224 7.671,8.4816 C7.4666,8.2408 7.1558,8.0728 6.7428,7.9762 C8.5376,7.6052 9.4364,6.488 9.4364,4.6218 C9.4364,3.4626 9.078,2.5708 8.364,1.9408 C7.6472,1.3122 6.6322,1 5.3134,1 L1,1 L1,15 L3.5256,15 L3.5256,8.9646 L4.1332,8.9646 C5.1034,8.9646 5.7348,9.456 6.0344,10.4332 L7.4218,15 L10.1,15 L8.266,9.6632 L8.266,9.6632 Z M4.5742,6.9374 L3.5256,6.9374 L3.5256,6.768 L3.5256,2.9558 L3.5256,2.8088 L4.6064,2.8088 C5.4058,2.8088 5.9728,2.9586 6.3088,3.2568 C6.6462,3.555 6.8156,4.0646 6.8156,4.7898 C6.8156,5.4632 6.6196,5.991 6.2318,6.3704 C5.8412,6.7484 5.2868,6.9374 4.5742,6.9374 L4.5742,6.9374 Z"/>
</svg>
