<svg xmlns="http://www.w3.org/2000/svg" width="28" height="16" viewBox="0 0 28 16">
  <g fill="none" fill-rule="evenodd">
    <path fill="#000" d="M11.4023,3.7178 C10.5823,3.2978 9.5213,2.9968 8.5023,2.9968 C7.5013,2.9968 6.1613,3.3978 6.1613,4.5978 C6.1613,6.8378 10.9223,6.6978 10.9223,10.5788 C10.9223,13.9998 8.2413,15.2398 5.1803,15.2398 C3.8403,15.2398 2.4603,14.9198 1.2003,14.4598 L1.9203,12.0788 C3.0003,12.5788 4.1403,13.0398 5.3403,13.0398 C6.6813,13.0398 8.0023,12.3598 8.0023,10.8598 C8.0023,8.3388 3.2403,8.7388 3.2403,5.0178 C3.2403,2.0768 5.7603,0.7968 8.4413,0.7968 C9.6623,0.7968 10.9223,0.9568 12.0623,1.4168 L11.4023,3.7178 Z"/>
    <polygon fill="#000" points="14.261 1.037 17.062 1.037 18.362 11.899 18.402 11.899 24.203 1.037 27.243 1.037 19.442 15 16.101 15"/>
  </g>
</svg>
