<svg xmlns="http://www.w3.org/2000/svg" width="26" height="16" viewBox="0 0 26 16">
  <path fill-rule="evenodd" d="M3.3071779,14.2669761 C2.95714431,13.7379899 2.66646425,13.2679477 2.43665959,12.8598726 C2.20533305,12.4487747 1.90856544,11.8396848 1.543313,11.0265573 C1.18262622,10.2149412 1,9.20684443 1,8.00377847 C1,6.83698586 1.19632319,5.79714995 1.59049144,4.88124798 C1.98313781,3.96836878 2.55688852,2.92702148 3.3071779,1.76022887 L4.58099578,1.76022887 C4.1685649,2.48116161 3.85353467,3.06455792 3.63438321,3.51041779 C3.41675363,3.95476627 3.15651127,4.56536759 2.85365612,5.34222174 C2.55080098,6.1175645 2.39861246,7.01079564 2.39861246,8.02191515 C2.39861246,9.05721688 2.56297606,9.99125553 2.89779079,10.8270539 C3.23108364,11.6628522 3.48828223,12.2689194 3.66938657,12.6407211 C3.85201279,13.0140343 4.15486793,13.5536003 4.57947389,14.2654648 L3.3071779,14.2654648 L3.3071779,14.2669761 L3.3071779,14.2669761 Z M10.0886982,9.78872935 L8.18025418,7.64104502 L7.32495472,6.61330023 C6.86382352,5.97700529 6.63249697,5.25607255 6.63249697,4.450502 C6.63249697,3.35625607 7.03579654,2.32397711 7.84239567,1.35064234 L8.04176263,1.13451366 L8.14068516,1 L12.9818019,6.46216129 L12.9757143,4.39458059 L16.7180299,1.00151139 L17.605289,1.9551981 L14.2814918,4.97041995 L14.2830137,6.5604016 L18.3844942,2.80157616 L19.2991471,3.78095649 L15.1717946,7.53373637 L16.7880366,7.63802224 L20.0996587,4.64698262 L21.0082242,5.58404405 L17.2826493,8.97711325 L15.0835253,8.83353125 L19.2276185,13.5082587 L17.5200634,15 L13.2359567,10.1650653 L13.1431217,9.82197992 L13.0365897,10.1469286 L7.72368863,15 L6.19723782,13.3480514 L10.0886982,9.78872935 L10.0886982,9.78872935 Z M8.21373565,3.47414445 C8.15286024,3.61923783 8.11024746,3.75979704 8.0858973,3.89884487 C8.06306902,4.0363813 8.05089394,4.17240635 8.05089394,4.30540861 C8.05089394,4.96890856 8.29743933,5.58253266 8.79205201,6.14930368 L9.30188354,6.72514304 L11.1357552,8.81992875 L12.2223812,7.84810537 L8.36592417,3.46809889 L8.23199827,3.11292238 L8.21373565,3.47414445 L8.21373565,3.47414445 Z M23.0414627,1.76022887 C23.7308767,2.83029256 24.2894086,3.84141207 24.7140145,4.792076 C25.1370986,5.74122854 25.3501625,6.81280363 25.3501625,8.00377847 C25.3501625,8.59322034 25.2892871,9.17661665 25.1690582,9.7539674 C25.0473074,10.3313181 24.8753344,10.8769297 24.6500954,11.3862679 C24.4263782,11.898629 24.21788,12.3278635 24.0230787,12.6769945 C23.8297993,13.0261254 23.5010721,13.5551117 23.0414627,14.2669761 L21.7691668,14.2669761 C22.1937727,13.5324409 22.5088029,12.9520674 22.7142574,12.5258556 C22.9197119,12.0996437 23.1769105,11.4905538 23.4858532,10.7031199 C23.7947959,9.91568606 23.9515501,9.00885242 23.9515501,7.98715319 C23.9515501,6.96394257 23.7902302,6.04048364 23.4691125,5.21677642 C23.1479947,4.3930692 22.8877523,3.78549066 22.6883854,3.39404081 C22.4874966,3.00410234 22.1815976,2.45849077 21.7691668,1.76022887 L23.0414627,1.76022887 L23.0414627,1.76022887 Z"/>
</svg>
