<svg xmlns="http://www.w3.org/2000/svg" width="27" height="16" viewBox="0 0 27 16">
  <g fill="none" fill-rule="evenodd">
    <polygon fill="#000" points="6.421 9.219 3.141 1.037 6.102 1.037 8.182 6.899 12.723 1.037 15.984 1.037 9.222 9.219 8.002 15 5.201 15"/>
    <path fill="#000" d="M19.1807,6.6777 L20.2817,6.6777 C21.7017,6.6777 23.2427,6.2787 23.2427,4.6377 C23.2427,3.2977 21.9617,3.2377 20.9017,3.2377 L19.9207,3.2377 L19.1807,6.6777 Z M17.9007,12.7997 L18.8607,12.7997 C20.5807,12.7997 22.5017,12.5997 22.5017,10.4397 C22.5017,8.9787 21.1417,8.7587 19.6407,8.7587 L18.7417,8.7587 L17.9007,12.7997 Z M17.6807,1.0367 L21.8217,1.0367 C24.0017,1.0367 26.0417,1.8367 26.0417,4.3777 C26.0417,6.0777 24.6817,7.4387 23.0617,7.6987 L23.0617,7.7387 C24.6217,7.9787 25.3017,9.1787 25.3017,10.6787 C25.3017,14.6797 20.8217,14.9997 18.7417,14.9997 L14.7597,14.9997 L17.6807,1.0367 Z"/>
  </g>
</svg>
