<svg xmlns="http://www.w3.org/2000/svg" width="29" height="16" viewBox="0 0 29 16">
  <path fill-rule="evenodd" d="M14.8232 3.998C13.7432 3.298 12.4022 2.997 10.9422 2.997 7.5412 2.997 5.4012 5.658 5.4012 8.959 5.4012 11.219 6.9612 13.04 9.3422 13.04 9.9812 13.04 10.4022 13.04 10.7212 12.899L11.5022 9.199 8.5422 9.199 9.0022 6.998 14.6632 6.998 13.0622 14.62C12.2422 14.96 10.6812 15.24 9.3222 15.24 5.2202 15.24 2.4802 13.359 2.4802 9.039 2.4802 3.937 5.8212.797 10.8622.797 12.4232.797 14.0622 1.017 15.5232 1.577L14.8232 3.998zM20.3809 6.998L21.4009 6.998C22.9019 6.998 24.7219 6.538 24.7219 4.698 24.7219 3.237 23.4609 3.237 22.3209 3.237L21.1609 3.237 20.3809 6.998zM18.7799 1.037L22.0809 1.037C24.6609 1.037 27.6419.997 27.6419 4.338 27.6419 6.738 25.8419 8.019 23.5619 8.059L23.5619 8.099C24.3209 8.139 24.8019 8.618 24.9819 9.379L26.3219 15 23.3809 15 22.7009 11.72C22.3809 10.239 22.4609 9.199 20.9409 9.199L19.8809 9.199 18.6599 15 15.8599 15 18.7799 1.037z"/>
</svg>
