<svg xmlns="http://www.w3.org/2000/svg" width="27" height="16" viewBox="0 0 27 16">
  <path fill-rule="evenodd" d="M22.292425,11.304 L22.292425,11.4082222 C22.292425,12.0491111 22.05145,12.5966667 21.567925,13.0508889 C21.082825,13.5051111 20.500075,13.7322222 19.816525,13.7322222 C19.144,13.7322222 18.5707,13.5066667 18.0919,13.0586667 C17.614675,12.6106667 17.375275,12.0708889 17.375275,11.444 L17.375275,11.304 L15.589225,11.304 L15.589225,11.4082222 C15.589225,12.0491111 15.34825,12.5966667 14.86,13.0508889 C14.37175,13.5051111 13.784275,13.7322222 13.096,13.7322222 C12.41875,13.7322222 11.83915,13.5066667 11.358775,13.0586667 C10.876825,12.6122222 10.637425,12.0724444 10.637425,11.4455556 L10.637425,11.304 L8.851375,11.304 L8.851375,11.4082222 C8.851375,12.0491111 8.6104,12.5966667 8.126875,13.0508889 C7.64335,13.5051111 7.059025,13.7322222 6.375475,13.7322222 C5.71555,13.7322222 5.143825,13.5097778 4.6603,13.068 C4.176775,12.6262222 3.9358,12.0848889 3.9358,11.4455556 L3.9169,11.304 L1,11.304 L1,8.28777778 L5.597425,8.28777778 L5.597425,5.02111111 L1.01575,5.02111111 L1.01575,2.84333333 L8.875,2.84333333 L8.875,5.95444444 L18.325,5.95444444 L18.325,1 L20.6875,1 L20.6875,5.95444444 L24.41395,5.95444444 L26.2,11.304 L22.292425,11.304"/>
</svg>
