<svg xmlns="http://www.w3.org/2000/svg" width="26" height="16" viewBox="0 0 26 16">
  <g fill="none" fill-rule="evenodd">
    <path fill="#000" d="M5.9414,6.999 L6.9614,6.999 C8.4624,6.999 10.2824,6.539 10.2824,4.699 C10.2824,3.238 9.0214,3.238 7.8814,3.238 L6.7214,3.238 L5.9414,6.999 Z M4.3404,1.038 L7.6414,1.038 C10.2214,1.038 13.2024,0.998 13.2024,4.339 C13.2024,6.739 11.4024,8.02 9.1224,8.06 L9.1224,8.1 C9.8814,8.14 10.3624,8.619 10.5424,9.38 L11.8824,15.001 L8.9414,15.001 L8.2614,11.721 C7.9414,10.24 8.0214,9.2 6.5014,9.2 L5.4414,9.2 L4.2204,15.001 L1.4204,15.001 L4.3404,1.038 Z"/>
    <polygon fill="#000" points="16.78 1.038 25.002 1.038 24.582 3.238 19.121 3.238 18.4 6.679 23.282 6.679 22.842 8.88 17.94 8.88 17.12 12.801 22.641 12.801 22.162 15.001 13.84 15.001"/>
  </g>
</svg>
