<svg xmlns="http://www.w3.org/2000/svg" width="27" height="16" viewBox="0 0 27 16">
  <path fill-rule="evenodd" d="M11.4023 3.7178C10.5823 3.2978 9.5213 2.9968 8.5023 2.9968 7.5013 2.9968 6.1613 3.3978 6.1613 4.5978 6.1613 6.8378 10.9223 6.6978 10.9223 10.5788 10.9223 13.9998 8.2413 15.2398 5.1803 15.2398 3.8403 15.2398 2.4603 14.9198 1.2003 14.4598L1.9203 12.0788C3.0003 12.5788 4.1403 13.0398 5.3403 13.0398 6.6813 13.0398 8.0023 12.3598 8.0023 10.8598 8.0023 8.3388 3.2403 8.7388 3.2403 5.0178 3.2403 2.0768 5.7603.7968 8.4413.7968 9.6623.7968 10.9223.9568 12.0623 1.4168L11.4023 3.7178zM24.9033 3.8174C24.2623 3.3784 23.2023 2.9974 21.7023 2.9974 18.6013 2.9974 16.4213 5.3384 16.4213 8.6184 16.4213 10.9594 17.9413 13.0404 20.4023 13.0404 21.5823 13.0404 22.5423 12.6594 23.3423 12.1794L22.9023 14.8604C21.8823 15.1394 20.8013 15.2404 19.7423 15.2404 15.5203 15.2404 13.5003 12.3994 13.5003 8.6184 13.5003 4.1174 16.5613.7964 21.5023.7964 22.9023.7964 24.3823.9764 25.6023 1.4774L24.9033 3.8174z"/>
</svg>
