<svg xmlns="http://www.w3.org/2000/svg" width="26" height="16" viewBox="0 0 26 16">
  <g fill="none" fill-rule="evenodd">
    <polygon fill="#000" points="4.421 1.037 7.222 1.037 4.721 12.8 10.202 12.8 9.722 15 1.46 15"/>
    <path fill="#000" d="M23.7832,3.8174 C23.1422,3.3784 22.0822,2.9974 20.5822,2.9974 C17.4812,2.9974 15.3012,5.3384 15.3012,8.6184 C15.3012,10.9594 16.8212,13.0404 19.2822,13.0404 C20.4622,13.0404 21.4222,12.6594 22.2222,12.1794 L21.7822,14.8604 C20.7622,15.1394 19.6812,15.2404 18.6222,15.2404 C14.4002,15.2404 12.3802,12.3994 12.3802,8.6184 C12.3802,4.1174 15.4412,0.7964 20.3822,0.7964 C21.7822,0.7964 23.2622,0.9764 24.4822,1.4774 L23.7832,3.8174 Z"/>
  </g>
</svg>
