<svg xmlns="http://www.w3.org/2000/svg" width="27" height="16" viewBox="0 0 27 16">
  <path fill-rule="evenodd" d="M11.4023 3.7178C10.5823 3.2978 9.5213 2.9968 8.5023 2.9968 7.5013 2.9968 6.1613 3.3978 6.1613 4.5978 6.1613 6.8378 10.9223 6.6978 10.9223 10.5788 10.9223 13.9998 8.2413 15.2398 5.1803 15.2398 3.8403 15.2398 2.4603 14.9198 1.2003 14.4598L1.9203 12.0788C3.0003 12.5788 4.1403 13.0398 5.3403 13.0398 6.6813 13.0398 8.0023 12.3598 8.0023 10.8598 8.0023 8.3388 3.2403 8.7388 3.2403 5.0178 3.2403 2.0768 5.7603.7968 8.4413.7968 9.6623.7968 10.9223.9568 12.0623 1.4168L11.4023 3.7178zM16.0205 12.7998L17.3215 12.7998C21.3625 12.7998 23.2025 10.4398 23.2025 6.5988 23.2025 4.4178 21.5015 3.2368 18.9815 3.2368L18.0215 3.2368 16.0205 12.7998zM15.6805 1.0368L19.8815 1.0368C22.8025 1.0368 26.1235 2.1568 26.1235 6.9978 26.1235 10.2388 24.4825 14.9998 17.4415 14.9998L12.7405 14.9998 15.6805 1.0368z"/>
</svg>
