<svg xmlns="http://www.w3.org/2000/svg" width="24" height="24" viewBox="0 0 24 24">
  <g fill="none" fill-rule="evenodd">
    <path stroke="#000" d="M14,17.4997 C14,17.4997 12.93,18.4997 11.5,18.4997 C10.07,18.4997 9,17.4997 9,17.4997 M19,18.9997 L3,2.9997 M7.686,4.2722 C8.723,4.4142 10.051,4.5002 11.5,4.5002 C14.813,4.5002 17.5,4.0522 17.5,3.5002 C17.5,2.9472 14.813,2.5002 11.5,2.5002 C9.337,2.5002 7.447,2.6912 6.391,2.9772 M5.5,5.5002 L5.5,9.5002 C5.5,10.6042 8.187,11.5002 11.5,11.5002 M7.062,10.8425 C7.365,12.0595 9.226,13.0005 11.5,13.0005 C11.981,13.0005 12.43,12.9415 12.861,12.8615 M5.5,11.4499 L5.995,15.9999 C5.995,15.9999 6.279,18.2659 7.509,19.3809 C8.897,20.6379 9.972,21.4669 11.5,21.4669 C13.028,21.4669 14.104,20.6379 15.491,19.3809 C16.244,18.6989 16.638,17.5949 16.834,16.8339 M17.2412,13.8269 L17.5002,11.4499 M15.2578,11.8435 C15.6008,11.5455 15.8468,11.2095 15.9378,10.8425 M14.6201,11.2058 C16.3451,10.8548 17.5001,10.2228 17.5001,9.4998 L17.5001,3.4998"/>
    <path fill="#000" d="M12.875,9.4612 L13.9,8.5002 L12,8.5002 L11,7.5002 L11,6.0002 L12,6.0002 L12,7.5002 L13.9,7.5002 L12.3,6.0002 L13.5,6.0002 L15.5,8.0002 L13.44,10.0602 L12.875,9.4612 Z M10.0361,6.6223 L9.5001,6.0003 L10.7001,6.0003 L10.0361,6.6223 Z M9.5,14.4997 C9.914,14.4997 10.25,14.8357 10.25,15.2497 C10.25,15.6637 9.914,15.9997 9.5,15.9997 C9.086,15.9997 8.75,15.6637 8.75,15.2497 C8.75,14.8357 9.086,14.4997 9.5,14.4997 Z M13.5,14.4997 C13.914,14.4997 14.25,14.8357 14.25,15.2497 C14.25,15.6637 13.914,15.9997 13.5,15.9997 C13.086,15.9997 12.75,15.6637 12.75,15.2497 C12.75,14.8357 13.086,14.4997 13.5,14.4997 Z"/>
  </g>
</svg>
