<svg xmlns="http://www.w3.org/2000/svg" width="24" height="24" viewBox="0 0 24 24">
  <path fill="none" stroke="#000" d="M18.5162,20.4997 C18.5162,17.6807 16.5902,15.2337 14.5372,13.9957 C13.9132,13.6117 13.4842,12.8607 13.4842,11.9997 C13.4842,11.1387 13.9132,10.3877 14.5372,10.0047 C16.5902,8.7667 18.5162,6.3187 18.5162,3.4997 L5.4842,3.4997 C5.4842,6.3187 7.4092,8.7667 9.4622,10.0047 C10.0862,10.3877 10.5162,11.1387 10.5162,11.9997 C10.5162,12.8607 10.0862,13.6117 9.4622,13.9957 C7.4092,15.2337 5.4842,17.6807 5.4842,20.4997 L18.5162,20.4997 Z M9.4639,7.5002 C9.7939,7.8072 10.1469,8.0772 10.5039,8.2932 L10.5069,8.2952 C11.1629,8.6992 11.6619,9.3862 11.9989,10.1312 C12.3349,9.3882 12.8309,8.7022 13.4839,8.3012 C13.8449,8.0822 14.2029,7.8092 14.5359,7.5002 L9.4639,7.5002 Z"/>
</svg>
