<svg xmlns="http://www.w3.org/2000/svg" width="24" height="24" viewBox="0 0 24 24">
  <path fill="none" stroke="#000" d="M9,7.4997 C9.84,7.4997 10.5,8.1597 10.5,8.9997 C10.5,9.8397 9.84,10.4997 9,10.4997 C8.16,10.4997 7.5,9.8397 7.5,8.9997 C7.5,8.1597 8.16,7.4997 9,7.4997 M13,13.5007 C13.84,13.5007 14.5,14.1597 14.5,15.0007 C14.5,15.8407 13.84,16.5007 13,16.5007 C12.16,16.5007 11.5,15.8407 11.5,15.0007 C11.5,14.1597 12.16,13.5007 13,13.5007 M15,8.0002 L7,16.0002 M3.5,5.5002 L17,5.5002 L20.5,12.0002 L17,18.5002 L3.5,18.5002 L3.5,5.5002 Z"/>
</svg>
