<svg xmlns="http://www.w3.org/2000/svg" width="24" height="24" viewBox="0 0 24 24">
  <g fill="none" fill-rule="evenodd">
    <path stroke="#000" d="M20.5,12.5002 C20.5,15.8142 17.813,18.5002 14.5,18.5002 C11.187,18.5002 8.5,15.8142 8.5,12.5002 C8.5,9.1872 11.187,6.5002 14.5,6.5002 C17.813,6.5002 20.5,9.1872 20.5,12.5002 Z M8.5,12.5002 L3,12.5002 L8.5,12.5002 Z"/>
    <path fill="#000" d="M18,12.5 C18,14.4331667 16.4331667,16 14.5,16 C12.5668333,16 11,14.4331667 11,12.5 C11,10.5668333 12.5668333,9 14.5,9 C16.4331667,9 18,10.5668333 18,12.5"/>
  </g>
</svg>
