<svg xmlns="http://www.w3.org/2000/svg" width="24" height="24" viewBox="0 0 24 24">
  <path fill="none" stroke="#000" d="M15.5,10.5002 C18.257,10.5002 20.5,12.7432 20.5,15.5002 C20.5,18.2562 18.257,20.5002 15.5,20.5002 C12.743,20.5002 10.5,18.2562 10.5,15.5002 C10.5,12.7432 12.743,10.5002 15.5,10.5002 Z M1.9995,3.4997 L8.9995,3.4997 L1.9995,3.4997 Z M10.9995,3.4997 L14.9995,3.4997 L10.9995,3.4997 Z M10.9995,6.5002 L14.9995,6.5002 L10.9995,6.5002 Z M17,6.5002 L22,6.5002 L17,6.5002 Z M17,3.4997 L22,3.4997 L17,3.4997 Z M1.9995,6.5002 L8.9995,6.5002 L1.9995,6.5002 Z M1.9995,9.5002 L8.9995,9.5002 L1.9995,9.5002 Z M1.9995,12.5002 L6.9995,12.5002 L1.9995,12.5002 Z M1.9995,15.4997 L6.9995,15.4997 L1.9995,15.4997 Z M1.9995,18.4997 L6.9995,18.4997 L1.9995,18.4997 Z M15.5,12.0002 L15.5,15.5002 L19,15.5002"/>
</svg>
