<svg xmlns="http://www.w3.org/2000/svg" width="24" height="24" viewBox="0 0 24 24">
  <path fill="none" stroke="#000" d="M14.5,19.9997 L14.5,15.4997 L12.5,13.4997 L10.5,13.4997 L10.5,16.4997 L8.5,19.4997 M12.5,8.4997 L12.5,13.4997 L10.5,13.4997 L10.5,8.4997 M11.5,6.4997 C10.967,6.4997 10.5,6.0337 10.5,5.4997 C10.5,4.9667 10.967,4.4997 11.5,4.4997 C12.033,4.4997 12.5,4.9667 12.5,5.4997 C12.5,6.0337 12.033,6.4997 11.5,6.4997 Z M7.5,13.9997 L7.5,10.4997 L10.5,8.4997 L12.5,8.4997 L14.5,10.4997 L17,10.4997"/>
</svg>
