<svg xmlns="http://www.w3.org/2000/svg" width="24" height="24" viewBox="0 0 24 24">
  <path fill="none" stroke="#000" d="M13.501,13.5928 L13.501,16.4998 L10.501,19.4998 M16.501,8.5 L15.5,13.5 L17.501,15.5 L16.5,20 M13.501,16.5 L13.501,13.5 L14.501,8.5 M10.5005,14 L11.5005,10.5 L14.5005,8.5 L16.5005,8.5 L18.5005,10.5 L21.0005,11.5 M14.501,8.5 L13.501,13.5 L15.5,13.5 L16.501,8.5 M9,9.5 L5,9.5 M8,13.5 L3,13.5 M10,16.5 L5,16.5 M12,6.5 L7,6.5 M15.4912,6.5 C14.9582,6.5 14.4912,6.033 14.4912,5.5 C14.4912,4.967 14.9582,4.5 15.4912,4.5 C16.0242,4.5 16.4912,4.967 16.4912,5.5 C16.4912,6.033 16.0242,6.5 15.4912,6.5 Z"/>
</svg>
