<svg xmlns="http://www.w3.org/2000/svg" width="24" height="24" viewBox="0 0 24 24">
  <g fill="none" fill-rule="evenodd">
    <path stroke="#000" d="M15.5,20 L15.5,15.5 L14.5,13.593 L12.5,13.593 L12.5,16.5 L12,20 M14.5,8.5 L14.5,13.593 L12.5,13.593 L12.5,8.5 M10.5356,13.5352 L8.4756,18.6352 L6.6236,17.8792 L7.7476,15.0972 L9.5926,15.8492 M10.5005,13 L10.5005,10.5 L12.5005,8.5 L14.5005,8.5 L15.5005,10.5 L17.0005,12.5 M13.5,6.5 C12.967,6.5 12.5,6.033 12.5,5.5 C12.5,4.967 12.967,4.5 13.5,4.5 C14.033,4.5 14.5,4.967 14.5,5.5 C14.5,6.033 14.033,6.5 13.5,6.5 Z"/>
    <path fill="#000" d="M6.2402,18.3086 C6.3022,18.3086 6.3662,18.3206 6.4272,18.3446 C6.6832,18.4486 6.8072,18.7396 6.7032,18.9956 C6.6252,19.1906 6.4382,19.3086 6.2402,19.3086 C6.1782,19.3086 6.1142,19.2966 6.0532,19.2716 C5.7972,19.1686 5.6732,18.8766 5.7762,18.6206 C5.8552,18.4266 6.0422,18.3086 6.2402,18.3086 Z M8.0947,19.0576 C8.1567,19.0576 8.2207,19.0696 8.2817,19.0936 C8.5377,19.1976 8.6617,19.4896 8.5577,19.7446 C8.4797,19.9396 8.2917,20.0576 8.0947,20.0576 C8.0327,20.0576 7.9687,20.0456 7.9077,20.0216 C7.6517,19.9176 7.5277,19.6256 7.6307,19.3696 C7.7097,19.1756 7.8967,19.0576 8.0947,19.0576 Z"/>
  </g>
</svg>
