<svg xmlns="http://www.w3.org/2000/svg" width="24" height="24" viewBox="0 0 24 24">
  <path fill="none" stroke="#000" d="M8.7002,10.9304 C7.3992,11.5924 6.5022,12.9464 6.5022,14.4974 C6.5022,16.6974 8.3042,18.4974 10.5022,18.4974 C12.0952,18.4974 13.4802,17.5524 14.1222,16.1944 M4.7002,4.4997 C3.4002,6.2997 2.4002,8.6997 2.4002,11.9997 C2.4002,15.2997 3.4002,17.6007 4.7002,19.4997 M19.0996,19.4997 C20.4006,17.6997 21.4006,15.2997 21.4006,11.9997 C21.4006,8.6997 20.4006,6.3997 19.0996,4.4997 M10.5,7.9997 L10.5,13.4997 L15.5,13.4997 L15.5,18.9997 M11,6.0002 C11,6.2762 10.776,6.5002 10.5,6.5002 C10.224,6.5002 10,6.2762 10,6.0002 C10,5.7242 10.224,5.5002 10.5,5.5002 C10.776,5.5002 11,5.7242 11,6.0002 Z"/>
</svg>
