<svg xmlns="http://www.w3.org/2000/svg" width="36" height="36" viewBox="0 0 36 36">
  <path fill="none" stroke="#000" d="M11.31,6.75 L8.19,6.75 C7.089,6.75 6.0975,7.398 5.655,8.391 C4.557,10.8465 3.75,11.8365 3.75,13.0125 L3.75,29.7015 C3.75,31.1085 4.9065,32.25 6.336,32.25 L13.164,32.25 C14.592,32.25 15.75,31.1085 15.75,29.7015 L15.75,13.0125 C15.75,11.8365 14.943,10.8465 13.845,8.391 C13.401,7.398 12.411,6.75 11.31,6.75 Z M3.75,27.75 L9.75,27.75 L9.75,15.75 L3.75,15.75 L3.75,27.75 Z M8.25,6.75 L11.25,6.75 L11.25,3.7485 L8.25,3.7485 L8.25,6.75 Z M25.5,31.5 C26.412,31.5375 26.8185,32.2185 28.5,32.25 C30.7965,32.25 32.25,29.25 32.25,24.894 C32.25,20.25 29.8545,20.22 28.5,20.25 C26.7375,20.25 27.093,21 25.5,21 C23.907,21 24.261,20.25 22.5,20.25 C21.144,20.22 18.75,20.25 18.75,24.894 C18.75,29.25 20.2035,32.25 22.5,32.25 C24.1815,32.2185 24.588,31.5375 25.5,31.5 Z M29.2032,15.75 C29.2032,15.75 25.4997,15.9375 25.4997,21"/>
</svg>
