<svg xmlns="http://www.w3.org/2000/svg" width="36" height="36" viewBox="0 0 36 36">
  <g fill="none" fill-rule="evenodd">
    <path stroke="#000" d="M17.24925,3.7503 L5.24925,3.7503 L5.24925,12.7503 L17.24925,12.7503 L17.24925,8.7738 L18.74925,7.5003 L17.24925,6.0003 L17.24925,3.7503 Z M14.99925,6.7188 L7.46775,6.7188 M11.99925,9.7188 L7.46775,9.7188 M9.2475,22.27395 C6.9195,23.51295 5.25,26.83395 5.25,30.74895 L17.25,30.74895 C17.25,26.83395 15.5805,23.51145 13.2525,22.27395 M11.25,15.7503 C12.906,15.7503 14.25,17.4288 14.25,19.5003 C14.25,21.5703 12.906,23.2503 11.25,23.2503 C9.594,23.2503 8.25,21.5703 8.25,19.5003 C8.25,17.4288 9.594,15.7503 11.25,15.7503 Z M22.749,10.27395 C20.421,11.51145 18.75,14.83395 18.75,18.74895 L30.7515,18.74895 C30.7515,14.83395 29.082,11.51145 26.754,10.27395 M24.7515,3.74955 C26.4075,3.74955 27.7515,5.42805 27.7515,7.49955 C27.7515,9.57105 26.4075,11.24955 24.7515,11.24955 C23.094,11.24955 21.7515,9.57105 21.7515,7.49955 C21.7515,5.42805 23.094,3.74955 24.7515,3.74955 Z"/>
    <polygon fill="#000" points="25.5 13.125 27 14.531 25.22 14.531 25.22 13.125 24.282 13.125 24.282 14.531 22.5 14.531 24 13.125 22.875 13.125 21 15 22.875 16.875 24 16.875 22.5 15.468 24.282 15.468 24.282 16.875 25.22 16.875 25.22 15.468 27 15.468 25.5 16.875 26.625 16.875 28.5 15 26.625 13.125"/>
  </g>
</svg>
