<svg xmlns="http://www.w3.org/2000/svg" width="36" height="36" viewBox="0 0 36 36">
  <path fill="none" stroke="#000" d="M9.75015,6.7503 C9.75015,5.0928 8.40615,3.7503 6.75015,3.7503 C5.09415,3.7503 3.75015,5.0928 3.75015,6.7503 C3.75015,8.4063 5.09415,9.7503 6.75015,9.7503 C8.40615,9.7503 9.75015,8.4063 9.75015,6.7503 Z M9.348,5.2503 L17.25,5.2503 L18.726,6.7263 L17.2035,8.2503 L9.348,8.2503 M3.75,32.25075 L32.25,32.25075 L32.25,12.75075 L3.75,12.75075 L3.75,32.25075 Z M26.25015,18.75105 L9.75015,18.75105 C8.92215,18.75105 8.25015,19.42155 8.25015,20.25105 L8.25015,26.25105 C8.25015,27.07905 8.92215,27.75105 9.75015,27.75105 L26.25015,27.75105 C27.07815,27.75105 27.75015,27.07905 27.75015,26.25105 L27.75015,20.25105 C27.75015,19.42155 27.07815,18.75105 26.25015,18.75105 Z M15.00015,17.25105 L21.00015,17.25105"/>
</svg>
