<svg xmlns="http://www.w3.org/2000/svg" width="36" height="36" viewBox="0 0 36 36">
  <g fill="none" fill-rule="evenodd" stroke="#000">
    <path d="M12.75,14.99955 L12.75,8.24955 C12.75,5.76405 14.7645,3.74955 17.25,3.74955 C19.7355,3.74955 21.75,5.76405 21.75,8.24955 L21.75,14.99955 M8.25,11.2503 L6.75,30.7503 L27.75,30.7503 L26.25,11.2503 L8.25,11.2503 Z M17.25,18.0003 L17.25,25.5003"/>
    <path stroke-dasharray="1 1" d="M23.25,21.74955 C23.25,18.43605 20.5635,15.74955 17.25,15.74955 C13.9365,15.74955 11.25,18.43605 11.25,21.74955 C11.25,25.06305 13.9365,27.74955 17.25,27.74955 C20.5635,27.74955 23.25,25.06305 23.25,21.74955 Z"/>
  </g>
</svg>
