<svg xmlns="http://www.w3.org/2000/svg" width="36" height="36" viewBox="0 0 36 36">
  <path fill="none" stroke="#000" d="M6,25.3311 C4.5795,26.0331 3.75,26.8626 3.75,27.7491 C3.75,30.2166 10.098,32.2491 18,32.2491 C25.9035,32.2491 32.25,30.2166 32.25,27.7491 C32.25,26.8626 31.4205,26.0331 30,25.3326 M16.5,12.0003 L18,13.5003 L20.25,11.2503 M23.25,13.5003 C23.25,16.4298 20.9295,18.7503 18,18.7503 C15.0705,18.7503 12.75,16.4298 12.75,13.5003 C12.75,10.5708 15.0705,8.2503 18,8.2503 C20.9295,8.2503 23.25,10.5708 23.25,13.5003 Z M8.25,7.95 L8.25,27.75 L14.25,27.75 L14.25,23.2635 L21.75,23.2635 L21.75,27.75 L27.75,27.75 L27.75,7.95 C18.792,4.2945 17.2935,4.3575 8.25,7.95 Z"/>
</svg>
