<svg xmlns="http://www.w3.org/2000/svg" width="36" height="36" viewBox="0 0 36 36">
  <path fill="none" stroke="#000" d="M21.9009,9.44925 L24.7494,11.99925 L27.6009,8.39925 M30.75,11.24955 C30.75,14.59755 28.098,17.24955 24.75,17.24955 C21.4035,17.24955 18.75,14.59755 18.75,11.24955 C18.75,7.90155 21.4035,5.24955 24.75,5.24955 C28.098,5.24955 30.75,7.90155 30.75,11.24955 Z M18.75,30.75 L30.75,30.75 L30.75,23.265 L18.75,23.265 L18.75,30.75 Z M22.5015,21.76425 L27.0015,21.76425 M9.74925,9.7503 C9.74925,10.5783 9.07725,11.2503 8.24925,11.2503 C7.42125,11.2503 6.74925,10.5783 6.74925,9.7503 C6.74925,8.9208 7.42125,8.2503 8.24925,8.2503 C9.07725,8.2503 9.74925,8.9208 9.74925,9.7503 Z M11.24925,21.74955 L11.24925,14.24955 L5.24925,14.24955 L5.24925,21.74955 L6.74925,21.74955 L6.74925,30.74955 L9.74925,30.74955 L9.74925,21.74955 L11.24925,21.74955 Z"/>
</svg>
