<svg xmlns="http://www.w3.org/2000/svg" width="36" height="36" viewBox="0 0 36 36">
  <path fill="none" stroke="#000" d="M5.25,17.25 L14.25,17.25 M5.25,24.75 L12,24.75 M12,32.25 L5.25,32.25 L5.25,13.5 C5.25,12.258 6.2565,11.25 7.5,11.25 L8.25,11.25 L8.25,3.75 L11.25,3.75 L11.25,11.25 L12,11.25 C13.2435,11.25 14.25,12.258 14.25,13.5 L14.25,18 M21.75,25.5 C21.75,26.742 20.7435,27.75 19.5,27.75 C18.2565,27.75 17.25,26.742 17.25,25.5 C17.25,24.258 18.2565,23.25 19.5,23.25 C20.7435,23.25 21.75,24.258 21.75,25.5 Z M27.75,27.75 C27.75,28.5795 27.078,29.25 26.25,29.25 C25.422,29.25 24.75,28.5795 24.75,27.75 C24.75,26.9205 25.422,26.25 26.25,26.25 C27.078,26.25 27.75,26.9205 27.75,27.75 Z M30.75,26.25 C30.75,25.143 31.3575,24.186 32.25,23.6655 L32.25,20.25 L27.75,20.25 L27.75,21 C27.75,22.242 26.7435,23.25 25.5,23.25 C24.2565,23.25 23.25,22.242 23.25,21 L23.25,20.25 L14.25,20.25 L14.25,32.25 L32.25,32.25 L32.25,28.8345 C31.3575,28.314 30.75,27.357 30.75,26.25 Z"/>
</svg>
