<svg xmlns="http://www.w3.org/2000/svg" width="36" height="36" viewBox="0 0 36 36">
  <path fill="none" stroke="#000" d="M7.5,21.74955 L10.5,21.74955 M7.5,18.74955 L9,18.74955 M10.5,18.74955 L12,18.74955 M12,21.74955 L13.5,21.74955 M10.5,24.74955 L12,24.74955 M7.5,24.74955 L9,24.74955 M24,24.74955 L25.5,24.74955 M27,24.74955 L28.5,24.74955 M15,21.74955 L16.5,21.74955 M18,21.74955 L19.5,21.74955 M21,21.74955 L22.5,21.74955 M24,21.74955 L25.5,21.74955 M13.5,18.74955 L15,18.74955 M16.5,18.74955 L18,18.74955 M19.5,18.74955 L21,18.74955 M22.5,18.74955 L24,18.74955 M13.5,24.74955 L22.5,24.74955 M25.5,18.74955 L27.75,18.74955 L27.75,22.49955 M5.25,27.75 L30.75,27.75 L30.75,15.75 L5.25,15.75 L5.25,27.75 Z M15.75,15.74955 L15.75,9.74955 L22.5,9.74955"/>
</svg>
