<svg xmlns="http://www.w3.org/2000/svg" width="36" height="36" viewBox="0 0 36 36">
  <g fill="none" fill-rule="evenodd">
    <path stroke="#000" d="M8.25,11.2503 L27.75,11.2503 L30.75,30.7503 L5.25,30.7503 L8.25,11.2503 Z M21,8.2503 C21,9.9063 19.656,11.2503 18,11.2503 C16.344,11.2503 15,9.9063 15,8.2503 C15,6.5928 16.344,5.2503 18,5.2503 C19.656,5.2503 21,6.5928 21,8.2503 Z"/>
    <path fill="#000" d="M17.751,18.01575 L14.394,21.40275 L18.0675,26.58225 L15.7065,26.58225 L13.1055,22.73775 L12.027,23.81625 L12.027,26.58225 L10.158,26.58225 L10.158,18.01575 L12.027,18.01575 L12.027,21.56025 L15.384,18.01575 L17.751,18.01575 Z M25.94235,21.96495 L25.94235,26.58195 L24.74685,26.58195 L24.55935,25.60395 C23.92635,26.39145 23.07285,26.78745 21.99885,26.78745 C20.69085,26.78745 19.65735,26.30445 18.89985,25.33395 C18.27135,24.52545 17.95635,23.52645 17.95635,22.33995 C17.95635,20.99295 18.36585,19.88895 19.18635,19.02945 C19.95585,18.21645 20.95035,17.80995 22.16835,17.80995 C23.29335,17.80995 24.20985,18.17445 24.91635,18.90045 C25.44435,19.44795 25.74735,20.09145 25.82535,20.83395 L24.01485,20.83395 C23.92035,20.37195 23.71185,20.01345 23.38485,19.75545 C23.05785,19.49745 22.64535,19.36995 22.14585,19.36995 C21.38835,19.36995 20.80185,19.66245 20.38785,20.24745 C20.02485,20.75895 19.84335,21.45045 19.84335,22.32195 C19.84335,23.17395 20.01285,23.84895 20.35185,24.34995 C20.77035,24.96195 21.38835,25.26945 22.20435,25.26945 C22.79385,25.26945 23.27835,25.09095 23.65485,24.73695 C24.03135,24.37995 24.22935,23.91345 24.24885,23.33595 L22.34535,23.33595 L22.34535,21.96495 L25.94235,21.96495 Z"/>
  </g>
</svg>
