<svg xmlns="http://www.w3.org/2000/svg" width="36" height="36" viewBox="0 0 36 36">
  <path fill="none" stroke="#000" d="M18,29.25 L9.75,29.25 L9.75,6.75 L18.75,6.75 L26.25,14.25 L26.25,16.5 M26.25,14.25 L18.75,14.25 L18.75,6.75 M13.5,18.75 L21,18.75 M13.4964,21.75 L17.9964,21.75 M13.5,24.75 L18,24.75 M23.25,23.25 L23.25,20.25 C23.25,19.422 23.9205,18.75 24.75,18.75 C25.5795,18.75 26.25,19.422 26.25,20.25 L26.25,23.25 M24.75,28.5 L24.75,25.4535 M20.25,30.75 L29.25,30.75 L29.25,23.25 L20.25,23.25 L20.25,30.75 Z"/>
</svg>
